<?xml version="1.0" encoding="utf-8"?>
<svg version="1.1" id="Mario" xmlns="http://www.w3.org/2000/svg" xmlns:xlink="http://www.w3.org/1999/xlink" x="0px" y="0px"
	 viewBox="0 0 1601.9 1880.5" style="enable-background:new 0 0 1601.9 1880.5;" xml:space="preserve">
<style type="text/css">
	.st0{fill:#FCD0AF;}
	.st1{fill:#FFFFFF;}
	.st2{fill:#FFF100;}
	.st3{fill:#874C30;}
	.st4{fill:#EC1C24;}
	.st5{fill:#2BC2E8;}
	.st6{fill:#0066B2;}
	.st7{fill:#FAB16A;}
</style>
<g>
	<path class="st0" d="M1077,503.5c1.2,2.2,2.3,3.7,4.4,1c41-48.9,121.4-81.2,169.6-66.2c67,20.8,88.2,130.5,34.8,184.3
		c-44.6,45.4-127.8,65.6-194.4,1.2l-20.3,16.2c1.3,1.8,2.7,3.5,4.1,5.1c-52.5,12.7-130.4-34.5-147.6-54.5c-2.6-3.1-3.9-5.8-8.6,0
		c-40.3,47.5-29.7,125.4,55.4,121.9c8,61.6,70.4,77.3,113.5,43.1c16.1,15.2,36,22.2,55,21.8c3.2,17.5-8.1,43.8-36.3,45
		c-11.3,32.7-36.7,64.1-82.9,75.4c-59.9,14.4-231.7-2.7-300.4-101.5c-13.6,11.5-96.7,25.7-152.1-45
		c-38.7-49.3-34.3-154.9,33.1-160.7c42.3-3.5,73.9,29.8,105.9,60.8c31.7,31,63.7,59.6,106.9,47.1c26.6-8,37.8-53.2,8.7-83.8
		c29.1-18.7,29.1-79.9-46.8-79.9c-34.9,0-57.4-28.8-68.6-51.4c14.3-18.1,29.6-36.6,45.6-55.5c32.1,38.2,125.6,12.3,176.8-32.7
		c9.5-8,19.5-18.3,30.3-29.2c15.3,7.8,26.1,19.5,31.8,24.7c6.5,5.7,6.3,2.9,5.9-3.1c-0.5-8-7.4-25.1-18.5-41.9
		c5.2-5.7,10.7-11.7,16-17.7C1017.2,359,1055.7,438.3,1077,503.5"/>
	<path class="st1" d="M1072.1,1022.3c33.7-10.1,69.7,18.3,85.8,51.2c15.9,33.1,14.1,68.6-4.3,78.5c-16,8.8-34.1,1.4-45.6-6.2
		C1101.3,1101.8,1088.6,1059.7,1072.1,1022.3"/>
	<path class="st1" d="M1108.9,1277.1c5.6-36.8,5.9-74.2,2-110.4c11.4,7,36.4,15.6,54.2-0.2c0.4,7.8,3,23.2,14.2,32.7
		c-10.8,16.4-9.2,47.1,13.5,63.1C1175.4,1279.4,1129.1,1281,1108.9,1277.1"/>
	<path class="st1" d="M1250.3,1250.8c-44.2,11.9-68.7-16.4-54.9-41.5c22.9,9.4,57.6,12.9,102.7-26.3
		C1305.6,1205,1291.4,1240.1,1250.3,1250.8"/>
	<path class="st1" d="M1271.4,1179.7c-33.2,24-72,16.6-81.8,1.8c-9.3-14.4-4.9-29-0.2-38.6c38.2,8.2,82.8-7.8,104.8-43.1
		C1319.9,1127.7,1295.3,1162.3,1271.4,1179.7"/>
	<path class="st1" d="M1270,1019.4c14.9,10.1,20.8,35.6,15.9,49.5c-9.6,27.7-41.6,64.1-96.9,52.6c0.8-11.7-1.2-25.9-7.7-42.1
		C1223.2,1070.2,1255.4,1046.4,1270,1019.4"/>
	<path class="st1" d="M1237.4,960.7c43.6,30.6-1.1,84.9-65.4,99c-13.5-24.2-30.6-39.7-48.3-48.1c3.1-11.3,12.8-28.4,25.3-35.3
		c7.2-3.9,10.4-5.3-0.9-5.3c-8.2,0-34.9,8.4-41.8,34.5c-14.9-3.9-29.6-3.1-41.6,0.2c-3-6.4-6.4-13.2-10-19.5
		C1118.8,943.4,1208.3,939.9,1237.4,960.7"/>
	<path class="st1" d="M451.3,1054.2c-1.6,36.8-14.9,58.2-43.8,56.5c4-22.8,3.6-45.6-3.3-66.2c-5.1-15.6-7.5-10.5-7.7-1.8
		c-2.7,128-82.7,188.6-119.5,181.4c-29-5.3-31.1-34.1-30.9-47.3c12.2-3.9,24.5-6.6,34.7-6.8V1152c-35.8,0-72.5,14.2-94.3,35.1
		l10.9,14.2c6-4.9,14.7-10.1,24.6-14.8c0,8.6,2.6,20.1,7.8,31c-33.5,25.5-88,15-105.8-3.3c-11.7-12.3-38.5-43.1-19.8-91.9
		c2.3-5.8,2.7-7-2.6-2.7c-15.5,12.1-22.6,29.2-23.4,46.9c-28.2-6.6-58.3-56.1-2.5-125.6c9.1-10.9,6.7-10.9-3.5-4.7
		c-21,13.2-35,27.3-43.8,41.3c-8.7-17.5-8.9-60.8,41.1-108.5c8.4-8,11.4-10.1,0-5.7c-10.4,3.9-20.9,10.3-30.7,18.5
		c-0.6-26.5,25.5-66.2,81.5-92.9c94.3-44.6,183-12.5,214.9,12.3c12.2,9.5,15.9,6.2,7.4-7c-5.1-8.4-12.6-16-22.2-22.4
		c13.8-13.3,42.1-16.8,64.5,1.4C434.8,914.2,453.5,991.9,451.3,1054.2"/>
	<path class="st2" d="M994.8,1184.5c-63.4,11.7-86-127-21.4-135.8C1029.6,1040.8,1046.6,1175,994.8,1184.5"/>
	<path d="M174.5,927c10.3-0.8,36.6-6.2,39.8-7.6c3.2-1.6,5.1-2.5,0-5.1c-3.2-1.8-29.3-16-41.6-16.8c-12.3-1-22.6,8.2-21.1,16.8
		C153.7,922.4,164.3,927.8,174.5,927 M236.1,964.6c-5.3-1.2-32.7-9.4-49.5-3.5c-11.8,4.1-17.3,13.8-14.1,22.8
		c3.2,9,15.8,12.5,24.6,9.5c8.6-3.3,35.7-20.6,39-22.8C239.7,968.3,243.5,966,236.1,964.6 M256.7,1010.8c-5.1,1.6-34.7,9-43.9,20.1
		c-6.1,7.6-8.5,19.7,0,25.5c8.5,5.8,21.3,2.5,27.4-3.7c10.9-10.7,18.7-33.5,20.4-37.8C262.3,1010.6,261.4,1009.4,256.7,1010.8
		 M992.5,1158.8c-16.2-9-27.5-29.8-32-49.1c-0.9-3.7-4.3-11.7-4.7,8.2c-0.7,31.9,25.4,57.5,40.3,48.7
		C1002.1,1162.9,996.4,1161,992.5,1158.8 M1458.7,1727.8c67-55.1,150-210.4,142.7-258.1c-1.6-10.3-40.7-32.1-52.1-37.8
		c0-26.9-14.7-86.3-92.7-101.7c-86.1-16.8-141.5,51.6-158.5,78.1c-19.1-11.7-46-8.8-68.4,13.4c-28.3-15.4-81.2-48.5-139.9-71.7
		c6.5-17.3,11.7-34.5,15.4-52.2c41.1,7,86.4,1.2,112.6-25.9c9.9,1.4,21.1,1.2,34.3-1.2c72.6-14.4,74.1-86.3,60.8-106.2
		c18.4-31.4,17-70.9-8.7-87.1c9.6-39.2-9.1-68.6-27-76.6c4.6-20.6-2-41.1-22.4-57.1c-30.3-23.4-129.8-34.1-212.4,21.4
		c-9.6-15.6-19.6-30-30-42.5c5.6-0.6,10.2-1,13.8-1.7c45.5-8,85.6-39.7,99.5-77.5c24.1-4.1,47.7-37.4,38.1-69.7
		c27.6-9.9,48.3-38.2,43.1-82.8c40-4.7,78.8-23,104.1-54.9c58.4-74.2,37.2-191.7-54.1-223.8c-55.2-19.3-136.9,22-169.3,54.7
		c-5.9-19.3-21.4-55.5-37.2-89.4c98.2-48.9,176.1-181.4,159.5-231.6c-18.8-56.3-151.3-24-230.9,28.8C964.5,122.9,916.1,0,799.2,0
		c-175,0-350.6,243.1-369.6,459.1c-27.2,12.3-96.4,49.7-107.4,115.5c-17.8,106,82,181,169.9,197.7c4.6,6.2,10.2,12.3,16.1,16.4
		c-26.7,6.6-32.1,36.6-16.8,54.1c-30.1,4.3-58.2,10.9-81.6,19.3c-46.3-40.9-96.7-25.3-111.5-2.7c-46.1-20.1-116.1-23.2-183.8,7
		C66,887.9,0.4,938.1,13.1,1011.8c-16.2,27.3-20.2,61.2,4.6,92.9c-8.8,47.5,33.1,89,64.2,89.2c4.5,14.4,12.6,27.3,23.9,37.4
		c45.5,40.7,115.9,24,137.4,6.8c7.3,7.2,16.2,12.5,26.8,14c53.6,6.4,109.7-51.2,131.1-116.3c29.3,5.8,53.1-10.9,65.3-41.5
		c25.3-7.2,75.7-15,132.1-18.3c-8.6,66.6-51.1,118.2-56,200.4c-1.6,27.1-0.4,65.8,11,106.4c-9.2-2.7-23.1-6.8-25.3-8.6
		c-1.5-4.9-9.8-34.9-34.6-41.9c-5.7-1.4-14-2.9-23.5-1c-43.4-65.6-108.1-65.1-130.9-49.1c-11.3-4.3-42.9-11.9-62.1-6.4
		c-22.4,6.6-70.3,123.7-67.9,143.9c0.6,5.3,6.1,9.4,17.6,13.8c-60.9,61.4-128,224.4-115.9,271.3c2.8,10.1,43.7,27.9,55.7,32.3
		c2.6,26.7,23.2,84.5,102,92.1c97,9,153.8-86.3,166.2-121.7c15.3-0.4,30.3-8.6,35-13.8c60.1,22.2,127.8,58.8,222.5,40.7
		c81.6-15.4,152.4-94.7,170.7-118.6c87.5,32.9,184.9,72.3,280.5,138.9c3.1,23.2,27.2,45.6,42,49.1c4.5,1,12,3.9,21.6,3.5
		c36.7,68,100.4,73.8,124.6,60c10.8,5.5,41.5,16.2,61.2,12.7c22.9-4.3,82.2-116.3,81.8-136.2C1475,1738,1469.9,1733.3,1458.7,1727.8
		 M1072.1,1022.3c33.7-10.1,69.7,18.3,85.8,51.2c15.9,33.1,14.1,68.6-4.3,78.5c-16,8.8-34.1,1.4-45.6-6.2
		C1101.3,1101.8,1088.6,1059.7,1072.1,1022.3 M1108.9,1277.1c5.6-36.8,5.9-74.2,2-110.4c11.4,7,36.4,15.6,54.2-0.2
		c0.4,7.8,3,23.2,14.2,32.7c-10.8,16.4-9.2,47.1,13.5,63.1C1175.4,1279.4,1129.1,1281,1108.9,1277.1 M1250.3,1250.8
		c-44.2,11.9-68.7-16.4-54.9-41.5c22.9,9.4,57.6,12.9,102.7-26.3C1305.6,1205,1291.4,1240.1,1250.3,1250.8 M1271.4,1179.7
		c-33.2,24-72,16.6-81.8,1.8c-9.3-14.4-4.9-29-0.2-38.6c38.2,8.2,82.8-7.8,104.8-43.1C1319.9,1127.7,1295.3,1162.3,1271.4,1179.7
		 M1270,1019.4c14.9,10.1,20.8,35.6,15.9,49.5c-9.6,27.7-41.6,64.1-96.9,52.6c0.8-11.7-1.2-25.9-7.7-42.1
		C1223.2,1070.2,1255.4,1046.4,1270,1019.4 M1237.4,960.7c43.6,30.6-1.1,84.9-65.4,99c-13.5-24.2-30.6-39.7-48.3-48.1
		c3.1-11.3,12.8-28.4,25.3-35.3c7.2-3.9,10.4-5.3-0.9-5.3c-8.2,0-34.9,8.4-41.8,34.5c-14.9-3.9-29.6-3.1-41.6,0.2
		c-3-6.4-6.4-13.2-10-19.5C1118.8,943.4,1208.3,939.9,1237.4,960.7 M1054.2,1044.9c-10.9-1-33.4-2.3-45.3-2.7
		c-0.2-0.2-0.6-0.4-1-0.8c-13-37.2-48-93.3-66.7-117.1c15,0.8,28.8,1,41.2,0.4C1014.3,960.9,1037.9,1002,1054.2,1044.9
		 M994.8,1184.5c-63.4,11.7-86-127-21.4-135.8C1029.6,1040.8,1046.6,1175,994.8,1184.5 M1022.6,1191.2c-4.7,21-16,32.5-39.8,33.7
		c-23.6,1.4-68-4.9-90-150.2c-10-66.8-34.2-135.4-63.7-174.3c28.9,11.1,57.3,17.5,83.2,21c24.9,26.5,55.4,80.1,68.4,109.9
		c-4.3-0.4-8.8-0.2-13.7,0.2c-79.6,9.4-66.4,182.3,32.3,170.1C1008.5,1200.5,1016.3,1196.8,1022.6,1191.2 M1077,503.5
		c1.2,2.2,2.3,3.7,4.4,1c41-48.9,121.4-81.2,169.6-66.2c67,20.8,88.2,130.5,34.8,184.3c-44.6,45.4-127.8,65.6-194.4,1.2l-20.3,16.2
		c1.3,1.8,2.7,3.5,4.1,5.1c-52.5,12.7-130.4-34.5-147.6-54.5c-2.6-3.1-3.9-5.8-8.6,0c-40.3,47.5-29.7,125.4,55.4,121.9
		c8,61.6,70.4,77.3,113.5,43.1c16.1,15.2,36,22.2,55,21.8c3.2,17.5-8.1,43.8-36.3,45c-11.3,32.7-36.7,64.1-82.9,75.4
		c-59.9,14.4-231.7-2.7-300.4-101.5c-13.6,11.5-96.7,25.7-152.1-45c-38.7-49.3-34.3-154.9,33.1-160.7c42.3-3.5,73.9,29.8,105.9,60.8
		c31.7,31,63.7,59.6,106.9,47.1c26.6-8,37.8-53.2,8.7-83.8c29.1-18.7,29.1-79.9-46.8-79.9c-34.9,0-57.4-28.8-68.6-51.4
		c14.3-18.1,29.6-36.6,45.6-55.5c32.1,38.2,125.6,12.3,176.8-32.7c9.5-8,19.5-18.3,30.3-29.2c15.3,7.8,26.1,19.5,31.8,24.7
		c6.5,5.7,6.3,2.9,5.9-3.1c-0.5-8-7.4-25.1-18.5-41.9c5.2-5.7,10.7-11.7,16-17.7C1017.2,359,1055.7,438.3,1077,503.5 M807.7,675
		c-21.6,13.2-52.5-4.9-84-36.8c-23.9-24-52.1-49.9-82-62.1c14.7-21.6,32.6-46.2,53.2-72.5c12.8,19.7,43.4,50.3,84.1,48.7
		c44.9-1.6,61.2,36.2,20.1,58.8C806.3,616.3,840.9,654.7,807.7,675 M980.1,206.5c102.8-69.1,187.5-70.1,197.6-53.6
		c12.3,19.5-18.6,120.2-138.7,200.6c-8.9-18.5-17.3-34.3-23.1-43.8c32.7-34.7,66.9-69,98-87.3c11.3-6.8,11.7-10.1-3.1-7
		c-43.8,8.4-100,66-143.7,111.2c-17-17.9-39.5-31-64.9-24.2c-39.7,10.1-45.4,56.3-39.9,85.3c2.1,11.5,1.8,10.3,6.5,4.7
		c7.6-8.4,26.7-27.9,46.2-32.7c7.7-1.6,14.7-2.1,21.2-1.4l-5.5,5.5c-53.5,50.6-129.3,73.8-160.1,46.9
		C842.4,327.1,922.7,245.1,980.1,206.5 M954.2,192.3c-16.6,12.7-33.5,27.1-50.9,42.7c0.6-20.1,2.7-88.8,2.7-91.2
		c0-2.3,31.3,20.5,44.1,29.4C951.9,179.8,953.2,186.2,954.2,192.3 M931.4,126.8c-19.6-12.9-52.9-34.1-54.9-34.5
		c-3.1-0.6-22.8,126.8-21.7,131.9c1,4.1,31.7,12.3,43.7,15.4c-8.5,7.8-17.4,16.2-26.1,24.7c-81.1-60-78-194,1-209
		C898,73.6,917.5,99.9,931.4,126.8 M487.1,747.8c-86.9-25.5-146.3-93.5-135.3-166.2c7-47.1,46.9-73,76.1-90c0,4.7,0,9.7,0.2,14.6
		c0.8,39.5,7.7,25.3,12.3-1.8C470.2,327.8,593.5,49.5,795.5,31.4c22.2-2.1,42.7,3.1,61,13.2c-86.2,22.4-81.7,179.2,5.1,230.4
		C749.9,386.1,642,528.9,610.9,569.6c-74.2-3.5-90.2,68-84.5,120C517.3,702.6,497.4,731.1,487.1,747.8 M547.8,798.1
		c4.9,0,7.3-0.2,0-4.3c-6.4-3.1-21.6-15.8-32.1-36.6c6.5-10.3,13.3-20.6,18.7-29.2c4.8,14,10.9,25.9,18.1,35.1
		c55.3,70.1,129.8,70.5,162,60.6c5,5.3,10.4,10.5,15.6,15.2c-55-6.4-137.6-8-212.5,0C498.3,823.2,508.5,798.7,547.8,798.1
		 M451.3,1054.2c-1.6,36.8-14.9,58.2-43.8,56.5c4-22.8,3.6-45.6-3.3-66.2c-5.1-15.6-7.5-10.5-7.7-1.8
		c-2.7,128-82.7,188.6-119.5,181.4c-29-5.3-31.1-34.1-30.9-47.3c12.2-3.9,24.5-6.6,34.7-6.8V1152c-35.8,0-72.5,14.2-94.3,35.1
		l10.9,14.2c6-4.9,14.7-10.1,24.6-14.8c0,8.6,2.6,20.1,7.8,31c-33.5,25.5-88,15-105.8-3.3c-11.7-12.3-38.5-43.1-19.8-91.9
		c2.3-5.8,2.7-7-2.6-2.7c-15.5,12.1-22.6,29.2-23.4,46.9c-28.2-6.6-58.3-56.1-2.5-125.6c9.1-10.9,6.7-10.9-3.5-4.7
		c-21,13.2-35,27.3-43.8,41.3c-8.7-17.5-8.9-60.8,41.1-108.5c8.4-8,11.4-10.1,0-5.7c-10.4,3.9-20.9,10.3-30.7,18.5
		c-0.6-26.5,25.5-66.2,81.5-92.9c94.3-44.6,183-12.5,214.9,12.3c12.2,9.5,15.9,6.2,7.4-7c-5.1-8.4-12.6-16-22.2-22.4
		c13.8-13.3,42.1-16.8,64.5,1.4C434.8,914.2,453.5,991.9,451.3,1054.2 M473.8,1066.3c6.8-79.3-12.9-139.3-45.5-183.5
		c62.8-19.9,228.3-37.6,347.5-8.8c1.6,1,3.3,2.1,4.8,3.1c48.7,37.4,80,122.7,92.9,199.9c-29.6,19.7-141.5,82-148.8,83.6
		c-7.1,1.2-82.7-66.2-98.6-80.6c0.2-1.7,0.5-3.5,0.7-5.3c45.2-1.4,92.2,0.2,131.3,7l3-24.2C735,1050.1,585.6,1040.4,473.8,1066.3
		 M139,1691.2c-8.9-45.4,65.8-203.6,116.3-262.2c1.5-1.8,2.2-6.2-1.7-7.2c-2.6-1.9-18.5-7.2-18.5-10.5c-0.9-16,35.3-103,51.6-111.6
		c6.4-3.3,26,0.8,36.6,5.6c-42.7,79.9-129.4,316.9-152.2,402.3C161.4,1705.2,140.1,1696.9,139,1691.2 M271.7,1804.2
		c-57.6-2.7-88.4-61.4-85.2-79.3c15.8-91.6,127.3-377.3,158-420.2c10.4-14.4,77.4-11.3,101,35.8c-27.4,17.3-58.3,60.4-77.2,161.7
		c-24.6,130.9,12.2,180.2,40.1,197.1C384.9,1780.2,314.3,1806.3,271.7,1804.2 M685.6,1706.4c-36.6,7.6-97.4,12.1-210.1-45.4
		c-10.4,11.9-29.9,22-45,18.1c-15.8-3.9-63-41.1-39.3-170.1c23.8-128.8,70.6-154.7,93.6-151.9c21.8,2.7,22,36.2,24.4,42.5
		c14.4,6.6,45.3,15.8,57.4,18.9c6.4,15,14.7,29.8,25,44.2c44,61.2,109.2,91,192.4,123.1c16.2,6.2,32.9,12.5,50.1,18.7
		C770.7,1671.1,729.1,1697.8,685.6,1706.4 M1200.3,1774c-23.5-5.3-27.2-25.5-27.9-39.7c-114.3-87.5-270.6-130.1-377.7-173.2
		c-116.9-46.9-149.8-69-183.1-117.3c-32.9-48.5-45.6-112.2-41-166.7c5.7-67,35.6-113.8,50.1-170.8c17.8,16.4,95.8,79.1,101.2,80.3
		c6,0.8,124-64.9,156-83.4c22.4,124.1,61.6,143.2,106.6,142.2c34.2-0.8,69.3-33.9,59.6-102.5c3.2-25.1-2-53.8-14.1-75.8
		c10.5,0,23.9,1,32.7,1.9c32.6,100.7,28.3,206.7,4.6,272.5c-29.9-10.3-60.8-17.3-90-17.5c-10.3,0-5.2,3.9-1.3,5.3
		c100.6,38.8,186,78.3,257.6,124.7c5.9-10.5,27.2-30.6,49.4-23c26.1,8.8,32.8,80.6,1.8,195.6
		C1250.9,1753.7,1223.9,1779.1,1200.3,1774 M1329.1,1844.1c-11.8,13.4-78.8,3.3-97.3-46.4c23.2-16.6,51.5-59.8,78-166.4
		c30.9-123.5,22.4-178.4,7.7-203.6c27.4-61.9,92.4-79.5,134-73.2c57,8.4,81.6,69.9,76.9,87.3
		C1503.5,1531.3,1363.9,1804.4,1329.1,1844.1 M1386.2,1855c-6.9,2.7-25.6-3.5-35.9-9.3c50.5-75.2,160.3-302.3,191.6-385.1
		c9.1,3.3,29.8,13.6,30.1,19.5c4.3,45.8-85.6,196-141.7,249.1c-1.9,2.1-3.2,6.2,1,7.4c2.4,2.3,17.4,9,17.2,12.3
		C1447.7,1765.4,1403.2,1848,1386.2,1855 M949,401.7c-29.6,10.3-48.3,49.5-29.4,115.5c19.7,70.3,59.9,85.3,89.1,76.4
		c33.1-10.3,45.9-45.4,26.8-114.9C1015.1,405.8,978.7,391.5,949,401.7 M1018.3,466.3c-3.6-3.5-7.8-5.3-12.5-4.3
		c-9.7,2.7-17.5,21.2-10.9,49.7c6.3,29.2,17.3,44.8,30.2,42.5c2.2-0.4,3.9-1.6,5.4-3.1c0.2,5.3-3.2,16.4-10.1,19.3
		c-13.9,5.3-38-15.2-44.6-60.8c-5.4-38.8,1.5-61.4,15.9-66.4C1001.7,440.2,1015.3,454.8,1018.3,466.3 M1016.3,518
		c-10.6,3.1-17.7-29.4-7-31.4C1019.6,484.1,1026.8,515.2,1016.3,518 M1002.7,436c-4.3-1.6-8.4-2.1-12.1-1.4
		c-9.9,2.1-32.7,19.7-22.7,77.1c8.3,48.5,28.9,65.6,43.2,68.4c-2.2,1-4.7,2.1-7.5,2.9c-32.3,8.2-63.6-30.6-72.7-73.8
		c-7.9-37.4-10.1-83.8,22.4-94.9C973.3,407.5,989.9,418,1002.7,436 M604.3,653.7c-10.2,4.5-5.1,6.4,0,6.6c3.5,0,42.3,6.8,56.8,32.9
		c-16.6-2.9-31.3,0.8-35,2.5c-7.4,3.5-1.2,3.5,3.3,3.5c3.1,0,22.6,0,42.8,13.6c3.2,8.2,5.1,16.8,6.6,25.1c2.2,12.7,4.8,13.2,8.7,0.4
		c7.1-23.8-0.2-42.5-11.5-60C660.7,654.9,624.4,644.6,604.3,653.7"/>
	<path class="st3" d="M807.7,675c-21.6,13.2-52.5-4.9-84-36.8c-23.9-24-52.1-49.9-82-62.1c14.7-21.6,32.6-46.2,53.2-72.5
		c12.8,19.7,43.4,50.3,84.1,48.7c44.9-1.6,61.2,36.2,20.1,58.8C806.3,616.3,840.9,654.7,807.7,675"/>
	<path class="st4" d="M980.1,206.5c102.8-69.1,187.5-70.1,197.6-53.6c12.3,19.5-18.6,120.2-138.7,200.6
		c-8.9-18.5-17.3-34.3-23.1-43.8c32.7-34.7,66.9-69,98-87.3c11.3-6.8,11.7-10.1-3.1-7c-43.8,8.4-100,66-143.7,111.2
		c-17-17.9-39.5-31-64.9-24.2c-39.7,10.1-45.4,56.3-39.9,85.3c2.1,11.5,1.8,10.3,6.5,4.7c7.6-8.4,26.7-27.9,46.2-32.7
		c7.7-1.6,14.7-2.1,21.2-1.4l-5.5,5.5c-53.5,50.6-129.3,73.8-160.1,46.9C842.4,327.1,922.7,245.1,980.1,206.5"/>
	<path class="st1" d="M931.4,126.8c-19.6-12.9-52.9-34.1-54.9-34.5c-3.1-0.6-22.8,126.8-21.7,131.9c1,4.1,31.7,12.3,43.7,15.4
		c-8.5,7.8-17.4,16.2-26.1,24.7c-81.1-60-78-194,1-209C898,73.6,917.5,99.9,931.4,126.8"/>
	<path class="st4" d="M487.1,747.8c-86.9-25.5-146.3-93.5-135.3-166.2c7-47.1,46.9-73,76.1-90c0,4.7,0,9.7,0.2,14.6
		c0.8,39.5,7.7,25.3,12.3-1.8C470.2,327.8,593.5,49.5,795.5,31.4c22.2-2.1,42.7,3.1,61,13.2c-86.2,22.4-81.7,179.2,5.1,230.4
		C749.9,386.1,642,528.9,610.9,569.6c-74.2-3.5-90.2,68-84.5,120C517.3,702.6,497.4,731.1,487.1,747.8"/>
	<path class="st5" d="M1018.3,466.3c-3.6-3.5-7.8-5.3-12.5-4.3c-9.7,2.7-17.5,21.2-10.9,49.7c6.3,29.2,17.3,44.8,30.2,42.5
		c2.2-0.4,3.9-1.6,5.4-3.1c0.2,5.3-3.2,16.4-10.1,19.3c-13.9,5.3-38-15.2-44.6-60.8c-5.4-38.8,1.5-61.4,15.9-66.4
		C1001.7,440.2,1015.3,454.8,1018.3,466.3"/>
	<path class="st1" d="M1016.3,518c-10.6,3.1-17.7-29.4-7-31.4C1019.6,484.1,1026.8,515.2,1016.3,518"/>
	<path class="st1" d="M1002.7,436c-4.3-1.6-8.4-2.1-12.1-1.4c-9.9,2.1-32.7,19.7-22.7,77.1c8.3,48.5,28.9,65.6,43.2,68.4
		c-2.2,1-4.7,2.1-7.5,2.9c-32.3,8.2-63.6-30.6-72.7-73.8c-7.9-37.4-10.1-83.8,22.4-94.9C973.3,407.5,989.9,418,1002.7,436"/>
	<path class="st1" d="M954.2,192.3c-16.6,12.7-33.5,27.1-50.9,42.7c0.6-20.1,2.7-88.8,2.7-91.2c0-2.3,31.3,20.5,44.1,29.4
		C951.9,179.8,953.2,186.2,954.2,192.3"/>
	<path class="st4" d="M1054.2,1044.9c-10.9-1-33.4-2.3-45.3-2.7c-0.2-0.2-0.6-0.4-1-0.8c-13-37.2-48-93.3-66.7-117.1
		c15,0.8,28.8,1,41.2,0.4C1014.3,960.9,1037.9,1002,1054.2,1044.9"/>
	<path class="st6" d="M1022.6,1191.2c-4.7,21-16,32.5-39.8,33.7c-23.6,1.4-68-4.9-90-150.2c-10-66.8-34.2-135.4-63.7-174.3
		c28.9,11.1,57.3,17.5,83.2,21c24.9,26.5,55.4,80.1,68.4,109.9c-4.3-0.4-8.8-0.2-13.7,0.2c-79.6,9.4-66.4,182.3,32.3,170.1
		C1008.5,1200.5,1016.3,1196.8,1022.6,1191.2"/>
	<path class="st3" d="M547.8,798.1c4.9,0,7.3-0.2,0-4.3c-6.4-3.1-21.6-15.8-32.1-36.6c6.5-10.3,13.3-20.6,18.7-29.2
		c4.8,14,10.9,25.9,18.1,35.1c55.3,70.1,129.8,70.5,162,60.6c5,5.3,10.4,10.5,15.6,15.2c-55-6.4-137.6-8-212.5,0
		C498.3,823.2,508.5,798.7,547.8,798.1"/>
	<path class="st4" d="M473.8,1066.3c6.8-79.3-12.9-139.3-45.5-183.5c62.8-19.9,228.3-37.6,347.5-8.8c1.6,1,3.3,2.1,4.8,3.1
		c48.7,37.4,80,122.7,92.9,199.9c-29.6,19.7-141.5,82-148.8,83.6c-7.1,1.2-82.7-66.2-98.6-80.6c0.2-1.7,0.5-3.5,0.7-5.3
		c45.2-1.4,92.2,0.2,131.3,7l3-24.2C735,1050.1,585.6,1040.4,473.8,1066.3"/>
	<path class="st7" d="M139,1691.2c-8.9-45.4,65.8-203.6,116.3-262.2c1.5-1.8,2.2-6.2-1.7-7.2c-2.6-1.9-18.5-7.2-18.5-10.5
		c-0.9-16,35.3-103,51.6-111.6c6.4-3.3,26,0.8,36.6,5.6c-42.7,79.9-129.4,316.9-152.2,402.3C161.4,1705.2,140.1,1696.9,139,1691.2"
		/>
	<path class="st3" d="M271.7,1804.2c-57.6-2.7-88.4-61.4-85.2-79.3c15.8-91.6,127.3-377.3,158-420.2c10.4-14.4,77.4-11.3,101,35.8
		c-27.4,17.3-58.3,60.4-77.2,161.7c-24.6,130.9,12.2,180.2,40.1,197.1C384.9,1780.2,314.3,1806.3,271.7,1804.2"/>
	<path class="st6" d="M685.6,1706.4c-36.6,7.6-97.4,12.1-210.1-45.4c-10.4,11.9-29.9,22-45,18.1c-15.8-3.9-63-41.1-39.3-170.1
		c23.8-128.8,70.6-154.7,93.6-151.9c21.8,2.7,22,36.2,24.4,42.5c14.4,6.6,45.3,15.8,57.4,18.9c6.4,15,14.7,29.8,25,44.2
		c44,61.2,109.2,91,192.4,123.1c16.2,6.2,32.9,12.5,50.1,18.7C770.7,1671.1,729.1,1697.8,685.6,1706.4"/>
	<path class="st6" d="M1200.3,1774c-23.5-5.3-27.2-25.5-27.9-39.7c-114.3-87.5-270.6-130.1-377.7-173.2
		c-116.9-46.9-149.8-69-183.1-117.3c-32.9-48.5-45.6-112.2-41-166.7c5.7-67,35.6-113.8,50.1-170.8c17.8,16.4,95.8,79.1,101.2,80.3
		c6,0.8,124-64.9,156-83.4c22.4,124.1,61.6,143.2,106.6,142.2c34.2-0.8,69.3-33.9,59.6-102.5c3.2-25.1-2-53.8-14.1-75.8
		c10.5,0,23.9,1,32.7,1.9c32.6,100.7,28.3,206.7,4.6,272.5c-29.9-10.3-60.8-17.3-90-17.5c-10.3,0-5.2,3.9-1.3,5.3
		c100.6,38.8,186,78.3,257.6,124.7c5.9-10.5,27.2-30.6,49.4-23c26.1,8.8,32.8,80.6,1.8,195.6
		C1250.9,1753.7,1223.9,1779.1,1200.3,1774"/>
	<path class="st3" d="M1329.1,1844.1c-11.8,13.4-78.8,3.3-97.3-46.4c23.2-16.6,51.5-59.8,78-166.4c30.9-123.5,22.4-178.4,7.7-203.6
		c27.4-61.9,92.4-79.5,134-73.2c57,8.4,81.6,69.9,76.9,87.3C1503.5,1531.3,1363.9,1804.4,1329.1,1844.1"/>
	<path class="st7" d="M1386.2,1855c-6.9,2.7-25.6-3.5-35.9-9.3c50.5-75.2,160.3-302.3,191.6-385.1c9.1,3.3,29.8,13.6,30.1,19.5
		c4.3,45.8-85.6,196-141.7,249.1c-1.9,2.1-3.2,6.2,1,7.4c2.4,2.3,17.4,9,17.2,12.3C1447.7,1765.4,1403.2,1848,1386.2,1855"/>
	<g>
		<path class="st4" d="M951.5,178.8L951.5,178.8c-0.2-1.1-0.5-2.2-0.8-3.4C951,176.5,951.3,177.7,951.5,178.8z"/>
		<path class="st4" d="M926.4,117.6c-0.1-0.1-0.1-0.2-0.2-0.3l0,0C926.3,117.4,926.4,117.5,926.4,117.6z"/>
		<path class="st4" d="M854.9,224.2c1,4.1,31.7,12.3,43.7,15.4l4.8-4.5c0.6-20.1,2.7-88.8,2.7-91.2c0-2.3,31.3,20.5,44,29.3
			c-3.8-13.3-11.4-31.8-18.8-46.5c-19.6-13-52.7-34-54.7-34.4C873.5,91.6,853.8,219.1,854.9,224.2z"/>
	</g>
</g>
</svg>