<?xml version="1.0" encoding="UTF-8" standalone="no"?>
<!-- Created with Inkscape (http://www.inkscape.org/) -->
<svg
   xmlns:dc="http://purl.org/dc/elements/1.1/"
   xmlns:cc="http://creativecommons.org/ns#"
   xmlns:rdf="http://www.w3.org/1999/02/22-rdf-syntax-ns#"
   xmlns:svg="http://www.w3.org/2000/svg"
   xmlns="http://www.w3.org/2000/svg"
   xmlns:sodipodi="http://sodipodi.sourceforge.net/DTD/sodipodi-0.dtd"
   xmlns:inkscape="http://www.inkscape.org/namespaces/inkscape"
   width="65"
   height="48"
   id="svg2419"
   sodipodi:version="0.32"
   inkscape:version="0.46"
   version="1.0"
   sodipodi:docname="B1_flat.svg"
   inkscape:output_extension="org.inkscape.output.svg.inkscape">
  <defs
     id="defs2421">
    <inkscape:perspective
       sodipodi:type="inkscape:persp3d"
       inkscape:vp_x="0 : 526.18109 : 1"
       inkscape:vp_y="0 : 1000 : 0"
       inkscape:vp_z="744.09448 : 526.18109 : 1"
       inkscape:persp3d-origin="372.04724 : 350.78739 : 1"
       id="perspective2427" />
    <inkscape:perspective
       sodipodi:type="inkscape:persp3d"
       inkscape:vp_x="0 : 22 : 1"
       inkscape:vp_y="0 : 1000 : 0"
       inkscape:vp_z="18 : 22 : 1"
       inkscape:persp3d-origin="9 : 14.666667 : 1"
       id="perspective2441" />
    <inkscape:perspective
       id="perspective10"
       inkscape:persp3d-origin="372.04724 : 350.78739 : 1"
       inkscape:vp_z="744.09448 : 526.18109 : 1"
       inkscape:vp_y="0 : 1000 : 0"
       inkscape:vp_x="0 : 526.18109 : 1"
       sodipodi:type="inkscape:persp3d" />
    <inkscape:perspective
       id="perspective2578"
       inkscape:persp3d-origin="120 : 8.3333333 : 1"
       inkscape:vp_z="240 : 12.5 : 1"
       inkscape:vp_y="0 : 1000 : 0"
       inkscape:vp_x="0 : 12.5 : 1"
       sodipodi:type="inkscape:persp3d" />
    <inkscape:perspective
       id="perspective2641"
       inkscape:persp3d-origin="37.5 : 50 : 1"
       inkscape:vp_z="75 : 75 : 1"
       inkscape:vp_y="0 : 1000 : 0"
       inkscape:vp_x="0 : 75 : 1"
       sodipodi:type="inkscape:persp3d" />
    <inkscape:perspective
       id="perspective2966"
       inkscape:persp3d-origin="3 : 4.3333333 : 1"
       inkscape:vp_z="6 : 6.5 : 1"
       inkscape:vp_y="0 : 1000 : 0"
       inkscape:vp_x="0 : 6.5 : 1"
       sodipodi:type="inkscape:persp3d" />
    <inkscape:perspective
       id="perspective3563"
       inkscape:persp3d-origin="9 : 6.6666667 : 1"
       inkscape:vp_z="18 : 10 : 1"
       inkscape:vp_y="0 : 1000 : 0"
       inkscape:vp_x="0 : 10 : 1"
       sodipodi:type="inkscape:persp3d" />
  </defs>
  <sodipodi:namedview
     id="base"
     pagecolor="#ffffff"
     bordercolor="#666666"
     borderopacity="1.0"
     gridtolerance="10000"
     guidetolerance="10"
     objecttolerance="10"
     inkscape:pageopacity="0.0"
     inkscape:pageshadow="2"
     inkscape:zoom="13.291667"
     inkscape:cx="32.5"
     inkscape:cy="24"
     inkscape:document-units="px"
     inkscape:current-layer="layer1"
     showgrid="true"
     inkscape:window-width="1440"
     inkscape:window-height="844"
     inkscape:window-x="-4"
     inkscape:window-y="-4"
     inkscape:snap-global="false">
    <inkscape:grid
       type="xygrid"
       id="grid2812"
       visible="true"
       enabled="true"
       spacingx="6px"
       spacingy="6px" />
  </sodipodi:namedview>
  <metadata
     id="metadata2424">
    <rdf:RDF>
      <cc:Work
         rdf:about="">
        <dc:format>image/svg+xml</dc:format>
        <dc:type
           rdf:resource="http://purl.org/dc/dcmitype/StillImage" />
      </cc:Work>
    </rdf:RDF>
  </metadata>
  <g
     inkscape:label="Layer 1"
     inkscape:groupmode="layer"
     id="layer1"
     transform="translate(-232.25358,-396.45967)">
    <g
       id="g2581"
       transform="matrix(1.2276784,0,0,1,235.72691,399.17261)">
      <g
         id="g3100"
         style="fill:#000000;fill-opacity:1"
         transform="matrix(1.972387,0,0,1,-725.6629,-560.161)">
        <path
           id="path3102"
           style="fill:#000000;fill-opacity:1"
           d="M 392.24701,560.973 L 367.91101,560.973 L 367.91101,559.973 L 392.24701,559.973 L 392.24701,560.973 z" />
      </g>
      <g
         id="g3104"
         style="fill:#000000;fill-opacity:1"
         transform="matrix(1.972387,0,0,1,-725.6629,-560.161)">
        <path
           id="path3106"
           style="fill:#000000;fill-opacity:1"
           d="M 392.24701,566.973 L 367.91101,566.973 L 367.91101,565.973 L 392.24701,565.973 L 392.24701,566.973 z" />
      </g>
      <g
         id="g3108"
         style="fill:#000000;fill-opacity:1"
         transform="matrix(1.972387,0,0,1,-725.6629,-560.161)">
        <path
           id="path3110"
           style="fill:#000000;fill-opacity:1"
           d="M 392.24701,572.973 L 367.91101,572.973 L 367.91101,571.973 L 392.24701,571.973 L 392.24701,572.973 z" />
      </g>
      <g
         id="g3112"
         style="fill:#000000;fill-opacity:1"
         transform="matrix(1.972387,0,0,1,-725.6629,-560.161)">
        <path
           id="path3114"
           style="fill:#000000;fill-opacity:1"
           d="M 392.24701,578.973 L 367.91101,578.973 L 367.91101,577.973 L 392.24701,577.973 L 392.24701,578.973 z" />
      </g>
      <g
         id="g3116"
         style="fill:#000000;fill-opacity:1"
         transform="matrix(1.972387,0,0,1,-725.6629,-560.161)">
        <path
           id="path3118"
           style="fill:#000000;fill-opacity:1"
           d="M 392.24701,584.973 L 367.91101,584.973 L 367.91101,583.973 L 392.24701,583.973 L 392.24701,584.973 z" />
      </g>
    </g>
    <g
       id="g2644"
       inkscape:label="Layer 1"
       transform="matrix(0.25,0,0,0.25,268.08099,409.20758)">
      <path
         id="path7229"
         d="M 36.425204,104.88119 C 25.756184,104.88119 17.112704,110.07537 17.112704,116.44369 C 17.112704,122.81202 25.756194,127.97497 36.425204,127.97494 C 47.094224,127.97494 55.768944,122.81202 55.768954,116.44369 C 55.768954,110.07536 47.094224,104.88117 36.425204,104.88119 z M 31.706454,106.97494 C 34.480794,106.93885 37.898804,108.02436 41.112704,110.19369 C 46.826304,114.05026 49.692844,119.85839 47.518954,123.13119 C 45.345074,126.40401 38.951304,125.92527 33.237704,122.06869 C 27.524114,118.21212 24.657564,112.40399 26.831454,109.13119 C 27.782534,107.69933 29.548634,107.00301 31.706454,106.97494 z"
         style="fill:#000000;fill-opacity:1;fill-rule:nonzero;stroke:none;stroke-width:3.5999999;stroke-linecap:round;stroke-linejoin:miter;stroke-miterlimit:4;stroke-dasharray:none;stroke-opacity:1" />
    </g>
    <path
       id="path2561"
       d="M 270.71119,429.47431 C 283.67119,429.47431 283.67119,429.47431 283.67119,429.47431"
       style="fill:none;fill-rule:evenodd;stroke:#000000;stroke-width:1px;stroke-linecap:butt;stroke-linejoin:miter;stroke-opacity:1" />
    <g
       id="g2969"
       transform="translate(264.25358,427.3727)">
      <g
         id="g2111"
         style="fill:#000000"
         transform="translate(-94.947,-433.75)">
        <path
           id="path2117"
           d="M 98.166,443.657 C 98.166,444.232 97.950425,444.78273 97.359,445.52188 C 96.732435,446.30494 96.205,446.75313 95.51,447.28013 L 95.51,443.848 C 95.668,443.449 95.901,443.126 96.21,442.878 C 96.518,442.631 96.83,442.507 97.146,442.507 C 97.668,442.507 97.999,442.803 98.142,443.393 C 98.158,443.441 98.166,443.529 98.166,443.657 z M 98.091,441.257 C 97.66,441.257 97.222,441.376 96.776,441.615 C 96.33,441.853 95.908,442.172 95.51,442.569 L 95.51,435.29733 L 94.947,435.29733 L 94.947,447.75213 C 94.947,448.10413 95.043,448.28013 95.235,448.28013 C 95.346,448.28013 95.483913,448.18713 95.69,448.06413 C 96.27334,447.71598 96.636935,447.48332 97.032,447.23788 C 97.482617,446.95792 97.99,446.631 98.661,445.991 C 99.124,445.526 99.459,445.057 99.667,444.585 C 99.874,444.112 99.978,443.644 99.978,443.179 C 99.978,442.491 99.795,442.002 99.429,441.713 C 99.015,441.409 98.568,441.257 98.091,441.257 z" />
      </g>
    </g>
    <path
       style="fill:none;fill-rule:evenodd;stroke:#000000;stroke-width:0.99999994px;stroke-linecap:butt;stroke-linejoin:miter;stroke-opacity:1"
       d="M 294.15567,399.03648 C 294.15567,423.90169 294.15567,423.90169 294.15567,423.90169"
       id="path2973" />
    <g
       id="g3566"
       transform="translate(239.9874,399.40617)">
      <g
         id="g2883"
         style="fill:#000000;fill-opacity:1"
         transform="translate(-230.9546,-533.6597)">
        <path
           id="path2885"
           style="fill:#000000;fill-opacity:1"
           d="M 248.25999,536.802 C 248.26766,537.17138 248.11044,537.54065 247.82878,537.78185 C 247.46853,538.11076 246.91933,538.17813 246.47048,538.01071 C 246.02563,537.83894 245.69678,537.39883 245.67145,536.9206 C 245.63767,536.54689 245.75685,536.15479 246.02747,535.88867 C 246.28257,535.6168 246.66244,535.48397 247.03147,535.50645 C 247.41131,535.51452 247.77805,535.70601 248.00489,536.01019 C 248.17962,536.23452 248.26238,536.51954 248.25999,536.802 z" />
      </g>
      <g
         id="g2887"
         style="fill:#000000;fill-opacity:1"
         transform="translate(-230.9546,-533.6597)">
        <path
           id="path2889"
           style="fill:#000000;fill-opacity:1"
           d="M 248.25999,542.64502 C 248.26772,543.01469 248.11076,543.38446 247.82878,543.62585 C 247.46853,543.95476 246.91933,544.02213 246.47048,543.85472 C 246.02537,543.68288 245.69655,543.24237 245.67145,542.76389 C 245.63651,542.3899 245.76354,542.00308 246.027,541.733 C 246.27663,541.45454 246.6606,541.3279 247.02845,541.3495 C 247.5123,541.36282 247.95159,541.69251 248.15162,542.12465 C 248.22565,542.2874 248.26043,542.46657 248.25999,542.64502 z" />
      </g>
      <g
         id="g2891"
         style="fill:#000000;fill-opacity:1"
         transform="translate(-230.9546,-533.6597)">
        <path
           id="path2893"
           style="fill:#000000;fill-opacity:1"
           d="M 243.979,540.86798 C 244.02398,543.69258 242.7636,546.43815 240.76469,548.40449 C 238.27527,550.89277 235.01791,552.47534 231.69762,553.53261 C 231.2559,553.77182 230.5897,553.45643 231.2855,553.13144 C 232.62346,552.52289 234.01319,552.0005 235.24564,551.1808 C 237.96799,549.4975 240.26523,546.84674 240.82279,543.61854 C 241.14771,541.65352 241.05724,539.60795 240.56484,537.67852 C 240.20352,536.25993 239.22033,534.7955 237.66352,534.58587 C 236.25068,534.36961 234.74885,534.85905 233.74057,535.88093 C 233.47541,536.14967 232.95916,536.89403 233.04435,537.74747 C 233.64637,537.27468 233.60528,537.32732 234.099,537.10717 C 235.23573,536.60031 236.74349,537.32105 237.027,538.57272 C 237.32909,539.72295 237.09551,541.18638 235.96036,541.7996 C 234.77512,542.44413 233.02612,542.17738 232.3645,540.90866 C 231.26916,538.95418 231.87147,536.28193 233.64202,534.92571 C 235.44514,533.42924 238.07609,533.37089 240.19963,534.13862 C 242.38419,534.95111 243.68629,537.21483 243.89691,539.45694 C 243.95419,539.92492 243.97896,540.39668 243.979,540.86798 z" />
      </g>
    </g>
    <path
       style="fill:none;fill-rule:evenodd;stroke:#000000;stroke-width:1px;stroke-linecap:butt;stroke-linejoin:miter;stroke-opacity:1"
       d="M 270.71119,435.47431 C 283.67119,435.47431 283.67119,435.47431 283.67119,435.47431"
       id="path3594" />
  </g>
</svg>
