<?xml version="1.0" encoding="UTF-8" standalone="no"?>
<svg
   xmlns:dc="http://purl.org/dc/elements/1.1/"
   xmlns:cc="http://creativecommons.org/ns#"
   xmlns:rdf="http://www.w3.org/1999/02/22-rdf-syntax-ns#"
   xmlns:svg="http://www.w3.org/2000/svg"
   xmlns="http://www.w3.org/2000/svg"
   id="svg43"
   version="1.1"
   viewBox="0 0 65.633736 69.047691"
   height="69.047691mm"
   width="65.633736mm">
  <defs
     id="defs37" />
  <metadata
     id="metadata40">
    <rdf:RDF>
      <cc:Work
         rdf:about="">
        <dc:format>image/svg+xml</dc:format>
        <dc:type
           rdf:resource="http://purl.org/dc/dcmitype/StillImage" />
        <dc:title></dc:title>
      </cc:Work>
    </rdf:RDF>
  </metadata>
  <g
     transform="translate(-186.03013,-101.38757)"
     id="layer1">
    <g
       transform="translate(121.62298,5.5477151)"
       id="g110">
      <rect
         y="97.120094"
         x="65.653259"
         height="67.767456"
         width="64.387627"
         id="rect128"
         style="opacity:0.88999999;fill:#040301;fill-opacity:1;stroke-width:0.29489258" />
      <path
         id="path124"
         d="M 69.920725,132.90712 V 102.20693 H 99.12731 128.3339 v 30.70019 30.70021 H 99.12731 69.920725 Z m 8.344738,24.12159 v -2.19287 h -2.086184 -2.086185 v 2.19287 2.19288 h 2.086185 2.086184 z m 45.896057,0 v -2.19287 h -2.08618 -2.08619 v 2.19287 2.19288 h 2.08619 2.08618 z m -22.94803,-5.48217 v -1.09644 h 2.08619 2.08618 v -1.09643 -1.09644 h 1.0431 1.04308 v -18.63941 -18.6394 h -1.04308 -1.0431 v -1.09645 -1.09643 h -1.04309 -1.04309 V 121.94277 135.1 h -7.301647 -7.301647 v 1.09643 1.09645 h -2.086184 -2.086185 v 1.09643 1.09643 h -1.043092 -1.043092 v 1.09645 1.09642 H 81.39474 80.351648 v 2.19288 2.19287 h 1.043092 1.043093 v 2.19287 2.19287 h 1.043092 1.043092 v 1.09644 1.09644 h 8.344739 8.344734 z m -22.948027,-42.761 v -2.19287 h -2.086184 -2.086185 v 2.19287 2.19288 h 2.086185 2.086184 z m 45.896057,0 v -2.19287 h -2.08618 -2.08619 v 2.19287 2.19288 h 2.08619 2.08618 z"
         style="display:inline;fill:#fab100;stroke-width:0.26735786" />
      <path
         id="path122"
         d="m 64.40715,132.43769 v -32.0231 h 2.145117 2.145116 v -2.287373 -2.287361 h 30.031629 30.031628 v 2.287361 2.287373 H 98.729012 68.697383 v 32.0231 32.02313 H 66.552267 64.40715 Z m 21.451164,17.15525 v -1.14368 h -2.145117 -2.145115 v -1.14369 -1.14368 h -1.072559 -1.072558 v -2.28735 -2.28738 h 1.072558 1.072559 v -1.14367 -1.14369 h 1.072557 1.072558 v -1.14369 -1.14368 h 2.145117 2.145116 v -1.14368 -1.14368 h 7.507907 7.507913 v -13.72419 -13.7242 h 1.07255 1.07256 v 19.44262 19.44259 h -2.14511 -2.14512 v 1.14368 1.14369 h -3.217676 -3.217675 v 1.14368 1.14368 h -4.290232 -4.290233 z"
         style="display:inline;fill:#fa7500;stroke-width:0.27688742" />
    </g>
  </g>
</svg>
