<?xml version="1.0" encoding="UTF-8" standalone="no"?>
<svg
   xmlns:dc="http://purl.org/dc/elements/1.1/"
   xmlns:cc="http://creativecommons.org/ns#"
   xmlns:rdf="http://www.w3.org/1999/02/22-rdf-syntax-ns#"
   xmlns:svg="http://www.w3.org/2000/svg"
   xmlns="http://www.w3.org/2000/svg"
   id="svg8"
   version="1.1"
   viewBox="0 0 67.733337 67.73333"
   height="67.73333mm"
   width="67.733337mm">
  <defs
     id="defs2" />
  <metadata
     id="metadata5">
    <rdf:RDF>
      <cc:Work
         rdf:about="">
        <dc:format>image/svg+xml</dc:format>
        <dc:type
           rdf:resource="http://purl.org/dc/dcmitype/StillImage" />
        <dc:title></dc:title>
      </cc:Work>
    </rdf:RDF>
  </metadata>
  <g
     transform="translate(-48.532146,-70.85685)"
     id="layer1">
    <g
       id="g75">
      <path
         id="path81"
         d="m 48.532146,138.85476 v -0.26458 h 33.866665 33.866669 v 0.26458 0.26459 H 82.398811 48.532146 Z m 4.233333,-34.13124 V 75.090183 H 82.398811 112.03214 V 72.973517 70.85685 h 2.11667 2.11667 v 2.116667 2.116666 h -2.11667 -2.11667 v 29.633337 29.63333 H 82.398811 52.765479 Z m 8.466666,23.28333 v -2.11667 h -2.116666 -2.116667 v 2.11667 2.11666 h 2.116667 2.116666 z m 46.566665,0 v -2.11667 h -2.11667 -2.11666 v 2.11667 2.11666 h 2.11666 2.11667 z m -23.283332,-5.29167 v -1.05833 h 2.116666 2.116667 v -1.05834 -1.05833 h 1.058333 1.058333 V 101.54852 83.556849 h -2.116666 -2.116667 v 11.641667 11.641664 h -6.35 -6.349999 v 1.05834 1.05833 h -3.175 -3.175 v 1.05833 1.05833 h -1.058333 -1.058334 v 1.05834 1.05833 h -1.058333 -1.058333 v 2.11667 2.11666 h 1.058333 1.058333 v 2.11667 2.11667 h 1.058334 1.058333 v 1.05833 1.05833 h 8.466666 8.466667 z M 61.232145,81.440183 v -2.116667 h -2.116666 -2.116667 v 2.116667 2.116666 h 2.116667 2.116666 z m 46.566665,0 v -2.116667 h -2.11667 -2.11666 v 2.116667 2.116666 h 2.11666 2.11667 z"
         style="fill:#fab100;stroke-width:0.26458332" />
      <path
         id="path79"
         d="M 48.532146,105.78185 V 75.090183 h 2.116667 2.116666 V 72.973517 70.85685 h 29.633332 29.633329 v 2.116667 2.116666 h 1.05834 1.05833 v 1.058333 1.058334 h -1.05833 -1.05834 V 76.148516 75.090183 H 82.398811 52.765479 v 29.633337 29.63333 h -1.058333 -1.058333 v 1.05833 1.05833 h -1.058334 -1.058333 z m 8.466666,21.16666 v -1.05833 h 2.116667 2.116666 v 1.05833 1.05834 h -2.116666 -2.116667 z m 46.566668,0 v -1.05833 h 2.11666 2.11667 v 1.05833 1.05834 h -2.11667 -2.11666 z m -35.983335,-4.23333 v -1.05833 h -1.058333 -1.058334 v -2.11667 -2.11667 h -1.058333 -1.058333 v -2.11666 -2.11667 h 1.058333 1.058333 v -1.05833 -1.05834 h 1.058334 1.058333 v -1.05833 -1.05833 h 3.175 3.175 v -1.05833 -1.05834 h 6.349999 6.35 V 95.198516 83.556849 h 2.116667 2.116666 v 1.058334 1.058333 h -1.058333 -1.058333 v 1.058333 1.058334 h 1.058333 1.058333 v 12.699997 12.7 h -1.058333 -1.058333 v 2.11667 2.11666 h -1.058334 -1.058333 v 1.05834 1.05833 h 1.058333 1.058334 v 1.05833 1.05834 h -1.058334 -1.058333 v -1.05834 -1.05833 h -3.175 -3.175 v 1.05833 1.05834 h -5.291666 -5.291666 v 1.05833 1.05833 h -1.058334 -1.058333 z m 14.816666,0 v -1.05833 h 1.058333 1.058334 v 1.05833 1.05833 h -1.058334 -1.058333 z"
         style="fill:#e06900;stroke-width:0.26458332" />
      <path
         id="path77"
         d="m 48.532146,137.53185 v -1.05834 h 1.058333 1.058334 v -1.05833 -1.05833 h 30.691665 30.691662 v -28.575 -28.575 h 1.05834 1.05833 v -1.058334 -1.058333 h 1.05833 1.05834 v 31.749997 31.75 H 82.398811 48.532146 Z m 8.466666,-8.46667 v -1.05833 h 2.116667 2.116666 v 1.05833 1.05833 h -2.116666 -2.116667 z m 46.566668,0 v -1.05833 h 2.11666 2.11667 v 1.05833 1.05833 h -2.11667 -2.11666 z m -33.866668,-6.35 v -1.05833 h 5.291666 5.291666 v -1.05834 -1.05833 h 3.175 3.175 v -1.05833 -1.05834 h 1.058333 1.058334 v -2.11666 -2.11667 h 1.058333 1.058333 v 3.175 3.175 h -2.116666 -2.116667 v 1.05833 1.05834 h -2.116666 -2.116667 v 1.05833 1.05833 h -6.35 -6.349999 z M 88.748811,86.731849 v -1.058333 h 1.058333 1.058333 v 1.058333 1.058334 H 89.807144 88.748811 Z M 56.998812,81.440183 v -2.116667 h 2.116667 2.116666 v 2.116667 2.116666 h -2.116666 -2.116667 z m 46.566668,0 v -2.116667 h 2.11666 2.11667 v 2.116667 2.116666 h -2.11667 -2.11666 z M 48.532146,72.973517 V 70.85685 h 2.116667 2.116666 v 2.116667 2.116666 h -2.116666 -2.116667 z"
         style="fill:#4b2000;stroke-width:0.26458332" />
    </g>
  </g>
</svg>
