<svg width="225" height="225"><g transform="translate(112.5,112.5)"><path d="M6.8886382452038615e-15,-112.5A112.5,112.5 0 0,1 56.249999999999986,-97.42785792574935L22.499999999999996,-38.97114317029974A45,45 0 0,0 2.7554552980815448e-15,-45Z" fill="hsl(0,100%,50%)"></path><path d="M56.249999999999986,-97.42785792574935A112.5,112.5 0 0,1 97.42785792574934,-56.25L38.97114317029974,-22.5A45,45 0 0,0 22.499999999999996,-38.97114317029974Z" fill="hsl(30,100%,50%)"></path><path d="M97.42785792574934,-56.25A112.5,112.5 0 0,1 112.5,0L45,0A45,45 0 0,0 38.97114317029974,-22.5Z" fill="hsl(60,100%,50%)"></path><path d="M112.5,0A112.5,112.5 0 0,1 97.42785792574935,56.24999999999998L38.97114317029974,22.499999999999993A45,45 0 0,0 45,0Z" fill="hsl(90,100%,50%)"></path><path d="M97.42785792574935,56.24999999999998A112.5,112.5 0 0,1 56.250000000000036,97.42785792574934L22.500000000000014,38.97114317029973A45,45 0 0,0 38.97114317029974,22.499999999999993Z" fill="hsl(120,100%,50%)"></path><path d="M56.250000000000036,97.42785792574934A112.5,112.5 0 0,1 6.8886382452038615e-15,112.5L2.7554552980815448e-15,45A45,45 0 0,0 22.500000000000014,38.97114317029973Z" fill="hsl(150,100%,50%)"></path><path d="M6.8886382452038615e-15,112.5A112.5,112.5 0 0,1 -56.24999999999997,97.42785792574935L-22.49999999999999,38.97114317029974A45,45 0 0,0 2.7554552980815448e-15,45Z" fill="hsl(180,100%,50%)"></path><path d="M-56.24999999999997,97.42785792574935A112.5,112.5 0 0,1 -97.42785792574934,56.250000000000036L-38.97114317029973,22.500000000000014A45,45 0 0,0 -22.49999999999999,38.97114317029974Z" fill="hsl(210,100%,50%)"></path><path d="M-97.42785792574934,56.250000000000036A112.5,112.5 0 0,1 -112.5,1.3777276490407723e-14L-45,5.5109105961630896e-15A45,45 0 0,0 -38.97114317029973,22.500000000000014Z" fill="hsl(240,100%,50%)"></path><path d="M-112.5,1.3777276490407723e-14A112.5,112.5 0 0,1 -97.4278579257494,-56.24999999999993L-38.971143170299754,-22.49999999999997A45,45 0 0,0 -45,5.5109105961630896e-15Z" fill="hsl(270,100%,50%)"></path><path d="M-97.4278579257494,-56.24999999999993A112.5,112.5 0 0,1 -56.25000000000005,-97.42785792574934L-22.50000000000002,-38.97114317029973A45,45 0 0,0 -38.971143170299754,-22.49999999999997Z" fill="hsl(300,100%,50%)"></path><path d="M-56.25000000000005,-97.42785792574934A112.5,112.5 0 0,1 -2.0665914735611585e-14,-112.5L-8.266365894244634e-15,-45A45,45 0 0,0 -22.50000000000002,-38.97114317029973Z" fill="hsl(330,100%,50%)"></path></g></svg>