<?xml version="1.0" encoding="UTF-8" standalone="no"?>
<!-- Created with Inkscape (http://www.inkscape.org/) -->

<svg
   xmlns:dc="http://purl.org/dc/elements/1.1/"
   xmlns:cc="http://creativecommons.org/ns#"
   xmlns:rdf="http://www.w3.org/1999/02/22-rdf-syntax-ns#"
   xmlns:svg="http://www.w3.org/2000/svg"
   xmlns="http://www.w3.org/2000/svg"
   xmlns:sodipodi="http://sodipodi.sourceforge.net/DTD/sodipodi-0.dtd"
   xmlns:inkscape="http://www.inkscape.org/namespaces/inkscape"
   width="88.899994mm"
   height="21.16667mm"
   viewBox="0 0 88.899992 21.166671"
   version="1.1"
   id="svg957"
   inkscape:version="0.92.4 (unknown)"
   sodipodi:docname="controls.svg">
  <defs
     id="defs951" />
  <sodipodi:namedview
     id="base"
     pagecolor="#ffffff"
     bordercolor="#666666"
     borderopacity="1.0"
     inkscape:pageopacity="0.0"
     inkscape:pageshadow="2"
     inkscape:zoom="1.979899"
     inkscape:cx="174.74308"
     inkscape:cy="112.27848"
     inkscape:document-units="mm"
     inkscape:current-layer="g1040"
     showgrid="false"
     inkscape:window-width="1366"
     inkscape:window-height="703"
     inkscape:window-x="0"
     inkscape:window-y="0"
     inkscape:window-maximized="1" />
  <metadata
     id="metadata954">
    <rdf:RDF>
      <cc:Work
         rdf:about="">
        <dc:format>image/svg+xml</dc:format>
        <dc:type
           rdf:resource="http://purl.org/dc/dcmitype/StillImage" />
        <dc:title></dc:title>
      </cc:Work>
    </rdf:RDF>
  </metadata>
  <g
     inkscape:label="Layer 1"
     inkscape:groupmode="layer"
     id="layer1"
     transform="translate(-64.256074,-99.16725)">
    <g
       id="g1040">
      <path
         style="display:none;fill:#c6e6de;stroke-width:0.26458332"
         d="m 66.174183,118.73636 -0.198437,-0.0101 -0.330729,-0.37565 -0.33073,-0.37564 v -8.49673 -8.49674 l 0.377976,-0.37797 0.377977,-0.37799 h 42.37113 42.37113 l 0.37797,0.37798 0.37798,0.37798 v 0.30238 0.30238 l -0.39688,0.39687 -0.39687,0.39688 -0.42837,-0.42837 -0.42838,-0.42838 0.17818,-0.17817 0.17818,-0.17818 0.23581,0.38155 0.23581,0.38155 0.17817,-0.17818 0.17818,-0.17817 -0.40947,-0.40948 -0.40948,-0.40947 H 108.44137 66.599406 l -0.377976,0.37798 -0.377976,0.37797 v 8.35328 8.35327 h 0.264583 0.264584 v 0.26458 0.26459 l -0.198438,-0.0101 z m 84.487127,0.0101 h -0.15119 v -0.26459 -0.26458 H 108.81934 67.128573 l -0.409474,-0.40947 -0.409474,-0.40948 0.200012,-0.18584 0.200013,-0.18584 0.118117,0.33073 0.118118,0.33073 h 41.760065 41.76007 l 0.10945,-0.32836 0.10946,-0.32837 0.46066,0.46066 0.46066,0.46066 -0.39688,0.39687 -0.39687,0.39688 z m 0.11339,-0.52917 h 0.26458 v -0.26458 -0.26459 h -0.26458 -0.26458 v 0.26459 0.26458 z m -42.06875,-1.5875 H 67.960121 v -6.87917 -6.87916 h 40.745829 40.74583 v 6.87916 6.87917 z m 0,-0.52917 h 40.21667 v -6.35 -6.35 H 108.70595 68.489287 v 6.35 6.35 z m -33.60208,-8.46666 h -5.556249 v -0.26459 -0.26458 h 1.058333 1.058333 v -0.52917 -0.52916 h 0.79375 0.79375 v 0.52916 0.52917 h 0.264583 0.264584 v -0.52917 -0.52916 h 0.79375 0.79375 v 0.52916 0.52917 h 1.058333 1.058333 v -0.52917 -0.52916 h 0.264583 0.264584 v 0.52916 0.52917 h 0.264583 0.264583 v -0.52917 -0.52916 h 1.058334 1.058333 v 0.79375 0.79375 z m 16.933333,0 h -5.55625 v -0.26459 -0.26458 h 0.264583 0.264584 v -0.52917 -0.52916 h 1.058333 1.058333 v 0.52916 0.52917 h 1.058334 1.058333 v -0.26458 -0.26459 h -0.79375 -0.79375 v -0.26458 -0.26458 h 1.058333 1.058333 v 0.52916 0.52917 h 0.264584 0.264583 v -0.52917 -0.52916 h 0.529167 0.529166 v 0.52916 0.52917 h 0.264584 0.264583 v -0.52917 -0.52916 h 0.79375 0.79375 v 0.52916 0.52917 h 0.264583 0.264584 v -0.52917 -0.52916 h 0.79375 0.793749 v 0.79375 0.79375 z m 16.668747,0 h -5.29166 v -0.26459 -0.26458 h 1.05833 1.05833 v -0.26458 -0.26459 h -0.79375 -0.79375 v -0.26458 -0.26458 h 1.05834 1.05833 v 0.52916 0.52917 h 1.05833 1.05834 v -0.52917 -0.52916 h 0.26458 0.26458 v 0.52916 0.52917 h 1.05834 1.05833 v -0.52917 -0.52916 h 0.26458 0.26459 v 0.52916 0.52917 h 0.26458 0.26458 v -0.52917 -0.52916 h 1.05834 1.05833 v 0.79375 0.79375 z m 23.54792,0 h -7.14375 v -0.79375 -0.79375 h 0.52916 0.52917 v 0.52916 0.52917 h 0.26458 0.26459 v -0.52917 -0.52916 h 0.79375 0.79375 v 0.52916 0.52917 h 1.05833 1.05833 v -0.26458 -0.26459 h -0.79375 -0.79375 v -0.26458 -0.26458 h 1.05834 1.05833 v 0.52916 0.52917 h 0.26458 0.26459 v -0.52917 -0.52916 h 0.79375 0.79375 v 0.52916 0.52917 h 0.26458 0.26458 v -0.52917 -0.52916 h 0.26459 0.26458 v 0.52916 0.52917 h 0.26458 0.26459 v -0.52917 -0.52916 h 1.05833 1.05833 v 0.52916 0.52917 h 1.05834 1.05833 v -0.52917 -0.52916 h 0.26458 0.26459 v 0.79375 0.79375 z m -61.9125,-1.05834 h -0.793749 v -0.26458 -0.26458 h 0.793749 0.79375 v 0.26458 0.26458 z m 6.085417,0 H 75.89762 v -0.26458 -0.26458 h 0.529167 0.529166 v 0.26458 0.26458 z m 30.691663,0 h -0.52916 v -0.26458 -0.26458 h 0.52916 0.52917 v 0.26458 0.26458 z m 2.64584,0 h -0.52917 v -0.26458 -0.26458 h 0.52917 0.52916 v 0.26458 0.26458 z m 28.04583,0 h -0.52917 v -0.26458 -0.26458 h 0.52917 0.52916 v 0.26458 0.26458 z m -66.145833,-1.05833 h -1.5875 v -0.26458 -0.26459 h 1.5875 1.5875 v 0.26459 0.26458 z m 2.910417,0 h -0.79375 v -0.26458 -0.26459 h 0.79375 0.79375 v 0.26459 0.26458 z m 1.852083,0 H 75.89762 v -0.26458 -0.26459 h 0.529167 0.529166 v 0.26459 0.26458 z m 1.322916,0 H 77.48512 v -0.26458 -0.26459 h 0.264583 0.264584 v 0.26459 0.26458 z m 1.322917,0 h -0.529167 v -0.26458 -0.26459 h 0.529167 0.529167 v 0.26459 0.26458 z m 1.322917,0 h -0.264584 v -0.26458 -0.26459 h 0.264584 0.264583 v 0.26459 0.26458 z m 7.143749,0 H 87.01012 v -0.26458 -0.26459 h 0.529166 0.529167 v 0.26459 0.26458 z m 1.322917,0 H 88.59762 v -0.26458 -0.26459 h 0.264583 0.264583 v 0.26459 0.26458 z m 1.852083,0 h -1.058333 v -0.26458 -0.26459 h 1.058333 1.058333 v 0.26459 0.26458 z m 2.116667,0 h -0.529167 v -0.26458 -0.26459 h 0.529167 0.529166 v 0.26459 0.26458 z m 1.5875,0 h -0.529167 v -0.26458 -0.26459 h 0.529167 0.529166 v 0.26459 0.26458 z m 1.322916,0 h -0.264583 v -0.26458 -0.26459 h 0.264583 0.264584 v 0.26459 0.26458 z m 1.322917,0 h -0.529167 v -0.26458 -0.26459 h 0.529167 0.529166 v 0.26459 0.26458 z m 7.937504,0 h -1.05834 v -0.26458 -0.26459 h 1.05834 1.05833 v 0.26459 0.26458 z m 2.11666,0 h -0.52916 v -0.26458 -0.26459 h 0.52916 0.52917 v 0.26459 0.26458 z m 1.32292,0 h -0.26458 v -0.26458 -0.26459 h 0.26458 0.26458 v 0.26459 0.26458 z m 1.32292,0 h -0.52917 v -0.26458 -0.26459 h 0.52917 0.52916 v 0.26459 0.26458 z m 1.32291,0 h -0.26458 v -0.26458 -0.26459 h 0.26458 0.26459 v 0.26459 0.26458 z m 1.32292,0 h -0.52917 v -0.26458 -0.26459 h 0.52917 0.52917 v 0.26459 0.26458 z m 1.32292,0 h -0.26459 v -0.26458 -0.26459 h 0.26459 0.26458 v 0.26459 0.26458 z m 11.90624,0 h -0.52916 v -0.26458 -0.26459 h 0.52916 0.52917 v 0.26459 0.26458 z m 1.85209,0 h -0.79375 v -0.26458 -0.26459 h 0.79375 0.79375 v 0.26459 0.26458 z m 2.38125,0 h -1.05834 v -0.26458 -0.26459 h 1.05834 1.05833 v 0.26459 0.26458 z m 2.38125,0 h -0.26459 v -0.26458 -0.26459 h 0.26459 0.26458 v 0.26459 0.26458 z m 1.5875,0 h -0.26459 v -0.26458 -0.26459 h 0.26459 0.26458 v 0.26459 0.26458 z m 1.32291,0 h -0.52916 v -0.26458 -0.26459 h 0.52916 0.52917 v 0.26459 0.26458 z m 1.32292,0 h -0.26458 v -0.26458 -0.26459 h 0.26458 0.26458 v 0.26459 0.26458 z m 1.32292,0 h -0.52917 v -0.26458 -0.26459 h 0.52917 0.52916 v 0.26459 0.26458 z m 1.32291,0 h -0.26458 v -0.26458 -0.26459 h 0.26458 0.26459 v 0.26459 0.26458 z m -72.609219,-3.175 h -0.15119 v -0.15119 -0.15119 l 0.409474,-0.40948 0.409474,-0.40947 0.151191,0.15119 0.15119,0.15119 -0.409474,0.40948 -0.409474,0.40947 z"
         id="path1054"
         inkscape:connector-curvature="0"
         sodipodi:nodetypes="ccccccccccccccccccccccccccccccccccccccccccccccccccccccccccccccccccccccccccccccccccccccccccccccccccccccccccccccccccccccccccccccccccccccccccccccccccccccccccccccccccccccccccccccccccccccccccccccccccccccccccccccccccccccccccccccccccccccccccccccccccccccccccccccccccccccccccccccccccccccccccccccccccccccccccccccccccccccccccccccccccccccccccccccccccccccccccccccccccccccccccccccccccccccccccccccccccccccccccccccccccccccccccccccccccccccccccccccccccccccccccccccccccccccccccccccccccccccccccccccccccccccccccccccccccccccccccccccccccccccccccccccccccccccccccccccccccccccccccccccccccccccccccccccccccccccccccccccc" />
      <path
         style="display:inline;fill:#9fbfaf;stroke-width:0.26458332"
         d="m 108.12266,119.26553 -42.676081,-0.0101 -0.330729,-0.37565 -0.330729,-0.37564 v -8.75445 -8.75444 l 0.649431,-0.64943 0.649432,-0.649433 h 42.357386 42.35738 l 0.64943,0.649433 0.64944,0.64943 v 8.49072 8.49072 l -0.64944,0.64943 -0.64943,0.64943 -42.67609,-0.01 z m 0.27146,-0.52917 42.41838,0.0101 0.37797,-0.37798 0.37798,-0.37797 v -8.50446 -8.50446 l -0.37798,-0.37798 -0.37797,-0.37798 H 108.44137 66.07024 l -0.377977,0.37798 -0.377976,0.37798 v 8.49673 8.49673 l 0.33073,0.37564 0.330729,0.37565 42.418374,0.0101 z m -41.161604,-1.05833 -0.198437,-0.0101 -0.330729,-0.37564 -0.330729,-0.37565 v -7.16694 -7.16694 l 0.649431,-0.64943 0.649432,-0.64944 h 41.034466 41.03447 l 0.64943,0.64943 0.64943,0.64943 v 7.17467 7.17468 l -0.40947,0.40948 -0.40948,0.40947 -0.18583,-0.20001 -0.18584,-0.20002 0.33073,-0.11811 0.33073,-0.11812 v -7.27289 -7.27289 l -0.37798,-0.37798 -0.37798,-0.37798 H 108.70595 67.65774 l -0.377977,0.37798 -0.377976,0.37798 v 7.29494 7.29494 h 0.264584 0.264583 v 0.26458 0.26458 l -0.198438,-0.0101 z m 41.360044,-0.5191 H 67.960121 v -0.26459 -0.26458 h 40.745829 40.74583 v -6.87917 -6.87916 h 0.26459 0.26458 v 6.76577 6.76577 l -0.37798,0.37798 -0.37797,0.37798 z m 0.11339,-1.05834 H 68.489287 v -6.35 -6.35 h 40.216663 40.21667 v 3.96875 3.96875 h -0.20618 -0.20617 l -0.3814,-0.52916 -0.38141,-0.52917 h -0.61507 -0.61508 l -0.64943,0.64943 -0.64943,0.64943 v 0.55322 0.55322 l 0.64943,0.64943 0.64943,0.64944 h 0.61508 0.61507 l 0.38141,-0.52917 0.3814,-0.52917 h 0.20617 0.20618 v 1.5875 1.5875 z m 8.14796,-2.13285 0.60734,0.0162 0.64944,-0.64944 0.64943,-0.64944 v -0.55322 -0.55322 l -0.64943,-0.64943 -0.64944,-0.64943 h -0.55322 -0.55322 l -0.64943,0.64943 -0.64943,0.64943 v 0.55065 0.55065 l 0.59531,0.63582 0.59532,0.63582 0.60733,0.0162 z m 15.13537,-1.04215 h 10.58334 v -0.52916 -0.52917 h -10.58334 -10.58333 v 0.52917 0.52916 z m -57.149993,-5.29166 h 5.820833 v -1.85209 -1.85208 h -5.820833 -5.820833 v 1.85208 1.85209 z m 16.933332,0 h 5.820833 v -1.85209 -1.85208 h -5.820833 -5.820833 v 1.85208 1.85209 z m 16.668751,0 h 5.55625 v -1.85209 -1.85208 h -5.55625 -5.55625 v 1.85208 1.85209 z m 23.54791,0 h 7.40834 v -1.85209 -1.85208 h -7.40834 -7.40833 v 1.85208 1.85209 z"
         id="path1050"
         inkscape:connector-curvature="0"
         sodipodi:nodetypes="cccccccccccccccccccccccccccccccccccccccccccccccccccccccccccccccccccccccccccccccccccccccccccccccccccccccccccccccccccccccccccccccccccccccccccccccccccccccccccccccccccccccccccaccccccc" />
      <path
         style="display:inline;fill:#777776;stroke-width:0.26458332"
         d="M 108.58569,119.80476 H 65.843454 v -0.26458 -0.26459 h 42.477646 42.47765 l 0.64943,-0.64943 0.64944,-0.64943 v -8.5138 -8.51381 l -0.57159,-0.49573 -0.57159,-0.495737 0.15868,-0.158673 0.15868,-0.158676 0.67749,0.677496 0.67749,0.67749 v 8.7553 8.75531 l -0.64943,0.64943 -0.64943,0.64943 z m -40.890153,-3.175 h -0.264583 v -6.76577 -6.76578 l 0.377976,-0.37797 0.377976,-0.37798 h 40.632434 40.63244 v 0.26458 0.26459 H 108.70595 67.960121 v 6.87916 6.87917 z"
         id="path1046"
         inkscape:connector-curvature="0"
         sodipodi:nodetypes="cccccccccccccccccccccccccccccccccccc" />
      <path
         style="display:inline;fill:#000000;stroke-width:0.26458332"
         d="m 108.65195,120.31775 -43.205251,-0.0162 -0.595312,-0.63582 -0.595313,-0.63582 v -9.2819 -9.2819 l 0.649432,-0.649427 0.649432,-0.649433 h 43.151132 43.15114 l 0.64943,0.649433 0.64943,0.649427 v 9.28447 9.28447 l -0.64943,0.64943 -0.64943,0.64944 -43.20526,-0.0162 z m 0,-0.52916 42.67609,0.0162 0.64943,-0.64943 0.64943,-0.64943 v -8.75531 -8.7553 l -0.64943,-0.64943 -0.64943,-0.649433 H 108.70595 66.083984 l -0.649432,0.649433 -0.649431,0.64943 v 8.75273 8.75273 l 0.595312,0.63582 0.595313,0.63582 42.676084,0.0162 z m 0.007,-2.11055 -41.095464,-0.0101 -0.33073,-0.37565 -0.330729,-0.37564 v -7.17382 -7.17381 l 0.377976,-0.37798 0.377977,-0.37798 h 41.04821 41.04821 l 0.37798,0.37798 0.37798,0.37798 v 7.18154 7.18155 l -0.37798,0.37798 -0.37798,0.37797 -41.09545,-0.0101 z m 0,-0.52917 40.56629,0.0101 0.37798,-0.37798 0.37797,-0.37797 v -6.65238 -6.65238 l -0.37798,-0.37797 -0.37797,-0.37798 H 108.70595 68.186906 l -0.377976,0.37798 -0.377976,0.37797 v 6.64465 6.64465 l 0.330729,0.37564 0.330729,0.37565 40.566298,0.01 z m 8.19521,-3.18112 -0.60734,-0.0162 -0.59531,-0.63582 -0.59531,-0.63582 v -0.55065 -0.55064 l 0.64943,-0.64943 0.64942,-0.64943 h 0.55322 0.55322 l 0.64944,0.64943 0.64943,0.64943 v 0.55322 0.55322 l -0.64943,0.64943 -0.64944,0.64944 -0.60734,-0.0162 z m 0.007,-0.52304 0.61421,0.0101 0.37798,-0.37798 0.37796,-0.37796 v -0.56697 -0.56696 l -0.37797,-0.37798 -0.37798,-0.37797 h -0.56697 -0.56696 l -0.37798,0.37797 -0.37797,0.37798 v 0.55923 0.55923 l 0.33073,0.37565 0.33073,0.37564 0.61421,0.0101 z m 0.0472,-1.04827 h -0.79375 v -0.26459 -0.26458 h 0.79375 0.79375 v 0.26458 0.26459 z m 30.10838,1.57131 -0.60733,-0.0162 -0.59532,-0.63582 -0.59531,-0.63582 v -0.55065 -0.55064 l 0.64943,-0.64943 0.64943,-0.64943 h 0.55322 0.55322 l 0.64943,0.64943 0.64944,0.64943 v 0.55322 0.55322 l -0.64944,0.64943 -0.64943,0.64944 -0.60734,-0.0162 z m 0.007,-0.52304 0.61421,0.0101 0.37798,-0.37798 0.37797,-0.37796 v -0.56697 -0.56696 l -0.37798,-0.37798 -0.37797,-0.37797 h -0.56697 -0.56696 l -0.37798,0.37797 -0.37797,0.37798 v 0.55923 0.55923 l 0.33073,0.37565 0.33073,0.37564 0.61421,0.0101 z m 0,-0.52917 -0.085,-0.0101 -0.34525,-0.39118 -0.34525,-0.39119 0.41139,-0.4114 0.4114,-0.4114 0.41577,0.41578 0.41578,0.41577 -0.39688,0.39688 -0.39687,0.39687 -0.085,-0.0101 z m -15.03401,0.0101 H 121.4064 v -0.52916 -0.52917 h 10.58333 10.58334 v 0.52917 0.52916 z m -61.383326,-5.82083 h -1.058333 v -0.26458 -0.26459 h 0.793749 0.79375 v -0.26458 -0.26458 h -0.79375 -0.793749 v -0.79375 -0.79375 h 1.058333 1.058333 v 0.26458 0.26458 h -0.79375 -0.79375 v 0.26459 0.26458 h 0.79375 0.79375 v 0.79375 0.79375 z m 2.910416,0 h -0.264583 v -1.05833 -1.05834 H 72.72262 72.193454 v -0.26458 -0.26458 h 1.322916 1.322917 v 0.26458 0.26458 H 74.31012 73.780954 v 1.05834 1.05833 z m 2.910417,0 h -1.058333 v -1.32292 -1.32291 h 1.058333 1.058333 v 1.32291 1.32292 z m 0,-0.52917 h 0.529166 v -0.79375 -0.79375 H 76.426787 75.89762 v 0.79375 0.79375 z m 1.852083,0.52917 h -0.264583 v -1.32292 -1.32291 h 1.058333 1.058333 v 0.79375 0.79375 h -0.79375 -0.79375 v 0.52916 0.52917 z m 0.79375,-1.5875 h 0.529167 v -0.26458 -0.26459 H 79.07262 78.543453 v 0.26459 0.26458 z m 7.672916,1.5875 h -0.264583 v -1.32292 -1.32291 h 1.058333 1.058334 v 0.79375 0.79375 h -0.79375 -0.79375 v 0.52916 0.52917 z m 0.79375,-1.5875 h 0.529167 v -0.26458 -0.26459 H 87.539286 87.01012 v 0.26459 0.26458 z m 2.645834,1.5875 h -1.058334 v -1.32292 -1.32291 h 0.264584 0.264583 v 1.05833 1.05833 h 0.79375 0.79375 v 0.26459 0.26458 z m 1.852083,0 h -0.264584 v -0.94494 -0.94494 l 0.377976,-0.37798 0.377976,-0.37797 h 0.302382 0.302381 l 0.377976,0.37797 0.377976,0.37798 v 0.94494 0.94494 h -0.264583 -0.264584 v -0.52917 -0.52916 h -0.529166 -0.529167 v 0.52916 0.52917 z m 0.79375,-1.5875 h 0.529166 v -0.26458 -0.26459 h -0.529166 -0.529167 v 0.26459 0.26458 z m 2.910416,1.5875 h -0.264583 v -0.69657 -0.69657 l -0.571585,-0.49573 -0.571587,-0.49574 0.173032,-0.17303 0.173032,-0.17303 0.530847,0.61207 0.530844,0.61207 0.530844,-0.61207 0.530847,-0.61207 0.173032,0.17303 0.173032,0.17303 -0.571587,0.49574 -0.571584,0.49573 v 0.69657 0.69657 z m 8.731251,0 h -1.05833 v -1.32292 -1.32291 h 0.26458 0.26458 v 1.05833 1.05833 h 0.79375 0.79375 v 0.26459 0.26458 z m 2.64583,0 h -1.05833 v -1.32292 -1.32291 h 1.05833 1.05834 v 1.32291 1.32292 z m 0,-0.52917 h 0.52917 v -0.79375 -0.79375 h -0.52917 -0.52916 v 0.79375 0.79375 z m 2.64584,0.52917 h -1.05834 v -1.32292 -1.32291 h 1.05834 1.05833 v 1.32291 1.32292 z m 0,-0.52917 h 0.52916 v -0.79375 -0.79375 h -0.52916 -0.52917 v 0.79375 0.79375 z m 1.85208,0.52917 h -0.26458 v -1.32292 -1.32291 h 1.05833 1.05833 v 0.79375 0.79375 h -0.79375 -0.79375 v 0.52916 0.52917 z m 0.79375,-1.5875 h 0.52917 v -0.26458 -0.26459 h -0.52917 -0.52917 v 0.26459 0.26458 z m 14.02291,1.5875 h -0.26458 v -1.05833 -1.05834 h -0.52917 -0.52916 v -0.26458 -0.26458 h 1.32291 1.32292 v 0.26458 0.26458 h -0.52917 -0.52916 v 1.05834 1.05833 z m 2.91042,0 h -1.05833 v -1.32292 -1.32291 h 1.05833 1.05833 v 0.26458 0.26458 h -0.79375 -0.79375 v 0.26459 0.26458 h 0.79375 0.79375 v 0.26458 0.26459 h -0.79375 -0.79375 v 0.26458 0.26458 h 0.79375 0.79375 v 0.26459 0.26458 z m 1.85208,0 h -0.26458 v -1.32292 -1.32291 h 0.1674 0.16741 l 0.49405,0.56965 0.49406,0.56965 0.49405,-0.56965 0.49406,-0.56965 h 0.1674 0.1674 v 1.32291 1.32292 h -0.26458 -0.26458 v -0.79375 -0.79375 h -0.24254 -0.24253 l -0.15434,0.33073 -0.15434,0.33073 -0.15434,-0.33073 -0.15434,-0.33073 h -0.24254 -0.24253 v 0.79375 0.79375 z m 3.175,0 h -0.26458 v -1.32292 -1.32291 h 1.05833 1.05834 v 0.79375 0.79375 h -0.79375 -0.79375 v 0.52916 0.52917 z m 0.79375,-1.5875 h 0.52917 v -0.26458 -0.26459 h -0.52917 -0.52916 v 0.26459 0.26458 z m 2.64584,1.5875 h -1.05834 v -1.32292 -1.32291 h 1.05834 1.05833 v 1.32291 1.32292 z m 0,-0.52917 h 0.52916 v -0.79375 -0.79375 h -0.52916 -0.52917 v 0.79375 0.79375 z"
         id="path1042"
         inkscape:connector-curvature="0"
         sodipodi:nodetypes="cccccccccccccccccccccccccccccccccccccccccccccccccccccccccccccccccccccccccccccccccccccccccccccccccccccccccccccccccccccccccccccccccccccccccccccccccccccccccccccccccccccccccccccccccccccccccccccccccccccccccccccccccccccccccccccccccccccccccccccccccccccccccccccccccccccccccccccccccccccccccccccccccccccccccccccccccccccccccccccccccccccccccccccccccccccccccccccccccccccccccccccccccccccccccccccccccccccccccccccccccccccccccccccccccccccccccccccccccccccccccccccccccccccccccccccccccccccccccccccccccccccccccccccccccccccccccccccccccccccccccc" />
    </g>
  </g>
</svg>
