<?xml version="1.0" encoding="UTF-8" standalone="no"?>
<!-- Created with Inkscape (http://www.inkscape.org/) -->

<svg
   xmlns:dc="http://purl.org/dc/elements/1.1/"
   xmlns:cc="http://creativecommons.org/ns#"
   xmlns:rdf="http://www.w3.org/1999/02/22-rdf-syntax-ns#"
   xmlns:svg="http://www.w3.org/2000/svg"
   xmlns="http://www.w3.org/2000/svg"
   xmlns:sodipodi="http://sodipodi.sourceforge.net/DTD/sodipodi-0.dtd"
   xmlns:inkscape="http://www.inkscape.org/namespaces/inkscape"
   width="7.1437497mm"
   height="6.3499999mm"
   viewBox="0 0 7.1437497 6.3499999"
   version="1.1"
   id="svg8"
   inkscape:version="0.92.4 (unknown)"
   sodipodi:docname="hand2.svg">
  <defs
     id="defs2" />
  <sodipodi:namedview
     id="base"
     pagecolor="#ffffff"
     bordercolor="#666666"
     borderopacity="1.0"
     inkscape:pageopacity="0.0"
     inkscape:pageshadow="2"
     inkscape:zoom="7.9195959"
     inkscape:cx="7.7857161"
     inkscape:cy="-1.4191541"
     inkscape:document-units="mm"
     inkscape:current-layer="svg8"
     showgrid="false"
     inkscape:window-width="1366"
     inkscape:window-height="703"
     inkscape:window-x="0"
     inkscape:window-y="0"
     inkscape:window-maximized="1" />
  <metadata
     id="metadata5">
    <rdf:RDF>
      <cc:Work
         rdf:about="">
        <dc:format>image/svg+xml</dc:format>
        <dc:type
           rdf:resource="http://purl.org/dc/dcmitype/StillImage" />
        <dc:title></dc:title>
      </cc:Work>
    </rdf:RDF>
  </metadata>
  <path
     id="path68"
     d="M 0.52916666,0.13229 H 1.3229166 m 1.8520834,0 h 0.79375 m 0.2645833,0 H 4.7624999 M 0.26458333,0.39687333 h 0.26458333 m 0.79374994,0 H 1.5875 m 0.79375,0 H 3.175 m 0.79375,0 h 0.2645833 m 0.5291666,0 H 5.0270833 M 0,0.66145666 h 0.26458333 m 1.32291667,0 h 0.2645833 m 0.2645833,0 H 2.38125 m 0.79375,0 h 0.2645833 m 1.5875,0 H 5.2916666 M 0,0.92603999 h 0.26458333 m 1.58749997,0 h 0.2645833 m 3.175,0 H 5.5562499 M 0,1.1906233 h 0.26458333 m 1.85208327,0 H 2.38125 m 1.8520833,0 h 0.5291666 m 0.5291667,0 H 5.5562499 M 0,1.4552066 h 0.26458333 m 2.11666667,0 h 0.2645833 m 1.8520833,0 h 0.2645833 m 0.5291667,0 H 5.5562499 M 0.26458333,1.71979 h 0.26458333 m 3.17499994,0 h 0.5291667 m 0.5291666,0 h 0.2645834 m 0.5291666,0 H 5.8208333 M 0.52916666,1.9843733 h 0.26458333 m 3.17500001,0 h 0.2645833 m 1.3229166,0 H 5.8208333 M 0.79374999,2.2489566 H 1.0583333 m 1.8520833,0 h 0.5291667 m 0.79375,0 h 0.2645833 m 1.0583333,0 h 0.2645834 m -4.7625,0.2645834 h 0.2645833 m 1.8520834,0 h 0.5291666 m 1.8520833,0 h 0.2645834 m -4.7625,0.2645833 H 1.5875 m 2.1166666,0 H 3.96875 m 1.8520833,0 H 6.0854166 M 0.79374999,3.0427066 H 1.8520833 m 3.96875,0 H 6.6145832 M 0.79374999,3.30729 H 1.0583333 m 0.5291667,0 h 0.5291666 m 3.4395833,0 h 0.2645834 m 0.5291666,0 H 6.8791666 M 0.79374999,3.5718733 H 1.0583333 m 0.79375,0 H 2.38125 m 4.2333332,0 H 6.8791666 M 0.79374999,3.8364566 H 1.0583333 m 5.8208333,0 H 7.1437499 M 1.0583333,4.10104 h 0.2645833 m 5.55625,0 H 7.1437499 M 1.0583333,4.3656233 h 0.2645833 m 5.2916666,0 h 0.2645834 m -5.55625,0.2645833 H 1.5875 m 2.9104166,0 h 0.2645833 m 1.8520833,0 H 6.8791666 M 1.5875,4.8947899 h 0.5291666 m 2.1166667,0 h 0.2645833 m 1.8520833,0 H 6.6145832 M 1.8520833,5.1593733 h 0.79375 m 1.0583333,0 h 0.79375 m 1.5875,0 H 6.3499999 M 2.38125,5.4239566 h 1.3229166 m 0.2645834,0 h 0.5291666 m 1.3229167,0 H 6.0854166 M 4.2333333,5.6885399 h 0.2645833 m 1.0583333,0 h 0.2645834 m -1.5875,0.2645834 h 0.5291666 m 0.2645834,0 H 5.5562499 M 4.4979166,6.2177066 h 0.79375"
     inkscape:connector-curvature="0"
     style="stroke:#808080;stroke-width:0.26458332;shape-rendering:crispEdges" />
  <path
     id="path70"
     d="M 0.52916666,0.39687333 H 1.3229166 m 1.8520834,0 h 0.79375 m 0.2645833,0 H 4.7624999 M 0.26458333,0.66145666 H 1.5875 m 0.79375,0 H 3.175 m 0.2645833,0 h 1.5875 M 0.26458333,0.92603999 H 1.8520833 m 0.5291667,0 h 1.0583333 m 0.2645833,0 H 5.0270833 M 0.52916666,1.1906233 H 2.1166666 m 0.5291667,0 h 1.5875 m 0.5291666,0 H 5.2916666 M 0.79374999,1.4552066 H 2.38125 m 0.2645833,0 h 1.8520833 m 0.2645833,0 H 5.2916666 M 1.0583333,1.71979 h 2.6458333 m 0.5291667,0 h 0.5291666 m 0.2645834,0 h 0.2645833 m -3.96875,0.2645833 H 3.96875 m 0.2645833,0 H 5.5562499 M 1.5875,2.2489566 h 1.3229166 m 0.5291667,0 h 0.79375 m 0.2645833,0 H 5.5562499 M 1.8520833,2.51354 H 3.175 m 0.5291666,0 H 5.5562499 M 2.1166666,2.7781233 h 1.5875 m 0.2645834,0 H 5.5562499 M 2.38125,3.0427066 H 5.5562499 M 1.0583333,3.30729 H 1.5875 m 1.0583333,0 h 2.6458333 m 0.5291667,0 H 6.3499999 M 1.3229166,3.5718733 h 0.5291667 m 0.79375,0 h 2.38125 m 0.5291666,0 H 6.6145832 M 1.5875,3.8364566 h 0.5291666 m 0.5291667,0 h 2.1166666 m 0.2645834,0 H 6.8791666 M 1.5875,4.10104 h 2.9104166 m 0.5291667,0 h 1.8520833 m -4.7625,0.2645833 H 3.96875 m 0.7937499,0 H 6.6145832 M 2.9104166,4.6302066 h 0.5291667 m 1.3229166,0 H 6.0854166 M 4.7624999,4.8947899 h 1.0583334 m -0.79375,0.2645834 h 0.5291666"
     inkscape:connector-curvature="0"
     style="stroke:#f8f8f8;stroke-width:0.26458332;shape-rendering:crispEdges" />
  <path
     id="path72"
     d="M 2.1166666,0.92603999 H 2.38125 m 1.0583333,0 h 0.2645833 m 1.3229167,0 H 5.2916666 M 0.26458333,1.1906233 h 0.26458333 m 1.85208334,0 H 2.6458333 M 0.26458333,1.4552066 H 0.79374999 M 0.52916666,1.71979 H 1.0583333 m 4.2333333,0 H 5.5562499 M 0.79374999,1.9843733 H 1.3229166 M 1.0583333,2.2489566 H 1.5875 M 1.3229166,2.51354 H 1.8520833 M 1.5875,2.7781233 h 0.5291666 m 3.4395833,0 h 0.2645834 m -3.96875,0.2645833 H 2.38125 m 3.1749999,0 H 5.8208333 M 2.1166666,3.30729 h 0.5291667 m 2.6458333,0 H 5.5562499 M 1.0583333,3.5718733 h 0.2645833 m 1.0583334,0 h 0.2645833 m 2.38125,0 H 5.5562499 M 1.0583333,3.8364566 H 1.5875 m 0.5291666,0 h 0.5291667 m 2.1166666,0 H 5.0270833 M 1.3229166,4.10104 H 1.5875 m 2.9104166,0 H 5.0270833 M 1.3229166,4.3656233 h 0.79375 m 1.8520834,0 H 4.7624999 M 1.5875,4.6302066 h 1.3229166 m 0.5291667,0 h 1.0583333 m 1.5875,0 H 6.6145832 M 2.1166666,4.8947899 h 2.1166667 m 0.2645833,0 h 0.2645833 m 1.0583334,0 H 6.3499999 M 2.6458333,5.1593733 h 1.0583333 m 0.79375,0 h 0.5291667 m 0.5291666,0 h 0.5291667 m -1.5875,0.2645833 H 5.8208333 M 4.4979166,5.6885399 h 1.0583333 m -0.79375,0.2645834 h 0.2645834"
     inkscape:connector-curvature="0"
     style="stroke:#c0c0c0;stroke-width:0.26458332;shape-rendering:crispEdges" />
</svg>
