<?xml version="1.0" encoding="UTF-8" standalone="no"?>
<svg
   xmlns:dc="http://purl.org/dc/elements/1.1/"
   xmlns:cc="http://creativecommons.org/ns#"
   xmlns:rdf="http://www.w3.org/1999/02/22-rdf-syntax-ns#"
   xmlns:svg="http://www.w3.org/2000/svg"
   xmlns="http://www.w3.org/2000/svg"
   id="svg8"
   version="1.1"
   viewBox="0 0 48.36232 4.505125"
   height="4.505125mm"
   width="48.36232mm">
  <defs
     id="defs2" />
  <metadata
     id="metadata5">
    <rdf:RDF>
      <cc:Work
         rdf:about="">
        <dc:format>image/svg+xml</dc:format>
        <dc:type
           rdf:resource="http://purl.org/dc/dcmitype/StillImage" />
        <dc:title></dc:title>
      </cc:Work>
    </rdf:RDF>
  </metadata>
  <path
     style="display:inline;fill:#de4bbb;stroke-width:0.08466667"
     d="M 0.86621,4.487336 H 0.1142 L 0.0571,4.394986 0,4.302636 0.0622,2.19039 0.1243,0.078144 l 0.68843,0.02443 0.68844,0.02443 -0.007,0.359833 -0.007,0.359834 h 0.062 0.062 L 1.87136,0.550337 2.13154,0.254004 H 2.25458 2.37762 L 2.77391,0.717867 3.1702,1.181729 2.69822,1.719322 2.22624,2.256914 2.76246,2.650632 3.29868,3.04435 3.44713,3.10132 3.59559,3.15829 3.54799,2.997316 3.50039,2.836341 3.45169,2.159008 3.40299,1.481675 3.55326,0.804341 3.70353,0.127008 5.16384,0.103838 6.62415,0.080668 V 0.265123 0.449578 L 6.77898,0.309456 6.93382,0.169333 h 0.0753 0.0753 L 7.51647,0.596011 7.94851,1.022689 8.35025,0.511345 8.75198,0 h 0.0407 0.0406 l 0.63059,0.486833 0.63058,0.486834 5.1e-4,0.09388 5.1e-4,0.09388 L 9.50804,1.660212 8.9206,2.158997 8.9156,2.268852 8.9106,2.378707 9.33394,3.276174 9.75727,4.17364 V 4.282957 4.392275 L 8.67771,4.348175 7.59821,4.304075 7.49237,4.271365 7.38654,4.238655 V 3.34488 2.451105 L 6.86925,1.964888 6.35196,1.478672 5.76858,1.559302 5.18521,1.639932 v 0.06904 0.06904 h 0.51187 0.51186 l -0.025,0.5715 -0.025,0.5715 -0.381,0.03837 -0.381,0.03837 0.508,0.0463 0.508,0.0463 0.23254,0.479547 0.23254,0.479546 0.0215,0.197787 0.0215,0.197787 H 5.31236 3.70369 L 3.68089,4.233352 3.65809,4.021686 3.61199,3.73808 3.56589,3.454474 3.09306,3.976973 2.62022,4.499472 2.14352,4.027746 1.66682,3.556019 h -0.0501 -0.0501 l 0.0729,0.390386 0.0729,0.390385 -0.0465,0.07528 -0.0465,0.07528 z m 12.8675,0 H 12.81425 L 12.17423,3.972464 11.53421,3.457592 V 3.329529 3.201465 l 0.27449,-0.458925 0.2745,-0.458925 0.1065,0.04087 0.10651,0.04087 V 2.334045 2.302735 L 11.99987,2.127894 11.70354,1.953053 v -0.09322 -0.09322 l 0.74083,-0.839277 0.74084,-0.839278 0.75527,-0.0017 0.75528,-0.0017 0.40505,0.4445 0.40504,0.4445 0.004,-0.404824 0.004,-0.404824 0.10583,-0.03737 0.10584,-0.03737 0.54334,-0.02347 0.54335,-0.02347 0.40499,1.905 0.405,1.905 0.004,0.17953 0.004,0.17953 -0.93755,0.103533 -0.93754,0.103532 -0.0352,-0.03522 -0.0352,-0.03523 -0.0565,-1.36967 -0.0565,-1.36967 h -0.0573 -0.0573 L 15.1812,1.951998 14.90529,2.295331 14.70137,2.163664 14.49744,2.031998 14.28577,1.89526 14.07411,1.758523 l 0.001,0.07324 10e-4,0.07324 0.64167,0.458584 0.64168,0.458584 0.0414,0.107937 0.0414,0.107938 -0.395,0.724645 -0.395,0.724645 z m -0.88717,-1.778 h 0.0423 v -0.04233 -0.04233 h -0.0423 -0.0423 v 0.04233 0.04233 z m -0.16933,-0.08467 h 0.0423 v -0.04233 -0.04233 h -0.0423 -0.0423 v 0.04233 0.04233 z m -0.16434,-0.08467 h 0.0373 v -0.03734 -0.03734 l -0.0978,-0.06041 -0.0977,-0.06041 0.0604,0.09775 0.0604,0.09775 z m 6.11733,1.9188 -0.22767,0.0463 -0.46121,-0.919622 -0.4612,-0.919622 0.16188,-0.841208 0.16188,-0.841207 0.019,-0.01239 0.019,-0.01239 0.59267,-0.445522 0.59267,-0.445523 0.49925,0.05086 0.49925,0.05086 h 0.27597 0.27598 l 0.30427,0.42353 0.30428,0.423529 v 0.06507 0.06507 l -0.38638,0.209898 -0.38637,0.209898 0.40754,0.04233 0.40754,0.04233 0.0441,0.719667 0.0441,0.719666 0.059,-0.127 0.059,-0.127 0.23613,-1.354666 0.23614,-1.354667 0.52151,-0.02502 0.52151,-0.02502 0.23989,0.427104 0.23988,0.427104 0.0635,8.5e-5 0.0635,8.5e-5 V 0.507991 0.084658 l 0.10584,-5.6e-4 0.10583,-5.59e-4 0.65617,0.09988 0.65616,0.09987 -0.007,0.345185 -0.007,0.345184 -0.0566,0.740833 -0.0566,0.740834 0.0428,-8.71e-4 0.0428,-8.7e-4 0.65874,-1.130067 0.65874,-1.130066 0.61026,-0.05116 0.61026,-0.05116 0.0498,0.06026 0.0498,0.06027 0.87367,1.928015 0.87367,1.928014 -0.0465,0.04655 -0.0465,0.04655 -0.81509,0.128956 -0.8151,0.128956 -0.12429,-0.04769 -0.12428,-0.04769 -0.001,-0.235491 -0.001,-0.235491 -0.0511,-0.1905 -0.0511,-0.1905 h -0.56891 -0.56891 l -0.14371,0.516893 -0.1437,0.516892 -0.31468,-0.0696 -0.31467,-0.0696 -0.6788,0.02376 -0.6788,0.02376 -0.21792,-0.08285 -0.21791,-0.08285 -0.2844,-0.4432 -0.2844,-0.4432 -0.0608,0.203156 -0.0608,0.203157 -0.0531,0.3175 -0.0531,0.3175 H 21.99196 21.28034 L 21.19984,4.258853 21.11934,4.115049 19.98911,4.26377 18.85888,4.412491 Z m 0.66785,-1.552196 0.0214,-0.07027 0.0714,-0.613833 0.0714,-0.613833 h -0.0741 -0.0741 l -0.16597,0.375199 -0.16597,0.3752 0.14731,0.308904 0.1473,0.308904 z m 7.60316,-0.789937 h 0.21166 V 1.994659 1.872656 l -0.0884,-0.05462 -0.0884,-0.05462 -0.12329,0.102323 -0.12329,0.102322 v 0.0743 0.0743 z m -7.20373,-0.514685 0.16228,0.0067 -0.0512,-0.05115 -0.0512,-0.05115 -0.11113,0.04447 -0.11112,0.04447 0.16227,0.0067 z m 11.38707,2.885351 h -1.01366 l -0.0456,-0.11875 -0.0456,-0.118751 0.14015,-1.158105 0.14015,-1.158106 -0.0481,-0.0481 -0.0481,-0.0481 -0.6365,-0.04085 -0.63649,-0.04085 V 0.93079 0.105863 l 3.13267,0.0052 3.13267,0.0052 v 1.306885 1.306885 l 0.1905,-0.12839 0.1905,-0.128389 -0.0125,-0.199438 -0.0125,-0.199437 -0.062,-0.8255 -0.062,-0.8255 h 0.90106 0.90105 l 0.14702,-0.08092 0.14702,-0.08092 1.10067,-0.08057 1.10066,-0.08057 0.53509,0.381655 0.53509,0.381654 0.03,0.09733 0.03,0.09733 0.0381,0.623015 0.0381,0.623014 -0.26232,0.298776 -0.26233,0.298775 0.37024,0.328559 0.37024,0.328558 0.0402,-0.04023 0.0402,-0.04023 -0.0971,-0.956114 -0.0971,-0.956115 0.15247,-0.719666 0.15247,-0.719667 1.45812,-0.02317 1.45812,-0.02317 -0.003,0.107833 -0.003,0.107832 -0.11585,0.540284 -0.11585,0.540284 -0.1113,0.06879 -0.1113,0.06879 -0.53187,0.05696 -0.53188,0.05696 v 0.07076 0.07076 l 0.52917,0.02521 0.52916,0.02521 V 2.37071 2.921043 l -0.42333,0.02625 -0.42333,0.02625 -0.0804,0.07959 -0.0804,0.07959 h 0.60268 0.60267 l 0.12572,0.04824 0.12572,0.04824 0.24104,-0.429156 0.24104,-0.429157 0.1021,-8.5e-5 0.10211,-8.5e-5 0.43732,0.257853 0.43732,0.257852 0.0344,-0.03444 0.0344,-0.03444 L 45.12769,2.399548 44.42683,1.981551 V 1.847127 1.712703 l 0.71122,-0.813994 0.71123,-0.813997 h 0.73202 0.73201 l 0.52451,0.585828 0.5245,0.585829 -0.3849,0.472504 -0.3849,0.472505 h -0.10269 -0.10269 l -0.32258,-0.219193 -0.32257,-0.219193 -0.0416,0.0416 -0.0416,0.0416 0.68319,0.520064 0.68318,0.520065 -0.003,0.102028 -0.003,0.102028 -0.35693,0.677334 -0.35693,0.677333 -0.91112,0.02404 -0.91113,0.02404 -0.5799,-0.468541 -0.57991,-0.468541 h -0.0494 -0.0494 l 0.17251,0.389993 0.17252,0.389994 -0.0776,0.07764 -0.0777,0.07764 -1.56013,-0.02314 -1.56013,-0.02313 -0.0272,-0.236637 -0.0272,-0.236638 -0.17574,0.05578 -0.17575,0.05578 -0.42574,0.197245 -0.42573,0.197245 -0.23663,-0.168497 -0.23664,-0.168498 -0.0474,-0.07678 -0.0474,-0.07678 -0.24783,-0.17647 -0.24783,-0.17647 0.0505,0.426528 0.0505,0.426527 h -0.72204 -0.72203 l -0.0481,-0.275166 -0.0481,-0.275167 -0.0578,-0.931333 -0.0578,-0.931334 -0.0675,-0.169333 -0.0675,-0.169333 -0.005,0.777167 -0.005,0.777167 -0.52037,0.598666 -0.52037,0.598666 h -1.081 -1.08101 L 33.63958,3.946203 33.20895,3.405031 V 2.735308 2.065586 l -0.65616,-0.08735 -0.65617,-0.08736 -0.0311,0.02403 -0.0311,0.02403 0.18053,1.195527 0.18053,1.195527 -0.0486,0.07869 -0.0486,0.07869 z m 7.87129,-2.455333 h 0.0743 L 39.1409,1.898543 39.25165,1.76509 39.1301,1.68817 39.00854,1.61125 38.94504,1.60995 38.88154,1.60865 V 1.820316 2.031983 Z M 37.31521,1.693329 h 0.0423 v -0.04233 -0.04233 h -0.0423 -0.0423 v 0.04233 0.04233 z"
     id="path85" />
  <path
     style="display:inline;fill:#f9c807;stroke-width:0.08466667"
     d="M 0.85108,4.233336 H 0.24752 L 0.30282,3.204043 0.35822,2.174751 V 1.25671 0.33867 h 0.46566 0.46567 v 0.550333 0.550333 h 0.0617 0.0617 L 1.84147,0.960206 2.27,0.481076 2.55043,0.835137 2.83085,1.189199 2.35622,1.729808 1.88159,2.270416 2.11852,2.46871 2.35544,2.667003 2.83874,2.99874 3.32204,3.330477 3.17607,3.50674 3.03011,3.683003 2.816,3.922786 2.60189,4.162569 2.00191,3.50706 1.40193,2.851551 l -0.0879,0.05432 -0.0879,0.05432 0.0716,0.403743 0.0716,0.403744 0.0427,0.232833 0.0427,0.232833 z m 4.42838,0 H 3.93537 L 3.89007,4.000503 3.84467,3.76767 3.74083,2.667003 3.63699,1.566336 3.75753,0.97367 3.87806,0.381003 5.13023,0.357533 6.3824,0.334063 6.3381,0.48453 6.2938,0.634997 6.2392,0.943345 6.1847,1.251694 5.51507,1.355862 4.84544,1.460031 v 0.236911 0.23691 l 0.55033,0.05894 0.55034,0.05894 V 2.376331 2.70093 L 5.43359,2.75891 4.92107,2.8169 l 0.0257,0.221386 0.0257,0.221386 0.65376,0.02468 0.65376,0.02469 0.17174,0.388245 0.17174,0.388244 v 0.0739 0.0739 z m 8.41635,-0.0047 -0.84927,-0.0047 -0.47997,-0.397439 -0.47998,-0.397438 -0.0554,-0.05563 -0.0554,-0.05563 0.13015,-0.240701 0.13014,-0.240702 0.0773,-0.114979 0.0772,-0.114978 0.52214,0.284312 0.52214,0.284312 0.12338,-0.164349 0.12338,-0.164349 v -0.06044 -0.06044 l -0.6773,-0.397072 -0.67729,-0.397071 -0.0492,-0.07957 -0.0492,-0.07957 0.62064,-0.710447 0.62064,-0.710447 0.6379,-0.0063 0.63789,-0.0063 0.452,0.457691 0.45201,0.457692 -0.27857,0.346642 -0.27857,0.346641 h -0.0508 -0.0508 L 14.47947,1.735708 14.16798,1.524041 h -0.12852 -0.12851 l -0.0876,0.163767 -0.0876,0.163767 v 0.04031 0.0403 l 0.71285,0.527967 0.71285,0.527967 -0.30808,0.622628 -0.30809,0.622627 z m 5.03414,-0.03341 -0.21259,0.0427 -0.39688,-0.798938 -0.39687,-0.798938 0.13495,-0.73496 0.13496,-0.73496 0.51684,-0.41285 0.51685,-0.41285 0.34801,-0.0029 0.34802,-0.0029 0.39304,0.05387 0.39305,0.05387 0.17876,0.289247 0.17877,0.289248 -0.0308,0.02318 -0.0308,0.02318 -0.32373,0.194789 -0.32373,0.19479 -0.21234,-0.09675 -0.21234,-0.09675 -0.32429,0.09716 -0.32428,0.09716 -0.17184,0.44904 -0.17184,0.44904 0.18316,0.433525 0.18316,0.433525 0.5527,-0.05748 0.5527,-0.05748 0.0635,-0.03691 0.0635,-0.03691 V 2.873638 2.709301 h -0.381 -0.381 l 10e-4,-0.232833 0.001,-0.232833 0.0519,-0.193751 0.0519,-0.193751 0.68778,0.02442 0.68777,0.02442 0.0242,0.924094 0.0242,0.924095 -0.0708,0.07085 -0.0708,0.07085 -1.01166,0.128803 -1.01166,0.128802 z m 6.9644,0.02813 -0.0631,-0.01001 -0.41059,-0.08535 -0.41058,-0.08535 0.0592,-0.476136 0.0592,-0.476136 0.77686,-1.311882 0.77686,-1.311883 0.45137,-0.07185 0.45137,-0.07185 0.0691,0.0714 0.0691,0.0714 0.78028,1.716816 0.78029,1.716816 -0.0365,0.03652 -0.0365,0.03652 -0.61685,0.09571 -0.61684,0.09571 -0.0416,-0.0416 -0.0416,-0.0416 -0.0585,-0.410443 -0.0585,-0.410443 -0.7676,-0.02415 -0.7676,-0.02415 -0.14207,0.510983 -0.14206,0.510982 z m 1.20686,-1.852657 h 0.45567 l 0.05,-0.08094 0.05,-0.08094 -0.12538,-0.30006 -0.12537,-0.30006 h -0.2916 -0.2916 l -0.12724,0.3175 -0.12724,0.3175 0.0385,0.0635 0.0385,0.0635 z m 4.19483,1.862666 h -0.8505 l 7.6e-4,-0.105833 7.6e-4,-0.105833 0.12548,-1.058334 0.12553,-1.058333 7.6e-4,-0.148167 7.1e-4,-0.148166 H 30.21502 29.93051 L 29.53769,1.554859 29.14487,1.501019 V 0.91986 0.338702 l 1.3335,6.02e-4 1.3335,6.02e-4 0.5715,0.05397 0.5715,0.05397 v 0.675998 0.675997 l -0.4352,-0.05773 -0.43521,-0.05773 -0.24212,-0.04843 -0.24213,-0.04843 v 0.180474 0.180474 l 0.12593,0.867276 0.12593,0.867276 0.0472,0.275167 0.0472,0.275166 z m 4.05163,0 H 34.1608 L 33.81184,3.781045 33.46287,3.328724 V 1.833711 0.338699 h 0.7469 0.7469 l -0.0382,1.397 -0.0382,1.397 h 0.0835 0.0835 l 0.39903,-0.304682 0.39903,-0.304682 -0.0405,-0.105455 -0.0405,-0.105456 -0.061,-0.859863 -0.061,-0.859862 h 0.68824 0.68824 v 1.318004 1.318005 l -0.44216,0.502328 -0.44217,0.502329 z m 3.1412,0 h -0.508 V 4.051663 3.86996 l -0.13591,-1.643828 -0.13591,-1.643828 0.0357,-0.03572 0.0357,-0.03571 1.03065,-0.08949 1.03066,-0.08949 0.45448,0.343139 0.45449,0.34314 0.0558,0.600893 0.0558,0.600893 -0.31257,0.345974 -0.31256,0.345974 0.48224,0.431318 0.48225,0.431318 -0.38507,0.18708 -0.38506,0.187081 H 40.09699 39.96242 L 39.38206,3.634178 38.8017,3.119652 l -0.0761,0.04704 -0.0761,0.04704 0.0699,0.361656 0.0699,0.361657 0.004,0.148167 0.004,0.148166 z m 0.67028,-1.948381 0.21872,-0.001 0.18661,-0.288153 0.1866,-0.288153 -0.10194,-0.08122 -0.10193,-0.08122 -0.27766,-0.141041 -0.27765,-0.141042 -0.0822,0.05079 -0.0822,0.05079 V 1.76896 2.173186 l 0.0564,0.05644 0.0564,0.05644 0.21872,-10e-4 z m 3.91231,1.948381 H 41.52737 L 41.48207,4.000532 41.43677,3.767699 41.33293,2.667032 41.22909,1.566365 41.34963,0.973699 41.47016,0.381032 42.72233,0.357562 43.9745,0.334092 43.9303,0.484559 43.886,0.635026 43.8314,0.943374 43.7768,1.251723 43.10717,1.355891 42.43754,1.46006 v 0.236911 0.23691 l 0.55033,0.05894 0.55034,0.05894 V 2.37636 2.700959 l -0.51252,0.05798 -0.51252,0.05799 0.0257,0.221386 0.0257,0.221386 0.65376,0.02468 0.65376,0.02469 0.17174,0.388245 0.17174,0.388244 v 0.0739 0.0739 z m 3.48085,-8.21e-4 -0.82444,-8.21e-4 -0.381,-0.304428 -0.381,-0.304428 -0.19499,-0.154974 -0.195,-0.154974 0.21722,-0.34411 0.21723,-0.34411 h 0.0375 0.0375 l 0.44585,0.262881 0.44585,0.262882 0.12938,-0.08146 0.12937,-0.08146 0.0257,-0.130642 0.0258,-0.130642 -0.72801,-0.439739 -0.72801,-0.43974 0.10917,-0.14021 0.10918,-0.140211 0.54387,-0.613833 0.54386,-0.613833 h 0.65147 0.65147 l 0.39258,0.419706 0.39259,0.419706 v 0.07419 0.07419 l -0.2792,0.322982 -0.27919,0.322982 -0.36314,-0.240315 -0.36314,-0.240315 -0.14083,0.08868 -0.14083,0.08868 -0.0259,0.131651 -0.0259,0.131652 0.68211,0.519245 0.68211,0.519245 v 0.04064 0.04064 l -0.2974,0.590553 -0.29739,0.590553 z M 9.10004,4.132116 8.78254,4.115536 8.21104,4.085916 7.63954,4.056296 V 3.2227 2.389104 L 7.04687,1.81441 6.45421,1.239717 V 1.110709 0.981731 L 6.72584,0.701472 6.99748,0.421212 7.47505,0.893801 7.95263,1.366389 8.31987,0.916029 8.68711,0.46567 8.75211,0.38909 8.81711,0.31251 9.28663,0.667 9.75615,1.021491 v 0.06344 0.06344 L 9.16361,1.650899 8.57107,2.153427 8.62447,2.325551 8.67787,2.497674 9.04769,3.236815 9.4175,3.975957 v 0.08636 0.08636 z m 7.32336,-0.0249 -0.48714,0.05374 -0.035,-0.111963 -0.035,-0.111964 -0.0506,-1.790549 -0.0506,-1.790548 0.40333,-0.03603 0.40333,-0.03603 0.031,0.02314 0.031,0.02314 0.37054,1.761108 0.37055,1.761107 5.9e-4,0.05677 5.9e-4,0.05677 -0.23283,0.04378 -0.23283,0.04378 -0.48714,0.05374 z m 5.55552,0.04148 h -0.53871 v -0.03078 -0.03078 l 0.25533,-1.429718 0.25532,-1.429717 0.0903,-0.449029 0.0903,-0.449029 0.34728,0.02569 0.34729,0.0257 0.37162,0.613833 0.37162,0.613834 h 0.0674 0.0674 l 0.0525,-0.3175 0.0525,-0.3175 9.3e-4,-0.324942 9.3e-4,-0.324942 0.35984,0.05596 0.35983,0.05596 0.14817,0.04185 0.14816,0.04185 v 0.161899 0.1619 l -0.0864,1.292895 -0.0863,1.292895 -0.0458,0.359833 -0.0458,0.359834 H 24.14201 23.72139 L 23.3217,3.514121 22.922,2.879551 l -0.0997,-4.32e-4 -0.0997,-4.32e-4 -0.10243,0.635 -0.10244,0.635 h -0.53872 z"
     id="path83" />
  <path
     style="display:inline;fill:#0299d8;stroke-width:0.08466667"
     d="M 0.85108,4.233336 H 0.24752 L 0.30282,3.204043 0.35822,2.174751 V 1.25671 0.33867 h 0.46566 0.46567 v 0.550333 0.550333 h 0.0617 0.0617 L 1.84147,0.960206 2.27,0.481076 2.55043,0.835137 2.83085,1.189199 2.35622,1.729808 1.88159,2.270416 2.11852,2.46871 2.35544,2.667003 2.83874,2.99874 3.32204,3.330477 3.17607,3.50674 3.03011,3.683003 2.816,3.922786 2.60189,4.162569 2.00191,3.50706 1.40193,2.851551 l -0.0879,0.05432 -0.0879,0.05432 0.0716,0.403743 0.0716,0.403744 0.0427,0.232833 0.0427,0.232833 z m 30.24496,3e-5 h -0.8505 L 30.2463,4.127533 30.24706,4.0217 30.37254,2.963366 30.49807,1.905033 30.49883,1.756866 30.49954,1.6087 H 30.21502 29.93051 L 29.53769,1.55486 29.14487,1.50102 V 0.919861 0.338703 l 1.3335,6.02e-4 1.3335,6.02e-4 0.5715,0.05397 0.5715,0.05397 v 0.675998 0.675997 l -0.4352,-0.05773 -0.43521,-0.05773 -0.24212,-0.04843 -0.24213,-0.04843 V 1.767996 1.94847 l 0.12593,0.867276 0.12593,0.867276 0.0472,0.275167 0.0472,0.275166 z m 7.19283,0 h -0.508 V 4.051664 3.869961 l -0.13591,-1.643828 -0.13591,-1.643828 0.0357,-0.03572 0.0357,-0.03571 1.03065,-0.08949 1.03066,-0.08949 0.45448,0.343139 0.45449,0.34314 0.0558,0.600893 0.0558,0.600893 -0.31257,0.345974 -0.31256,0.345974 0.48224,0.431318 0.48225,0.431318 -0.38507,0.18708 -0.38506,0.187081 H 40.09699 39.96242 L 39.38206,3.634179 38.8017,3.119653 l -0.0761,0.04704 -0.0761,0.04704 0.0699,0.361656 0.0699,0.361657 0.004,0.148167 0.004,0.148166 z m 0.67028,-1.948381 0.21872,-10e-4 0.18661,-0.288153 0.1866,-0.288153 -0.10194,-0.08122 -0.10193,-0.08122 -0.27766,-0.141041 -0.27765,-0.141042 -0.0822,0.05079 -0.0822,0.05079 v 0.404225 0.404226 l 0.0564,0.05644 0.0564,0.05644 0.21872,-10e-4 z"
     id="path81" />
  <path
     style="display:inline;fill:#e2291d;stroke-width:0.08466667"
     d="m 13.69581,4.228608 -0.84927,-0.0047 -0.47997,-0.397439 -0.47998,-0.397438 -0.0554,-0.05563 -0.0554,-0.05563 0.13015,-0.240701 0.13014,-0.240702 0.0773,-0.114979 0.0772,-0.114978 0.52214,0.284312 0.52214,0.284312 0.12338,-0.164349 0.12338,-0.164349 v -0.06044 -0.06044 l -0.6773,-0.397072 -0.67729,-0.397071 -0.0492,-0.07957 -0.0492,-0.07957 0.62064,-0.710447 0.62064,-0.710447 0.6379,-0.0063 0.63789,-0.0063 0.452,0.457691 0.45201,0.457692 -0.27857,0.346642 -0.27857,0.346641 h -0.0508 -0.0508 L 14.47947,1.73568 14.16798,1.524013 h -0.12852 -0.12851 l -0.0876,0.163767 -0.0876,0.163767 v 0.04031 0.0403 l 0.71285,0.527967 0.71285,0.527967 -0.30808,0.622628 -0.30809,0.622627 z m 5.03414,-0.03341 -0.21259,0.0427 -0.39688,-0.798938 -0.39687,-0.798938 0.13495,-0.73496 0.13496,-0.73496 0.51684,-0.41285 0.51685,-0.41285 0.34801,-0.0029 0.34802,-0.0029 0.39304,0.05387 0.39305,0.05387 0.17876,0.289247 0.17877,0.289248 -0.0308,0.02318 -0.0308,0.02318 -0.32373,0.194789 -0.32373,0.19479 -0.21234,-0.09675 -0.21234,-0.09675 -0.32429,0.09716 -0.32428,0.09716 -0.17184,0.44904 -0.17184,0.44904 0.18316,0.433525 0.18316,0.433525 0.5527,-0.05748 0.5527,-0.05748 0.0635,-0.03691 0.0635,-0.03691 V 2.87361 2.709273 h -0.381 -0.381 l 10e-4,-0.232833 0.001,-0.232833 0.0519,-0.193751 0.0519,-0.193751 0.68778,0.02442 0.68777,0.02442 0.0242,0.924094 0.0242,0.924095 -0.0708,0.07085 -0.0708,0.07085 -1.01166,0.128803 -1.01166,0.128802 z m 16.41772,0.03814 H 34.1608 L 33.81184,3.781018 33.46287,3.328697 V 1.833684 0.338672 h 0.7469 0.7469 l -0.0382,1.397 -0.0382,1.397 h 0.0835 0.0835 l 0.39903,-0.304682 0.39903,-0.304682 -0.0405,-0.105455 -0.0405,-0.105456 -0.061,-0.859863 -0.061,-0.859862 h 0.68824 0.68824 v 1.318004 1.318005 l -0.44216,0.502328 -0.44217,0.502329 z m 11.20464,-8.21e-4 -0.82444,-8.21e-4 -0.381,-0.304428 -0.381,-0.304428 -0.19499,-0.154974 -0.195,-0.154974 0.21722,-0.34411 0.21723,-0.34411 h 0.0375 0.0375 l 0.44585,0.262881 0.44585,0.262882 0.12938,-0.08146 0.12937,-0.08146 0.0257,-0.130642 0.0258,-0.130642 -0.72801,-0.439739 -0.72801,-0.43974 0.10917,-0.14021 0.10918,-0.140211 0.54387,-0.613833 0.54386,-0.613833 h 0.65147 0.65147 l 0.39258,0.419706 0.39259,0.419706 v 0.07419 0.07419 l -0.2792,0.322982 -0.27919,0.322982 -0.36314,-0.240315 -0.36314,-0.240315 -0.14083,0.08868 -0.14083,0.08868 -0.0259,0.131651 -0.0259,0.131652 0.68211,0.519245 0.68211,0.519245 v 0.04064 0.04064 L 47.47414,3.642777 47.17675,4.23333 Z M 9.10004,4.132089 8.78254,4.115509 8.21104,4.085889 7.63954,4.056269 V 3.222673 2.389077 L 7.04687,1.814383 6.45421,1.23969 V 1.110709 0.981731 L 6.72584,0.701472 6.99748,0.421212 7.47505,0.893801 7.95263,1.366389 8.31987,0.916029 8.68711,0.46567 8.75211,0.38909 8.81711,0.31251 9.28663,0.667 9.75615,1.021491 v 0.06344 0.06344 L 9.16361,1.650899 8.57107,2.153427 8.62447,2.325551 8.67787,2.497674 9.04769,3.236815 9.4175,3.975957 v 0.08636 0.08636 z m 12.87888,0.01658 h -0.53871 v -0.03078 -0.03078 l 0.25533,-1.429718 0.25532,-1.429717 0.0903,-0.449029 0.0903,-0.449029 0.34728,0.02569 0.34729,0.0257 0.37162,0.613833 0.37162,0.613834 h 0.0674 0.0674 l 0.0525,-0.3175 0.0525,-0.3175 9.3e-4,-0.324942 9.3e-4,-0.324942 0.35984,0.05596 0.35983,0.05596 0.14817,0.04185 0.14816,0.04185 v 0.161899 0.1619 l -0.0864,1.292895 -0.0863,1.292895 -0.0458,0.359833 -0.0458,0.359834 H 24.14201 23.72139 L 23.3217,3.514094 22.922,2.879524 22.8223,2.879092 22.7226,2.87866 l -0.10243,0.635 -0.10244,0.635 h -0.53872 z"
     id="path79" />
  <path
     style="display:inline;fill:#45ac35;stroke-width:0.08466667"
     d="m 13.69581,4.228608 -0.84927,-0.0047 -0.47997,-0.397439 -0.47998,-0.397438 -0.0554,-0.05563 -0.0554,-0.05563 0.13015,-0.240701 0.13014,-0.240702 0.0773,-0.114979 0.0772,-0.114978 0.52214,0.284312 0.52214,0.284312 0.12338,-0.164349 0.12338,-0.164349 v -0.06044 -0.06044 l -0.6773,-0.397072 -0.67729,-0.397071 -0.0492,-0.07957 -0.0492,-0.07957 0.62064,-0.710447 0.62064,-0.710447 0.6379,-0.0063 0.63789,-0.0063 0.452,0.457691 0.45201,0.457692 -0.27857,0.346642 -0.27857,0.346641 h -0.0508 -0.0508 L 14.47947,1.73568 14.16798,1.524013 h -0.12852 -0.12851 l -0.0876,0.163767 -0.0876,0.163767 v 0.04031 0.0403 l 0.71285,0.527967 0.71285,0.527967 -0.30808,0.622628 -0.30809,0.622627 z m 21.45186,0.0047 H 34.1608 L 33.81184,3.780988 33.46287,3.328667 V 1.833654 0.338642 h 0.7469 0.7469 l -0.0382,1.397 -0.0382,1.397 h 0.0835 0.0835 l 0.39903,-0.304682 0.39903,-0.304682 -0.0405,-0.105455 -0.0405,-0.105456 -0.061,-0.859863 -0.061,-0.859862 h 0.68824 0.68824 V 1.910646 3.228651 L 36.57665,3.730979 36.13448,4.233308 Z M 21.97892,4.148638 h -0.53871 v -0.03078 -0.03078 l 0.25533,-1.429718 0.25532,-1.429717 0.0903,-0.449029 0.0903,-0.449029 0.34728,0.02569 0.34729,0.0257 0.37162,0.613833 0.37162,0.613834 h 0.0674 0.0674 l 0.0525,-0.3175 0.0525,-0.3175 9.3e-4,-0.324942 9.3e-4,-0.324942 0.35984,0.05596 0.35983,0.05596 0.14817,0.04185 0.14816,0.04185 v 0.161899 0.1619 l -0.0864,1.292895 -0.0863,1.292895 -0.0458,0.359833 -0.0458,0.359834 H 24.14201 23.72139 L 23.3217,3.514063 22.922,2.879493 l -0.0997,-4.32e-4 -0.0997,-4.32e-4 -0.10243,0.635 -0.10244,0.635 h -0.53872 z"
     id="path77" />
</svg>
