<?xml version="1.0" encoding="UTF-8" standalone="no"?>
<!-- Created with Inkscape (http://www.inkscape.org/) -->

<svg
   xmlns:dc="http://purl.org/dc/elements/1.1/"
   xmlns:cc="http://creativecommons.org/ns#"
   xmlns:rdf="http://www.w3.org/1999/02/22-rdf-syntax-ns#"
   xmlns:svg="http://www.w3.org/2000/svg"
   xmlns="http://www.w3.org/2000/svg"
   xmlns:sodipodi="http://sodipodi.sourceforge.net/DTD/sodipodi-0.dtd"
   xmlns:inkscape="http://www.inkscape.org/namespaces/inkscape"
   width="210mm"
   height="297mm"
   viewBox="0 0 210 297"
   version="1.1"
   id="svg6152"
   inkscape:version="0.92.4 (unknown)"
   sodipodi:docname="m2.svg">
  <defs
     id="defs6146" />
  <sodipodi:namedview
     id="base"
     pagecolor="#ffffff"
     bordercolor="#666666"
     borderopacity="1.0"
     inkscape:pageopacity="0.0"
     inkscape:pageshadow="2"
     inkscape:zoom="1.979899"
     inkscape:cx="425.75889"
     inkscape:cy="479.1878"
     inkscape:document-units="mm"
     inkscape:current-layer="g6345"
     showgrid="false"
     inkscape:window-width="1366"
     inkscape:window-height="703"
     inkscape:window-x="0"
     inkscape:window-y="0"
     inkscape:window-maximized="1" />
  <metadata
     id="metadata6149">
    <rdf:RDF>
      <cc:Work
         rdf:about="">
        <dc:format>image/svg+xml</dc:format>
        <dc:type
           rdf:resource="http://purl.org/dc/dcmitype/StillImage" />
        <dc:title />
      </cc:Work>
    </rdf:RDF>
  </metadata>
  <g
     inkscape:label="Layer 1"
     inkscape:groupmode="layer"
     id="layer1">
    <g
       transform="translate(100.93855,140.49896)"
       id="g6345">
      <path
         style="fill:#dfa03f;fill-opacity:1"
         d="M 19,5.5 V 5 h 0.5 q 0.5,0 1,0 H 21 v 0.5 q 0,0.5 0,1 V 7 H 20.5 Q 20,7 19.5,7 H 19 V 6.5 Q 19,6 19,5.5 M 18.875,7 H 19 19.375 19.75 19.5 Q 19.25,7 19,7 h -0.25 0.125 m 1.75,0 H 21 21.125 21.25 21 q -0.25,0 -0.5,0 h -0.25 0.375 M 21,5.375 V 5 4.875 4.75 5 q 0,0.25 0,0.5 V 5.75 5.375 M 19.375,5 H 19 18.875 18.75 19 q 0.25,0 0.5,0 h 0.25 -0.375"
         id="path6233"
         inkscape:connector-curvature="0" />
      <path
         id="path6265"
         style="fill:#ff706f;fill-opacity:1"
         d="M 19,21.5 V 21 h 0.5 q 0.5,0 1,0 H 21 20.625 20.25 20.5 q 0.25,0 0.375,-0.125 L 21,20.75 20.9375,20.8125 20.875,20.875 21.4375,20.9375 Q 22,21 22.375,21.125 q 0.375,0.125 0.5,0.5 Q 23,22 23,22.5 q 0,0.5 0.125,0.875 0.125,0.375 0.5,0.5 Q 24,24 24.5,24 q 0.5,0 1,0 0.5,0 1,0 0.5,0 1,0 0.5,0 1,0 0.5,0 1,0 H 30 v 0.5 q 0,0.5 0,1 V 26 h -0.5 q -0.5,0 -1,0 -0.5,0 -1,0 -0.5,0 -1,0 -0.5,0 -1,0 -0.5,0 -1,0 -0.5,0 -1,0 -0.5,0 -1,0 -0.5,0 -1,0 H 21 V 25.5 Q 21,25 20.875,24.625 20.75,24.25 20.375,24.125 20,24 19.5,24 H 19 v -0.5 q 0,-0.5 0,-1 0,-0.5 0,-1 M 20.875,26 H 21 21.375 21.75 21.5 q -0.25,0 -0.5,0 h -0.25 0.125 m 8.75,0 H 30 30.125 30.25 30 q -0.25,0 -0.5,0 h -0.25 0.375 M 30,24.375 V 24 23.875 23.75 24 q 0,0.25 0,0.5 v 0.25 -0.375 M 2,17.5 V 17 h 0.5 q 0.5,0 1,0 0.5,0 1,0 H 5 v 0.5 q 0,0.5 0,1 V 19 H 4.5 Q 4,19 3.5,19 3,19 2.625,19.125 2.25,19.25 2.125,19.625 2,20 2,20.5 q 0,0.5 0,1 0,0.5 0,1 0,0.5 0.125,0.875 0.125,0.375 0.5,0.5 Q 3,24 3.5,24 4,24 4.375,23.875 4.75,23.75 4.875,23.375 5,23 5,22.5 5,22 5,21.5 V 21 h 0.5 q 0.5,0 1,0 H 7 v 0.5 q 0,0.5 0,1 0,0.5 0.125,0.875 0.125,0.375 0.5,0.5 Q 8,24 8.375,24.125 8.75,24.25 8.875,24.625 9,25 9.125,25.375 9.25,25.75 9.625,25.875 10,26 10.5,26 q 0.5,0 1,0 H 12 11.625 11.25 11.5 q 0.25,0 0.375,-0.125 L 12,25.75 11.9375,25.8125 11.875,25.875 12.4375,25.9375 Q 13,26 13.5625,26.0625 L 14.125,26.125 14.1875,26.0625 14.25,26 14.125,26.125 Q 14,26.25 14,26.5 V 26.75 26.375 26 26.5 q 0,0.5 0,1 V 28 27.625 27.25 27.5 q 0,0.25 0.125,0.375 L 14.25,28 14.1875,27.9375 14.125,27.875 14.0625,28.4375 Q 14,29 14.125,29.375 q 0.125,0.375 0.5,0.5 Q 15,30 15.5,30 q 0.5,0 1,0 0.5,0 1,0 0.5,0 1.0625,-0.0625 L 19.125,29.875 19.0625,29.8125 19,29.75 19.125,29.875 Q 19.25,30 19.5,30 H 19.75 19.375 19 19.5 q 0.5,0 1,0 0.5,0 1,0 0.5,0 1,0 0.5,0 1,0 0.5,0 1,0 0.5,0 1,0 H 26 v 0.5 q 0,0.5 0,1 0,0.5 -0.125,0.875 -0.125,0.375 -0.5,0.5 Q 25,33 24.5,33 q -0.5,0 -1,0 -0.5,0 -1,0 -0.5,0 -1,0 -0.5,0 -1,0 -0.5,0 -1,0 -0.5,0 -1,0 -0.5,0 -1,0 -0.5,0 -1,0 -0.5,0 -1,0 -0.5,0 -1,0 -0.5,0 -1,0 -0.5,0 -1,0 H 12 v -0.5 q 0,-0.5 0,-1 0,-0.5 -0.125,-0.875 -0.125,-0.375 -0.5,-0.5 Q 11,30 10.5,30 10,30 9.5,30 H 9 V 29.5 Q 9,29 8.875,28.625 8.75,28.25 8.375,28.125 8,28 7.625,27.875 7.25,27.75 7.125,27.375 7,27 6.875,26.625 6.75,26.25 6.375,26.125 6,26 5.5,26 5,26 4.5,26 4,26 3.5,26 3,26 2.5,26 H 2 V 25.5 Q 2,25 1.875,24.625 1.75,24.25 1.375,24.125 1,24 0.5,24 H 0 V 23.5 23 22.5 22 21.5 21 20.5 20 19.5 19 H 0.5 Q 1,19 1.375,18.875 1.75,18.75 1.875,18.375 2,18 2,17.5 m 0,8.125 V 26 26.125 26.25 26 q 0,-0.25 0,-0.5 v -0.25 0.375 m 7,4 V 30 30.125 30.25 30 q 0,-0.25 0,-0.5 v -0.25 0.375 M 11.875,33 H 12 12.375 12.75 12.5 q -0.25,0 -0.5,0 h -0.25 0.125 m 14.25,-3 H 26 25.625 25.25 25.5 q 0.25,0 0.5,0 h 0.25 -0.125 M 7,21.375 V 21 20.875 20.75 21 q 0,0.25 0,0.5 v 0.25 -0.375 m -2,-0.5 V 21 21.375 21.75 21.5 Q 5,21.25 5,21 v -0.25 0.125 m 0,-1.75 V 19 18.625 18.25 18.5 q 0,0.25 0,0.5 v 0.25 -0.125 M 2,16.875 V 17 17.375 17.75 17.5 Q 2,17.25 2,17 v -0.25 0.125 M 21,14.5 V 14 h 0.5 q 0.5,0 1,0 H 23 v 0.5 q 0,0.5 0,1 0,0.5 0,1 V 17 h -0.5 q -0.5,0 -1,0 H 21 v -0.5 q 0,-0.5 0,-1 0,-0.5 0,-1 M 23.125,14 H 23 22.625 22.25 22.5 q 0.25,0 0.5,0 h 0.25 -0.125 m -1.75,0 H 21 20.875 20.75 21 q 0.25,0 0.5,0 h 0.25 -0.375 m -7.25,0.625 q 0.125,-0.375 0.5,-0.5 Q 15,14 15.5,14 H 16 v 0.5 q 0,0.5 0,1 0,0.5 0,1 0,0.5 0,1 0,0.5 0,1 V 19 h -0.5 q -0.5,0 -0.875,0.125 -0.375,0.125 -0.5,0.5 Q 14,20 13.9375,20.5625 L 13.875,21.125 13.9375,21.1875 14,21.25 13.875,21.125 Q 13.75,21 13.5,21 H 13.25 13.625 14 13.5 Q 13,21 12.625,20.875 12.25,20.75 12.125,20.375 12,20 12,19.5 q 0,-0.5 0,-1 0,-0.5 0.125,-0.875 0.125,-0.375 0.5,-0.5 Q 13,17 13.375,16.875 13.75,16.75 13.875,16.375 14,16 14,15.5 14,15 14.125,14.625 M 16,19.125 V 19 18.625 18.25 18.5 q 0,0.25 0,0.5 v 0.25 -0.125 M 16.125,14 H 16 15.625 15.25 15.5 q 0.25,0 0.5,0 h 0.25 -0.125"
         inkscape:connector-curvature="0" />
      <path
         id="path6275"
         style="fill:#ffd0c0;fill-opacity:1"
         d="M 14.0625,28.4375 14.125,27.875 14.0625,27.8125 14,27.75 14.125,27.875 Q 14.25,28 14.5,28 H 14.75 14.375 14 14.5 q 0.5,0 1,0 0.5,0 1,0 0.5,0 1,0 0.5,0 0.875,0.125 0.375,0.125 0.5,0.5 Q 19,29 19,29.5 V 30 29.625 29.25 29.5 q 0,0.25 0.125,0.375 L 19.25,30 19.1875,29.9375 19.125,29.875 18.5625,29.9375 Q 18,30 17.5,30 q -0.5,0 -1,0 -0.5,0 -1,0 -0.5,0 -0.875,-0.125 -0.375,-0.125 -0.5,-0.5 Q 14,29 14.0625,28.4375 M 14.125,19.625 q 0.125,-0.375 0.5,-0.5 Q 15,19 15.5,19 H 16 v 0.5 q 0,0.5 0.125,0.875 0.125,0.375 0.5,0.5 Q 17,21 17.5,21 q 0.5,0 1,0 H 19 v 0.5 q 0,0.5 0,1 0,0.5 0,1 V 24 h -0.5 q -0.5,0 -1,0 -0.5,0 -0.875,0.125 -0.375,0.125 -0.5,0.5 Q 16,25 15.875,25.375 15.75,25.75 15.375,25.875 15,26 14.5,26 H 14 14.375 14.75 14.5 q -0.25,0 -0.375,0.125 L 14,26.25 14.0625,26.1875 14.125,26.125 13.5625,26.0625 Q 13,26 12.4375,25.9375 L 11.875,25.875 11.8125,25.9375 11.75,26 11.875,25.875 Q 12,25.75 12,25.5 V 25.25 25.625 26 25.5 q 0,-0.5 0.125,-0.875 0.125,-0.375 0.5,-0.5 Q 13,24 13.375,23.875 13.75,23.75 13.875,23.375 14,23 14,22.5 14,22 14,21.5 V 21 21.375 21.75 21.5 q 0,-0.25 -0.125,-0.375 L 13.75,21 l 0.0625,0.0625 0.0625,0.0625 0.0625,-0.5625 Q 14,20 14.125,19.625 M 16,19.375 V 19 18.875 18.75 19 q 0,0.25 0,0.5 v 0.25 -0.375 M 21,17.5 V 17 h 0.5 q 0.5,0 1,0 H 23 v 0.5 q 0,0.5 0,1 0,0.5 0,1 0,0.5 0.125,0.875 0.125,0.375 0.5,0.5 Q 24,21 24.5,21 q 0.5,0 1,0 H 26 25.625 25.25 25.5 q 0.25,0 0.375,-0.125 L 26,20.75 25.9375,20.8125 25.875,20.875 26.4375,20.9375 Q 27,21 27.375,20.875 27.75,20.75 27.875,20.375 28,20 28.125,19.625 28.25,19.25 28.625,19.125 29,19 29.5625,19.0625 L 30.125,19.125 30.1875,19.0625 30.25,19 30.125,19.125 Q 30,19.25 30,19.5 V 19.75 19.375 19 19.5 q 0,0.5 0,1 0,0.5 0,1 0,0.5 0,1 0,0.5 0,1 V 24 h -0.5 q -0.5,0 -1,0 -0.5,0 -1,0 -0.5,0 -1,0 -0.5,0 -1,0 -0.5,0 -1,0 -0.5,0 -0.875,-0.125 -0.375,-0.125 -0.5,-0.5 Q 23,23 23,22.5 23,22 22.875,21.625 22.75,21.25 22.375,21.125 22,21 21.4375,20.9375 L 20.875,20.875 20.8125,20.9375 20.75,21 20.875,20.875 Q 21,20.75 21,20.5 V 20.25 20.625 21 20.5 q 0,-0.5 0,-1 0,-0.5 0,-1 0,-0.5 0,-1 m 9,6.625 V 24 23.625 23.25 23.5 q 0,0.25 0,0.5 v 0.25 -0.125 M 5,17.5 V 17 h 0.5 q 0.5,0 1,0 0.5,0 0.5,0.5 0,0.5 0,1 0,0.5 0,1 0,0.5 0,1 V 21 H 6.5 Q 6,21 5.5,21 H 5 v -0.5 q 0,-0.5 0,-1 0,-0.5 0,-1 0,-0.5 0,-1 m 0,3.125 V 21 21.125 21.25 21 q 0,-0.25 0,-0.5 v -0.25 0.375 m 2,0.5 V 21 20.625 20.25 20.5 q 0,0.25 0,0.5 v 0.25 -0.125"
         inkscape:connector-curvature="0" />
      <path
         id="path6295"
         style="fill:#ff4070;fill-opacity:1"
         d="m 19,35.5 q 0,-0.5 0.5,-0.5 0.5,0 1,0 0.5,0 1,0 0.5,0 1,0 H 23 v 0.5 q 0,0.5 0,1 V 37 h -0.5 q -0.5,0 -1,0 -0.5,0 -1,0 -0.5,0 -1,0 -0.5,0 -0.5,-0.5 0,-0.5 0,-1 M 22.625,37 H 23 23.125 23.25 23 q -0.25,0 -0.5,0 h -0.25 0.375 m 0.5,-2 H 23 22.625 22.25 22.5 q 0.25,0 0.5,0 h 0.25 -0.125 m -18,0.625 Q 5.25,35.25 5.625,35.125 6,35 6.5,35 q 0.5,0 1,0 0.5,0 1,0 0.5,0 1,0 0.5,0 1,0 0.5,0 1,0 0.5,0 1,0 0.5,0 1,0 H 14 v 0.5 q 0,0.5 0,1 V 37 h -0.5 q -0.5,0 -1,0 -0.5,0 -1,0 -0.5,0 -1,0 -0.5,0 -1,0 -0.5,0 -1,0 -0.5,0 -1,0 -0.5,0 -1,0 -0.5,0 -1,0 H 5 V 36.5 Q 5,36 5.125,35.625 M 5,36.625 V 37 37.125 37.25 37 q 0,-0.25 0,-0.5 v -0.25 0.375 M 13.625,37 H 14 14.125 14.25 14 q -0.25,0 -0.5,0 h -0.25 0.375 m 0.5,-2 H 14 13.625 13.25 13.5 q 0.25,0 0.5,0 h 0.25 -0.125 M 23,3.5 V 3 h 0.5 q 0.5,0 1,0 0.5,0 1,0 0.5,0 1,0 0.5,0 0.875,0.125 0.375,0.125 0.5,0.5 Q 28,4 28,4.5 V 5 H 27.5 Q 27,5 26.4375,5.0625 L 25.875,5.125 25.9375,5.1875 26,5.25 25.875,5.125 Q 25.75,5 25.5,5 H 25.25 25.625 26 25.5 Q 25,5 24.5,5 24,5 23.5,5 H 23 V 4.5 q 0,-0.5 0,-1 m 0,1.125 V 5 5.125 5.25 5 Q 23,4.75 23,4.5 V 4.25 4.625 m 5,0.5 V 5 4.625 4.25 4.5 Q 28,4.75 28,5 V 5.25 5.125 M 23.375,3 H 23 22.875 22.75 23 q 0.25,0 0.5,0 h 0.25 -0.375 m -7.25,0.625 Q 16.25,3.25 16.625,3.125 17,3 17.5,3 q 0.5,0 1,0 0.5,0 1,0 0.5,0 1,0 H 21 v 0.5 q 0,0.5 0,1 V 5 H 20.5 Q 20,5 19.5,5 19,5 18.5,5 18,5 17.5,5 17,5 16.625,5.125 16.25,5.25 16.125,5.625 16,6 15.875,6.375 15.75,6.75 15.375,6.875 15,7 14.5,7 14,7 13.5,7 13,7 12.625,7.125 12.25,7.25 12.125,7.625 12,8 12,8.5 12,9 11.875,9.375 11.75,9.75 11.375,9.875 11,10 10.5,10 10,10 9.625,10.125 9.25,10.25 9.125,10.625 9,11 8.875,11.375 8.75,11.75 8.375,11.875 8,12 7.5,12 H 7 V 11.5 Q 7,11 7.125,10.625 7.25,10.25 7.625,10.125 8,10 8.375,9.875 8.75,9.75 8.875,9.375 9,9 9,8.5 9,8 9.125,7.625 9.25,7.25 9.625,7.125 10,7 10.5,7 11,7 11.375,6.875 11.75,6.75 11.875,6.375 12,6 12.125,5.625 12.25,5.25 12.625,5.125 13,5 13.5,5 14,5 14.5,5 15,5 15.375,4.875 15.75,4.75 15.875,4.375 16,4 16.125,3.625 M 6.875,12 H 7 7.375 7.75 7.5 Q 7.25,12 7,12 H 6.75 6.875 M 21,5.125 V 5 4.625 4.25 4.5 Q 21,4.75 21,5 V 5.25 5.125 M 21.125,3 H 21 20.625 20.25 20.5 q 0.25,0 0.5,0 h 0.25 -0.125"
         inkscape:connector-curvature="0" />
      <path
         id="path6307"
         style="fill:#b02860;fill-opacity:1"
         d="M 21,37.5 V 37 h 0.5 q 0.5,0 1,0 0.5,0 1,0 0.5,0 1,0 0.5,0 1,0 H 26 v 0.5 q 0,0.5 0,1 0,0.5 0,1 V 40 h -0.5 q -0.5,0 -1,0 -0.5,0 -1.0625,0.0625 L 22.875,40.125 22.9375,40.1875 23,40.25 22.875,40.125 Q 22.75,40 22.5,40 H 22.25 22.625 23 22.5 q -0.5,0 -1,0 H 21 v -0.5 q 0,-0.5 0,-1 0,-0.5 0,-1 M 20.875,40 H 21 21.375 21.75 21.5 q -0.25,0 -0.5,0 h -0.25 0.125 m 4.75,0 H 26 26.125 26.25 26 q -0.25,0 -0.5,0 h -0.25 0.375 m -4.25,-3 H 21 20.875 20.75 21 q 0.25,0 0.5,0 h 0.25 -0.375 M 12,37.5 V 37 h 0.5 q 0.5,0 1,0 0.5,0 1,0 0.5,0 1,0 H 16 v 0.5 q 0,0.5 0,1 0,0.5 0,1 V 40 h -0.5 q -0.5,0 -1,0 -0.5,0 -1,0 -0.5,0 -0.875,-0.125 -0.375,-0.125 -0.5,-0.5 Q 12,39 12,38.5 12,38 12,37.5 M 15.625,40 H 16 16.125 16.25 16 q -0.25,0 -0.5,0 h -0.25 0.375 m 0.5,-3 H 16 15.625 15.25 15.5 q 0.25,0 0.5,0 h 0.25 -0.125 m -3.75,0 H 12 11.875 11.75 12 q 0.25,0 0.5,0 h 0.25 -0.375 M 2.125,33.625 Q 2.25,33.25 2.625,33.125 3,33 3.5,33 q 0.5,0 1,0 0.5,0 1,0 0.5,0 1,0 0.5,0 1,0 0.5,0 1,0 0.5,0 1,0 0.5,0 1,0 0.5,0 1,0 0.5,0 1,0 0.5,0 1,0 0.5,0 1,0 0.5,0 1,0 H 16 v 0.5 q 0,0.5 0,1 V 35 h -0.5 q -0.5,0 -1,0 -0.5,0 -1,0 -0.5,0 -1,0 -0.5,0 -1,0 -0.5,0 -1,0 -0.5,0 -1,0 Q 9,35 8.5,35 8,35 7.5,35 7,35 6.5,35 6,35 5.625,35.125 5.25,35.25 5.125,35.625 5,36 5,36.5 q 0,0.5 0,1 0,0.5 0,1 0,0.5 -0.125,0.875 -0.125,0.375 -0.5,0.5 Q 4,40 3.5,40 3,40 2.5,40 H 2 V 39.5 Q 2,39 2,38.5 2,38 2,37.5 2,37 2,36.5 2,36 2,35.5 2,35 2,34.5 2,34 2.125,33.625 M 2,39.625 V 40 40.125 40.25 40 q 0,-0.25 0,-0.5 v -0.25 0.375 M 15.625,35 H 16 16.125 16.25 16 q -0.25,0 -0.5,0 h -0.25 0.375 m 0.5,-2 H 16 15.625 15.25 15.5 q 0.25,0 0.5,0 h 0.25 -0.125 M 26,5.5 V 5 5.375 5.75 5.5 Q 26,5.25 25.875,5.125 L 25.75,5 25.8125,5.0625 25.875,5.125 26.4375,5.0625 Q 27,5 27.5,5 H 28 v 0.5 q 0,0.5 0,1 V 7 H 27.5 Q 27,7 26.4375,6.9375 L 25.875,6.875 25.8125,6.9375 25.75,7 25.875,6.875 Q 26,6.75 26,6.5 V 6.25 6.625 7 6.5 Q 26,6 26,5.5 M 27.625,7 H 28 28.125 28.25 28 q -0.25,0 -0.5,0 h -0.25 0.375 M 28,5.375 V 5 4.875 4.75 5 q 0,0.25 0,0.5 V 5.75 5.375 M 16.125,5.625 Q 16.25,5.25 16.625,5.125 17,5 17.5,5 18,5 18.5,5 H 19 v 0.5 q 0,0.5 0,1 V 7 H 18.5 Q 18,7 17.5,7 17,7 16.625,7.125 16.25,7.25 16.125,7.625 16,8 16,8.5 16,9 15.875,9.375 15.75,9.75 15.375,9.875 15,10 14.5,10 q -0.5,0 -1,0 -0.5,0 -0.875,0.125 -0.375,0.125 -0.5,0.5 Q 12,11 11.875,11.375 11.75,11.75 11.375,11.875 11,12 10.5,12 10,12 9.625,12.125 9.25,12.25 9.125,12.625 9,13 9,13.5 q 0,0.5 0,1 0,0.5 0,1 0,0.5 -0.125,0.875 -0.125,0.375 -0.5,0.5 Q 8,17 7.4375,17.0625 L 6.875,17.125 6.9375,17.1875 7,17.25 6.875,17.125 Q 6.75,17 6.5,17 H 6.25 6.625 7 6.5 Q 6,17 5.5,17 H 5 V 16.5 Q 5,16 5,15.5 5,15 5,14.5 5,14 5,13.5 5,13 5.125,12.625 5.25,12.25 5.625,12.125 6,12 6.5,12 7,12 7.5,12 8,12 8.375,11.875 8.75,11.75 8.875,11.375 9,11 9.125,10.625 9.25,10.25 9.625,10.125 10,10 10.5,10 11,10 11.375,9.875 11.75,9.75 11.875,9.375 12,9 12,8.5 12,8 12.125,7.625 12.25,7.25 12.625,7.125 13,7 13.5,7 14,7 14.5,7 15,7 15.375,6.875 15.75,6.75 15.875,6.375 16,6 16.125,5.625 M 18.625,7 H 19 19.125 19.25 19 q -0.25,0 -0.5,0 h -0.25 0.375 m 0.5,-2 H 19 18.625 18.25 18.5 q 0.25,0 0.5,0 h 0.25 -0.125"
         inkscape:connector-curvature="0" />
      <path
         id="path6315"
         style="fill:#80d8cf;fill-opacity:1"
         d="M 19,40.5 V 40 h 0.5 q 0.5,0 1,0 0.5,0 1,0 0.5,0 1,0 0.5,0 0.5,0.5 0,0.5 0.125,0.875 0.125,0.375 0.5,0.5 Q 24,42 24.5,42 q 0.5,0 1,0 0.5,0 1,0 0.5,0 0.875,-0.125 0.375,-0.125 0.5,-0.5 Q 28,41 28,40.5 V 40 h 0.5 q 0.5,0 0.875,0.125 0.375,0.125 0.5,0.5 Q 30,41 30,41.5 V 42 h -0.5 q -0.5,0 -0.875,0.125 -0.375,0.125 -0.5,0.5 Q 28,43 28.0625,43.5625 L 28.125,44.125 28.1875,44.0625 28.25,44 28.125,44.125 Q 28,44.25 28,44.5 V 44.75 44.375 44 44.5 q 0,0.5 0,1 0,0.5 -0.125,0.875 -0.125,0.375 -0.5,0.5 Q 27,47 26.625,47.125 26.25,47.25 26.125,47.625 26,48 25.875,48.375 25.75,48.75 25.375,48.875 25,49 24.5,49 24,49 23.625,49.125 23.25,49.25 23.125,49.625 23,50 23,50.5 V 51 h -0.5 q -0.5,0 -1,0 -0.5,0 -1,0 -0.5,0 -1,0 -0.5,0 -1,0 -0.5,0 -1,0 -0.5,0 -0.875,-0.125 -0.375,-0.125 -0.5,-0.5 Q 16,50 15.875,49.625 15.75,49.25 15.375,49.125 15,49 14.5,49 H 14 v -0.5 q 0,-0.5 0.125,-0.875 0.125,-0.375 0.5,-0.5 Q 15,47 15.375,46.875 15.75,46.75 15.875,46.375 16,46 16,45.5 q 0,-0.5 0,-1 0,-0.5 0,-1 0,-0.5 0,-1 V 42 h 0.5 q 0.5,0 1,0 0.5,0 0.875,-0.125 0.375,-0.125 0.5,-0.5 Q 19,41 19,40.5 M 16.375,42 H 16 15.875 15.75 16 q 0.25,0 0.5,0 h 0.25 -0.375 m -2.5,7 H 14 14.375 14.75 14.5 q -0.25,0 -0.5,0 h -0.25 0.125 M 21.5,47 q 0.5,0 0.875,-0.125 0.375,-0.125 0.5,-0.5 Q 23,46 23,45.5 q 0,-0.5 0,-1 0,-0.5 0,-1 0,-0.5 -0.125,-0.875 -0.125,-0.375 -0.5,-0.5 Q 22,42 21.5,42 q -0.5,0 -1,0 -0.5,0 -0.875,0.125 -0.375,0.125 -0.5,0.5 Q 19,43 19,43.5 q 0,0.5 0,1 0,0.5 0,1 0,0.5 0.125,0.875 0.125,0.375 0.5,0.5 Q 20,47 20.5,47 q 0.5,0 1,0 M 23,51.125 V 51 50.625 50.25 50.5 q 0,0.25 0,0.5 v 0.25 -0.125 M 19.375,40 H 19 18.875 18.75 19 q 0.25,0 0.5,0 h 0.25 -0.375"
         inkscape:connector-curvature="0" />
      <path
         id="path6317"
         style="fill:#500000;fill-opacity:1"
         d="M 23,40.5 V 40 40.375 40.75 40.5 q 0,-0.25 -0.125,-0.375 L 22.75,40 l 0.0625,0.0625 0.0625,0.0625 0.5625,-0.0625 Q 24,40 24.5,40 q 0.5,0 1,0 0.5,0 1,0 0.5,0 1,0 H 28 v 0.5 q 0,0.5 -0.125,0.875 -0.125,0.375 -0.5,0.5 Q 27,42 26.5,42 q -0.5,0 -1,0 -0.5,0 -1,0 -0.5,0 -0.875,-0.125 -0.375,-0.125 -0.5,-0.5 Q 23,41 23,40.5 m -9,0 V 40 h 0.5 q 0.5,0 1,0 0.5,0 1,0 0.5,0 1,0 0.5,0 1,0 H 19 v 0.5 q 0,0.5 -0.125,0.875 -0.125,0.375 -0.5,0.5 Q 18,42 17.5,42 q -0.5,0 -1,0 -0.5,0 -1,0 -0.5,0 -0.875,-0.125 -0.375,-0.125 -0.5,-0.5 Q 14,41 14,40.5 M 19.125,40 H 19 18.625 18.25 18.5 q 0.25,0 0.5,0 h 0.25 -0.125 m -4.75,0 H 14 13.875 13.75 14 q 0.25,0 0.5,0 h 0.25 -0.375 M 16,33.5 V 33 h 0.5 q 0.5,0 1,0 0.5,0 1,0 0.5,0 1,0 0.5,0 1,0 H 21 v 0.5 q 0,0.5 0,1 V 35 h -0.5 q -0.5,0 -1,0 H 19 19.375 19.75 19.5 q -0.25,0 -0.375,0.125 L 19,35.25 19.0625,35.1875 19.125,35.125 18.5625,35.0625 Q 18,35 17.5,35 17,35 16.5,35 H 16 v -0.5 q 0,-0.5 0,-1 M 15.875,35 H 16 16.375 16.75 16.5 q -0.25,0 -0.5,0 h -0.25 0.125 m 4.75,0 H 21 21.125 21.25 21 q -0.25,0 -0.5,0 h -0.25 0.375 m 0.5,-2 H 21 20.625 20.25 20.5 q 0.25,0 0.5,0 h 0.25 -0.125 m -4.75,0 H 16 15.875 15.75 16 q 0.25,0 0.5,0 h 0.25 -0.375 M 2.125,30.625 Q 2.25,30.25 2.625,30.125 3,30 3.5,30 4,30 4.5,30 H 5 4.625 4.25 4.5 q 0.25,0 0.375,-0.125 L 5,29.75 4.9375,29.8125 4.875,29.875 5.4375,29.9375 Q 6,30 6.375,30.125 6.75,30.25 6.875,30.625 7,31 7,31.5 7,32 7,32.5 V 33 H 6.5 Q 6,33 5.5,33 5,33 4.5,33 4,33 3.5,33 3,33 2.625,33.125 2.25,33.25 2.125,33.625 2,34 2,34.5 q 0,0.5 0,1 0,0.5 0,1 0,0.5 0,1 0,0.5 0,1 0,0.5 0,1 0,0.5 0,1 0,0.5 -0.125,0.875 -0.125,0.375 -0.5,0.5 Q 1,42 0.5,42 H 0 V 41.5 41 40.5 40 39.5 39 38.5 38 37.5 37 36.5 36 35.5 35 34.5 34 33.5 33 H 0.5 Q 1,33 1.375,32.875 1.75,32.75 1.875,32.375 2,32 2,31.5 2,31 2.125,30.625 M 6.625,33 H 7 7.125 7.25 7 Q 6.75,33 6.5,33 H 6.25 6.625 M 16,0.5 V 0 h 0.5 0.5 0.5 0.5 0.5 0.5 0.5 0.5 0.5 0.5 0.5 0.5 0.5 0.5 0.5 0.5 0.5 0.5 0.5 0.5 0.5 0.5 0.5 0.5 v 0.5 q 0,0.5 0,1 0,0.5 0.125,0.875 0.125,0.375 0.5,0.5 Q 29,3 29.375,3.125 29.75,3.25 29.875,3.625 30,4 30,4.5 q 0,0.5 0,1 0,0.5 0,1 V 7 6.625 6.25 6.5 q 0,0.25 0.125,0.375 L 30.25,7 30.1875,6.9375 30.125,6.875 29.5625,6.9375 Q 29,7 28.5,7 H 28 V 6.5 Q 28,6 28,5.5 28,5 28,4.5 28,4 27.875,3.625 27.75,3.25 27.375,3.125 27,3 26.5,3 26,3 25.5,3 25,3 24.5,3 24,3 23.5,3 23,3 22.5,3 22,3 21.5,3 21,3 20.5,3 20,3 19.5,3 19,3 18.5,3 18,3 17.5,3 17,3 16.625,3.125 16.25,3.25 16.125,3.625 16,4 15.875,4.375 15.75,4.75 15.375,4.875 15,5 14.5,5 14,5 13.5,5 13,5 12.625,5.125 12.25,5.25 12.125,5.625 12,6 11.875,6.375 11.75,6.75 11.375,6.875 11,7 10.5,7 10,7 9.625,7.125 9.25,7.25 9.125,7.625 9,8 9,8.5 9,9 8.875,9.375 8.75,9.75 8.375,9.875 8,10 7.625,10.125 7.25,10.25 7.125,10.625 7,11 7,11.5 V 12 H 6.5 Q 6,12 5.625,12.125 5.25,12.25 5.125,12.625 5,13 5,13.5 q 0,0.5 0,1 0,0.5 0,1 0,0.5 0,1 V 17 H 4.5 Q 4,17 3.5,17 3,17 2.5,17 H 2 V 16.5 Q 2,16 2,15.5 2,15 2,14.5 2,14 2,13.5 2,13 2.125,12.625 2.25,12.25 2.625,12.125 3,12 3.5,12 4,12 4.375,11.875 4.75,11.75 4.875,11.375 5,11 5.125,10.625 5.25,10.25 5.625,10.125 6,10 6.375,9.875 6.75,9.75 6.875,9.375 7,9 7,8.5 7,8 7.125,7.625 7.25,7.25 7.625,7.125 8,7 8.375,6.875 8.75,6.75 8.875,6.375 9,6 9.125,5.625 9.25,5.25 9.625,5.125 10,5 10.5,5 11,5 11.375,4.875 11.75,4.75 11.875,4.375 12,4 12.125,3.625 12.25,3.25 12.625,3.125 13,3 13.5,3 14,3 14.5,3 15,3 15.375,2.875 15.75,2.75 15.875,2.375 16,2 16,1.5 16,1 16,0.5 M 2,16.625 V 17 17.125 17.25 17 q 0,-0.25 0,-0.5 v -0.25 0.375 M 6.625,12 H 7 7.125 7.25 7 Q 6.75,12 6.5,12 H 6.25 6.625 M 27.875,7 H 28 28.375 28.75 28.5 Q 28.25,7 28,7 h -0.25 0.125"
         inkscape:connector-curvature="0" />
      <path
         id="path6323"
         style="display:inline;fill:#fff8ff;fill-opacity:1"
         d="m 28.125,42.625 q 0.125,-0.375 0.5,-0.5 Q 29,42 29.5,42 H 30 v 0.5 q 0,0.5 -0.125,0.875 -0.125,0.375 -0.5,0.5 Q 29,44 28.5,44 H 28 28.375 28.75 28.5 q -0.25,0 -0.375,0.125 L 28,44.25 28.0625,44.1875 28.125,44.125 28.0625,43.5625 Q 28,43 28.125,42.625 m -9,0 q 0.125,-0.375 0.5,-0.5 Q 20,42 20.5,42 q 0.5,0 1,0 0.5,0 0.875,0.125 0.375,0.125 0.5,0.5 Q 23,43 23,43.5 q 0,0.5 0,1 0,0.5 0,1 0,0.5 -0.125,0.875 -0.125,0.375 -0.5,0.5 Q 22,47 21.5,47 21,47 20.5,47 20,47 19.625,46.875 19.25,46.75 19.125,46.375 19,46 19,45.5 q 0,-0.5 0,-1 0,-0.5 0,-1 0,-0.5 0.125,-0.875 m -14,-2 Q 5.25,40.25 5.625,40.125 6,40 6.5,40 q 0.5,0 1,0 0.5,0 0.875,0.125 0.375,0.125 0.5,0.5 Q 9,41 9.125,41.375 9.25,41.75 9.625,41.875 10,42 10.5,42 q 0.5,0 1,0 0.5,0 1,0 0.5,0 0.875,0.125 0.375,0.125 0.5,0.5 Q 14,43 14,43.5 q 0,0.5 0,1 0,0.5 0,1 0,0.5 -0.125,0.875 -0.125,0.375 -0.5,0.5 Q 13,47 12.625,47.125 12.25,47.25 12.125,47.625 12,48 11.875,48.375 11.75,48.75 11.375,48.875 11,49 10.5,49 10,49 9.5,49 9,49 8.5,49 8,49 7.5,49 7,49 6.5,49 6,49 5.625,48.875 5.25,48.75 5.125,48.375 5,48 4.875,47.625 4.75,47.25 4.375,47.125 4,47 3.5,47 3,47 2.5,47 H 2 V 46.5 Q 2,46 2,45.5 2,45 2,44.5 2,44 2,43.5 2,43 2.125,42.625 2.25,42.25 2.625,42.125 3,42 3.5,42 4,42 4.375,41.875 4.75,41.75 4.875,41.375 5,41 5.125,40.625 m 23,-7 q 0.125,-0.375 0.5,-0.5 0.375,-0.125 0.75,0 0.375,0.125 0.5,0.5 0.125,0.375 0.25,0.75 0.125,0.375 0.5,0.5 Q 31,35 31.5,35 q 0.5,0 0.875,-0.125 0.375,-0.125 0.5,-0.5 Q 33,34 33.125,33.625 33.25,33.25 33.625,33.125 34,33 34.5,33 H 35 v 0.5 q 0,0.5 0,1 0,0.5 0,1 0,0.5 0,1 0,0.5 0,1 0,0.5 0,1 0,0.5 0,1 V 40 h -0.5 q -0.5,0 -1,0 -0.5,0 -1,0 -0.5,0 -1,0 -0.5,0 -0.875,-0.125 -0.375,-0.125 -0.5,-0.5 Q 30,39 30,38.5 q 0,-0.5 0,-1 0,-0.5 0,-1 0,-0.5 -0.125,-0.875 -0.125,-0.375 -0.5,-0.5 -0.375,-0.125 -0.75,0 -0.375,0.125 -0.5,0.5 Q 28,36 28,36.5 28,37 27.5,37 27,37 26.5,37 H 26 v -0.5 q 0,-0.5 0,-1 0,-0.5 0.5,-0.5 0.5,0 0.875,-0.125 0.375,-0.125 0.5,-0.5 Q 28,34 28.125,33.625 M 23,14.5 V 14 h 0.5 q 0.5,0 1,0 0.5,0 1,0 0.5,0 1,0 0.5,0 0.875,0.125 0.375,0.125 0.5,0.5 Q 28,15 28,15.5 28,16 28.125,16.375 L 28.25,16.75 28.15625,16.46875 28.0625,16.1875 28.125,16.375 q 0.0625,0.1875 0.1875,0.3125 l 0.125,0.125 L 28.375,16.75 28.3125,16.6875 28.03125,16.96875 Q 27.75,17.25 27.875,17.625 q 0.125,0.375 0,0.75 -0.125,0.375 0.15625,0.65625 l 0.28125,0.28125 0.0625,-0.0625 0.0625,-0.0625 -0.125,0.125 q -0.125,0.125 -0.1875,0.3125 L 28.0625,19.8125 28.15625,19.53125 28.25,19.25 28.125,19.625 Q 28,20 27.875,20.375 27.75,20.75 27.375,20.875 27,21 26.4375,20.9375 L 25.875,20.875 25.8125,20.9375 25.75,21 25.875,20.875 Q 26,20.75 26,20.5 V 20.25 20.625 21 20.5 q 0,-0.5 0,-1 0,-0.5 0,-1 0,-0.5 -0.125,-0.875 -0.125,-0.375 -0.5,-0.5 Q 25,17 24.5,17 24,17 23.5,17 H 23 v -0.5 q 0,-0.5 0,-1 0,-0.5 0,-1 M 23.375,14 H 23 22.875 22.75 23 q 0.25,0 0.5,0 h 0.25 -0.375 M 16,14.5 V 14 h 0.5 q 0.5,0 1,0 0.5,0 1,0 0.5,0 1,0 0.5,0 1,0 H 21 v 0.5 q 0,0.5 0,1 0,0.5 0,1 V 17 h -0.5 q -0.5,0 -0.875,0.125 -0.375,0.125 -0.5,0.5 Q 19,18 19,18.5 q 0,0.5 0,1 0,0.5 0,1 V 21 h -0.5 q -0.5,0 -1,0 -0.5,0 -0.875,-0.125 -0.375,-0.125 -0.5,-0.5 Q 16,20 16,19.5 q 0,-0.5 0,-1 0,-0.5 0,-1 0,-0.5 0,-1 0,-0.5 0,-1 0,-0.5 0,-1 M 21.125,14 H 21 20.625 20.25 20.5 q 0.25,0 0.5,0 h 0.25 -0.125 m -4.75,0 H 16 15.875 15.75 16 q 0.25,0 0.5,0 h 0.25 -0.375 M 23,5.5 V 5 h 0.5 q 0.5,0 1,0 0.5,0 1,0 Q 26,5 26,5.5 26,6 26,6.5 26,7 25.5,7 25,7 24.5,7 24,7 23.5,7 H 23 V 6.5 Q 23,6 23,5.5 M 22.875,7 H 23 23.375 23.75 23.5 Q 23.25,7 23,7 h -0.25 0.125 M 23,4.875 V 5 5.375 5.75 5.5 Q 23,5.25 23,5 V 4.75 4.875"
         inkscape:connector-curvature="0" />
      <path
         id="path6325"
         style="display:inline;fill:#20308f;fill-opacity:1"
         d="M 30,42.5 V 42 h 0.5 q 0.5,0 1,0 0.5,0 1.0625,0.0625 L 33.125,42.125 33.1875,42.0625 33.25,42 33.125,42.125 Q 33,42.25 33,42.5 V 42.75 42.375 42 42.5 q 0,0.5 0,1 V 44 43.625 43.25 43.5 q 0,0.25 0.125,0.375 L 33.25,44 33.1875,43.9375 33.125,43.875 32.5625,43.9375 Q 32,44 31.5,44 31,44 30.625,44.125 30.25,44.25 30.125,44.625 30,45 30,45.5 q 0,0.5 -0.125,0.875 -0.125,0.375 -0.5,0.5 Q 29,47 28.625,47.125 28.25,47.25 28.125,47.625 28,48 27.875,48.375 27.75,48.75 27.375,48.875 27,49 26.625,49.125 26.25,49.25 26.125,49.625 26,50 26,50.5 q 0,0.5 0,1 0,0.5 0,1 0,0.5 0,1 0,0.5 0,1 0,0.5 -0.0625,1.0625 L 25.875,56.125 25.9375,56.1875 26,56.25 25.875,56.125 Q 25.75,56 25.5,56 H 25.25 25.625 26 25.5 q -0.5,0 -1,0 -0.5,0 -1,0 -0.5,0 -1,0 -0.5,0 -1,0 -0.5,0 -1,0 -0.5,0 -1,0 -0.5,0 -1,0 -0.5,0 -1,0 -0.5,0 -0.875,0.125 -0.375,0.125 -0.5,0.5 Q 16,57 15.875,57.375 15.75,57.75 15.375,57.875 15,58 14.5,58 q -0.5,0 -1,0 -0.5,0 -1,0 H 12 V 57.5 Q 12,57 11.875,56.625 11.75,56.25 11.375,56.125 11,56 10.5,56 10,56 9.5,56 9,56 8.5,56 8,56 7.625,55.875 7.25,55.75 7.125,55.375 7,55 7,54.5 7,54 7,53.5 7,53 7,52.5 7,52 7.125,51.625 7.25,51.25 7.625,51.125 8,51 8.5,51 q 0.5,0 1,0 0.5,0 1,0 0.5,0 1,0 H 12 v 0.5 q 0,0.5 0,1 0,0.5 0.125,0.875 0.125,0.375 0.5,0.5 Q 13,54 13.5,54 q 0.5,0 1,0 0.5,0 1,0 0.5,0 1,0 0.5,0 1,0 0.5,0 1,0 0.5,0 1,0 0.5,0 1,0 0.5,0 1,0 0.5,0 0.875,-0.125 0.375,-0.125 0.5,-0.5 Q 23,53 23,52.5 q 0,-0.5 0,-1 0,-0.5 0,-1 0,-0.5 0.125,-0.875 0.125,-0.375 0.5,-0.5 Q 24,49 24.5,49 q 0.5,0 0.875,-0.125 0.375,-0.125 0.5,-0.5 Q 26,48 26.125,47.625 26.25,47.25 26.625,47.125 27,47 27.375,46.875 27.75,46.75 27.875,46.375 28,46 28,45.5 q 0,-0.5 0,-1 0,-0.5 0.5,-0.5 0.5,0 0.875,-0.125 0.375,-0.125 0.5,-0.5 Q 30,43 30,42.5 M 12,51.375 V 51 50.875 50.75 51 q 0,0.25 0,0.5 v 0.25 -0.375 M 23,35.5 V 35 h 0.5 q 0.5,0 1,0 0.5,0 1.0625,0.0625 L 26.125,35.125 26.1875,35.0625 26.25,35 26.125,35.125 Q 26,35.25 26,35.5 V 35.75 35.375 35 35.5 q 0,0.5 0,1 V 37 h -0.5 q -0.5,0 -1,0 -0.5,0 -1,0 H 23 v -0.5 q 0,-0.5 0,-1 M 22.875,37 H 23 23.375 23.75 23.5 q -0.25,0 -0.5,0 h -0.25 0.125 m 0.5,-2 H 23 22.875 22.75 23 q 0.25,0 0.5,0 h 0.25 -0.375 M 14,35.5 V 35 h 0.5 q 0.5,0 1,0 0.5,0 1,0 0.5,0 1,0 0.5,0 1.0625,0.0625 L 19.125,35.125 19.1875,35.0625 19.25,35 19.125,35.125 Q 19,35.25 19,35.5 V 35.75 35.375 35 35.5 q 0,0.5 0,1 V 37 36.625 36.25 36.5 q 0,0.25 0.125,0.375 L 19.25,37 19.1875,36.9375 19.125,36.875 18.5625,36.9375 Q 18,37 17.5,37 q -0.5,0 -1,0 -0.5,0 -1,0 -0.5,0 -1,0 H 14 v -0.5 q 0,-0.5 0,-1 M 13.875,37 H 14 14.375 14.75 14.5 q -0.25,0 -0.5,0 h -0.25 0.125 m 0.5,-2 H 14 13.875 13.75 14 q 0.25,0 0.5,0 h 0.25 -0.375"
         inkscape:connector-curvature="0" />
      <path
         id="path6327"
         style="fill:#8f581f;fill-opacity:1"
         d="m 30.125,44.625 q 0.125,-0.375 0.5,-0.5 Q 31,44 31.5,44 32,44 32.5625,43.9375 L 33.125,43.875 33.0625,43.8125 33,43.75 33.125,43.875 Q 33.25,44 33.5,44 H 33.75 33.375 33 33.5 q 0.5,0 0.875,0.125 0.375,0.125 0.5,0.5 Q 35,45 35,45.5 q 0,0.5 0,1 V 47 46.625 46.25 46.5 q 0,0.25 0.125,0.375 L 35.25,47 35.1875,46.9375 35.125,46.875 35.0625,47.4375 Q 35,48 34.875,48.375 34.75,48.75 34.375,48.875 34,49 33.625,49.125 33.25,49.25 33.125,49.625 33,50 33,50.5 q 0,0.5 0,1 0,0.5 0,1 0,0.5 -0.125,0.875 -0.125,0.375 -0.5,0.5 Q 32,54 31.5,54 31,54 30.625,54.125 30.25,54.25 30.125,54.625 30,55 29.875,55.375 29.75,55.75 29.375,55.875 29,56 28.625,56.125 28.25,56.25 28.125,56.625 28,57 27.9375,57.5625 L 27.875,58.125 27.9375,58.1875 28,58.25 27.875,58.125 Q 27.75,58 27.5,58 H 27.25 27.625 28 27.5 Q 27,58 26.625,57.875 26.25,57.75 26.125,57.375 26,57 26,56.5 V 56 56.375 56.75 56.5 q 0,-0.25 -0.125,-0.375 L 25.75,56 l 0.0625,0.0625 0.0625,0.0625 0.0625,-0.5625 Q 26,55 26,54.5 q 0,-0.5 0,-1 0,-0.5 0,-1 0,-0.5 0,-1 0,-0.5 0,-1 0,-0.5 0.125,-0.875 0.125,-0.375 0.5,-0.5 Q 27,49 27.375,48.875 27.75,48.75 27.875,48.375 28,48 28.125,47.625 28.25,47.25 28.625,47.125 29,47 29.375,46.875 29.75,46.75 29.875,46.375 30,46 30,45.5 30,45 30.125,44.625 M 31.5,49 q 0.5,0 0.875,-0.125 0.375,-0.125 0.5,-0.5 0.125,-0.375 0,-0.75 -0.125,-0.375 -0.5,-0.5 Q 32,47 31.5,47 q -0.5,0 -0.875,0.125 -0.375,0.125 -0.5,0.5 -0.125,0.375 0,0.75 0.125,0.375 0.5,0.5 Q 31,49 31.5,49 M 5,37.5 V 37 h 0.5 q 0.5,0 1,0 0.5,0 1,0 0.5,0 1,0 0.5,0 1,0 0.5,0 1,0 0.5,0 1,0 H 12 v 0.5 q 0,0.5 0,1 0,0.5 0.125,0.875 0.125,0.375 0.5,0.5 Q 13,40 13.5,40 H 14 v 0.5 q 0,0.5 0.125,0.875 0.125,0.375 0.5,0.5 Q 15,42 15.5,42 H 16 v 0.5 q 0,0.5 0,1 0,0.5 0,1 0,0.5 0,1 0,0.5 -0.125,0.875 -0.125,0.375 -0.5,0.5 Q 15,47 14.625,47.125 14.25,47.25 14.125,47.625 14,48 14,48.5 V 49 h -0.5 q -0.5,0 -0.875,0.125 -0.375,0.125 -0.5,0.5 Q 12,50 12,50.5 V 51 h -0.5 q -0.5,0 -1,0 -0.5,0 -1,0 Q 9,51 8.5,51 8,51 7.625,51.125 7.25,51.25 7.125,51.625 7,52 7,52.5 q 0,0.5 0,1 0,0.5 0,1 0,0.5 0.125,0.875 0.125,0.375 0.5,0.5 Q 8,56 8.5,56 q 0.5,0 1,0 0.5,0 1,0 0.5,0 0.875,0.125 0.375,0.125 0.5,0.5 Q 12,57 12,57.5 V 58 h -0.5 q -0.5,0 -1,0 -0.5,0 -1,0 Q 9,58 8.5,58 8,58 7.625,58.125 7.25,58.25 7.125,58.625 7,59 7,59.5 7,60 6.875,60.375 6.75,60.75 6.375,60.875 6,61 5.5,61 5,61 4.5,61 4,61 3.5,61 3,61 2.625,60.875 2.25,60.75 2.125,60.375 2,60 2,59.5 2,59 2,58.5 2,58 2,57.5 2,57 2,56.5 2,56 2,55.5 2,55 2,54.5 2,54 2,53.5 2,53 2,52.5 2,52 2.125,51.625 2.25,51.25 2.625,51.125 3,51 3.5,51 4,51 4.375,50.875 4.75,50.75 4.875,50.375 5,50 4.875,49.625 4.75,49.25 4.375,49.125 4,49 3.5,49 3,49 2.5,49 H 2 V 48.5 Q 2,48 2,47.5 V 47 H 1.5 Q 1,47 0.5,47 H 0 V 46.5 46 45.5 45 44.5 44 43.5 43 42.5 42 H 0.5 Q 1,42 1.375,41.875 1.75,41.75 1.875,41.375 2,41 2,40.5 V 40 h 0.5 q 0.5,0 1,0 0.5,0 0.875,-0.125 0.375,-0.125 0.5,-0.5 Q 5,39 5,38.5 5,38 5,37.5 M 2,39.875 V 40 40.375 40.75 40.5 Q 2,40.25 2,40 v -0.25 0.125 M 2,46.5 V 47 h 0.5 q 0.5,0 1,0 0.5,0 0.875,0.125 0.375,0.125 0.5,0.5 Q 5,48 5.125,48.375 5.25,48.75 5.625,48.875 6,49 6.5,49 q 0.5,0 1,0 0.5,0 1,0 0.5,0 1,0 0.5,0 1,0 0.5,0 0.875,-0.125 0.375,-0.125 0.5,-0.5 Q 12,48 12.125,47.625 12.25,47.25 12.625,47.125 13,47 13.375,46.875 13.75,46.75 13.875,46.375 14,46 14,45.5 q 0,-0.5 0,-1 0,-0.5 0,-1 0,-0.5 -0.125,-0.875 -0.125,-0.375 -0.5,-0.5 Q 13,42 12.5,42 12,42 11.5,42 11,42 10.5,42 10,42 9.625,41.875 9.25,41.75 9.125,41.375 9,41 8.875,40.625 8.75,40.25 8.375,40.125 8,40 7.5,40 7,40 6.5,40 6,40 5.625,40.125 5.25,40.25 5.125,40.625 5,41 4.875,41.375 4.75,41.75 4.375,41.875 4,42 3.5,42 3,42 2.625,42.125 2.25,42.25 2.125,42.625 2,43 2,43.5 q 0,0.5 0,1 0,0.5 0,1 0,0.5 0,1 m 0,2.125 V 49 49.125 49.25 49 q 0,-0.25 0,-0.5 v -0.25 0.375 m 3.625,9.25 Q 6,58 6.375,57.875 6.75,57.75 6.875,57.375 7,57 6.875,56.625 6.75,56.25 6.375,56.125 6,56 5.625,56.125 q -0.375,0.125 -0.5,0.5 -0.125,0.375 0,0.75 0.125,0.375 0.5,0.5 M 12,51.125 V 51 50.625 50.25 50.5 q 0,0.25 0,0.5 v 0.25 -0.125 M 13.625,49 H 14 14.125 14.25 14 q -0.25,0 -0.5,0 h -0.25 0.375 m 2.5,-7 H 16 15.625 15.25 15.5 q 0.25,0 0.5,0 h 0.25 -0.125 m -2,-2 H 14 13.625 13.25 13.5 q 0.25,0 0.5,0 h 0.25 -0.125 m -2,-3 H 12 11.625 11.25 11.5 q 0.25,0 0.5,0 h 0.25 -0.125 M 5,36.875 V 37 37.375 37.75 37.5 Q 5,37.25 5,37 v -0.25 0.125 m 23.125,-1.25 q 0.125,-0.375 0.5,-0.5 0.375,-0.125 0.75,0 0.375,0.125 0.5,0.5 Q 30,36 30,36.5 q 0,0.5 0,1 0,0.5 0,1 0,0.5 0.125,0.875 0.125,0.375 0.5,0.5 Q 31,40 31.5,40 q 0.5,0 1,0 0.5,0 1,0 0.5,0 1,0 H 35 v 0.5 q 0,0.5 -0.125,0.875 -0.125,0.375 -0.5,0.5 Q 34,42 33.5,42 H 33 33.375 33.75 33.5 q -0.25,0 -0.375,0.125 L 33,42.25 33.0625,42.1875 33.125,42.125 32.5625,42.0625 Q 32,42 31.5,42 31,42 30.5,42 H 30 V 41.5 Q 30,41 29.875,40.625 29.75,40.25 29.375,40.125 29,40 28.5,40 H 28 v -0.5 q 0,-0.5 0,-1 0,-0.5 -0.0625,-1.0625 L 27.875,36.875 27.8125,36.9375 27.75,37 27.875,36.875 Q 28,36.75 28,36.5 V 36.25 36.625 37 36.5 Q 28,36 28.125,35.625 M 35,33.5 V 33 h 0.5 q 0.5,0 1,0 H 37 v 0.5 0.5 0.5 0.5 0.5 0.5 0.5 0.5 0.5 0.5 0.5 0.5 0.5 0.5 h -0.5 q -0.5,0 -1,0 H 35 v -0.5 q 0,-0.5 0,-1 0,-0.5 0,-1 0,-0.5 0,-1 0,-0.5 0,-1 0,-0.5 0,-1 0,-0.5 0,-1 m -9,-3 V 30 h 0.5 q 0.5,0 1,0 0.5,0 1,0 0.5,0 1,0 0.5,0 1,0 0.5,0 1,0 0.5,0 1.0625,-0.0625 L 33.125,29.875 33.0625,29.8125 33,29.75 33.125,29.875 Q 33.25,30 33.5,30 H 33.75 33.375 33 33.5 q 0.5,0 0.875,0.125 0.375,0.125 0.5,0.5 Q 35,31 35,31.5 q 0,0.5 0,1 V 33 h -0.5 q -0.5,0 -0.875,0.125 -0.375,0.125 -0.5,0.5 Q 33,34 32.875,34.375 32.75,34.75 32.375,34.875 32,35 31.5,35 31,35 30.625,34.875 30.25,34.75 30.125,34.375 30,34 29.875,33.625 29.75,33.25 29.375,33.125 29,33 28.625,33.125 28.25,33.25 28.125,33.625 28,34 27.875,34.375 27.75,34.75 27.375,34.875 27,35 26.5,35 H 26 26.375 26.75 26.5 q -0.25,0 -0.375,0.125 L 26,35.25 26.0625,35.1875 26.125,35.125 25.5625,35.0625 Q 25,35 24.5,35 q -0.5,0 -1,0 -0.5,0 -1,0 -0.5,0 -1,0 H 21 v -0.5 q 0,-0.5 0,-1 V 33 h 0.5 q 0.5,0 1,0 0.5,0 1,0 0.5,0 1,0 0.5,0 0.875,-0.125 0.375,-0.125 0.5,-0.5 Q 26,32 26,31.5 26,31 26,30.5 M 21.375,33 H 21 20.875 20.75 21 q 0.25,0 0.5,0 h 0.25 -0.375 m -0.5,2 H 21 21.375 21.75 21.5 q -0.25,0 -0.5,0 h -0.25 0.125 m 5.5,-5 H 26 25.875 25.75 26 q 0.25,0 0.5,0 h 0.25 -0.375 M 9,30.5 V 30 h 0.5 q 0.5,0 1,0 0.5,0 0.875,0.125 0.375,0.125 0.5,0.5 Q 12,31 12,31.5 q 0,0.5 0,1 V 33 h -0.5 q -0.5,0 -1,0 -0.5,0 -1,0 H 9 V 32.5 Q 9,32 9,31.5 9,31 9,30.5 M 8.875,33 H 9 9.375 9.75 9.5 Q 9.25,33 9,33 H 8.75 8.875 m 2.75,0 H 12 12.125 12.25 12 q -0.25,0 -0.5,0 h -0.25 0.375 M 9,29.875 V 30 30.375 30.75 30.5 Q 9,30.25 9,30 v -0.25 0.125 M 19,24.5 V 24 h 0.5 q 0.5,0 0.875,0.125 0.375,0.125 0.5,0.5 Q 21,25 21,25.5 V 26 H 20.5 Q 20,26 19.625,25.875 19.25,25.75 19.125,25.375 19,25 19,24.5 M 20.625,26 H 21 21.125 21.25 21 q -0.25,0 -0.5,0 h -0.25 0.375 M 30,19.5 q 0,-0.5 0.5,-0.5 0.5,0 1,0 0.5,0 0.875,0.125 0.375,0.125 0.5,0.5 Q 33,20 33,20.5 q 0,0.5 0,1 0,0.5 0,1 0,0.5 0,1 0,0.5 0,1 0,0.5 0,1 V 26 25.625 25.25 25.5 q 0,0.25 0.125,0.375 L 33.25,26 33.1875,25.9375 33.125,25.875 32.5625,25.9375 Q 32,26 31.5,26 31,26 30.5,26 H 30 v -0.5 q 0,-0.5 0,-1 0,-0.5 0,-1 0,-0.5 0,-1 0,-0.5 0,-1 0,-0.5 0,-1 0,-0.5 0,-1 M 29.875,26 H 30 30.375 30.75 30.5 q -0.25,0 -0.5,0 h -0.25 0.125 M 2.125,19.625 Q 2.25,19.25 2.625,19.125 3,19 3.5,19 4,19 4.5,19 H 5 v 0.5 q 0,0.5 0,1 0,0.5 0,1 0,0.5 0,1 0,0.5 -0.125,0.875 -0.125,0.375 -0.5,0.5 Q 4,24 3.5,24 3,24 2.625,23.875 2.25,23.75 2.125,23.375 2,23 2,22.5 2,22 2,21.5 2,21 2,20.5 2,20 2.125,19.625 M 5,19.375 V 19 18.875 18.75 19 q 0,0.25 0,0.5 v 0.25 -0.375"
         inkscape:connector-curvature="0" />
      <path
         id="path6335"
         style="fill:#000000;fill-opacity:1"
         d="M 2,49.5 V 49 h 0.5 q 0.5,0 1,0 0.5,0 0.875,0.125 0.375,0.125 0.5,0.5 0.125,0.375 0,0.75 -0.125,0.375 -0.5,0.5 Q 4,51 3.5,51 3,51 2.625,51.125 2.25,51.25 2.125,51.625 2,52 2,52.5 q 0,0.5 0,1 0,0.5 0,1 0,0.5 0,1 0,0.5 0,1 0,0.5 0,1 0,0.5 0,1 0,0.5 0,1 0,0.5 0.125,0.875 0.125,0.375 0.5,0.5 Q 3,61 3.5,61 q 0.5,0 1,0 0.5,0 1,0 0.5,0 0.875,-0.125 0.375,-0.125 0.5,-0.5 Q 7,60 7,59.5 7,59 7.125,58.625 7.25,58.25 7.625,58.125 8,58 8.5,58 q 0.5,0 1,0 0.5,0 1,0 0.5,0 1,0 H 12 v 0.5 q 0,0.5 0,1 0,0.5 -0.125,0.875 -0.125,0.375 -0.5,0.5 Q 11,61 10.5,61 10,61 9.5,61 9,61 8.5,61 8,61 7.625,61.125 7.25,61.25 7.125,61.625 7,62 7,62.5 V 63 H 6.5 6 5.5 5 4.5 4 3.5 3 2.5 2 V 62.5 Q 2,62 1.875,61.625 1.75,61.25 1.375,61.125 1,61 0.5,61 H 0 V 60.5 60 59.5 59 58.5 58 57.5 57 56.5 56 55.5 55 54.5 54 53.5 53 52.5 52 51.5 51 H 0.5 Q 1,51 1.375,50.875 1.75,50.75 1.875,50.375 2,50 2,49.5 M 2,48.875 V 49 49.375 49.75 49.5 Q 2,49.25 2,49 v -0.25 0.125 M 35.0625,47.4375 35.125,46.875 35.0625,46.8125 35,46.75 35.125,46.875 Q 35.25,47 35.5,47 H 35.75 35.375 35 35.5 q 0.5,0 1,0 H 37 v 0.5 0.5 0.5 0.5 0.5 0.5 0.5 0.5 0.5 0.5 0.5 0.5 0.5 0.5 h -0.5 q -0.5,0 -0.875,0.125 -0.375,0.125 -0.5,0.5 Q 35,55 35,55.5 q 0,0.5 0,1 0,0.5 -0.125,0.875 -0.125,0.375 -0.5,0.5 Q 34,58 33.625,58.125 33.25,58.25 33.125,58.625 33,59 33,59.5 q 0,0.5 -0.125,0.875 -0.125,0.375 -0.5,0.5 Q 32,61 31.5,61 q -0.5,0 -1,0 -0.5,0 -1,0 -0.5,0 -0.875,-0.125 -0.375,-0.125 -0.5,-0.5 Q 28,60 28,59.5 28,59 28,58.5 V 58 58.375 58.75 58.5 q 0,-0.25 -0.125,-0.375 L 27.75,58 l 0.0625,0.0625 0.0625,0.0625 0.0625,-0.5625 Q 28,57 28.125,56.625 28.25,56.25 28.625,56.125 29,56 29.375,55.875 29.75,55.75 29.875,55.375 30,55 30.125,54.625 30.25,54.25 30.625,54.125 31,54 31.5,54 q 0.5,0 0.875,-0.125 0.375,-0.125 0.5,-0.5 Q 33,53 33,52.5 q 0,-0.5 0,-1 0,-0.5 0,-1 0,-0.5 0.125,-0.875 0.125,-0.375 0.5,-0.5 Q 34,49 34.375,48.875 34.75,48.75 34.875,48.375 35,48 35.0625,47.4375 M 2,26.5 V 26 h 0.5 q 0.5,0 1,0 0.5,0 1,0 0.5,0 1,0 0.5,0 0.875,0.125 0.375,0.125 0.5,0.5 Q 7,27 7.125,27.375 7.25,27.75 7.625,27.875 8,28 8.375,28.125 8.75,28.25 8.875,28.625 9,29 9,29.5 q 0,0.5 0,1 0,0.5 0,1 0,0.5 0,1 V 33 H 8.5 Q 8,33 7.5,33 H 7 V 32.5 Q 7,32 7,31.5 7,31 6.875,30.625 6.75,30.25 6.375,30.125 6,30 5.4375,29.9375 L 4.875,29.875 4.8125,29.9375 4.75,30 4.875,29.875 Q 5,29.75 5,29.5 V 29.25 29.625 30 29.5 Q 5,29 4.875,28.625 4.75,28.25 4.375,28.125 4,28 3.5,28 3,28 2.625,27.875 2.25,27.75 2.125,27.375 2,27 2,26.5 M 6.875,33 H 7 7.375 7.75 7.5 Q 7.25,33 7,33 H 6.75 6.875 m 1.75,0 H 9 9.125 9.25 9 Q 8.75,33 8.5,33 H 8.25 8.625 M 2,25.875 V 26 26.375 26.75 26.5 Q 2,26.25 2,26 v -0.25 0.125 m 14.125,-1.25 q 0.125,-0.375 0.5,-0.5 Q 17,24 17.5,24 q 0.5,0 1,0 H 19 v 0.5 q 0,0.5 0.125,0.875 0.125,0.375 0.5,0.5 Q 20,26 20.5,26 q 0.5,0 1,0 0.5,0 1,0 0.5,0 1,0 0.5,0 1,0 0.5,0 1,0 0.5,0 1,0 0.5,0 1,0 0.5,0 1,0 0.5,0 1,0 0.5,0 1,0 0.5,0 1,0 0.5,0 1.0625,-0.0625 L 33.125,25.875 33.0625,25.8125 33,25.75 33.125,25.875 Q 33.25,26 33.5,26 H 33.75 33.375 33 33.5 q 0.5,0 0.875,0.125 0.375,0.125 0.5,0.5 0.125,0.375 0,0.75 -0.125,0.375 -0.5,0.5 Q 34,28 33.625,28.125 33.25,28.25 33.125,28.625 33,29 33,29.5 V 30 29.625 29.25 29.5 q 0,0.25 0.125,0.375 L 33.25,30 33.1875,29.9375 33.125,29.875 32.5625,29.9375 Q 32,30 31.5,30 q -0.5,0 -1,0 -0.5,0 -1,0 -0.5,0 -1,0 -0.5,0 -1,0 -0.5,0 -1,0 -0.5,0 -1,0 -0.5,0 -1,0 -0.5,0 -1,0 -0.5,0 -1,0 -0.5,0 -1,0 -0.5,0 -1,0 -0.5,0 -1,0 Q 19,30 19,29.5 19,29 18.875,28.625 18.75,28.25 18.375,28.125 18,28 17.5,28 q -0.5,0 -1,0 -0.5,0 -1,0 -0.5,0 -1,0 -0.5,0 -0.5,-0.5 0,-0.5 0,-1 0,-0.5 0.5,-0.5 0.5,0 0.875,-0.125 0.375,-0.125 0.5,-0.5 Q 16,25 16.125,24.625 M 23,17.5 V 17 h 0.5 q 0.5,0 1,0 0.5,0 0.875,0.125 0.375,0.125 0.5,0.5 Q 26,18 26,18.5 q 0,0.5 0,1 0,0.5 0,1 0,0.5 -0.5,0.5 -0.5,0 -1,0 -0.5,0 -0.875,-0.125 -0.375,-0.125 -0.5,-0.5 Q 23,20 23,19.5 q 0,-0.5 0,-1 0,-0.5 0,-1 m -3.875,0.125 q 0.125,-0.375 0.5,-0.5 Q 20,17 20.5,17 H 21 v 0.5 q 0,0.5 0,1 0,0.5 0,1 0,0.5 0,1 0,0.5 -0.5,0.5 -0.5,0 -1,0 H 19 v -0.5 q 0,-0.5 0,-1 0,-0.5 0,-1 0,-0.5 0.125,-0.875 m -3,-10 Q 16.25,7.25 16.625,7.125 17,7 17.5,7 q 0.5,0 1,0 0.5,0 1,0 0.5,0 1,0 0.5,0 1,0 0.5,0 1,0 0.5,0 1,0 0.5,0 1,0 0.5,0 1,0 H 26 25.625 25.25 25.5 q 0.25,0 0.375,-0.125 L 26,6.75 25.9375,6.8125 25.875,6.875 26.4375,6.9375 Q 27,7 27.5,7 28,7 28.5,7 29,7 29.5625,6.9375 L 30.125,6.875 30.0625,6.8125 30,6.75 30.125,6.875 Q 30.25,7 30.5,7 H 30.75 30.375 30 30.5 q 0.5,0 1,0 0.5,0 0.875,0.125 0.375,0.125 0.5,0.5 Q 33,8 33,8.5 q 0,0.5 0.125,0.875 0.125,0.375 0.5,0.5 0.375,0.125 0.75,0.25 0.375,0.125 0.5,0.5 Q 35,11 35,11.5 q 0,0.5 0,1 0,0.5 -0.125,0.875 -0.125,0.375 -0.5,0.5 Q 34,14 33.625,14.125 33.25,14.25 33.125,14.625 33,15 33,15.5 q 0,0.5 -0.125,0.875 -0.125,0.375 -0.5,0.5 Q 32,17 31.5,17 q -0.5,0 -1,0 -0.5,0 -1,0 -0.5,0 -0.875,-0.125 -0.375,-0.125 -0.5,-0.5 Q 28,16 28,15.5 28,15 27.875,14.625 27.75,14.25 27.375,14.125 27,14 26.5,14 q -0.5,0 -1,0 -0.5,0 -1,0 -0.5,0 -1,0 -0.5,0 -1,0 -0.5,0 -1,0 -0.5,0 -1,0 -0.5,0 -1,0 -0.5,0 -1,0 -0.5,0 -1,0 -0.5,0 -1,0 -0.5,0 -1,0 -0.5,0 -0.875,0.125 -0.375,0.125 -0.5,0.5 Q 14,15 14,15.5 q 0,0.5 -0.125,0.875 -0.125,0.375 -0.5,0.5 Q 13,17 12.625,17.125 12.25,17.25 12.125,17.625 12,18 12,18.5 q 0,0.5 0,1 0,0.5 0.125,0.875 0.125,0.375 0.5,0.5 Q 13,21 13.5,21 q 0.5,0 0.5,0.5 0,0.5 0,1 0,0.5 -0.125,0.875 -0.125,0.375 -0.5,0.5 Q 13,24 12.625,24.125 12.25,24.25 12.125,24.625 12,25 12,25.5 12,26 11.5,26 11,26 10.5,26 10,26 9.625,25.875 9.25,25.75 9.125,25.375 9,25 8.875,24.625 8.75,24.25 8.375,24.125 8,24 7.625,23.875 7.25,23.75 7.125,23.375 7,23 7,22.5 7,22 7,21.5 7,21 7,20.5 7,20 7,19.5 7,19 7,18.5 7,18 7,17.5 V 17 17.375 17.75 17.5 Q 7,17.25 6.875,17.125 L 6.75,17 6.8125,17.0625 6.875,17.125 7.4375,17.0625 Q 8,17 8.375,16.875 8.75,16.75 8.875,16.375 9,16 9,15.5 9,15 9,14.5 9,14 9,13.5 9,13 9.125,12.625 9.25,12.25 9.625,12.125 10,12 10.5,12 q 0.5,0 0.875,-0.125 0.375,-0.125 0.5,-0.5 Q 12,11 12.125,10.625 12.25,10.25 12.625,10.125 13,10 13.5,10 q 0.5,0 1,0 0.5,0 0.875,-0.125 0.375,-0.125 0.5,-0.5 Q 16,9 16,8.5 16,8 16.125,7.625"
         inkscape:connector-curvature="0" />
      <path
         id="path6337"
         style="fill:#40809f;fill-opacity:1"
         d="m 12.125,49.625 q 0.125,-0.375 0.5,-0.5 Q 13,49 13.5,49 q 0.5,0 1,0 0.5,0 0.875,0.125 0.375,0.125 0.5,0.5 0.125,0.375 0.25,0.75 0.125,0.375 0.5,0.5 Q 17,51 17.5,51 q 0.5,0 1,0 0.5,0 1,0 0.5,0 1,0 0.5,0 1,0 0.5,0 1,0 H 23 v 0.5 q 0,0.5 0,1 0,0.5 -0.125,0.875 -0.125,0.375 -0.5,0.5 Q 22,54 21.5,54 q -0.5,0 -1,0 -0.5,0 -1,0 -0.5,0 -1,0 -0.5,0 -1,0 -0.5,0 -1,0 -0.5,0 -1,0 -0.5,0 -1,0 -0.5,0 -1,0 -0.5,0 -0.875,-0.125 -0.375,-0.125 -0.5,-0.5 Q 12,53 12,52.5 q 0,-0.5 0,-1 0,-0.5 0,-1 0,-0.5 0.125,-0.875 M 23,51.375 V 51 50.875 50.75 51 q 0,0.25 0,0.5 v 0.25 -0.375 M 26,37.5 V 37 h 0.5 q 0.5,0 1,0 H 28 27.625 27.25 27.5 q 0.25,0 0.375,-0.125 L 28,36.75 27.9375,36.8125 27.875,36.875 27.9375,37.4375 Q 28,38 28,38.5 q 0,0.5 0,1 V 40 h -0.5 q -0.5,0 -1,0 H 26 v -0.5 q 0,-0.5 0,-1 0,-0.5 0,-1 M 25.875,40 H 26 26.375 26.75 26.5 q -0.25,0 -0.5,0 h -0.25 0.125 M 16,37.5 V 37 h 0.5 q 0.5,0 1,0 0.5,0 1.0625,-0.0625 L 19.125,36.875 19.0625,36.8125 19,36.75 19.125,36.875 Q 19.25,37 19.5,37 H 19.75 19.375 19 19.5 q 0.5,0 1,0 H 21 v 0.5 q 0,0.5 0,1 0,0.5 0,1 V 40 h -0.5 q -0.5,0 -1,0 -0.5,0 -1,0 -0.5,0 -1,0 -0.5,0 -1,0 H 16 v -0.5 q 0,-0.5 0,-1 0,-0.5 0,-1 M 15.875,40 H 16 16.375 16.75 16.5 q -0.25,0 -0.5,0 h -0.25 0.125 m 4.75,0 H 21 21.125 21.25 21 q -0.25,0 -0.5,0 h -0.25 0.375 m 0.5,-3 H 21 20.625 20.25 20.5 q 0.25,0 0.5,0 h 0.25 -0.125 m -4.75,0 H 16 15.875 15.75 16 q 0.25,0 0.5,0 h 0.25 -0.375"
         inkscape:connector-curvature="0" />
      <path
         id="path6341"
         style="fill:#ffd870;fill-opacity:1"
         d="m 5.125,56.625 q 0.125,-0.375 0.5,-0.5 0.375,-0.125 0.75,0 0.375,0.125 0.5,0.5 0.125,0.375 0,0.75 -0.125,0.375 -0.5,0.5 Q 6,58 5.625,57.875 5.25,57.75 5.125,57.375 5,57 5.125,56.625 m 25,-9 q 0.125,-0.375 0.5,-0.5 Q 31,47 31.5,47 q 0.5,0 0.875,0.125 0.375,0.125 0.5,0.5 0.125,0.375 0,0.75 -0.125,0.375 -0.5,0.5 Q 32,49 31.5,49 31,49 30.625,48.875 30.25,48.75 30.125,48.375 30,48 30.125,47.625 M 21,3.5 V 3 h 0.5 q 0.5,0 1,0 H 23 v 0.5 q 0,0.5 0,1 0,0.5 0,1 0,0.5 0,1 V 7 H 22.5 Q 22,7 21.5,7 H 21 V 6.5 Q 21,6 21,5.5 21,5 21,4.5 21,4 21,3.5 M 20.875,7 H 21 21.375 21.75 21.5 Q 21.25,7 21,7 h -0.25 0.125 m 1.75,0 H 23 23.125 23.25 23 q -0.25,0 -0.5,0 h -0.25 0.375 m 0.5,-4 H 23 22.625 22.25 22.5 q 0.25,0 0.5,0 h 0.25 -0.125 m -1.75,0 H 21 20.875 20.75 21 q 0.25,0 0.5,0 h 0.25 -0.375"
         inkscape:connector-curvature="0" />
    </g>
  </g>
</svg>
