<?xml version="1.0" encoding="UTF-8" standalone="no"?>
<!-- Created with Inkscape (http://www.inkscape.org/) -->

<svg
   xmlns:dc="http://purl.org/dc/elements/1.1/"
   xmlns:cc="http://creativecommons.org/ns#"
   xmlns:rdf="http://www.w3.org/1999/02/22-rdf-syntax-ns#"
   xmlns:svg="http://www.w3.org/2000/svg"
   xmlns="http://www.w3.org/2000/svg"
   xmlns:sodipodi="http://sodipodi.sourceforge.net/DTD/sodipodi-0.dtd"
   xmlns:inkscape="http://www.inkscape.org/namespaces/inkscape"
   width="210mm"
   height="297mm"
   viewBox="0 0 210 297"
   version="1.1"
   id="svg6590"
   inkscape:version="0.92.4 (unknown)"
   sodipodi:docname="m4.svg">
  <defs
     id="defs6584" />
  <sodipodi:namedview
     id="base"
     pagecolor="#ffffff"
     bordercolor="#666666"
     borderopacity="1.0"
     inkscape:pageopacity="0.0"
     inkscape:pageshadow="2"
     inkscape:zoom="1.979899"
     inkscape:cx="523.30785"
     inkscape:cy="-59.361987"
     inkscape:document-units="mm"
     inkscape:current-layer="g6799"
     showgrid="false"
     inkscape:window-width="1366"
     inkscape:window-height="703"
     inkscape:window-x="0"
     inkscape:window-y="0"
     inkscape:window-maximized="1" />
  <metadata
     id="metadata6587">
    <rdf:RDF>
      <cc:Work
         rdf:about="">
        <dc:format>image/svg+xml</dc:format>
        <dc:type
           rdf:resource="http://purl.org/dc/dcmitype/StillImage" />
        <dc:title />
      </cc:Work>
    </rdf:RDF>
  </metadata>
  <g
     inkscape:label="Layer 1"
     inkscape:groupmode="layer"
     id="layer1">
    <g
       transform="translate(119.0814,275.37976)"
       id="g6799">
      <path
         style="fill:#dfa03f;fill-opacity:1"
         d="M 19,12.5 V 12 h 0.5 q 0.5,0 1,0 H 21 v 0.5 q 0,0.5 0,1 V 14 h -0.5 q -0.5,0 -1,0 H 19 v -0.5 q 0,-0.5 0,-1 M 18.875,14 H 19 19.375 19.75 19.5 q -0.25,0 -0.5,0 h -0.25 0.125 m 1.75,0 H 21 21.125 21.25 21 q -0.25,0 -0.5,0 h -0.25 0.375 M 21,12.375 V 12 11.875 11.75 12 q 0,0.25 0,0.5 v 0.25 -0.375 M 19.375,12 H 19 18.875 18.75 19 q 0.25,0 0.5,0 h 0.25 -0.375"
         id="path6681"
         inkscape:connector-curvature="0" />
      <path
         id="path6723"
         style="fill:#ff706f;fill-opacity:1"
         d="M 19,28.5 V 28 h 0.5 q 0.5,0 1,0 H 21 20.625 20.25 20.5 q 0.25,0 0.375,-0.125 L 21,27.75 20.9375,27.8125 20.875,27.875 21.4375,27.9375 Q 22,28 22.375,28.125 q 0.375,0.125 0.5,0.5 0.125,0.375 0.25,0.75 0.125,0.375 0.5,0.5 Q 24,30 24.5,30 q 0.5,0 1,0 0.5,0 1,0 0.5,0 1,0 0.5,0 1,0 0.5,0 1,0 H 30 v 0.5 q 0,0.5 0,1 0,0.5 0,1 V 33 h -0.5 q -0.5,0 -1,0 -0.5,0 -1,0 -0.5,0 -1,0 -0.5,0 -1,0 -0.5,0 -1,0 -0.5,0 -1,0 H 23 v -0.5 q 0,-0.5 0,-1 0,-0.5 -0.125,-0.875 -0.125,-0.375 -0.5,-0.5 Q 22,30 21.5,30 q -0.5,0 -1,0 -0.5,0 -1,0 H 19 v -0.5 q 0,-0.5 0,-1 M 18.875,30 H 19 19.375 19.75 19.5 q -0.25,0 -0.5,0 h -0.25 0.125 m 4,3 H 23 23.375 23.75 23.5 q -0.25,0 -0.5,0 h -0.25 0.125 m 6.75,0 H 30 30.125 30.25 30 q -0.25,0 -0.5,0 h -0.25 0.375 M 30,30.375 V 30 29.875 29.75 30 q 0,0.25 0,0.5 v 0.25 -0.375 M 2,23.5 V 23 h 0.5 q 0.5,0 1,0 0.5,0 1,0 H 5 v 0.5 q 0,0.5 0,1 0,0.5 0,1 V 26 H 4.5 Q 4,26 3.5,26 3,26 2.625,26.125 2.25,26.25 2.125,26.625 2,27 2,27.5 q 0,0.5 0,1 0,0.5 0.125,0.875 0.125,0.375 0.5,0.5 Q 3,30 3.5,30 4,30 4.375,29.875 4.75,29.75 4.875,29.375 5,29 5,28.5 V 28 h 0.5 q 0.5,0 1,0 H 7 v 0.5 q 0,0.5 0.125,0.875 0.125,0.375 0.5,0.5 Q 8,30 8.375,30.125 8.75,30.25 8.875,30.625 9,31 9,31.5 9,32 9.125,32.375 9.25,32.75 9.625,32.875 10,33 10.5,33 q 0.5,0 1,0 H 12 11.625 11.25 11.5 q 0.25,0 0.375,-0.125 L 12,32.75 11.9375,32.8125 11.875,32.875 12.4375,32.9375 Q 13,33 13.5625,33.0625 L 14.125,33.125 14.1875,33.0625 14.25,33 14.125,33.125 Q 14,33.25 14,33.5 V 33.75 33.375 33 33.5 q 0,0.5 0,1 V 35 34.625 34.25 34.5 q 0,0.25 0.125,0.375 L 14.25,35 14.1875,34.9375 14.125,34.875 14.0625,35.4375 Q 14,36 14.125,36.375 q 0.125,0.375 0.5,0.5 Q 15,37 15.5,37 q 0.5,0 1,0 0.5,0 1,0 0.5,0 1.0625,-0.0625 L 19.125,36.875 19.0625,36.8125 19,36.75 19.125,36.875 Q 19.25,37 19.5,37 H 19.75 19.375 19 19.5 q 0.5,0 1,0 0.5,0 1,0 0.5,0 1,0 0.5,0 1,0 0.5,0 1,0 0.5,0 1,0 H 26 v 0.5 q 0,0.5 -0.125,0.875 -0.125,0.375 -0.5,0.5 Q 25,39 24.5,39 q -0.5,0 -1,0 -0.5,0 -1,0 -0.5,0 -1,0 -0.5,0 -1,0 -0.5,0 -1,0 -0.5,0 -1,0 -0.5,0 -1,0 -0.5,0 -1,0 -0.5,0 -1,0 -0.5,0 -1,0 -0.5,0 -1,0 -0.5,0 -0.875,-0.125 -0.375,-0.125 -0.5,-0.5 Q 12,38 11.875,37.625 11.75,37.25 11.375,37.125 11,37 10.5,37 10,37 9.5,37 H 9 V 36.5 Q 9,36 9,35.5 9,35 9,34.5 9,34 8.875,33.625 8.75,33.25 8.375,33.125 8,33 7.5,33 7,33 6.5,33 6,33 5.5,33 5,33 4.5,33 4,33 3.5,33 3,33 2.5,33 H 2 V 32.5 Q 2,32 2,31.5 2,31 1.875,30.625 1.75,30.25 1.375,30.125 1,30 0.5,30 H 0 V 29.5 29 28.5 28 27.5 27 26.5 26 H 0.5 Q 1,26 1.375,25.875 1.75,25.75 1.875,25.375 2,25 2,24.5 2,24 2,23.5 m 0,9.125 V 33 33.125 33.25 33 q 0,-0.25 0,-0.5 v -0.25 0.375 M 26.125,37 H 26 25.625 25.25 25.5 q 0.25,0 0.5,0 h 0.25 -0.125 M 7,28.375 V 28 27.875 27.75 28 q 0,0.25 0,0.5 v 0.25 -0.375 m -2,-0.5 V 28 28.375 28.75 28.5 Q 5,28.25 5,28 v -0.25 0.125 m 0,-1.75 V 26 25.625 25.25 25.5 q 0,0.25 0,0.5 v 0.25 -0.125 M 2,22.875 V 23 23.375 23.75 23.5 Q 2,23.25 2,23 v -0.25 0.125 M 21,21.5 V 21 h 0.5 q 0.5,0 1,0 H 23 v 0.5 q 0,0.5 0,1 V 23 h -0.5 q -0.5,0 -1,0 H 21 v -0.5 q 0,-0.5 0,-1 M 23.125,21 H 23 22.625 22.25 22.5 q 0.25,0 0.5,0 h 0.25 -0.125 m -1.75,0 H 21 20.875 20.75 21 q 0.25,0 0.5,0 h 0.25 -0.375 m -7.25,0.625 q 0.125,-0.375 0.5,-0.5 Q 15,21 15.5,21 H 16 v 0.5 q 0,0.5 0,1 0,0.5 0,1 0,0.5 0,1 0,0.5 0,1 V 26 h -0.5 q -0.5,0 -0.875,0.125 -0.375,0.125 -0.5,0.5 Q 14,27 13.9375,27.5625 L 13.875,28.125 13.9375,28.1875 14,28.25 13.875,28.125 Q 13.75,28 13.5,28 H 13.25 13.625 14 13.5 Q 13,28 12.625,27.875 12.25,27.75 12.125,27.375 12,27 12,26.5 q 0,-0.5 0,-1 0,-0.5 0,-1 0,-0.5 0.125,-0.875 0.125,-0.375 0.5,-0.5 Q 13,23 13.375,22.875 13.75,22.75 13.875,22.375 14,22 14.125,21.625 M 16,26.125 V 26 25.625 25.25 25.5 q 0,0.25 0,0.5 v 0.25 -0.125 M 16.125,21 H 16 15.625 15.25 15.5 q 0.25,0 0.5,0 h 0.25 -0.125"
         inkscape:connector-curvature="0" />
      <path
         id="path6733"
         style="fill:#ffd0c0;fill-opacity:1"
         d="M 14.0625,35.4375 14.125,34.875 14.0625,34.8125 14,34.75 14.125,34.875 Q 14.25,35 14.5,35 H 14.75 14.375 14 14.5 q 0.5,0 1,0 0.5,0 1,0 0.5,0 1,0 0.5,0 0.875,0.125 0.375,0.125 0.5,0.5 Q 19,36 19,36.5 V 37 36.625 36.25 36.5 q 0,0.25 0.125,0.375 L 19.25,37 19.1875,36.9375 19.125,36.875 18.5625,36.9375 Q 18,37 17.5,37 q -0.5,0 -1,0 -0.5,0 -1,0 -0.5,0 -0.875,-0.125 -0.375,-0.125 -0.5,-0.5 Q 14,36 14.0625,35.4375 M 14.125,26.625 q 0.125,-0.375 0.5,-0.5 Q 15,26 15.5,26 H 16 v 0.5 q 0,0.5 0.125,0.875 0.125,0.375 0.5,0.5 Q 17,28 17.5,28 q 0.5,0 1,0 H 19 v 0.5 q 0,0.5 0,1 V 30 h -0.5 q -0.5,0 -1,0 -0.5,0 -0.875,0.125 -0.375,0.125 -0.5,0.5 Q 16,31 16,31.5 q 0,0.5 -0.125,0.875 -0.125,0.375 -0.5,0.5 Q 15,33 14.5,33 H 14 14.375 14.75 14.5 q -0.25,0 -0.375,0.125 L 14,33.25 14.0625,33.1875 14.125,33.125 13.5625,33.0625 Q 13,33 12.4375,32.9375 L 11.875,32.875 11.8125,32.9375 11.75,33 11.875,32.875 Q 12,32.75 12,32.5 V 32.25 32.625 33 32.5 q 0,-0.5 0,-1 0,-0.5 0.125,-0.875 0.125,-0.375 0.5,-0.5 Q 13,30 13.375,29.875 13.75,29.75 13.875,29.375 14,29 14,28.5 V 28 28.375 28.75 28.5 q 0,-0.25 -0.125,-0.375 L 13.75,28 l 0.0625,0.0625 0.0625,0.0625 0.0625,-0.5625 Q 14,27 14.125,26.625 M 18.625,30 H 19 19.125 19.25 19 q -0.25,0 -0.5,0 h -0.25 0.375 M 16,26.375 V 26 25.875 25.75 26 q 0,0.25 0,0.5 v 0.25 -0.375 M 21,23.5 V 23 h 0.5 q 0.5,0 1,0 H 23 v 0.5 q 0,0.5 0,1 0,0.5 0,1 0,0.5 0,1 0,0.5 0.125,0.875 0.125,0.375 0.5,0.5 Q 24,28 24.5,28 q 0.5,0 1,0 H 26 25.625 25.25 25.5 q 0.25,0 0.375,-0.125 L 26,27.75 25.9375,27.8125 25.875,27.875 26.4375,27.9375 Q 27,28 27.375,27.875 27.75,27.75 27.875,27.375 28,27 28,26.5 V 26 h 0.5 q 0.5,0 1,0 H 30 v 0.5 q 0,0.5 0,1 0,0.5 0,1 0,0.5 0,1 V 30 h -0.5 q -0.5,0 -1,0 -0.5,0 -1,0 -0.5,0 -1,0 -0.5,0 -1,0 -0.5,0 -1,0 -0.5,0 -0.875,-0.125 -0.375,-0.125 -0.5,-0.5 Q 23,29 22.875,28.625 22.75,28.25 22.375,28.125 22,28 21.4375,27.9375 L 20.875,27.875 20.8125,27.9375 20.75,28 20.875,27.875 Q 21,27.75 21,27.5 V 27.25 27.625 28 27.5 q 0,-0.5 0,-1 0,-0.5 0,-1 0,-0.5 0,-1 0,-0.5 0,-1 m 9,6.625 V 30 29.625 29.25 29.5 q 0,0.25 0,0.5 v 0.25 -0.125 M 30.125,26 H 30 29.625 29.25 29.5 q 0.25,0 0.5,0 h 0.25 -0.125 M 28,25.875 V 26 26.375 26.75 26.5 q 0,-0.25 0,-0.5 v -0.25 0.125 M 5,23.5 V 23 h 0.5 q 0.5,0 1,0 0.5,0 0.5,0.5 0,0.5 0,1 0,0.5 0,1 0,0.5 0,1 0,0.5 0,1 V 28 H 6.5 Q 6,28 5.5,28 H 5 v -0.5 q 0,-0.5 0,-1 0,-0.5 0,-1 0,-0.5 0,-1 0,-0.5 0,-1 m 0,4.125 V 28 28.125 28.25 28 q 0,-0.25 0,-0.5 v -0.25 0.375 m 2,0.5 V 28 27.625 27.25 27.5 q 0,0.25 0,0.5 v 0.25 -0.125"
         inkscape:connector-curvature="0" />
      <path
         id="path6755"
         style="fill:#ff4070;fill-opacity:1"
         d="M 21,42.5 V 42 h 0.5 q 0.5,0 1,0 0.5,0 1,0 0.5,0 1,0 0.5,0 1,0 H 26 v 0.5 q 0,0.5 0,1 V 44 h -0.5 q -0.5,0 -1,0 -0.5,0 -1,0 -0.5,0 -1,0 -0.5,0 -1,0 -0.5,0 -0.5,-0.5 0,-0.5 0,-1 M 25.625,44 H 26 26.125 26.25 26 q -0.25,0 -0.5,0 h -0.25 0.375 M 2.125,39.625 Q 2.25,39.25 2.625,39.125 3,39 3.5,39 4,39 4.5,39 H 5 v 0.5 q 0,0.5 0,1 0,0.5 -0.125,0.875 -0.125,0.375 -0.5,0.5 Q 4,42 3.5,42 3,42 2.5,42 H 2 V 41.5 Q 2,41 2,40.5 2,40 2.125,39.625 M 2,41.625 V 42 42.125 42.25 42 q 0,-0.25 0,-0.5 v -0.25 0.375 M 5.125,39 H 5 4.625 4.25 4.5 Q 4.75,39 5,39 H 5.25 5.125 M 28,23.5 V 23 h 0.5 q 0.5,0 1,0 0.5,0 1,0 0.5,0 1,0 0.5,0 1,0 0.5,0 0.5,0.5 0,0.5 0,1 0,0.5 0,1 V 26 h -0.5 q -0.5,0 -1,0 -0.5,0 -1,0 -0.5,0 -1,0 -0.5,0 -1,0 H 28 v -0.5 q 0,-0.5 0,-1 0,-0.5 0,-1 m 0,2.125 V 26 26.125 26.25 26 q 0,-0.25 0,-0.5 v -0.25 0.375 m 5,0.5 V 26 25.625 25.25 25.5 q 0,0.25 0,0.5 v 0.25 -0.125 m -5,-3.25 V 23 23.375 23.75 23.5 q 0,-0.25 0,-0.5 v -0.25 0.125 M 23,9.5 V 9 h 0.5 q 0.5,0 1,0 0.5,0 1,0 0.5,0 1,0 0.5,0 0.875,0.125 0.375,0.125 0.5,0.5 Q 28,10 28,10.5 q 0,0.5 0,1 V 12 H 27.5 Q 27,12 26.4375,12.0625 L 25.875,12.125 25.9375,12.1875 26,12.25 25.875,12.125 Q 25.75,12 25.5,12 H 25.25 25.625 26 25.5 q -0.5,0 -1,0 -0.5,0 -1,0 H 23 v -0.5 q 0,-0.5 0,-1 0,-0.5 0,-1 m 0,2.125 V 12 12.125 12.25 12 q 0,-0.25 0,-0.5 v -0.25 0.375 m 5,0.5 V 12 11.625 11.25 11.5 q 0,0.25 0,0.5 v 0.25 -0.125 M 23.375,9 H 23 22.875 22.75 23 q 0.25,0 0.5,0 h 0.25 -0.375 m -7.25,0.625 Q 16.25,9.25 16.625,9.125 17,9 17.5,9 q 0.5,0 1,0 0.5,0 1,0 0.5,0 1,0 H 21 v 0.5 q 0,0.5 0,1 0,0.5 0,1 V 12 h -0.5 q -0.5,0 -1,0 -0.5,0 -1,0 -0.5,0 -1,0 -0.5,0 -0.875,0.125 -0.375,0.125 -0.5,0.5 Q 16,13 15.875,13.375 15.75,13.75 15.375,13.875 15,14 14.5,14 q -0.5,0 -1,0 -0.5,0 -0.875,0.125 -0.375,0.125 -0.5,0.5 Q 12,15 11.875,15.375 11.75,15.75 11.375,15.875 11,16 10.5,16 10,16 9.625,16.125 9.25,16.25 9.125,16.625 9,17 9,17.5 9,18 8.875,18.375 8.75,18.75 8.375,18.875 8,19 7.5,19 H 7 V 18.5 Q 7,18 7,17.5 7,17 7.125,16.625 7.25,16.25 7.625,16.125 8,16 8.375,15.875 8.75,15.75 8.875,15.375 9,15 9.125,14.625 9.25,14.25 9.625,14.125 10,14 10.5,14 q 0.5,0 0.875,-0.125 0.375,-0.125 0.5,-0.5 Q 12,13 12.125,12.625 12.25,12.25 12.625,12.125 13,12 13.5,12 q 0.5,0 1,0 0.5,0 0.875,-0.125 0.375,-0.125 0.5,-0.5 Q 16,11 16,10.5 16,10 16.125,9.625 M 6.875,19 H 7 7.375 7.75 7.5 Q 7.25,19 7,19 H 6.75 6.875 M 21,12.125 V 12 11.625 11.25 11.5 q 0,0.25 0,0.5 v 0.25 -0.125 M 21.125,9 H 21 20.625 20.25 20.5 q 0.25,0 0.5,0 h 0.25 -0.125"
         inkscape:connector-curvature="0" />
      <path
         id="path6761"
         style="fill:#b02860;fill-opacity:1"
         d="M 23,44.5 V 44 h 0.5 q 0.5,0 1,0 0.5,0 1,0 0.5,0 1,0 0.5,0 0.875,0.125 0.375,0.125 0.5,0.5 Q 28,45 28,45.5 V 46 h -0.5 q -0.5,0 -1,0 -0.5,0 -1,0 -0.5,0 -1,0 -0.5,0 -1,0 H 23 v -0.5 q 0,-0.5 0,-1 m 5,1.625 V 46 45.625 45.25 45.5 q 0,0.25 0,0.5 v 0.25 -0.125 M 23.375,44 H 23 22.875 22.75 23 q 0.25,0 0.5,0 h 0.25 -0.375 M 28,37.5 V 37 h 0.5 q 0.5,0 1,0 H 30 v 0.5 q 0,0.5 0,1 0,0.5 0,1 0,0.5 0,1 0,0.5 0,1 V 42 H 29.5 Q 29,42 28.625,41.875 28.25,41.75 28.125,41.375 28,41 28,40.5 q 0,-0.5 0,-1 0,-0.5 0,-1 0,-0.5 0,-1 m 2,4.625 V 42 41.625 41.25 41.5 q 0,0.25 0,0.5 v 0.25 -0.125 m 0,-4.75 V 37 36.875 36.75 37 q 0,0.25 0,0.5 v 0.25 -0.375 M 28.375,37 H 28 27.875 27.75 28 q 0.25,0 0.5,0 h 0.25 -0.375 M 9,37.5 V 37 h 0.5 q 0.5,0 1,0 0.5,0 0.875,0.125 0.375,0.125 0.5,0.5 0.125,0.375 0.25,0.75 0.125,0.375 0.5,0.5 Q 13,39 13.5,39 q 0.5,0 1,0 0.5,0 1,0 H 16 v 0.5 q 0,0.5 0,1 0,0.5 0,1 0,0.5 0,1 0,0.5 0.125,0.875 0.125,0.375 0.5,0.5 Q 17,44 17.5,44 q 0.5,0 1,0 H 19 v 0.5 q 0,0.5 0,1 V 46 h -0.5 q -0.5,0 -1,0 -0.5,0 -1,0 H 16 V 45.5 Q 16,45 15.875,44.625 15.75,44.25 15.375,44.125 15,44 14.625,43.875 14.25,43.75 14.125,43.375 14,43 13.875,42.625 13.75,42.25 13.375,42.125 13,42 12.625,41.875 12.25,41.75 12.125,41.375 12,41 12,40.5 12,40 11.875,39.625 11.75,39.25 11.375,39.125 11,39 10.5,39 10,39 9.5,39 H 9 V 38.5 Q 9,38 9,37.5 M 8.875,39 H 9 9.375 9.75 9.5 Q 9.25,39 9,39 H 8.75 8.875 M 16,45.625 V 46 46.125 46.25 46 q 0,-0.25 0,-0.5 v -0.25 0.375 M 19.125,44 H 19 18.625 18.25 18.5 q 0.25,0 0.5,0 h 0.25 -0.125 m -3,-5 H 16 15.625 15.25 15.5 q 0.25,0 0.5,0 h 0.25 -0.125 M 26,12.5 V 12 12.375 12.75 12.5 q 0,-0.25 -0.125,-0.375 L 25.75,12 l 0.0625,0.0625 0.0625,0.0625 0.5625,-0.0625 Q 27,12 27.5,12 H 28 v 0.5 q 0,0.5 0,1 V 14 H 27.5 Q 27,14 26.4375,13.9375 L 25.875,13.875 25.8125,13.9375 25.75,14 25.875,13.875 Q 26,13.75 26,13.5 V 13.25 13.625 14 13.5 q 0,-0.5 0,-1 M 27.625,14 H 28 28.125 28.25 28 q -0.25,0 -0.5,0 h -0.25 0.375 M 28,12.375 V 12 11.875 11.75 12 q 0,0.25 0,0.5 v 0.25 -0.375 m -11.875,0.25 q 0.125,-0.375 0.5,-0.5 Q 17,12 17.5,12 q 0.5,0 1,0 H 19 v 0.5 q 0,0.5 0,1 V 14 h -0.5 q -0.5,0 -1,0 -0.5,0 -0.875,0.125 -0.375,0.125 -0.5,0.5 Q 16,15 15.875,15.375 15.75,15.75 15.375,15.875 15,16 14.5,16 q -0.5,0 -1,0 -0.5,0 -0.875,0.125 -0.375,0.125 -0.5,0.5 Q 12,17 12,17.5 q 0,0.5 -0.125,0.875 -0.125,0.375 -0.5,0.5 Q 11,19 10.5,19 10,19 9.625,19.125 9.25,19.25 9.125,19.625 9,20 9,20.5 9,21 9,21.5 9,22 8.875,22.375 8.75,22.75 8.375,22.875 8,23 7.4375,23.0625 L 6.875,23.125 6.9375,23.1875 7,23.25 6.875,23.125 Q 6.75,23 6.5,23 H 6.25 6.625 7 6.5 Q 6,23 5.5,23 H 5 V 22.5 Q 5,22 5,21.5 5,21 5,20.5 5,20 5.125,19.625 5.25,19.25 5.625,19.125 6,19 6.5,19 7,19 7.5,19 8,19 8.375,18.875 8.75,18.75 8.875,18.375 9,18 9,17.5 9,17 9.125,16.625 9.25,16.25 9.625,16.125 10,16 10.5,16 q 0.5,0 0.875,-0.125 0.375,-0.125 0.5,-0.5 Q 12,15 12.125,14.625 12.25,14.25 12.625,14.125 13,14 13.5,14 q 0.5,0 1,0 0.5,0 0.875,-0.125 0.375,-0.125 0.5,-0.5 Q 16,13 16.125,12.625 M 18.625,14 H 19 19.125 19.25 19 q -0.25,0 -0.5,0 h -0.25 0.375 m 0.5,-2 H 19 18.625 18.25 18.5 q 0.25,0 0.5,0 h 0.25 -0.125"
         inkscape:connector-curvature="0" />
      <path
         id="path6765"
         style="fill:#80d8cf;fill-opacity:1"
         d="M 19,46.5 V 46 h 0.5 q 0.5,0 1,0 0.5,0 1,0 0.5,0 1,0 H 23 v 0.5 q 0,0.5 0,1 0,0.5 0.125,0.875 0.125,0.375 0.5,0.5 Q 24,49 24.5,49 q 0.5,0 1,0 0.5,0 1,0 0.5,0 1,0 H 28 v 0.5 q 0,0.5 0,1 0,0.5 0,1 0,0.5 0,1 0,0.5 0,1 0,0.5 0,1 0,0.5 0,1 V 56 h -0.5 q -0.5,0 -1,0 -0.5,0 -1,0 -0.5,0 -1,0 -0.5,0 -0.875,0.125 -0.375,0.125 -0.5,0.5 Q 23,57 23,57.5 q 0,0.5 0,1 0,0.5 -0.125,0.875 -0.125,0.375 -0.5,0.5 Q 22,60 21.5,60 q -0.5,0 -1,0 -0.5,0 -1,0 H 19 V 59.5 Q 19,59 18.875,58.625 18.75,58.25 18.375,58.125 18,58 17.5,58 17,58 16.625,57.875 16.25,57.75 16.125,57.375 16,57 15.875,56.625 15.75,56.25 15.375,56.125 15,56 14.625,55.875 14.25,55.75 14.125,55.375 14,55 14,54.5 q 0,-0.5 0,-1 0,-0.5 0,-1 0,-0.5 0,-1 0,-0.5 0,-1 0,-0.5 0.125,-0.875 0.125,-0.375 0.5,-0.5 Q 15,49 15.5,49 q 0.5,0 1,0 0.5,0 1,0 0.5,0 0.875,-0.125 0.375,-0.125 0.5,-0.5 Q 19,48 19,47.5 q 0,-0.5 0,-1 m 0,13.125 V 60 60.125 60.25 60 q 0,-0.25 0,-0.5 v -0.25 0.375 M 21.5,53 q 0.5,0 0.875,-0.125 0.375,-0.125 0.5,-0.5 Q 23,52 23,51.5 23,51 23,50.5 23,50 22.875,49.625 22.75,49.25 22.375,49.125 22,49 21.5,49 q -0.5,0 -1,0 -0.5,0 -0.875,0.125 -0.375,0.125 -0.5,0.5 Q 19,50 19,50.5 q 0,0.5 0,1 0,0.5 0.125,0.875 0.125,0.375 0.5,0.5 Q 20,53 20.5,53 q 0.5,0 1,0"
         inkscape:connector-curvature="0" />
      <path
         id="path6767"
         style="fill:#500000;fill-opacity:1"
         d="M 23,46.5 V 46 h 0.5 q 0.5,0 1,0 0.5,0 1,0 0.5,0 1,0 0.5,0 1,0 H 28 v 0.5 q 0,0.5 0,1 0,0.5 0,1 V 49 h -0.5 q -0.5,0 -1,0 -0.5,0 -1,0 -0.5,0 -1,0 -0.5,0 -0.875,-0.125 -0.375,-0.125 -0.5,-0.5 Q 23,48 23,47.5 q 0,-0.5 0,-1 m 5,-0.125 V 46 45.875 45.75 46 q 0,0.25 0,0.5 v 0.25 -0.375 M 16,46.5 V 46 h 0.5 q 0.5,0 1,0 0.5,0 1,0 H 19 v 0.5 q 0,0.5 0,1 0,0.5 -0.125,0.875 -0.125,0.375 -0.5,0.5 Q 18,49 17.5,49 17,49 16.5,49 H 16 v -0.5 q 0,-0.5 0,-1 0,-0.5 0,-1 M 15.875,49 H 16 16.375 16.75 16.5 q -0.25,0 -0.5,0 h -0.25 0.125 M 16,45.875 V 46 46.375 46.75 46.5 q 0,-0.25 0,-0.5 v -0.25 0.125 M 16,39.5 V 39 h 0.5 q 0.5,0 1,0 0.5,0 1,0 0.5,0 1,0 0.5,0 1,0 H 21 v 0.5 q 0,0.5 0,1 0,0.5 0,1 V 42 h -0.5 q -0.5,0 -1,0 -0.5,0 -1,0 -0.5,0 -1,0 -0.5,0 -1,0 H 16 v -0.5 q 0,-0.5 0,-1 0,-0.5 0,-1 m 0,2.125 V 42 42.125 42.25 42 q 0,-0.25 0,-0.5 v -0.25 0.375 M 21.125,39 H 21 20.625 20.25 20.5 q 0.25,0 0.5,0 h 0.25 -0.125 m -4.75,0 H 16 15.875 15.75 16 q 0.25,0 0.5,0 h 0.25 -0.375 M 2.125,37.625 Q 2.25,37.25 2.625,37.125 3,37 3.5,37 4,37 4.5,37 H 5 4.625 4.25 4.5 q 0.25,0 0.375,-0.125 L 5,36.75 4.9375,36.8125 4.875,36.875 5.4375,36.9375 Q 6,37 6.5,37 q 0.5,0 1,0 0.5,0 1,0 H 9 v 0.5 q 0,0.5 0,1 V 39 H 8.5 Q 8,39 7.5,39 7,39 6.5,39 6,39 5.5,39 5,39 4.5,39 4,39 3.5,39 3,39 2.625,39.125 2.25,39.25 2.125,39.625 2,40 2,40.5 q 0,0.5 0,1 0,0.5 0,1 0,0.5 -0.125,0.875 -0.125,0.375 -0.5,0.5 Q 1,44 0.5,44 H 0 V 43.5 43 42.5 42 41.5 41 40.5 40 39.5 39 H 0.5 Q 1,39 1.375,38.875 1.75,38.75 1.875,38.375 2,38 2.125,37.625 M 8.625,39 H 9 9.125 9.25 9 Q 8.75,39 8.5,39 H 8.25 8.625 m 24.5,-17.375 q 0.125,-0.375 0.5,-0.5 Q 34,21 34.5,21 H 35 v 0.5 q 0,0.5 0,1 0,0.5 0,1 0,0.5 0,1 0,0.5 0,1 0,0.5 0,1 0,0.5 -0.125,0.875 -0.125,0.375 -0.5,0.5 Q 34,28 33.5,28 H 33 33.375 33.75 33.5 q -0.25,0 -0.375,0.125 L 33,28.25 33.0625,28.1875 33.125,28.125 33.0625,27.5625 Q 33,27 33,26.5 q 0,-0.5 0,-1 0,-0.5 0,-1 0,-0.5 0,-1 V 23 23.375 23.75 23.5 q 0,-0.25 -0.125,-0.375 L 32.75,23 l 0.0625,0.0625 0.0625,0.0625 0.0625,-0.5625 Q 33,22 33.125,21.625 M 35,21.375 V 21 20.875 20.75 21 q 0,0.25 0,0.5 v 0.25 -0.375 M 33,14.5 V 14 h 0.5 q 0.5,0 1,0 H 35 v 0.5 q 0,0.5 0,1 V 16 H 34.5 Q 34,16 33.625,15.875 33.25,15.75 33.125,15.375 33,15 33,14.5 m 2,1.625 V 16 15.625 15.25 15.5 q 0,0.25 0,0.5 v 0.25 -0.125 m 0,-1.75 V 14 13.875 13.75 14 q 0,0.25 0,0.5 v 0.25 -0.375 M 33.375,14 H 33 32.875 32.75 33 q 0.25,0 0.5,0 h 0.25 -0.375 M 16.125,7.625 Q 16.25,7.25 16.625,7.125 17,7 17.5,7 q 0.5,0 1,0 0.5,0 1,0 0.5,0 1,0 H 21 20.625 20.25 20.5 q 0.25,0 0.375,-0.125 L 21,6.75 20.9375,6.8125 20.875,6.875 21.4375,6.9375 Q 22,7 22.5625,6.9375 L 23.125,6.875 23.0625,6.8125 23,6.75 23.125,6.875 Q 23.25,7 23.5,7 H 23.75 23.375 23 23.5 q 0.5,0 1,0 0.5,0 1,0 0.5,0 1,0 0.5,0 0.875,0.125 0.375,0.125 0.5,0.5 Q 28,8 28.125,8.375 28.25,8.75 28.625,8.875 29,9 29.375,9.125 29.75,9.25 29.875,9.625 30,10 30,10.5 q 0,0.5 0,1 V 12 11.625 11.25 11.5 q 0,0.25 0.125,0.375 L 30.25,12 30.1875,11.9375 30.125,11.875 30.0625,12.4375 Q 30,13 30,13.5 V 14 h -0.5 q -0.5,0 -1,0 H 28 v -0.5 q 0,-0.5 0,-1 0,-0.5 0,-1 0,-0.5 0,-1 Q 28,10 27.875,9.625 27.75,9.25 27.375,9.125 27,9 26.5,9 26,9 25.5,9 25,9 24.5,9 24,9 23.5,9 23,9 22.5,9 22,9 21.5,9 21,9 20.5,9 20,9 19.5,9 19,9 18.5,9 18,9 17.5,9 17,9 16.625,9.125 16.25,9.25 16.125,9.625 16,10 16,10.5 q 0,0.5 -0.125,0.875 -0.125,0.375 -0.5,0.5 Q 15,12 14.5,12 q -0.5,0 -1,0 -0.5,0 -0.875,0.125 -0.375,0.125 -0.5,0.5 Q 12,13 11.875,13.375 11.75,13.75 11.375,13.875 11,14 10.5,14 10,14 9.625,14.125 9.25,14.25 9.125,14.625 9,15 8.875,15.375 8.75,15.75 8.375,15.875 8,16 7.625,16.125 7.25,16.25 7.125,16.625 7,17 7,17.5 7,18 7,18.5 V 19 H 6.5 Q 6,19 5.625,19.125 5.25,19.25 5.125,19.625 5,20 5,20.5 q 0,0.5 0,1 0,0.5 0,1 V 23 H 4.5 Q 4,23 3.5,23 3,23 2.5,23 H 2 V 22.5 Q 2,22 2,21.5 2,21 2,20.5 2,20 2.125,19.625 2.25,19.25 2.625,19.125 3,19 3.5,19 4,19 4.375,18.875 4.75,18.75 4.875,18.375 5,18 5,17.5 5,17 5.125,16.625 5.25,16.25 5.625,16.125 6,16 6.375,15.875 6.75,15.75 6.875,15.375 7,15 7.125,14.625 7.25,14.25 7.625,14.125 8,14 8.375,13.875 8.75,13.75 8.875,13.375 9,13 9.125,12.625 9.25,12.25 9.625,12.125 10,12 10.5,12 q 0.5,0 0.875,-0.125 0.375,-0.125 0.5,-0.5 Q 12,11 12,10.5 12,10 12.125,9.625 12.25,9.25 12.625,9.125 13,9 13.5,9 14,9 14.5,9 15,9 15.375,8.875 15.75,8.75 15.875,8.375 16,8 16.125,7.625 M 2,22.625 V 23 23.125 23.25 23 q 0,-0.25 0,-0.5 v -0.25 0.375 M 6.625,19 H 7 7.125 7.25 7 Q 6.75,19 6.5,19 H 6.25 6.625 m 21.25,-5 H 28 28.375 28.75 28.5 q -0.25,0 -0.5,0 h -0.25 0.125 m 1.75,0 H 30 30.125 30.25 30 q -0.25,0 -0.5,0 h -0.25 0.375"
         inkscape:connector-curvature="0" />
      <path
         id="path6771"
         style="fill:#fff8ff;fill-opacity:1"
         d="m 19.125,49.625 q 0.125,-0.375 0.5,-0.5 Q 20,49 20.5,49 q 0.5,0 1,0 0.5,0 0.875,0.125 0.375,0.125 0.5,0.5 Q 23,50 23,50.5 q 0,0.5 0,1 0,0.5 -0.125,0.875 -0.125,0.375 -0.5,0.5 Q 22,53 21.5,53 21,53 20.5,53 20,53 19.625,52.875 19.25,52.75 19.125,52.375 19,52 19,51.5 q 0,-0.5 0,-1 0,-0.5 0.125,-0.875 m -14,-7 Q 5.25,42.25 5.625,42.125 6,42 6.5,42 q 0.5,0 1,0 0.5,0 0.875,0.125 0.375,0.125 0.5,0.5 Q 9,43 9.125,43.375 9.25,43.75 9.625,43.875 10,44 10.5,44 q 0.5,0 1,0 0.5,0 1,0 0.5,0 0.875,0.125 0.375,0.125 0.5,0.5 Q 14,45 14,45.5 q 0,0.5 0,1 0,0.5 0,1 0,0.5 -0.125,0.875 -0.125,0.375 -0.5,0.5 Q 13,49 12.625,49.125 12.25,49.25 12.125,49.625 12,50 11.875,50.375 11.75,50.75 11.375,50.875 11,51 10.5,51 10,51 9.5,51 9,51 8.5,51 8,51 7.5,51 7,51 6.5,51 6,51 5.625,50.875 5.25,50.75 5.125,50.375 5,50 4.875,49.625 4.75,49.25 4.375,49.125 4,49 3.5,49 3,49 2.5,49 H 2 V 48.5 Q 2,48 2,47.5 2,47 2,46.5 2,46 2,45.5 2,45 2.125,44.625 2.25,44.25 2.625,44.125 3,44 3.5,44 4,44 4.375,43.875 4.75,43.75 4.875,43.375 5,43 5.125,42.625 M 23,21.5 V 21 h 0.5 q 0.5,0 1,0 0.5,0 1,0 0.5,0 1,0 0.5,0 0.875,0.125 0.375,0.125 0.5,0.5 Q 28,22 28,22.5 q 0,0.5 0,1 0,0.5 0,1 0,0.5 0,1 0,0.5 0,1 0,0.5 -0.125,0.875 -0.125,0.375 -0.5,0.5 Q 27,28 26.4375,27.9375 L 25.875,27.875 25.8125,27.9375 25.75,28 25.875,27.875 Q 26,27.75 26,27.5 V 27.25 27.625 28 27.5 q 0,-0.5 0,-1 0,-0.5 0,-1 0,-0.5 0,-1 0,-0.5 -0.125,-0.875 -0.125,-0.375 -0.5,-0.5 Q 25,23 24.5,23 24,23 23.5,23 H 23 v -0.5 q 0,-0.5 0,-1 M 23.375,21 H 23 22.875 22.75 23 q 0.25,0 0.5,0 h 0.25 -0.375 M 16,21.5 V 21 h 0.5 q 0.5,0 1,0 0.5,0 1,0 0.5,0 1,0 0.5,0 1,0 H 21 v 0.5 q 0,0.5 0,1 V 23 h -0.5 q -0.5,0 -0.875,0.125 -0.375,0.125 -0.5,0.5 Q 19,24 19,24.5 q 0,0.5 0,1 0,0.5 0,1 0,0.5 0,1 V 28 h -0.5 q -0.5,0 -1,0 -0.5,0 -0.875,-0.125 -0.375,-0.125 -0.5,-0.5 Q 16,27 16,26.5 q 0,-0.5 0,-1 0,-0.5 0,-1 0,-0.5 0,-1 0,-0.5 0,-1 0,-0.5 0,-1 M 21.125,21 H 21 20.625 20.25 20.5 q 0.25,0 0.5,0 h 0.25 -0.125 m -4.75,0 H 16 15.875 15.75 16 q 0.25,0 0.5,0 h 0.25 -0.375 M 23,12.5 V 12 h 0.5 q 0.5,0 1,0 0.5,0 1,0 0.5,0 0.5,0.5 0,0.5 0,1 0,0.5 -0.5,0.5 -0.5,0 -1,0 -0.5,0 -1,0 H 23 v -0.5 q 0,-0.5 0,-1 M 22.875,14 H 23 23.375 23.75 23.5 q -0.25,0 -0.5,0 h -0.25 0.125 M 23,11.875 V 12 12.375 12.75 12.5 q 0,-0.25 0,-0.5 v -0.25 0.125 M 26,2.5 V 2 h 0.5 q 0.5,0 1,0 0.5,0 1,0 0.5,0 1,0 0.5,0 1,0 0.5,0 1,0 0.5,0 1,0 H 33 v 0.5 q 0,0.5 0,1 0,0.5 -0.125,0.875 -0.125,0.375 -0.5,0.5 Q 32,5 31.5,5 31,5 30.625,5.125 30.25,5.25 30.125,5.625 30,6 30,6.5 q 0,0.5 0,1 0,0.5 0.125,0.875 0.125,0.375 0.5,0.5 Q 31,9 31.5,9 32,9 32.375,8.875 32.75,8.75 32.875,8.375 33,8 33,7.5 33,7 33,6.5 33,6 33.125,5.625 33.25,5.25 33.625,5.125 34,5 34.5,5 H 35 v 0.5 q 0,0.5 0,1 0,0.5 0,1 0,0.5 0,1 0,0.5 0,1 0,0.5 0,1 0,0.5 0,1 V 12 h -0.5 q -0.5,0 -1,0 -0.5,0 -1,0 -0.5,0 -1,0 -0.5,0 -1,0 Q 30,12 30,11.5 30,11 30,10.5 30,10 29.875,9.625 29.75,9.25 29.375,9.125 29,9 28.625,8.875 28.25,8.75 28.125,8.375 28,8 27.875,7.625 27.75,7.25 27.375,7.125 27,7 26.5,7 26,7 25.5,7 25,7 24.5,7 24,7 23.5,7 23,7 23,6.5 23,6 23.125,5.625 23.25,5.25 23.625,5.125 24,5 24.5,5 25,5 25.375,4.875 25.75,4.75 25.875,4.375 26,4 26,3.5 26,3 26,2.5"
         inkscape:connector-curvature="0" />
      <path
         id="path6777"
         style="fill:#20308f;fill-opacity:1"
         d="M 5,53.5 V 53 h 0.5 q 0.5,0 1,0 0.5,0 1,0 0.5,0 1,0 H 9 v 0.5 q 0,0.5 0,1 0,0.5 0,1 0,0.5 0,1 0,0.5 0.125,0.875 0.125,0.375 0.5,0.5 Q 10,58 10.5,58 q 0.5,0 0.875,0.125 0.375,0.125 0.5,0.5 0.125,0.375 0.25,0.75 0.125,0.375 0.5,0.5 Q 13,60 13.5,60 q 0.5,0 1,0 0.5,0 0.875,0.125 0.375,0.125 0.5,0.5 Q 16,61 16,61.5 q 0,0.5 0.125,0.875 0.125,0.375 0.5,0.5 Q 17,63 17.5,63 q 0.5,0 0.875,-0.125 0.375,-0.125 0.5,-0.5 Q 19,62 19,61.5 19,61 19,60.5 V 60 h 0.5 q 0.5,0 1,0 0.5,0 1,0 0.5,0 0.875,-0.125 0.375,-0.125 0.5,-0.5 Q 23,59 23,58.5 q 0,-0.5 0,-1 0,-0.5 0.125,-0.875 0.125,-0.375 0.5,-0.5 Q 24,56 24.5,56 q 0.5,0 1,0 H 26 v 0.5 q 0,0.5 0,1 0,0.5 0,1 0,0.5 0,1 0,0.5 0,1 0,0.5 0,1 0,0.5 0,1 0,0.5 0,1 0,0.5 0,1 V 65 h -0.5 q -0.5,0 -1,0 -0.5,0 -0.875,-0.125 -0.375,-0.125 -0.5,-0.5 Q 23,64 22.875,63.625 22.75,63.25 22.375,63.125 22,63 21.5,63 q -0.5,0 -1,0 -0.5,0 -0.875,0.125 -0.375,0.125 -0.5,0.5 Q 19,64 18.875,64.375 18.75,64.75 18.375,64.875 18,65 17.5,65 q -0.5,0 -1,0 -0.5,0 -1,0 -0.5,0 -1,0 -0.5,0 -1,0 -0.5,0 -1,0 H 12 12.375 12.75 12.5 q -0.25,0 -0.375,0.125 L 12,65.25 12.0625,65.1875 12.125,65.125 11.5625,65.0625 Q 11,65 10.5,65 10,65 9.5,65 H 9 V 64.5 Q 9,64 8.875,63.625 8.75,63.25 8.375,63.125 8,63 7.625,62.875 7.25,62.75 7.125,62.375 7,62 7,61.5 7,61 6.875,60.625 6.75,60.25 6.375,60.125 6,60 5.5,60 H 5 V 59.5 Q 5,59 4.9375,58.4375 L 4.875,57.875 4.8125,57.9375 4.75,58 4.875,57.875 Q 5,57.75 5,57.5 V 57.25 57.625 58 57.5 Q 5,57 5,56.5 5,56 5,55.5 5,55 5,54.5 5,54 5,53.5 M 4.875,60 H 5 5.375 5.75 5.5 Q 5.25,60 5,60 H 4.75 4.875 M 9,64.625 V 65 65.125 65.25 65 q 0,-0.25 0,-0.5 v -0.25 0.375 M 26.125,56 H 26 25.625 25.25 25.5 q 0.25,0 0.5,0 h 0.25 -0.125 M 19,59.875 V 60 60.375 60.75 60.5 q 0,-0.25 0,-0.5 v -0.25 0.125 M 9.125,53 H 9 8.625 8.25 8.5 Q 8.75,53 9,53 H 9.25 9.125 M 5,52.875 V 53 53.375 53.75 53.5 Q 5,53.25 5,53 v -0.25 0.125 M 16,42.5 V 42 h 0.5 q 0.5,0 1,0 0.5,0 1,0 0.5,0 1,0 0.5,0 1,0 H 21 v 0.5 q 0,0.5 0,1 V 44 43.625 43.25 43.5 q 0,0.25 0.125,0.375 L 21.25,44 21.1875,43.9375 21.125,43.875 20.5625,43.9375 Q 20,44 19.5,44 q -0.5,0 -1,0 -0.5,0 -1,0 -0.5,0 -0.875,-0.125 -0.375,-0.125 -0.5,-0.5 Q 16,43 16,42.5 m 0,-0.625 V 42 42.375 42.75 42.5 q 0,-0.25 0,-0.5 v -0.25 0.125 m 10.125,-2.25 q 0.125,-0.375 0.5,-0.5 Q 27,39 27.5,39 H 28 v 0.5 q 0,0.5 0,1 0,0.5 0.125,0.875 0.125,0.375 0.5,0.5 Q 29,42 29.5,42 H 30 v 0.5 q 0,0.5 0.125,0.875 0.125,0.375 0.5,0.5 Q 31,44 31.5,44 q 0.5,0 0.875,0.125 0.375,0.125 0.5,0.5 Q 33,45 33,45.5 q 0,0.5 0,1 0,0.5 0,1 0,0.5 -0.125,0.875 -0.125,0.375 -0.5,0.5 Q 32,49 31.5,49 31,49 30.5,49 H 30 v -0.5 q 0,-0.5 0,-1 0,-0.5 0,-1 0,-0.5 0,-1 0,-0.5 -0.125,-0.875 -0.125,-0.375 -0.5,-0.5 Q 29,44 28.625,43.875 28.25,43.75 28.125,43.375 28,43 27.875,42.625 27.75,42.25 27.375,42.125 27,42 26.5,42 H 26 v -0.5 q 0,-0.5 0,-1 0,-0.5 0.125,-0.875 M 29.875,49 H 30 30.375 30.75 30.5 q -0.25,0 -0.5,0 h -0.25 0.125 M 30,42.375 V 42 41.875 41.75 42 q 0,0.25 0,0.5 v 0.25 -0.375 m -2,-3 V 39 38.875 38.75 39 q 0,0.25 0,0.5 v 0.25 -0.375"
         inkscape:connector-curvature="0" />
      <path
         id="path6779"
         style="fill:#40809f;fill-opacity:1"
         d="M 28,53.5 V 53 h 0.5 q 0.5,0 1,0 H 30 v 0.5 q 0,0.5 0,1 0,0.5 0,1 V 56 h -0.5 q -0.5,0 -1,0 H 28 v -0.5 q 0,-0.5 0,-1 0,-0.5 0,-1 M 30.125,53 H 30 29.625 29.25 29.5 q 0.25,0 0.5,0 h 0.25 -0.125 M 28,52.875 V 53 53.375 53.75 53.5 q 0,-0.25 0,-0.5 v -0.25 0.125 m -15.875,-1.25 q 0.125,-0.375 0.5,-0.5 Q 13,51 13.5,51 H 14 v 0.5 q 0,0.5 0,1 0,0.5 0,1 0,0.5 0,1 0,0.5 0.125,0.875 0.125,0.375 0.5,0.5 0.375,0.125 0.75,0.25 0.375,0.125 0.5,0.5 0.125,0.375 0.25,0.75 0.125,0.375 0.5,0.5 Q 17,58 17.5,58 q 0.5,0 0.875,0.125 0.375,0.125 0.5,0.5 Q 19,59 19,59.5 q 0,0.5 0,1 0,0.5 0,1 0,0.5 -0.125,0.875 -0.125,0.375 -0.5,0.5 Q 18,63 17.5,63 17,63 16.625,62.875 16.25,62.75 16.125,62.375 16,62 16,61.5 16,61 15.875,60.625 15.75,60.25 15.375,60.125 15,60 14.5,60 14,60 13.5,60 13,60 12.625,59.875 12.25,59.75 12.125,59.375 12,59 11.875,58.625 11.75,58.25 11.375,58.125 11,58 10.5,58 10,58 9.625,57.875 9.25,57.75 9.125,57.375 9,57 9,56.5 9,56 9,55.5 9,55 9,54.5 9,54 9,53.5 V 53 h 0.5 q 0.5,0 1,0 0.5,0 0.875,-0.125 0.375,-0.125 0.5,-0.5 Q 12,52 12.125,51.625 M 9.375,53 H 9 8.875 8.75 9 q 0.25,0 0.5,0 H 9.75 9.375 M 14,51.375 V 51 50.875 50.75 51 q 0,0.25 0,0.5 v 0.25 -0.375 M 19,44.5 V 44 h 0.5 q 0.5,0 1.0625,-0.0625 L 21.125,43.875 21.0625,43.8125 21,43.75 21.125,43.875 Q 21.25,44 21.5,44 H 21.75 21.375 21 21.5 q 0.5,0 1,0 H 23 v 0.5 q 0,0.5 0,1 V 46 h -0.5 q -0.5,0 -1,0 -0.5,0 -1,0 -0.5,0 -1,0 H 19 v -0.5 q 0,-0.5 0,-1 M 23.125,44 H 23 22.625 22.25 22.5 q 0.25,0 0.5,0 h 0.25 -0.125 m -3.75,0 H 19 18.875 18.75 19 q 0.25,0 0.5,0 h 0.25 -0.375 M 26,42.5 V 42 h 0.5 q 0.5,0 0.875,0.125 0.375,0.125 0.5,0.5 0.125,0.375 0.25,0.75 0.125,0.375 0.5,0.5 0.375,0.125 0.75,0.25 0.375,0.125 0.5,0.5 Q 30,45 30,45.5 q 0,0.5 0,1 0,0.5 0,1 0,0.5 0,1 V 49 h -0.5 q -0.5,0 -1,0 H 28 v -0.5 q 0,-0.5 0,-1 0,-0.5 0,-1 0,-0.5 0,-1 0,-0.5 -0.125,-0.875 -0.125,-0.375 -0.5,-0.5 Q 27,44 26.5,44 H 26 v -0.5 q 0,-0.5 0,-1 M 25.875,44 H 26 26.375 26.75 26.5 q -0.25,0 -0.5,0 h -0.25 0.125 m 3.75,5 H 30 30.125 30.25 30 q -0.25,0 -0.5,0 h -0.25 0.375"
         inkscape:connector-curvature="0" />
      <path
         id="path6789"
         style="display:inline;fill:#000000;fill-opacity:1"
         d="M 2.125,58.625 Q 2.25,58.25 2.625,58.125 3,58 3.5,58 4,58 4.5,58 H 5 4.625 4.25 4.5 q 0.25,0 0.375,-0.125 L 5,57.75 4.9375,57.8125 4.875,57.875 4.9375,58.4375 Q 5,59 5,59.5 V 60 H 4.5 Q 4,60 3.5,60 3,60 2.625,60.125 2.25,60.25 2.125,60.625 2,61 2,61.5 q 0,0.5 0,1 0,0.5 0,1 0,0.5 0,1 0,0.5 0,1 0,0.5 0,1 0,0.5 0,1 0,0.5 0,1 0,0.5 0.125,0.875 0.125,0.375 0.5,0.5 Q 3,70 3.5,70 4,70 4.5625,69.9375 L 5.125,69.875 5.0625,69.8125 5,69.75 5.125,69.875 Q 5.25,70 5.5,70 H 5.75 5.375 5 5.5 Q 6,70 6.375,69.875 6.75,69.75 6.875,69.375 7,69 7,68.5 7,68 7,67.5 V 67 67.375 67.75 67.5 Q 7,67.25 6.875,67.125 L 6.75,67 6.8125,67.0625 6.875,67.125 7.4375,67.0625 Q 8,67 8.375,66.875 8.75,66.75 8.875,66.375 9,66 9,65.5 V 65 h 0.5 q 0.5,0 1,0 0.5,0 1.0625,0.0625 L 12.125,65.125 12.1875,65.0625 12.25,65 12.125,65.125 Q 12,65.25 12,65.5 V 65.75 65.375 65 65.5 q 0,0.5 -0.125,0.875 -0.125,0.375 -0.5,0.5 Q 11,67 10.5,67 10,67 9.625,67.125 9.25,67.25 9.125,67.625 9,68 9,68.5 9,69 8.875,69.375 8.75,69.75 8.375,69.875 8,70 7.625,70.125 7.25,70.25 7.125,70.625 7,71 7,71.5 V 72 H 6.5 6 5.5 5 4.5 4 3.5 3 2.5 2 V 71.5 Q 2,71 1.875,70.625 1.75,70.25 1.375,70.125 1,70 0.5,70 H 0 V 69.5 69 68.5 68 67.5 67 66.5 66 65.5 65 64.5 64 63.5 63 62.5 62 61.5 61 60.5 60 H 0.5 Q 1,60 1.375,59.875 1.75,59.75 1.875,59.375 2,59 2.125,58.625 M 9,64.875 V 65 65.375 65.75 65.5 Q 9,65.25 9,65 v -0.25 0.125 M 4.625,60 H 5 5.125 5.25 5 Q 4.75,60 4.5,60 H 4.25 4.625 M 26,56.5 V 56 h 0.5 q 0.5,0 1,0 H 28 v 0.5 q 0,0.5 -0.125,0.875 -0.125,0.375 -0.5,0.5 Q 27,58 26.5,58 H 26 v -0.5 q 0,-0.5 0,-1 m 0,1.125 V 58 58.125 58.25 58 q 0,-0.25 0,-0.5 v -0.25 0.375 M 26.375,56 H 26 25.875 25.75 26 q 0.25,0 0.5,0 h 0.25 -0.375 M 30,53.5 V 53 h 0.5 q 0.5,0 1,0 0.5,0 1,0 h 0.5 0.5 q 0.5,0 0.875,0.125 0.375,0.125 0.5,0.5 Q 35,54 35,54.5 q 0,0.5 0.125,0.875 0.125,0.375 0.5,0.5 Q 36,56 36.5,56 H 37 v 0.5 0.5 0.5 0.5 0.5 0.5 0.5 0.5 0.5 0.5 0.5 0.5 0.5 0.5 0.5 0.5 0.5 0.5 h -0.5 q -0.5,0 -0.875,0.125 -0.375,0.125 -0.5,0.5 Q 35,66 34.875,66.375 34.75,66.75 34.375,66.875 34,67 33.625,67.125 33.25,67.25 33.125,67.625 33,68 33,68.5 q 0,0.5 -0.125,0.875 -0.125,0.375 -0.5,0.5 Q 32,70 31.5,70 q -0.5,0 -1,0 -0.5,0 -1,0 -0.5,0 -0.875,-0.125 -0.375,-0.125 -0.5,-0.5 Q 28,69 28,68.5 28,68 27.875,67.625 27.75,67.25 27.375,67.125 27,67 26.625,66.875 26.25,66.75 26.125,66.375 26,66 26,65.5 V 65 h 0.5 q 0.5,0 0.875,-0.125 0.375,-0.125 0.5,-0.5 Q 28,64 28.125,63.625 28.25,63.25 28.625,63.125 29,63 29.375,62.875 29.75,62.75 29.875,62.375 30,62 30,61.5 q 0,-0.5 0,-1 0,-0.5 0,-1 0,-0.5 0.0625,-1.0625 L 30.125,57.875 30.0625,57.8125 30,57.75 30.125,57.875 Q 30.25,58 30.5,58 H 30.75 30.375 30 30.5 q 0.5,0 1,0 0.5,0 0.875,-0.125 0.375,-0.125 0.5,-0.5 0.125,-0.375 0,-0.75 -0.125,-0.375 -0.5,-0.5 Q 32,56 31.5,56 31,56 30.5,56 H 30 v -0.5 q 0,-0.5 0,-1 0,-0.5 0,-1 M 30.375,53 H 30 29.875 29.75 30 q 0.25,0 0.5,0 h 0.25 -0.375 M 2,33.5 V 33 h 0.5 q 0.5,0 1,0 0.5,0 1,0 0.5,0 1,0 0.5,0 1,0 0.5,0 1,0 0.5,0 0.875,0.125 0.375,0.125 0.5,0.5 Q 9,34 9,34.5 q 0,0.5 0,1 0,0.5 0,1 V 37 H 8.5 Q 8,37 7.5,37 7,37 6.5,37 6,37 5.4375,36.9375 L 4.875,36.875 4.8125,36.9375 4.75,37 4.875,36.875 Q 5,36.75 5,36.5 V 36.25 36.625 37 36.5 Q 5,36 4.875,35.625 4.75,35.25 4.375,35.125 4,35 3.5,35 3,35 2.625,34.875 2.25,34.75 2.125,34.375 2,34 2,33.5 M 2,32.875 V 33 33.375 33.75 33.5 Q 2,33.25 2,33 v -0.25 0.125 m 14.125,-2.25 q 0.125,-0.375 0.5,-0.5 Q 17,30 17.5,30 q 0.5,0 1,0 0.5,0 1,0 0.5,0 1,0 H 21 v 0.5 q 0,0.5 0,1 0,0.5 0.125,0.875 0.125,0.375 0.5,0.5 Q 22,33 22.5,33 q 0.5,0 1,0 0.5,0 1,0 0.5,0 1,0 0.5,0 1,0 0.5,0 1,0 0.5,0 1,0 0.5,0 1,0 0.5,0 1,0 0.5,0 1,0 0.5,0 1,0 H 33 v 0.5 q 0,0.5 -0.125,0.875 -0.125,0.375 -0.5,0.5 Q 32,35 31.5,35 31,35 30.625,35.125 30.25,35.25 30.125,35.625 30,36 30,36.5 V 37 h -0.5 q -0.5,0 -1,0 -0.5,0 -1,0 -0.5,0 -1,0 -0.5,0 -1,0 -0.5,0 -1,0 -0.5,0 -1,0 -0.5,0 -1,0 -0.5,0 -1,0 -0.5,0 -1,0 -0.5,0 -1,0 Q 19,37 19,36.5 19,36 18.875,35.625 18.75,35.25 18.375,35.125 18,35 17.5,35 q -0.5,0 -1,0 -0.5,0 -1,0 -0.5,0 -1,0 -0.5,0 -0.5,-0.5 0,-0.5 0,-1 0,-0.5 0.5,-0.5 0.5,0 0.875,-0.125 0.375,-0.125 0.5,-0.5 Q 16,32 16,31.5 16,31 16.125,30.625 M 30,37.125 V 37 36.625 36.25 36.5 q 0,0.25 0,0.5 v 0.25 -0.125 m 3,-3.75 V 33 32.875 32.75 33 q 0,0.25 0,0.5 v 0.25 -0.375 M 21.125,30 H 21 20.625 20.25 20.5 q 0.25,0 0.5,0 h 0.25 -0.125 M 23,23.5 V 23 h 0.5 q 0.5,0 1,0 0.5,0 0.875,0.125 0.375,0.125 0.5,0.5 Q 26,24 26,24.5 q 0,0.5 0,1 0,0.5 0,1 0,0.5 0,1 0,0.5 -0.5,0.5 -0.5,0 -1,0 -0.5,0 -0.875,-0.125 -0.375,-0.125 -0.5,-0.5 Q 23,27 23,26.5 q 0,-0.5 0,-1 0,-0.5 0,-1 0,-0.5 0,-1 m -3.875,0.125 q 0.125,-0.375 0.5,-0.5 Q 20,23 20.5,23 H 21 v 0.5 q 0,0.5 0,1 0,0.5 0,1 0,0.5 0,1 0,0.5 0,1 0,0.5 -0.5,0.5 -0.5,0 -1,0 H 19 v -0.5 q 0,-0.5 0,-1 0,-0.5 0,-1 0,-0.5 0,-1 0,-0.5 0.125,-0.875 m -3,-9 q 0.125,-0.375 0.5,-0.5 Q 17,14 17.5,14 q 0.5,0 1,0 0.5,0 1,0 0.5,0 1,0 0.5,0 1,0 0.5,0 1,0 0.5,0 1,0 0.5,0 1,0 0.5,0 1,0 H 26 25.625 25.25 25.5 q 0.25,0 0.375,-0.125 L 26,13.75 25.9375,13.8125 25.875,13.875 26.4375,13.9375 Q 27,14 27.5,14 q 0.5,0 1,0 0.5,0 1,0 0.5,0 1,0 0.5,0 1,0 0.5,0 1,0 H 33 v 0.5 q 0,0.5 0.125,0.875 0.125,0.375 0.5,0.5 Q 34,16 34.5,16 H 35 v 0.5 q 0,0.5 0,1 0,0.5 0,1 0,0.5 0,1 0,0.5 0,1 V 21 h -0.5 q -0.5,0 -0.875,0.125 -0.375,0.125 -0.5,0.5 Q 33,22 32.9375,22.5625 L 32.875,23.125 32.9375,23.1875 33,23.25 32.875,23.125 Q 32.75,23 32.5,23 H 32.25 32.625 33 32.5 q -0.5,0 -1,0 -0.5,0 -1,0 -0.5,0 -1,0 -0.5,0 -1,0 H 28 V 22.5 Q 28,22 27.875,21.625 27.75,21.25 27.375,21.125 27,21 26.5,21 q -0.5,0 -1,0 -0.5,0 -1,0 -0.5,0 -1,0 -0.5,0 -1,0 -0.5,0 -1,0 -0.5,0 -1,0 -0.5,0 -1,0 -0.5,0 -1,0 -0.5,0 -1,0 -0.5,0 -1,0 -0.5,0 -1,0 -0.5,0 -0.875,0.125 -0.375,0.125 -0.5,0.5 Q 14,22 13.875,22.375 13.75,22.75 13.375,22.875 13,23 12.625,23.125 12.25,23.25 12.125,23.625 12,24 12,24.5 q 0,0.5 0,1 0,0.5 0,1 0,0.5 0.125,0.875 0.125,0.375 0.5,0.5 Q 13,28 13.5,28 q 0.5,0 0.5,0.5 0,0.5 -0.125,0.875 -0.125,0.375 -0.5,0.5 Q 13,30 12.625,30.125 12.25,30.25 12.125,30.625 12,31 12,31.5 q 0,0.5 0,1 0,0.5 -0.5,0.5 -0.5,0 -1,0 Q 10,33 9.625,32.875 9.25,32.75 9.125,32.375 9,32 9,31.5 9,31 8.875,30.625 8.75,30.25 8.375,30.125 8,30 7.625,29.875 7.25,29.75 7.125,29.375 7,29 7,28.5 7,28 7,27.5 7,27 7,26.5 7,26 7,25.5 7,25 7,24.5 7,24 7,23.5 V 23 23.375 23.75 23.5 Q 7,23.25 6.875,23.125 L 6.75,23 6.8125,23.0625 6.875,23.125 7.4375,23.0625 Q 8,23 8.375,22.875 8.75,22.75 8.875,22.375 9,22 9,21.5 9,21 9,20.5 9,20 9.125,19.625 9.25,19.25 9.625,19.125 10,19 10.5,19 q 0.5,0 0.875,-0.125 0.375,-0.125 0.5,-0.5 Q 12,18 12,17.5 12,17 12.125,16.625 12.25,16.25 12.625,16.125 13,16 13.5,16 q 0.5,0 1,0 0.5,0 0.875,-0.125 0.375,-0.125 0.5,-0.5 Q 16,15 16.125,14.625 m 11.875,8 V 23 23.125 23.25 23 q 0,-0.25 0,-0.5 v -0.25 0.375 m 7,-1.5 V 21 20.625 20.25 20.5 q 0,0.25 0,0.5 v 0.25 -0.125 m 0,-4.75 V 16 15.875 15.75 16 q 0,0.25 0,0.5 v 0.25 -0.375 M 33.125,14 H 33 32.625 32.25 32.5 q 0.25,0 0.5,0 h 0.25 -0.125"
         inkscape:connector-curvature="0" />
      <path
         id="path6791"
         style="fill:#8f581f;fill-opacity:1"
         d="M 2.125,60.625 Q 2.25,60.25 2.625,60.125 3,60 3.5,60 q 0.5,0 1,0 0.5,0 1,0 0.5,0 0.875,0.125 0.375,0.125 0.5,0.5 Q 7,61 7,61.5 7,62 7.125,62.375 7.25,62.75 7.625,62.875 8,63 8.375,63.125 8.75,63.25 8.875,63.625 9,64 9,64.5 9,65 9,65.5 9,66 8.875,66.375 8.75,66.75 8.375,66.875 8,67 7.4375,67.0625 L 6.875,67.125 6.9375,67.1875 7,67.25 6.875,67.125 Q 6.75,67 6.5,67 H 6.25 6.625 7 6.5 Q 6,67 5.625,67.125 5.25,67.25 5.125,67.625 5,68 5,68.5 5,69 5,69.5 V 70 69.625 69.25 69.5 q 0,0.25 0.125,0.375 L 5.25,70 5.1875,69.9375 5.125,69.875 4.5625,69.9375 Q 4,70 3.5,70 3,70 2.625,69.875 2.25,69.75 2.125,69.375 2,69 2,68.5 2,68 2,67.5 2,67 2,66.5 2,66 2,65.5 2,65 2,64.5 2,64 2,63.5 2,63 2,62.5 2,62 2,61.5 2,61 2.125,60.625 M 28,56.5 V 56 h 0.5 q 0.5,0 1,0 H 30 v 0.5 q 0,0.5 0,1 V 58 57.625 57.25 57.5 q 0,0.25 0.125,0.375 L 30.25,58 30.1875,57.9375 30.125,57.875 30.0625,58.4375 Q 30,59 30,59.5 q 0,0.5 0,1 0,0.5 0,1 0,0.5 -0.125,0.875 -0.125,0.375 -0.5,0.5 Q 29,63 28.625,63.125 28.25,63.25 28.125,63.625 28,64 27.875,64.375 27.75,64.75 27.375,64.875 27,65 26.5,65 H 26 v -0.5 q 0,-0.5 0,-1 0,-0.5 0,-1 0,-0.5 0,-1 0,-0.5 0,-1 0,-0.5 0,-1 0,-0.5 0,-1 V 58 h 0.5 q 0.5,0 0.875,-0.125 0.375,-0.125 0.5,-0.5 Q 28,57 28,56.5 m -2,1.375 V 58 58.375 58.75 58.5 q 0,-0.25 0,-0.5 v -0.25 0.125 M 5,39.5 V 39 h 0.5 q 0.5,0 1,0 0.5,0 1,0 0.5,0 1,0 0.5,0 1,0 0.5,0 1,0 0.5,0 0.875,0.125 0.375,0.125 0.5,0.5 Q 12,40 12,40.5 q 0,0.5 0.125,0.875 0.125,0.375 0.5,0.5 0.375,0.125 0.75,0.25 0.375,0.125 0.5,0.5 0.125,0.375 0.25,0.75 0.125,0.375 0.5,0.5 0.375,0.125 0.75,0.25 0.375,0.125 0.5,0.5 Q 16,45 16,45.5 q 0,0.5 0,1 0,0.5 0,1 0,0.5 0,1 V 49 h -0.5 q -0.5,0 -0.875,0.125 -0.375,0.125 -0.5,0.5 Q 14,50 14,50.5 V 51 h -0.5 q -0.5,0 -0.875,0.125 -0.375,0.125 -0.5,0.5 Q 12,52 11.875,52.375 11.75,52.75 11.375,52.875 11,53 10.5,53 10,53 9.5,53 9,53 8.5,53 8,53 7.5,53 7,53 6.5,53 6,53 5.5,53 H 5 V 52.5 Q 5,52 4.875,51.625 4.75,51.25 4.375,51.125 4,51 3.5,51 3,51 2.625,50.875 2.25,50.75 2.125,50.375 2,50 2,49.5 V 49 H 1.5 Q 1,49 0.5,49 H 0 V 48.5 48 47.5 47 46.5 46 45.5 45 44.5 44 H 0.5 Q 1,44 1.375,43.875 1.75,43.75 1.875,43.375 2,43 2,42.5 V 42 h 0.5 q 0.5,0 1,0 0.5,0 0.875,-0.125 0.375,-0.125 0.5,-0.5 Q 5,41 5,40.5 5,40 5,39.5 M 2,41.875 V 42 42.375 42.75 42.5 Q 2,42.25 2,42 v -0.25 0.125 M 2,48.5 V 49 h 0.5 q 0.5,0 1,0 0.5,0 0.875,0.125 0.375,0.125 0.5,0.5 Q 5,50 5.125,50.375 5.25,50.75 5.625,50.875 6,51 6.5,51 q 0.5,0 1,0 0.5,0 1,0 0.5,0 1,0 0.5,0 1,0 0.5,0 0.875,-0.125 0.375,-0.125 0.5,-0.5 Q 12,50 12.125,49.625 12.25,49.25 12.625,49.125 13,49 13.375,48.875 13.75,48.75 13.875,48.375 14,48 14,47.5 q 0,-0.5 0,-1 0,-0.5 0,-1 0,-0.5 -0.125,-0.875 -0.125,-0.375 -0.5,-0.5 Q 13,44 12.5,44 12,44 11.5,44 11,44 10.5,44 10,44 9.625,43.875 9.25,43.75 9.125,43.375 9,43 8.875,42.625 8.75,42.25 8.375,42.125 8,42 7.5,42 7,42 6.5,42 6,42 5.625,42.125 5.25,42.25 5.125,42.625 5,43 4.875,43.375 4.75,43.75 4.375,43.875 4,44 3.5,44 3,44 2.625,44.125 2.25,44.25 2.125,44.625 2,45 2,45.5 q 0,0.5 0,1 0,0.5 0,1 0,0.5 0,1 m 3,4.125 V 53 53.125 53.25 53 q 0,-0.25 0,-0.5 v -0.25 0.375 m 9,-1.5 V 51 50.625 50.25 50.5 q 0,0.25 0,0.5 v 0.25 -0.125 M 15.625,49 H 16 16.125 16.25 16 q -0.25,0 -0.5,0 h -0.25 0.375 M 5.375,39 H 5 4.875 4.75 5 q 0.25,0 0.5,0 H 5.75 5.375 M 26,37.5 V 37 h 0.5 q 0.5,0 1,0 H 28 v 0.5 q 0,0.5 0,1 V 39 h -0.5 q -0.5,0 -0.875,0.125 -0.375,0.125 -0.5,0.5 Q 26,40 26,40.5 q 0,0.5 0,1 V 42 h -0.5 q -0.5,0 -1,0 -0.5,0 -1,0 -0.5,0 -1,0 -0.5,0 -1,0 H 21 v -0.5 q 0,-0.5 0,-1 0,-0.5 0,-1 V 39 h 0.5 q 0.5,0 1,0 0.5,0 1,0 0.5,0 1,0 0.5,0 0.875,-0.125 0.375,-0.125 0.5,-0.5 Q 26,38 26,37.5 M 21.375,39 H 21 20.875 20.75 21 q 0.25,0 0.5,0 h 0.25 -0.375 M 28,39.125 V 39 38.625 38.25 38.5 q 0,0.25 0,0.5 v 0.25 -0.125 M 28.125,37 H 28 27.625 27.25 27.5 q 0.25,0 0.5,0 h 0.25 -0.125 m -1.75,0 H 26 25.875 25.75 26 q 0.25,0 0.5,0 h 0.25 -0.375 M 21,30.5 V 30 h 0.5 q 0.5,0 0.875,0.125 0.375,0.125 0.5,0.5 Q 23,31 23,31.5 q 0,0.5 0,1 V 33 H 22.5 Q 22,33 21.625,32.875 21.25,32.75 21.125,32.375 21,32 21,31.5 21,31 21,30.5 M 22.625,33 H 23 23.125 23.25 23 q -0.25,0 -0.5,0 h -0.25 0.375 m -1.25,-3 H 21 20.875 20.75 21 q 0.25,0 0.5,0 h 0.25 -0.375 M 30,26.5 V 26 h 0.5 q 0.5,0 1,0 0.5,0 1,0 H 33 v 0.5 q 0,0.5 0.0625,1.0625 L 33.125,28.125 33.1875,28.0625 33.25,28 33.125,28.125 Q 33,28.25 33,28.5 V 28.75 28.375 28 28.5 q 0,0.5 0,1 0,0.5 0,1 0,0.5 0,1 0,0.5 0,1 V 33 h -0.5 q -0.5,0 -1,0 -0.5,0 -1,0 H 30 v -0.5 q 0,-0.5 0,-1 0,-0.5 0,-1 0,-0.5 0,-1 0,-0.5 0,-1 0,-0.5 0,-1 0,-0.5 0,-1 M 29.875,33 H 30 30.375 30.75 30.5 q -0.25,0 -0.5,0 h -0.25 0.125 M 33,33.125 V 33 32.625 32.25 32.5 q 0,0.25 0,0.5 v 0.25 -0.125 m 0,-6.75 V 26 25.875 25.75 26 q 0,0.25 0,0.5 v 0.25 -0.375 M 30.375,26 H 30 29.875 29.75 30 q 0.25,0 0.5,0 h 0.25 -0.375 M 2.125,26.625 Q 2.25,26.25 2.625,26.125 3,26 3.5,26 4,26 4.5,26 H 5 v 0.5 q 0,0.5 0,1 0,0.5 0,1 0,0.5 -0.125,0.875 -0.125,0.375 -0.5,0.5 Q 4,30 3.5,30 3,30 2.625,29.875 2.25,29.75 2.125,29.375 2,29 2,28.5 2,28 2,27.5 2,27 2.125,26.625 M 5,26.375 V 26 25.875 25.75 26 q 0,0.25 0,0.5 v 0.25 -0.375 M 30.0625,12.4375 30.125,11.875 30.0625,11.8125 30,11.75 30.125,11.875 Q 30.25,12 30.5,12 H 30.75 30.375 30 30.5 q 0.5,0 1,0 0.5,0 1,0 0.5,0 1,0 0.5,0 1,0 H 35 v 0.5 q 0,0.5 0,1 V 14 h -0.5 q -0.5,0 -1,0 -0.5,0 -1,0 -0.5,0 -1,0 -0.5,0 -1,0 H 30 V 13.5 Q 30,13 30.0625,12.4375 M 29.875,14 H 30 30.375 30.75 30.5 q -0.25,0 -0.5,0 h -0.25 0.125 M 35,14.125 V 14 13.625 13.25 13.5 q 0,0.25 0,0.5 v 0.25 -0.125 M 35,5.5 V 5 h 0.5 q 0.5,0 1,0 H 37 V 5.5 6 6.5 7 7.5 8 8.5 9 9.5 10 10.5 11 11.5 12 h -0.5 q -0.5,0 -1,0 H 35 v -0.5 q 0,-0.5 0,-1 0,-0.5 0,-1 0,-0.5 0,-1 0,-0.5 0,-1 0,-0.5 0,-1 0,-0.5 0,-1 m -2,-3 V 2 h 0.5 q 0.5,0 0.875,0.125 0.375,0.125 0.5,0.5 Q 35,3 35,3.5 35,4 35,4.5 V 5 H 34.5 Q 34,5 33.625,5.125 33.25,5.25 33.125,5.625 33,6 33,6.5 33,7 33,7.5 33,8 32.875,8.375 32.75,8.75 32.375,8.875 32,9 31.5,9 31,9 30.625,8.875 30.25,8.75 30.125,8.375 30,8 30,7.5 30,7 30,6.5 30,6 30.125,5.625 30.25,5.25 30.625,5.125 31,5 31.5,5 32,5 32.375,4.875 32.75,4.75 32.875,4.375 33,4 33,3.5 33,3 33,2.5 M 23.125,2.625 Q 23.25,2.25 23.625,2.125 24,2 24.5,2 25,2 25.5,2 H 26 v 0.5 q 0,0.5 0,1 0,0.5 -0.125,0.875 -0.125,0.375 -0.5,0.5 Q 25,5 24.5,5 24,5 23.625,5.125 23.25,5.25 23.125,5.625 23,6 23,6.5 V 7 6.625 6.25 6.5 q 0,0.25 0.125,0.375 L 23.25,7 23.1875,6.9375 23.125,6.875 22.5625,6.9375 Q 22,7 21.4375,6.9375 L 20.875,6.875 20.8125,6.9375 20.75,7 20.875,6.875 Q 21,6.75 21,6.5 V 6.25 6.625 7 6.5 Q 21,6 21.125,5.625 21.25,5.25 21.625,5.125 22,5 22.375,4.875 22.75,4.75 22.875,4.375 23,4 23,3.5 23,3 23.125,2.625 M 26,0.5 V 0 h 0.5 0.5 0.5 0.5 0.5 0.5 0.5 0.5 0.5 0.5 0.5 0.5 0.5 0.5 v 0.5 q 0,0.5 0,1 V 2 H 32.5 Q 32,2 31.5,2 31,2 30.5,2 30,2 29.5,2 29,2 28.5,2 28,2 27.5,2 27,2 26.5,2 H 26 V 1.5 q 0,-0.5 0,-1"
         inkscape:connector-curvature="0" />
      <path
         id="path6795"
         style="fill:#ffd870;fill-opacity:1"
         d="M 5.125,67.625 Q 5.25,67.25 5.625,67.125 6,67 6.5,67 7,67 7,67.5 7,68 7,68.5 7,69 6.875,69.375 6.75,69.75 6.375,69.875 6,70 5.5,70 5,70 5,69.5 5,69 5,68.5 5,68 5.125,67.625 M 30,56.5 V 56 h 0.5 q 0.5,0 1,0 0.5,0 0.875,0.125 0.375,0.125 0.5,0.5 0.125,0.375 0,0.75 -0.125,0.375 -0.5,0.5 Q 32,58 31.5,58 31,58 30.5,58 30,58 30,57.5 30,57 30,56.5 M 21,9.5 V 9 h 0.5 q 0.5,0 1,0 H 23 v 0.5 q 0,0.5 0,1 0,0.5 0,1 0,0.5 0,1 0,0.5 0,1 V 14 h -0.5 q -0.5,0 -1,0 H 21 v -0.5 q 0,-0.5 0,-1 0,-0.5 0,-1 0,-0.5 0,-1 0,-0.5 0,-1 M 20.875,14 H 21 21.375 21.75 21.5 q -0.25,0 -0.5,0 h -0.25 0.125 m 1.75,0 H 23 23.125 23.25 23 q -0.25,0 -0.5,0 h -0.25 0.375 m 0.5,-5 H 23 22.625 22.25 22.5 q 0.25,0 0.5,0 h 0.25 -0.125 m -1.75,0 H 21 20.875 20.75 21 q 0.25,0 0.5,0 h 0.25 -0.375"
         inkscape:connector-curvature="0" />
    </g>
  </g>
</svg>
