<?xml version="1.0" encoding="UTF-8" standalone="no"?>
<!-- Created with Inkscape (http://www.inkscape.org/) -->

<svg
   xmlns:dc="http://purl.org/dc/elements/1.1/"
   xmlns:cc="http://creativecommons.org/ns#"
   xmlns:rdf="http://www.w3.org/1999/02/22-rdf-syntax-ns#"
   xmlns:svg="http://www.w3.org/2000/svg"
   xmlns="http://www.w3.org/2000/svg"
   xmlns:sodipodi="http://sodipodi.sourceforge.net/DTD/sodipodi-0.dtd"
   xmlns:inkscape="http://www.inkscape.org/namespaces/inkscape"
   width="210mm"
   height="297mm"
   viewBox="0 0 210 297"
   version="1.1"
   id="svg6828"
   inkscape:version="0.92.4 (unknown)"
   sodipodi:docname="m5.svg">
  <defs
     id="defs6822" />
  <sodipodi:namedview
     id="base"
     pagecolor="#ffffff"
     bordercolor="#666666"
     borderopacity="1.0"
     inkscape:pageopacity="0.0"
     inkscape:pageshadow="2"
     inkscape:zoom="1.979899"
     inkscape:cx="405.55584"
     inkscape:cy="287.25881"
     inkscape:document-units="mm"
     inkscape:current-layer="g7023"
     showgrid="false"
     inkscape:window-width="1366"
     inkscape:window-height="703"
     inkscape:window-x="0"
     inkscape:window-y="0"
     inkscape:window-maximized="1" />
  <metadata
     id="metadata6825">
    <rdf:RDF>
      <cc:Work
         rdf:about="">
        <dc:format>image/svg+xml</dc:format>
        <dc:type
           rdf:resource="http://purl.org/dc/dcmitype/StillImage" />
        <dc:title />
      </cc:Work>
    </rdf:RDF>
  </metadata>
  <g
     inkscape:label="Layer 1"
     inkscape:groupmode="layer"
     id="layer1">
    <g
       transform="translate(117.5695,191.50685)"
       id="g7023">
      <path
         style="fill:#dfa03f;fill-opacity:1"
         d="M 16.125,4.625 Q 16.25,4.25 16.625,4.125 17,4 17.5,4 H 18 v 0.5 q 0,0.5 0,1 0,0.5 0,1 V 7 H 17.5 Q 17,7 16.5,7 H 16 V 6.5 Q 16,6 16,5.5 16,5 16.125,4.625 M 15.875,7 H 16 16.375 16.75 16.5 Q 16.25,7 16,7 h -0.25 0.125 m 1.75,0 H 18 18.125 18.25 18 q -0.25,0 -0.5,0 h -0.25 0.375 M 18,4.375 V 4 3.875 3.75 4 q 0,0.25 0,0.5 V 4.75 4.375"
         id="path6909"
         inkscape:connector-curvature="0" />
      <path
         id="path6955"
         style="fill:#ff706f;fill-opacity:1"
         d="M 9,32.5 V 32 h 0.5 q 0.5,0 1,0 H 11 10.625 10.25 10.5 q 0.25,0 0.375,-0.125 L 11,31.75 10.9375,31.8125 10.875,31.875 11.4375,31.9375 Q 12,32 12.5,32 13,32 13.5625,32.0625 L 14.125,32.125 14.1875,32.0625 14.25,32 14.125,32.125 Q 14,32.25 14,32.5 V 32.75 32.375 32 32.5 q 0,0.5 0,1 V 34 33.625 33.25 33.5 q 0,0.25 0.125,0.375 L 14.25,34 14.1875,33.9375 14.125,33.875 14.0625,34.4375 Q 14,35 14,35.5 q 0,0.5 0.125,0.875 0.125,0.375 0.5,0.5 0.375,0.125 0.75,0.25 0.375,0.125 0.5,0.5 Q 16,38 16,38.5 V 39 H 15.5 Q 15,39 14.625,38.875 14.25,38.75 14.125,38.375 14,38 13.875,37.625 13.75,37.25 13.375,37.125 13,37 12.5,37 12,37 11.625,36.875 11.25,36.75 11.125,36.375 11,36 11,35.5 11,35 10.875,34.625 10.75,34.25 10.375,34.125 10,34 9.5,34 H 9 V 33.5 Q 9,33 9,32.5 M 8.875,34 H 9 9.375 9.75 9.5 Q 9.25,34 9,34 H 8.75 8.875 M 18,28.5 V 28 h 0.5 q 0.5,0 1,0 0.5,0 1,0 H 21 20.625 20.25 20.5 q 0.25,0 0.375,-0.125 L 21,27.75 20.9375,27.8125 20.875,27.875 21.4375,27.9375 Q 22,28 22.375,28.125 q 0.375,0.125 0.5,0.5 0.125,0.375 0.25,0.75 0.125,0.375 0.5,0.5 Q 24,30 24.5,30 q 0.5,0 1,0 0.5,0 1,0 0.5,0 1,0 0.5,0 1,0 0.5,0 1,0 H 30 v 0.5 q 0,0.5 0,1 V 32 h -0.5 q -0.5,0 -1,0 -0.5,0 -1,0 -0.5,0 -1,0 -0.5,0 -1,0 -0.5,0 -1,0 -0.5,0 -1,0 H 23 V 31.5 Q 23,31 22.875,30.625 22.75,30.25 22.375,30.125 22,30 21.5,30 q -0.5,0 -1,0 -0.5,0 -1,0 -0.5,0 -1,0 H 18 v -0.5 q 0,-0.5 0,-1 M 17.875,30 H 18 18.375 18.75 18.5 q -0.25,0 -0.5,0 h -0.25 0.125 m 5,2 H 23 23.375 23.75 23.5 q -0.25,0 -0.5,0 h -0.25 0.125 m 6.75,0 H 30 30.125 30.25 30 q -0.25,0 -0.5,0 h -0.25 0.375 M 30,30.375 V 30 29.875 29.75 30 q 0,0.25 0,0.5 v 0.25 -0.375 M 2,23.5 V 23 h 0.5 q 0.5,0 1,0 H 4 v 0.5 q 0,0.5 0,1 V 25 H 3.5 Q 3,25 2.625,25.125 2.25,25.25 2.125,25.625 2,26 2,26.5 q 0,0.5 0,1 0,0.5 0,1 0,0.5 0.125,0.875 0.125,0.375 0.5,0.5 0.375,0.125 0.75,0 0.375,-0.125 0.5,-0.5 Q 4,29 4,28.5 V 28 h 0.5 q 0.5,0 1,0 0.5,0 1,0 H 7 v 0.5 q 0,0.5 0.125,0.875 0.125,0.375 0.5,0.5 Q 8,30 8.375,30.125 8.75,30.25 8.875,30.625 9,31 9,31.5 V 32 H 8.5 Q 8,32 7.5,32 7,32 6.5,32 6,32 5.5,32 5,32 4.5,32 4,32 3.5,32 3,32 2.5,32 H 2 V 31.5 Q 2,31 1.875,30.625 1.75,30.25 1.375,30.125 1,30 0.5,30 H 0 V 29.5 29 28.5 28 27.5 27 26.5 26 25.5 25 H 0.5 Q 1,25 1.375,24.875 1.75,24.75 1.875,24.375 2,24 2,23.5 m 0,8.125 V 32 32.125 32.25 32 q 0,-0.25 0,-0.5 v -0.25 0.375 m 5,-3.25 V 28 27.875 27.75 28 q 0,0.25 0,0.5 v 0.25 -0.375 m -3,-0.5 V 28 28.375 28.75 28.5 Q 4,28.25 4,28 v -0.25 0.125 m 0,-2.75 V 25 24.625 24.25 24.5 q 0,0.25 0,0.5 v 0.25 -0.125 M 2.375,23 H 2 1.875 1.75 2 q 0.25,0 0.5,0 H 2.75 2.375 m 11.75,-4.375 q 0.125,-0.375 0.5,-0.5 0.375,-0.125 0.75,0 0.375,0.125 0.5,0.5 Q 16,19 16,19.5 q 0,0.5 0,1 V 21 20.625 20.25 20.5 q 0,0.25 0.125,0.375 L 16.25,21 16.1875,20.9375 16.125,20.875 16.0625,21.4375 Q 16,22 16,22.5 V 23 h -0.5 q -0.5,0 -0.875,0.125 -0.375,0.125 -0.5,0.5 Q 14,24 14,24.5 q 0,0.5 0,1 0,0.5 0,1 0,0.5 -0.0625,1.0625 L 13.875,28.125 13.9375,28.1875 14,28.25 13.875,28.125 Q 13.75,28 13.5,28 H 13.25 13.625 14 13.5 q -0.5,0 -1,0 -0.5,0 -0.875,-0.125 -0.375,-0.125 -0.5,-0.5 Q 11,27 11,26.5 q 0,-0.5 0,-1 0,-0.5 0,-1 0,-0.5 0,-1 0,-0.5 0,-1 0,-0.5 0.125,-0.875 0.125,-0.375 0.5,-0.5 Q 12,21 12.5,21 q 0.5,0 0.875,-0.125 0.375,-0.125 0.5,-0.5 Q 14,20 14,19.5 14,19 14.125,18.625 M 16,23.125 V 23 22.625 22.25 22.5 q 0,0.25 0,0.5 v 0.25 -0.125 m 2.125,-6.5 q 0.125,-0.375 0.5,-0.5 Q 19,16 19.5,16 q 0.5,0 0.875,0.125 0.375,0.125 0.5,0.5 0.125,0.375 0.25,0.75 0.125,0.375 0.5,0.5 0.375,0.125 0.75,0 0.375,-0.125 0.5,-0.5 0.125,-0.375 0.25,-0.75 0.125,-0.375 0.5,-0.5 0.375,-0.125 0.75,0 0.375,0.125 0.5,0.5 0.125,0.375 0,0.75 -0.125,0.375 -0.5,0.5 Q 24,18 23.625,18.125 23.25,18.25 23.125,18.625 23,19 23,19.5 q 0,0.5 0,1 V 21 h -0.5 q -0.5,0 -1,0 H 21 v -0.5 q 0,-0.5 0,-1 0,-0.5 -0.125,-0.875 -0.125,-0.375 -0.5,-0.5 Q 20,18 19.5,18 19,18 18.625,17.875 18.25,17.75 18.125,17.375 18,17 18.125,16.625"
         inkscape:connector-curvature="0" />
      <path
         id="path6963"
         style="fill:#ffd0c0;fill-opacity:1"
         d="M 14.0625,34.4375 14.125,33.875 14.0625,33.8125 14,33.75 14.125,33.875 Q 14.25,34 14.5,34 H 14.75 14.375 14 14.5 q 0.5,0 1,0 0.5,0 1,0 0.5,0 0.875,0.125 0.375,0.125 0.5,0.5 Q 18,35 18,35.5 q 0,0.5 0.125,0.875 0.125,0.375 0.5,0.5 Q 19,37 19.5,37 q 0.5,0 1,0 0.5,0 1,0 0.5,0 1,0 0.5,0 1,0 0.5,0 1,0 0.5,0 0.5,0.5 0,0.5 -0.125,0.875 -0.125,0.375 -0.5,0.5 Q 24,39 23.5,39 q -0.5,0 -1,0 -0.5,0 -1,0 -0.5,0 -1,0 -0.5,0 -1,0 -0.5,0 -1,0 -0.5,0 -1,0 -0.5,0 -1,0 H 16 V 38.5 Q 16,38 15.875,37.625 15.75,37.25 15.375,37.125 15,37 14.625,36.875 14.25,36.75 14.125,36.375 14,36 14,35.5 14,35 14.0625,34.4375 M 14.125,23.625 q 0.125,-0.375 0.5,-0.5 Q 15,23 15.5,23 H 16 v 0.5 q 0,0.5 0,1 0,0.5 0,1 0,0.5 0,1 0,0.5 0.125,0.875 0.125,0.375 0.5,0.5 Q 17,28 17.5,28 H 18 v 0.5 q 0,0.5 0,1 V 30 h -0.5 q -0.5,0 -0.875,0.125 -0.375,0.125 -0.5,0.5 Q 16,31 15.875,31.375 15.75,31.75 15.375,31.875 15,32 14.5,32 H 14 14.375 14.75 14.5 q -0.25,0 -0.375,0.125 L 14,32.25 14.0625,32.1875 14.125,32.125 13.5625,32.0625 Q 13,32 12.5,32 12,32 11.4375,31.9375 L 10.875,31.875 10.8125,31.9375 10.75,32 10.875,31.875 Q 11,31.75 11,31.5 V 31.25 31.625 32 31.5 q 0,-0.5 0.125,-0.875 0.125,-0.375 0.5,-0.5 Q 12,30 12.5,30 q 0.5,0 0.875,-0.125 0.375,-0.125 0.5,-0.5 Q 14,29 14,28.5 V 28 28.375 28.75 28.5 q 0,-0.25 -0.125,-0.375 L 13.75,28 l 0.0625,0.0625 0.0625,0.0625 0.0625,-0.5625 Q 14,27 14,26.5 q 0,-0.5 0,-1 0,-0.5 0,-1 0,-0.5 0.125,-0.875 M 17.625,30 H 18 18.125 18.25 18 q -0.25,0 -0.5,0 h -0.25 0.375 M 16,23.375 V 23 22.875 22.75 23 q 0,0.25 0,0.5 v 0.25 -0.375 M 4,23.5 V 23 h 0.5 q 0.5,0 1,0 0.5,0 0.875,0.125 0.375,0.125 0.5,0.5 Q 7,24 7,24.5 q 0,0.5 0,1 0,0.5 0,1 0,0.5 0,1 V 28 H 6.5 Q 6,28 5.5,28 5,28 4.5,28 H 4 v -0.5 q 0,-0.5 0,-1 0,-0.5 0,-1 0,-0.5 0,-1 0,-0.5 0,-1 m 0,4.125 V 28 28.125 28.25 28 q 0,-0.25 0,-0.5 v -0.25 0.375 m 3,0.5 V 28 27.625 27.25 27.5 q 0,0.25 0,0.5 v 0.25 -0.125 M 21,21.5 V 21 h 0.5 q 0.5,0 1,0 H 23 v 0.5 q 0,0.5 0.0625,1.0625 L 23.125,23.125 23.1875,23.0625 23.25,23 23.125,23.125 Q 23,23.25 23,23.5 V 23.75 23.375 23 23.5 q 0,0.5 0,1 0,0.5 0,1 0,0.5 0,1 0,0.5 0.125,0.875 0.125,0.375 0.5,0.5 Q 24,28 24.5,28 H 25 24.625 24.25 24.5 q 0.25,0 0.375,-0.125 L 25,27.75 24.9375,27.8125 24.875,27.875 25.4375,27.9375 Q 26,28 26.5,28 q 0.5,0 0.875,-0.125 0.375,-0.125 0.5,-0.5 Q 28,27 28,26.5 28,26 28.125,25.625 28.25,25.25 28.625,25.125 29,25 29.5625,25.0625 L 30.125,25.125 30.1875,25.0625 30.25,25 30.125,25.125 Q 30,25.25 30,25.5 V 25.75 25.375 25 25.5 q 0,0.5 0,1 0,0.5 0,1 0,0.5 0,1 0,0.5 0,1 V 30 h -0.5 q -0.5,0 -1,0 -0.5,0 -1,0 -0.5,0 -1,0 -0.5,0 -1,0 -0.5,0 -1,0 -0.5,0 -0.875,-0.125 -0.375,-0.125 -0.5,-0.5 Q 23,29 22.875,28.625 22.75,28.25 22.375,28.125 22,28 21.4375,27.9375 L 20.875,27.875 20.8125,27.9375 20.75,28 20.875,27.875 Q 21,27.75 21,27.5 V 27.25 27.625 28 27.5 q 0,-0.5 0,-1 0,-0.5 0,-1 0,-0.5 0,-1 0,-0.5 0,-1 V 23 23.375 23.75 23.5 q 0,-0.25 -0.125,-0.375 L 20.75,23 l 0.0625,0.0625 0.0625,0.0625 0.0625,-0.5625 Q 21,22 21,21.5 m 9,8.625 V 30 29.625 29.25 29.5 q 0,0.25 0,0.5 v 0.25 -0.125"
         inkscape:connector-curvature="0" />
      <path
         id="path6979"
         style="fill:#ff4070;fill-opacity:1"
         d="M 21,41.5 V 41 h 0.5 q 0.5,0 1,0 0.5,0 1,0 0.5,0 0.875,0.125 0.375,0.125 0.5,0.5 Q 25,42 25,42.5 q 0,0.5 0,1 V 44 h -0.5 q -0.5,0 -1,0 -0.5,0 -1,0 -0.5,0 -1,0 -0.5,0 -0.5,-0.5 0,-0.5 0,-1 0,-0.5 0,-1 M 24.625,44 H 25 25.125 25.25 25 q -0.25,0 -0.5,0 h -0.25 0.375 M 2,34.5 V 34 h 0.5 q 0.5,0 1,0 H 4 v 0.5 q 0,0.5 0,1 0,0.5 -0.125,0.875 -0.125,0.375 -0.5,0.5 Q 3,37 2.5,37 H 2 v -0.5 q 0,-0.5 0,-1 0,-0.5 0,-1 m 0,2.125 V 37 37.125 37.25 37 q 0,-0.25 0,-0.5 v -0.25 0.375 M 4.125,34 H 4 3.625 3.25 3.5 Q 3.75,34 4,34 H 4.25 4.125 M 21,2.5 V 2 h 0.5 q 0.5,0 0.875,0.125 0.375,0.125 0.5,0.5 Q 23,3 23,3.5 V 4 H 22.5 Q 22,4 21.5,4 H 21 V 3.5 q 0,-0.5 0,-1 m 0,1.125 V 4 4.125 4.25 4 Q 21,3.75 21,3.5 V 3.25 3.625 m 2,0.5 V 4 3.625 3.25 3.5 Q 23,3.75 23,4 V 4.25 4.125 M 21.375,2 H 21 20.875 20.75 21 q 0.25,0 0.5,0 h 0.25 -0.375 M 14,2.5 V 2 h 0.5 q 0.5,0 1,0 0.5,0 1,0 0.5,0 1,0 H 18 v 0.5 q 0,0.5 0,1 V 4 H 17.5 Q 17,4 16.625,4.125 16.25,4.25 16.125,4.625 16,5 16,5.5 16,6 16,6.5 V 7 H 15.5 Q 15,7 14.5,7 14,7 13.5,7 13,7 12.5,7 12,7 11.625,7.125 11.25,7.25 11.125,7.625 11,8 10.875,8.375 10.75,8.75 10.375,8.875 10,9 9.625,9.125 9.25,9.25 9.125,9.625 9,10 8.875,10.375 8.75,10.75 8.375,10.875 8,11 7.5,11 H 7 V 10.5 Q 7,10 7.125,9.625 7.25,9.25 7.625,9.125 8,9 8.375,8.875 8.75,8.75 8.875,8.375 9,8 9.125,7.625 9.25,7.25 9.625,7.125 10,7 10.375,6.875 10.75,6.75 10.875,6.375 11,6 11,5.5 11,5 11.125,4.625 11.25,4.25 11.625,4.125 12,4 12.5,4 13,4 13.375,3.875 13.75,3.75 13.875,3.375 14,3 14,2.5 M 7,10.625 V 11 11.125 11.25 11 q 0,-0.25 0,-0.5 v -0.25 0.375 M 15.625,7 H 16 16.125 16.25 16 q -0.25,0 -0.5,0 h -0.25 0.375 M 18,4.125 V 4 3.625 3.25 3.5 Q 18,3.75 18,4 V 4.25 4.125 M 18.125,2 H 18 17.625 17.25 17.5 q 0.25,0 0.5,0 h 0.25 -0.125 m -3.75,0 H 14 13.875 13.75 14 q 0.25,0 0.5,0 h 0.25 -0.375"
         inkscape:connector-curvature="0" />
      <path
         id="path6987"
         style="fill:#b02860;fill-opacity:1"
         d="M 23,44.5 V 44 h 0.5 q 0.5,0 1,0 0.5,0 1,0 0.5,0 1,0 0.5,0 1,0 H 28 v 0.5 q 0,0.5 0,1 V 46 h -0.5 q -0.5,0 -1,0 -0.5,0 -1,0 -0.5,0 -1,0 -0.5,0 -1,0 H 23 v -0.5 q 0,-0.5 0,-1 m 5,1.625 V 46 45.625 45.25 45.5 q 0,0.25 0,0.5 v 0.25 -0.125 M 23.375,44 H 23 22.875 22.75 23 q 0.25,0 0.5,0 h 0.25 -0.375 m -9.25,0.625 q 0.125,-0.375 0.5,-0.5 Q 15,44 15.5,44 q 0.5,0 1,0 0.5,0 1,0 H 18 v 0.5 q 0,0.5 0,1 V 46 h -0.5 q -0.5,0 -1,0 -0.5,0 -1,0 -0.5,0 -1,0 H 14 V 45.5 Q 14,45 14.125,44.625 M 13.875,46 H 14 14.375 14.75 14.5 q -0.25,0 -0.5,0 h -0.25 0.125 m 4.25,-2 H 18 17.625 17.25 17.5 q 0.25,0 0.5,0 h 0.25 -0.125 m -7,-41.375 Q 11.25,2.25 11.625,2.125 12,2 12.5,2 13,2 13.5,2 H 14 V 2.5 Q 14,3 13.875,3.375 13.75,3.75 13.375,3.875 13,4 12.5,4 12,4 11.625,4.125 11.25,4.25 11.125,4.625 11,5 11,5.5 11,6 10.875,6.375 10.75,6.75 10.375,6.875 10,7 9.625,7.125 9.25,7.25 9.125,7.625 9,8 8.875,8.375 8.75,8.75 8.375,8.875 8,9 7.625,9.125 7.25,9.25 7.125,9.625 7,10 7,10.5 q 0,0.5 0,1 0,0.5 0,1 0,0.5 0,1 0,0.5 0,1 0,0.5 -0.125,0.875 -0.125,0.375 -0.5,0.5 Q 6,16 5.5,16 5,16 4.625,16.125 4.25,16.25 4.125,16.625 4,17 4,17.5 q 0,0.5 0,1 0,0.5 0,1 0,0.5 -0.125,0.875 -0.125,0.375 -0.5,0.5 Q 3,21 2.625,20.875 2.25,20.75 2.125,20.375 2,20 2,19.5 2,19 2,18.5 2,18 2,17.5 2,17 2,16.5 2,16 2,15.5 2,15 2.125,14.625 2.25,14.25 2.625,14.125 3,14 3.375,13.875 3.75,13.75 3.875,13.375 4,13 4,12.5 4,12 4,11.5 4,11 4,10.5 4,10 4.125,9.625 4.25,9.25 4.625,9.125 5,9 5.5,9 6,9 6.375,8.875 6.75,8.75 6.875,8.375 7,8 7.125,7.625 7.25,7.25 7.625,7.125 8,7 8.375,6.875 8.75,6.75 8.875,6.375 9,6 9,5.5 9,5 9.125,4.625 9.25,4.25 9.625,4.125 10,4 10.375,3.875 10.75,3.75 10.875,3.375 11,3 11.125,2.625 M 14.125,2 H 14 13.625 13.25 13.5 q 0.25,0 0.5,0 h 0.25 -0.125"
         inkscape:connector-curvature="0" />
      <path
         id="path6997"
         style="fill:#80d8cf;fill-opacity:1"
         d="M 18,46.5 V 46 h 0.5 q 0.5,0 1,0 0.5,0 1,0 0.5,0 1,0 0.5,0 1,0 H 23 v 0.5 q 0,0.5 0.125,0.875 0.125,0.375 0.5,0.5 Q 24,48 24.5,48 q 0.5,0 1,0 0.5,0 1,0 0.5,0 1,0 H 28 v 0.5 q 0,0.5 0,1 0,0.5 0,1 V 51 h -0.5 q -0.5,0 -1,0 -0.5,0 -0.875,0.125 -0.375,0.125 -0.5,0.5 Q 25,52 25,52.5 q 0,0.5 0,1 0,0.5 0,1 V 55 h -0.5 q -0.5,0 -0.875,0.125 -0.375,0.125 -0.5,0.5 Q 23,56 23,56.5 q 0,0.5 -0.125,0.875 -0.125,0.375 -0.5,0.5 Q 22,58 21.625,58.125 21.25,58.25 21.125,58.625 21,59 20.875,59.375 20.75,59.75 20.375,59.875 20,60 19.5,60 19,60 18.5,60 H 18 v -0.5 q 0,-0.5 0,-1 0,-0.5 0,-1 0,-0.5 0,-1 0,-0.5 -0.125,-0.875 -0.125,-0.375 -0.5,-0.5 Q 17,55 16.5,55 16,55 15.5,55 15,55 14.625,54.875 14.25,54.75 14.125,54.375 14,54 14,53.5 q 0,-0.5 0,-1 0,-0.5 0,-1 0,-0.5 0,-1 0,-0.5 0,-1 0,-0.5 0,-1 V 48 h 0.5 q 0.5,0 1,0 0.5,0 1,0 0.5,0 0.875,-0.125 0.375,-0.125 0.5,-0.5 Q 18,47 18,46.5 M 14.375,48 H 14 13.875 13.75 14 q 0.25,0 0.5,0 h 0.25 -0.375 m 3.5,12 H 18 18.375 18.75 18.5 q -0.25,0 -0.5,0 h -0.25 0.125 M 21.5,53 q 0.5,0 0.875,-0.125 0.375,-0.125 0.5,-0.5 Q 23,52 23,51.5 q 0,-0.5 0,-1 0,-0.5 0,-1 0,-0.5 -0.125,-0.875 -0.125,-0.375 -0.5,-0.5 Q 22,48 21.5,48 q -0.5,0 -1,0 -0.5,0 -1,0 -0.5,0 -0.875,0.125 -0.375,0.125 -0.5,0.5 Q 18,49 18,49.5 q 0,0.5 0,1 0,0.5 0,1 0,0.5 0.125,0.875 0.125,0.375 0.5,0.5 Q 19,53 19.5,53 q 0.5,0 1,0 0.5,0 1,0 M 25,55.125 V 55 54.625 54.25 54.5 q 0,0.25 0,0.5 v 0.25 -0.125 m 3,-4 V 51 50.625 50.25 50.5 q 0,0.25 0,0.5 v 0.25 -0.125"
         inkscape:connector-curvature="0" />
      <path
         id="path6999"
         style="fill:#500000;fill-opacity:1"
         d="M 23,46.5 V 46 h 0.5 q 0.5,0 1,0 0.5,0 1,0 0.5,0 1,0 0.5,0 1,0 H 28 v 0.5 q 0,0.5 0,1 V 48 h -0.5 q -0.5,0 -1,0 -0.5,0 -1,0 -0.5,0 -1,0 -0.5,0 -0.875,-0.125 -0.375,-0.125 -0.5,-0.5 Q 23,47 23,46.5 m 5,-0.125 V 46 45.875 45.75 46 q 0,0.25 0,0.5 v 0.25 -0.375 m -16.875,0.25 q 0.125,-0.375 0.5,-0.5 Q 12,46 12.5,46 q 0.5,0 1,0 0.5,0 1,0 0.5,0 1,0 0.5,0 1,0 0.5,0 1,0 H 18 v 0.5 q 0,0.5 -0.125,0.875 -0.125,0.375 -0.5,0.5 Q 17,48 16.5,48 q -0.5,0 -1,0 -0.5,0 -1,0 -0.5,0 -1,0 -0.5,0 -1,0 -0.5,0 -1,0 H 11 V 47.5 Q 11,47 11.125,46.625 M 10.875,48 H 11 11.375 11.75 11.5 q -0.25,0 -0.5,0 h -0.25 0.125 M 16,39.5 V 39 h 0.5 q 0.5,0 1,0 0.5,0 1,0 0.5,0 1,0 0.5,0 1,0 H 21 v 0.5 q 0,0.5 0,1 V 41 h -0.5 q -0.5,0 -1,0 -0.5,0 -1,0 -0.5,0 -1,0 -0.5,0 -1,0 H 16 v -0.5 q 0,-0.5 0,-1 m 0,1.125 V 41 41.125 41.25 41 q 0,-0.25 0,-0.5 v -0.25 0.375 M 21.125,39 H 21 20.625 20.25 20.5 q 0.25,0 0.5,0 h 0.25 -0.125 M 0,34.5 V 34 h 0.5 q 0.5,0 1,0 H 2 v 0.5 q 0,0.5 0,1 0,0.5 0,1 0,0.5 0,1 0,0.5 -0.125,0.875 -0.125,0.375 -0.5,0.5 Q 1,39 0.5,39 H 0 V 38.5 38 37.5 37 36.5 36 35.5 35 34.5 M 25.125,14.625 q 0.125,-0.375 0.5,-0.5 Q 26,14 26.5,14 q 0.5,0 0.875,0.125 0.375,0.125 0.5,0.5 0.125,0.375 0,0.75 -0.125,0.375 -0.5,0.5 Q 27,16 26.5,16 26,16 25.625,15.875 25.25,15.75 25.125,15.375 25,15 25.125,14.625 m -7,-3 q 0.125,-0.375 0.5,-0.5 Q 19,11 19.5,11 q 0.5,0 0.875,0.125 0.375,0.125 0.5,0.5 Q 21,12 21,12.5 q 0,0.5 -0.125,0.875 -0.125,0.375 -0.5,0.5 Q 20,14 19.5,14 19,14 18.625,13.875 18.25,13.75 18.125,13.375 18,13 18,12.5 18,12 18.125,11.625 M 11,0.5 V 0 h 0.5 0.5 0.5 0.5 0.5 0.5 0.5 0.5 0.5 0.5 0.5 0.5 0.5 0.5 0.5 0.5 0.5 0.5 0.5 0.5 0.5 0.5 0.5 0.5 v 0.5 q 0,0.5 0.125,0.875 0.125,0.375 0.5,0.5 Q 24,2 24.375,2.125 24.75,2.25 24.875,2.625 25,3 25,3.5 q 0,0.5 0,1 0,0.5 0,1 0,0.5 0,1 V 7 6.625 6.25 6.5 q 0,0.25 0.125,0.375 L 25.25,7 25.1875,6.9375 25.125,6.875 24.5625,6.9375 Q 24,7 23.4375,6.9375 L 22.875,6.875 22.8125,6.9375 22.75,7 22.875,6.875 Q 23,6.75 23,6.5 V 6.25 6.625 7 6.5 Q 23,6 23,5.5 23,5 23,4.5 23,4 23,3.5 23,3 22.875,2.625 22.75,2.25 22.375,2.125 22,2 21.5,2 21,2 20.5,2 20,2 19.5,2 19,2 18.5,2 18,2 17.5,2 17,2 16.5,2 16,2 15.5,2 15,2 14.5,2 14,2 13.5,2 13,2 12.5,2 12,2 11.625,2.125 11.25,2.25 11.125,2.625 11,3 10.875,3.375 10.75,3.75 10.375,3.875 10,4 9.625,4.125 9.25,4.25 9.125,4.625 9,5 9,5.5 9,6 8.875,6.375 8.75,6.75 8.375,6.875 8,7 7.625,7.125 7.25,7.25 7.125,7.625 7,8 6.875,8.375 6.75,8.75 6.375,8.875 6,9 5.5,9 5,9 4.625,9.125 4.25,9.25 4.125,9.625 4,10 4,10.5 q 0,0.5 0,1 0,0.5 0,1 0,0.5 -0.125,0.875 -0.125,0.375 -0.5,0.5 Q 3,14 2.625,14.125 2.25,14.25 2.125,14.625 2,15 2,15.5 q 0,0.5 0,1 0,0.5 0,1 0,0.5 0,1 0,0.5 0,1 0,0.5 0.125,0.875 0.125,0.375 0.5,0.5 0.375,0.125 0.75,0 0.375,-0.125 0.5,-0.5 Q 4,20 4,19.5 4,19 4,18.5 4,18 4,17.5 4,17 4.125,16.625 4.25,16.25 4.625,16.125 5,16 5.5,16 6,16 6.375,15.875 6.75,15.75 6.875,15.375 7,15 7,14.5 7,14 7,13.5 7,13 7,12.5 7,12 7,11.5 V 11 H 7.5 Q 8,11 8.375,10.875 8.75,10.75 8.875,10.375 9,10 9.125,9.625 9.25,9.25 9.625,9.125 10,9 10.375,8.875 10.75,8.75 10.875,8.375 11,8 11.125,7.625 11.25,7.25 11.625,7.125 12,7 12.5,7 13,7 13.5,7 H 14 V 7.5 Q 14,8 13.875,8.375 13.75,8.75 13.375,8.875 13,9 12.5,9 12,9 11.625,9.125 11.25,9.25 11.125,9.625 11,10 10.875,10.375 10.75,10.75 10.375,10.875 10,11 9.625,11.125 9.25,11.25 9.125,11.625 9,12 9,12.5 q 0,0.5 0.125,0.875 0.125,0.375 0.5,0.5 0.375,0.125 0.75,0 0.375,-0.125 0.5,-0.5 Q 11,13 11,12.5 11,12 11.125,11.625 11.25,11.25 11.625,11.125 12,11 12.5,11 q 0.5,0 0.875,0.125 0.375,0.125 0.5,0.5 Q 14,12 14,12.5 q 0,0.5 -0.125,0.875 -0.125,0.375 -0.5,0.5 Q 13,14 12.5,14 12,14 11.625,14.125 11.25,14.25 11.125,14.625 11,15 10.875,15.375 10.75,15.75 10.375,15.875 10,16 9.5,16 9,16 8.5,16 8,16 7.625,16.125 7.25,16.25 7.125,16.625 7,17 7,17.5 q 0,0.5 0,1 0,0.5 0,1 0,0.5 -0.125,0.875 -0.125,0.375 -0.5,0.5 Q 6,21 5.5,21 5,21 4.625,21.125 4.25,21.25 4.125,21.625 4,22 4,22.5 V 23 H 3.5 Q 3,23 2.5,23 2,23 1.5,23 1,23 0.5,23 H 0 V 22.5 22 21.5 21 20.5 20 19.5 19 18.5 18 17.5 17 16.5 16 15.5 15 14.5 14 H 0.5 Q 1,14 1.375,13.875 1.75,13.75 1.875,13.375 2,13 2,12.5 2,12 2,11.5 2,11 2,10.5 2,10 2.125,9.625 2.25,9.25 2.625,9.125 3,9 3.375,8.875 3.75,8.75 3.875,8.375 4,8 4.125,7.625 4.25,7.25 4.625,7.125 5,7 5.5,7 6,7 6.375,6.875 6.75,6.75 6.875,6.375 7,6 7,5.5 7,5 7.125,4.625 7.25,4.25 7.625,4.125 8,4 8.375,3.875 8.75,3.75 8.875,3.375 9,3 9.125,2.625 9.25,2.25 9.625,2.125 10,2 10.375,1.875 10.75,1.75 10.875,1.375 11,1 11,0.5 M 14.125,7 H 14 13.625 13.25 13.5 q 0.25,0 0.5,0 h 0.25 -0.125 M 7,10.875 V 11 11.375 11.75 11.5 Q 7,11.25 7,11 v -0.25 0.125"
         inkscape:connector-curvature="0" />
      <path
         id="path7001"
         style="fill:#20308f;fill-opacity:1"
         d="M 4,48.5 V 48 h 0.5 q 0.5,0 1,0 0.5,0 1,0 H 7 v 0.5 q 0,0.5 0,1 0,0.5 0.125,0.875 0.125,0.375 0.5,0.5 Q 8,51 8.375,51.125 8.75,51.25 8.875,51.625 9,52 9,52.5 q 0,0.5 0,1 0,0.5 0.125,0.875 0.125,0.375 0.5,0.5 0.375,0.125 0.75,0.25 0.375,0.125 0.5,0.5 Q 11,56 11,56.5 q 0,0.5 0.125,0.875 0.125,0.375 0.5,0.5 Q 12,58 12.5,58 q 0.5,0 1,0 0.5,0 1,0 0.5,0 0.875,0.125 0.375,0.125 0.5,0.5 0.125,0.375 0.25,0.75 0.125,0.375 0.5,0.5 Q 17,60 17.5,60 q 0.5,0 1,0 0.5,0 1,0 0.5,0 0.875,-0.125 0.375,-0.125 0.5,-0.5 Q 21,59 21.125,58.625 21.25,58.25 21.625,58.125 22,58 22.375,57.875 22.75,57.75 22.875,57.375 23,57 23,56.5 23,56 23.125,55.625 23.25,55.25 23.625,55.125 24,55 24.5,55 H 25 v 0.5 q 0,0.5 0,1 0,0.5 0,1 0,0.5 0,1 0,0.5 0,1 V 60 h -0.5 q -0.5,0 -1,0 -0.5,0 -1,0 -0.5,0 -0.875,0.125 -0.375,0.125 -0.5,0.5 Q 21,61 20.875,61.375 20.75,61.75 20.375,61.875 20,62 19.5,62 19,62 18.625,62.125 18.25,62.25 18.125,62.625 18,63 18,63.5 q 0,0.5 -0.125,0.875 -0.125,0.375 -0.5,0.5 Q 17,65 16.5,65 q -0.5,0 -1,0 -0.5,0 -1,0 -0.5,0 -1,0 -0.5,0 -1,0 -0.5,0 -0.875,-0.125 -0.375,-0.125 -0.5,-0.5 Q 11,64 11,63.5 11,63 10.875,62.625 10.75,62.25 10.375,62.125 10,62 9.5,62 H 9 V 61.5 Q 9,61 8.875,60.625 8.75,60.25 8.375,60.125 8,60 7.625,59.875 7.25,59.75 7.125,59.375 7,59 6.875,58.625 6.75,58.25 6.375,58.125 6,58 5.5,58 5,58 4.625,57.875 4.25,57.75 4.125,57.375 4,57 4,56.5 4,56 4,55.5 4,55 4,54.5 4,54 3.9375,53.4375 L 3.875,52.875 3.8125,52.9375 3.75,53 3.875,52.875 Q 4,52.75 4,52.5 V 52.25 52.625 53 52.5 Q 4,52 4,51.5 4,51 4,50.5 4,50 4,49.5 4,49 4,48.5 M 24.625,60 H 25 25.125 25.25 25 q -0.25,0 -0.5,0 h -0.25 0.375 M 25,55.375 V 55 54.875 54.75 55 q 0,0.25 0,0.5 v 0.25 -0.375 M 7.125,48 H 7 6.625 6.25 6.5 Q 6.75,48 7,48 H 7.25 7.125 M 4,47.875 V 48 48.375 48.75 48.5 Q 4,48.25 4,48 v -0.25 0.125 M 16,41.5 V 41 h 0.5 q 0.5,0 1,0 0.5,0 1,0 0.5,0 1,0 0.5,0 1,0 H 21 v 0.5 q 0,0.5 0,1 0,0.5 0,1 V 44 43.625 43.25 43.5 q 0,0.25 0.125,0.375 L 21.25,44 21.1875,43.9375 21.125,43.875 20.5625,43.9375 Q 20,44 19.5,44 q -0.5,0 -1,0 -0.5,0 -1,0 -0.5,0 -1,0 H 16 v -0.5 q 0,-0.5 0,-1 0,-0.5 0,-1 M 15.875,44 H 16 16.375 16.75 16.5 q -0.25,0 -0.5,0 h -0.25 0.125 M 16,40.875 V 41 41.375 41.75 41.5 q 0,-0.25 0,-0.5 v -0.25 0.125"
         inkscape:connector-curvature="0" />
      <path
         id="path7005"
         style="fill:#fff8ff;fill-opacity:1"
         d="m 18.125,48.625 q 0.125,-0.375 0.5,-0.5 Q 19,48 19.5,48 q 0.5,0 1,0 0.5,0 1,0 0.5,0 0.875,0.125 0.375,0.125 0.5,0.5 Q 23,49 23,49.5 q 0,0.5 0,1 0,0.5 0,1 0,0.5 -0.125,0.875 -0.125,0.375 -0.5,0.5 Q 22,53 21.5,53 q -0.5,0 -1,0 -0.5,0 -1,0 -0.5,0 -0.875,-0.125 -0.375,-0.125 -0.5,-0.5 Q 18,52 18,51.5 q 0,-0.5 0,-1 0,-0.5 0,-1 0,-0.5 0.125,-0.875 m 7,-9 q 0.125,-0.375 0.5,-0.5 Q 26,39 26.5,39 q 0.5,0 0.875,0.125 0.375,0.125 0.5,0.5 0.125,0.375 0,0.75 -0.125,0.375 -0.5,0.5 Q 27,41 26.5,41 26,41 25.625,40.875 25.25,40.75 25.125,40.375 25,40 25.125,39.625 m 5,-2 q 0.125,-0.375 0.5,-0.5 0.375,-0.125 0.75,0 0.375,0.125 0.5,0.5 0.125,0.375 0.25,0.75 0.125,0.375 0.5,0.5 Q 33,39 33.5,39 q 0.5,0 1,0 H 35 v 0.5 q 0,0.5 0,1 0,0.5 0,1 0,0.5 0,1 0,0.5 0,1 V 44 h -0.5 q -0.5,0 -1,0 -0.5,0 -0.875,0.125 -0.375,0.125 -0.5,0.5 Q 32,45 31.875,45.375 31.75,45.75 31.375,45.875 31,46 30.5,46 30,46 30,45.5 30,45 29.875,44.625 29.75,44.25 29.375,44.125 29,44 28.5,44 H 28 v -0.5 q 0,-0.5 0,-1 0,-0.5 0.125,-0.875 0.125,-0.375 0.5,-0.5 Q 29,41 29.375,40.875 29.75,40.75 29.875,40.375 30,40 30,39.5 q 0,-0.5 0,-1 0,-0.5 0.125,-0.875 m -26,0 Q 4.25,37.25 4.625,37.125 5,37 5.5,37 q 0.5,0 1,0 0.5,0 1,0 0.5,0 1,0 0.5,0 1,0 0.5,0 0.875,0.125 0.375,0.125 0.5,0.5 0.125,0.375 0.25,0.75 0.125,0.375 0.5,0.5 Q 12,39 12.5,39 q 0.5,0 0.875,0.125 0.375,0.125 0.5,0.5 Q 14,40 14,40.5 q 0,0.5 0,1 0,0.5 0,1 0,0.5 -0.125,0.875 -0.125,0.375 -0.5,0.5 Q 13,44 12.5,44 12,44 11.625,44.125 11.25,44.25 11.125,44.625 11,45 10.875,45.375 10.75,45.75 10.375,45.875 10,46 9.5,46 9,46 8.5,46 8,46 7.5,46 7,46 6.5,46 6,46 5.5,46 5,46 4.625,45.875 4.25,45.75 4.125,45.375 4,45 3.875,44.625 3.75,44.25 3.375,44.125 3,44 2.5,44 H 2 V 43.5 Q 2,43 2,42.5 2,42 2,41.5 2,41 2,40.5 2,40 2.125,39.625 2.25,39.25 2.625,39.125 3,39 3.375,38.875 3.75,38.75 3.875,38.375 4,38 4.125,37.625 M 23,21.5 V 21 h 0.5 q 0.5,0 1,0 0.5,0 1,0 0.5,0 1,0 0.5,0 0.875,-0.125 L 27.75,20.75 27.46875,20.84375 27.1875,20.9375 27.375,20.875 q 0.1875,-0.0625 0.3125,-0.1875 l 0.125,-0.125 -0.0625,0.0625 -0.0625,0.0625 0.28125,0.28125 Q 28.25,21.25 28.125,21.625 28,22 28,22.5 q 0,0.5 0,1 0,0.5 -0.125,0.875 -0.125,0.375 0.15625,0.65625 l 0.28125,0.28125 0.0625,-0.0625 0.0625,-0.0625 -0.125,0.125 q -0.125,0.125 -0.1875,0.3125 L 28.0625,25.8125 28.15625,25.53125 28.25,25.25 28.125,25.625 Q 28,26 28,26.5 q 0,0.5 -0.125,0.875 -0.125,0.375 -0.5,0.5 Q 27,28 26.5,28 26,28 25.4375,27.9375 L 24.875,27.875 24.8125,27.9375 24.75,28 24.875,27.875 Q 25,27.75 25,27.5 V 27.25 27.625 28 27.5 q 0,-0.5 0,-1 0,-0.5 0,-1 0,-0.5 0,-1 0,-0.5 -0.125,-0.875 -0.125,-0.375 -0.5,-0.5 Q 24,23 23.5,23 H 23 23.375 23.75 23.5 q -0.25,0 -0.375,0.125 L 23,23.25 23.0625,23.1875 23.125,23.125 23.0625,22.5625 Q 23,22 23,21.5 M 16.0625,21.4375 16.125,20.875 16.0625,20.8125 16,20.75 16.125,20.875 Q 16.25,21 16.5,21 H 16.75 16.375 16 16.5 q 0.5,0 1,0 0.5,0 1,0 0.5,0 1,0 0.5,0 1,0 H 21 v 0.5 q 0,0.5 -0.0625,1.0625 L 20.875,23.125 20.9375,23.1875 21,23.25 20.875,23.125 Q 20.75,23 20.5,23 H 20.25 20.625 21 20.5 q -0.5,0 -1,0 -0.5,0 -0.875,0.125 -0.375,0.125 -0.5,0.5 Q 18,24 18,24.5 q 0,0.5 0,1 0,0.5 0,1 0,0.5 0,1 V 28 H 17.5 Q 17,28 16.625,27.875 16.25,27.75 16.125,27.375 16,27 16,26.5 q 0,-0.5 0,-1 0,-0.5 0,-1 0,-0.5 0,-1 0,-0.5 0,-1 0,-0.5 0.0625,-1.0625 M 21,4.5 V 4 h 0.5 q 0.5,0 1,0 H 23 v 0.5 q 0,0.5 0,1 0,0.5 0,1 Q 23,7 22.5,7 22,7 21.5,7 H 21 V 6.5 Q 21,6 21,5.5 21,5 21,4.5 M 20.875,7 H 21 21.375 21.75 21.5 Q 21.25,7 21,7 h -0.25 0.125 M 23,4.375 V 4 3.875 3.75 4 q 0,0.25 0,0.5 V 4.75 4.375 m -2,-0.5 V 4 4.375 4.75 4.5 Q 21,4.25 21,4 V 3.75 3.875"
         inkscape:connector-curvature="0" />
      <path
         id="path7011"
         style="fill:#40809f;fill-opacity:1"
         d="m 25.125,51.625 q 0.125,-0.375 0.5,-0.5 Q 26,51 26.5,51 q 0.5,0 1,0 H 28 v 0.5 q 0,0.5 -0.125,0.875 -0.125,0.375 -0.5,0.5 Q 27,53 26.5,53 26,53 25.5,53 H 25 v -0.5 q 0,-0.5 0.125,-0.875 m -0.125,1 V 53 53.125 53.25 53 q 0,-0.25 0,-0.5 v -0.25 0.375 m 3,-1.25 V 51 50.875 50.75 51 q 0,0.25 0,0.5 v 0.25 -0.375 M 7,48.5 V 48 h 0.5 q 0.5,0 1,0 0.5,0 1,0 0.5,0 1,0 0.5,0 1,0 0.5,0 1,0 0.5,0 1,0 H 14 v 0.5 q 0,0.5 0,1 0,0.5 0,1 0,0.5 0,1 0,0.5 0,1 0,0.5 0,1 0,0.5 0.125,0.875 0.125,0.375 0.5,0.5 Q 15,55 15.5,55 q 0.5,0 1,0 0.5,0 0.875,0.125 0.375,0.125 0.5,0.5 Q 18,56 18,56.5 q 0,0.5 0,1 0,0.5 0,1 0,0.5 0,1 V 60 H 17.5 Q 17,60 16.625,59.875 16.25,59.75 16.125,59.375 16,59 15.875,58.625 15.75,58.25 15.375,58.125 15,58 14.5,58 q -0.5,0 -1,0 -0.5,0 -1,0 -0.5,0 -0.875,-0.125 -0.375,-0.125 -0.5,-0.5 Q 11,57 11,56.5 11,56 10.875,55.625 10.75,55.25 10.375,55.125 10,55 9.625,54.875 9.25,54.75 9.125,54.375 9,54 9,53.5 9,53 9,52.5 9,52 8.875,51.625 8.75,51.25 8.375,51.125 8,51 7.625,50.875 7.25,50.75 7.125,50.375 7,50 7,49.5 7,49 7,48.5 M 17.625,60 H 18 18.125 18.25 18 q -0.25,0 -0.5,0 h -0.25 0.375 m -3.5,-12 H 14 13.625 13.25 13.5 q 0.25,0 0.5,0 h 0.25 -0.125 m -6.75,0 H 7 6.875 6.75 7 q 0.25,0 0.5,0 H 7.75 7.375 M 28,44.5 V 44 h 0.5 q 0.5,0 0.875,0.125 0.375,0.125 0.5,0.5 Q 30,45 30,45.5 V 46 45.625 45.25 45.5 q 0,0.25 0.125,0.375 L 30.25,46 30.1875,45.9375 30.125,45.875 30.0625,46.4375 Q 30,47 29.875,47.375 29.75,47.75 29.375,47.875 29,48 28.5,48 H 28 v -0.5 q 0,-0.5 0,-1 0,-0.5 0,-1 0,-0.5 0,-1 m -10,0 V 44 h 0.5 q 0.5,0 1,0 0.5,0 1.0625,-0.0625 L 21.125,43.875 21.0625,43.8125 21,43.75 21.125,43.875 Q 21.25,44 21.5,44 H 21.75 21.375 21 21.5 q 0.5,0 1,0 H 23 v 0.5 q 0,0.5 0,1 V 46 h -0.5 q -0.5,0 -1,0 -0.5,0 -1,0 -0.5,0 -1,0 -0.5,0 -1,0 H 18 v -0.5 q 0,-0.5 0,-1 M 23.125,44 H 23 22.625 22.25 22.5 q 0.25,0 0.5,0 h 0.25 -0.125 m -4.75,0 H 18 17.875 17.75 18 q 0.25,0 0.5,0 h 0.25 -0.375"
         inkscape:connector-curvature="0" />
      <path
         id="path7013"
         style="fill:#000000;fill-opacity:1"
         d="M 2.125,53.625 Q 2.25,53.25 2.625,53.125 3,53 3.5,53 H 4 3.625 3.25 3.5 q 0.25,0 0.375,-0.125 L 4,52.75 3.9375,52.8125 3.875,52.875 3.9375,53.4375 Q 4,54 4,54.5 V 55 H 3.5 Q 3,55 2.625,55.125 2.25,55.25 2.125,55.625 2,56 2,56.5 q 0,0.5 0,1 0,0.5 0,1 0,0.5 0,1 0,0.5 0,1 0,0.5 0,1 0,0.5 0,1 0,0.5 0,1 0,0.5 0.125,0.875 0.125,0.375 0.5,0.5 Q 3,65 3.5625,64.9375 L 4.125,64.875 4.0625,64.8125 4,64.75 4.125,64.875 Q 4.25,65 4.5,65 H 4.75 4.375 4 4.5 q 0.5,0 1,0 0.5,0 0.875,-0.125 0.375,-0.125 0.5,-0.5 Q 7,64 7,63.5 7,63 7,62.5 V 62 62.375 62.75 62.5 Q 7,62.25 6.875,62.125 L 6.75,62 6.8125,62.0625 6.875,62.125 7.4375,62.0625 Q 8,62 8.5,62 H 9 v 0.5 q 0,0.5 0,1 0,0.5 -0.125,0.875 -0.125,0.375 -0.5,0.5 Q 8,65 7.625,65.125 7.25,65.25 7.125,65.625 L 7,66 H 6.5 6 5.5 5 4.5 4 3.5 3 2.5 2 L 1.875,65.625 Q 1.75,65.25 1.375,65.125 1,65 0.5,65 H 0 V 64.5 64 63.5 63 62.5 62 61.5 61 60.5 60 59.5 59 58.5 58 57.5 57 56.5 56 55.5 55 H 0.5 Q 1,55 1.375,54.875 1.75,54.75 1.875,54.375 2,54 2.125,53.625 M 4,55.125 V 55 54.625 54.25 54.5 q 0,0.25 0,0.5 v 0.25 -0.125 M 32,48.5 V 48 h 0.5 q 0.5,0 1,0 0.5,0 0.875,0.125 0.375,0.125 0.5,0.5 Q 35,49 35,49.5 q 0,0.5 0.125,0.875 0.125,0.375 0.5,0.5 Q 36,51 36.5,51 H 37 v 0.5 0.5 0.5 0.5 0.5 0.5 0.5 0.5 0.5 0.5 0.5 0.5 0.5 0.5 0.5 0.5 0.5 0.5 0.5 0.5 0.5 0.5 h -0.5 q -0.5,0 -0.875,0.125 -0.375,0.125 -0.5,0.5 Q 35,63 35,63.5 q 0,0.5 -0.125,0.875 -0.125,0.375 -0.5,0.5 Q 34,65 33.5,65 q -0.5,0 -1,0 -0.5,0 -1,0 -0.5,0 -0.875,-0.125 -0.375,-0.125 -0.5,-0.5 Q 30,64 30,63.5 30,63 29.875,62.625 29.75,62.25 29.375,62.125 29,62 28.625,61.875 28.25,61.75 28.125,61.375 28,61 27.875,60.625 27.75,60.25 27.375,60.125 27,60 26.5,60 26,60 25.5,60 H 25 v -0.5 q 0,-0.5 0,-1 V 58 h 0.5 q 0.5,0 1,0 0.5,0 0.875,0.125 0.375,0.125 0.5,0.5 0.125,0.375 0.25,0.75 0.125,0.375 0.5,0.5 0.375,0.125 0.75,0 0.375,-0.125 0.5,-0.5 Q 30,59 30,58.5 q 0,-0.5 0,-1 0,-0.5 0,-1 0,-0.5 0,-1 0,-0.5 0,-1 0,-0.5 0,-1 0,-0.5 0,-1 0,-0.5 0.0625,-1.0625 L 30.125,50.875 30.0625,50.8125 30,50.75 30.125,50.875 Q 30.25,51 30.5,51 H 30.75 30.375 30 30.5 q 0.5,0 0.875,-0.125 0.375,-0.125 0.5,-0.5 Q 32,50 32,49.5 q 0,-0.5 0,-1 m -7,9.375 V 58 58.375 58.75 58.5 q 0,-0.25 0,-0.5 v -0.25 0.125 M 24.875,60 H 25 25.375 25.75 25.5 q -0.25,0 -0.5,0 h -0.25 0.125 M 2,32.5 V 32 h 0.5 q 0.5,0 1,0 0.5,0 1,0 0.5,0 1,0 0.5,0 1,0 0.5,0 1,0 0.5,0 1,0 H 9 v 0.5 q 0,0.5 0,1 V 34 H 8.5 Q 8,34 7.5,34 7,34 6.5,34 6,34 5.5,34 5,34 4.5,34 4,34 3.5,34 3,34 2.5,34 H 2 V 33.5 Q 2,33 2,32.5 M 8.625,34 H 9 9.125 9.25 9 Q 8.75,34 8.5,34 H 8.25 8.625 M 2,31.875 V 32 32.375 32.75 32.5 Q 2,32.25 2,32 v -0.25 0.125 m 14.125,-1.25 q 0.125,-0.375 0.5,-0.5 Q 17,30 17.5,30 q 0.5,0 1,0 0.5,0 1,0 0.5,0 1,0 H 21 v 0.5 q 0,0.5 0.125,0.875 0.125,0.375 0.5,0.5 Q 22,32 22.5,32 q 0.5,0 1,0 0.5,0 1,0 0.5,0 1,0 0.5,0 1,0 0.5,0 1,0 0.5,0 1,0 0.5,0 1,0 0.5,0 1,0 0.5,0 1,0 H 32 v 0.5 q 0,0.5 0,1 V 34 h -0.5 q -0.5,0 -0.875,0.125 -0.375,0.125 -0.5,0.5 Q 30,35 30,35.5 q 0,0.5 -0.125,0.875 -0.125,0.375 -0.5,0.5 Q 29,37 28.5,37 q -0.5,0 -1,0 -0.5,0 -1,0 -0.5,0 -1.0625,0.0625 L 24.875,37.125 24.9375,37.1875 25,37.25 24.875,37.125 Q 24.75,37 24.5,37 H 24.25 24.625 25 24.5 q -0.5,0 -1,0 -0.5,0 -1,0 -0.5,0 -1,0 -0.5,0 -1,0 -0.5,0 -1,0 -0.5,0 -0.875,-0.125 -0.375,-0.125 -0.5,-0.5 Q 18,36 18,35.5 18,35 17.875,34.625 17.75,34.25 17.375,34.125 17,34 16.5,34 q -0.5,0 -1,0 -0.5,0 -1,0 -0.5,0 -0.5,-0.5 0,-0.5 0,-1 0,-0.5 0.5,-0.5 0.5,0 0.875,-0.125 0.375,-0.125 0.5,-0.5 Q 16,31 16.125,30.625 M 32,34.125 V 34 33.625 33.25 33.5 q 0,0.25 0,0.5 v 0.25 -0.125 m 0,-1.75 V 32 31.875 31.75 32 q 0,0.25 0,0.5 v 0.25 -0.375 M 21.125,30 H 21 20.625 20.25 20.5 q 0.25,0 0.5,0 h 0.25 -0.125 M 23,23.5 q 0,-0.5 0.5,-0.5 0.5,0 0.875,0.125 0.375,0.125 0.5,0.5 Q 25,24 25,24.5 q 0,0.5 0,1 0,0.5 0,1 0,0.5 0,1 Q 25,28 24.5,28 24,28 23.625,27.875 23.25,27.75 23.125,27.375 23,27 23,26.5 q 0,-0.5 0,-1 0,-0.5 0,-1 0,-0.5 0,-1 m -4.875,0.125 q 0.125,-0.375 0.5,-0.5 Q 19,23 19.5,23 q 0.5,0 1,0 0.5,0 0.5,0.5 0,0.5 0,1 0,0.5 0,1 0,0.5 0,1 0,0.5 0,1 0,0.5 -0.5,0.5 -0.5,0 -1,0 -0.5,0 -1,0 H 18 v -0.5 q 0,-0.5 0,-1 0,-0.5 0,-1 0,-0.5 0,-1 0,-0.5 0.125,-0.875 M 14,7.5 V 7 h 0.5 q 0.5,0 1,0 0.5,0 1,0 0.5,0 1,0 0.5,0 1,0 0.5,0 1,0 0.5,0 1,0 0.5,0 1,0 0.5,0 1,0 H 23 22.625 22.25 22.5 q 0.25,0 0.375,-0.125 L 23,6.75 22.9375,6.8125 22.875,6.875 23.4375,6.9375 Q 24,7 24.5625,6.9375 L 25.125,6.875 25.0625,6.8125 25,6.75 25.125,6.875 Q 25.25,7 25.5,7 H 25.75 25.375 25 25.5 q 0.5,0 1,0 0.5,0 1,0 0.5,0 1,0 0.5,0 0.875,0.125 0.375,0.125 0.5,0.5 Q 30,8 30.125,8.375 30.25,8.75 30.625,8.875 31,9 31.375,9.125 31.75,9.25 31.875,9.625 32,10 32,10.5 q 0,0.5 0,1 0,0.5 0,1 0,0.5 -0.125,0.875 -0.125,0.375 -0.5,0.5 Q 31,14 30.625,14.125 30.25,14.25 30.125,14.625 30,15 29.875,15.375 29.75,15.75 29.375,15.875 29,16 28.625,16.125 28.25,16.25 28.125,16.625 28,17 28,17.5 q 0,0.5 0,1 0,0.5 0,1 0,0.5 -0.125,0.875 -0.125,0.375 -0.5,0.5 Q 27,21 26.5,21 q -0.5,0 -1,0 -0.5,0 -1,0 -0.5,0 -1,0 H 23 v -0.5 q 0,-0.5 0,-1 0,-0.5 0.125,-0.875 0.125,-0.375 0.5,-0.5 0.375,-0.125 0.75,-0.25 0.375,-0.125 0.5,-0.5 0.125,-0.375 0,-0.75 -0.125,-0.375 -0.5,-0.5 -0.375,-0.125 -0.75,0 -0.375,0.125 -0.5,0.5 -0.125,0.375 -0.25,0.75 -0.125,0.375 -0.5,0.5 -0.375,0.125 -0.75,0 -0.375,-0.125 -0.5,-0.5 Q 21,17 20.875,16.625 20.75,16.25 20.375,16.125 20,16 19.5,16 q -0.5,0 -0.875,0.125 -0.375,0.125 -0.5,0.5 -0.125,0.375 0,0.75 0.125,0.375 0.5,0.5 Q 19,18 19.5,18 q 0.5,0 0.875,0.125 0.375,0.125 0.5,0.5 Q 21,19 21,19.5 q 0,0.5 0,1 V 21 h -0.5 q -0.5,0 -1,0 -0.5,0 -1,0 -0.5,0 -1,0 -0.5,0 -1,0 -0.5,0 -0.5,-0.5 0,-0.5 0,-1 0,-0.5 -0.125,-0.875 -0.125,-0.375 -0.5,-0.5 -0.375,-0.125 -0.75,0 -0.375,0.125 -0.5,0.5 Q 14,19 14,19.5 q 0,0.5 -0.125,0.875 -0.125,0.375 -0.5,0.5 Q 13,21 12.5,21 12,21 11.625,21.125 11.25,21.25 11.125,21.625 11,22 11,22.5 q 0,0.5 0,1 0,0.5 0,1 0,0.5 0,1 0,0.5 0,1 0,0.5 0.125,0.875 0.125,0.375 0.5,0.5 Q 12,28 12.5,28 q 0.5,0 1,0 0.5,0 0.5,0.5 0,0.5 -0.125,0.875 -0.125,0.375 -0.5,0.5 Q 13,30 12.5,30 12,30 11.625,30.125 11.25,30.25 11.125,30.625 11,31 11,31.5 11,32 10.5,32 10,32 9.5,32 H 9 V 31.5 Q 9,31 8.875,30.625 8.75,30.25 8.375,30.125 8,30 7.625,29.875 7.25,29.75 7.125,29.375 7,29 7,28.5 7,28 7,27.5 7,27 7,26.5 7,26 7,25.5 7,25 7,24.5 7,24 6.875,23.625 6.75,23.25 6.375,23.125 6,23 5.5,23 5,23 4.5,23 H 4 V 22.5 Q 4,22 4.125,21.625 4.25,21.25 4.625,21.125 5,21 5.5,21 6,21 6.375,20.875 6.75,20.75 6.875,20.375 7,20 7,19.5 7,19 7,18.5 7,18 7,17.5 7,17 7.125,16.625 7.25,16.25 7.625,16.125 8,16 8.5,16 q 0.5,0 1,0 0.5,0 0.875,-0.125 0.375,-0.125 0.5,-0.5 Q 11,15 11.125,14.625 11.25,14.25 11.625,14.125 12,14 12.5,14 q 0.5,0 0.875,-0.125 0.375,-0.125 0.5,-0.5 Q 14,13 14,12.5 14,12 13.875,11.625 13.75,11.25 13.375,11.125 13,11 12.5,11 12,11 11.625,11.125 11.25,11.25 11.125,11.625 11,12 11,12.5 q 0,0.5 -0.125,0.875 -0.125,0.375 -0.5,0.5 Q 10,14 9.625,13.875 9.25,13.75 9.125,13.375 9,13 9,12.5 9,12 9.125,11.625 9.25,11.25 9.625,11.125 10,11 10.375,10.875 10.75,10.75 10.875,10.375 11,10 11.125,9.625 11.25,9.25 11.625,9.125 12,9 12.5,9 13,9 13.375,8.875 13.75,8.75 13.875,8.375 14,8 14,7.5 m 5.5,6.5 q 0.5,0 0.875,-0.125 0.375,-0.125 0.5,-0.5 Q 21,13 21,12.5 21,12 20.875,11.625 20.75,11.25 20.375,11.125 20,11 19.5,11 19,11 18.625,11.125 18.25,11.25 18.125,11.625 18,12 18,12.5 q 0,0.5 0.125,0.875 0.125,0.375 0.5,0.5 Q 19,14 19.5,14 m 7,2 q 0.5,0 0.875,-0.125 0.375,-0.125 0.5,-0.5 0.125,-0.375 0,-0.75 -0.125,-0.375 -0.5,-0.5 Q 27,14 26.5,14 q -0.5,0 -0.875,0.125 -0.375,0.125 -0.5,0.5 -0.125,0.375 0,0.75 0.125,0.375 0.5,0.5 Q 26,16 26.5,16 M 14.375,7 H 14 13.875 13.75 14 q 0.25,0 0.5,0 h 0.25 -0.375"
         inkscape:connector-curvature="0" />
      <path
         id="path7015"
         style="fill:#8f581f;fill-opacity:1"
         d="M 2.125,55.625 Q 2.25,55.25 2.625,55.125 3,55 3.5,55 H 4 v 0.5 q 0,0.5 0,1 0,0.5 0.125,0.875 0.125,0.375 0.5,0.5 Q 5,58 5.5,58 6,58 6.375,58.125 6.75,58.25 6.875,58.625 7,59 7.125,59.375 7.25,59.75 7.625,59.875 8,60 8.375,60.125 8.75,60.25 8.875,60.625 9,61 9,61.5 V 62 H 8.5 Q 8,62 7.4375,62.0625 L 6.875,62.125 6.9375,62.1875 7,62.25 6.875,62.125 Q 6.75,62 6.5,62 H 6.25 6.625 7 6.5 Q 6,62 5.5,62 5,62 4.625,62.125 4.25,62.25 4.125,62.625 4,63 4,63.5 4,64 4,64.5 V 65 64.625 64.25 64.5 q 0,0.25 0.125,0.375 L 4.25,65 4.1875,64.9375 4.125,64.875 3.5625,64.9375 Q 3,65 2.625,64.875 2.25,64.75 2.125,64.375 2,64 2,63.5 2,63 2,62.5 2,62 2,61.5 2,61 2,60.5 2,60 2,59.5 2,59 2,58.5 2,58 2,57.5 2,57 2,56.5 2,56 2.125,55.625 M 4,55.375 V 55 54.875 54.75 55 q 0,0.25 0,0.5 v 0.25 -0.375 m 28.125,-10.75 q 0.125,-0.375 0.5,-0.5 Q 33,44 33.5,44 q 0.5,0 1,0 H 35 v 0.5 q 0,0.5 -0.125,0.875 -0.125,0.375 -0.5,0.5 Q 34,46 33.5,46 33,46 32.625,46.125 32.25,46.25 32.125,46.625 32,47 32,47.5 V 48 h -0.5 q -0.5,0 -0.875,0.125 -0.375,0.125 -0.5,0.5 Q 30,49 30,49.5 q 0,0.5 0,1 V 51 50.625 50.25 50.5 q 0,0.25 0.125,0.375 L 30.25,51 30.1875,50.9375 30.125,50.875 30.0625,51.4375 Q 30,52 30,52.5 q 0,0.5 0,1 0,0.5 0,1 0,0.5 0,1 0,0.5 0,1 0,0.5 0,1 0,0.5 0,1 0,0.5 -0.125,0.875 -0.125,0.375 -0.5,0.5 -0.375,0.125 -0.75,0 -0.375,-0.125 -0.5,-0.5 Q 28,59 27.875,58.625 27.75,58.25 27.375,58.125 27,58 26.5,58 26,58 25.5,58 H 25 v -0.5 q 0,-0.5 0,-1 0,-0.5 0,-1 0,-0.5 0,-1 0,-0.5 0,-1 V 53 h 0.5 q 0.5,0 1,0 0.5,0 0.875,-0.125 0.375,-0.125 0.5,-0.5 Q 28,52 28,51.5 q 0,-0.5 0,-1 0,-0.5 0,-1 0,-0.5 0,-1 V 48 h 0.5 q 0.5,0 0.875,-0.125 0.375,-0.125 0.5,-0.5 Q 30,47 30.0625,46.4375 L 30.125,45.875 30.0625,45.8125 30,45.75 30.125,45.875 Q 30.25,46 30.5,46 H 30.75 30.375 30 30.5 q 0.5,0 0.875,-0.125 0.375,-0.125 0.5,-0.5 Q 32,45 32.125,44.625 M 25,52.875 V 53 53.375 53.75 53.5 q 0,-0.25 0,-0.5 v -0.25 0.125 m 0,4.75 V 58 58.125 58.25 58 q 0,-0.25 0,-0.5 v -0.25 0.375 M 35,39.5 V 39 h 0.5 q 0.5,0 1,0 H 37 v 0.5 0.5 0.5 0.5 0.5 0.5 0.5 0.5 0.5 0.5 h -0.5 q -0.5,0 -1,0 H 35 v -0.5 q 0,-0.5 0,-1 0,-0.5 0,-1 0,-0.5 0,-1 0,-0.5 0,-1 m -4.875,-4.875 q 0.125,-0.375 0.5,-0.5 Q 31,34 31.5,34 H 32 v 0.5 q 0,0.5 0,1 0,0.5 0.125,0.875 0.125,0.375 0.5,0.5 Q 33,37 33.5,37 q 0.5,0 0.875,0.125 0.375,0.125 0.5,0.5 Q 35,38 35,38.5 V 39 h -0.5 q -0.5,0 -1,0 -0.5,0 -0.875,-0.125 -0.375,-0.125 -0.5,-0.5 Q 32,38 31.875,37.625 31.75,37.25 31.375,37.125 31,37 30.625,37.125 30.25,37.25 30.125,37.625 30,38 30,38.5 q 0,0.5 0,1 0,0.5 -0.125,0.875 -0.125,0.375 -0.5,0.5 Q 29,41 28.625,41.125 28.25,41.25 28.125,41.625 28,42 28,42.5 q 0,0.5 0,1 V 44 h -0.5 q -0.5,0 -1,0 -0.5,0 -1,0 H 25 v -0.5 q 0,-0.5 0,-1 0,-0.5 -0.125,-0.875 -0.125,-0.375 -0.5,-0.5 Q 24,41 23.5,41 q -0.5,0 -1,0 -0.5,0 -1,0 H 21 v -0.5 q 0,-0.5 0,-1 V 39 h 0.5 q 0.5,0 1,0 0.5,0 1,0 0.5,0 0.875,-0.125 0.375,-0.125 0.5,-0.5 Q 25,38 25,37.5 V 37 37.375 37.75 37.5 q 0,-0.25 -0.125,-0.375 L 24.75,37 l 0.0625,0.0625 0.0625,0.0625 0.5625,-0.0625 Q 26,37 26.5,37 q 0.5,0 1,0 0.5,0 1,0 0.5,0 0.875,-0.125 0.375,-0.125 0.5,-0.5 Q 30,36 30,35.5 30,35 30.125,34.625 M 21.375,39 H 21 20.875 20.75 21 q 0.25,0 0.5,0 h 0.25 -0.375 m 3.5,5 H 25 25.375 25.75 25.5 q -0.25,0 -0.5,0 h -0.25 0.125 M 26.5,41 q 0.5,0 0.875,-0.125 0.375,-0.125 0.5,-0.5 0.125,-0.375 0,-0.75 -0.125,-0.375 -0.5,-0.5 Q 27,39 26.5,39 q -0.5,0 -0.875,0.125 -0.375,0.125 -0.5,0.5 -0.125,0.375 0,0.75 0.125,0.375 0.5,0.5 Q 26,41 26.5,41 M 32,34.375 V 34 33.875 33.75 34 q 0,0.25 0,0.5 v 0.25 -0.375 M 4,34.5 V 34 h 0.5 q 0.5,0 1,0 0.5,0 1,0 0.5,0 1,0 0.5,0 1,0 0.5,0 1,0 0.5,0 0.875,0.125 0.375,0.125 0.5,0.5 Q 11,35 11,35.5 q 0,0.5 0.125,0.875 0.125,0.375 0.5,0.5 Q 12,37 12.5,37 q 0.5,0 0.875,0.125 0.375,0.125 0.5,0.5 0.125,0.375 0.25,0.75 0.125,0.375 0.5,0.5 Q 15,39 15.5,39 H 16 v 0.5 q 0,0.5 0,1 0,0.5 0,1 0,0.5 0,1 0,0.5 0,1 V 44 h -0.5 q -0.5,0 -0.875,0.125 -0.375,0.125 -0.5,0.5 Q 14,45 14,45.5 V 46 h -0.5 q -0.5,0 -1,0 -0.5,0 -0.875,0.125 -0.375,0.125 -0.5,0.5 Q 11,47 11,47.5 V 48 h -0.5 q -0.5,0 -1,0 -0.5,0 -1,0 -0.5,0 -1,0 -0.5,0 -1,0 -0.5,0 -1,0 -0.5,0 -1,0 H 4 V 47.5 Q 4,47 3.875,46.625 3.75,46.25 3.375,46.125 3,46 2.625,45.875 2.25,45.75 2.125,45.375 2,45 2,44.5 V 44 H 1.5 Q 1,44 0.5,44 H 0 V 43.5 43 42.5 42 41.5 41 40.5 40 39.5 39 H 0.5 Q 1,39 1.375,38.875 1.75,38.75 1.875,38.375 2,38 2,37.5 V 37 H 2.5 Q 3,37 3.375,36.875 3.75,36.75 3.875,36.375 4,36 4,35.5 4,35 4,34.5 M 2,36.875 V 37 37.375 37.75 37.5 Q 2,37.25 2,37 v -0.25 0.125 M 2,43.5 V 44 h 0.5 q 0.5,0 0.875,0.125 0.375,0.125 0.5,0.5 Q 4,45 4.125,45.375 4.25,45.75 4.625,45.875 5,46 5.5,46 q 0.5,0 1,0 0.5,0 1,0 0.5,0 1,0 0.5,0 1,0 0.5,0 0.875,-0.125 0.375,-0.125 0.5,-0.5 Q 11,45 11.125,44.625 11.25,44.25 11.625,44.125 12,44 12.5,44 q 0.5,0 0.875,-0.125 0.375,-0.125 0.5,-0.5 Q 14,43 14,42.5 q 0,-0.5 0,-1 0,-0.5 0,-1 0,-0.5 -0.125,-0.875 -0.125,-0.375 -0.5,-0.5 Q 13,39 12.5,39 12,39 11.625,38.875 11.25,38.75 11.125,38.375 11,38 10.875,37.625 10.75,37.25 10.375,37.125 10,37 9.5,37 9,37 8.5,37 8,37 7.5,37 7,37 6.5,37 6,37 5.5,37 5,37 4.625,37.125 4.25,37.25 4.125,37.625 4,38 3.875,38.375 3.75,38.75 3.375,38.875 3,39 2.625,39.125 2.25,39.25 2.125,39.625 2,40 2,40.5 q 0,0.5 0,1 0,0.5 0,1 0,0.5 0,1 m 2,4.125 V 48 48.125 48.25 48 q 0,-0.25 0,-0.5 v -0.25 0.375 M 10.625,48 H 11 11.125 11.25 11 q -0.25,0 -0.5,0 h -0.25 0.375 m 3,-2 H 14 14.125 14.25 14 q -0.25,0 -0.5,0 h -0.25 0.375 m 2,-2 H 16 16.125 16.25 16 q -0.25,0 -0.5,0 h -0.25 0.375 M 4.375,34 H 4 3.875 3.75 4 q 0.25,0 0.5,0 H 4.75 4.375 M 21,30.5 V 30 h 0.5 q 0.5,0 0.875,0.125 0.375,0.125 0.5,0.5 Q 23,31 23,31.5 V 32 H 22.5 Q 22,32 21.625,31.875 21.25,31.75 21.125,31.375 21,31 21,30.5 M 22.625,32 H 23 23.125 23.25 23 q -0.25,0 -0.5,0 h -0.25 0.375 m -1.25,-2 H 21 20.875 20.75 21 q 0.25,0 0.5,0 h 0.25 -0.375 M 30,25.5 q 0,-0.5 0.5,-0.5 0.5,0 0.875,0.125 0.375,0.125 0.5,0.5 Q 32,26 32,26.5 q 0,0.5 0,1 0,0.5 0,1 0,0.5 0,1 0,0.5 0,1 0,0.5 0,1 V 32 h -0.5 q -0.5,0 -1,0 H 30 v -0.5 q 0,-0.5 0,-1 0,-0.5 0,-1 0,-0.5 0,-1 0,-0.5 0,-1 0,-0.5 0,-1 0,-0.5 0,-1 M 29.875,32 H 30 30.375 30.75 30.5 q -0.25,0 -0.5,0 h -0.25 0.125 M 32,32.125 V 32 31.625 31.25 31.5 q 0,0.25 0,0.5 v 0.25 -0.125 M 2.125,25.625 Q 2.25,25.25 2.625,25.125 3,25 3.5,25 H 4 v 0.5 q 0,0.5 0,1 0,0.5 0,1 0,0.5 0,1 0,0.5 -0.125,0.875 -0.125,0.375 -0.5,0.5 Q 3,30 2.625,29.875 2.25,29.75 2.125,29.375 2,29 2,28.5 2,28 2,27.5 2,27 2,26.5 2,26 2.125,25.625 M 4,25.375 V 25 24.875 24.75 25 q 0,0.25 0,0.5 v 0.25 -0.375"
         inkscape:connector-curvature="0" />
      <path
         id="path7019"
         style="fill:#ffd870;fill-opacity:1"
         d="M 4.125,62.625 Q 4.25,62.25 4.625,62.125 5,62 5.5,62 6,62 6.5,62 7,62 7,62.5 7,63 7,63.5 7,64 6.875,64.375 6.75,64.75 6.375,64.875 6,65 5.5,65 5,65 4.5,65 4,65 4,64.5 4,64 4,63.5 4,63 4.125,62.625 m 26,-14 q 0.125,-0.375 0.5,-0.5 Q 31,48 31.5,48 H 32 v 0.5 q 0,0.5 0,1 0,0.5 -0.125,0.875 -0.125,0.375 -0.5,0.5 Q 31,51 30.5,51 30,51 30,50.5 30,50 30,49.5 30,49 30.125,48.625 M 18,2.5 V 2 h 0.5 q 0.5,0 1,0 0.5,0 1,0 H 21 v 0.5 q 0,0.5 0,1 0,0.5 0,1 0,0.5 0,1 0,0.5 0,1 V 7 H 20.5 Q 20,7 19.5,7 19,7 18.5,7 H 18 V 6.5 Q 18,6 18,5.5 18,5 18,4.5 18,4 18,3.5 18,3 18,2.5 M 17.875,7 H 18 18.375 18.75 18.5 Q 18.25,7 18,7 h -0.25 0.125 m 2.75,0 H 21 21.125 21.25 21 q -0.25,0 -0.5,0 h -0.25 0.375 m 0.5,-5 H 21 20.625 20.25 20.5 q 0.25,0 0.5,0 h 0.25 -0.125 m -2.75,0 H 18 17.875 17.75 18 q 0.25,0 0.5,0 h 0.25 -0.375"
         inkscape:connector-curvature="0" />
    </g>
  </g>
</svg>
