<?xml version="1.0" encoding="UTF-8" standalone="no"?>
<svg
   xmlns:dc="http://purl.org/dc/elements/1.1/"
   xmlns:cc="http://creativecommons.org/ns#"
   xmlns:rdf="http://www.w3.org/1999/02/22-rdf-syntax-ns#"
   xmlns:svg="http://www.w3.org/2000/svg"
   xmlns="http://www.w3.org/2000/svg"
   id="svg8"
   version="1.1"
   viewBox="0 0 2.0320001 3.7253332"
   height="3.7253332mm"
   width="2.0320001mm">
  <defs
     id="defs2" />
  <metadata
     id="metadata5">
    <rdf:RDF>
      <cc:Work
         rdf:about="">
        <dc:format>image/svg+xml</dc:format>
        <dc:type
           rdf:resource="http://purl.org/dc/dcmitype/StillImage" />
        <dc:title></dc:title>
      </cc:Work>
    </rdf:RDF>
  </metadata>
  <g
     transform="translate(14.623143,-178.72067)"
     id="layer1">
    <g
       id="g880">
      <path
         id="path900"
         d="m -13.649476,180.668 h -0.127 v -0.0847 -0.0847 h 0.127 0.127 v 0.0847 0.0847 z m -0.205619,-0.254 h -0.09071 v -0.0484 -0.0484 l 0.10659,-0.10659 0.106589,-0.10659 0.104321,0.0348 0.104322,0.0348 -0.120197,0.1202 -0.120196,0.12019 z m 0.777119,-0.17601 -0.148167,-0.007 -0.105833,-0.0427 -0.105834,-0.0427 v -0.11994 -0.11995 h 0.08467 0.08467 v 0.13271 0.1327 l 0.169333,-0.0537 0.169333,-0.0537 v 0.0904 0.0904 z m -1.121834,-0.078 h -0.08467 v -0.127 -0.127 h 0.08467 0.08467 v 0.127 0.127 z"
         style="fill:#fecfbf;stroke-width:0.08466667" />
      <path
         id="path898"
         d="m -13.720032,182.33311 -0.05644,0.0564 v -0.11289 -0.11289 l 0.05644,0.0564 0.05645,0.0564 z m 0.832556,-0.39511 h -0.04233 v -0.0423 -0.0423 h 0.04233 0.04233 v 0.0423 0.0423 z m -0.515056,-2.45533 h -0.134055 l 0.03351,-0.10054 0.03351,-0.10054 0.100542,-0.0335 0.100542,-0.0335 v 0.13405 0.13406 z"
         style="fill:#f8cc66;stroke-width:0.08466667" />
      <path
         id="path896"
         d="m -13.598085,181.85334 h -0.07561 l -0.04656,-0.12134 -0.04656,-0.12133 0.249168,-0.0547 0.249169,-0.0547 v -0.12527 -0.12527 l 0.08467,0.0523 0.08467,0.0523 v 0.249 0.24901 h -0.08467 -0.08467 v -0.0847 -0.0847 h -0.127 -0.127 v 0.0847 0.0847 z m 0.583609,-0.59267 h -0.08467 v -0.0847 -0.0847 h 0.08467 0.08467 v 0.0847 0.0847 z"
         style="fill:#7fd7ce;stroke-width:0.08466667" />
      <path
         id="path894"
         d="m -13.196498,181.21543 -0.02965,0.0282 -0.109171,-0.11846 -0.109172,-0.11846 h 0.08301 0.08301 l 0.05581,0.0903 0.05581,0.0903 z m -0.987142,-0.12539 -0.14317,-10e-4 0.127,-0.0821 0.127,-0.0821 0.0685,-10e-4 0.0685,-0.001 -0.05233,0.0847 -0.05233,0.0847 z m 0.642976,-0.3516 -0.399188,0.0142 -0.09062,-0.16933 -0.09062,-0.16934 h -0.124021 -0.124021 v -0.0797 -0.0797 l 0.09751,-0.0603 0.09751,-0.0603 0.102323,0.13994 0.102323,0.13993 h 0.0965 0.0965 v 0.12189 0.12189 l 0.3175,0.0332 0.3175,0.0332 z m 0.365913,-0.32444 h -0.244942 l -0.05265,-0.1372 -0.05265,-0.1372 0.191758,0.0514 0.191759,0.0514 0.105833,0.001 0.105833,0.001 v 0.0847 0.0847 z m -1.288117,-0.16933 h -0.07561 v -0.0484 -0.0484 l 0.127,-0.127 0.127,-0.127 v 0.0414 0.0415 l -0.05139,0.13393 -0.05139,0.13392 z m 0.622892,-0.10579 -0.105834,0.0352 v -0.12499 -0.125 l 0.133151,-0.0511 0.133151,-0.0511 -0.02732,0.14085 -0.02732,0.14086 z m 0.486833,-0.23288 h -0.112889 l 0.05645,-0.0564 0.05644,-0.0564 0.05645,0.0564 0.05644,0.0564 z m -0.544958,-0.37064 -0.204969,0.095 0.09598,-0.15369 0.09598,-0.1537 0.204303,-0.0513 0.204303,-0.0513 0.04645,0.0464 0.04645,0.0465 h -0.141111 -0.141112 l -6.6e-4,0.0635 -6.6e-4,0.0635 z m 0.714291,-0.22202 h -0.112888 l 0.05644,-0.0565 0.05644,-0.0564 0.05645,0.0564 0.05644,0.0565 z"
         style="fill:#fe6f6e;stroke-width:0.08466667" />
      <path
         id="path892"
         d="m -13.395476,181.88909 -0.338667,0.02 -0.139478,-0.0324 -0.139477,-0.0324 -0.0431,-0.1648 -0.0431,-0.1648 h 0.07674 0.07674 l 0.185209,0.18521 0.185208,0.18521 0.03351,-0.10055 0.03351,-0.10054 h 0.119944 0.119945 v 0.0847 0.0847 h 0.08467 0.08467 v -0.16934 -0.16933 h 0.08467 0.08467 v 0.16933 0.16934 l -0.0635,0.008 -0.0635,0.008 z m 0.254,-0.54375 h -0.04233 v -0.0423 -0.0423 h 0.04233 0.04233 v 0.0423 0.0423 z m 0,-0.254 h -0.04233 v -0.0423 -0.0423 h 0.04233 0.04233 v 0.0423 0.0423 z"
         style="fill:#3f7f9e;stroke-width:0.08466667" />
      <path
         id="path890"
         d="m -14.19981,181.34534 h -0.08467 v -0.127 -0.127 h 0.08467 0.08467 v 0.127 0.127 z m 1.070399,-0.11085 -0.0544,0.0544 v -0.1015 -0.10151 l -0.1905,-0.0766 -0.1905,-0.0766 0.1378,-0.005 0.1378,-0.005 0.107098,0.12905 0.107099,0.12905 z M -13.81881,180.922 h -0.127 v -0.0847 -0.0847 h 0.127 0.127 v 0.0847 0.0847 z m -0.338666,-1.016 h -0.127 v -0.11119 -0.1112 l 0.296333,-0.11627 0.296333,-0.11628 v -0.0689 -0.0689 h 0.08467 0.08467 v 0.0764 0.0764 l -0.254,0.0885 -0.254,0.0885 v 0.13141 0.1314 z m 1.030111,-0.45155 -0.05645,0.0564 v -0.11289 -0.11289 l 0.05645,0.0564 0.05644,0.0564 z"
         style="fill:#af275f;stroke-width:0.08466667" />
      <path
         id="path888"
         d="m -13.924643,182.35812 -0.148167,-0.003 -0.105833,-0.12021 -0.105833,-0.12021 v -0.13057 -0.13057 h 0.08732 0.08732 l 0.04873,0.127 0.04873,0.127 h 0.117942 0.117942 v 0.127 0.127 z m 0.889,-0.22754 -0.148167,0.0561 v -0.12434 -0.12435 h 0.120076 0.120075 l 0.155091,-0.0588 0.155092,-0.0588 -0.127,0.127 -0.127,0.127 z m -0.719132,-0.53124 h -0.194665 l -0.0953,-0.20916 -0.0953,-0.20916 0.107482,-0.12951 0.107481,-0.12951 0.180133,0.003 0.180133,0.003 0.148167,0.11247 0.148167,0.11248 v 0.0532 0.0532 l -0.145817,0.1703 -0.145816,0.17031 z m 0.01728,-0.0847 h 0.196903 l 0.05139,-0.13392 0.05139,-0.13393 v -0.0686 -0.0686 l -0.223913,-0.0562 -0.223913,-0.0562 -0.08083,0.0808 -0.08083,0.0808 0.05645,0.17785 0.05645,0.17786 z m 0.937344,-0.16933 h -0.124343 l 0.04873,-0.127 0.04874,-0.127 h -0.15017 -0.150169 l 0.05006,-0.0501 0.05006,-0.0501 0.175714,0.0558 0.175713,0.0558 v 0.12129 0.1213 z m -0.519716,-0.42334 h -0.117942 v -0.0748 -0.0748 l 0.162999,-0.0426 0.162999,-0.0426 -0.04506,0.11742 -0.04506,0.11741 z m -0.668275,-0.16933 h -0.04233 v -0.0423 -0.0423 h 0.04233 0.04233 v 0.0423 0.0423 z m 0.522111,-0.36689 -0.05644,0.0564 v -0.11289 -0.11289 l 0.05644,0.0564 0.05645,0.0565 z m 0.592296,-0.0353 -0.04271,0.10584 v -0.21167 -0.21167 l 0.04271,0.10584 0.0427,0.10583 z m -1.438963,-0.13405 -0.05644,0.0564 v -0.1128 -0.11289 l 0.05644,0.0564 0.05645,0.0564 z"
         style="fill:#8e571e;stroke-width:0.08466667" />
      <path
         id="path886"
         d="m -13.720032,182.10028 -0.268111,-0.007 -0.15816,-0.17228 -0.15816,-0.17227 0.10424,-0.0644 0.104241,-0.0644 -0.115414,-0.0459 -0.115414,-0.0459 0.11376,-0.007 0.11376,-0.007 0.04428,0.16933 0.04428,0.16934 0.138292,0.0142 0.138292,0.0142 0.246213,0.007 0.246213,0.007 0.0354,0.127 0.0354,0.127 -0.09756,-0.127 -0.09756,-0.127 -0.04294,0.10583 -0.04294,0.10584 z m 0.705556,-0.18352 -0.127,0.0341 0.09819,-0.0702 0.09819,-0.0702 0.04073,-0.25372 0.04073,-0.25373 -0.01192,0.28982 -0.01192,0.28981 z m -0.211667,-0.91009 h -0.04233 v -0.0423 -0.0423 h 0.04233 0.04233 v 0.0423 0.0423 z"
         style="fill:#1f2f8e;stroke-width:0.08466667" />
      <path
         id="path884"
         d="m -14.155863,181.51467 h -0.125387 l -0.05441,-0.21679 -0.05441,-0.21679 0.176258,-0.16421 0.176257,-0.16421 h 0.04587 0.04587 v 0.079 0.079 l -0.169333,0.0537 -0.169333,0.0537 v 0.16363 0.16363 h 0.127 0.127 v 0.0847 0.0847 z m 1.014387,-0.508 h -0.04233 v -0.0423 -0.0423 h 0.04233 0.04233 v 0.0423 0.0423 z m -0.423334,-0.0847 h -0.127 v -0.0847 -0.0847 h 0.127 0.127 v 0.0847 0.0847 z m -0.746656,-1.08431 -0.04431,0.11065 -0.0067,-0.11235 -0.0067,-0.11235 0.247487,-0.24748 0.247487,-0.24749 h 0.09118 0.09118 v -0.0847 -0.0847 h 0.260048 0.260048 l 0.120952,0.12095 0.120952,0.12095 v 0.0907 0.0907 h -0.08467 -0.08467 v -0.13801 -0.13801 l -0.364941,0.0411 -0.364941,0.0411 -0.219067,0.21906 -0.219066,0.21907 z"
         style="fill:#4f0000;stroke-width:0.08466667" />
      <path
         id="path882"
         d="m -13.812762,182.446 h -0.290286 l -0.133047,-0.13304 -0.133048,-0.13305 0.0098,-0.18445 0.0098,-0.18446 0.04164,0.16335 0.04164,0.16334 0.111821,0.11183 0.111821,0.11182 h 0.18444 0.184439 l -0.04708,-0.12269 -0.04708,-0.12269 0.122689,0.0471 0.122688,0.0471 v 0.11794 0.11794 z m 0.879555,-0.0445 -0.213368,0.0536 -0.06095,-0.061 -0.06095,-0.0609 v -0.0949 -0.0949 l 0.170183,-0.0128 0.170183,-0.0128 0.125394,-0.12539 0.125395,-0.1254 -0.105078,-0.0375 -0.105077,-0.0375 0.0681,-0.0726 0.0681,-0.0726 0.07877,0.12455 0.07877,0.12455 v 0.127 0.127 l -0.06305,0.0991 -0.06305,0.0991 z m -1.112691,-1.72953 -0.03447,0.10342 -0.155726,-0.15573 -0.155727,-0.15572 0.103415,-0.0345 0.103414,-0.0345 0.08678,0.0868 0.08678,0.0868 z m 0.825803,-0.004 h -0.302381 v -0.0785 -0.0785 l -0.124771,-0.0274 -0.12477,-0.0274 0.08888,-0.127 0.08888,-0.127 0.04294,0.10583 0.04294,0.10583 h 0.422325 0.422326 l -0.127,0.127 -0.127,0.127 z m -0.686505,-0.36137 -0.11344,0.1043 -0.05097,-0.1606 -0.05097,-0.16059 0.05648,-0.22504 0.05648,-0.22505 0.20645,-0.0785 0.206451,-0.0785 h 0.32623 0.32623 l 0.133925,0.0514 0.133924,0.0514 v 0.10889 0.10888 l -0.122117,0.0469 -0.122118,0.0469 -0.296619,-0.0481 -0.29662,-0.0481 -0.216263,0.0543 -0.216263,0.0543 v 0.11833 0.11833 l 0.07633,0.0282 0.07633,0.0282 z m 0.435277,-0.16956 -0.05115,0.0512 0.0067,-0.16228 0.0067,-0.16228 0.04447,0.11112 0.04447,0.11113 z m 0.254,0 -0.05115,0.0512 0.0067,-0.16228 0.0067,-0.16228 0.04447,0.11112 0.04447,0.11113 z"
         style="fill:#000000;stroke-width:0.08466667" />
    </g>
  </g>
</svg>
