<?xml version="1.0" encoding="UTF-8" standalone="no"?>
<svg
   xmlns:dc="http://purl.org/dc/elements/1.1/"
   xmlns:cc="http://creativecommons.org/ns#"
   xmlns:rdf="http://www.w3.org/1999/02/22-rdf-syntax-ns#"
   xmlns:svg="http://www.w3.org/2000/svg"
   xmlns="http://www.w3.org/2000/svg"
   width="1.96024mm"
   height="3.7460201mm"
   viewBox="0 0 1.96024 3.7460201"
   version="1.1"
   id="svg1058">
  <defs
     id="defs1052" />
  <metadata
     id="metadata1055">
    <rdf:RDF>
      <cc:Work
         rdf:about="">
        <dc:format>image/svg+xml</dc:format>
        <dc:type
           rdf:resource="http://purl.org/dc/dcmitype/StillImage" />
        <dc:title></dc:title>
      </cc:Work>
    </rdf:RDF>
  </metadata>
  <g
     transform="translate(-120.77697,-247.49133)"
     id="layer1">
    <g
       id="g1125">
      <path
         style="fill:#fecfbf;stroke-width:0.08466667"
         d="m 121.66601,249.45966 h -0.127 v -0.0847 -0.0847 h 0.127 0.127 v 0.0847 0.0847 z m -0.20562,-0.254 h -0.0907 v -0.0484 -0.0484 l 0.10659,-0.10659 0.10659,-0.10659 0.10432,0.0348 0.10432,0.0348 -0.12019,0.1202 -0.1202,0.12019 z m 0.77712,-0.17601 -0.14817,-0.007 -0.10583,-0.0427 -0.10584,-0.0427 v -0.11994 -0.11995 h 0.0847 0.0847 v 0.13271 0.1327 l 0.16933,-0.0537 0.16933,-0.0537 v 0.0904 0.0904 z m -1.12184,-0.078 h -0.0847 v -0.127 -0.127 h 0.0847 0.0847 v 0.127 0.127 z"
         id="path1145" />
      <path
         style="fill:#f9ce67;stroke-width:0.08466667"
         d="m 121.11567,251.153 h -0.0847 v -0.0847 -0.0847 h 0.0847 0.0847 v 0.0847 0.0847 z m 1.31234,-0.67734 h -0.0423 v -0.0423 -0.0423 h 0.0423 0.0423 v 0.0423 0.0423 z m -0.51506,-2.20133 h -0.13405 l 0.0335,-0.10054 0.0335,-0.10054 0.10055,-0.0335 0.10054,-0.0335 v 0.13405 0.13406 z"
         id="path1143" />
      <path
         style="fill:#7fd7ce;stroke-width:0.08466667"
         d="m 121.94117,250.63996 -0.10583,-0.005 -0.14817,-0.15023 -0.14816,-0.15024 v -0.14107 -0.14106 h 0.127 0.127 v -0.0847 -0.0847 h 0.0907 0.0907 l 0.12095,0.12095 0.12095,0.12095 v 0.13305 0.13305 h -0.0847 -0.0847 v 0.127 0.127 l -0.10584,-0.005 z m -0.0212,-0.33363 h 0.127 v -0.127 -0.127 h -0.127 -0.127 v 0.127 0.127 z"
         id="path1141" />
      <path
         style="fill:#fe6f6e;stroke-width:0.08466667"
         d="m 121.99762,249.79165 -0.16228,-0.007 0.11113,-0.0445 0.11112,-0.0445 0.0511,0.0512 0.0512,0.0512 z m -0.99484,-0.10621 -0.0564,0.0565 v -0.11289 -0.11289 l 0.0564,0.0564 0.0564,0.0564 z m 0.76113,-0.15534 -0.41009,0.0142 -0.0443,-0.16933 -0.0443,-0.16934 h -0.15946 -0.15946 v -0.0797 -0.0797 l 0.0975,-0.0603 0.0975,-0.0603 0.10232,0.13994 0.10233,0.13993 h 0.0965 0.0965 v 0.12189 0.12189 l 0.3175,0.0332 0.3175,0.0332 z m 0.45243,-0.32444 h -0.16933 v -0.0847 -0.0847 h -0.14111 -0.14112 l 0.0429,-0.0429 0.0429,-0.0429 0.26752,0.0535 0.26752,0.0535 v 0.0741 0.0741 z m -1.36373,-0.16933 h -0.0756 v -0.0484 -0.0484 l 0.127,-0.127 0.127,-0.127 v 0.0414 0.0415 l -0.0514,0.13393 -0.0514,0.13392 z m 0.6229,-0.10579 -0.10584,0.0352 v -0.12499 -0.125 l 0.13315,-0.0511 0.13316,-0.0511 -0.0273,0.14085 -0.0273,0.14086 z m 0.86783,-0.0635 h -0.127 v -0.0847 -0.0847 h 0.127 0.127 v 0.0847 0.0847 z m -0.381,-0.16934 h -0.11289 l 0.0564,-0.0564 0.0564,-0.0565 0.0564,0.0565 0.0564,0.0564 z m -0.54496,-0.37064 -0.20497,0.095 0.096,-0.15369 0.096,-0.1537 0.20431,-0.0513 0.2043,-0.0513 0.0465,0.0464 0.0465,0.0465 h -0.14112 -0.14111 l -6.6e-4,0.0635 -6.6e-4,0.0635 z m 0.71429,-0.22202 h -0.11289 l 0.0564,-0.0564 0.0564,-0.0564 0.0564,0.0564 0.0564,0.0564 z"
         id="path1139" />
      <path
         style="fill:#3f7f9e;stroke-width:0.08466667"
         d="m 121.72951,250.71984 -0.0635,-0.01 -0.14096,-0.0373 -0.14096,-0.0373 -0.0469,-0.12218 -0.0469,-0.12218 0.0487,-0.127 0.0487,-0.127 h 0.0756 0.0756 v 0.12965 0.12966 l 0.127,0.0487 0.127,0.0487 v 0.11794 0.11794 z m 0.5715,-0.32884 h -0.11289 l 0.0564,-0.0564 0.0564,-0.0564 0.0564,0.0564 0.0564,0.0564 z m 0.01,-0.33867 h -0.0748 l -0.0426,-0.163 -0.0426,-0.163 0.11742,0.0451 0.11741,0.0451 v 0.11794 0.11794 z m -0.39793,-0.17602 -0.16228,-0.007 0.11113,-0.0445 0.11112,-0.0445 0.0512,0.0512 0.0512,0.0512 z"
         id="path1137" />
      <path
         style="fill:#af275f;stroke-width:0.08466667"
         d="m 121.74547,249.87631 -0.0899,0.007 -0.1853,-0.17263 -0.18529,-0.17264 v -0.0311 -0.0311 l 0.16933,0.0443 0.16933,0.0443 v 0.11007 0.11007 l 0.10584,0.0427 0.10583,0.0427 -0.0899,0.007 z m 0.3862,0.007 h -0.11289 l 0.0564,-0.0565 0.0564,-0.0564 0.0564,0.0564 0.0564,0.0565 z m 0.16934,-0.16934 h -0.0847 v -0.127 -0.127 h 0.0847 0.0847 v 0.127 0.127 z m -1.143,-1.016 h -0.127 v -0.11119 -0.1112 l 0.29633,-0.11627 0.29633,-0.11628 v -0.0689 -0.0689 h 0.0847 0.0847 v 0.0764 0.0764 l -0.254,0.0885 -0.254,0.0885 v 0.13141 0.1314 z m 1.03011,-0.45155 -0.0564,0.0564 v -0.11289 -0.11289 l 0.0564,0.0564 0.0564,0.0564 z"
         id="path1135" />
      <path
         style="fill:#8e571e;stroke-width:0.08466667"
         d="m 121.00241,251.0895 -0.0427,0.10583 -0.007,-0.28137 -0.007,-0.28138 0.14719,0.0284 0.1472,0.0283 0.0284,0.1472 0.0283,0.14719 h -0.12615 -0.12615 z m 1.24939,-0.29854 -0.13387,0.13387 0.028,-0.23922 0.028,-0.23922 0.10583,-0.0348 0.10583,-0.0348 v 0.1401 0.1401 z m -1.07359,-0.49169 -0.10487,-0.007 -0.14817,-0.16228 -0.14816,-0.16228 v -0.0423 -0.0423 l 0.16933,-0.16934 0.16933,-0.16933 h 0.0837 0.0837 l 0.1703,0.14582 0.1703,0.14581 v 0.0894 0.0894 l -0.1703,0.14581 -0.1703,0.14582 z m -0.0298,-0.16227 h 0.12274 l 0.13392,-0.0514 0.13393,-0.0514 v -0.10876 -0.10876 l -0.22392,-0.0562 -0.22391,-0.0562 -0.0837,0.0837 -0.0837,0.0837 0.0509,0.1327 0.0509,0.13269 z m 0.84719,-0.42334 h -0.11794 v -0.0748 -0.0748 l 0.163,-0.0426 0.163,-0.0426 -0.0451,0.11742 -0.045,0.11741 z m -0.0333,-0.508 h -0.0847 v -0.0847 -0.0847 h 0.0847 0.0847 v 0.0847 0.0847 z m 0.47941,-0.0635 -0.0427,0.10584 v -0.21167 -0.21167 l 0.0427,0.10584 0.0427,0.10583 z m -1.43897,-0.13405 -0.0564,0.0564 v -0.11289 -0.11289 l 0.0564,0.0564 0.0564,0.0564 z m 1.50419,-0.73378 h -0.1213 v -0.0847 -0.0847 h 0.127 0.127 v -0.16934 -0.16933 h -0.0785 -0.0785 l -0.0362,0.10583 -0.0362,0.10584 0.0316,-0.1905 0.0316,-0.1905 h -0.16189 -0.16189 l -0.0487,0.127 -0.0487,0.127 h -0.0906 -0.0906 l 0.1675,-0.1798 0.16751,-0.1798 0.21115,0.053 0.21115,0.053 0.0537,0.16914 0.0537,0.16913 -0.0537,0.16934 -0.0538,0.16933 z"
         id="path1133" />
      <path
         style="fill:#1f2f8e;stroke-width:0.08466667"
         d="m 121.56017,250.89194 -0.23283,-0.007 -0.14817,-0.16228 -0.14816,-0.16228 v -0.127 -0.127 h 0.12129 0.1213 l 0.0508,0.16019 0.0508,0.16019 0.16653,0.0436 0.16653,0.0435 0.1648,-0.0431 0.1648,-0.0431 0.037,-0.13948 0.0371,-0.13948 0.003,0.29634 0.003,0.29633 -0.0427,-0.10583 -0.0427,-0.10584 h -0.11995 -0.11994 v 0.0847 0.0847 l -0.23284,-0.007 z m 0.88369,-0.90944 -0.0448,0.11216 -0.007,-0.13911 -0.007,-0.1391 -0.127,-0.0487 -0.127,-0.0487 v -0.0906 -0.0906 l 0.1785,0.1663 0.1785,0.1663 z m -0.70024,-0.19085 -0.16228,-0.007 0.11113,-0.0445 0.11112,-0.0445 0.0512,0.0512 0.0512,0.0512 z"
         id="path1131" />
      <path
         style="fill:#4f0000;stroke-width:0.08466667"
         d="m 121.70834,250.05233 h -0.0847 v -0.0847 -0.0847 h 0.0847 0.0847 v 0.0847 0.0847 z m 0.42333,0 h -0.0847 v -0.0847 -0.0847 h 0.0847 0.0847 v 0.0847 0.0847 z m -1.27,-0.254 h -0.0847 v -0.12539 -0.12538 l 0.21561,-0.0541 0.21561,-0.0541 0.0525,0.0525 0.0525,0.0525 h -0.18345 -0.18344 v 0.127 0.127 z m 0.889,-0.0847 h -0.127 v -0.0847 -0.0847 h 0.127 0.127 v 0.0847 0.0847 z m 0.80434,-0.762 h -0.0847 v -0.16933 -0.16933 h 0.0847 0.0847 v 0.16933 0.16933 z m -1.55099,-0.32231 -0.0443,0.11065 -0.007,-0.11235 -0.007,-0.11235 0.24749,-0.24748 0.24748,-0.24749 h 0.0912 0.0912 v -0.0847 -0.0847 h 0.26005 0.26005 l 0.12095,0.12095 0.12095,0.12095 v 0.0907 0.0907 h -0.0847 -0.0847 v -0.13801 -0.13801 l -0.36494,0.0411 -0.36494,0.0411 -0.21907,0.21906 -0.21907,0.21907 z m 1.55099,-0.27035 h -0.11289 l 0.0564,-0.0565 0.0564,-0.0564 0.0564,0.0564 0.0564,0.0565 z"
         id="path1129" />
      <path
         style="fill:#000000;stroke-width:0.08466667"
         d="m 121.09153,251.23098 -0.10286,-0.007 -0.10583,-0.0427 -0.10583,-0.0427 v -0.21066 -0.21066 l 0.11863,-0.11863 0.11863,-0.11864 -0.0451,0.33635 -0.0451,0.33635 h 0.10765 0.10765 l 0.11984,-0.14817 0.11983,-0.14817 -0.0923,0.1905 -0.0923,0.1905 z m 1.22208,-0.078 h -0.0791 l -0.0478,-0.12455 -0.0478,-0.12455 0.1286,-0.1286 0.1286,-0.1286 0.013,-0.17289 0.013,-0.17288 0.12995,0.0246 0.12995,0.0246 0.0276,0.24095 0.0276,0.24095 -0.17227,0.16049 -0.17227,0.1605 z m -0.1396,-0.67734 h -0.0423 v -0.0423 -0.0423 h 0.0423 0.0423 v 0.0423 0.0423 z m -1.00694,-1.016 h -0.11795 l -0.0487,-0.127 -0.0487,-0.127 h 0.14744 0.14743 v -0.33635 -0.33636 l 0.0965,-0.0966 0.0965,-0.0965 0.38333,-0.0432 0.38332,-0.0432 0.21671,0.0544 0.2167,0.0544 v 0.11633 0.11633 l -0.12211,0.0469 -0.12212,0.0469 -0.29662,-0.0481 -0.29662,-0.0481 -0.21626,0.0543 -0.21627,0.0543 v 0.12539 0.12538 h 0.0907 0.0907 l -0.13305,0.13305 -0.13304,0.13305 v 0.12095 0.12095 z m 0.91321,0 h -0.28727 v -0.0847 -0.0847 h -0.12435 -0.12434 l 0.0487,-0.127 0.0487,-0.127 h 0.11794 0.11794 v 0.0847 0.0847 h 0.29368 0.29368 l -0.0487,0.127 -0.0487,0.127 z m -0.23612,-0.53093 -0.0512,0.0512 0.007,-0.16228 0.007,-0.16228 0.0445,0.11112 0.0445,0.11113 z m 0.254,0 -0.0511,0.0512 0.007,-0.16228 0.007,-0.16228 0.0445,0.11112 0.0445,0.11113 z"
         id="path1127" />
    </g>
  </g>
</svg>
