<?xml version="1.0" encoding="UTF-8" standalone="no"?>
<!-- Created with Inkscape (http://www.inkscape.org/) -->

<svg
   xmlns:dc="http://purl.org/dc/elements/1.1/"
   xmlns:cc="http://creativecommons.org/ns#"
   xmlns:rdf="http://www.w3.org/1999/02/22-rdf-syntax-ns#"
   xmlns:svg="http://www.w3.org/2000/svg"
   xmlns="http://www.w3.org/2000/svg"
   xmlns:sodipodi="http://sodipodi.sourceforge.net/DTD/sodipodi-0.dtd"
   xmlns:inkscape="http://www.inkscape.org/namespaces/inkscape"
   width="210mm"
   height="297mm"
   viewBox="0 0 210 297"
   version="1.1"
   id="svg8"
   inkscape:version="0.92.4 (unknown)"
   sodipodi:docname="mariosprite.svg">
  <defs
     id="defs2" />
  <sodipodi:namedview
     id="base"
     pagecolor="#ffffff"
     bordercolor="#666666"
     borderopacity="1.0"
     inkscape:pageopacity="0.0"
     inkscape:pageshadow="2"
     inkscape:zoom="5.6"
     inkscape:cx="-687.94352"
     inkscape:cy="624.28571"
     inkscape:document-units="mm"
     inkscape:current-layer="g945"
     showgrid="false"
     inkscape:window-width="1366"
     inkscape:window-height="703"
     inkscape:window-x="0"
     inkscape:window-y="0"
     inkscape:window-maximized="1" />
  <metadata
     id="metadata5">
    <rdf:RDF>
      <cc:Work
         rdf:about="">
        <dc:format>image/svg+xml</dc:format>
        <dc:type
           rdf:resource="http://purl.org/dc/dcmitype/StillImage" />
        <dc:title></dc:title>
      </cc:Work>
    </rdf:RDF>
  </metadata>
  <g
     inkscape:label="Layer 1"
     inkscape:groupmode="layer"
     id="layer1">
    <g
       id="g945">
      <path
         style="fill:#fefdfe;stroke-width:0.26458332"
         d="m -191.74732,138.13661 h -1.19062 v -5.55625 -5.55625 h 0.26458 0.26459 v 0.66146 0.66146 h 0.27661 0.27661 l 0.64943,0.64943 0.64943,0.64943 v 0.2182 0.2182 l -0.52917,0.3814 -0.52916,0.3814 v 1.79368 1.79367 h 0.26458 0.26458 v 0.66146 0.66146 h 0.26459 0.26458 v 1.19062 1.19063 z m 11.64167,0 h -4.89479 v -0.56428 -0.56428 l -0.59531,-0.52967 -0.59532,-0.52968 0.33073,-0.11872 0.33073,-0.11872 v -0.63941 -0.63941 h 0.26459 0.26458 v -0.63941 -0.63941 l -0.32837,-0.10945 -0.32836,-0.10946 0.44176,-0.44176 0.44176,-0.44176 h 0.28348 0.28348 v -0.66146 -0.66145 h -0.28348 -0.28348 l -0.37798,-0.37798 -0.37798,-0.37798 v -0.17009 -0.17008 l 0.37798,-0.37798 0.37798,-0.37798 h 0.17008 0.17009 l 0.44176,-0.44176 0.44176,-0.44176 -0.32836,-0.10945 -0.32837,-0.10946 v -0.90399 -0.90399 h -0.66146 -0.66146 v 0.26458 0.26458 h -0.26458 -0.26458 v -0.66146 -0.66145 h -0.39688 -0.39687 v -0.26459 -0.26458 h 0.66145 0.66146 v 0.26458 0.26459 h 0.54807 0.54806 l 0.37798,-0.37798 0.37798,-0.37798 v -0.43467 -0.43467 l -0.37798,-0.37798 -0.37798,-0.37797 h -0.28348 -0.28348 v -0.54807 -0.54806 l -0.37798,-0.37798 -0.37797,-0.37798 h -1.47411 -1.47411 v 0.26459 0.26458 h -0.52916 -0.52917 v 0.39687 0.39688 h -0.27661 -0.27661 l -0.64943,0.64943 -0.64943,0.64943 v 0.27661 0.27661 h -0.39688 -0.39687 v 0.92604 0.92605 h -0.26459 -0.26458 v -3.43959 -3.43958 h 30.82396 30.82395 v 0.26458 0.26459 h 0.92605 0.92604 v -0.26459 -0.26458 h 8.86354 8.86354 v 5.82083 5.82084 h -0.26458 -0.26459 v 0.66145 0.66146 h 0.26459 0.26458 v 0.92604 0.92605 h -0.26458 -0.26459 v -0.39688 -0.39687 h -0.2766 -0.27662 l -0.64943,-0.64944 -0.64943,-0.64943 v -0.27661 -0.27661 h -0.39687 -0.39688 v -0.26458 -0.26458 h 0.39688 0.39687 v 0.26458 0.26458 h 0.26458 0.26459 v -0.52916 -0.52917 h 0.26458 0.26458 v -1.5875 -1.5875 h -0.52916 -0.52917 v 0.39687 0.39688 h -0.39687 -0.39688 v -0.66146 -0.66146 h -0.26458 -0.26459 v -0.26458 -0.26458 h 0.66146 0.66146 v -0.60305 -0.60305 l 0.52917,-0.3814 0.52916,-0.38141 v -0.48965 -0.48966 l -0.37797,-0.37797 -0.37798,-0.37798 h -0.54806 -0.54807 v -0.54807 -0.54806 l -0.37797,-0.37798 -0.37798,-0.37797 h -1.35384 -1.35385 l -0.64943,0.64943 -0.64943,0.64943 v 0.27661 0.27661 h -0.28348 -0.28348 l -0.37798,0.37798 -0.37798,0.37797 v 0.54807 0.54806 h -0.26458 -0.26458 v 1.16858 1.16858 l 0.33073,0.15434 0.33073,0.15434 -0.33073,0.15434 -0.33073,0.15434 v 0.63941 0.63941 h 0.26458 0.26458 v 0.52916 0.52917 h -0.26458 -0.26458 v 1.26451 1.2645 l 0.52916,0.38141 0.52917,0.3814 v 0.80922 0.80922 l -0.52917,0.38141 -0.52916,0.3814 v 1.2645 1.26451 h 0.26458 0.26458 v 0.26459 0.26458 h -7.67291 -7.67292 v -0.26458 -0.26459 h 0.26459 0.26458 v -0.39687 -0.39688 h 0.39687 0.39688 v -0.26458 -0.26458 h 0.92604 0.92604 v -0.26459 -0.26458 h 0.52917 0.52916 v 0.26458 0.26459 h 0.28349 0.28348 l 0.37798,0.37797 0.37797,0.37798 v 0.28348 0.28348 h 0.66146 0.66146 v -0.33846 -0.33847 l 0.52916,-0.3814 0.52917,-0.3814 v -1.13222 -1.13221 h -0.26458 -0.26459 v -0.39688 -0.39687 h -0.92604 -0.92604 v -0.52917 -0.52917 h 0.66146 0.66146 v -0.66146 -0.66145 h -0.39688 -0.39687 v -1.19063 -1.19062 h 0.39687 0.39688 v -0.92605 -0.92604 h 0.26458 0.26458 v -2.11666 -2.11667 h 0.26459 0.26458 v -0.92604 -0.92604 h -0.26458 -0.26459 v -0.39688 -0.39687 h -0.26458 -0.26458 v 0.39687 0.39688 h -0.39688 -0.39687 v 0.52916 0.52917 h 0.39687 0.39688 v -0.52917 -0.52916 h 0.26458 0.26458 v 0.92604 0.92604 h -0.66145 -0.66146 v -0.28348 -0.28348 l -0.37798,-0.37798 -0.37797,-0.37798 h -0.52602 -0.52602 l -0.15434,-0.33073 -0.15434,-0.33073 -0.15434,0.33073 -0.15434,0.33073 h -0.63941 -0.63941 v 0.26459 0.26458 h -0.52917 -0.52916 v 0.39687 0.39688 h -0.27661 -0.27661 l -0.64943,0.64943 -0.64943,0.64943 v 0.27661 0.27661 h -0.39688 -0.39687 v 0.92604 0.92605 h -0.26459 -0.26458 v 0.52916 0.52917 h 0.26458 0.26459 v 0.66146 0.66146 h 0.39687 0.39688 v 0.26458 0.26458 h -0.28349 -0.28348 l -0.37798,0.37798 -0.37797,0.37798 v 1.09613 1.09613 l 0.37797,0.37797 0.37798,0.37798 h 0.28348 0.28349 v 0.92604 0.92604 h -0.28349 -0.28348 l -0.37798,0.37798 -0.37797,0.37797 v 1.20953 1.20952 h 0.26458 0.26459 v 0.26459 0.26458 h -6.4823 -6.48229 v -0.26458 -0.26459 h 0.66146 0.66146 v -0.39687 -0.39688 h 0.26458 0.26459 v -0.86763 -0.86763 l -0.52917,-0.3814 -0.52917,-0.38141 v -0.86763 -0.86763 h 0.26459 0.26458 v -0.54807 -0.54806 l -0.37798,-0.37798 -0.37797,-0.37797 h -0.43468 -0.43467 l -0.37798,-0.37798 -0.37797,-0.37798 v -0.17009 -0.17008 l 0.37797,-0.37798 0.37798,-0.37798 h 0.43467 0.43468 l 0.44176,-0.44176 0.44175,-0.44176 -0.32836,-0.10945 -0.32837,-0.10946 v -0.90399 -0.90399 h -0.66146 -0.66145 v 0.26458 0.26458 h -0.26459 -0.26458 v -0.66146 -0.66145 h -0.39688 -0.39687 v -0.26459 -0.26458 h 0.66146 0.66146 v 0.26458 0.26459 h 0.54806 0.54807 l 0.37797,-0.37798 0.37798,-0.37798 v -0.43467 -0.43467 l -0.37798,-0.37798 -0.37797,-0.37797 h -0.28349 -0.28348 v -0.54807 -0.54806 l -0.37797,-0.37798 -0.37798,-0.37798 h -1.34182 -1.34181 v 0.26459 0.26458 h -0.66146 -0.66146 v 0.28348 0.28348 l -0.37797,0.37798 -0.37798,0.37798 h -0.17009 -0.17009 l -0.37798,0.37797 -0.37797,0.37798 v 0.28348 0.28348 h -0.26458 -0.26459 v 0.92604 0.92605 h -0.39687 -0.39688 v 0.52916 0.52917 h 0.39688 0.39687 v 0.60305 0.60305 l 0.52917,0.3814 0.52917,0.3814 v 0.54464 0.54464 l -0.52917,0.3814 -0.52917,0.3814 v 0.86764 0.86763 h 0.26459 0.26458 v 0.63941 0.63941 l 0.33073,0.11872 0.33073,0.11872 -0.59532,0.52967 -0.59531,0.52968 v 0.82886 0.82886 h 0.26459 0.26458 v 0.39688 0.39687 h 0.26458 0.26459 v 0.26459 0.26458 h -8.59896 -8.59896 v -0.26458 -0.26459 h 0.66146 0.66146 v -0.39687 -0.39688 h 0.52916 0.52917 v -0.26458 -0.26458 h 1.20952 1.20953 l 0.37797,0.37797 0.37798,0.37798 v 0.28348 0.28348 h 0.66146 0.66146 v -0.39687 -0.39688 h 0.26458 0.26458 v -0.52916 -0.52917 h 0.26459 0.26458 v -0.92604 -0.92604 h -0.26458 -0.26459 v -0.37483 -0.37483 l -0.33073,-0.11872 -0.33073,-0.11871 0.59532,-0.52968 0.59531,-0.52968 v -0.82886 -0.82886 h -0.26458 -0.26459 v -0.37483 -0.37482 l -0.33073,-0.1342 -0.33073,-0.1342 0.39688,-0.30487 0.39687,-0.30487 -0.33072,-0.13419 -0.33073,-0.1342 v -0.90399 -0.904 h -0.66146 -0.66146 v 0.26459 0.26458 h -0.26458 -0.26459 v -0.52917 -0.52916 h -0.39687 -0.39688 v -0.39688 -0.39687 h 0.66146 0.66146 v 0.39687 0.39688 h 0.66146 0.66146 v -0.39688 -0.39687 h 0.26458 0.26458 v -0.52917 -0.52917 h -0.26458 -0.26458 v -0.39687 -0.39688 h -0.39688 -0.39687 v -0.52916 -0.52917 h -0.26459 -0.26458 v -0.39688 -0.39687 h -1.5875 -1.5875 v 0.39687 0.39688 h -0.52917 -0.52916 v 0.26458 0.26459 h -0.28349 -0.28348 l -0.37797,0.37797 -0.37798,0.37798 v 0.17009 0.17009 l -0.37798,0.37797 -0.37797,0.37798 h -0.28348 -0.28349 v 0.92604 0.92604 h -0.26458 -0.26458 v 0.66146 0.66146 h 0.26458 0.26458 v 0.52917 0.52916 h 0.39688 0.39687 v 0.26459 0.26458 h -0.39687 -0.39688 v 0.39687 0.39688 h -0.26458 -0.26458 v 1.85208 1.85209 h 0.26458 0.26458 v 0.52916 0.52917 h -0.26458 -0.26458 v 1.32292 1.32291 h 0.26458 0.26458 v 0.26459 0.26458 z m 67.46875,-5.55625 h 0.39687 v -0.26458 -0.26459 h -0.39687 -0.39688 v 0.26459 0.26458 z m 0,-1.85208 h 0.39687 v -0.26459 -0.26458 h -0.39687 -0.39688 v 0.26458 0.26459 z m -19.05,-10.31875 h 0.39687 v -0.39688 -0.39687 h -0.39687 -0.39688 v 0.39687 0.39688 z m -20.90208,17.72708 h -0.92604 v -0.66146 -0.66146 h -0.26459 -0.26458 v -0.26458 -0.26458 h 0.52917 0.52916 v -0.26459 -0.26458 h 0.26459 0.26458 v 0.92604 0.92604 h 0.39687 0.39688 v 0.26459 0.26458 z m 36.90937,0 h -3.96875 v -0.26458 -0.26459 h 0.26458 0.26459 v -0.39687 -0.39688 h 0.26458 0.26458 v 0.39688 0.39687 h 0.92605 0.92604 v -0.39687 -0.39688 h 0.39687 0.39688 v -0.26458 -0.26458 h 0.81265 0.81265 l 0.37797,0.37797 0.37798,0.37798 v 0.28348 0.28348 h 0.66146 0.66145 v -0.39687 -0.39688 h 0.26459 0.26458 v 0.66146 0.66146 z m -57.92485,-3.70417 h -0.81265 v -0.26458 -0.26458 h -0.39687 -0.39688 v -0.66146 -0.66146 h 0.39688 0.39687 v -0.26458 -0.26459 h 0.52917 0.52917 v 0.26459 0.26458 h 0.66145 0.66146 v 0.54806 0.54807 l -0.37797,0.37798 -0.37798,0.37797 z m 57.52798,0 h -0.66146 v -0.66146 -0.66145 h 0.66146 0.66145 v 0.66145 0.66146 z m -54.10729,-0.52916 h -0.52917 v -0.66146 -0.66146 h 0.52917 0.52916 v 0.66146 0.66146 z m 2.11666,-0.79375 h -0.26458 v -0.26459 -0.26458 h 0.26458 0.26459 v 0.26458 0.26459 z m 13.67014,-0.0101 -0.83785,-0.0101 -0.33073,-0.37565 -0.33072,-0.37564 v -0.42694 -0.42694 l 0.37797,-0.37798 0.37798,-0.37797 h 0.54806 0.54807 v 0.26458 0.26458 h 0.52917 0.52916 v 0.63941 0.63941 l 0.33073,0.11812 0.33073,0.11812 -0.21282,0.22699 -0.21283,0.227 -0.27034,-0.38921 -0.27034,-0.38921 -0.13419,0.33073 -0.1342,0.33073 z m 3.52778,0.0101 h -0.26458 v -0.52917 -0.52917 h 0.26458 0.26458 v -0.39687 -0.39688 h 0.39688 0.39687 v 0.39688 0.39687 h -0.39687 -0.39688 v 0.52917 0.52917 z m 18.25625,0 h -0.52917 v -0.52917 -0.52917 h 0.52917 0.52916 v 0.52917 0.52917 z m -53.88996,-0.53923 -0.7465,-0.0101 -0.33073,-0.37564 -0.33073,-0.37565 v -0.42694 -0.42694 l 0.37798,-0.37797 0.37798,-0.37798 h 0.69925 0.69926 l 0.37797,0.37798 0.37798,0.37797 v 0.43467 0.43468 l -0.37798,0.37797 -0.37797,0.37798 z m 50.46927,0.0101 h -0.81264 v -0.26458 -0.26459 h -0.39688 -0.39687 v -0.66146 -0.66145 h 0.39687 0.39688 v -0.26459 -0.26458 h 0.52916 0.52917 v 0.26458 0.26459 h 0.66146 0.66145 v 0.54806 0.54807 l -0.37797,0.37797 -0.37798,0.37798 z m 16.58371,-0.0101 -0.8599,-0.0101 -0.33073,-0.37564 -0.33073,-0.37565 v -0.42694 -0.42694 l 0.37798,-0.37798 0.37798,-0.37797 h 0.81265 0.81264 v 0.26458 0.26459 h 0.39688 0.39687 v 0.66145 0.66146 h -0.39687 -0.39688 v 0.26459 0.26458 z m -47.69115,-0.5191 h -0.66145 v -0.66146 -0.66145 h -0.24254 -0.24253 l -0.11812,0.33073 -0.11812,0.33072 -0.20001,-0.18583 -0.20001,-0.18584 0.47325,-0.47326 0.47326,-0.47326 0.10946,0.32837 0.10945,0.32837 h 0.37483 0.37483 v -0.26459 -0.26458 h 0.26458 0.26458 v 0.92604 0.92604 z m 50.13854,-4.23333 h -0.26458 v -0.92604 -0.92604 h 0.66146 0.66146 v 0.26458 0.26458 h -0.39688 -0.39687 v 0.66146 0.66146 z m -54.10729,-0.79375 h -0.39687 v -0.92604 -0.92604 h 0.66146 0.66146 v 0.39687 0.39688 h -0.26459 -0.26458 v 0.52916 0.52917 z m -17.19791,-0.52917 h -0.39688 v -0.92604 -0.92604 h 0.66146 0.66146 v 0.26458 0.26459 h -0.26458 -0.26459 v 0.66145 0.66146 z m 34.52812,0 h -0.26458 v -0.92604 -0.92604 h 0.52917 0.52916 v 0.26458 0.26459 h -0.26458 -0.26458 v 0.66145 0.66146 z m 20.24063,0 h -0.39688 v -0.92604 -0.92604 h 0.66146 0.66146 v 0.26458 0.26459 h -0.26459 -0.26458 v 0.66145 0.66146 z m 2.51354,0 h -0.26459 v -0.66146 -0.66145 h -0.39687 -0.39688 v -0.26459 -0.26458 h 0.66146 0.66146 v 0.92604 0.92604 z m -38.23229,-3.175 h -0.39688 v -0.26458 -0.26458 h 0.39688 0.39687 v 0.26458 0.26458 z m -17.19792,-0.52916 h -0.39687 v -0.26459 -0.26458 h 0.39687 0.39688 v 0.26458 0.26459 z m 34.39583,0 h -0.39687 v -0.26459 -0.26458 h 0.39687 0.39688 v 0.26458 0.26459 z m 20.37292,0 h -0.39688 v -0.26459 -0.26458 h 0.39688 0.39687 v 0.26458 0.26459 z m 16.00729,-0.52917 h -0.26458 v -0.39688 -0.39687 h 0.26458 0.26458 v 0.39687 0.39688 z"
         id="path971"
         inkscape:connector-curvature="0" />
      <path
         style="fill:#fecfbf;stroke-width:0.26458332"
         d="m -116.01034,130.71821 -1.12448,-0.0101 -0.33073,-0.37565 -0.33073,-0.37564 v -0.27575 -0.27575 h 0.52917 0.52917 v 0.39687 0.39688 h 0.92604 0.92604 v 0.26458 0.26459 l -1.12448,-0.0101 z m -55.36406,-1.31285 h -0.66146 v -0.26458 -0.26459 h 0.66146 0.66146 v 0.26459 0.26458 z m -17.19792,-0.52917 h -0.66145 v -0.26458 -0.26458 h 0.66145 0.66146 v 0.26458 0.26458 z m 34.39584,0 h -0.66146 v -0.26458 -0.26458 h 0.66146 0.66146 v 0.26458 0.26458 z m 20.37291,0 h -0.66146 v -0.26458 -0.26458 h 0.66146 0.66146 v 0.26458 0.26458 z m 15.76161,0 h -0.54807 v -0.26458 -0.26458 h 0.39688 0.39687 v -0.92605 -0.92604 h 0.26459 0.26458 v 0.63941 0.63941 l 0.32837,0.10946 0.32836,0.10945 -0.44175,0.44176 -0.44176,0.44176 z m -53.9939,-0.52916 h -0.52916 v -0.26459 -0.26458 h 0.26458 0.26458 v -0.66146 -0.66146 h 0.26459 0.26458 v 0.26459 0.26458 h 0.39687 0.39688 v 0.39687 0.39688 h -0.39688 -0.39687 v 0.26458 0.26459 z m 57.61302,-0.0101 -0.85989,-0.0101 -0.33073,-0.37565 -0.33073,-0.37564 v -0.80492 -0.80491 h 0.26458 0.26458 v 0.92604 0.92604 h 0.66146 0.66146 v -0.39688 -0.39687 h 0.26458 0.26459 v 0.66146 0.66146 z m -74.81093,-0.5191 h -0.52917 v -0.39688 -0.39687 h 0.26458 0.26459 v -0.52917 -0.52916 h 0.26458 0.26458 v 0.26458 0.26458 h 0.39688 0.39687 v 0.26459 0.26458 h -0.39687 -0.39688 v 0.39687 0.39688 z m 20.5052,0 h -0.92604 v -0.39688 -0.39687 h -0.26458 -0.26458 v -0.52917 -0.52916 h 0.26458 0.26458 v 0.52916 0.52917 h 0.66146 0.66146 v -0.26458 -0.26459 h 0.26458 0.26459 v 0.66146 0.66146 z m 14.02292,0 h -0.66146 v -0.39688 -0.39687 h 0.26459 0.26458 v -0.52917 -0.52916 h 0.28348 0.28348 l 0.44176,0.44176 0.44176,0.44176 -0.32836,0.10945 -0.32837,0.10946 v 0.37482 0.37483 z m 20.24062,0 h -0.52916 v -0.39688 -0.39687 h 0.26458 0.26458 v -0.52917 -0.52916 h 0.26459 0.26458 v 0.26458 0.26458 h 0.39688 0.39687 v 0.26459 0.26458 h -0.39687 -0.39688 v 0.39687 0.39688 z m 14.4198,0 h -0.39688 v -0.66146 -0.66146 h 0.39688 0.39687 v 0.66146 0.66146 z m -65.81511,-0.80381 -0.85989,-0.0101 -0.33073,-0.37564 -0.33073,-0.37565 v -0.54033 -0.54033 h 0.26458 0.26459 v 0.66145 0.66146 h 0.66145 0.66146 v -0.26458 -0.26458 h 0.26459 0.26458 v 0.52916 0.52917 l -0.8599,-0.0101 z m 11.70782,0.0101 h -0.26459 v -0.52917 -0.52916 h 0.26459 0.26458 v 0.52916 0.52917 z m 22.68802,-0.0101 -0.8599,-0.0101 -0.33073,-0.37564 -0.33073,-0.37565 v -0.54033 -0.54033 h 0.26459 0.26458 v 0.66145 0.66146 h 0.66146 0.66146 v -0.26458 -0.26458 h 0.26458 0.26458 v 0.52916 0.52917 z m 20.37291,0 -0.85989,-0.0101 -0.33073,-0.37564 -0.33073,-0.37565 v -0.54033 -0.54033 h 0.26458 0.26458 v 0.66145 0.66146 h 0.66146 0.66146 v -0.26458 -0.26458 h 0.26458 0.26459 v 0.52916 0.52917 z m -60.25885,-0.5191 h -0.26458 v -0.66146 -0.66145 h 0.26458 0.26458 v 0.66145 0.66146 z m 34.39583,0 h -0.26458 v -0.66146 -0.66145 h 0.26458 0.26459 v 0.66145 0.66146 z m 20.37292,0 h -0.26458 v -0.66146 -0.66145 h 0.26458 0.26458 v 0.66145 0.66146 z"
         id="path969"
         inkscape:connector-curvature="0" />
      <path
         style="display:inline;fill:#fed76f;stroke-width:0.26458332"
         d="m -187.11711,137.60744 h -0.26458 v -0.39687 -0.39688 h 0.26458 0.26459 v 0.39688 0.39687 z m 1.32292,0 h -0.26458 v -0.39687 -0.39688 h 0.26458 0.26458 v 0.39688 0.39687 z m 31.35312,0 h -0.39687 v -0.39687 -0.39688 h 0.39687 0.39688 v 0.39688 0.39687 z m 17.85938,0 h -0.26458 v -0.39687 -0.39688 h 0.26458 0.26458 v 0.39688 0.39687 z m 16.53646,0 h -0.39688 v -0.39687 -0.39688 h 0.39688 0.39687 v 0.39688 0.39687 z m -54.10729,-0.79375 h -0.26459 v -0.26458 -0.26458 h 0.26459 0.26458 v 0.26458 0.26458 z m 23.94479,-1.05833 h -0.39688 v -0.39688 -0.39687 h 0.39688 0.39687 v 0.39687 0.39688 z m -17.19792,-1.32292 h -0.39687 v -0.26458 -0.26458 h 0.39687 0.39688 v 0.26458 0.26458 z m 37.57083,0 h -0.39687 v -0.26458 -0.26458 h 0.39687 0.39688 v 0.26458 0.26458 z m 16.53646,-0.52916 h -0.26458 v -0.39688 -0.39687 h 0.26458 0.26458 v 0.39687 0.39688 z m -56.62083,-10.58334 h -0.26458 v -0.52916 -0.52917 h 0.26458 0.26458 v 0.52917 0.52916 z m -17.19792,-0.52916 h -0.26458 v -0.66146 -0.66146 h 0.26458 0.26459 v 0.66146 0.66146 z m 34.39584,0 h -0.26459 v -0.66146 -0.66146 h 0.26459 0.26458 v 0.66146 0.66146 z m 20.37291,0 h -0.26458 v -0.66146 -0.66146 h 0.26458 0.26458 v 0.66146 0.66146 z m 16.00729,-0.52917 h -0.39687 v -0.66146 -0.66146 h 0.39687 0.39688 v 0.66146 0.66146 z"
         id="path967"
         inkscape:connector-curvature="0" />
      <path
         style="display:inline;fill:#7fd7ce;stroke-width:0.26458332"
         d="m -116.45446,136.28453 h -0.28348 v -0.66146 -0.66146 h -0.52917 -0.52917 v -0.92604 -0.92604 h 0.52917 0.52917 v -0.26459 -0.26458 h 0.66146 0.66145 v 0.26458 0.26459 h 0.66146 0.66146 v 0.39687 0.39688 h -0.39687 -0.39688 v 0.52916 0.52917 h -0.26458 -0.26459 v 0.28348 0.28348 l -0.37797,0.37798 -0.37798,0.37798 z m 0.37798,-1.85209 h 0.66145 v -0.66146 -0.66145 h -0.66145 -0.66146 v 0.66145 0.66146 z m -71.90052,0.51911 -0.59532,-0.0101 -0.33072,-0.37564 -0.33073,-0.37565 v -0.14346 -0.14345 h 0.66145 0.66146 v -0.39688 -0.39687 h 0.92604 0.92605 v 0.66145 0.66146 h -0.66146 -0.66146 v 0.26459 0.26458 l -0.59531,-0.0101 z m 17.4625,0 -0.8599,-0.0101 -0.3858,-0.4346 -0.3858,-0.4346 0.31965,-0.10655 0.31966,-0.10655 v -0.63941 -0.63941 h 0.39687 0.39688 v -0.26458 -0.26459 h 0.52917 0.52916 v 0.26459 0.26458 h 0.63941 0.63941 l 0.11812,-0.33073 0.11812,-0.33073 0.23466,0.23466 0.23466,0.23466 -0.33073,0.11812 -0.33073,0.11812 v 0.52601 0.52602 l -0.37798,0.37798 -0.37797,0.37797 h -0.28349 -0.28348 v 0.26459 0.26458 l -0.85989,-0.0101 z m 0.33073,-1.04827 h 0.52916 v -0.66146 -0.66146 h -0.52916 -0.52917 v 0.66146 0.66146 z m 16.40416,1.05833 h -0.26458 v -0.26458 -0.26459 h -0.39688 -0.39687 v -0.26458 -0.26458 h 0.66146 0.66146 v -0.39688 -0.39687 h 0.52916 0.52917 v -0.52917 -0.52917 h 0.28348 0.28348 l 0.37798,0.37798 0.37798,0.37798 v 1.07723 1.07723 h -0.66146 -0.66146 v -0.26458 -0.26459 h -0.52917 -0.52916 v 0.26459 0.26458 z m 21.16667,0 h -0.52917 v -0.26458 -0.26459 h -0.28348 -0.28348 l -0.37798,-0.37797 -0.37798,-0.37798 v -0.81265 -0.81265 h 0.66146 0.66146 v -0.39687 -0.39688 h 0.52917 0.52916 v 0.39688 0.39687 h 0.66146 0.66146 v 0.92604 0.92605 h -0.66146 -0.66146 v 0.52916 0.52917 z m 0,-1.85208 h 0.52916 v -0.52917 -0.52917 h -0.52916 -0.52917 v 0.52917 0.52917 z m -18.25625,-1.05834 h -0.26458 v -0.39687 -0.39688 h 0.26458 0.26458 v 0.39688 0.39687 z"
         id="path965"
         inkscape:connector-curvature="0" />
      <path
         style="display:inline;fill:#fe6f6e;stroke-width:0.26458332"
         d="m -117.53169,130.72828 h -0.26459 v -0.26459 -0.26458 h -0.39687 -0.39688 v -0.28348 -0.28348 l -0.37797,-0.37798 -0.37798,-0.37798 h -0.69925 -0.69926 l -0.37798,-0.37797 -0.37797,-0.37798 v -0.43467 -0.43467 l 0.40947,-0.40948 0.40948,-0.40947 0.18583,0.20001 0.18584,0.20001 -0.33073,0.11812 -0.33073,0.11812 v 0.63941 0.63941 h 0.26459 0.26458 v -0.26459 -0.26458 h 0.33847 0.33846 l 0.3814,0.52917 0.38141,0.52916 h 0.60305 0.60304 v 0.66146 0.66146 h 0.26459 0.26458 v 0.26458 0.26459 z m -53.18125,-0.52917 h -1.85208 v -0.39688 -0.39687 h -0.33847 -0.33847 l -0.3814,-0.52917 -0.3814,-0.52916 h -0.48966 -0.48965 l -0.37798,-0.37798 -0.37797,-0.37798 v -0.43467 -0.43467 l 0.37797,-0.37798 0.37798,-0.37797 h 0.28348 0.28348 v 0.26458 0.26458 h -0.39687 -0.39688 v 0.66146 0.66146 h 0.39688 0.39687 v -0.39688 -0.39687 h 0.26459 0.26458 v 0.28348 0.28348 l 0.37798,0.37798 0.37797,0.37798 h 0.54807 0.54806 v 0.52916 0.52917 h 1.5875 1.5875 v 0.39687 0.39688 z m -16.93333,-0.79375 h -2.11667 v -0.26458 -0.26459 h -0.33847 -0.33846 l -0.3814,-0.52916 -0.38141,-0.52917 h -0.60304 -0.60305 v -0.39688 -0.39687 h -0.26459 -0.26458 v -0.52917 -0.52916 h 0.26458 0.26459 v -0.39688 -0.39687 h 0.39687 0.39688 v 0.39687 0.39688 h -0.39688 -0.39687 v 0.52916 0.52917 h 0.37482 0.37483 l 0.10946,-0.32837 0.10945,-0.32836 0.44176,0.44176 0.44176,0.44176 v 0.28348 0.28348 h 0.66146 0.66146 v 0.52917 0.52916 h 1.85208 1.85208 v 0.26459 0.26458 z m 34.18965,0 h -1.79367 l -0.3814,-0.52917 -0.3814,-0.52916 h -0.33847 -0.33846 v -0.26459 -0.26458 h -0.52917 -0.52917 v -0.28348 -0.28348 l 0.44176,-0.44176 0.44176,-0.44176 0.10946,0.32836 0.10945,0.32837 h 0.37483 0.37483 v 0.39687 0.39688 h 0.52916 0.52917 v 0.52917 0.52916 h 1.5875 1.5875 v 0.26459 0.26458 z m 20.31451,0 h -1.85208 v -0.26458 -0.26459 h -0.39688 -0.39687 v -0.52916 -0.52917 h -0.92604 -0.92604 v -0.39688 -0.39687 h -0.26459 -0.26458 v -0.52917 -0.52916 h 0.26458 0.26459 v -0.39688 -0.39687 h 0.39687 0.39688 v 0.39687 0.39688 h -0.39688 -0.39687 v 0.52916 0.52917 h 0.37482 0.37483 l 0.10945,-0.32837 0.10946,-0.32836 0.44176,0.44176 0.44176,0.44176 v 0.28348 0.28348 h 0.66146 0.66145 v 0.52917 0.52916 h 1.5875 1.5875 v 0.26459 0.26458 z m 18.65313,-0.52917 h -0.92605 v -0.26458 -0.26458 h -0.66145 -0.66146 v -0.26459 -0.26458 h 0.66146 0.66145 v 0.26458 0.26459 h 0.92605 0.92604 v 0.26458 0.26458 z m -54.43802,-0.53923 -1.12448,-0.0101 -0.33073,-0.37565 -0.33073,-0.37564 v -0.27575 -0.27575 h 0.52917 0.52916 v 0.39687 0.39688 h 0.92604 0.92605 v 0.26458 0.26459 l -1.12448,-0.0101 z m -17.26407,-0.5191 h -1.19062 v -0.39688 -0.39687 h -0.26458 -0.26459 v -0.26458 -0.26459 h 0.52917 0.52917 v 0.26459 0.26458 h 0.92604 0.92604 v 0.39687 0.39688 z m 34.39584,0 h -1.19063 v -0.39688 -0.39687 h -0.26458 -0.26458 v -0.26458 -0.26459 h 0.52916 0.52917 v 0.26459 0.26458 h 0.92604 0.92604 v 0.39687 0.39688 z m 20.6375,0 h -0.92605 v -0.39688 -0.39687 h -0.52916 -0.52917 v -0.26458 -0.26459 h 0.52917 0.52916 v 0.26459 0.26458 h 0.92605 0.92604 v 0.39687 0.39688 z m 12.96458,0 h -0.39688 v -0.92604 -0.92604 h 0.39688 0.39687 v -0.39688 -0.39687 h 0.26459 0.26458 v 0.66145 0.66146 h -0.26458 -0.26459 v 0.66146 0.66146 z m -54.22068,-0.79375 h -0.15119 v -0.52917 -0.52916 h 0.26458 0.26458 v -0.39688 -0.39687 h 0.26459 0.26458 v 0.54806 0.54807 l -0.37798,0.37797 -0.37797,0.37798 z m 14.2686,0 h -0.39688 v -0.52917 -0.52916 h 0.39688 0.39687 v -0.39688 -0.39687 h 0.26459 0.26458 v 0.39687 0.39688 h -0.26458 -0.26459 v 0.52916 0.52917 z m -31.46652,-0.52917 h -0.15119 v -0.54806 -0.54807 l 0.37798,-0.37797 0.37797,-0.37798 h 0.15119 0.15119 v 0.54807 0.54806 l -0.37797,0.37798 -0.37798,0.37797 z m 34.50923,0 h -0.26459 v -0.54806 -0.54807 l 0.37798,-0.37797 0.37797,-0.37798 h 0.28349 0.28348 v 0.66146 0.66146 h -0.39688 -0.39687 v 0.26458 0.26458 z m 20.25952,0 h -0.15119 v -0.54806 -0.54807 l 0.37797,-0.37797 0.37798,-0.37798 h 0.15119 0.15119 v 0.54807 0.54806 l -0.37797,0.37798 -0.37798,0.37797 z m -35.07619,-0.52916 h -0.26458 v -0.39688 -0.39687 h 0.26458 0.26458 v 0.39687 0.39688 z m 54.23958,0 h -0.26458 v -0.39688 -0.39687 h -0.39688 -0.39687 v -0.26459 -0.26458 h 0.37483 0.37482 l 0.1342,0.33073 0.1342,0.33073 0.27034,-0.38921 0.27033,-0.38922 0.21283,0.227 0.21282,0.227 -0.33073,0.11812 -0.33073,0.11811 v 0.37483 0.37483 z m -71.4375,-0.79375 h -0.26458 v -0.26459 -0.26458 h 0.26458 0.26459 v 0.26458 0.26459 z m 34.39584,0 h -0.26459 v -0.26459 -0.26458 h 0.26459 0.26458 v 0.26458 0.26459 z m 20.37291,0 h -0.26458 v -0.26459 -0.26458 h 0.26458 0.26458 v 0.26458 0.26459 z"
         id="path963"
         inkscape:connector-curvature="0" />
      <path
         style="display:inline;fill:#de9f3e;stroke-width:0.26458332"
         d="m -170.44836,123.31994 h -0.26458 v -0.26458 -0.26458 h 0.26458 0.26459 v 0.26458 0.26458 z m -17.19791,-0.52916 h -0.26459 v -0.26459 -0.26458 h 0.26459 0.26458 v 0.26458 0.26459 z m 34.39583,0 h -0.26458 v -0.26459 -0.26458 h 0.26458 0.26458 v 0.26458 0.26459 z m 20.37291,0 h -0.26458 v -0.26459 -0.26458 h 0.26458 0.26459 v 0.26458 0.26459 z m 15.875,-0.52917 h -0.26458 v -0.39688 -0.39687 h 0.26458 0.26459 v 0.39687 0.39688 z"
         id="path961"
         inkscape:connector-curvature="0" />
      <path
         style="display:inline;fill:#fe3f6f;stroke-width:0.26458332"
         d="m -188.90304,132.5703 -0.19844,-0.0101 -0.33073,-0.37564 -0.33073,-0.37565 v -0.27575 -0.27575 h -0.39688 -0.39687 v -0.52916 -0.52917 h 0.54807 0.54806 l 0.37798,0.37798 0.37797,0.37797 v 0.81265 0.81265 z m 36.84322,-0.51911 h -0.39687 v -0.37482 -0.37483 l -0.33073,-0.11812 -0.33073,-0.11812 0.23466,-0.23466 0.23466,-0.23466 0.11812,0.33073 0.11812,0.33073 h 0.37482 0.37483 v 0.39688 0.39687 z m 36.64479,0 h -0.52916 v -0.39687 -0.39688 h 0.52916 0.52917 v 0.39688 0.39687 z m -57.81145,-0.79375 h -1.19063 v -0.26458 -0.26458 h 1.19063 1.19062 v 0.26458 0.26458 z m 3.04271,0 h -0.52917 v -0.26458 -0.26458 h 0.52917 0.52916 v 0.26458 0.26458 z m 13.51264,0 h -0.54806 v -0.15119 -0.15119 l 0.37797,-0.37797 0.37798,-0.37798 h 0.54807 0.54806 v 0.15119 0.15119 l -0.37797,0.37798 -0.37798,0.37797 z m 24.71965,-0.52916 h -0.66146 v -0.26459 -0.26458 h 0.66146 0.66145 v 0.26458 0.26459 z m -5.29167,-0.52917 h -0.39687 v -0.39688 -0.39687 h 0.39687 0.39688 v 0.39687 0.39688 z m 16.53646,0 h -0.26459 v -0.39688 -0.39687 h 0.26459 0.26458 v 0.39687 0.39688 z m -9.39271,-4.23333 h -0.66146 v -0.39688 -0.39687 h 0.66146 0.66146 v 0.39687 0.39688 z m -43.52396,-1.32292 h -0.26458 v -0.26458 -0.26459 h 0.26458 0.26459 v -0.39687 -0.39688 h 0.39687 0.39688 v -0.26458 -0.26458 h 0.52916 0.52917 v -0.26459 -0.26458 h 0.66146 0.66146 v 0.26458 0.26459 h -0.66146 -0.66146 v 0.26458 0.26458 h -0.52917 -0.52916 v 0.39688 0.39687 h -0.39688 -0.39687 v 0.26459 0.26458 z m -17.19791,-0.52917 h -0.26459 v -0.28348 -0.28348 l 0.37798,-0.37798 0.37798,-0.37797 h 0.28348 0.28348 v -0.26459 -0.26458 h 0.52917 0.52916 v -0.39688 -0.39687 h 0.66146 0.66146 v 0.39687 0.39688 h -0.66146 -0.66146 v 0.26458 0.26459 h -0.52916 -0.52917 v 0.26458 0.26458 h -0.39688 -0.39687 v 0.39688 0.39687 z m 34.52812,0 h -0.39687 v -0.39687 -0.39688 h 0.33846 0.33847 l 0.3814,-0.52916 0.3814,-0.52917 h 0.60305 0.60305 v -0.39688 -0.39687 h 0.52917 0.52916 v 0.39687 0.39688 h -0.52916 -0.52917 v 0.26458 0.26459 h -0.54807 -0.54806 l -0.37798,0.37797 -0.37797,0.37798 v 0.28348 0.28348 z m 20.24063,0 h -0.26459 v -0.28348 -0.28348 l 0.37798,-0.37798 0.37797,-0.37797 h 0.28349 0.28348 v -0.26459 -0.26458 h 0.52916 0.52917 v -0.39688 -0.39687 h 0.66146 0.66146 v 0.39687 0.39688 h -0.66146 -0.66146 v 0.26458 0.26459 h -0.52917 -0.52916 v 0.26458 0.26458 h -0.39688 -0.39687 v 0.39688 0.39687 z m 16.61034,-0.79375 h -0.20618 v -0.20617 -0.20618 l 0.52917,-0.3814 0.52916,-0.3814 v -0.33846 -0.33847 h 0.39688 0.39687 v -0.26458 -0.26459 h 0.52917 0.52917 v 0.26459 0.26458 h -0.26459 -0.26458 v 0.39687 0.39688 h -0.60305 -0.60305 l -0.3814,0.52917 -0.3814,0.52916 z m -49.55097,-0.52916 h -0.66146 v -0.26459 -0.26458 h 0.66146 0.66146 v 0.26458 0.26459 z m -17.19792,-0.52917 h -0.66145 v -0.39688 -0.39687 h 0.66145 0.66146 v 0.39687 0.39688 z m 34.39584,0 h -0.66146 v -0.39688 -0.39687 h 0.66146 0.66146 v 0.39687 0.39688 z m 20.37291,0 h -0.66146 v -0.39688 -0.39687 h 0.66146 0.66146 v 0.39687 0.39688 z m 15.74271,-0.79375 h -0.26458 v -0.26458 -0.26459 h 0.26458 0.26458 v 0.26459 0.26458 z"
         id="path959"
         inkscape:connector-curvature="0" />
      <path
         style="display:inline;fill:#3f7f9e;stroke-width:0.26458332"
         d="m -117.00253,136.28453 h -0.26458 v -0.26459 -0.26458 h -0.66146 -0.66146 v -0.39688 -0.39687 h -0.26458 -0.26458 v -0.52917 -0.52916 h -0.26459 -0.26458 v -0.39688 -0.39687 h 0.92604 0.92604 v 0.92604 0.92604 h 0.52917 0.52917 v 0.66146 0.66146 z m -71.96666,-0.52917 h -1.5875 v -0.66146 -0.66146 h -0.26458 -0.26459 v -0.66146 -0.66145 h 0.26459 0.26458 v 0.39687 0.39688 h 0.60305 0.60305 l 0.3814,0.52916 0.3814,0.52917 h 0.60305 0.60305 v 0.39687 0.39688 z m 2.51354,0 h -0.39687 v -0.66146 -0.66146 h 0.39687 0.39688 v -0.66146 -0.66145 h 0.26458 0.26458 v 0.66145 0.66146 h -0.26458 -0.26458 v 0.66146 0.66146 z m 15.34583,0 h -1.4552 v -0.66146 -0.66146 h 0.52916 0.52917 v 0.26459 0.26458 h 0.92604 0.92604 v 0.39687 0.39688 z m 16.93334,0 h -0.66146 v -0.39688 -0.39687 h -0.52917 -0.52916 v -0.52917 -0.52916 h -0.39688 -0.39687 v -0.39688 -0.39687 h 0.66145 0.66146 v 0.28348 0.28348 l 0.37798,0.37798 0.37797,0.37797 h 0.26144 0.26143 l 0.15434,0.33073 0.15434,0.33073 0.15434,-0.33073 0.15434,-0.33073 h 0.50712 0.50712 v 0.26459 0.26458 h 0.66146 0.66146 v -0.92604 -0.92604 h 0.26458 0.26458 v 0.92604 0.92604 h -0.26458 -0.26458 v 0.39687 0.39688 h -0.66146 -0.66146 v -0.39688 -0.39687 h -0.52917 -0.52916 v 0.39687 0.39688 z m 20.6375,0 h -0.39688 v -0.39688 -0.39687 h -0.52917 -0.52916 v -0.26458 -0.26459 h -0.39688 -0.39687 v -0.66146 -0.66145 h 0.39687 0.39688 v -0.26459 -0.26458 h 0.26458 0.26458 v 0.54806 0.54807 l 0.37798,0.37798 0.37798,0.37797 h 0.28348 0.28348 v 0.66146 0.66146 z m 19.05,-1.32292 h -0.39688 v -0.26458 -0.26458 h 0.39688 0.39687 v 0.26458 0.26458 z m -16.0073,-0.52916 h -0.26458 v -0.39688 -0.39687 h 0.26458 0.26459 v 0.39687 0.39688 z m 16.66875,-0.79375 h -0.26458 v -0.52917 -0.52917 h 0.26458 0.26459 v 0.52917 0.52917 z m -37.57083,-0.52917 h -0.26458 v -0.26458 -0.26459 h 0.26458 0.26459 v 0.26459 0.26458 z m 35.32188,0 h -0.66146 v -0.26458 -0.26459 h 0.66146 0.66145 v 0.26459 0.26458 z m -54.76875,-0.52917 h -0.66146 v -0.39687 -0.39688 h 0.66146 0.66146 v 0.39688 0.39687 z m 2.24896,0 h -0.26459 v -0.39687 -0.39688 h 0.26459 0.26458 v 0.39688 0.39687 z m 38.09999,0 h -0.26458 v -0.63941 -0.63941 l -0.33073,-0.11811 -0.33073,-0.11812 0.18584,-0.20001 0.18584,-0.20002 0.40947,0.40948 0.40948,0.40947 v 0.54807 0.54806 z m -20.90208,-0.79375 h -0.26458 v -0.26458 -0.26458 h 0.26458 0.26459 v 0.26458 0.26458 z m 18.78542,0 h -0.52917 v -0.26458 -0.26458 h 0.52917 0.52916 v 0.26458 0.26458 z"
         id="path957"
         inkscape:connector-curvature="0" />
      <path
         style="display:inline;fill:#af275f;stroke-width:0.26458332"
         d="m -189.23377,133.10953 h -0.52917 v -0.26459 -0.26458 h -0.28348 -0.28348 l -0.37798,-0.37798 -0.37798,-0.37797 v -0.54807 -0.54806 h 0.26459 0.26458 v 0.26458 0.26458 h 0.39687 0.39688 v 0.28348 0.28349 l 0.44176,0.44176 0.44176,0.44176 0.10945,-0.32837 0.10946,-0.32837 h 0.37483 0.37482 v 0.26459 0.26458 h -0.39687 -0.39688 v 0.26458 0.26459 z m 32.27916,-0.52917 h -0.26458 v -0.66146 -0.66146 h 0.26458 0.26459 v 0.66146 0.66146 z m 39.6875,0 h -0.52917 v -0.26458 -0.26459 h 0.52917 0.52917 v 0.26459 0.26458 z m 2.51354,0 h -0.66146 v -0.26458 -0.26459 h 0.66146 0.66146 v 0.26459 0.26458 z m -60.06041,-0.52917 h -0.39688 v -0.92604 -0.92604 h 1.85209 1.85208 v 0.26458 0.26459 h -1.45521 -1.45521 v 0.66145 0.66146 z m 2.77812,0 h -0.52916 v -0.39687 -0.39688 h 0.52916 0.52917 v 0.39688 0.39687 z m 2.51354,0 h -0.66145 v -0.39687 -0.39688 h 0.66145 0.66146 v 0.39688 0.39687 z m 18.12396,0 h -0.26458 v -0.39687 -0.39688 h -0.39688 -0.39687 v -0.26458 -0.26458 h -0.52917 -0.52916 v -0.26459 -0.26458 h 0.52916 0.52917 v 0.26458 0.26459 h 0.28348 0.28348 l 0.37798,0.37797 0.37798,0.37798 v 0.28348 0.28348 z m 17.92552,-0.80993 -0.33073,-0.0162 -0.59531,-0.63582 -0.59531,-0.63582 v -0.27404 -0.27404 h -0.39688 -0.39687 v -0.26458 -0.26459 h 0.39687 0.39688 v 0.26459 0.26458 h 0.52916 0.52917 v 0.66146 0.66146 h 0.39688 0.39687 v 0.26458 0.26458 l -0.33073,-0.0162 z m 2.05052,0.0162 h -0.66146 v -0.26458 -0.26458 h 0.66146 0.66146 v 0.26458 0.26458 z m -56.88541,-0.52916 h -0.39688 v -0.26459 -0.26458 h -0.52916 -0.52917 v -0.39688 -0.39687 h 0.52917 0.52916 v 0.39687 0.39688 h 0.39688 0.39687 v 0.26458 0.26459 z m 33.60208,-0.52917 h -0.66146 v -0.39688 -0.39687 h 0.66146 0.66146 v 0.39687 0.39688 z m 24.20937,0 h -0.26458 v -0.66146 -0.66146 h 0.26458 0.26459 v 0.66146 0.66146 z m -43.39166,-4.23333 h -0.52917 v -0.66146 -0.66146 h 0.52917 0.52917 v -0.26458 -0.26459 h 0.39687 0.39688 v -0.39687 -0.39688 h 0.52916 0.52917 v -0.26458 -0.26458 h 0.39687 0.39688 v 0.26458 0.26458 h -0.39688 -0.39687 v 0.39688 0.39687 h -0.52917 -0.52916 v 0.26459 0.26458 h -0.39688 -0.39687 v 0.66146 0.66146 z m 53.18125,0 h -0.26459 v -0.92605 -0.92604 h 0.26459 0.26458 v -0.66146 -0.66145 h 0.28348 0.28349 l 0.37797,-0.37798 0.37798,-0.37798 v -0.17009 -0.17008 l 0.37797,-0.37798 0.37798,-0.37798 h 0.28348 0.28348 v 0.26459 0.26458 h -0.39687 -0.39688 v 0.33847 0.33846 l -0.52916,0.3814 -0.52917,0.3814 v 0.86764 0.86763 h -0.39687 -0.39688 v 0.66146 0.66146 z m -70.37917,-0.79375 h -0.52916 v -0.52917 -0.52917 h 0.52916 0.52917 v -0.39687 -0.39688 h 0.39687 0.39688 v -0.26458 -0.26458 h 0.52917 0.52916 v -0.26459 -0.26458 h 0.39688 0.39687 v 0.26458 0.26459 h -0.39687 -0.39688 v 0.26458 0.26458 h -0.52916 -0.52917 v 0.39688 0.39687 h -0.39688 -0.39687 v 0.52917 0.52917 z m 34.52813,0 h -0.66146 v -0.52917 -0.52917 h 0.66146 0.66146 v -0.28348 -0.28348 l 0.37797,-0.37798 0.37798,-0.37797 h 0.52602 0.52601 l 0.11812,-0.33073 0.11812,-0.33073 0.20001,0.18584 0.20001,0.18583 -0.40947,0.40948 -0.40948,0.40947 h -0.54806 -0.54807 v 0.39688 0.39687 h -0.26458 -0.26458 v 0.52917 0.52917 z m 20.24062,0 h -0.52916 v -0.52917 -0.52917 h 0.52916 0.52917 v -0.39687 -0.39688 h 0.39687 0.39688 v -0.26458 -0.26458 h 0.52916 0.52917 v -0.26459 -0.26458 h 0.39688 0.39687 v 0.26458 0.26459 h -0.39687 -0.39688 v 0.26458 0.26458 h -0.52917 -0.52916 v 0.39688 0.39687 h -0.39688 -0.39687 v 0.52917 0.52917 z m -32.27916,-1.85209 h -0.26459 v -0.26458 -0.26458 h 0.26459 0.26458 v 0.26458 0.26458 z m -17.19792,-0.52916 h -0.26458 v -0.26459 -0.26458 h 0.26458 0.26458 v 0.26458 0.26459 z m 34.39583,0 h -0.26458 v -0.26459 -0.26458 h 0.26458 0.26459 v 0.26458 0.26459 z m 20.37292,0 h -0.26459 v -0.26459 -0.26458 h 0.26459 0.26458 v 0.26458 0.26459 z"
         id="path955"
         inkscape:connector-curvature="0" />
      <path
         style="display:inline;fill:#8e571e;stroke-width:0.26458332"
         d="m -188.57232,137.60744 h -1.19062 v -0.39687 -0.39688 h -0.39688 -0.39687 v -0.26458 -0.26458 h 1.5875 1.5875 v 0.66145 0.66146 z m 14.02292,0 h -0.66146 v -1.32291 -1.32292 h 0.39688 0.39687 v -0.26458 -0.26459 h -0.28348 -0.28348 l -0.37798,-0.37797 -0.37797,-0.37798 v -0.43467 -0.43467 l 0.37797,-0.37798 0.37798,-0.37798 h 0.28348 0.28348 v -0.39687 -0.39688 h 0.92604 0.92605 v 0.33847 0.33846 l 0.52916,0.38141 0.52917,0.3814 v 0.48278 0.48279 l -0.64943,0.64943 -0.64943,0.64943 h -0.5412 -0.54119 v 0.63941 0.63941 l -0.33073,0.15434 -0.33073,0.15434 0.33073,0.15434 0.33073,0.15434 v 0.37483 0.37482 z m 0.94494,-3.175 h 0.81265 l 0.37798,-0.37797 0.37797,-0.37798 v -0.54807 -0.54806 h -0.66146 -0.66145 v -0.26458 -0.26459 h -0.52917 -0.52917 v 0.26459 0.26458 h -0.39687 -0.39688 v 0.66146 0.66146 h 0.39688 0.39687 v 0.26458 0.26458 z m 17.84048,3.175 h -0.92604 v -0.39687 -0.39688 h -0.26459 -0.26458 v -0.92604 -0.92604 h 0.26458 0.26459 v 0.39687 0.39688 h 0.39687 0.39688 v 0.26458 0.26459 h 0.52916 0.52917 v 0.66145 0.66146 z m 18.52083,0 h -0.39687 v -1.32291 -1.32292 h 0.66145 0.66146 v 0.39687 0.39688 h 0.26459 0.26458 v 0.52917 0.52916 h -0.52917 -0.52916 v 0.39688 0.39687 z m 16.53646,0 h -0.26459 v -1.32291 -1.32292 h 0.26459 0.26458 v 0.39687 0.39688 h 0.28348 0.28349 l 0.37797,0.37798 0.37798,0.37797 v 0.15119 0.15119 h -0.66146 -0.66146 v 0.39688 0.39687 z m -65.74896,-0.79375 h -0.39687 v -0.26458 -0.26458 h 0.39687 0.39688 v 0.26458 0.26458 z m 13.22917,0 h -0.66146 v -0.26458 -0.26458 h 0.66146 0.66146 v 0.26458 0.26458 z m 4.5718,0 h -0.20618 v -1.07723 -1.07723 l 0.44176,-0.44176 0.44176,-0.44176 0.10946,0.32837 0.10945,0.32836 h 0.37483 0.37483 v -0.26458 -0.26458 h -0.39688 -0.39687 v -0.39688 -0.39687 h 0.66145 0.66146 v 0.66145 0.66146 h -0.26458 -0.26458 v 0.66146 0.66146 h -0.33847 -0.33847 l -0.3814,0.52917 -0.3814,0.52916 z m 17.25632,0 h -0.26458 v -0.52916 -0.52917 h 0.92604 0.92604 v -0.39688 -0.39687 h 0.26459 0.26458 v 0.28348 0.28348 l -0.37798,0.37798 -0.37797,0.37798 h -0.54807 -0.54806 v 0.26458 0.26458 z m 20.25953,-0.52916 h -0.1512 v -0.81265 -0.81265 l 0.37798,-0.37798 0.37798,-0.37797 h 0.15119 0.15119 v 0.81264 0.81265 l -0.37798,0.37798 -0.37797,0.37798 z m 17.3113,0 h -0.26458 v -0.26459 -0.26458 h -0.39687 -0.39688 v -0.66146 -0.66146 h 0.39688 0.39687 v -0.54119 -0.54119 l 0.64943,-0.64944 0.64943,-0.64943 h 0.27662 0.2766 v -0.66146 -0.66145 h -0.39687 -0.39688 v -0.26459 -0.26458 h -0.26458 -0.26458 v 0.52917 0.52916 h -0.26459 -0.26458 v 0.39688 0.39687 h -0.39687 -0.39688 v -0.39687 -0.39688 h -0.52917 -0.52916 v -0.26458 -0.26458 h 0.52916 0.52917 v -0.26459 -0.26458 h 0.66146 0.66146 v -0.39688 -0.39687 h 0.26458 0.26458 v 0.39687 0.39688 h 0.28349 0.28348 l 0.37798,0.37798 0.37797,0.37797 v 0.43467 0.43468 l -0.37797,0.37797 -0.37798,0.37798 h -0.17009 -0.17009 l -0.37798,0.37798 -0.37797,0.37797 v 1.47411 1.47411 z m -0.66145,-5.02709 h 0.39687 v -0.26458 -0.26458 h -0.39687 -0.39688 v 0.26458 0.26458 z m -39.95209,2.64584 h -0.92604 v -0.28349 -0.28348 l -0.37797,-0.37797 -0.37798,-0.37798 h -0.28348 -0.28348 v -0.66146 -0.66146 h 0.33846 0.33847 l 0.3814,-0.52916 0.3814,-0.52917 h 0.74737 0.74737 l 0.64943,0.64943 0.64943,0.64943 v 0.48279 0.48278 l -0.52917,0.3814 -0.52916,0.3814 v 0.33847 0.33847 z m -0.0472,-0.80382 0.7465,0.0101 0.37798,-0.37798 0.37797,-0.37798 v -0.54806 -0.54807 h -0.52916 -0.52917 v -0.26458 -0.26458 h -0.54807 -0.54806 l -0.37798,0.37797 -0.37797,0.37798 v 0.42694 0.42694 l 0.33072,0.37564 0.33073,0.37565 0.74651,0.0101 z m -31.96734,0.0101 h -0.80922 l -0.3814,-0.52917 -0.38141,-0.52917 h -0.33846 -0.33847 v -0.66146 -0.66145 h 0.28349 0.28348 l 0.37797,-0.37798 0.37798,-0.37798 v -0.28348 -0.28348 h 0.90399 0.904 l 0.11811,-0.33073 0.11812,-0.33073 0.23466,0.23466 0.23466,0.23466 -0.33073,0.11812 -0.33073,0.11812 v 0.26143 0.26143 l 0.37798,0.37798 0.37798,0.37798 h 0.28348 0.28348 v 0.66145 0.66146 h -0.33847 -0.33846 l -0.3814,0.52917 -0.38141,0.52917 z m -0.0473,-0.53923 0.74651,0.0101 0.37797,-0.37798 0.37798,-0.37797 v -0.43468 -0.43467 l -0.37798,-0.37797 -0.37797,-0.37798 h -0.69926 -0.69925 l -0.37798,0.37798 -0.37798,0.37797 v 0.42694 0.42694 l 0.33073,0.37565 0.33073,0.37564 0.7465,0.0101 z m 50.4624,0.53923 h -0.80577 v -0.26459 -0.26458 h -0.28349 -0.28348 l -0.37798,-0.37798 -0.37797,-0.37797 v -0.43468 -0.43467 l 0.37797,-0.37797 0.37798,-0.37798 h 0.28348 0.28349 v -0.39688 -0.39687 h 0.92604 0.92604 v 0.33847 0.33846 l 0.52916,0.3814 0.52917,0.3814 v 0.48279 0.48278 l -0.64943,0.64943 -0.64943,0.64944 z m 0.007,-0.52917 h 0.81265 l 0.37797,-0.37798 0.37797,-0.37797 v -0.54807 -0.54806 h -0.66145 -0.66146 v -0.26459 -0.26458 h -0.52917 -0.52916 v 0.26458 0.26459 h -0.39688 -0.39687 v 0.66145 0.66146 h 0.39687 0.39688 v 0.26459 0.26458 h 0.81264 z m 16.5837,0.51298 -0.85989,-0.0162 -0.59531,-0.63582 -0.59532,-0.63582 v -0.48021 -0.48022 l 0.52916,-0.3814 0.52917,-0.3814 v -0.33846 -0.33847 h 0.92604 0.92604 v 0.39687 0.39688 h 0.28349 0.28348 l 0.37798,0.37798 0.37797,0.37797 v 0.43467 0.43468 l -0.37797,0.37797 -0.37798,0.37798 h -0.28348 -0.28349 v 0.26458 0.26459 l -0.85989,-0.0162 z m 0,-0.52304 0.85989,0.0101 v -0.26458 -0.26459 h 0.39688 0.39687 v -0.66146 -0.66145 h -0.39687 -0.39688 v -0.26459 -0.26458 h -0.81264 -0.81265 l -0.37798,0.37798 -0.37798,0.37797 v 0.42694 0.42694 l 0.33073,0.37565 0.33073,0.37564 0.8599,0.0101 z m -47.73839,0 -0.48192,-0.0101 -0.33073,-0.37564 -0.33073,-0.37565 v -0.54033 -0.54033 h 0.26458 0.26459 v 0.66145 0.66146 h 0.66145 0.66146 v -0.92604 -0.92604 h -0.26458 -0.26458 v 0.26458 0.26459 h -0.37483 -0.37483 l -0.15434,-0.33073 -0.15434,-0.33073 -0.15434,0.33073 -0.15434,0.33073 h -0.90399 -0.90399 v -0.26459 -0.26458 h 0.66145 0.66146 v -0.39688 -0.39687 h 1.19063 1.19062 v 0.39687 0.39688 h 0.26459 0.26458 v 0.81265 0.81265 l -0.37798,0.37797 -0.37797,0.37798 -0.48192,-0.0101 z m 17.24516,0.0101 h -0.66146 v -0.26458 -0.26459 h 0.39688 0.39687 v -0.39687 -0.39688 h -0.66146 -0.66145 v -0.26458 -0.26458 h 0.54806 0.54807 l 0.37797,0.37797 0.37798,0.37798 v 0.54806 0.54807 z m -23.01875,-2.38125 h -0.39687 v -0.39688 -0.39687 h 0.39687 0.39688 v 0.39687 0.39688 z m 20.6375,0 h -0.66146 v -0.39688 -0.39687 h 0.63941 0.63941 l 0.11812,-0.33073 0.11812,-0.33073 0.23466,0.23466 0.23466,0.23466 -0.33073,0.11812 -0.33073,0.11812 v 0.37482 0.37483 z m 20.37292,0 h -0.66146 v -0.39688 -0.39687 h 0.63941 0.63941 l 0.11811,-0.33073 0.11812,-0.33073 0.23466,0.23466 0.23466,0.23466 -0.33073,0.11812 -0.33073,0.11812 v 0.37482 0.37483 z m -58.20834,-0.79375 h -0.39687 v -0.26458 -0.26459 h 0.39687 0.39688 v 0.26459 0.26458 z m 34.52813,0 h -0.26458 v -0.26458 -0.26459 h 0.26458 0.26458 v 0.26459 0.26458 z m 39.95208,-0.52917 h -0.26458 v -0.26458 -0.26458 h 0.26458 0.26458 v 0.26458 0.26458 z m 2.38125,0 h -0.26458 v -0.92604 -0.92604 h 0.26458 0.26458 v 0.92604 0.92604 z m -57.15,-0.52916 h -0.26458 v -0.26459 -0.26458 h 0.26458 0.26459 v 0.26458 0.26459 z m 3.04271,0 h -0.39687 v -0.92605 -0.92604 h 0.39687 0.39688 v 0.92604 0.92605 z m 46.69896,0 h -0.26459 v -0.66146 -0.66146 h 0.26459 0.26458 v 0.66146 0.66146 z m -66.93958,-0.52917 h -0.26459 v -0.39688 -0.39687 h 0.26459 0.26458 v 0.39687 0.39688 z m 3.0427,0 h -0.39687 v -0.92604 -0.92604 h 0.39687 0.39688 v 0.92604 0.92604 z m 9.78959,0 h -0.39688 v -0.66146 -0.66146 h 0.39688 0.39687 v 0.66146 0.66146 z m 21.56354,0 h -0.26458 v -0.39688 -0.39687 h 0.26458 0.26458 v 0.39687 0.39688 z m 3.04271,0 h -0.39688 v -0.92604 -0.92604 h 0.39688 0.39687 v 0.92604 0.92604 z m 17.85937,0 h -0.26458 v -0.39688 -0.39687 h 0.26458 0.26458 v 0.39687 0.39688 z m 2.51354,0 h -0.39687 v -0.92604 -0.92604 h 0.39687 0.39688 v 0.92604 0.92604 z m -62.17708,-0.79375 h -0.39687 v -0.52917 -0.52916 h 0.39687 0.39688 v 0.52916 0.52917 z m 34.52813,0 h -0.26459 v -0.52917 -0.52916 h 0.26459 0.26458 v 0.52916 0.52917 z m 20.24062,0 h -0.39687 v -0.52917 -0.52916 h 0.39687 0.39688 v 0.52916 0.52917 z m 7.55952,-4.23333 h -0.54806 v -0.26459 -0.26458 h 0.66146 0.66145 v -0.92604 -0.92604 h -0.26458 -0.26458 v 0.52916 0.52917 h -0.39688 -0.39687 v -0.52917 -0.52916 h 0.39687 0.39688 v -0.39688 -0.39687 h -0.92604 -0.92605 v 0.39687 0.39688 h -0.37482 -0.37483 l -0.11811,0.33073 -0.11812,0.33072 -0.23466,-0.23466 -0.23466,-0.23466 0.33073,-0.11811 0.33072,-0.11812 v -0.37483 -0.37482 h 0.39688 0.39687 v -0.26459 -0.26458 h 0.81265 0.81265 l 0.37798,0.37798 0.37797,0.37797 v 0.28348 0.28349 h 0.26459 0.26458 v 0.81265 0.81264 l -0.37797,0.37798 -0.37798,0.37798 z"
         id="path953"
         inkscape:connector-curvature="0" />
      <path
         style="display:inline;fill:#1f2f8e;stroke-width:0.26458332"
         d="m -117.66398,137.60744 h -0.92605 v -0.27661 -0.27661 l -0.64943,-0.64943 -0.64943,-0.64943 h -0.27661 -0.27661 v -1.32292 -1.32291 h 0.39688 0.39687 v 0.39687 0.39688 h 0.26458 0.26459 v 0.52916 0.52917 h 0.26458 0.26458 v 0.39687 0.39688 h 0.66146 0.66146 v 0.26458 0.26459 h 0.54807 0.54806 l 0.37798,-0.37798 0.37797,-0.37798 v -0.28348 -0.28348 h 0.26459 0.26458 v 0.66146 0.66146 h -0.52917 -0.52916 v 0.26458 0.26458 h -0.39688 -0.39687 v 0.39688 0.39687 z m -54.37188,-0.79375 h -0.52916 v -0.26458 -0.26458 h -0.66146 -0.66146 v -0.66146 -0.66146 h 0.66146 0.66146 v 0.39687 0.39688 h 1.4552 1.45521 v -0.66146 -0.66146 h 0.28348 0.28349 l 0.37797,-0.37797 0.37798,-0.37798 v -0.17009 -0.17009 l 0.37798,-0.37797 0.37797,-0.37798 h 0.28348 0.28349 v 0.26458 0.26459 h -0.39688 -0.39687 v 0.33846 0.33847 l -0.52917,0.3814 -0.52917,0.3814 v 0.86763 0.86764 h -1.32291 -1.32292 v 0.26458 0.26458 z m -16.31912,-0.53923 -2.06942,-0.0101 -0.33073,-0.37565 -0.33073,-0.37564 v -0.54033 -0.54034 h -0.26458 -0.26458 v -1.19062 -1.19063 h 0.15119 0.15119 l 0.44176,0.44176 0.44176,0.44176 -0.32837,0.10946 -0.32837,0.10945 v 0.63941 0.63941 h 0.26459 0.26458 v 0.66146 0.66146 h 1.5875 1.5875 v -0.66146 -0.66146 h 0.26458 0.26459 v 0.66146 0.66146 h 0.39687 0.39688 v -0.66146 -0.66146 h 0.26458 0.26458 v -0.66146 -0.66145 h 0.26459 0.26458 v 0.66145 0.66146 h -0.26458 -0.26459 v 0.54807 0.54806 l -0.37797,0.37798 -0.37798,0.37798 z m 33.89187,0.0101 h -1.43316 v -0.26459 -0.26458 h -0.39688 -0.39687 v -0.37483 -0.37482 l -0.33073,-0.1342 -0.33073,-0.1342 0.39687,-0.30487 0.39688,-0.30487 -0.33073,-0.13419 -0.33073,-0.1342 v -0.37483 -0.37482 h 0.26458 0.26459 v 0.39687 0.39688 h 0.39687 0.39688 v 0.52916 0.52917 h 0.52916 0.52917 v 0.39687 0.39688 h 0.66146 0.66146 v -0.39688 -0.39687 h 0.52916 0.52917 v 0.39687 0.39688 h 0.39687 0.39688 v 0.26458 0.26459 h -0.37483 -0.37482 l -0.15435,-0.33073 -0.15433,-0.33073 -0.15434,0.33073 -0.15435,0.33073 z m 20.06423,-0.0101 -1.25677,-0.0101 -0.33073,-0.37565 -0.33073,-0.37564 v -0.27575 -0.27575 h -0.26458 -0.26458 v -0.92604 -0.92604 h 0.52916 0.52917 v 0.66145 0.66146 h 0.39687 0.39688 v 0.26459 0.26458 h 0.52916 0.52917 v 0.39687 0.39688 h 0.39688 0.39687 v -0.39688 -0.39687 h 0.52917 0.52916 v -0.52917 -0.52916 h 0.39688 0.39687 v 1.19062 1.19063 h -0.39687 -0.39688 v -0.26459 -0.26458 h -0.52916 -0.52917 v 0.26458 0.26459 l -1.25677,-0.0101 z m -16.47031,-0.5191 h -0.26458 v -0.39688 -0.39687 h 0.26458 0.26458 v -1.19063 -1.19062 h 0.39688 0.39687 v 1.19062 1.19063 h -0.39687 -0.39688 v 0.39687 0.39688 z m -39.29063,-1.85208 h -0.39687 v -0.39688 -0.39687 h 0.39687 0.39688 v 0.39687 0.39688 z m 60.325,-1.85209 h -0.39687 v -0.60305 -0.60305 l -0.52917,-0.3814 -0.52917,-0.3814 v -0.33846 -0.33847 h 0.26459 0.26458 v 0.28348 0.28348 l 0.37798,0.37798 0.37797,0.37798 h 0.28349 0.28348 v 0.66145 0.66146 z m 13.22917,0 h -0.66146 v -0.39687 -0.39688 h 0.66146 0.66146 v 0.39688 0.39687 z m -54.76875,-0.79375 h -0.66146 v -0.26458 -0.26458 h 0.66146 0.66146 v 0.26458 0.26458 z m 2.11667,0 h -0.39688 v -0.26458 -0.26458 h 0.39688 0.39687 v 0.26458 0.26458 z m 17.19791,-0.52916 h -0.39687 v -0.26459 -0.26458 h 0.39687 0.39688 v 0.26458 0.26459 z m 18.78542,0 h -0.66146 v -0.26459 -0.26458 h 0.66146 0.66146 v 0.26458 0.26459 z"
         id="path951"
         inkscape:connector-curvature="0" />
      <path
         style="display:inline;fill:#4f0000;stroke-width:0.26458332"
         d="m -188.8369,133.90328 h -0.92604 v -0.39688 -0.39687 h -0.27661 -0.27661 l -0.64943,-0.64944 -0.64943,-0.64943 v -0.48278 -0.48279 l 0.52916,-0.3814 0.52917,-0.3814 v -0.33846 -0.33847 h 0.39687 0.39688 v 0.39687 0.39688 h -0.28348 -0.28348 l -0.37798,0.37798 -0.37798,0.37797 v 0.43467 0.43468 l 0.37798,0.37797 0.37798,0.37798 h 0.28348 0.28348 v 0.26458 0.26459 h 0.52917 0.52916 v -0.26459 -0.26458 h 0.66146 0.66146 v 0.26458 0.26459 h -0.26458 -0.26459 v 0.39687 0.39688 z m 32.34531,-0.80382 -0.59531,-0.0101 -0.33073,-0.37565 -0.33073,-0.37564 v -0.74651 -0.74651 l 0.52917,-0.3814 0.52917,-0.3814 v -0.33846 -0.33847 h 0.66145 0.66146 v 0.39687 0.39688 h -0.54806 -0.54807 l -0.37798,0.37798 -0.37797,0.37797 v 0.81265 0.81265 h 0.66146 0.66146 v 0.26458 0.26459 l -0.59532,-0.0101 z m 38.82761,0.0101 h -0.92605 v -0.26459 -0.26458 h 0.92605 0.92604 v 0.26458 0.26459 z m 2.91041,0 h -0.66146 v -0.26459 -0.26458 h 0.66146 0.66146 v 0.26458 0.26459 z m -60.72187,-0.52917 h -0.26458 v -1.19063 -1.19062 h 0.26458 0.26458 v -0.39688 -0.39687 h 0.66146 0.66146 v 0.39687 0.39688 h -0.66146 -0.66146 v 1.19062 1.19063 z m 4.10104,0 h -0.66146 v -0.26458 -0.26459 h 0.66146 0.66146 v 0.26459 0.26458 z m 2.38125,0 h -0.66146 v -0.26458 -0.26459 h 0.66146 0.66146 v 0.26459 0.26458 z m 35.45417,-0.52917 h -0.39688 v -0.39687 -0.39688 h 0.39688 0.39687 v 0.39688 0.39687 z m 2.11666,0 h -0.66146 v -0.39687 -0.39688 h 0.66146 0.66146 v 0.39688 0.39687 z m 14.81667,-0.79375 h -0.66146 v -0.26458 -0.26458 h 0.66146 0.66146 v 0.26458 0.26458 z m -72.36354,-0.52916 h -0.26458 v -0.26459 -0.26458 h 0.26458 0.26458 v -0.39688 -0.39687 h 0.66146 0.66146 v 0.39687 0.39688 h -0.66146 -0.66146 v 0.26458 0.26459 z m 18.12396,0 h -0.66146 v -0.26459 -0.26458 h 0.66146 0.66146 v 0.26458 0.26459 z m 19.44687,0 h -0.26458 v -0.26459 -0.26458 h 0.26458 0.26459 v 0.26458 0.26459 z m 13.49375,0 h -0.26458 v -0.54807 -0.54806 l 0.37797,-0.37798 0.37798,-0.37798 h 0.81265 0.81265 v 0.26459 0.26458 h -0.92604 -0.92604 v 0.66146 0.66146 z m 16.66875,0 h -0.26458 v -0.66146 -0.66146 h 0.26458 0.26458 v 0.66146 0.66146 z m -32.27916,-0.52917 h -0.52917 v -0.39688 -0.39687 h 0.52917 0.52916 v 0.39687 0.39688 z m 20.24062,0 h -0.66146 v -0.39688 -0.39687 h 0.66146 0.66146 v 0.39687 0.39688 z m 4.10104,-3.70417 h -0.26458 v -0.92604 -0.92604 h 0.26458 0.26458 v 0.92604 0.92604 z m 8.20208,0 h -0.52916 v -1.19062 -1.19063 h 0.26458 0.26458 v -0.54806 -0.54807 l 0.37798,-0.37797 0.37798,-0.37798 h 0.28348 0.28348 v -0.27661 -0.27661 l 0.64943,-0.64943 0.64943,-0.64943 h 1.35385 1.35384 l 0.37798,0.37797 0.37797,0.37798 v 0.54806 0.54807 h -0.26458 -0.26459 v -0.66146 -0.66146 h -1.4741 -1.47411 l -0.37798,0.37798 -0.37797,0.37798 v 0.17008 0.17009 l -0.37798,0.37798 -0.37797,0.37798 h -0.28349 -0.28348 v 0.66145 0.66146 h -0.26458 -0.26459 v 0.92604 0.92605 h 0.26459 0.26458 v -0.66146 -0.66146 h 0.39688 0.39687 v -0.54119 -0.5412 l 0.64943,-0.64943 0.64943,-0.64943 h 0.27662 0.2766 v 0.26458 0.26459 h -0.28348 -0.28348 l -0.37798,0.37797 -0.37797,0.37798 v 0.28348 0.28348 h 0.26458 0.26458 v -0.39687 -0.39688 h 0.39688 0.39687 v 0.39688 0.39687 h -0.39687 -0.39688 v 0.26459 0.26458 h -0.52916 -0.52917 v 0.66146 0.66146 h -0.39687 -0.39688 v 0.26458 0.26458 z m -53.8427,-0.52916 h -0.39688 v -0.66146 -0.66146 h 0.28349 0.28348 l 0.37797,-0.37798 0.37798,-0.37797 v -0.17009 -0.17009 l 0.37798,-0.37798 0.37797,-0.37797 h 0.28348 0.28349 v -0.26459 -0.26458 h 0.52916 0.52917 v -0.39688 -0.39687 h 1.5875 1.5875 v 0.39687 0.39688 h 0.26458 0.26459 v 0.52917 0.52916 h -0.26459 -0.26458 v -0.52916 -0.52917 h -1.5875 -1.5875 v 0.26458 0.26459 h -0.52917 -0.52916 v 0.26458 0.26458 h -0.39688 -0.39687 v 0.33847 0.33846 l -0.52917,0.38141 -0.52917,0.3814 v 0.60305 0.60305 z m -17.19792,-0.79375 h -0.39687 v -0.52917 -0.52917 h 0.39687 0.39688 v -0.27661 -0.27661 l 0.64943,-0.64943 0.64943,-0.64943 h 0.27661 0.27661 v -0.39688 -0.39687 h 0.52917 0.52916 v -0.26458 -0.26459 h 1.47411 1.47411 l 0.37797,0.37798 0.37798,0.37798 v 0.54806 0.54807 h -0.26458 -0.26459 v -0.66146 -0.66146 h -1.5875 -1.5875 v 0.39687 0.39688 h -0.52916 -0.52917 v 0.26458 0.26459 h -0.28348 -0.28348 l -0.37798,0.37797 -0.37798,0.37798 v 0.28348 0.28348 h -0.26458 -0.26458 v 0.52917 0.52917 z m 34.52813,0 h -0.26459 v -0.52917 -0.52917 h 0.26459 0.26458 v -0.28348 -0.28348 l 0.37797,-0.37798 0.37798,-0.37797 h 0.17009 0.17009 l 0.37798,-0.37798 0.37797,-0.37798 v -0.28348 -0.28348 h 0.66146 0.66146 v -0.26458 -0.26459 h 1.34181 1.34182 l 0.37798,0.37798 0.37797,0.37798 v 0.54806 0.54807 h -0.26458 -0.26458 v -0.66146 -0.66146 h -1.45521 -1.45521 v 0.39687 0.39688 h -0.60305 -0.60305 l -0.3814,0.52917 -0.3814,0.52916 h -0.33847 -0.33846 v 0.39688 0.39687 h -0.26459 -0.26458 v 0.52917 0.52917 z m 20.24062,0 h -0.39687 v -0.52917 -0.52917 h 0.39687 0.39688 v -0.27661 -0.27661 l 0.64943,-0.64943 0.64943,-0.64943 h 0.27661 0.27661 v -0.39688 -0.39687 h 0.52916 0.52917 v -0.26458 -0.26459 h 1.47411 1.47411 l 0.37797,0.37798 0.37798,0.37798 v 0.54806 0.54807 h -0.26459 -0.26458 v -0.66146 -0.66146 h -1.5875 -1.5875 v 0.39687 0.39688 h -0.52917 -0.52916 v 0.26458 0.26459 h -0.28348 -0.28349 l -0.37797,0.37797 -0.37798,0.37798 v 0.28348 0.28348 h -0.26458 -0.26458 v 0.52917 0.52917 z m 22.75417,-0.52917 h -0.39688 v -0.26458 -0.26459 h 0.39688 0.39687 v 0.26459 0.26458 z m -1.85209,-0.52917 h -0.39687 v -0.39687 -0.39688 h 0.39687 0.39688 v 0.39688 0.39687 z m -12.83229,-0.79375 h -0.26458 v -0.26458 -0.26458 h 0.26458 0.26458 v 0.26458 0.26458 z"
         id="path949"
         inkscape:connector-curvature="0" />
      <path
         style="display:inline;fill:#000000;stroke-width:0.26458332"
         d="m -187.77857,138.13661 h -2.77812 v -0.66146 -0.66146 h 0.39687 0.39688 v 0.39688 0.39687 h 1.45521 1.45521 v -0.37482 -0.37483 l -0.33073,-0.11812 -0.33073,-0.11812 0.23466,-0.23466 0.23466,-0.23466 0.11812,0.33073 0.11811,0.33073 h 0.35278 0.35278 l 0.10945,-0.32836 0.10946,-0.32837 0.44176,0.44176 0.44176,0.44176 v 0.54806 0.54807 z m 1.98438,-0.52917 h 0.26458 v -0.39687 -0.39688 h -0.26458 -0.26458 v 0.39688 0.39687 z m 11.31094,0.51911 -0.59532,-0.0101 -0.33072,-0.37564 -0.33073,-0.37565 v -1.0884 -1.0884 l 0.37797,-0.37797 0.37798,-0.37798 h 0.28348 0.28348 v 0.26459 0.26458 h -0.39687 -0.39688 v 1.32292 1.32291 h 0.66146 0.66146 v -0.39687 -0.39688 h 0.66146 0.66146 v 0.39688 0.39687 h -0.66146 -0.66146 v 0.26459 0.26458 l -0.59531,-0.0101 z m 19.44687,0 -1.52135,-0.0101 -0.33073,-0.37564 -0.33073,-0.37565 v -0.27575 -0.27575 h -0.26458 -0.26459 v -0.92604 -0.92604 h 0.26459 0.26458 v 0.92604 0.92604 h 0.26458 0.26459 v 0.39688 0.39687 h 1.32291 1.32292 v -0.39687 -0.39688 h -0.39688 -0.39687 v -0.26458 -0.26458 h 0.28348 0.28348 l 0.37798,0.37797 0.37798,0.37798 v 0.54806 0.54807 z m 3.90261,0.0101 h -0.52917 v -0.26458 -0.26459 h -0.39688 -0.39687 v -0.66146 -0.66145 h 0.37483 0.37482 l 0.15434,0.33072 0.15434,0.33073 0.15434,-0.33073 0.15434,-0.33072 h 0.52602 0.52602 l 0.37797,-0.37798 0.37798,-0.37798 v -0.26143 -0.26143 l -0.33073,-0.11812 -0.33073,-0.11812 0.18584,-0.20001 0.18584,-0.20001 0.40947,0.40947 0.40948,0.40947 v 0.81265 0.81265 h -0.26459 -0.26458 v 0.39688 0.39687 h -0.66146 -0.66146 v 0.26459 0.26458 z m 14.10796,-0.0101 -0.48192,-0.0101 -0.33073,-0.37564 -0.33073,-0.37565 v -1.0884 -1.0884 l 0.37797,-0.37797 0.37798,-0.37798 h 0.28348 0.28349 v 0.26459 0.26458 h -0.39688 -0.39687 v 1.32292 1.32291 h 0.66145 0.66146 v -0.28348 -0.28348 l 0.37798,-0.37798 0.37797,-0.37797 h 0.28349 0.28348 v 0.26458 0.26458 h -0.39688 -0.39687 v 0.28348 0.28349 l -0.37798,0.37797 -0.37797,0.37798 z m 16.66875,0 -0.48192,-0.0101 -0.33073,-0.37564 -0.33073,-0.37565 v -1.0884 -1.0884 l 0.40947,-0.40947 0.40948,-0.40948 0.18583,0.20002 0.18584,0.20001 -0.33073,0.11812 -0.33073,0.11811 v 1.30087 1.30087 h 0.66146 0.66146 v -0.39687 -0.39688 h 0.26458 0.26459 v 0.28348 0.28349 l -0.37798,0.37797 -0.37797,0.37798 -0.48192,-0.0101 z m -47.31317,-0.5191 h -0.66146 v -0.54806 -0.54807 l 0.37798,-0.37797 0.37797,-0.37798 h 0.28348 0.28349 v -0.54807 -0.54806 l 0.37797,-0.37798 0.37798,-0.37797 h 0.15119 0.15119 v 0.92604 0.92604 h -0.26458 -0.26459 v 0.52917 0.52916 h -0.26458 -0.26458 v 0.39688 0.39687 z m 37.57083,0 h -0.66146 v -0.37482 -0.37483 l -0.33073,-0.11872 -0.33073,-0.11872 0.59532,-0.52967 0.59531,-0.52968 v -0.56428 -0.56428 h 0.39687 0.39688 v -0.26458 -0.26458 h -0.39688 -0.39687 v -0.39688 -0.39687 h 0.66146 0.66145 v 0.39687 0.39688 h 0.26459 0.26458 v 1.13221 1.13222 l -0.52917,0.3814 -0.52916,0.3814 v 0.33847 0.33846 z m 17.19792,0 h -0.66146 v -0.28348 -0.28348 l -0.37798,-0.37798 -0.37797,-0.37797 h -0.28349 -0.28348 v -0.26459 -0.26458 h 0.39688 0.39687 v 0.26458 0.26459 h 0.26458 0.26459 v -1.19063 -1.19062 h 0.26458 0.26458 v -0.39688 -0.39687 h 0.39688 0.39687 v 0.39687 0.39688 h 0.26459 0.26458 v 1.4552 1.45521 h -0.26458 -0.26459 v 0.39688 0.39687 z m -18.12396,-3.175 h -0.26459 v -0.26458 -0.26458 h 0.26459 0.26458 v 0.26458 0.26458 z m -42.59792,-4.23333 h -0.26458 v -0.28348 -0.28348 l -0.37798,-0.37798 -0.37797,-0.37798 h -0.28348 -0.28349 v -0.26458 -0.26458 h 0.54807 0.54806 l 0.37798,0.37797 0.37798,0.37798 v 0.54806 0.54807 z m 58.47292,0 h -1.5875 v -0.39688 -0.39687 h -0.52917 -0.52917 v -0.15119 -0.15119 l 0.37798,-0.37798 0.37798,-0.37797 h 0.54806 0.54807 v 0.26458 0.26458 h 1.45521 1.4552 v 0.26459 0.26458 h -0.26458 -0.26458 v 0.39687 0.39688 z m -75.61242,-0.79375 h -0.20618 l -0.3814,-0.52917 -0.3814,-0.52916 h -0.33847 -0.33846 v -0.26459 -0.26458 h 0.54806 0.54807 l 0.37797,0.37798 0.37798,0.37797 v 0.41578 0.41577 z m 21.78861,0 h -1.73869 v -0.26458 -0.26459 h -0.66146 -0.66146 v -0.15119 -0.15119 l 0.37798,-0.37797 0.37798,-0.37798 h 0.28348 0.28348 v 0.26458 0.26459 h 2.11667 2.11666 v 0.15119 0.15119 l -0.37797,0.37797 -0.37798,0.37798 z m 12.74725,-0.0162 -0.33073,-0.0162 -0.59532,-0.63582 -0.59531,-0.63582 v -0.14174 -0.14175 h 0.52917 0.52917 v 0.26458 0.26459 h 0.39687 0.39688 v 0.52916 0.52917 l -0.33073,-0.0162 z m 36.12336,0.0162 h -0.86764 v -0.26458 -0.26459 h 0.92605 0.92604 v -0.26458 -0.26458 h -0.26459 -0.26458 v -0.92605 -0.92604 h -0.39687 -0.39688 v -0.26458 -0.26458 h 0.39688 0.39687 v -0.66146 -0.66146 h 0.52917 0.52916 v -0.26458 -0.26459 h 0.39688 0.39687 v -0.39687 -0.39688 h -0.39687 -0.39688 v 0.39688 0.39687 h -0.26458 -0.26458 v -0.28348 -0.28348 l 0.37797,-0.37798 0.37798,-0.37797 h 0.28348 0.28348 v -0.26459 -0.26458 h 2.00328 2.00327 l 0.37798,0.37798 0.37797,0.37797 v 0.43467 0.43468 l -0.44175,0.44176 -0.44177,0.44176 -0.10945,-0.32837 -0.10946,-0.32837 h -0.27764 -0.27765 l -0.52968,0.59532 -0.52967,0.59531 -0.11872,-0.33073 -0.11872,-0.33073 h -0.37482 -0.37483 v 0.26458 0.26459 h 0.39687 0.39688 v 0.39687 0.39688 h -0.66146 -0.66146 v -0.39688 -0.39687 h -0.26458 -0.26459 v 0.39687 0.39688 h -0.39687 -0.39688 v 0.92604 0.92604 h 0.39688 0.39687 v 0.26458 0.26459 h -0.33846 -0.33847 l -0.3814,0.52916 -0.3814,0.52917 z m 3.76257,-5.29167 h 0.39688 v -0.39687 -0.39688 h -0.39688 -0.39687 v 0.39688 0.39687 z m -69.8311,4.7625 h -1.73869 v -0.26458 -0.26458 h -0.66146 -0.66145 v -0.26459 -0.26458 h 0.26458 0.26458 v -0.39688 -0.39687 h 0.39688 0.39687 v 0.39687 0.39688 h 2.11667 2.11667 v 0.15119 0.15119 l -0.37798,0.37798 -0.37798,0.37797 z m 34.39584,0 h -1.73869 v -0.26458 -0.26458 h -0.66146 -0.66146 v -0.26459 -0.26458 h 0.39687 0.39688 v -0.39688 -0.39687 h 0.26458 0.26459 v 0.39687 0.39688 h 2.11666 2.11667 v 0.15119 0.15119 l -0.37798,0.37798 -0.37797,0.37797 z m 15.45922,0 h -0.52916 v -0.26458 -0.26458 h -0.39688 -0.39687 v -0.26459 -0.26458 h 0.92604 0.92604 v -0.39688 -0.39687 h -0.26458 -0.26459 v -0.92604 -0.92604 h 0.26459 0.26458 v -0.52917 -0.52917 h 0.39687 0.39688 v -0.39687 -0.39688 h 0.52916 0.52917 v -0.26458 -0.26458 h 2.13557 2.13556 l 0.37798,0.37797 0.37797,0.37798 v 0.43467 0.43467 l -0.37797,0.37798 -0.37798,0.37798 h -0.54806 -0.54807 v -0.26459 -0.26458 h -1.73869 -1.73869 l -0.37798,0.37798 -0.37797,0.37797 v 0.52602 0.52602 l 0.33073,0.15434 0.33073,0.15434 -0.33073,0.15434 -0.33073,0.15434 v 0.37482 0.37483 h -0.39688 -0.39687 v 0.52917 0.52916 z m 4.63021,0 h -1.45521 v -0.26458 -0.26458 h -0.66146 -0.66146 v -0.26459 -0.26458 h 0.26459 0.26458 v -0.39688 -0.39687 h 0.66146 0.66146 v 0.39687 0.39688 h 1.5875 1.5875 v 0.26458 0.26459 h -0.39688 -0.39687 v 0.26458 0.26458 z m -41.32225,-0.53923 -0.21733,-0.0101 -0.33073,-0.37565 -0.33073,-0.37564 v -0.80492 -0.80491 h 0.26458 0.26459 v -0.66146 -0.66146 h 0.39687 0.39688 v -0.26458 -0.26459 h 0.52916 0.52917 v -0.39687 -0.39688 h 2.24896 2.24896 v 0.39688 0.39687 h 0.26458 0.26458 v 0.52917 0.52917 h -0.26458 -0.26458 v 0.39687 0.39688 h -0.66146 -0.66146 v -0.39688 -0.39687 h -1.85208 -1.85209 v 0.39687 0.39688 h -0.26458 -0.26458 v 0.52916 0.52917 h 0.26458 0.26458 v 0.28348 0.28348 l -0.37797,0.37798 -0.37798,0.37798 z m -17.15067,-0.5191 h -0.39687 v -0.39688 -0.39687 h -0.26458 -0.26459 v -0.92604 -0.92604 h 0.26459 0.26458 v -0.52917 -0.52917 h 0.39687 0.39688 v -0.39687 -0.39688 h 0.52917 0.52916 v -0.26458 -0.26458 h 2.13557 2.13556 l 0.37798,0.37797 0.37798,0.37798 v 0.43467 0.43467 l -0.37798,0.37798 -0.37798,0.37798 h -0.54806 -0.54807 v -0.26459 -0.26458 h -1.73869 -1.73869 l -0.37797,0.37798 -0.37798,0.37797 v 0.52602 0.52602 l 0.33073,0.15434 0.33073,0.15434 -0.33073,0.15434 -0.33073,0.15434 v 0.37482 0.37483 z m 34.52813,0 h -0.26458 v -0.39688 -0.39687 h -0.39688 -0.39687 v -0.92604 -0.92604 h 0.39687 0.39688 v -0.52917 -0.52917 h 0.26458 0.26458 v -0.39687 -0.39688 h 0.66146 0.66146 v -0.26458 -0.26458 h 2.00327 2.00328 l 0.37797,0.37797 0.37798,0.37798 v 0.43467 0.43467 l -0.37798,0.37798 -0.37797,0.37798 h -0.54807 -0.54806 v -0.26459 -0.26458 h -1.7387 -1.73869 l -0.37797,0.37798 -0.37798,0.37797 v 0.52602 0.52602 l 0.33073,0.15434 0.33073,0.15434 -0.33073,0.15434 -0.33073,0.15434 v 0.37482 0.37483 z m 39.29062,0 h -0.39687 v -0.66146 -0.66146 h 0.39687 0.39688 v 0.66146 0.66146 z m 1.19063,0 h -0.26459 v -0.66146 -0.66146 h 0.26459 0.26458 v 0.66146 0.66146 z m -55.29792,-0.79375 h -0.26458 v -0.52917 -0.52916 h 0.26458 0.26459 v 0.52916 0.52917 z m 1.19063,0 h -0.39688 v -0.52917 -0.52916 h 0.39688 0.39687 v 0.52916 0.52917 z m -18.38854,-0.52917 h -0.26459 v -0.66146 -0.66145 h 0.26459 0.26458 v 0.66145 0.66146 z m 1.19062,0 h -0.39687 v -0.66146 -0.66145 h 0.39687 0.39688 v 0.66145 0.66146 z m 33.20521,0 h -0.26458 v -0.66146 -0.66145 h 0.26458 0.26458 v 0.66145 0.66146 z m 1.19062,0 h -0.39687 v -0.66146 -0.66145 h 0.39687 0.39688 v 0.66145 0.66146 z m 19.18229,0 h -0.26458 v -0.66146 -0.66145 h 0.26458 0.26459 v 0.66145 0.66146 z m 1.19063,0 h -0.39688 v -0.66146 -0.66145 h 0.39688 0.39687 v 0.66145 0.66146 z m 16.93333,-0.52916 h -0.66146 v -0.28349 -0.28348 l 0.37798,-0.37797 0.37798,-0.37798 h 0.28348 0.28348 v 0.66146 0.66146 z"
         id="path947"
         inkscape:connector-curvature="0" />
    </g>
  </g>
</svg>
