<?xml version="1.0" encoding="UTF-8" standalone="no"?>
<svg
   xmlns:dc="http://purl.org/dc/elements/1.1/"
   xmlns:cc="http://creativecommons.org/ns#"
   xmlns:rdf="http://www.w3.org/1999/02/22-rdf-syntax-ns#"
   xmlns:svg="http://www.w3.org/2000/svg"
   xmlns="http://www.w3.org/2000/svg"
   viewBox="0 0 72 90.666664"
   height="90.666664"
   width="72"
   id="svg2"
   version="1.1">
  <metadata
     id="metadata8">
    <rdf:RDF>
      <cc:Work
         rdf:about="">
        <dc:format>image/svg+xml</dc:format>
        <dc:type
           rdf:resource="http://purl.org/dc/dcmitype/StillImage" />
        <dc:title></dc:title>
      </cc:Work>
    </rdf:RDF>
  </metadata>
  <defs
     id="defs6" />
  <g
     transform="translate(-12,-2.6666667)"
     id="g12">
    <path
       id="path22"
       d="m 17.333333,38.666667 v -24 H 26.666667 36 V 18 21.333333 h 6 6 V 24 26.666667 h 6 6 V 30 33.333333 h 2.666667 2.666666 V 36 38.666667 H 62.666667 60 V 36 33.333333 H 54 48 V 30 26.666667 H 42 36 V 24 21.333333 H 30 24 V 42 62.666667 h -3.333333 -3.333334 z"
       style="display:inline;fill:#c4e5dd;stroke-width:1.33333337" />
    <path
       id="path20"
       d="m 24,54 v -3.333333 h 6 6 V 48 45.333333 h 6 6 V 42 38.666667 h 2.666667 2.666666 V 36 33.333333 H 56.666667 60 v 6 6 H 54 48 V 48 50.666667 H 42 36 V 54 57.333333 h -6 -6 z"
       style="display:inline;fill:#cdcdcd;stroke-width:1.33333337" />
    <path
       id="path18"
       d="m 17.333333,90 v -3.333333 h 6 6 V 84 81.333333 h 6 6 V 78 74.666667 h 6 6 V 72 69.333333 h 6 6 V 66 62.666667 H 68.666667 72 V 60 57.333333 h 2.666667 2.666666 v -6 -6 H 80.666667 84 v 6 6 H 80.666667 77.333333 V 60 62.666667 H 74.666667 72 V 66 69.333333 H 68.666667 65.333333 V 72 74.666667 h -6 -6 V 78 81.333333 h -6 -6 V 84 86.666667 h -6 -6 V 90 93.333333 h -6 -6 z m 0,-18 V 69.333333 H 20.666667 24 V 66 62.666667 h 6 6 V 60 57.333333 h 6 6 V 54 50.666667 h 6 6 V 48 45.333333 h 2.666667 2.666666 V 48 50.666667 H 62.666667 60 V 54 57.333333 H 54 48 V 60 62.666667 H 42 36 V 66 69.333333 H 30 24 V 72 74.666667 h -3.333333 -3.333334 z m 12,-36 V 26.666667 H 32.666667 36 V 30 33.333333 h 6 6 V 36 38.666667 H 42 36 V 42 45.333333 h -3.333333 -3.333334 z"
       style="display:inline;fill:#a4a4a4;stroke-width:1.33333337" />
    <path
       id="path16"
       d="M 17.333333,84 V 81.333333 H 20.666667 24 V 78 74.666667 h 6 6 V 72 69.333333 h 6 6 V 66 62.666667 h 6 6 V 60 57.333333 h 2.666667 2.666666 V 54 50.666667 H 68.666667 72 V 48 45.333333 h 2.666667 2.666666 v 6 6 H 74.666667 72 V 60 62.666667 H 68.666667 65.333333 V 66 69.333333 h -6 -6 V 72 74.666667 h -6 -6 V 78 81.333333 h -6 -6 V 84 86.666667 h -6 -6 z M 12,38.666667 V 2.6666667 h 6 6 V 6 9.3333333 h 6 6 V 12 14.666667 h 6 6 V 18 21.333333 h 6 6 V 24 26.666667 h 2.666667 2.666666 V 30 33.333333 H 68.666667 72 V 36 38.666667 H 68.666667 65.333333 V 42 45.333333 H 62.666667 60 V 48 50.666667 H 54 48 V 54 57.333333 H 42 36 V 60 62.666667 H 30 24 V 66 69.333333 H 20.666667 17.333333 V 72 74.666667 H 14.666667 12 Z M 24,60 v -2.666667 h 6 6 V 54 50.666667 h 6 6 V 48 45.333333 h 6 6 V 42 38.666667 h 2.666667 2.666666 V 36 33.333333 H 62.666667 60 V 30 26.666667 H 54 48 V 24 21.333333 H 42 36 V 18 14.666667 H 30 24 V 12 9.3333333 H 20.666667 17.333333 V 36 62.666667 H 20.666667 24 Z M 24,36 V 21.333333 h 6 6 V 24 26.666667 h 6 6 V 30 33.333333 h 2.666667 2.666666 V 36 38.666667 H 50.666667 48 V 42 45.333333 H 42 36 V 48 50.666667 h -6 -6 z m 12,6 v -3.333333 h 6 6 V 36 33.333333 H 42 36 V 30 26.666667 H 32.666667 29.333333 V 36 45.333333 H 32.666667 36 Z"
       style="display:inline;fill:#727272;stroke-width:1.33333337" />
    <path
       id="path14"
       d="M 17.333333,78 V 74.666667 H 20.666667 24 V 72 69.333333 h 6 6 V 66 62.666667 h 6 6 V 60 57.333333 h 6 6 V 54 50.666667 h 2.666667 2.666666 v -6 -6 H 68.666667 72 v 6 6 H 68.666667 65.333333 V 54 57.333333 H 62.666667 60 V 60 62.666667 H 54 48 V 66 69.333333 H 42 36 V 72 74.666667 H 30 24 V 78 81.333333 h -3.333333 -3.333334 z"
       style="display:inline;fill:#000000;stroke-width:1.33333337" />
  </g>
</svg>
