<?xml version="1.0" encoding="UTF-8" standalone="no"?>
<svg
   xmlns:dc="http://purl.org/dc/elements/1.1/"
   xmlns:cc="http://creativecommons.org/ns#"
   xmlns:rdf="http://www.w3.org/1999/02/22-rdf-syntax-ns#"
   xmlns:svg="http://www.w3.org/2000/svg"
   xmlns="http://www.w3.org/2000/svg"
   viewBox="0 0 72 90.666664"
   height="90.666664"
   width="72"
   id="svg2"
   version="1.1">
  <metadata
     id="metadata8">
    <rdf:RDF>
      <cc:Work
         rdf:about="">
        <dc:format>image/svg+xml</dc:format>
        <dc:type
           rdf:resource="http://purl.org/dc/dcmitype/StillImage" />
        <dc:title></dc:title>
      </cc:Work>
    </rdf:RDF>
  </metadata>
  <defs
     id="defs6" />
  <g
     id="g332">
    <path
       id="path340"
       d="M 12.655368,40.632764 V 25.966097 h 6 6 v 2.666667 2.666667 h 6 6 v 3.333333 3.333333 h 6 6 v 2.666667 2.666667 h -6 -6 v 3.333333 3.333333 h -6 -6 v 2.666667 2.666667 h -6 -6 z"
       style="fill:#f6f600;stroke-width:1.33333337" />
    <path
       id="path338"
       d="m 7.322035,64.632764 v -2.666667 h 2.6666667 2.6666663 v -3.333333 -3.333333 h 6 6 v -2.666667 -2.666667 h 6 6 v -3.333333 -3.333333 h 6 6 v 3.333333 3.333333 h -6 -6 v 2.666667 2.666667 h -6 -6 v 3.333333 3.333333 h -6 -6 v 2.666667 2.666667 H 9.9887017 7.322035 Z"
       style="fill:#f69300;stroke-width:1.33333337" />
    <path
       id="path336"
       d="m 7.322035,76.632764 v -2.666667 h 2.6666667 2.6666663 v -3.333333 -3.333333 h 6 6 v -2.666667 -2.666667 h 6 6 v -3.333333 -3.333333 h 6 6 v -2.666667 -2.666667 h 3.333334 3.333333 v -3.333333 -3.333333 h 6 6 v 3.333333 3.333333 h -3.333333 -3.333334 v 2.666667 2.666667 h -2.666666 -2.666667 v 3.333333 3.333333 h -6 -6 v 2.666667 2.666667 h -6 -6 v 3.333333 3.333333 h -6 -6 v 2.666667 2.666667 h -6 -6 z"
       style="fill:#727272;stroke-width:1.33333337" />
    <path
       id="path334"
       d="M 0.65536833,40.632764 V 7.2994306 H 6.6553683 12.655368 v 3.3333334 3.333333 h 6 6 v 2.666667 2.666667 h 6 6 v 3.333333 3.333333 h 6 6 v 2.666667 2.666667 h 3.333334 3.333333 v 3.333333 3.333333 h 2.666667 2.666666 v 2.666667 2.666667 h -2.666666 -2.666667 v 3.333333 3.333333 h -3.333333 -3.333334 v 2.666667 2.666667 h -6 -6 v 3.333333 3.333333 h -6 -6 v 2.666667 2.666667 h -6 -6 v 3.333333 3.333333 H 6.6553683 0.65536833 Z m 11.99999967,24 v -2.666667 h 6 6 v -3.333333 -3.333333 h 6 6 v -2.666667 -2.666667 h 6 6 v -3.333333 -3.333333 h 3.333334 3.333333 v -2.666667 -2.666667 h -3.333333 -3.333334 v -3.333333 -3.333333 h -6 -6 v -2.666667 -2.666667 h -6 -6 v -3.333333 -3.333333 h -6 -6 V 16.632764 13.966097 H 9.9887017 7.322035 v 26.666667 26.666667 h 2.6666667 2.6666663 z"
       style="fill:#000000;stroke-width:1.33333337" />
  </g>
</svg>
