<?xml version="1.0" encoding="UTF-8" standalone="no"?>
<svg
   xmlns:dc="http://purl.org/dc/elements/1.1/"
   xmlns:cc="http://creativecommons.org/ns#"
   xmlns:rdf="http://www.w3.org/1999/02/22-rdf-syntax-ns#"
   xmlns:svg="http://www.w3.org/2000/svg"
   xmlns="http://www.w3.org/2000/svg"
   xmlns:sodipodi="http://sodipodi.sourceforge.net/DTD/sodipodi-0.dtd"
   xmlns:inkscape="http://www.inkscape.org/namespaces/inkscape"
   id="svg8"
   version="1.1"
   viewBox="0 0 6.0960002 3.7253332"
   height="3.7253332mm"
   width="6.0960002mm"
   sodipodi:docname="smwrun72.svg"
   enable-background="new"
   inkscape:version="0.92.4 (unknown)">
  <sodipodi:namedview
     pagecolor="#ffffff"
     bordercolor="#666666"
     borderopacity="1"
     objecttolerance="10"
     gridtolerance="10"
     guidetolerance="10"
     inkscape:pageopacity="0"
     inkscape:pageshadow="2"
     inkscape:window-width="1366"
     inkscape:window-height="703"
     id="namedview25"
     showgrid="false"
     inkscape:zoom="6.7672327"
     inkscape:cx="11.074229"
     inkscape:cy="5.9951018"
     inkscape:window-x="0"
     inkscape:window-y="0"
     inkscape:window-maximized="1"
     inkscape:current-layer="g75" />
  <defs
     id="defs2" />
  <metadata
     id="metadata5">
    <rdf:RDF>
      <cc:Work
         rdf:about="">
        <dc:format>image/svg+xml</dc:format>
        <dc:type
           rdf:resource="http://purl.org/dc/dcmitype/StillImage" />
        <dc:title />
      </cc:Work>
    </rdf:RDF>
  </metadata>
  <g
     transform="translate(40.089668,-146.97067)"
     id="layer1">
    <g
       id="g75"
       style="display:inline">
      <path
         id="path91"
         d="m -39.186557,150.58311 -0.05644,0.0564 v -0.11289 -0.11289 l 0.05644,0.0564 0.05645,0.0564 z m 1.552222,0.0282 h -0.08467 v -0.0847 -0.0847 h 0.08467 0.08467 v 0.0847 0.0847 z m 2.032,0 h -0.08467 v -0.0847 -0.0847 h 0.08467 0.08467 v 0.0847 0.0847 z m -2.751666,-0.42334 h -0.04233 v -0.0423 -0.0423 h 0.04233 0.04233 v 0.0423 0.0423 z m 4.064,-0.254 h -0.04233 v -0.0423 -0.0423 h 0.04233 0.04233 v 0.0423 0.0423 z m -2.032,-0.0847 h -0.04233 v -0.0423 -0.0423 h 0.04233 0.04233 v 0.0423 0.0423 z m -2.547056,-2.11667 h -0.134055 l 0.03351,-0.10054 0.03351,-0.10054 0.100542,-0.0335 0.100542,-0.0335 v 0.13405 0.13406 z m 4.064,0 h -0.134055 l 0.03351,-0.10054 0.03351,-0.10054 0.100541,-0.0335 0.100542,-0.0335 v 0.13405 0.13406 z m -2.208389,-0.16933 h -0.141111 l 0.07663,-0.0635 0.07663,-0.0635 0.06319,-0.0847 0.06319,-0.0847 0.0013,0.14817 0.0013,0.14817 z"
         style="display:inline;opacity:0.40500004;fill:#f8cd66;stroke-width:0.08466667"
         inkscape:connector-curvature="0" />
      <path
         id="path89"
         d="m -36.799274,150.21247 -0.157727,0.15146 v -0.1303 -0.13029 h -0.127 -0.127 v -0.16934 -0.16933 h 0.127 0.127 v -0.0847 -0.0847 h 0.09071 0.09071 l 0.10659,0.10659 0.106589,0.10659 -0.03958,0.12624 -0.03958,0.12624 z m -0.03073,-0.27847 h 0.127 v -0.0847 -0.0847 h -0.127 -0.127 v 0.0847 0.0847 z m -2.234609,0.16934 h -0.07561 l -0.04656,-0.12134 -0.04656,-0.12133 0.249168,-0.0547 0.249169,-0.0547 v -0.12527 -0.12527 l 0.08467,0.0523 0.08467,0.0523 v 0.249 0.24901 h -0.08467 -0.08467 v -0.0847 -0.0847 h -0.127 -0.127 v 0.0847 0.0847 z m 4.287776,-0.005 -0.105834,-0.005 -0.148167,-0.15023 -0.148166,-0.15024 v -0.14107 -0.14106 h 0.127 0.127 v -0.0847 -0.0847 h 0.09071 0.09071 l 0.120953,0.12095 0.120952,0.12095 v 0.13305 0.13305 h -0.08467 -0.08467 v 0.127 0.127 l -0.105833,-0.005 z m -0.02117,-0.33363 h 0.127 v -0.127 -0.127 h -0.127 -0.127 v 0.127 0.127 z m -3.683,-0.254 h -0.08467 v -0.0847 -0.0847 h 0.08467 0.08467 v 0.0847 0.0847 z"
         style="display:inline;fill:#7fd7ce;stroke-width:0.08466667"
         inkscape:connector-curvature="0" />
      <path
         id="path87"
         d="m -38.663023,149.46543 -0.02964,0.0282 -0.109171,-0.11846 -0.109172,-0.11846 h 0.08301 0.08301 l 0.05581,0.0903 0.05581,0.0903 z m 1.917688,0.0452 h -0.127 v -0.0847 -0.0847 h 0.127 0.127 v 0.0847 0.0847 z m -2.90483,-0.17063 -0.14317,-0.001 0.127,-0.0821 0.127,-0.0821 0.0685,-0.001 0.0685,-0.001 -0.05233,0.0847 -0.05233,0.0847 z m 2.472742,-0.0834 h -0.03524 l -0.144987,-0.16933 -0.144988,-0.16934 h -0.150517 -0.150517 v -0.0797 -0.0797 l 0.09751,-0.0603 0.09751,-0.0603 0.102323,0.13994 0.102323,0.13993 h 0.08662 0.08663 l 0.04428,0.16934 0.04428,0.16933 z m 2.457033,-0.007 -0.162278,-0.007 0.111125,-0.0445 0.111125,-0.0445 0.05115,0.0512 0.05115,0.0512 z m -3.026833,-0.10621 -0.05645,0.0565 v -0.11289 -0.11289 l 0.05645,0.0564 0.05644,0.0565 z m 2.032,0 -0.05644,0.0565 v -0.11289 -0.11289 l 0.05644,0.0564 0.05644,0.0565 z m -3.291966,-0.15534 -0.399188,0.0142 -0.09062,-0.16933 -0.09063,-0.16934 h -0.124021 -0.124021 v -0.0797 -0.0797 l 0.09751,-0.0603 0.09751,-0.0603 0.102323,0.13994 0.102323,0.13993 h 0.0965 0.0965 v 0.12189 0.12189 l 0.3175,0.0332 0.3175,0.0332 z m 4.053095,0 -0.410093,0.0142 -0.04428,-0.16933 -0.04428,-0.16934 h -0.159458 -0.159459 v -0.0797 -0.0797 l 0.09751,-0.0603 0.09751,-0.0603 0.102323,0.13994 0.102323,0.13993 h 0.0965 0.0965 v 0.12189 0.12189 l 0.3175,0.0332 0.3175,0.0332 z m -1.579574,-0.0704 h -0.169333 v -0.0847 -0.0847 h -0.141111 -0.141111 l 0.04292,-0.0429 0.04292,-0.0429 0.267523,0.0535 0.267523,0.0535 v 0.0741 0.0741 z m -1.364541,-0.16933 h -0.07479 v -0.11794 -0.11794 l 0.117417,-0.0451 0.117417,-0.0451 -0.04263,0.163 -0.04263,0.163 z m -0.743067,-0.0847 h -0.244942 l -0.05265,-0.1372 -0.05265,-0.1372 0.191758,0.0514 0.191759,0.0514 0.105833,0.001 0.105833,0.001 v 0.0847 0.0847 z m 1.335733,0 h -0.07479 v -0.13304 -0.13305 l 0.127,-0.127 0.127,-0.127 -0.0012,0.0695 -0.0012,0.0695 -0.05105,0.1905 -0.05105,0.1905 z m 2.803875,0 h -0.169333 v -0.0847 -0.0847 h -0.141111 -0.141111 l 0.04292,-0.0429 0.04292,-0.0429 0.267523,0.0535 0.267524,0.0535 v 0.0741 0.0741 z m -5.427725,-0.16933 h -0.07561 v -0.0484 -0.0484 l 0.127,-0.127 0.127,-0.127 v 0.0414 0.0415 l -0.05139,0.13393 -0.05139,0.13392 z m 4.064,0 h -0.07561 v -0.0484 -0.0484 l 0.127,-0.127 0.127,-0.127 v 0.0414 0.0415 l -0.05139,0.13393 -0.05139,0.13392 z m -3.441108,-0.10579 -0.105834,0.0352 v -0.12499 -0.125 l 0.133151,-0.0511 0.133151,-0.0511 -0.02732,0.14085 -0.02732,0.14086 z m 4.064,0 -0.105834,0.0352 v -0.12499 -0.125 l 0.133151,-0.0511 0.133151,-0.0511 -0.02732,0.14085 -0.02732,0.14086 z m -1.545167,-0.0635 h -0.06655 l -0.04177,-0.10886 -0.04177,-0.10886 h 0.150095 0.150095 l -0.04177,0.10886 -0.04177,0.10886 z m 2.413,0 h -0.127 v -0.0847 -0.0847 h 0.127 0.127 v 0.0847 0.0847 z m -4.445,-0.16934 h -0.112889 l 0.05645,-0.0564 0.05644,-0.0564 0.05644,0.0564 0.05644,0.0564 z m 4.064,0 h -0.112889 l 0.05645,-0.0564 0.05644,-0.0564 0.05644,0.0564 0.05644,0.0564 z m -4.608958,-0.37064 -0.204969,0.095 0.09598,-0.15369 0.09598,-0.1537 0.204303,-0.0513 0.204303,-0.0513 0.04645,0.0464 0.04645,0.0465 h -0.141111 -0.141112 l -6.6e-4,0.0635 -6.6e-4,0.0635 -0.20497,0.095 z m 4.064001,0 -0.20497,0.095 0.09598,-0.15369 0.09598,-0.1537 0.204303,-0.0513 0.204303,-0.0513 0.04645,0.0464 0.04645,0.0465 h -0.141111 -0.141112 l -6.6e-4,0.0635 -6.6e-4,0.0635 -0.20497,0.095 z m -2.140192,-0.0615 -0.103466,0.13585 -0.0027,-0.0591 -0.0027,-0.0591 0.200209,-0.21602 0.200209,-0.21603 h 0.09612 0.09613 v 0.079 0.079 l -0.190175,0.0604 -0.190175,0.0604 z m -1.209518,-0.16048 h -0.112888 l 0.05644,-0.0565 0.05644,-0.0564 0.05644,0.0564 0.05644,0.0565 z m 4.064001,0 h -0.112889 l 0.05644,-0.0565 0.05644,-0.0564 0.05644,0.0564 0.05644,0.0565 z m -2.201334,-0.0847 h -0.08467 v -0.0847 -0.0847 h 0.08467 0.08467 v 0.0847 0.0847 z"
         style="display:inline;fill:#fe6f6e;stroke-width:0.08466667"
         inkscape:connector-curvature="0" />
      <path
         id="path85"
         d="m -37.041668,150.35734 h -0.08467 v -0.0748 -0.0748 l -0.156508,-0.0409 -0.156509,-0.0409 -0.04723,-0.18062 -0.04723,-0.18061 h 0.161407 0.161407 v 0.16933 0.16934 h 0.127 0.127 v 0.127 0.127 z m -1.820333,-0.21825 -0.338667,0.02 -0.139478,-0.0324 -0.139477,-0.0324 -0.0431,-0.1648 -0.0431,-0.1648 h 0.07674 0.07674 l 0.185209,0.18521 0.185208,0.18521 0.03351,-0.10055 0.03351,-0.10054 h 0.119944 0.119945 v 0.0847 0.0847 h 0.08467 0.08467 v -0.16934 -0.16933 h 0.08467 0.08467 v 0.16933 0.16934 l -0.0635,0.008 -0.0635,0.008 z m 3.8735,0.0391 -0.0635,-0.01 -0.140958,-0.0373 -0.140958,-0.0373 -0.04689,-0.12218 -0.04688,-0.12218 0.04874,-0.127 0.04873,-0.127 h 0.07561 0.07561 v 0.12965 0.12966 l 0.127,0.0487 0.127,0.0487 v 0.11794 0.11794 z m -1.5875,-0.24418 h -0.04233 v -0.0423 -0.0423 h 0.04233 0.04233 v 0.0423 0.0423 z m 2.159,-0.0847 h -0.112889 l 0.05644,-0.0565 0.05645,-0.0564 0.05644,0.0564 0.05644,0.0565 z m -2.032,-0.0847 h -0.08467 v -0.127 -0.127 h 0.08467 0.08467 v 0.127 0.127 z m -2.159,-0.16933 h -0.04233 v -0.0423 -0.0423 h 0.04233 0.04233 v 0.0423 0.0423 z m 1.770944,-0.007 -0.162278,-0.007 0.111125,-0.0445 0.111125,-0.0445 0.05115,0.0512 0.05115,0.0512 z m 2.429931,-0.078 h -0.07479 l -0.04263,-0.163 -0.04263,-0.163 0.117417,0.0451 0.117417,0.0451 v 0.11794 0.11794 z m -4.200875,-0.16933 h -0.04233 v -0.0423 -0.0423 h 0.04233 0.04233 v 0.0423 0.0423 z m 3.802944,-0.007 -0.162277,-0.007 0.111125,-0.0445 0.111125,-0.0445 0.05115,0.0511 0.05115,0.0512 z"
         style="display:inline;fill:#3f7f9e;stroke-width:0.08466667"
         inkscape:connector-curvature="0" />
      <path
         id="path83"
         d="m -39.391168,150.60812 -0.148167,-0.003 -0.105833,-0.12021 -0.105833,-0.12021 v -0.13057 -0.13057 h 0.08732 0.08732 l 0.04873,0.127 0.04873,0.127 h 0.117942 0.117942 v 0.127 0.127 z m 1.643573,-0.0603 -0.0427,0.10583 -0.0067,-0.27251 -0.0067,-0.27251 0.120454,0.0462 0.120453,0.0462 0.04622,0.12045 0.04622,0.12045 h -0.117287 -0.117287 z m 2.032,0 -0.0427,0.10583 -0.0067,-0.28137 -0.0067,-0.28138 0.147195,0.0283 0.147194,0.0283 0.02835,0.1472 0.02835,0.14719 h -0.126153 -0.126152 z m -2.786573,-0.16726 -0.148167,0.0561 v -0.12434 -0.12435 h 0.120076 0.120075 l 0.155091,-0.0588 0.155092,-0.0588 -0.127,0.127 -0.127,0.127 z m 2.062225,-0.0232 h -0.07561 l -0.05139,-0.13393 -0.05139,-0.13392 v -0.0748 -0.0748 l 0.254,-0.25984 0.254,-0.25984 v -0.0747 -0.0747 l -0.105077,-0.035 -0.105077,-0.035 -0.10659,0.10659 -0.106589,0.10659 v 0.0907 0.0907 h -0.08201 -0.08201 l 0.04874,-0.127 0.04873,-0.127 -0.157225,-0.009 -0.157225,-0.009 0.275167,-0.0883 0.275166,-0.0883 v -0.0716 -0.0716 l 0.169334,0.14498 0.169333,0.14499 v 0.0894 0.0894 l -0.169333,0.14498 -0.169334,0.14499 v 0.29716 0.29717 z m -0.136058,-1.016 h 0.04233 v -0.0423 -0.0423 h -0.04233 -0.04233 v 0.0423 0.0423 z m 2.109796,0.90796 -0.13387,0.13387 0.02804,-0.23922 0.02804,-0.23922 0.105833,-0.0348 0.105834,-0.0348 v 0.1401 0.1401 z m -4.755937,-0.39996 h -0.195507 l -0.04874,-0.127 -0.04873,-0.127 h -0.117942 -0.117941 v -0.11713 -0.11712 l 0.180516,-0.0472 0.180516,-0.0472 -0.04278,-0.1636 -0.04278,-0.1636 0.1586,0.0415 0.1586,0.0415 v 0.0748 0.0748 h 0.127 0.127 v -0.0748 -0.0748 l 0.167865,-0.0439 0.167864,-0.0439 -0.08084,0.15107 -0.08085,0.15106 -0.13608,0.0522 -0.13608,0.0522 -0.195702,-0.0491 -0.195702,-0.0491 -0.05703,0.0923 -0.05703,0.0923 0.0535,0.16857 0.0535,0.16858 h 0.204348 0.204349 l 0.05313,-0.21167 0.05312,-0.21166 h 0.07549 0.07549 v 0.0837 0.0837 l -0.145817,0.17031 -0.145816,0.1703 z m 1.693641,-0.0917 -0.148167,-0.007 -0.148167,-0.16228 -0.148166,-0.16228 v -0.0423 -0.0423 l 0.169333,-0.16934 0.169333,-0.16933 h 0.0837 0.0837 l 0.170301,0.14582 0.170301,0.14581 v 0.10113 0.10113 l 0.105834,0.0427 0.105833,0.0427 -0.232833,0.007 -0.232834,0.007 v 0.0847 0.0847 l -0.148166,-0.007 z m -0.07308,-0.16227 h 0.122732 l 0.133925,-0.0514 0.133925,-0.0514 v -0.11633 -0.11632 l -0.217866,-0.0547 -0.217865,-0.0547 -0.08971,0.0897 -0.08971,0.0897 0.05092,0.1327 0.05092,0.13269 z m 2.069261,0.16227 -0.112346,-0.007 -0.148167,-0.16228 -0.148166,-0.16228 v -0.0423 -0.0423 l 0.164515,-0.16452 0.164516,-0.16451 0.110651,-0.0149 0.110651,-0.0148 0.148167,0.01 0.148166,0.01 v 0.127 0.127 h 0.09118 0.09118 l -0.254,0.254 -0.254,0.254 -0.112346,-0.007 z m -0.03726,-0.16227 h 0.122732 l 0.133925,-0.0514 0.133925,-0.0514 v -0.10876 -0.10876 l -0.223913,-0.0562 -0.223914,-0.0562 -0.08366,0.0837 -0.08366,0.0837 0.05092,0.1327 0.05092,0.13269 z m -2.697094,0 h -0.124343 l 0.04873,-0.127 0.04874,-0.127 h -0.129003 -0.129003 l -0.03385,0.10155 -0.03385,0.10155 -0.05033,-0.13116 -0.05033,-0.13116 0.225293,0.0164 0.225292,0.0163 0.0635,0.0132 0.0635,0.0133 v 0.127 0.127 z m 3.680343,-0.254 h -0.112889 l 0.05644,-0.0565 0.05644,-0.0564 0.05644,0.0564 0.05644,0.0565 z m -0.127,-0.16934 h -0.127 v -0.0748 -0.0748 l 0.1905,-0.0511 0.1905,-0.0511 0.0635,-0.001 0.0635,-0.001 v 0.127 0.127 h -0.07761 -0.07761 l -0.0427,-0.10583 -0.0427,-0.10583 -0.0067,0.10583 -0.0067,0.10583 z m -2.074334,-0.254 h -0.08467 v -0.0847 -0.0847 h 0.08467 0.08467 v 0.0847 0.0847 z m 0.478869,-0.0619 -0.04217,0.10423 0.0092,-0.50925 -0.303418,-0.34489 0.227929,0.27677 0.150574,0.36892 -0.04217,0.10422 z m -1.443716,-0.13037 -0.05115,0.0512 0.0067,-0.16228 0.0067,-0.16227 0.04447,0.11112 0.04447,0.11113 z m -1.180042,-0.09 -0.05644,0.0564 v -0.11289 -0.11289 l 0.05644,0.0564 0.05645,0.0565 z m 0.592296,-0.0353 -0.04271,0.10584 v -0.21167 l -0.0036,-0.34758 0.04631,0.24175 0.0427,0.10583 z m 3.584593,0.0635 h -0.08467 v -0.0847 -0.0847 h 0.08467 0.08467 v 0.0847 0.0847 z m 0.479407,-0.0635 -0.04271,0.10584 v -0.21167 -0.21167 l 0.04271,0.10584 0.0427,0.10583 z m -5.502963,-0.13405 -0.05644,0.0564 V 148.41 148.29711 l 0.05644,0.0564 0.05644,0.0564 z m 4.064001,0 -0.05644,0.0564 V 148.41 148.29711 l 0.05644,0.0564 0.05644,0.0564 z m -2.030082,-0.24695 -0.03872,0.14817 -0.0098,-0.21988 -0.0098,-0.21988 0.176751,-0.20345 0.17675,-0.20346 0.0709,-0.12629 0.0709,-0.1263 0.05574,0.0557 0.05574,0.0557 -0.176389,0.17639 -0.176389,0.17639 v 0.16933 0.16934 h -0.07846 -0.07846 z m -1.878696,-0.0635 h -0.127 v -0.11119 -0.1112 l 0.296333,-0.11627 0.296333,-0.11628 v -0.0689 -0.0689 h 0.08467 0.08467 v 0.0764 0.0764 l -0.254,0.0885 -0.254,0.0885 v 0.13141 0.1314 z m 4.064,0 h -0.127 v -0.11119 -0.1112 l 0.296333,-0.11627 0.296333,-0.11628 v -0.0689 -0.0689 h 0.08467 0.08467 v 0.0764 0.0764 l -0.254,0.0885 -0.254,0.0885 v 0.13141 0.1314 z m -3.033889,-0.45155 -0.05644,0.0564 v -0.11289 -0.11289 l 0.05644,0.0564 0.05644,0.0564 z m 4.064,0 -0.05644,0.0564 v -0.11289 -0.11289 l 0.05644,0.0564 0.05644,0.0564 z m 0.31885,0.0282 h -0.121294 v -0.0847 -0.0847 h 0.127 0.127 v -0.16934 -0.16933 h -0.07846 -0.07846 l -0.0362,0.10583 -0.0362,0.10584 0.0316,-0.1905 0.0316,-0.1905 h -0.161888 -0.161888 l -0.04873,0.127 -0.04874,0.127 h -0.09062 -0.09062 l 0.167507,-0.1798 0.167508,-0.1798 0.211148,0.053 0.211147,0.053 0.05368,0.16914 0.05368,0.16913 -0.05374,0.16934 -0.05374,0.16933 z"
         style="display:inline;fill:#8e571e;stroke-width:0.08466667"
         inkscape:connector-curvature="0"
         sodipodi:nodetypes="ccccccccccccccccccccccccccccccccccccccccccccccccccccccccccccccccccccccccccccccccccccccccccccccccccccccccccccccccccccccccccccccccccccccccccccccccccccccccccccccccccccccccccccccccccccccccccccccccccccccccccccccccccccccccccccccccccccccccccccccccccccccccccccccccccccccccccccccccccccccccccccccccccccccccccccccccccccccccccccccccccccccccccccccccccccccccccccccccccccccccccccccccccccccccccccccccccccccccccccccccccccccccccccccc" />
      <path
         id="path81"
         d="m -37.163419,150.61134 h -0.188302 l -0.11328,-0.21167 -0.113281,-0.21167 h -0.07036 -0.07036 v -0.21166 -0.21167 h 0.08676 0.08676 l 0.08048,0.21167 0.08047,0.21166 h 0.129096 0.129095 v 0.0847 0.0847 h 0.127 0.127 v -0.0756 -0.0756 l 0.127,-0.0487 0.127,-0.0487 v 0.12434 0.12435 h -0.129657 -0.129657 l -0.04874,0.127 -0.04873,0.127 z m -2.023138,-0.26106 -0.268111,-0.007 -0.15816,-0.17228 -0.15816,-0.17227 0.10424,-0.0644 0.104241,-0.0644 -0.115414,-0.0459 -0.115414,-0.0459 0.11376,-0.007 0.11376,-0.007 0.04428,0.16933 0.04428,0.16934 0.138292,0.0142 0.138292,0.0142 0.246213,0.007 0.246213,0.007 0.0354,0.127 0.0354,0.127 -0.09756,-0.127 -0.09756,-0.127 -0.04294,0.10583 -0.04294,0.10584 z m 4.028722,0 -0.232833,-0.007 -0.148167,-0.16228 -0.148166,-0.16228 v -0.127 -0.127 h 0.121294 0.121295 l 0.05084,0.16019 0.05084,0.16019 0.166529,0.0436 0.166529,0.0435 0.164799,-0.0431 0.164798,-0.0431 0.03705,-0.13948 0.03705,-0.13948 0.0031,0.29634 0.0031,0.29633 -0.04271,-0.10583 -0.0427,-0.10584 h -0.119945 -0.119944 v 0.0847 0.0847 l -0.232834,-0.007 z m -3.323166,-0.18352 -0.127,0.0341 0.09819,-0.0702 0.09819,-0.0702 0.04073,-0.25372 0.04073,-0.25373 -0.01192,0.28982 -0.01192,0.28981 z m 1.481666,-0.65609 h -0.127 v -0.0847 -0.0847 h 0.127 0.127 v 0.0847 0.0847 z m 2.725185,-0.0698 -0.04482,0.11216 -0.0067,-0.13911 -0.0067,-0.1391 -0.127,-0.0487 -0.127,-0.0487 v -0.0906 -0.0906 l 0.1785,0.1663 0.1785,0.1663 z m -4.418518,-0.18417 h -0.04233 v -0.0423 -0.0423 h 0.04233 0.04233 v 0.0423 0.0423 z m 3.718278,-0.007 -0.162278,-0.007 0.111125,-0.0445 0.111125,-0.0445 0.05115,0.0512 0.05115,0.0512 z"
         style="display:inline;fill:#1f2f8e;stroke-width:0.08466667"
         inkscape:connector-curvature="0" />
      <path
         id="path79"
         d="m -39.622388,149.76467 h -0.125387 l -0.05441,-0.21679 -0.05441,-0.21679 0.176257,-0.16421 0.176258,-0.16421 h 0.04587 0.04587 v 0.079 0.079 l -0.169333,0.0537 -0.169333,0.0537 v 0.16363 0.16363 h 0.127 0.127 v 0.0847 0.0847 z m 2.45372,0 h -0.211667 v -0.0847 -0.0847 h 0.211667 0.211667 v 0.0847 0.0847 z m 0.550333,0 h -0.08467 v -0.0847 -0.0847 h 0.08467 0.08467 v 0.0847 0.0847 z m 1.608667,-0.254 h -0.08467 v -0.0847 -0.0847 h 0.08467 0.08467 v 0.0847 0.0847 z m 0.423334,0 h -0.08467 v -0.0847 -0.0847 h 0.08467 0.08467 v 0.0847 0.0847 z m -2.420056,-0.17602 -0.162278,-0.007 0.111125,-0.0445 0.111125,-0.0445 0.05115,0.0511 0.05115,0.0512 z m -1.601611,-0.078 h -0.04233 v -0.0423 -0.0423 h 0.04233 0.04233 v 0.0423 0.0423 z m 0.719666,0 h -0.08467 v -0.127 -0.127 h 0.08467 0.08467 v 0.127 0.127 z m 2.032,0 h -0.08467 v -0.12539 -0.12538 l 0.215609,-0.0541 0.21561,-0.0541 0.0525,0.0525 0.0525,0.0525 h -0.183444 -0.183445 v 0.127 0.127 z m -3.175,-0.0847 h -0.127 v -0.0847 -0.0847 h 0.127 0.127 v 0.0847 0.0847 z m 4.064001,0 h -0.127001 v -0.0847 -0.0847 h 0.127001 0.127 v 0.0847 0.0847 z m -2.927925,-0.762 h -0.07774 v -0.21524 -0.21524 l 0.08729,-0.10226 0.08729,-0.10226 0.242785,-0.28079 0.242784,-0.28079 0.32539,0.0268 0.32539,0.0268 0.01701,0.16934 0.01701,0.16933 -0.04368,-0.14817 -0.04368,-0.14816 h -0.332459 -0.332459 l -1.01e-4,0.0635 -1.02e-4,0.0635 -0.211567,0.246 -0.211563,0.246 0.0098,0.21967 0.0098,0.21966 0.03872,-0.14817 0.03872,-0.14816 h 0.07846 0.07846 l 0.0027,-0.10584 0.0027,-0.10583 0.123432,-0.16315 0.123433,-0.16316 0.06192,0.0619 0.06192,0.0619 -0.124548,0.0788 -0.124548,0.0788 0.118788,0.001 0.118788,0.001 -0.182288,0.15809 -0.182288,0.1581 v 0.0868 0.0868 l -0.133925,0.0514 -0.133924,0.0514 z m 0.472591,-0.508 h 0.04233 v -0.0423 -0.0423 h -0.04233 -0.04233 v 0.0423 0.0423 z m 3.259667,0.508 h -0.08467 v -0.16933 -0.16933 h 0.08467 0.08467 v 0.16933 0.16933 z m -5.61499,-0.32231 -0.04431,0.11065 -0.0067,-0.11235 -0.0067,-0.11235 0.247487,-0.24748 0.247487,-0.24749 h 0.09118 0.09118 v -0.0847 -0.0847 h 0.260048 0.260048 l 0.120952,0.12095 0.120952,0.12095 v 0.0907 0.0907 h -0.08467 -0.08467 v -0.13801 -0.13801 l -0.364941,0.0411 -0.364941,0.0411 -0.219067,0.21906 -0.219066,0.21907 z m 4.064,0 -0.04431,0.11065 -0.0067,-0.11235 -0.0067,-0.11235 0.247487,-0.24748 0.247488,-0.24749 h 0.09118 0.09118 v -0.0847 -0.0847 h 0.260048 0.260048 l 0.120952,0.12095 0.120953,0.12095 v 0.0907 0.0907 h -0.08467 -0.08467 v -0.13801 -0.13801 l -0.364941,0.0411 -0.364941,0.0411 -0.219067,0.21906 -0.219066,0.21907 z m -0.847899,-0.0446 -0.05645,0.0564 v -0.11289 -0.11289 l 0.05645,0.0564 0.05644,0.0564 z m -0.352778,-0.14111 h -0.04233 v -0.0423 -0.0423 h 0.04233 0.04233 v 0.0423 0.0423 z m 2.751667,-0.0847 h -0.112889 l 0.05644,-0.0565 0.05644,-0.0564 0.05644,0.0564 0.05645,0.0565 z"
         style="display:inline;fill:#4f0000;stroke-width:0.08466667"
         inkscape:connector-curvature="0" />
      <path
         id="path77"
         d="m -39.279287,150.696 h -0.290286 l -0.133047,-0.13304 -0.133048,-0.13305 0.0098,-0.18445 0.0098,-0.18446 0.04164,0.16335 0.04164,0.16334 0.111821,0.11183 0.111821,0.11182 h 0.18444 0.184439 l -0.04708,-0.12269 -0.04708,-0.12269 0.122689,0.0471 0.122688,0.0471 v 0.11794 0.11794 z m 0.879555,-0.0445 -0.213369,0.0536 -0.06095,-0.061 -0.06095,-0.0609 v -0.0949 -0.0949 l 0.170183,-0.0128 0.170183,-0.0128 0.125394,-0.12539 0.125395,-0.1254 -0.105078,-0.0375 -0.105077,-0.0375 0.0681,-0.0726 0.0681,-0.0726 0.07877,0.12455 0.07877,0.12455 v 0.127 0.127 l -0.06305,0.0991 -0.06305,0.0991 z m 0.758381,0.0177 -0.119984,0.0155 -0.105833,-0.0437 -0.105833,-0.0437 v -0.21066 -0.21066 l 0.118632,-0.11863 0.118632,-0.11864 -0.04511,0.33635 -0.04511,0.33635 h 0.131093 0.131092 l 0.04304,-0.0868 0.04304,-0.0868 -0.02183,0.10795 -0.02183,0.10795 z m 2.014871,0.0202 -0.102855,-0.007 -0.105833,-0.0427 -0.105833,-0.0427 v -0.21066 -0.21066 l 0.118632,-0.11863 0.118632,-0.11864 -0.04511,0.33635 -0.04511,0.33635 h 0.107648 0.107647 l 0.119838,-0.14817 0.119838,-0.14817 -0.09232,0.1905 -0.09232,0.1905 -0.102854,-0.007 z m -0.591301,-0.083 -0.10422,-0.005 -0.16262,-0.16396 -0.16262,-0.16396 0.05679,-0.0568 0.05679,-0.0568 v 0.0988 0.0988 h 0.0793 0.0793 l 0.02653,-0.27517 0.02653,-0.27517 h 0.127 0.127 l 0.02818,0.19911 0.02818,0.19912 -0.05096,0.20305 -0.05096,0.20306 z m 1.813378,0.005 h -0.07915 l -0.04779,-0.12455 -0.0478,-0.12455 0.128601,-0.1286 0.1286,-0.1286 0.01302,-0.17289 0.01302,-0.17288 0.129946,0.0246 0.129946,0.0246 0.02764,0.24095 0.02764,0.24095 -0.17227,0.16049 -0.17227,0.1605 z m -0.139598,-0.67734 h -0.04233 v -0.0423 -0.0423 h 0.04233 0.04233 v 0.0423 0.0423 z m -2.125725,-0.762 h -0.287275 v -0.0847 -0.0847 h -0.124343 -0.124343 l 0.04874,-0.127 0.04873,-0.127 h 0.117942 0.117941 v 0.0847 0.0847 h 0.293677 0.293676 l -0.04874,0.127 -0.04873,0.127 z m -2.842697,-0.25007 -0.03447,0.10342 -0.155726,-0.15573 -0.155727,-0.15572 0.103415,-0.0345 0.103414,-0.0345 0.08678,0.0868 0.08678,0.0868 z m 1.838105,0.0692 -0.171683,-0.0115 0.190631,-0.0367 0.19063,-0.0367 -0.0555,-0.22693 -0.0555,-0.22692 -0.0928,-0.0622 -0.0928,-0.0622 0.105834,-10e-4 0.105833,-0.001 v -0.127 -0.127 h 0.09372 0.09372 l -0.04396,-0.11455 -0.04396,-0.11455 0.162866,-0.13945 0.162866,-0.13945 h 0.370974 0.370974 l 0.04873,0.127 0.04874,0.127 -0.04874,0.127 -0.04873,0.127 h -0.07561 -0.07561 v -0.10085 -0.10085 l -0.114156,0.15612 -0.114155,0.15611 -0.09654,-0.0597 -0.09654,-0.0597 0.05042,0.1314 0.05042,0.1314 h -0.136058 -0.136059 v -0.0907 -0.0907 l -0.127,0.127 -0.127,0.127 v 0.13305 0.13304 h 0.08384 0.08384 l -0.144987,0.16934 -0.144988,0.16933 z m 0.37865,-1.08914 h 0.112889 l -0.05644,-0.0564 -0.05644,-0.0565 -0.05644,0.0565 -0.05645,0.0564 z m 0.381,0 h 0.04233 v -0.0423 -0.0423 h -0.04233 -0.04233 v 0.0423 0.0423 z m -1.771952,1.016 h -0.302381 v -0.0785 -0.0785 l -0.124771,-0.0274 -0.12477,-0.0274 0.08888,-0.127 0.08888,-0.127 0.04294,0.10583 0.04294,0.10583 h 0.422325 0.422326 l -0.127,0.127 -0.127,0.127 z m 3.135677,0 h -0.117941 l -0.04874,-0.127 -0.04873,-0.127 h 0.147433 0.147434 v -0.33635 -0.33636 l 0.09655,-0.0965 0.09655,-0.0965 0.383324,-0.0432 0.383325,-0.0432 0.216705,0.0544 0.216706,0.0544 v 0.11633 0.11633 l -0.122118,0.0469 -0.122118,0.0469 -0.296619,-0.0481 -0.29662,-0.0481 -0.216263,0.0543 -0.216263,0.0543 v 0.12539 0.12538 h 0.09071 0.09071 l -0.133048,0.13305 -0.133047,0.13305 v 0.12095 0.12095 z m 0.913217,0 h -0.287275 v -0.0847 -0.0847 h -0.124343 -0.124343 l 0.04874,-0.127 0.04873,-0.127 h 0.117942 0.117942 v 0.0847 0.0847 h 0.293676 0.293676 l -0.04873,0.127 -0.04873,0.127 z m -4.735399,-0.36137 -0.11344,0.1043 -0.05097,-0.1606 -0.05097,-0.16059 0.05648,-0.22504 0.05648,-0.22505 0.20645,-0.0785 0.206451,-0.0785 h 0.32623 0.32623 l 0.133925,0.0514 0.133924,0.0514 v 0.10889 0.10888 l -0.122117,0.0469 -0.122118,0.0469 -0.296619,-0.0481 -0.29662,-0.0481 -0.216263,0.0543 -0.216263,0.0543 v 0.11833 0.11833 l 0.07633,0.0282 0.07632,0.0282 z m 2.467277,0.0844 -0.05115,0.0512 0.0067,-0.16228 0.0067,-0.16228 0.04447,0.11112 0.04447,0.11113 z m 0.254,0 -0.05115,0.0512 0.0067,-0.16228 0.0067,-0.16228 0.04447,0.11112 0.04447,0.11113 z m -2.286,-0.254 -0.05115,0.0512 0.0067,-0.16228 0.0067,-0.16228 0.04447,0.11112 0.04447,0.11113 z m 0.254,0 -0.05115,0.0512 0.0067,-0.16228 0.0067,-0.16228 0.04447,0.11112 0.04447,0.11113 z m 3.81,0 -0.05115,0.0512 0.0067,-0.16228 0.0067,-0.16228 0.04447,0.11112 0.04447,0.11113 z m 0.254,0 -0.05115,0.0512 0.0067,-0.16228 0.0067,-0.16228 0.04447,0.11112 0.04447,0.11113 z m -1.998487,-0.0617 h -0.08467 v -0.0797 -0.0797 l 0.08467,-0.0523 0.08467,-0.0523 v 0.132 0.132 z"
         style="display:inline;fill:#000000;stroke-width:0.08466667"
         inkscape:connector-curvature="0" />
      <path
         style="display:inline;opacity:0.88999999;fill:#000000;fill-opacity:0;stroke-width:0.02612245"
         d="m 21.315179,1.7421584 -0.468332,-0.4782699 -0.161431,-0.00762 -0.161431,-0.00762 0.176064,-0.45714292 0.176063,-0.45714287 0.604523,-0.007014 0.604522,-0.007014 -0.01355,0.0592585 c -0.03922,0.17158026 -0.223272,1.33782769 -0.215031,1.36254919 0.0053,0.015925 0.06841,-0.1473723 0.140215,-0.3628825 l 0.130564,-0.39183677 0.291749,-0.007386 0.291749,-0.007386 V 1.6004502 2.2282445 l -0.463674,-0.00391 -0.463673,-0.00391 z"
         id="path27"
         inkscape:connector-curvature="0"
         transform="matrix(0.26458333,0,0,0.26458333,-40.089668,146.97067)" />
      <path
         style="display:inline;opacity:0.88999999;fill:#000000;fill-opacity:0;stroke-width:0.02612245"
         d="M 2.5990523,10.502525 C 2.5542365,10.38465 2.2227389,9.31974 2.2229631,9.2943672 c 4.312e-4,-0.048813 0.3319933,-0.5654834 0.3790474,-0.590666 0.025743,-0.013777 0.046806,-0.043526 0.046806,-0.066109 0,-0.022583 0.014694,-0.035451 0.032653,-0.028597 0.017959,0.00685 0.346552,0.091622 0.7302064,0.1883731 l 0.6975533,0.1759106 0.2341238,-0.091345 0.2341237,-0.091345 0.072394,0.075563 0.072394,0.075563 H 4.6319982 4.5417319 L 4.3616288,9.6666121 C 4.262572,10.065306 4.171134,10.429714 4.158433,10.476408 l -0.023093,0.0849 H 3.3783706 2.6214008 Z"
         id="path29"
         inkscape:connector-curvature="0"
         transform="matrix(0.26458333,0,0,0.26458333,-40.089668,146.97067)" />
      <path
         style="display:inline;opacity:0.88999999;fill:#000000;fill-opacity:0;stroke-width:0.02612245"
         d="M 16.525257,9.6404897 C 16.468641,9.4932243 16.383261,9.269344 16.335525,9.1429777 l -0.08679,-0.2297568 0.307579,-0.3083824 0.307579,-0.3083824 0.84738,0.2114439 0.847379,0.2114438 -0.0072,0.4020851 -0.0072,0.4020852 -0.496326,0.1921572 -0.496327,0.1921572 -0.461739,2.089e-4 -0.461738,2.074e-4 z"
         id="path31"
         inkscape:connector-curvature="0"
         transform="matrix(0.26458333,0,0,0.26458333,-40.089668,146.97067)" />
      <path
         style="display:inline;opacity:0.88999999;fill:#000000;fill-opacity:0;stroke-width:0.02612245"
         d="m 11.243102,6.3717516 c 0,-0.00548 -0.04627,-0.1862197 -0.102822,-0.4016452 l -0.102822,-0.3916828 0.07007,-0.2696682 c 0.03854,-0.1483175 0.07392,-0.2496996 0.07862,-0.2252936 0.0077,0.039837 0.05777,0.044375 0.489895,0.044375 h 0.48135 l -0.0015,0.3853062 -0.0015,0.3853061 -0.122627,-0.3068023 c -0.06736,-0.1687417 -0.130136,-0.3068641 -0.13942,-0.3069392 -0.0093,-7.5e-5 -0.02547,0.2467207 -0.03598,0.548435 l -0.0191,0.5485714 h -0.29708 c -0.163394,0 -0.297081,-0.00448 -0.297081,-0.00996 z"
         id="path33"
         inkscape:connector-curvature="0"
         transform="matrix(0.26458333,0,0,0.26458333,-40.089668,146.97067)" />
      <path
         style="display:inline;opacity:0.88999999;fill:#000000;fill-opacity:0;stroke-width:0.02612245"
         d="m 19.095785,5.3485854 c -0.185189,-0.063163 -0.342411,-0.1205459 -0.349384,-0.1275185 -0.0106,-0.010597 0.130538,-0.8031398 0.165669,-0.9303116 0.0076,-0.027341 0.105855,-0.063282 0.304967,-0.1115 0.333056,-0.080655 0.337095,-0.080924 0.608464,-0.040563 l 0.199226,0.029631 -0.145914,0.1474528 c -0.08025,0.081099 -0.145914,0.1559283 -0.145914,0.1662872 0,0.010359 0.02351,0.018834 0.05224,0.018834 0.04798,0 0.05224,0.017415 0.05224,0.2133333 0,0.1173333 -0.0048,0.2084354 -0.01075,0.202449 -0.0059,-0.00599 -0.05971,-0.134313 -0.119545,-0.2851701 -0.05984,-0.1508571 -0.117799,-0.2835963 -0.1288,-0.294976 -0.01943,-0.020103 -0.05438,0.5917781 -0.05438,0.9521906 0,0.1535414 -0.0064,0.178422 -0.04571,0.1767028 -0.02514,-0.0011 -0.197232,-0.053679 -0.38242,-0.1168419 z"
         id="path35"
         inkscape:connector-curvature="0"
         transform="matrix(0.26458333,0,0,0.26458333,-40.089668,146.97067)" />
      <path
         style="display:inline;opacity:0.88999999;fill:#000000;fill-opacity:0;stroke-width:0.02612245"
         d="M 20.759196,5.2901952 20.882305,5.165207 20.735696,4.8003993 C 20.655061,4.599755 20.577974,4.4066021 20.564391,4.3711705 c -0.01694,-0.044177 -0.03092,-0.05435 -0.0445,-0.032373 -0.0143,0.023131 -0.03695,0.0138 -0.08142,-0.033538 -0.03825,-0.040717 -0.04852,-0.065586 -0.02708,-0.065586 0.01899,0 0.329614,0.048456 0.690267,0.1076798 0.667361,0.1095889 0.7124,0.1113188 0.910428,0.034968 0.03465,-0.013359 0.04572,-0.0043 0.04572,0.037414 0,0.053933 -0.0095,0.05504 -0.470204,0.05504 h -0.470205 v 0.3265306 0.3265306 l 0.215511,0.00209 0.21551,0.00209 -0.431021,0.1409888 c -0.237061,0.077544 -0.442333,0.1412574 -0.45616,0.1415856 -0.01383,3.281e-4 0.03026,-0.055648 0.09797,-0.1243914 z"
         id="path37"
         inkscape:connector-curvature="0"
         transform="matrix(0.26458333,0,0,0.26458333,-40.089668,146.97067)" />
      <path
         style="display:inline;opacity:0.88999999;fill:#000000;fill-opacity:0;stroke-width:0.02612245"
         d="M 3.735784,5.3485854 C 3.5505958,5.2854228 3.3933732,5.2280395 3.3864006,5.2210669 3.3758032,5.2104695 3.5169386,4.4179271 3.5520697,4.2907553 c 0.00755,-0.027341 0.1058553,-0.063282 0.3049666,-0.1115 0.3303331,-0.079996 0.3669352,-0.082342 0.6235045,-0.03997 l 0.1830127,0.030224 -0.1453277,0.1468601 c -0.07993,0.080773 -0.1453277,0.1553356 -0.1453277,0.1656945 0,0.010359 0.02351,0.018834 0.052245,0.018834 0.04798,0 0.052245,0.017415 0.052245,0.2133333 0,0.1173333 -0.00484,0.2084354 -0.010748,0.202449 C 4.4607289,4.9106936 4.4069336,4.782367 4.3470951,4.6315099 4.2872565,4.4806528 4.2288388,4.3474557 4.2172779,4.3355164 4.1981059,4.3157164 4.1462139,5.3153549 4.1608929,5.421714 4.1700129,5.487788 4.1173619,5.478731 3.735784,5.3485854 Z"
         id="path39"
         inkscape:connector-curvature="0"
         transform="matrix(0.26458333,0,0,0.26458333,-40.089668,146.97067)" />
      <path
         style="display:inline;opacity:0.88999999;fill:#000000;fill-opacity:0;stroke-width:0.02612245"
         d="M 19.523919,10.091102 V 9.6208978 h 0.470204 0.470204 v 0.4702042 0.470204 h -0.470204 -0.470204 z"
         id="path41"
         inkscape:connector-curvature="0"
         transform="matrix(0.26458333,0,0,0.26458333,-40.089668,146.97067)" />
      <path
         style="display:inline;opacity:0.88999999;fill:#000000;fill-opacity:0;stroke-width:0.02612245"
         d="m 11.843919,10.874775 v -0.313469 h 0.470204 0.470204 v 0.313469 0.31347 h -0.470204 -0.470204 z"
         id="path43"
         inkscape:connector-curvature="0"
         transform="matrix(0.26458333,0,0,0.26458333,-40.089668,146.97067)" />
      <path
         style="display:inline;opacity:0.88999999;fill:#000000;fill-opacity:0;stroke-width:0.02612245"
         d="M 2.5990523,10.502525 C 2.5542365,10.38465 2.2227389,9.31974 2.2229631,9.2943672 c 4.312e-4,-0.048813 0.3319933,-0.5654834 0.3790474,-0.590666 0.025743,-0.013777 0.046806,-0.043526 0.046806,-0.066109 0,-0.022583 0.014694,-0.035451 0.032653,-0.028597 0.017959,0.00685 0.346552,0.091622 0.7302064,0.1883731 l 0.6975533,0.1759106 0.2341238,-0.091345 0.2341237,-0.091345 0.072394,0.075563 0.072394,0.075563 H 4.6319982 4.5417319 L 4.3616288,9.6666121 C 4.262572,10.065306 4.171134,10.429714 4.158433,10.476408 l -0.023093,0.0849 H 3.3783706 2.6214008 Z"
         id="path45"
         inkscape:connector-curvature="0"
         transform="matrix(0.26458333,0,0,0.26458333,-40.089668,146.97067)" />
      <path
         style="opacity:0.88999999;fill:#000000;fill-opacity:0;stroke-width:0.02612245"
         d="M 2.5990523,10.502525 C 2.5542365,10.38465 2.2227389,9.31974 2.2229631,9.2943672 c 4.312e-4,-0.048813 0.3319933,-0.5654834 0.3790474,-0.590666 0.025743,-0.013777 0.046806,-0.043526 0.046806,-0.066109 0,-0.022583 0.014694,-0.035451 0.032653,-0.028597 0.017959,0.00685 0.346552,0.091622 0.7302064,0.1883731 l 0.6975533,0.1759106 0.2341238,-0.091345 0.2341237,-0.091345 0.072394,0.075563 0.072394,0.075563 H 4.6319982 4.5417319 L 4.3616288,9.6666121 C 4.262572,10.065306 4.171134,10.429714 4.158433,10.476408 l -0.023093,0.0849 H 3.3783706 2.6214008 Z"
         id="path47"
         inkscape:connector-curvature="0"
         transform="matrix(0.26458333,0,0,0.26458333,-40.089668,146.97067)" />
      <path
         style="opacity:0.88999999;fill:#000000;fill-opacity:0;stroke-width:0.02612245"
         d="M 2.5990523,10.502525 C 2.5542365,10.38465 2.2227389,9.31974 2.2229631,9.2943672 c 4.312e-4,-0.048813 0.3319933,-0.5654834 0.3790474,-0.590666 0.025743,-0.013777 0.046806,-0.043526 0.046806,-0.066109 0,-0.022583 0.014694,-0.035451 0.032653,-0.028597 0.017959,0.00685 0.346552,0.091622 0.7302064,0.1883731 l 0.6975533,0.1759106 0.2341238,-0.091345 0.2341237,-0.091345 0.072394,0.075563 0.072394,0.075563 H 4.6319982 4.5417319 L 4.3616288,9.6666121 C 4.262572,10.065306 4.171134,10.429714 4.158433,10.476408 l -0.023093,0.0849 H 3.3783706 2.6214008 Z"
         id="path49"
         inkscape:connector-curvature="0"
         transform="matrix(0.26458333,0,0,0.26458333,-40.089668,146.97067)" />
      <path
         style="opacity:0.88999999;fill:#000000;fill-opacity:0;stroke-width:0.02612245"
         d="M 2.5990523,10.502525 C 2.5542365,10.38465 2.2227389,9.31974 2.2229631,9.2943672 c 4.312e-4,-0.048813 0.3319933,-0.5654834 0.3790474,-0.590666 0.025743,-0.013777 0.046806,-0.043526 0.046806,-0.066109 0,-0.022583 0.014694,-0.035451 0.032653,-0.028597 0.017959,0.00685 0.346552,0.091622 0.7302064,0.1883731 l 0.6975533,0.1759106 0.2341238,-0.091345 0.2341237,-0.091345 0.072394,0.075563 0.072394,0.075563 H 4.6319982 4.5417319 L 4.3616288,9.6666121 C 4.262572,10.065306 4.171134,10.429714 4.158433,10.476408 l -0.023093,0.0849 H 3.3783706 2.6214008 Z"
         id="path51"
         inkscape:connector-curvature="0"
         transform="matrix(0.26458333,0,0,0.26458333,-40.089668,146.97067)" />
      <path
         style="opacity:0.88999999;fill:#000000;fill-opacity:0;stroke-width:0.02612245"
         d="M 2.5990523,10.502525 C 2.5542365,10.38465 2.2227389,9.31974 2.2229631,9.2943672 c 4.312e-4,-0.048813 0.3319933,-0.5654834 0.3790474,-0.590666 0.025743,-0.013777 0.046806,-0.043526 0.046806,-0.066109 0,-0.022583 0.014694,-0.035451 0.032653,-0.028597 0.017959,0.00685 0.346552,0.091622 0.7302064,0.1883731 l 0.6975533,0.1759106 0.2341238,-0.091345 0.2341237,-0.091345 0.072394,0.075563 0.072394,0.075563 H 4.6319982 4.5417319 L 4.3616288,9.6666121 C 4.262572,10.065306 4.171134,10.429714 4.158433,10.476408 l -0.023093,0.0849 H 3.3783706 2.6214008 Z"
         id="path53"
         inkscape:connector-curvature="0"
         transform="matrix(0.26458333,0,0,0.26458333,-40.089668,146.97067)" />
      <path
         style="opacity:0.88999999;fill:#000000;fill-opacity:0;stroke-width:0.02612245"
         d="M 8.8462573,9.6404897 C 8.7893303,9.4932243 8.7035646,9.2692536 8.6556668,9.1427768 L 8.5685799,8.9128191 8.8998932,8.5815059 9.2312064,8.2501927 l 0.8237086,0.2052537 0.823708,0.2052538 -0.0071,0.4314041 -0.0071,0.4314041 -0.496327,0.19216 -0.4963262,0.1921601 -0.4609565,2.089e-4 -0.4609565,2.074e-4 z"
         id="path55"
         inkscape:connector-curvature="0"
         transform="matrix(0.26458333,0,0,0.26458333,-40.089668,146.97067)" />
      <path
         style="opacity:0.88999999;fill:#000000;fill-opacity:0;stroke-width:0.02612245"
         d="m 19.095785,5.3485854 c -0.185189,-0.063163 -0.342411,-0.1205459 -0.349384,-0.1275185 -0.0106,-0.010597 0.130538,-0.8031398 0.165669,-0.9303116 0.0076,-0.027341 0.105855,-0.063282 0.304967,-0.1115 0.333056,-0.080655 0.337095,-0.080924 0.608464,-0.040563 l 0.199226,0.029631 -0.145914,0.1474528 c -0.08025,0.081099 -0.145914,0.1559283 -0.145914,0.1662872 0,0.010359 0.02351,0.018834 0.05224,0.018834 0.04798,0 0.05224,0.017415 0.05224,0.2133333 0,0.1173333 -0.0048,0.2084354 -0.01075,0.202449 -0.0059,-0.00599 -0.05971,-0.134313 -0.119545,-0.2851701 -0.05984,-0.1508571 -0.117799,-0.2835963 -0.1288,-0.294976 -0.01943,-0.020103 -0.05438,0.5917781 -0.05438,0.9521906 0,0.1535414 -0.0064,0.178422 -0.04571,0.1767028 -0.02514,-0.0011 -0.197232,-0.053679 -0.38242,-0.1168419 z"
         id="path59"
         inkscape:connector-curvature="0"
         transform="matrix(0.26458333,0,0,0.26458333,-40.089668,146.97067)" />
      <path
         id="path93"
         d="m -36.837057,149.24514 -0.261055,0.0115 -0.05644,-0.0564 -0.05644,-0.0565 v -0.0705 -0.0706 h 0.127 0.127 v 0.0788 0.0788 l 0.1905,0.0367 0.1905,0.0367 z m -2.278944,-0.32714 h -0.127 v -0.0847 -0.0847 h 0.127 0.127 v 0.0847 0.0847 z m 1.826381,0 h -0.09072 v -0.0847 -0.0847 h 0.08467 0.08467 l 0.0098,-0.1905 0.0098,-0.1905 0.03872,0.14817 0.03872,0.14816 h 0.08451 0.08451 l -0.127,0.127 -0.127,0.127 z m 2.237619,0 h -0.127 v -0.0847 -0.0847 h 0.127 0.127 v 0.0847 0.0847 z m -1.4605,-0.17601 -0.148167,-0.007 -0.105833,-0.0427 -0.105834,-0.0427 v -0.16228 -0.16227 h 0.08467 0.08467 v 0.16933 0.16933 h 0.08467 0.08467 v -0.0847 -0.0847 h 0.08467 0.08467 v 0.127 0.127 l -0.148166,-0.007 z m -2.809119,-0.078 h -0.09071 v -0.0484 -0.0484 l 0.10659,-0.10659 0.106589,-0.10659 0.104321,0.0348 0.104322,0.0348 -0.120197,0.1202 -0.120196,0.12019 z m 1.687285,0 h -0.08467 v -0.127 -0.127 h 0.08467 0.08467 v 0.127 0.127 z m 2.376715,0 h -0.09071 v -0.0484 -0.0484 l 0.10659,-0.10659 0.106589,-0.10659 0.104321,0.0348 0.104322,0.0348 -0.120197,0.1202 -0.120196,0.12019 z m -3.286881,-0.17601 -0.148167,-0.007 -0.105833,-0.0427 -0.105834,-0.0427 v -0.11994 -0.11995 h 0.08467 0.08467 v 0.13271 0.1327 l 0.169333,-0.0537 0.169333,-0.0537 v 0.0904 0.0904 z m 4.064,0 -0.148167,-0.007 -0.105833,-0.0427 -0.105833,-0.0427 v -0.11994 -0.11995 h 0.08467 0.08467 v 0.13271 0.1327 l 0.169333,-0.0537 0.169334,-0.0537 v 0.0904 0.0904 z m -5.185834,-0.078 h -0.08467 v -0.127 -0.127 h 0.08467 0.08467 v 0.127 0.127 z m 4.064,0 h -0.08467 v -0.127 -0.127 h 0.08467 0.08467 v 0.127 0.127 z"
         style="display:inline;fill:#fecfbf;stroke-width:0.08466667"
         inkscape:connector-curvature="0" />
      <path
         style="opacity:0.88999999;fill:#000000;fill-opacity:0;stroke-width:0.02612245"
         d="M 8.8462573,9.6404897 C 8.7893303,9.4932243 8.7035646,9.2692536 8.6556668,9.1427768 L 8.5685799,8.9128191 8.8998932,8.5815059 9.2312064,8.2501927 l 0.8237086,0.2052537 0.823708,0.2052538 -0.0071,0.4314041 -0.0071,0.4314041 -0.496327,0.19216 -0.4963262,0.1921601 -0.4609565,2.089e-4 -0.4609565,2.074e-4 z"
         id="path57"
         inkscape:connector-curvature="0"
         transform="matrix(0.26458333,0,0,0.26458333,-40.089668,146.97067)" />
      <path
         style="display:inline;opacity:1;fill:#ffffff;fill-opacity:1;stroke-width:0.02612245"
         d="M 21.307872,1.7410711 20.838457,1.2617139 h -0.150994 c -0.08305,0 -0.150993,-0.00948 -0.150993,-0.021068 0,-0.011588 0.04521,-0.1379549 0.100467,-0.28081634 0.05526,-0.14286143 0.132692,-0.34497255 0.172079,-0.44913582 l 0.07161,-0.18938776 h 0.58393 c 0.321161,0 0.589237,0.008816 0.595723,0.0195918 0.0065,0.0107755 -0.03909,0.33086828 -0.10129,0.71131732 -0.0622,0.3804489 -0.109369,0.6954412 -0.104828,0.6999827 0.0074,0.00744 0.168562,-0.4340272 0.248124,-0.6798714 l 0.0317,-0.0979592 h 0.285321 0.285321 v 0.6269385 0.6269388 l -0.463673,-0.00391 -0.463674,-0.00391 z"
         id="path897"
         inkscape:connector-curvature="0"
         transform="matrix(0.26458333,0,0,0.26458333,-40.089668,146.97067)" />
      <path
         style="opacity:1;fill:#ffffff;fill-opacity:1;stroke-width:0.02612245"
         d="M 2.6041555,10.529049 C 2.4310605,10.007936 2.2242309,9.3117854 2.2327837,9.2790791 c 0.023496,-0.089851 0.3380878,-0.572467 0.37316,-0.572467 0.020156,0 0.036648,-0.024302 0.036648,-0.054005 0,-0.039253 0.012487,-0.050252 0.045714,-0.040264 0.025143,0.00756 0.3554095,0.091001 0.7339257,0.1854297 l 0.6882114,0.1716891 0.2369082,-0.088695 0.2369082,-0.088695 0.059093,0.068291 0.059093,0.068291 -0.081525,0.013061 -0.081525,0.013061 -0.1989201,0.7967348 -0.1989201,0.7967353 -0.7632114,0.0069 c -0.5971595,0.0054 -0.7655998,-2.64e-4 -0.774189,-0.02612 z"
         id="path901"
         inkscape:connector-curvature="0"
         transform="matrix(0.26458333,0,0,0.26458333,-40.089668,146.97067)" />
      <path
         style="opacity:1;fill:#ffffff;fill-opacity:1;stroke-width:0.02612245"
         d="M 8.7595748,9.4184488 8.5730537,8.9286529 8.9097246,8.5917722 l 0.336671,-0.3368807 0.8130004,0.2030649 0.813,0.2030649 -0.0071,0.4336393 -0.0071,0.4336393 -0.496326,0.1899133 -0.496327,0.1899134 -0.4596765,6e-5 -0.4596766,5.82e-5 z"
         id="path903"
         inkscape:connector-curvature="0"
         transform="matrix(0.26458333,0,0,0.26458333,-40.089668,146.97067)" />
      <path
         style="opacity:1;fill:#ffffff;fill-opacity:1;stroke-width:0.02612245"
         d="m 16.439579,9.4184488 -0.186518,-0.4897959 0.312779,-0.312982 0.312778,-0.3129819 0.836905,0.2080738 0.836905,0.2080739 -0.0072,0.4047344 -0.0072,0.4047344 -0.496326,0.1899105 -0.496327,0.1899106 -0.459676,6e-5 -0.459677,5.82e-5 z"
         id="path905"
         inkscape:connector-curvature="0"
         transform="matrix(0.26458333,0,0,0.26458333,-40.089668,146.97067)" />
      <path
         style="opacity:1;fill:#ffffff;fill-opacity:1;stroke-width:0.02612245"
         d="m 10.847122,7.4910156 -0.03195,-0.1427709 h -0.333365 c -0.183351,0 -0.340693,-0.00733 -0.34965,-0.016285 -0.009,-0.00896 0.01259,-0.054148 0.04789,-0.1004249 0.05603,-0.073459 0.06418,-0.1111839 0.06418,-0.2971841 V 6.7213059 h 0.186881 0.186882 l 0.09394,-0.1089797 c 0.149507,-0.1734528 0.170091,-0.2077614 0.136945,-0.228247 -0.02086,-0.012894 -0.01434,-0.070081 0.02278,-0.1996061 0.03201,-0.1116977 0.05906,-0.3121767 0.07032,-0.5211264 0.01603,-0.2976167 0.02132,-0.3258692 0.04276,-0.2285715 0.01346,0.061061 0.03235,0.1110204 0.04199,0.1110204 0.0096,0 0.04539,-0.1081263 0.07946,-0.2402807 0.03407,-0.1321544 0.06664,-0.2261952 0.07238,-0.2089796 0.0078,0.023372 0.204752,0.031301 0.777571,0.031301 0.703049,0 0.769362,-0.00382 0.793763,-0.045714 0.02536,-0.043537 0.02666,-0.043537 0.02742,0 7.16e-4,0.041143 0.03462,0.045714 0.339021,0.045714 h 0.338227 l 0.0079,-0.1346426 0.0079,-0.1346427 0.200952,0.2433626 c 0.139242,0.1686298 0.22633,0.3042326 0.283596,0.4415815 0.191239,0.4586782 0.181575,0.4006425 0.181575,1.0904075 0,0.6706644 -0.03017,0.9251938 -0.05224,0.4407378 L 14.071163,6.787975 13.849123,6.7417629 C 13.727,6.7163462 13.480143,6.6879514 13.300551,6.6786632 13.005278,6.6633923 12.949977,6.6522763 12.722851,6.5625419 12.584708,6.5079633 12.378994,6.4456202 12.265708,6.4240015 l -0.205973,-0.039307 -0.157438,0.1552443 c -0.129298,0.1274966 -0.173115,0.1552442 -0.245151,0.1552442 -0.0754,0 -0.12201,0.033633 -0.332117,0.2396773 -0.226462,0.2220839 -0.250449,0.2556977 -0.326776,0.4579274 -0.04531,0.1200377 -0.09065,0.2233684 -0.100776,0.2296242 -0.01012,0.00626 -0.03278,-0.052873 -0.05035,-0.1313967 z M 12.177286,6.076603 c 0,-0.1302856 -0.260164,-0.8142759 -0.289232,-0.7604116 -0.01,0.018527 -0.02642,0.2981757 -0.0365,0.621441 l -0.01832,0.5877551 0.172025,-0.1690413 C 12.163558,6.2007948 12.177286,6.1784706 12.177286,6.076603 Z M 13.06318,6.2664606 13.2028,6.1250847 13.036165,5.705068 C 12.944516,5.4740588 12.86255,5.2849433 12.854017,5.2848112 c -0.01574,-2.436e-4 -0.04979,0.6544209 -0.04979,0.9573827 0,0.1550965 0.0038,0.1656426 0.05967,0.1656426 0.03759,0 0.111321,-0.052303 0.199288,-0.1413759 z"
         id="path911"
         inkscape:connector-curvature="0"
         transform="matrix(0.26458333,0,0,0.26458333,-40.089668,146.97067)" />
      <path
         style="opacity:1;fill:#ffffff;fill-opacity:1;stroke-width:0.02612245"
         d="m 18.578278,6.5474844 -9.92e-4,-0.1346378 -0.367845,-0.00904 c -0.3284,-0.00807 -0.371831,-0.014491 -0.40502,-0.05991 -0.03356,-0.045927 -0.02954,-0.058751 0.04131,-0.1318559 0.04317,-0.04454 0.07849,-0.097877 0.07849,-0.1185288 0,-0.020651 0.137938,-0.1758467 0.30653,-0.3448788 l 0.306531,-0.3073312 -0.208572,-0.00206 -0.208571,-0.00206 0.304187,-0.1036869 0.304186,-0.1036869 0.09422,-0.4863949 c 0.05182,-0.2675172 0.09714,-0.4879868 0.100712,-0.4899325 0.0036,-0.00195 0.131549,-0.035236 0.284392,-0.073978 0.312784,-0.079284 0.368329,-0.08285 0.626481,-0.040217 l 0.183012,0.030224 -0.15104,0.1526333 -0.151041,0.1526332 H 20.113274 20.5113 L 20.49366,4.984164 c -0.01395,0.4029467 -0.01073,0.5093877 0.01545,0.5093877 0.0182,0 0.109159,-0.073863 0.202135,-0.1641404 L 20.88029,5.1652699 20.719402,4.761247 C 20.56509,4.3737346 20.510347,4.264343 20.510347,4.343492 c 0,0.02368 -0.02219,0.01505 -0.0652,-0.025355 -0.03586,-0.03369 -0.05985,-0.066613 -0.0533,-0.073161 0.0065,-0.00655 0.328162,0.038835 0.714697,0.1008507 l 0.702792,0.112756 0.13418,-0.055763 0.134179,-0.055763 v 0.063859 0.063858 H 21.59443 21.111165 v 0.3292424 0.3292425 l 0.333061,-0.00924 0.333061,-0.00924 0.0012,0.64 c 6.72e-4,0.3520001 -0.0027,0.5137572 -0.0074,0.3594603 C 21.762887,5.8494006 21.759217,5.8329482 21.704557,5.820282 21.446336,5.7604328 21.234562,5.7303836 20.957148,5.7142243 20.674613,5.6977668 20.605202,5.6840181 20.412631,5.6063672 20.291244,5.5574197 20.088152,5.4960867 19.961316,5.4700714 l -0.23061,-0.0473 -0.164527,0.1660021 c -0.130449,0.1316188 -0.181016,0.1660021 -0.244139,0.1660021 -0.06611,0 -0.122204,0.043183 -0.330822,0.2546939 -0.226324,0.2294614 -0.259173,0.2753975 -0.331579,0.4636735 l -0.08037,0.2089796 -9.93e-4,-0.1346378 z m 1.279008,-1.437412 c 0,-0.1302856 -0.260164,-0.814276 -0.289231,-0.7604117 -0.01,0.018527 -0.02642,0.2981757 -0.0365,0.621441 L 19.513235,5.5588569 19.68526,5.3898156 C 19.843558,5.2342642 19.857286,5.21194 19.857286,5.1100724 Z"
         id="path913"
         inkscape:connector-curvature="0"
         transform="matrix(0.26458333,0,0,0.26458333,-40.089668,146.97067)" />
      <path
         style="opacity:1;fill:#ffffff;fill-opacity:1;stroke-width:0.02612245"
         d="m 3.2172855,6.4625864 c 0,-0.046122 -0.026754,-0.050397 -0.3678447,-0.058776 -0.3284,-0.00807 -0.3718312,-0.014491 -0.4050206,-0.05991 -0.03356,-0.045927 -0.029542,-0.058751 0.041314,-0.1318559 0.04317,-0.04454 0.07849,-0.098299 0.07849,-0.1194658 0,-0.021167 0.1057959,-0.1437904 0.235102,-0.2724974 0.1293062,-0.1287071 0.2351021,-0.2425908 0.2351021,-0.253075 0,-0.010484 -0.058775,-0.039938 -0.1306123,-0.065452 -0.071837,-0.025514 -0.1306122,-0.052829 -0.1306122,-0.060699 0,-0.00787 0.1339075,-0.058382 0.2975723,-0.1122477 l 0.2975722,-0.097938 0.0943,-0.4868262 c 0.051865,-0.2677545 0.097223,-0.4890337 0.1007951,-0.4917317 0.00357,-0.0027 0.141679,-0.03813 0.3069035,-0.078737 C 4.1874006,4.095452 4.230715,4.0933393 4.4904672,4.1431279 L 4.6534447,4.174367 4.5231203,4.3135503 c -0.071679,0.076551 -0.1303245,0.1441427 -0.1303245,0.1502041 0,0.00606 0.1706633,0.011021 0.3792519,0.011021 H 5.1512995 L 5.1336601,4.984163 c -0.013954,0.4029467 -0.010726,0.5093877 0.015448,0.5093877 0.018198,0 0.1091587,-0.073863 0.2021345,-0.1641404 L 5.520289,5.1652699 5.3590338,4.7613894 C 5.1747917,4.2999357 5.1760746,4.3025348 5.1518977,4.3416536 c -0.011827,0.019136 -0.039264,0.0066 -0.079656,-0.036395 -0.042683,-0.045434 -0.050183,-0.065642 -0.024408,-0.06577 0.020464,-1.013e-4 0.3399004,0.048682 0.7098596,0.1084068 l 0.6726531,0.1085912 -0.00565,0.9691442 c -0.00311,0.5330294 -0.00935,0.8251443 -0.013865,0.6491443 L 6.4026163,5.7547752 H 6.0717149 c -0.4362828,0 -0.7261417,-0.041011 -1.0127967,-0.1432986 C 4.9296121,5.5653363 4.7150815,5.5000907 4.5821835,5.4664864 4.4492856,5.4328821 4.3405509,5.3980359 4.3405509,5.3890504 c 0,-0.00899 0.035265,-0.050124 0.078367,-0.091418 C 4.5359134,5.1855439 4.5256789,5.0709575 4.3617591,4.6576727 4.2821754,4.4570211 4.218729,4.3298797 4.2080542,4.3496607 c -0.030852,0.057171 -0.059517,1.2048771 -0.029631,1.1864069 0.014535,-0.00898 0.038124,0.01598 0.052422,0.055473 0.014297,0.039493 0.034957,0.095316 0.045911,0.1240507 0.017675,0.046366 0.012096,0.045118 -0.049573,-0.011084 L 4.1576937,5.6411784 4.1563418,5.9265483 4.1549898,6.2119181 4.0475603,5.9555397 3.9401307,5.6991614 3.7204351,5.9163561 c -0.1208326,0.119457 -0.2790634,0.3024192 -0.351624,0.4065824 -0.072561,0.1041633 -0.1363378,0.1893878 -0.141727,0.1893878 -0.00539,0 -0.0098,-0.022383 -0.0098,-0.04974 z"
         id="path915"
         inkscape:connector-curvature="0"
         transform="matrix(0.26458333,0,0,0.26458333,-40.089668,146.97067)" />
    </g>
  </g>
</svg>
