<?xml version="1.0" encoding="UTF-8"?>
<!DOCTYPE svg PUBLIC "-//W3C//DTD SVG 1.1//EN" "http://www.w3.org/Graphics/SVG/1.1/DTD/svg11.dtd">
<!-- Creator: CorelDRAW -->
<svg xmlns="http://www.w3.org/2000/svg" xml:space="preserve" width="279.4mm" height="215.9mm" style="shape-rendering:geometricPrecision; text-rendering:geometricPrecision; image-rendering:optimizeQuality; fill-rule:evenodd; clip-rule:evenodd"
viewBox="0 0 279.4 215.9"
 xmlns:xlink="http://www.w3.org/1999/xlink"
 xmlns:rdf="http://www.w3.org/1999/02/22-rdf-syntax-ns#"
 xmlns:cc="http://creativecommons.org/ns#"
 xmlns:dc="http://purl.org/dc/elements/1.1/"
 version="1.1">
 <defs>
  <style type="text/css">
   <![CDATA[
    .str0 {stroke:#131516;stroke-width:0.0898}
    .str1 {stroke:#1F1A17;stroke-width:0.3527}
    .str2 {stroke:black;stroke-width:1.8128;stroke-linecap:round}
    .fil3 {fill:none}
    .fil2 {fill:black}
    .fil0 {fill:#131516}
    .fil1 {fill:white}
    .fil4 {fill:#1F1A17;fill-rule:nonzero}
   ]]>
  </style>
 </defs>
 <g id="Layer_x0020_1">
  <metadata id="CorelCorpID_0Corel-Layer"/>
  <g id="_127775928">
   <path id="path9" class="fil0 str0" d="M57.4932 118.989c-3.2415,0.9117 -6.2614,2.9082 -9.1593,5.9387 -2.902,3.0823 -4.4792,6.4624 -4.7795,10.0887 -0.1886,2.2793 0.3762,4.862 1.6554,7.5929 1.2749,2.7826 3.3933,4.7808 6.2468,6.0469 0.9699,0.1977 1.3945,0.7111 1.3344,1.4364 -0.0215,0.2591 -0.4065,0.5215 -1.3067,0.7375 -4.6284,-1.1453 -8.3142,-3.6457 -11.0141,-7.398 -2.6955,-3.804 -3.8936,-8.1403 -3.586,-13.1125 0.5974,-5.3372 2.6192,-10.3263 6.0612,-14.9149 3.4984,-4.641 7.7682,-7.9438 12.8096,-9.9083l-2.0622 -18.3554c-8.5484,6.7091 -15.6116,13.6624 -21.2505,20.9643 -5.6346,7.2499 -8.8792,15.0978 -9.7858,23.5439 -0.209,3.7807 0.2658,7.4511 1.4286,10.9596 1.1587,3.5602 3.0744,6.7508 5.7391,9.6753 5.3853,5.7966 12.7683,8.7783 22.0409,8.9983 3.1857,-0.2382 6.6092,-0.841 10.3224,-1.8091l-4.6945 -40.4839 0.0002 -0.0004zm-2.4072 -54.3267c1.8,-1.0529 3.9239,-2.8853 6.2638,-5.4445 2.3355,-2.5072 4.6576,-5.4805 6.9058,-8.8152 2.3046,-3.3871 4.1978,-6.8219 5.6799,-10.3045 1.4777,-3.4307 2.3191,-6.6999 2.5677,-9.7047 0.1071,-1.2951 0.1105,-2.5892 -0.0549,-3.7264 -0.0535,-1.8628 -0.5048,-3.3077 -1.4103,-4.2825 -0.9098,-0.9228 -2.1136,-1.4287 -3.6719,-1.4135 -3.1167,0.0305 -6.0803,1.9746 -8.8908,5.8324 -2.1962,3.3343 -4.1324,7.2872 -5.644,11.7534 -1.5677,4.5186 -2.6117,8.9804 -3.0885,13.4884 -0.1647,5.1262 0.3191,9.314 1.3434,12.6169l-0.0002 0.0002zm-3.5211 3.0365c-1.6429,-8.3694 -2.2341,-16.9044 -1.7737,-25.605 0.515,-5.5953 1.5194,-10.8331 3.0132,-15.7135 1.4418,-4.8798 3.2955,-9.0906 5.5695,-12.7361 2.2222,-3.6451 4.683,-6.4125 7.3307,-8.3019 2.3709,-1.6796 4.0541,-2.5759 4.9369,-2.5845 0.6754,-0.0067 1.2253,0.2469 1.7062,0.7081 0.4809,0.4611 1.0918,1.2316 1.8372,2.2596 5.4569,8.6946 7.6991,19.2321 6.6787,31.5614 -0.4844,5.8539 -1.7353,11.56 -3.7651,17.2737 -1.9736,5.6614 -4.6532,11.0709 -8.0301,16.1248 -3.4328,5.1062 -7.3296,9.544 -11.7461,13.3659l2.5182 20.3697c2.3072,-0.2812 3.8827,-0.5037 4.7656,-0.5124 3.9479,-0.0386 7.4115,0.7558 10.5469,2.3816 3.1353,1.6257 5.756,3.8258 7.8058,6.6528 2.054,2.7752 3.5543,5.9697 4.501,9.5838 0.8946,3.6145 1.2569,7.3897 0.9311,11.3269 -0.5059,6.1128 -2.5792,11.7235 -6.2156,16.7799 -3.6365,5.0563 -8.7718,8.7816 -15.4621,11.2281 0.2055,2.5343 0.6284,6.2053 1.3292,10.9088 0.6444,4.756 1.1106,8.5301 1.3985,11.3224 0.2879,2.7922 0.2728,5.4842 0.0542,8.1261 -0.3386,4.0926 -1.6257,7.7285 -3.8653,10.9597 -2.2917,3.2316 -5.1986,5.7447 -8.7728,7.5395 -3.5222,1.7944 -7.335,2.7116 -11.3868,2.751 -5.7139,0.0559 -10.5678,-1.5013 -14.5656,-4.6198 -3.9937,-3.1703 -5.9234,-7.4477 -5.6768,-12.937 0.3574,-2.4362 1.1174,-4.7212 2.3364,-6.907 1.2188,-2.1859 2.7671,-3.961 4.6966,-5.3258 1.8818,-1.4159 4.0717,-2.162 6.5259,-2.3412 2.0259,-0.0198 3.9007,0.5312 5.6287,1.6014 1.6718,1.1224 3.0019,2.6105 3.9342,4.5166 0.8802,1.9065 1.2758,4.0251 1.0872,6.3043 -0.253,3.0565 -1.5062,5.657 -3.7598,7.8011 -2.2535,2.1441 -4.9929,3.258 -8.1614,3.289l-1.1947 0.0118c1.7685,3.0885 4.9602,4.6618 9.5832,4.6167 2.3376,-0.0228 4.7701,-0.5642 7.2366,-1.52 2.5229,-1.0082 4.656,-2.3232 6.5073,-3.9975 1.8512,-1.6745 3.1399,-3.447 3.7617,-5.3166 1.0589,-2.1326 1.7189,-5.0894 2.0232,-8.7677 0.2059,-2.4865 0.1519,-4.9706 -0.1098,-7.4526 -0.266,-2.4303 -0.7233,-5.6869 -1.3757,-9.718 -0.6569,-3.9792 -1.1268,-7.0803 -1.3666,-9.2003 -3.181,0.8073 -6.4358,1.2533 -9.8123,1.2865 -5.6619,0.0553 -10.9178,-1.0323 -15.7636,-3.3141 -4.8459,-2.2818 -8.9953,-5.4506 -12.4964,-9.5575 -3.4489,-4.1073 -6.0239,-8.7407 -7.7164,-14.0038 -1.6447,-5.2121 -2.2814,-10.6925 -1.8615,-16.3906 0.645,-5.286 2.0521,-10.3726 4.3166,-15.1569 2.2688,-4.836 5.0355,-9.418 8.3479,-13.6949 3.3124,-4.277 6.6988,-8.1922 10.1546,-11.694 3.5036,-3.4506 8.0754,-7.895 13.8154,-13.2825l-0.0002 0z"/>
   <path id="_130086760" class="fil1 str1" d="M66.2523 158.51c7.1444,-3.21 12.4733,-11.7219 12.6053,-21.3293 0.1596,-11.6014 -7.319,-20.414 -16.7002,-19.6794 -0.2198,0.0172 -0.4387,0.0395 -0.6567,0.0668l4.7516 40.9419z"/>
  </g>
  <g id="_127782912">
   <path id="path2278" class="fil2" d="M232.529 158.148c-9.0725,0.9578 -13.9147,4.1785 -14.5236,9.6341 -0.781,6.9965 3.9597,10.4947 14.1938,10.4947l3.6089 0c9.6821,-1.874 14.8804,-6.0108 15.5916,-12.3826l0.4184 -3.7481 -6.5409 0c-3.4663,-2.6653 -7.2223,-3.998 -11.2821,-3.998l-1.4662 0 0.0001 -0.0001z"/>
   <path id="path2278-3" class="fil2" d="M180.445 149.141c-9.0725,0.9578 -13.9147,4.1785 -14.5236,9.6341 -0.781,6.9965 3.9598,10.4948 14.1939,10.4948l3.6088 -0.0002c9.6821,-1.8739 14.8805,-6.0107 15.5917,-12.3826l0.4184 -3.7481 -6.541 0c-3.4662,-2.6653 -7.2223,-3.998 -11.2821,-3.998l-1.4661 0z"/>
   <path id="path3066" class="fil3 str2" d="M229.687 191.973c-26.809,10.6074 -42.61,2.8022 -54.1169,-11.6212"/>
   <g>
    <path id="_78756056" class="fil4" d="M255.332 94.8888l1.6617 2.1531 -5.4116 65.3411 -4.5678 0.1231 5.4116 -65.3411 2.9061 -2.2762zm0 0l1.8145 0.3069 -0.1528 1.8462 -1.6617 -2.1531zm-54.9974 -6.5353l2.9061 -2.2762 52.0913 8.8115 -1.2445 4.4294 -52.0913 -8.8116 -1.6616 -2.1531zm0 0l0.226 -2.7295 2.6801 0.4533 -2.9061 2.2762zm-5.4116 65.341l5.4116 -65.341 4.5678 -0.1231 -5.4116 65.3409 -4.5678 0.1232z"/>
   </g>
   <g>
    <polygon id="_77926728" class="fil4" points="202.516,95.3984 254.66,103.58 253.469,108.011 201.326,99.831 "/>
   </g>
  </g>
  <g id="_127801840">
   <g>
    <polygon id="_127828744" class="fil4" points="272.447,69.3318 9.2599,69.3316 9.593,67.1043 272.78,67.1045 "/>
   </g>
   <g>
    <polygon id="_127833264" class="fil4" points="272.447,93.7711 9.2599,93.7711 9.593,91.5438 272.78,91.5438 "/>
   </g>
   <g>
    <polygon id="_127837720" class="fil4" points="272.448,122.263 9.2599,122.263 9.593,120.036 272.781,120.036 "/>
   </g>
   <g>
    <polygon id="_127842184" class="fil4" points="272.445,146.706 9.2593,146.706 9.5936,144.471 272.78,144.471 "/>
   </g>
   <g>
    <polygon id="_127846640" class="fil4" points="272.447,171.141 9.2599,171.141 9.593,168.914 272.78,168.914 "/>
   </g>
  </g>
  <path class="fil2" d="M144.346 115.548c-3.9336,0 -6.0216,-3.7835 -6.0216,-6.7571 0,-3.4234 2.1679,-6.9365 5.7806,-6.9365 0.321,0 0.723,0 1.1239,0.0896 -2.2478,-3.3337 -5.7806,-5.3152 -9.6343,-5.3152 -8.5103,0 -9.0723,6.5764 -9.0723,16.757l0 4.5949 0 4.5949c0,10.1805 0.562,16.8479 9.0723,16.8479 6.4226,0 11.1603,-6.306 12.6851,-13.604 0.1611,-0.6305 0.562,-0.901 0.964,-0.901 0.482,0 1.044,0.3602 1.044,1.0818 0,8.4682 -8.4305,15.6764 -14.6919,15.6764 -5.4596,0 -10.9992,-1.8917 -14.773,-6.306 -3.9337,-4.5948 -5.2986,-10.9918 -5.2986,-17.3875 0,-6.3957 1.3649,-12.7926 5.2986,-17.3875 3.7738,-4.4142 9.3134,-6.2163 14.773,-6.2163 6.9844,0 12.8461,5.7664 14.0499,13.5143 0.08,0.4499 0.08,0.8113 0.08,1.1715 0,3.6041 -2.4088,6.4866 -5.3797,6.4866l0 -0.0038z"/>
 </g>
</svg>
