<?xml version="1.0" encoding="UTF-8" standalone="no"?>
<svg
   xmlns:dc="http://purl.org/dc/elements/1.1/"
   xmlns:cc="http://creativecommons.org/ns#"
   xmlns:rdf="http://www.w3.org/1999/02/22-rdf-syntax-ns#"
   xmlns:svg="http://www.w3.org/2000/svg"
   xmlns="http://www.w3.org/2000/svg"
   id="svg2"
   viewBox="0 0 0.80800001 4.4479997"
   height="7.8164639mm"
   width="1.4198973mm"
   version="1.2">
  <title
     id="title3376">Arpeggio</title>
  <metadata
     id="metadata48">
    <rdf:RDF>
      <cc:Work
         rdf:about="">
        <dc:format>image/svg+xml</dc:format>
        <dc:type
           rdf:resource="http://purl.org/dc/dcmitype/StillImage" />
        <dc:title>Arpeggio</dc:title>
        <cc:license
           rdf:resource="http://creativecommons.org/publicdomain/mark/1.0/" />
      </cc:Work>
      <cc:License
         rdf:about="http://creativecommons.org/publicdomain/mark/1.0/">
        <cc:permits
           rdf:resource="http://creativecommons.org/ns#Reproduction" />
        <cc:permits
           rdf:resource="http://creativecommons.org/ns#Distribution" />
        <cc:permits
           rdf:resource="http://creativecommons.org/ns#DerivativeWorks" />
      </cc:License>
    </rdf:RDF>
  </metadata>
  <defs
     id="defs46" />
  <!-- Page: 1/1 -->
  <path
     style="fill:currentColor"
     id="path22"
     d="M 0.172,0.112 C 0.156,0.1 0.148,0.08 0.148,0.064 0.148,0.032 0.176,0 0.212,0 0.224,0 0.24,0.004 0.252,0.016 l 0.512,0.428 c 0.032,0.024 0.044,0.052 0.044,0.08 0,0.096 -0.156,0.204 -0.272,0.312 -0.06,0.056 -0.092,0.136 -0.092,0.212 0,0.068 0.02,0.132 0.068,0.188 l 0.124,0.1 C 0.652,1.348 0.66,1.368 0.66,1.384 0.66,1.416 0.632,1.448 0.596,1.448 0.584,1.448 0.568,1.444 0.556,1.432 L 0.044,1.004 C 0.012,0.98 0,0.952 0,0.924 0,0.828 0.156,0.72 0.272,0.612 0.332,0.556 0.364,0.476 0.364,0.4 0.364,0.332 0.344,0.268 0.296,0.212 Z" />
  <path
     style="fill:currentColor"
     id="path24"
     d="M 0.172,1.112 C 0.156,1.1 0.148,1.08 0.148,1.064 0.148,1.032 0.176,1 0.212,1 0.224,1 0.24,1.004 0.252,1.016 l 0.512,0.428 c 0.032,0.024 0.044,0.052 0.044,0.08 0,0.096 -0.156,0.204 -0.272,0.312 -0.06,0.056 -0.092,0.136 -0.092,0.212 0,0.068 0.02,0.132 0.068,0.188 l 0.124,0.1 C 0.652,2.348 0.66,2.368 0.66,2.384 0.66,2.416 0.632,2.448 0.596,2.448 0.584,2.448 0.568,2.444 0.556,2.432 L 0.044,2.004 C 0.012,1.98 0,1.952 0,1.924 0,1.828 0.156,1.72 0.272,1.612 0.332,1.556 0.364,1.476 0.364,1.4 0.364,1.332 0.344,1.268 0.296,1.212 Z" />
  <path
     style="fill:currentColor"
     id="path26"
     d="M 0.172,2.112 C 0.156,2.1 0.148,2.08 0.148,2.064 0.148,2.032 0.176,2 0.212,2 0.224,2 0.24,2.004 0.252,2.016 l 0.512,0.428 c 0.032,0.024 0.044,0.052 0.044,0.08 0,0.096 -0.156,0.204 -0.272,0.312 -0.06,0.056 -0.092,0.136 -0.092,0.212 0,0.068 0.02,0.132 0.068,0.188 l 0.124,0.1 C 0.652,3.348 0.66,3.368 0.66,3.384 0.66,3.416 0.632,3.448 0.596,3.448 0.584,3.448 0.568,3.444 0.556,3.432 L 0.044,3.004 C 0.012,2.98 0,2.952 0,2.924 0,2.828 0.156,2.72 0.272,2.612 0.332,2.556 0.364,2.476 0.364,2.4 0.364,2.332 0.344,2.268 0.296,2.212 Z" />
  <path
     style="fill:currentColor"
     id="path28"
     d="M 0.172,3.112 C 0.156,3.1 0.148,3.08 0.148,3.064 0.148,3.032 0.176,3 0.212,3 0.224,3 0.24,3.004 0.252,3.016 l 0.512,0.428 c 0.032,0.024 0.044,0.052 0.044,0.08 0,0.096 -0.156,0.204 -0.272,0.312 -0.06,0.056 -0.092,0.136 -0.092,0.212 0,0.068 0.02,0.132 0.068,0.188 l 0.124,0.1 C 0.652,4.348 0.66,4.368 0.66,4.384 0.66,4.416 0.632,4.448 0.596,4.448 0.584,4.448 0.568,4.444 0.556,4.432 L 0.044,4.004 C 0.012,3.98 0,3.952 0,3.924 0,3.828 0.156,3.72 0.272,3.612 0.332,3.556 0.364,3.476 0.364,3.4 0.364,3.332 0.344,3.268 0.296,3.212 Z" />
</svg>
