<?xml version="1.0" encoding="iso-8859-1"?>
<!-- Generator: Adobe Illustrator 19.0.0, SVG Export Plug-In . SVG Version: 6.00 Build 0)  -->
<svg version="1.1" id="Capa_1" xmlns="http://www.w3.org/2000/svg" xmlns:xlink="http://www.w3.org/1999/xlink" x="0px" y="0px"
	 viewBox="0 0 270 270" style="enable-background:new 0 0 270 270;" xml:space="preserve">
<g id="XMLID_520_">
	<path id="XMLID_521_" d="M95,0C46.286,0,20,35.035,20,68c0,16.393,5.134,30.499,14.848,40.794C44.851,119.396,58.736,125,75,125
		c16.569,0,30-13.431,30-30S91.569,65,75,65c-9.828,0-18.551,4.726-24.023,12.028C50.234,73.834,50,70.676,50,68
		c0-18.884,15.457-38,45-38c37.664,0,65,35.748,65,85c0,47.058-20.573,76.48-37.831,92.875C100.995,227.991,72.146,240,45,240v30
		c35.164,0,70.822-14.716,97.831-40.375C173.248,200.729,190,160.02,190,115c0-31.97-9.544-61.113-26.874-82.062
		C145.554,11.698,121.36,0,95,0z"/>
	<circle id="XMLID_522_" cx="235" cy="60" r="15"/>
	<circle id="XMLID_523_" cx="235" cy="120" r="15"/>
</g>
<g>
</g>
<g>
</g>
<g>
</g>
<g>
</g>
<g>
</g>
<g>
</g>
<g>
</g>
<g>
</g>
<g>
</g>
<g>
</g>
<g>
</g>
<g>
</g>
<g>
</g>
<g>
</g>
<g>
</g>
</svg>
