<?xml version="1.0" encoding="UTF-8" standalone="no"?>
<!-- Created with Inkscape (http://www.inkscape.org/) -->
<svg
   xmlns:dc="http://purl.org/dc/elements/1.1/"
   xmlns:cc="http://creativecommons.org/ns#"
   xmlns:rdf="http://www.w3.org/1999/02/22-rdf-syntax-ns#"
   xmlns:svg="http://www.w3.org/2000/svg"
   xmlns="http://www.w3.org/2000/svg"
   xmlns:sodipodi="http://sodipodi.sourceforge.net/DTD/sodipodi-0.dtd"
   xmlns:inkscape="http://www.inkscape.org/namespaces/inkscape"
   width="105.00001"
   height="41.815807"
   id="svg2849"
   sodipodi:version="0.32"
   inkscape:version="0.46"
   version="1.0"
   sodipodi:docname="Beamed notes.svg"
   inkscape:output_extension="org.inkscape.output.svg.inkscape">
  <defs
     id="defs2851">
    <inkscape:perspective
       sodipodi:type="inkscape:persp3d"
       inkscape:vp_x="0 : 526.18109 : 1"
       inkscape:vp_y="0 : 1000 : 0"
       inkscape:vp_z="744.09448 : 526.18109 : 1"
       inkscape:persp3d-origin="372.04724 : 350.78739 : 1"
       id="perspective2857" />
  </defs>
  <sodipodi:namedview
     id="base"
     pagecolor="#ffffff"
     bordercolor="#666666"
     borderopacity="1.0"
     gridtolerance="10000"
     guidetolerance="10"
     objecttolerance="10"
     inkscape:pageopacity="0.0"
     inkscape:pageshadow="2"
     inkscape:zoom="3.388"
     inkscape:cx="62.857143"
     inkscape:cy="31.428571"
     inkscape:document-units="px"
     inkscape:current-layer="layer1"
     showgrid="false"
     inkscape:window-width="809"
     inkscape:window-height="669"
     inkscape:window-x="161"
     inkscape:window-y="161" />
  <metadata
     id="metadata2854">
    <rdf:RDF>
      <cc:Work
         rdf:about="">
        <dc:format>image/svg+xml</dc:format>
        <dc:type
           rdf:resource="http://purl.org/dc/dcmitype/StillImage" />
      </cc:Work>
    </rdf:RDF>
  </metadata>
  <g
     inkscape:label="Layer 1"
     inkscape:groupmode="layer"
     id="layer1"
     transform="translate(-325.01435,-510.45294)">
    <g
       id="g2836"
       transform="matrix(1.0002872,0,0,1.0002872,322.48746,509.45583)">
      <path
         id="text1031"
         d="M 11.975894,30.647154 C 10.565755,30.860915 9.2897274,31.3697 8.147808,32.173511 C 7.0058823,32.977331 6.1492375,33.964017 5.5778708,35.133572 C 5.3649276,35.570024 5.2153803,35.974776 5.1292284,36.347831 C 5.0430762,36.720886 5.0105661,37.135392 5.0316981,37.59135 C 5.0300727,37.853056 5.0333237,38.051368 5.0414512,38.186287 C 5.0495786,38.321202 5.0723358,38.460997 5.1097228,38.60567 C 5.3738678,39.56797 5.898908,40.325459 6.6848449,40.878138 C 7.4707785,41.430808 8.4542137,41.739656 9.6351536,41.804682 C 11.35169,41.824995 12.951194,41.335716 14.433671,40.336842 C 15.916128,39.337961 16.930448,38.058683 17.476633,36.499004 C 17.571713,36.19991 17.635108,35.930075 17.666818,35.689498 C 17.698502,35.448923 17.713132,35.159582 17.710707,34.821474 C 17.712319,34.56058 17.709068,34.360642 17.700953,34.221658 C 17.692813,34.082679 17.670056,33.931506 17.632682,33.768141 C 17.531887,33.41053 17.38234,33.06267 17.18404,32.72456 C 16.985715,32.386457 16.758143,32.097116 16.501324,31.856536 C 15.870614,31.303867 15.06436,30.926748 14.08256,30.725179 C 13.804588,30.668291 13.453478,30.63578 13.029227,30.627647 C 12.60496,30.619525 12.253849,30.626028 11.975894,30.647154 L 11.975894,30.647154 z"
         style="font-size:39.01283646px;fill:#000000;fill-opacity:1;font-family:Emmentaler" />
      <path
         id="text1041"
         d="M 51.666737,30.647154 C 50.256598,30.860915 48.980571,31.3697 47.838651,32.173511 C 46.696725,32.977331 45.840081,33.964017 45.268714,35.133572 C 45.055771,35.570024 44.906223,35.974776 44.820071,36.347831 C 44.733919,36.720886 44.701409,37.135392 44.722541,37.59135 C 44.720916,37.853056 44.724167,38.051368 44.732294,38.186287 C 44.740422,38.321202 44.763179,38.460997 44.800566,38.60567 C 45.064711,39.56797 45.589751,40.325459 46.375688,40.878138 C 47.161622,41.430808 48.145057,41.739656 49.325997,41.804682 C 51.042533,41.824995 52.642037,41.335716 54.124514,40.336842 C 55.606972,39.337961 56.621291,38.058683 57.167476,36.499004 C 57.262556,36.19991 57.325951,35.930075 57.357661,35.689498 C 57.389345,35.448923 57.403975,35.159582 57.40155,34.821474 C 57.403163,34.56058 57.399911,34.360642 57.391796,34.221658 C 57.383656,34.082679 57.360899,33.931506 57.323525,33.768141 C 57.222731,33.41053 57.073183,33.06267 56.874883,32.72456 C 56.676558,32.386457 56.448986,32.097116 56.192167,31.856536 C 55.561458,31.303867 54.755203,30.926748 53.773403,30.725179 C 53.495431,30.668291 53.144321,30.63578 52.72007,30.627647 C 52.295803,30.619525 51.944692,30.626028 51.666737,30.647154 L 51.666737,30.647154 z"
         style="font-size:39.01283646px;fill:#000000;fill-opacity:1;font-family:Emmentaler" />
      <path
         id="text1047"
         d="M 63.508899,34.197276 C 63.331716,34.237103 63.159412,34.303749 62.991985,34.397214 C 62.824556,34.490683 62.671758,34.606095 62.533591,34.743449 C 62.123961,35.172585 61.919146,35.660239 61.919146,36.206411 C 61.919147,36.752584 62.123961,37.240237 62.533591,37.669374 C 62.962725,38.079001 63.450378,38.283816 63.996553,38.283818 C 64.542723,38.283817 65.030377,38.079002 65.459516,37.669374 C 65.792742,37.330453 65.994305,36.945207 66.064206,36.513633 C 66.134099,36.08206 66.062577,35.648048 65.849639,35.211597 C 65.763483,35.066114 65.633442,34.908439 65.459516,34.738571 C 65.285582,34.568707 65.116529,34.440292 64.952355,34.353326 C 64.73372,34.237103 64.498021,34.167206 64.245255,34.143634 C 63.992485,34.120066 63.747034,34.137947 63.508899,34.197276 L 63.508899,34.197276 z"
         style="font-size:39.01283646px;fill:#000000;fill-opacity:1;font-family:Emmentaler" />
      <path
         id="text1057"
         d="M 99.261528,30.647154 C 97.851389,30.860915 96.575362,31.3697 95.433443,32.173511 C 94.291517,32.977331 93.434872,33.964017 92.863505,35.133572 C 92.650562,35.570024 92.501015,35.974776 92.414863,36.347831 C 92.328711,36.720886 92.296201,37.135392 92.317333,37.59135 C 92.315707,37.853056 92.318958,38.051368 92.327086,38.186287 C 92.335213,38.321202 92.35797,38.460997 92.395357,38.60567 C 92.659502,39.56797 93.184542,40.325459 93.970479,40.878138 C 94.756413,41.430808 95.739848,41.739656 96.920788,41.804682 C 98.637324,41.824995 100.23683,41.335716 101.71931,40.336842 C 103.20176,39.337961 104.21608,38.058683 104.76227,36.499004 C 104.85735,36.19991 104.92074,35.930075 104.95245,35.689498 C 104.98414,35.448923 104.99877,35.159582 104.99634,34.821474 C 104.99795,34.56058 104.9947,34.360642 104.98659,34.221658 C 104.97845,34.082679 104.95569,33.931506 104.91832,33.768141 C 104.81752,33.41053 104.66797,33.06267 104.46967,32.72456 C 104.27135,32.386457 104.04378,32.097116 103.78696,31.856536 C 103.15625,31.303867 102.34999,30.926748 101.36819,30.725179 C 101.09022,30.668291 100.73911,30.63578 100.31486,30.627647 C 99.890594,30.619525 99.539483,30.626028 99.261528,30.647154 L 99.261528,30.647154 z"
         style="font-size:39.01283646px;fill:#000000;fill-opacity:1;font-family:Emmentaler" />
      <g
         style="fill:#000000;fill-opacity:1"
         id="g1159"
         transform="matrix(9.8391276,0,0,9.7532091,16.040525,3.9427923)">
        <polygon
           style="fill:#000000;fill-opacity:1;stroke-width:0.08;stroke-linecap:round;stroke-linejoin:round"
           id="polygon1161"
           points="9.039427,-0.2 9.039427,0.2 0.04,0.2 0.04,-0.2 9.039427,-0.2 "
           stroke="currentColor" />
      </g>
      <g
         style="fill:#000000;fill-opacity:1"
         id="g1163"
         transform="matrix(9.7532091,0,0,9.7532091,91.477014,11.842891)">
        <polygon
           style="fill:#000000;fill-opacity:1;stroke-width:0.08;stroke-linecap:round;stroke-linejoin:round"
           id="polygon1165"
           points="1.345,-0.2 1.345,0.2 0.04,0.2 0.04,-0.2 1.345,-0.2 "
           stroke="currentColor" />
      </g>
      <rect
         y="4.966341"
         x="16.434088"
         height="29.747393"
         width="1.2654259"
         id="rect4738"
         style="fill:#000000;fill-opacity:1;stroke:none;stroke-width:0.97246778;stroke-linecap:butt;stroke-miterlimit:4;stroke-dasharray:2.91740334, 2.91740334;stroke-dashoffset:0;stroke-opacity:1" />
      <rect
         y="4.7226834"
         x="56.145145"
         height="29.991045"
         width="1.2654259"
         id="rect4744"
         style="fill:#000000;fill-opacity:1;stroke:none;stroke-width:0.97246778;stroke-linecap:butt;stroke-miterlimit:4;stroke-dasharray:2.91740334, 2.91740334;stroke-dashoffset:0;stroke-opacity:1" />
      <rect
         y="3.6456423"
         x="103.71519"
         height="31.068089"
         width="1.2654259"
         id="rect4748"
         style="fill:#000000;fill-opacity:1;stroke:none;stroke-width:0.97246778;stroke-linecap:butt;stroke-miterlimit:4;stroke-dasharray:2.91740334, 2.91740334;stroke-dashoffset:0;stroke-opacity:1" />
    </g>
  </g>
</svg>
