<svg><path transform="scale (2,2.15) translate (0,1.95)" d="m268.405 328.253c0 37.867-14.799 74.864-14.799 110.991 0 19.587 4.353 37.867 18.716 52.231 2.176 2.176-1.306 5.658-3.482 3.482-19.151-19.587-25.68-45.267-25.68-72.688 0-38.738 15.669-76.605 15.669-113.167 0-19.587-4.788-37.867-18.716-52.231C239.678 256.435 239.678 256.435 239.678 256 239.678 255.565 239.678 255.565 240.113 255.129c13.928-14.363 18.716-32.644 18.716-52.231 0-36.562-15.669-74.429-15.669-113.167 0-27.421 6.529-53.101 25.68-72.688 2.176-2.176 5.658 1.306 3.482 3.482-14.363 14.363-18.716 32.644-18.716 52.231 0 36.126 14.799 73.123 14.799 110.991 0 26.986-6.529 52.666-25.245 72.253 18.716 19.587 25.245 45.267 25.245 72.253z"></path></svg>