<?xml version="1.0" encoding="UTF-8" standalone="no"?>
<svg
   xmlns:dc="http://purl.org/dc/elements/1.1/"
   xmlns:cc="http://creativecommons.org/ns#"
   xmlns:rdf="http://www.w3.org/1999/02/22-rdf-syntax-ns#"
   xmlns:svg="http://www.w3.org/2000/svg"
   xmlns="http://www.w3.org/2000/svg"
   xmlns:sodipodi="http://sodipodi.sourceforge.net/DTD/sodipodi-0.dtd"
   xmlns:inkscape="http://www.inkscape.org/namespaces/inkscape"
   version="1.2"
   width="5.6537971"
   height="15.641341"
   viewBox="0 0 0.90800003 2.5119999"
   id="svg3019"
   inkscape:version="0.48.5 r10040"
   sodipodi:docname="bécarre-bémol.svg">
  <metadata
     id="metadata3113">
    <rdf:RDF>
      <cc:Work
         rdf:about="">
        <dc:format>image/svg+xml</dc:format>
        <dc:type
           rdf:resource="http://purl.org/dc/dcmitype/StillImage" />
        <dc:title></dc:title>
      </cc:Work>
    </rdf:RDF>
  </metadata>
  <defs
     id="defs3111" />
  <sodipodi:namedview
     pagecolor="#ffffff"
     bordercolor="#666666"
     borderopacity="1"
     objecttolerance="10"
     gridtolerance="10"
     guidetolerance="10"
     inkscape:pageopacity="0"
     inkscape:pageshadow="2"
     inkscape:window-width="1920"
     inkscape:window-height="1018"
     id="namedview3109"
     showgrid="false"
     fit-margin-top="0"
     fit-margin-left="0"
     fit-margin-right="0"
     fit-margin-bottom="0"
     inkscape:zoom="5.6568542"
     inkscape:cx="55.801797"
     inkscape:cy="-33.087705"
     inkscape:window-x="-8"
     inkscape:window-y="-8"
     inkscape:window-maximized="1"
     inkscape:current-layer="svg3019" />
  <!-- Page: 1/1 -->
  <text
     transform="translate(-24.0348,-1)"
     font-size="2.2001"
     id="text3021"
     style="font-size:2.20009995px;text-anchor:start;fill:currentColor;font-family:Century Schoolbook L">
    <tspan
       id="tspan3023" />
  </text>
  <path
     transform="matrix(0.004,0,0,-0.004,0.108,1.86)"
     d="m 27,41 -1,-66 v -11 c 0,-22 1,-44 4,-66 45,38 93,80 93,139 0,33 -14,67 -43,67 C 49,104 28,74 27,41 z m -42,-179 -12,595 c 8,5 18,8 27,8 9,0 19,-3 27,-8 L 20,112 c 25,21 58,34 91,34 52,0 89,-48 89,-102 0,-80 -86,-117 -147,-169 -15,-13 -24,-38 -45,-38 -13,0 -23,11 -23,25 z"
     id="path3089"
     inkscape:connector-curvature="0"
     style="fill:currentColor" />
</svg>
