<?xml version="1.0" encoding="UTF-8" standalone="no"?>
<!-- Created with Inkscape (http://www.inkscape.org/) -->

<svg
   xmlns:dc="http://purl.org/dc/elements/1.1/"
   xmlns:cc="http://creativecommons.org/ns#"
   xmlns:rdf="http://www.w3.org/1999/02/22-rdf-syntax-ns#"
   xmlns:svg="http://www.w3.org/2000/svg"
   xmlns="http://www.w3.org/2000/svg"
   xmlns:sodipodi="http://sodipodi.sourceforge.net/DTD/sodipodi-0.dtd"
   xmlns:inkscape="http://www.inkscape.org/namespaces/inkscape"
   version="1.1"
   id="svg815"
   width="80"
   height="80"
   viewBox="0 0 80 79.999999"
   sodipodi:docname="castle-short.svg"
   style="shape-rendering:crispEdges"
   inkscape:version="0.92.4 (unknown)">
  <metadata
     id="metadata821">
    <rdf:RDF>
      <cc:Work
         rdf:about="">
        <dc:format>image/svg+xml</dc:format>
        <dc:type
           rdf:resource="http://purl.org/dc/dcmitype/StillImage" />
        <dc:title></dc:title>
      </cc:Work>
    </rdf:RDF>
  </metadata>
  <defs
     id="defs819" />
  <sodipodi:namedview
     pagecolor="#ffffff"
     bordercolor="#666666"
     borderopacity="1"
     objecttolerance="10"
     gridtolerance="10"
     guidetolerance="10"
     inkscape:pageopacity="0"
     inkscape:pageshadow="2"
     inkscape:window-width="1366"
     inkscape:window-height="703"
     id="namedview817"
     showgrid="true"
     inkscape:snap-global="true"
     inkscape:zoom="8"
     inkscape:cx="34.217554"
     inkscape:cy="65.942015"
     inkscape:window-x="0"
     inkscape:window-y="0"
     inkscape:window-maximized="1"
     inkscape:current-layer="g825">
    <inkscape:grid
       type="xygrid"
       id="grid6348"
       originx="69.999999"
       originy="25.000002" />
  </sodipodi:namedview>
  <g
     id="g825"
     transform="matrix(0.52490037,0,0,0.49084053,40.871044,-173.07472)">
    <path
       style="display:inline;fill:#fbbbaf;stroke-width:0.49252847"
       d="m -63.575959,434.1017 h -8.573056 v -7.13062 -7.13062 h -2.857684 -2.857686 v -1.01861 -1.01871 h 3.810247 3.810246 v 7.13064 7.13063 h 6.667933 6.667934 v -7.13063 -7.13064 h 8.573053 8.573056 v 7.13064 7.13063 h 6.667932 6.667934 v -7.13063 -7.13064 h 8.573056 8.5730565 v 7.13064 7.13063 h 6.6679298 6.6679334 v -7.13063 -7.13064 h 8.5730553 8.573057 v 7.13064 7.13063 h 6.667932 6.66793 v -7.13063 -7.13064 h 8.573059 8.573053 v 7.13064 7.13063 h 6.667934 6.667938 v -7.13063 -7.13064 h 4.762825 4.762781 v 1.01871 1.01861 h -3.810232 -3.810261 v 7.13062 7.13062 h -8.573051 -8.573055 v -7.13062 -7.13062 h -6.667932 -6.667932 v 7.13062 7.13062 H 27.86997 19.296912 v -7.13062 -7.13062 H 12.628981 5.9610477 v 7.13062 7.13062 h -8.5730554 -8.5730563 v -7.13062 -7.13062 h -6.66793 -6.667934 v 7.13062 7.13062 h -8.573056 -8.573057 v -7.13062 -7.13062 h -6.667931 -6.66793 v 7.13062 7.13062 z m 30.481975,-65.19427 h -8.573057 v -7.13061 -7.13063 h -2.857683 -2.857684 v -1.01866 -1.01867 h 3.810246 3.810246 v 7.13065 7.13059 h 6.667932 6.667934 v -7.13059 -7.13065 h 8.573056 8.5730565 v 7.13065 7.13059 h 6.6679298 6.6679334 v -7.13059 -7.13065 h 8.5730553 8.573057 v 7.13065 7.13059 h 6.667932 6.66793 v -7.13059 -7.13065 h 4.762806 4.762813 v 1.01867 1.01866 h -3.810246 -3.810246 v 7.13063 7.13061 H 27.86997 19.296912 v -7.13061 -7.13063 H 12.628981 5.9610477 v 7.13063 7.13061 h -8.5730554 -8.5730563 v -7.13061 -7.13063 h -6.66793 -6.667934 v 7.13063 7.13061 z"
       id="path831"
       inkscape:connector-curvature="0" />
    <path
       style="display:inline;fill:#c74a0a;stroke-width:0.49252847"
       d="m -75.006699,513.55728 h -2.857686 v -3.05597 -3.05601 h 2.857686 2.857684 v 3.05601 3.05597 z m 11.43074,0 h -6.667933 v -3.05597 -3.05601 h 6.667933 6.667934 v 3.05601 3.05597 z m 15.240987,0 h -6.66793 v -3.05597 -3.05601 h 6.66793 6.667931 v 3.05601 3.05597 z m 15.240988,0 h -6.667932 v -3.05597 -3.05601 h 6.667932 6.667934 v 3.05601 3.05597 z m 12.383304,0 h -3.810248 v -3.05597 -3.05601 h 3.810248 3.810245 v 3.05601 3.05597 z m 37.14991,0 h -2.857685 v -3.05597 -3.05601 h 2.857685 2.857682 v 3.05601 3.05597 z m 11.43074,0 h -6.667932 v -3.05597 -3.05601 h 6.667932 6.66793 v 3.05601 3.05597 z m 15.240989,0 h -6.667932 v -3.05597 -3.05601 h 6.667932 6.667932 v 3.05601 3.05597 z m 15.240987,0 h -6.667934 v -3.05597 -3.05601 h 6.667934 6.667938 v 3.05601 3.05597 z m 12.383312,0 h -3.810261 v -3.05597 -3.05601 h 3.810261 3.810232 v 3.05601 3.05597 z m -141.931711,-8.14931 h -6.667932 v -3.05598 -3.05598 h 6.667932 6.667934 v 3.05598 3.05598 z m 15.240987,0 h -6.66793 v -3.05598 -3.05598 h 6.66793 6.667935 v 3.05598 3.05598 z m 15.240989,0 h -6.667931 v -3.05598 -3.05598 h 6.667931 6.667932 v 3.05598 3.05598 z m 15.240985,0 h -6.667931 v -3.05598 -3.05598 h 6.667931 6.667934 v 3.05598 3.05598 z m 45.722967,0 h -6.66793 v -3.05598 -3.05598 h 6.66793 6.667933 v 3.05598 3.05598 z m 15.240991,0 H 28.82253 v -3.05598 -3.05598 h 6.667936 6.667931 v 3.05598 3.05598 z m 15.240982,0 h -6.667929 v -3.05598 -3.05598 h 6.667929 6.667931 v 3.05598 3.05598 z m 15.240993,0 h -6.667935 v -3.05598 -3.05598 h 6.667935 6.667929 v 3.05598 3.05598 z m -140.97914,-8.14925 h -2.857686 v -3.056 -3.05598 h 2.857686 2.857684 v 3.05598 3.056 z m 11.43074,0 h -6.667933 v -3.056 -3.05598 h 6.667933 6.667934 v 3.05598 3.056 z m 15.240987,0 h -6.66793 v -3.056 -3.05598 h 6.66793 6.667931 v 3.05598 3.056 z m 15.240988,0 h -6.667932 v -3.056 -3.05598 h 6.667932 6.667934 v 3.05598 3.056 z m 12.383304,0 h -3.810248 v -3.056 -3.05598 h 3.810248 3.810245 v 3.05598 3.056 z m 37.14991,0 h -2.857685 v -3.056 -3.05598 h 2.857685 2.857682 v 3.05598 3.056 z m 11.43074,0 h -6.667932 v -3.056 -3.05598 h 6.667932 6.66793 v 3.05598 3.056 z m 15.240989,0 h -6.667932 v -3.056 -3.05598 h 6.667932 6.667932 v 3.05598 3.056 z m 15.240987,0 h -6.667934 v -3.056 -3.05598 h 6.667934 6.667938 v 3.05598 3.056 z m 12.383312,0 h -3.810261 v -3.056 -3.05598 h 3.810261 3.810232 v 3.05598 3.056 z m -141.931711,-8.14928 h -6.667932 v -3.05605 -3.05594 h 6.667932 6.667934 v 3.05594 3.05605 z m 15.240987,0 h -6.66793 v -3.05605 -3.05594 h 6.66793 6.667935 v 3.05594 3.05605 z m 15.240989,0 h -6.667931 v -3.05605 -3.05594 h 6.667931 6.667932 v 3.05594 3.05605 z m 15.240985,0 h -6.667931 v -3.05605 -3.05594 h 6.667931 6.667934 v 3.05594 3.05605 z m 45.722967,0 h -6.66793 v -3.05605 -3.05594 h 6.66793 6.667933 v 3.05594 3.05605 z m 15.240991,0 H 28.82253 v -3.05605 -3.05594 h 6.667936 6.667931 v 3.05594 3.05605 z m 15.240982,0 h -6.667929 v -3.05605 -3.05594 h 6.667929 6.667931 v 3.05594 3.05605 z m 15.240993,0 h -6.667935 v -3.05605 -3.05594 h 6.667935 6.667929 v 3.05594 3.05605 z m -140.97914,-8.14928 h -2.857686 v -3.05603 -3.05596 h 2.857686 2.857684 v 3.05596 3.05603 z m 11.43074,0 h -6.667933 v -3.05603 -3.05596 h 6.667933 6.667934 v 3.05596 3.05603 z m 15.240987,0 h -6.66793 v -3.05603 -3.05596 h 6.66793 6.667931 v 3.05596 3.05603 z m 15.240988,0 h -6.667932 v -3.05603 -3.05596 h 6.667932 6.667934 v 3.05596 3.05603 z m 12.383304,0 h -3.810248 v -3.05603 -3.05596 h 3.810248 3.810245 v 3.05596 3.05603 z m 37.14991,0 h -2.857685 v -3.05603 -3.05596 h 2.857685 2.857682 v 3.05596 3.05603 z m 11.43074,0 h -6.667932 v -3.05603 -3.05596 h 6.667932 6.66793 v 3.05596 3.05603 z m 15.240989,0 h -6.667932 v -3.05603 -3.05596 h 6.667932 6.667932 v 3.05596 3.05603 z m 15.240987,0 h -6.667934 v -3.05603 -3.05596 h 6.667934 6.667938 v 3.05596 3.05603 z m 12.383312,0 h -3.810261 v -3.05603 -3.05596 h 3.810261 3.810232 v 3.05596 3.05603 z m -141.931711,-8.14931 h -6.667932 v -3.05599 -3.056 h 6.667932 6.667934 v 3.056 3.05599 z m 15.240987,0 h -6.66793 v -3.05599 -3.056 h 6.66793 6.667935 v 3.056 3.05599 z m 15.240989,0 h -6.667931 v -3.05599 -3.056 h 6.667931 6.667932 v 3.056 3.05599 z m 15.240985,0 h -6.667931 v -3.05599 -3.056 h 6.667931 6.667934 v 3.056 3.05599 z m 45.722967,0 h -6.66793 v -3.05599 -3.056 h 6.66793 6.667933 v 3.056 3.05599 z m 15.240991,0 H 28.82253 v -3.05599 -3.056 h 6.667936 6.667931 v 3.056 3.05599 z m 15.240982,0 h -6.667929 v -3.05599 -3.056 h 6.667929 6.667931 v 3.056 3.05599 z m 15.240993,0 h -6.667935 v -3.05599 -3.056 h 6.667935 6.667929 v 3.056 3.05599 z m -140.97914,-8.1493 h -2.857686 v -3.05601 -3.05597 h 2.857686 2.857684 v 3.05597 3.05601 z m 11.43074,0 h -6.667933 v -3.05601 -3.05597 h 6.667933 6.667934 v 3.05597 3.05601 z m 15.240987,0 h -6.66793 v -3.05601 -3.05597 h 6.66793 6.667931 v 3.05597 3.05601 z m 15.240988,0 h -6.667932 v -3.05601 -3.05597 h 6.667932 6.667934 v 3.05597 3.05601 z m 12.383304,0 h -3.810248 v -3.05601 -3.05597 h 4.762806 4.762813 v 2.03734 2.03733 h -0.952562 -0.952564 v 1.01864 1.01867 z m 37.14991,0 h -2.857685 v -1.01867 -1.01864 h -0.952564 -0.95256 v -2.03733 -2.03734 h 3.810247 3.810244 v 3.05597 3.05601 z m 11.43074,0 h -6.667932 v -3.05601 -3.05597 h 6.667932 6.66793 v 3.05597 3.05601 z m 15.240989,0 h -6.667932 v -3.05601 -3.05597 h 6.667932 6.667932 v 3.05597 3.05601 z m 15.240987,0 h -6.667934 v -3.05601 -3.05597 h 6.667934 6.667938 v 3.05597 3.05601 z m 12.383312,0 h -3.810261 v -3.05601 -3.05597 h 3.810261 3.810232 v 3.05597 3.05601 z m -141.931711,-8.14931 h -6.667932 v -3.05595 -3.05598 h 6.667932 6.667934 v 3.05598 3.05595 z m 15.240987,0 h -6.66793 v -3.05595 -3.05598 h 6.66793 6.667935 v 3.05598 3.05595 z m 15.240989,0 h -6.667931 v -3.05595 -3.05598 h 6.667931 6.667932 v 3.05598 3.05595 z m 15.240985,0 h -6.667931 v -3.05595 -3.05598 h 6.667931 6.667934 v 3.05598 3.05595 z m 10.478183,0 h -1.905126 v -3.05595 -3.05598 h 4.762808 4.7628103 v 1.01869 1.01863 h -1.9051208 -1.9051265 v 1.01866 1.01863 h -0.952563 -0.952562 v 1.01871 1.01861 z m 25.719172,0 H 9.7712957 v -1.01861 -1.01871 h -0.952562 -0.95256 v -1.01863 -1.01866 h -1.905126 -1.905122 v -1.01863 -1.01869 h 3.810248 3.8102473 v 3.05598 3.05595 z m 9.525612,0 h -6.66793 v -3.05595 -3.05598 h 6.66793 6.667933 v 3.05598 3.05595 z m 15.240991,0 H 28.82253 v -3.05595 -3.05598 h 6.667936 6.667931 v 3.05598 3.05595 z m 15.240982,0 h -6.667929 v -3.05595 -3.05598 h 6.667929 6.667931 v 3.05598 3.05595 z m 15.240993,0 h -6.667935 v -3.05595 -3.05598 h 6.667935 6.667929 v 3.05598 3.05595 z m -140.97914,-8.14927 h -2.857686 v -3.05597 -3.05598 h 2.857686 2.857684 v 3.05598 3.05597 z m 11.43074,0 h -6.667933 v -3.05597 -3.05598 h 6.667933 6.667934 v 3.05598 3.05597 z m 15.240987,0 h -6.66793 v -3.05597 -3.05598 h 6.66793 6.667931 v 3.05598 3.05597 z m 15.240988,0 h -6.667932 v -3.05597 -3.05598 h 6.667932 6.667934 v 3.05598 3.05597 z m 15.24099,0 h -6.667934 v -3.05597 -3.05598 h 6.667934 6.66793 v 3.05598 3.05597 z m 15.2409863,0 h -6.6679298 v -3.05597 -3.05598 h 6.6679298 6.6679334 v 3.05598 3.05597 z m 15.2409887,0 H 5.9610477 v -3.05597 -3.05598 h 6.6679333 6.667931 v 3.05598 3.05597 z m 15.240989,0 h -6.667932 v -3.05597 -3.05598 h 6.667932 6.66793 v 3.05598 3.05597 z m 15.240989,0 h -6.667932 v -3.05597 -3.05598 h 6.667932 6.667932 v 3.05598 3.05597 z m 15.240987,0 h -6.667934 v -3.05597 -3.05598 h 6.667934 6.667938 v 3.05598 3.05597 z m 12.383312,0 h -3.810261 v -3.05597 -3.05598 h 3.810261 3.810232 v 3.05598 3.05597 z m -141.931711,-8.14926 h -6.667932 v -3.05598 -3.05603 h 6.667932 6.667934 v 3.05603 3.05598 z m 15.240987,0 h -6.66793 v -3.05598 -3.05603 h 6.66793 6.667935 v 3.05603 3.05598 z m 15.240989,0 h -6.667931 v -3.05598 -3.05603 h 6.667931 6.667932 v 3.05603 3.05598 z m 15.240985,0 h -6.667931 v -3.05598 -3.05603 h 6.667931 6.667934 v 3.05603 3.05598 z m 15.240992,0 h -6.667935 v -3.05598 -3.05603 h 6.667935 6.6679303 v 3.05603 3.05598 z m 15.2409877,0 h -6.6679314 v -3.05598 -3.05603 h 6.6679314 6.6679333 v 3.05603 3.05598 z m 15.2409873,0 h -6.66793 v -3.05598 -3.05603 h 6.66793 6.667933 v 3.05603 3.05598 z m 15.240991,0 H 28.82253 v -3.05598 -3.05603 h 6.667936 6.667931 v 3.05603 3.05598 z m 15.240982,0 h -6.667929 v -3.05598 -3.05603 h 6.667929 6.667931 v 3.05603 3.05598 z m 15.240993,0 h -6.667935 v -3.05598 -3.05603 h 6.667935 6.667929 v 3.05603 3.05598 z m -140.97914,-8.1493 h -2.857686 v -6.11195 -6.112 h 2.857686 2.857684 v 6.112 6.11195 z m 26.671727,0 h -6.66793 v -6.11195 -6.112 h 6.66793 6.667931 v 6.112 6.11195 z m 15.240988,0 h -6.667932 v -3.05601 -3.05594 h 6.667932 6.667934 v 3.05594 3.05601 z m 15.24099,0 h -6.667934 v -6.11195 -6.112 h 6.667934 6.66793 v 6.112 6.11195 z m 15.2409863,0 h -6.6679298 v -3.05601 -3.05594 h 6.6679298 6.6679334 v 3.05594 3.05601 z m 15.2409887,0 H 5.9610477 v -6.11195 -6.112 h 6.6679333 6.667931 v 6.112 6.11195 z m 15.240989,0 h -6.667932 v -3.05601 -3.05594 h 6.667932 6.66793 v 3.05594 3.05601 z m 15.240989,0 h -6.667932 v -6.11195 -6.112 h 6.667932 6.667932 v 6.112 6.11195 z m 27.624299,0 h -3.810261 v -6.11195 -6.112 h 3.810261 3.810232 v 6.112 6.11195 z m -107.639489,-8.14928 h -2.857685 v -3.056 -3.05599 h 2.857685 2.857686 v 3.05599 3.056 z m 7.620496,0 h -2.857688 v -3.056 -3.05599 h 2.857688 2.857685 v 3.05599 3.056 z m 22.8614823,0 h -2.8576848 v -3.056 -3.05599 h 2.8576848 2.857683 v 3.05599 3.056 z m 7.6204933,0 h -2.8576843 v -3.056 -3.05599 h 2.8576843 2.8576851 v 3.05599 3.056 z m 22.8614834,0 h -2.857686 v -3.056 -3.05599 h 2.857686 2.857684 v 3.05599 3.056 z m 7.62049,0 H 28.82253 v -3.056 -3.05599 h 2.857684 2.857686 v 3.05599 3.056 z m -76.204938,-8.1493 h -2.857684 v -3.05596 -3.05602 h 2.857684 2.857683 v 3.05602 3.05596 z m 8.573057,0 h -3.810249 v -3.05596 -3.05602 h 3.810249 3.810244 v 3.05602 3.05596 z m 21.908918,0 h -2.857686 v -3.05596 -3.05602 h 2.857686 2.857685 v 3.05602 3.05596 z m 11.4307413,0 h -6.6679298 v -3.05596 -3.05602 h 6.6679298 6.6679334 v 3.05602 3.05596 z m 12.3833034,0 h -3.810248 v -3.05596 -3.05602 h 3.810248 3.8102493 v 3.05602 3.05596 z m 21.9089183,0 H 28.82253 v -3.05596 -3.05602 h 2.857684 2.857686 v 3.05602 3.05596 z m 8.573059,0 h -3.810246 v -3.05596 -3.05602 h 3.810246 3.810246 v 3.05602 3.05596 z m -80.96775,-8.14929 h -6.667931 v -3.05597 -3.05599 h 6.667931 6.667932 v 3.05599 3.05597 z m 30.481977,0 h -6.667935 v -3.05597 -3.05599 h 6.667935 6.6679303 v 3.05599 3.05597 z m 15.2409877,0 h -6.6679314 v -3.05597 -3.05599 h 6.6679314 6.6679333 v 3.05599 3.05597 z m 30.4819783,0 H 28.82253 v -3.05597 -3.05599 h 6.667936 6.667931 v 3.05599 3.05597 z m -80.01519,-8.14928 h -2.857684 v -3.05598 -3.05594 h 2.857684 2.857683 v 3.05594 3.05598 z m 8.573057,0 h -3.810249 v -3.05598 -3.05594 h 3.810249 3.810244 v 3.05594 3.05598 z m 21.908918,0 h -2.857686 v -3.05598 -3.05594 h 2.857686 2.857685 v 3.05594 3.05598 z m 11.4307413,0 h -6.6679298 v -3.05598 -3.05594 h 6.6679298 6.6679334 v 3.05594 3.05598 z m 12.3833034,0 h -3.810248 v -3.05598 -3.05594 h 3.810248 3.8102493 v 3.05594 3.05598 z m 21.9089183,0 H 28.82253 v -3.05598 -3.05594 h 2.857684 2.857686 v 3.05594 3.05598 z m 8.573059,0 h -3.810246 v -3.05598 -3.05594 h 3.810246 3.810246 v 3.05594 3.05598 z m -80.96775,-8.14928 h -6.667931 v -3.056 -3.05596 h 6.667931 6.667932 v 3.05596 3.056 z m 30.481977,0 h -6.667935 v -3.056 -3.05596 h 6.667935 6.6679303 v 3.05596 3.056 z m 15.2409877,0 h -6.6679314 v -3.056 -3.05596 h 6.6679314 6.6679333 v 3.05596 3.056 z m 30.4819783,0 H 28.82253 v -3.056 -3.05596 h 6.667936 6.667931 v 3.05596 3.056 z m -80.01519,-8.14929 h -2.857684 v -3.05599 -3.05596 h 2.857684 2.857683 v 3.05596 3.05599 z m 11.43074,0 h -6.667932 v -3.05599 -3.05596 h 6.667932 6.667934 v 3.05596 3.05599 z m 15.24099,0 h -6.667934 v -3.05599 -3.05596 h 6.667934 6.66793 v 3.05596 3.05599 z m 15.2409863,0 h -6.6679298 v -3.05599 -3.05596 h 6.6679298 6.6679334 v 3.05596 3.05599 z m 15.2409887,0 H 5.9610477 v -3.05599 -3.05596 h 6.6679333 6.667931 v 3.05596 3.05599 z m 15.240989,0 h -6.667932 v -3.05599 -3.05596 h 6.667932 6.66793 v 3.05596 3.05599 z m 12.383303,0 h -3.810246 v -3.05599 -3.05596 h 3.810246 3.810246 v 3.05596 3.05599 z m -80.96775,-8.14929 h -6.667931 v -3.056 -3.05597 h 6.667931 6.667932 v 3.05597 3.056 z m 15.240985,0 h -6.667931 v -3.056 -3.05597 h 6.667931 6.667934 v 3.05597 3.056 z m 15.240992,0 h -6.667935 v -3.056 -3.05597 h 6.667935 6.6679303 v 3.05597 3.056 z m 15.2409877,0 h -6.6679314 v -3.056 -3.05597 h 6.6679314 6.6679333 v 3.05597 3.056 z m 15.2409873,0 h -6.66793 v -3.056 -3.05597 h 6.66793 6.667933 v 3.05597 3.056 z m 15.240991,0 H 28.82253 v -3.056 -3.05597 h 6.667936 6.667931 v 3.05597 3.056 z m -80.01519,-8.1493 h -2.857684 v -6.11194 -6.11197 h 2.857684 2.857683 v 6.11197 6.11194 z m 26.67173,0 h -6.667934 v -6.11194 -6.11197 h 6.667934 6.66793 v 6.11197 6.11194 z m 30.481975,0 H 5.9610477 v -6.11194 -6.11197 h 6.6679333 6.667931 v 6.11197 6.11194 z m 27.624292,0 h -3.810246 v -6.11194 -6.11197 h 3.810246 3.810246 v 6.11197 6.11194 z"
       id="path829"
       inkscape:connector-curvature="0"
       sodipodi:nodetypes="" />
    <path
       style="display:inline;fill:#000000;stroke-width:0.49252847"
       d="M -1.6594437,515.59459 H -77.864385 v -1.01865 -1.01866 h 2.857686 2.857684 v -3.05597 -3.05601 h -2.857684 -2.857686 v -1.01864 -1.01869 h 6.667932 6.667934 v -3.05598 -3.05598 h -6.667934 -6.667932 v -1.01866 -1.01863 h 2.857686 2.857684 v -3.056 -3.05598 h -2.857684 -2.857686 v -1.01866 -1.01864 h 6.667932 6.667934 v -3.05605 -3.05594 h -6.667934 -6.667932 v -1.01868 -1.01861 h 2.857686 2.857684 v -3.05603 -3.05596 h -2.857684 -2.857686 v -1.01864 -1.01868 h 6.667932 6.667934 v -3.05599 -3.056 h -6.667934 -6.667932 v -1.01864 -1.01867 h 2.857686 2.857684 v -3.05601 -3.05597 h -2.857684 -2.857686 v -1.01863 -1.0187 h 6.667932 6.667934 v -3.05595 -3.05598 h -6.667934 -6.667932 v -1.01865 -1.01869 h 2.857686 2.857684 v -3.05597 -3.05598 h -2.857684 -2.857686 v -1.01868 -1.01863 h 6.667932 6.667934 v -3.05598 -3.05603 h 0.95256 0.952563 v 3.05603 3.05598 h 6.66793 6.667935 v -3.05598 -3.05603 h -2.857686 -2.857685 v -1.01862 -1.01867 h 6.66793 6.667931 v 1.01867 1.01862 h -2.857683 -2.857684 v 3.05603 3.05598 h 6.667931 6.667932 v -3.05598 -3.05603 h 0.952561 0.952561 v 3.05603 3.05598 h 6.667931 6.667934 v -3.05598 -3.05603 h -2.857683 -2.857687 v -1.01862 -1.01867 h 6.667934 6.66793 v 1.01867 1.01862 h -2.857685 -2.857686 v 3.05603 3.05598 h 6.667935 6.6679303 v -3.05598 -3.05603 h 0.952562 0.952564 v 3.05603 3.05598 h 6.6679314 6.6679333 v -3.05598 -3.05603 H 8.8187337 5.9610477 v -1.01862 -1.01867 h 6.6679333 6.667931 v 1.01867 1.01862 H 16.43923 13.581545 v 3.05603 3.05598 h 6.66793 6.667933 v -3.05598 -3.05603 h 0.952562 0.95256 v 3.05603 3.05598 h 6.667936 6.667931 v -3.05598 -3.05603 h -2.857691 -2.857679 v -1.01862 -1.01867 h 6.667932 6.667932 v 1.01867 1.01862 h -2.857687 -2.857685 v 3.05603 3.05598 h 6.667929 6.667931 v -3.05598 -3.05603 h 0.952567 0.95256 v 3.05603 3.05598 h 6.667935 6.667929 v -3.05598 -3.05603 h -2.857661 -2.857712 v -1.01862 -1.01867 h 3.810261 3.810232 v 5.09332 5.09329 h -3.810232 -3.810261 v 3.05598 3.05597 h 3.810261 3.810232 v 5.09332 5.09328 h -3.810232 -3.810261 v 3.05597 3.05601 h 3.810261 3.810232 v 5.09331 5.09331 h -3.810232 -3.810261 v 3.05596 3.05603 h 3.810261 3.810232 v 5.09323 5.09335 h -3.810232 -3.810261 v 3.05598 3.056 h 3.810261 3.810232 v 5.09327 5.09331 h -3.810232 -3.810261 v 3.05601 3.05597 h 3.810261 3.810232 v 1.01866 1.01865 z m -61.9165153,-2.03731 h 6.667934 v -3.05597 -3.05601 h -6.667934 -6.667933 v 3.05601 3.05597 z m 15.240987,0 h 6.667931 v -3.05597 -3.05601 h -6.667931 -6.66793 v 3.05601 3.05597 z m 15.240988,0 h 6.667934 v -3.05597 -3.05601 h -6.667934 -6.667932 v 3.05601 3.05597 z m 12.383304,0 h 3.810245 v -3.05597 -3.05601 h -3.810245 -3.810248 v 3.05601 3.05597 z m 37.14991,0 h 2.857682 v -3.05597 -3.05601 H 16.43923 13.581545 v 3.05601 3.05597 z m 11.43074,0 h 6.66793 v -3.05597 -3.05601 h -6.66793 -6.667932 v 3.05601 3.05597 z m 15.240989,0 h 6.667932 v -3.05597 -3.05601 h -6.667932 -6.667932 v 3.05601 3.05597 z m 15.240987,0 h 6.667938 v -3.05597 -3.05601 h -6.667938 -6.667934 v 3.05601 3.05597 z m -114.307412,-8.14931 h 6.667935 v -3.05598 -3.05598 h -6.667935 -6.66793 v 3.05598 3.05598 z m 15.240989,0 h 6.667932 v -3.05598 -3.05598 h -6.667932 -6.667931 v 3.05598 3.05598 z m 15.240985,0 h 6.667934 v -3.05598 -3.05598 h -6.667934 -6.667931 v 3.05598 3.05598 z m 45.722967,0 h 6.667933 v -3.05598 -3.05598 h -6.667933 -6.66793 v 3.05598 3.05598 z m 15.240991,0 h 6.667931 v -3.05598 -3.05598 H 35.490466 28.82253 v 3.05598 3.05598 z m 15.240982,0 h 6.667931 v -3.05598 -3.05598 h -6.667931 -6.667929 v 3.05598 3.05598 z m 15.240993,0 h 6.667929 v -3.05598 -3.05598 h -6.667929 -6.667935 v 3.05598 3.05598 z m -129.5484,-8.14925 h 6.667934 v -3.056 -3.05598 h -6.667934 -6.667933 v 3.05598 3.056 z m 15.240987,0 h 6.667931 v -3.056 -3.05598 h -6.667931 -6.66793 v 3.05598 3.056 z m 15.240988,0 h 6.667934 v -3.056 -3.05598 h -6.667934 -6.667932 v 3.05598 3.056 z m 12.383304,0 h 3.810245 v -3.056 -3.05598 h -3.810245 -3.810248 v 3.05598 3.056 z m 37.14991,0 h 2.857682 v -3.056 -3.05598 H 16.43923 13.581545 v 3.05598 3.056 z m 11.43074,0 h 6.66793 v -3.056 -3.05598 h -6.66793 -6.667932 v 3.05598 3.056 z m 15.240989,0 h 6.667932 v -3.056 -3.05598 h -6.667932 -6.667932 v 3.05598 3.056 z m 15.240987,0 h 6.667938 v -3.056 -3.05598 h -6.667938 -6.667934 v 3.05598 3.056 z m -114.307412,-8.14928 h 6.667935 v -3.05605 -3.05594 h -6.667935 -6.66793 v 3.05594 3.05605 z m 15.240989,0 h 6.667932 v -3.05605 -3.05594 h -6.667932 -6.667931 v 3.05594 3.05605 z m 15.240985,0 h 6.667934 v -3.05605 -3.05594 h -6.667934 -6.667931 v 3.05594 3.05605 z m 45.722967,0 h 6.667933 v -3.05605 -3.05594 h -6.667933 -6.66793 v 3.05594 3.05605 z m 15.240991,0 h 6.667931 v -3.05605 -3.05594 H 35.490466 28.82253 v 3.05594 3.05605 z m 15.240982,0 h 6.667931 v -3.05605 -3.05594 h -6.667931 -6.667929 v 3.05594 3.05605 z m 15.240993,0 h 6.667929 v -3.05605 -3.05594 h -6.667929 -6.667935 v 3.05594 3.05605 z m -129.5484,-8.14928 h 6.667934 v -3.05603 -3.05596 h -6.667934 -6.667933 v 3.05596 3.05603 z m 15.240987,0 h 6.667931 v -3.05603 -3.05596 h -6.667931 -6.66793 v 3.05596 3.05603 z m 15.240988,0 h 6.667934 v -3.05603 -3.05596 h -6.667934 -6.667932 v 3.05596 3.05603 z m 12.383304,0 h 3.810245 v -3.05603 -3.05596 h -3.810245 -3.810248 v 3.05596 3.05603 z m 37.14991,0 h 2.857682 v -3.05603 -3.05596 H 16.43923 13.581545 v 3.05596 3.05603 z m 11.43074,0 h 6.66793 v -3.05603 -3.05596 h -6.66793 -6.667932 v 3.05596 3.05603 z m 15.240989,0 h 6.667932 v -3.05603 -3.05596 h -6.667932 -6.667932 v 3.05596 3.05603 z m 15.240987,0 h 6.667938 v -3.05603 -3.05596 h -6.667938 -6.667934 v 3.05596 3.05603 z m -114.307412,-8.14931 h 6.667935 v -3.05599 -3.056 h -6.667935 -6.66793 v 3.056 3.05599 z m 15.240989,0 h 6.667932 v -3.05599 -3.056 h -6.667932 -6.667931 v 3.056 3.05599 z m 15.240985,0 h 6.667934 v -3.05599 -3.056 h -6.667934 -6.667931 v 3.056 3.05599 z m 45.722967,0 h 6.667933 v -3.05599 -3.056 h -6.667933 -6.66793 v 3.056 3.05599 z m 15.240991,0 h 6.667931 v -3.05599 -3.056 H 35.490466 28.82253 v 3.056 3.05599 z m 15.240982,0 h 6.667931 v -3.05599 -3.056 h -6.667931 -6.667929 v 3.056 3.05599 z m 15.240993,0 h 6.667929 v -3.05599 -3.056 h -6.667929 -6.667935 v 3.056 3.05599 z m -129.5484,-8.1493 h 6.667934 v -3.05601 -3.05597 h -6.667934 -6.667933 v 3.05597 3.05601 z m 15.240987,0 h 6.667931 v -3.05601 -3.05597 h -6.667931 -6.66793 v 3.05597 3.05601 z m 15.240988,0 h 6.667934 v -3.05601 -3.05597 h -6.667934 -6.667932 v 3.05597 3.05601 z m 12.383304,0 h 3.810245 v -1.01867 -1.01864 h 0.952564 0.952562 v -2.03733 -2.03734 h -4.762813 -4.762806 v 3.05597 3.05601 z m 37.14991,0 h 2.857682 v -3.05601 -3.05597 h -3.810244 -3.810247 v 2.03734 2.03733 h 0.95256 0.952564 v 1.01864 1.01867 z m 11.43074,0 h 6.66793 v -3.05601 -3.05597 h -6.66793 -6.667932 v 3.05597 3.05601 z m 15.240989,0 h 6.667932 v -3.05601 -3.05597 h -6.667932 -6.667932 v 3.05597 3.05601 z m 15.240987,0 h 6.667938 v -3.05601 -3.05597 h -6.667938 -6.667934 v 3.05597 3.05601 z m -114.307412,-8.14931 h 6.667935 v -3.05595 -3.05598 h -6.667935 -6.66793 v 3.05598 3.05595 z m 15.240989,0 h 6.667932 v -3.05595 -3.05598 h -6.667932 -6.667931 v 3.05598 3.05595 z m 15.240985,0 h 6.667934 v -3.05595 -3.05598 h -6.667934 -6.667931 v 3.05598 3.05595 z m 10.478183,0 h 1.90512 v -1.01861 -1.01871 h 0.952562 0.952563 v -1.01863 -1.01866 h 1.9051265 1.9051208 v -1.01863 -1.01869 h -4.7628103 -4.762808 v 3.05598 3.05595 z m 25.719172,0 h 0.952558 v -3.05595 -3.05598 H 7.8661737 4.0559257 v 1.01869 1.01863 h 1.905122 1.905126 v 1.01866 1.01863 h 0.95256 0.952562 v 1.01871 1.01861 z m 9.525612,0 h 6.667933 v -3.05595 -3.05598 h -6.667933 -6.66793 v 3.05598 3.05595 z m 15.240991,0 h 6.667931 v -3.05595 -3.05598 H 35.490466 28.82253 v 3.05598 3.05595 z m 15.240982,0 h 6.667931 v -3.05595 -3.05598 h -6.667931 -6.667929 v 3.05598 3.05595 z m 15.240993,0 h 6.667929 v -3.05595 -3.05598 h -6.667929 -6.667935 v 3.05598 3.05595 z m -129.5484,-8.14927 h 6.667934 v -3.05597 -3.05598 h -6.667934 -6.667933 v 3.05598 3.05597 z m 15.240987,0 h 6.667931 v -3.05597 -3.05598 h -6.667931 -6.66793 v 3.05598 3.05597 z m 15.240988,0 h 6.667934 v -3.05597 -3.05598 h -6.667934 -6.667932 v 3.05598 3.05597 z m 15.24099,0 h 6.66793 v -3.05597 -3.05598 h -6.66793 -6.667934 v 3.05598 3.05597 z m 15.2409863,0 h 6.6679334 v -3.05597 -3.05598 h -6.6679334 -6.6679298 v 3.05598 3.05597 z m 15.2409887,0 h 6.667931 V 445.307 442.25102 H 12.628981 5.9610477 v 3.05598 3.05597 z m 15.240989,0 h 6.66793 v -3.05597 -3.05598 h -6.66793 -6.667932 v 3.05598 3.05597 z m 15.240989,0 h 6.667932 v -3.05597 -3.05598 h -6.667932 -6.667932 v 3.05598 3.05597 z m 15.240987,0 h 6.667938 v -3.05597 -3.05598 h -6.667938 -6.667934 v 3.05598 3.05597 z M -75.006699,434.1017 h -2.857686 v -1.01862 -1.01867 h 2.857686 2.857684 v 1.01867 1.01862 z m 41.912715,-8.14924 h -6.667932 v -1.01868 -1.01865 h 2.857685 2.857686 v -3.056 -3.05599 h -6.667932 -6.667931 v -1.01864 -1.01867 h 2.857684 2.857683 v -3.05596 -3.05602 h -2.857683 -2.857684 v -1.01865 -1.01866 h 6.667931 6.667932 v -3.05597 -3.05599 h -6.667932 -6.667931 v -1.01865 -1.01867 h 2.857684 2.857683 v -3.05598 -3.05594 h -2.857683 -2.857684 v -1.01872 -1.01864 h 6.667931 6.667932 v -3.056 -3.05596 h -6.667932 -6.667931 v -1.01866 -1.01867 h 2.857684 2.857683 v -3.05599 -3.05596 h -2.857683 -2.857684 v -1.01868 -1.01866 h 6.667931 6.667932 v -3.056 -3.05597 h 0.952561 0.952561 v 3.05597 3.056 h 6.667931 6.667934 v -3.056 -3.05597 h -2.857683 -2.857687 v -1.01865 -1.01868 h 6.667934 6.66793 v 1.01868 1.01865 h -2.857685 -2.857686 v 3.05597 3.056 h 6.667935 6.6679303 v -3.056 -3.05597 h 0.952562 0.952564 v 3.05597 3.056 h 6.6679314 6.6679333 v -3.056 -3.05597 H 8.8187337 5.9610477 v -1.01865 -1.01868 h 6.6679333 6.667931 v 1.01868 1.01865 H 16.43923 13.581545 v 3.05597 3.056 h 6.66793 6.667933 v -3.056 -3.05597 h 0.952562 0.95256 v 3.05597 3.056 h 6.667936 6.667931 v -3.056 -3.05597 h -2.857691 -2.857679 v -1.01865 -1.01868 h 3.810246 3.810246 v 5.0933 5.09334 h -3.810246 -3.810246 v 3.05596 3.05599 h 3.810246 3.810246 v 5.09329 5.09336 h -3.810246 -3.810246 v 3.05594 3.05598 h 3.810246 3.810246 v 5.09331 5.09328 h -3.810246 -3.810246 v 3.05602 3.05596 h 3.810246 3.810246 v 1.01867 1.01864 H 36.443027 28.82253 v 3.05599 3.056 h 2.857684 2.857686 v 1.01865 1.01868 h -6.66793 -6.667932 v -1.01868 -1.01865 h 2.857686 2.857684 v -3.056 -3.05599 H 12.628981 -1.6594437 v 3.05599 3.056 h 2.8576843 2.8576851 v 1.01865 1.01868 h -6.6679334 -6.6679298 v -1.01868 -1.01865 h 2.8576848 2.857683 v -3.056 -3.05599 H -17.852994 -32.141423 v 3.05599 3.056 h 2.857688 2.857685 v 1.01865 1.01868 z m -2.857683,-10.18663 h 3.810244 v -3.05596 -3.05602 h -3.810244 -3.810249 v 3.05602 3.05596 z m 21.908918,0 h 2.857685 v -3.05596 -3.05602 h -2.857685 -2.857686 v 3.05602 3.05596 z m 11.4307413,0 h 6.6679334 v -3.05596 -3.05602 h -6.6679334 -6.6679298 v 3.05602 3.05596 z m 12.3833034,0 h 3.8102493 v -3.05596 -3.05602 H 9.7712957 5.9610477 v 3.05602 3.05596 z m 21.9089183,0 H 34.5379 v -3.05596 -3.05602 H 31.680214 28.82253 v 3.05602 3.05596 z M -10.2325,407.61654 h 6.6679303 v -3.05597 -3.05599 H -10.2325 -16.900435 v 3.05599 3.05597 z m 15.2409877,0 h 6.6679333 v -3.05597 -3.05599 H 5.0084877 -1.6594437 v 3.05599 3.05597 z m 30.4819783,0 h 6.667931 v -3.05597 -3.05599 H 35.490466 28.82253 v 3.05599 3.05597 z m -71.442133,-8.14928 h 3.810244 v -3.05598 -3.05594 h -3.810244 -3.810249 v 3.05594 3.05598 z m 21.908918,0 h 2.857685 v -3.05598 -3.05594 h -2.857685 -2.857686 v 3.05594 3.05598 z m 11.4307413,0 h 6.6679334 v -3.05598 -3.05594 h -6.6679334 -6.6679298 v 3.05594 3.05598 z m 12.3833034,0 h 3.8102493 v -3.05598 -3.05594 H 9.7712957 5.9610477 v 3.05594 3.05598 z m 21.9089183,0 H 34.5379 v -3.05598 -3.05594 H 31.680214 28.82253 v 3.05594 3.05598 z M -10.2325,391.31798 h 6.6679303 v -3.056 -3.05596 H -10.2325 -16.900435 v 3.05596 3.056 z m 15.2409877,0 h 6.6679333 v -3.056 -3.05596 H 5.0084877 -1.6594437 v 3.05596 3.056 z m 30.4819783,0 h 6.667931 v -3.056 -3.05596 H 35.490466 28.82253 v 3.05596 3.056 z m -68.58445,-8.14929 h 6.667934 v -3.05599 -3.05596 h -6.667934 -6.667932 v 3.05596 3.05599 z m 15.24099,0 h 6.66793 v -3.05599 -3.05596 h -6.66793 -6.667934 v 3.05596 3.05599 z m 15.2409863,0 h 6.6679334 v -3.05599 -3.05596 h -6.6679334 -6.6679298 v 3.05596 3.05599 z m 15.2409887,0 h 6.667931 v -3.05599 -3.05596 H 12.628981 5.9610477 v 3.05596 3.05599 z m 15.240989,0 h 6.66793 v -3.05599 -3.05596 h -6.66793 -6.667932 v 3.05596 3.05599 z m -72.394694,-14.26126 h -2.857684 v -1.01865 -1.01868 h 2.857684 2.857683 v 1.01868 1.01865 z"
       id="path827"
       inkscape:connector-curvature="0" />
  </g>
</svg>
