<?xml version="1.0" encoding="UTF-8" standalone="no"?>
<!-- Created with Inkscape (http://www.inkscape.org/) -->

<svg
   xmlns:dc="http://purl.org/dc/elements/1.1/"
   xmlns:cc="http://creativecommons.org/ns#"
   xmlns:rdf="http://www.w3.org/1999/02/22-rdf-syntax-ns#"
   xmlns:svg="http://www.w3.org/2000/svg"
   xmlns="http://www.w3.org/2000/svg"
   xmlns:sodipodi="http://sodipodi.sourceforge.net/DTD/sodipodi-0.dtd"
   xmlns:inkscape="http://www.inkscape.org/namespaces/inkscape"
   width="131.23332mm"
   height="88.899994mm"
   viewBox="0 0 131.23332 88.899997"
   version="1.1"
   id="svg957"
   inkscape:version="0.92.4 (unknown)"
   sodipodi:docname="editorstripped.svg">
  <defs
     id="defs951" />
  <sodipodi:namedview
     id="base"
     pagecolor="#ffffff"
     bordercolor="#666666"
     borderopacity="1.0"
     inkscape:pageopacity="0.0"
     inkscape:pageshadow="2"
     inkscape:zoom="1.979899"
     inkscape:cx="9.704111"
     inkscape:cy="140.48154"
     inkscape:document-units="mm"
     inkscape:current-layer="g1040"
     showgrid="false"
     inkscape:window-width="1366"
     inkscape:window-height="703"
     inkscape:window-x="0"
     inkscape:window-y="0"
     inkscape:window-maximized="1" />
  <metadata
     id="metadata954">
    <rdf:RDF>
      <cc:Work
         rdf:about="">
        <dc:format>image/svg+xml</dc:format>
        <dc:type
           rdf:resource="http://purl.org/dc/dcmitype/StillImage" />
        <dc:title></dc:title>
      </cc:Work>
    </rdf:RDF>
  </metadata>
  <g
     inkscape:label="Layer 1"
     inkscape:groupmode="layer"
     id="layer1"
     transform="translate(-62.139288,-33.550596)">
    <g
       id="g1040">
      <path
         style="display:inline;fill:#f0f0f0;stroke-width:0.26458332"
         d="M 127.75595,122.45058 H 62.139288 V 78.000594 33.550596 h 65.616662 65.61666 v 44.449998 44.449996 z m 47.30629,-1.60568 7.48651,0.0182 0.64943,-0.64944 0.64943,-0.64943 v -1.14424 -1.14424 l -0.52916,-0.3814 -0.52917,-0.38141 v -1.40882 -1.40883 l -0.64943,-0.64943 -0.64943,-0.64942 h -7.1678 -7.16781 l -0.64943,0.64943 -0.64943,0.64943 v 2.66538 2.66537 l 0.85989,0.90034 0.8599,0.90034 7.4865,0.0182 z m 6.29073,-3.15682 h -0.15119 v -0.15119 -0.15119 l 0.40948,-0.40947 0.40947,-0.40948 0.15119,0.15119 0.15119,0.15119 -0.40947,0.40948 -0.40948,0.40947 z m -14.70327,-0.52916 h -0.26458 v -1.73869 -1.7387 l 0.37797,-0.37797 0.37798,-0.37798 h 7.18155 7.18154 l 0.37798,0.37798 0.37797,0.37797 v 0.1512 0.15119 h -0.79374 -0.79375 v -0.26459 -0.26458 h -1.05834 -1.05833 v 0.26458 0.26459 h -0.52917 -0.52916 v -0.26459 -0.26458 h -0.79375 -0.79375 v 0.26458 0.26459 h -0.52917 -0.52917 v -0.26459 -0.26458 h -1.05833 -1.05833 v 0.26458 0.26459 h -1.03629 -1.03628 l -0.1342,-0.33073 -0.1342,-0.33073 -0.30487,0.39687 -0.30487,0.39688 -0.13419,-0.33073 -0.1342,-0.33073 h -0.92289 -0.9229 l -0.42088,0.42089 -0.42089,0.42088 0.37364,0.26072 0.37364,0.26071 -0.33073,0.1342 -0.33073,0.1342 v 1.03628 1.03629 z m 2.38125,-2.11667 h -1.05833 v -0.26458 -0.26459 h 1.05833 1.05833 v 0.26459 0.26458 z m 2.64583,0 h -1.05833 v -0.26458 -0.26459 h 1.05833 1.05834 v 0.26459 0.26458 z m 2.64584,0 h -1.05834 v -0.26458 -0.26459 h 1.05834 1.05833 v 0.26459 0.26458 z m 2.38125,0 h -0.79375 v -0.26458 -0.26459 h 0.79375 0.79375 v 0.26459 0.26458 z m 1.5875,0 h -0.26459 v -0.26458 -0.26459 h 0.26459 0.26458 v 0.26459 0.26458 z m 1.5875,0 h -0.79375 v -0.26458 -0.26459 h 0.79375 0.79375 v 0.26459 0.26458 z m 1.85208,0 h -0.52917 v -0.26458 -0.26459 h 0.52917 0.52916 v 0.26459 0.26458 z m -73.07912,5.27548 43.20526,0.0162 0.64943,-0.64944 0.64943,-0.64943 v -9.28447 -9.28447 l -0.64943,-0.649427 -0.64943,-0.649433 H 108.70595 65.554818 l -0.649432,0.649433 -0.649432,0.649427 v 9.2819 9.2819 l 0.595313,0.63582 0.595312,0.63582 43.205251,0.0162 z m -0.26458,-1.58138 -41.882338,-0.0101 -0.330729,-0.37565 -0.330729,-0.37564 v -8.23215 -8.23215 l 0.377976,-0.37798 0.377976,-0.37797 h 41.835094 41.83509 l 0.64943,0.64943 0.64943,0.64942 v 7.69697 7.69697 l -0.64943,0.64943 -0.64943,0.64944 -41.88234,-0.0101 z m 0.27146,-0.52916 41.62462,0.0101 0.37798,-0.37798 0.37797,-0.37796 v -7.71072 -7.71071 l -0.37797,-0.37798 -0.37798,-0.37797 H 108.70595 67.128573 l -0.377976,0.37797 -0.377976,0.37798 v 7.70298 7.70298 l 0.330729,0.37565 0.330729,0.37564 41.624631,0.0101 z m 8.20208,-4.7625 -0.61421,-0.0101 -0.33073,-0.37564 -0.33073,-0.37565 v -0.55923 -0.55923 l 0.37797,-0.37798 0.37798,-0.37798 h 0.56696 0.56697 l 0.37798,0.37797 0.37797,0.37798 v 0.56696 0.56697 l -0.37797,0.37797 -0.37798,0.37798 -0.61421,-0.01 z m 0.0472,-1.04827 h 0.79375 v -0.26459 -0.26458 h -0.79375 -0.79375 v 0.26458 0.26459 z m 30.11526,1.04827 -0.61421,-0.0101 -0.33073,-0.37564 -0.33073,-0.37565 v -0.55923 -0.55923 l 0.37797,-0.37798 0.37798,-0.37798 h 0.56696 0.56697 l 0.37797,0.37797 0.37798,0.37798 v 0.56696 0.56697 l -0.37798,0.37797 -0.37797,0.37798 -0.61421,-0.01 z m 0,-0.52917 0.085,0.01 0.39688,-0.39687 0.39687,-0.39688 -0.41577,-0.41577 -0.41578,-0.41578 -0.41139,0.4114 -0.4114,0.4114 0.34525,0.39119 0.34525,0.39119 0.085,0.01 z m -77.740253,-5.2816 h -0.264583 v -1.85209 -1.85208 h 5.820833 5.820833 v 0.52917 0.52916 h -0.264583 -0.264584 v -0.26458 -0.26458 h -1.036284 -1.036285 l -0.15434,0.33073 -0.154341,0.33073 -0.15434,-0.33073 -0.15434,-0.33073 h -1.014236 -1.014236 l -0.154341,0.33073 -0.15434,0.33073 -0.15434,-0.33073 -0.15434,-0.33073 h -1.27882 -1.278819 l -0.15434,0.33073 -0.154341,0.33073 -0.15434,-0.33073 -0.15434,-0.33073 h -1.036285 -1.036284 v 1.5875 1.5875 z m 16.933333,0 h -0.264584 v -1.85209 -1.85208 h 5.820833 5.820833 v 0.52917 0.52916 h -0.242535 -0.242533 l -0.154342,-0.33073 -0.154339,-0.33072 -0.15434,0.33072 -0.154342,0.33073 h -0.749652 -0.749652 l -0.154342,-0.33073 -0.154339,-0.33072 -0.154339,0.33072 -0.154342,0.33073 h -0.507117 -0.507119 v -0.26458 -0.26458 h -0.529166 -0.529167 v 0.26458 0.26458 h -1.300869 -1.300866 l -0.134199,-0.33073 -0.134197,-0.33072 -0.304869,0.39687 -0.304869,0.39688 -0.134196,-0.33073 -0.1342,-0.33073 h -1.036282 -1.036286 v 1.5875 1.5875 z m 16.93333,0 h -0.26458 v -1.85209 -1.85208 h 5.55625 5.55625 v 0.52917 0.52916 h -0.26458 -0.26459 v -0.26458 -0.26458 h -1.03628 -1.03629 l -0.15434,0.33073 -0.15434,0.33073 -0.15434,-0.33073 -0.15434,-0.33073 h -1.01423 -1.01424 l -0.15434,0.33073 -0.15434,0.33073 -0.15434,-0.33073 -0.15434,-0.33073 h -1.03629 -1.03628 v 0.26458 0.26458 h -1.05833 -1.05834 v -0.26458 -0.26458 h -0.26458 -0.26458 v 1.5875 1.5875 z m 21.69583,0 h -0.26458 v -1.85209 -1.85208 h 7.40833 7.40834 v 0.52917 0.52916 h -0.26459 -0.26458 v -0.26458 -0.26458 h -1.03629 -1.03628 l -0.15434,0.33073 -0.15434,0.33073 -0.15434,-0.33073 -0.15434,-0.33073 h -1.01424 -1.01423 l -0.1342,0.33073 -0.1342,0.33073 -0.30487,-0.39688 -0.30486,-0.39687 -0.1342,0.33072 -0.1342,0.33073 h -0.74965 -0.74965 l -0.1342,-0.33073 -0.1342,-0.33072 -0.30487,0.39687 -0.30487,0.39688 -0.13419,-0.33073 -0.1342,-0.33073 h -1.01424 -1.01423 l -0.15435,0.33073 -0.15434,0.33073 -0.15434,-0.33073 -0.15434,-0.33073 h -1.30086 -1.30087 v 0.52916 0.52917 h 0.52916 0.52917 v 0.26458 0.26459 h -0.52917 -0.52916 v 0.79375 0.79375 z m -52.387493,-1.5875 h -0.79375 v -0.26459 -0.26458 h 0.79375 0.79375 v 0.26458 0.26459 z m 2.116667,0 h -0.79375 v -0.26459 -0.26458 h 0.79375 0.79375 v 0.26458 0.26459 z m 1.852083,0 H 75.89762 v -0.26459 -0.26458 h 0.529167 0.529166 v 0.26458 0.26459 z m 1.322916,0 H 77.48512 v -0.26459 -0.26458 h 0.264583 0.264584 v 0.26458 0.26459 z m 2.645834,0 h -0.264584 v -0.26459 -0.26458 h 0.264584 0.264583 v 0.26458 0.26459 z m 8.466666,0 H 88.59762 v -0.26459 -0.26458 h 0.264583 0.264583 v 0.26458 0.26459 z m 1.852083,0 h -1.058333 v -0.26459 -0.26458 h 1.058333 1.058333 v 0.26458 0.26459 z m 3.96875,0 h -0.79375 v -0.26459 -0.26458 h 0.79375 0.79375 v 0.26458 0.26459 z m 2.116667,0 h -0.79375 v -0.26459 -0.26458 h 0.79375 0.793749 v 0.26458 0.26459 z m 8.202087,0 h -1.05834 v -0.26459 -0.26458 h 1.05834 1.05833 v 0.26458 0.26459 z m 2.11666,0 h -0.52916 v -0.26459 -0.26458 h 0.52916 0.52917 v 0.26458 0.26459 z m 1.32292,0 h -0.26458 v -0.26459 -0.26458 h 0.26458 0.26458 v 0.26458 0.26459 z m 1.32292,0 h -0.52917 v -0.26459 -0.26458 h 0.52917 0.52916 v 0.26458 0.26459 z m 1.32291,0 h -0.26458 v -0.26459 -0.26458 h 0.26458 0.26459 v 0.26458 0.26459 z m 2.64584,0 h -0.26459 v -0.26459 -0.26458 h 0.26459 0.26458 v 0.26458 0.26459 z m 13.75833,0 h -0.79375 v -0.26459 -0.26458 h 0.79375 0.79375 v 0.26458 0.26459 z m 3.175,0 h -0.26459 v -0.26459 -0.26458 h 0.26459 0.26458 v 0.26458 0.26459 z m 1.05833,0 h -0.26458 v -0.26459 -0.26458 h 0.26458 0.26458 v 0.26458 0.26459 z m 1.05833,0 h -0.26458 v -0.26459 -0.26458 h 0.26458 0.26459 v 0.26458 0.26459 z m 1.05834,0 h -0.26459 v -0.26459 -0.26458 h 0.26459 0.26458 v 0.26458 0.26459 z m 2.64583,0 h -0.26458 v -0.26459 -0.26458 h 0.26458 0.26458 v 0.26458 0.26459 z m 1.32292,0 h -0.52917 v -0.26459 -0.26458 h 0.52917 0.52916 v 0.26458 0.26459 z m 1.32291,0 h -0.26458 v -0.26459 -0.26458 h 0.26458 0.26459 v 0.26458 0.26459 z m 35.18959,1.5875 h 16.93333 v -2.38125 -2.38125 h -16.93333 -16.93334 v 2.38125 2.38125 z m -15.08125,-0.52917 h -1.32292 v -1.85208 -1.85209 h 1.32292 1.32291 v 1.85209 1.85208 z m 0.59531,-0.54535 0.19844,0.0162 v -1.32291 -1.32292 h -0.14432 -0.14432 l -0.6601,0.6601 -0.66011,0.66011 0.60599,0.64663 0.60598,0.64663 0.19844,0.0162 z m 15.80885,0.54535 h -11.90625 v -1.85208 -1.85209 h 11.90625 11.90625 v 1.85209 1.85208 z m 13.75833,0 h -1.32291 v -1.85208 -1.85209 h 1.32291 1.32292 v 1.85209 1.85208 z m -0.64943,-0.52917 h 0.14432 l 0.66146,-0.66145 0.66146,-0.66146 -0.66146,-0.66146 -0.66146,-0.66146 h -0.14432 -0.14432 v 1.32292 1.32291 z m -28.91775,-4.24951 0.19844,0.0162 v -0.26458 -0.26459 h -0.26459 -0.26458 v -0.26458 -0.26458 h 0.79375 0.79375 v -0.26459 -0.26458 h -0.79375 -0.79375 v -0.24254 -0.24253 l 0.33073,-0.11812 0.33073,-0.11811 -0.1824,-0.196582 -0.18241,-0.196574 -0.68816,0.688166 -0.68817,0.68816 0.60599,0.64664 0.60598,0.64662 0.19844,0.0162 z m 8.6651,0.0162 h 1.05834 v -0.79375 -0.79375 h -0.79375 -0.79375 v -0.26458 -0.26459 h 0.79375 0.79375 v -0.26458 -0.264583 h -1.05834 -1.05833 v 0.793753 0.79375 h 0.79375 0.79375 v 0.26458 0.26458 h -0.79375 -0.79375 v 0.26459 0.26458 z m 2.64584,0 h 1.05833 v -0.52917 -0.52916 h -0.26458 -0.26459 v 0.26458 0.26458 h -0.52916 -0.52917 v -0.79375 -0.79375 h 0.52917 0.52916 v 0.26459 0.26458 h 0.26459 0.26458 v -0.52917 -0.529163 h -1.05833 -1.05834 v 1.322913 1.32292 z m 1.85208,0 h 0.26458 v -0.52917 -0.52916 h 0.52917 0.52917 v 0.52916 0.52917 h 0.26458 0.26458 v -0.50712 -0.50711 l -0.33073,-0.15435 -0.33073,-0.15434 0.33073,-0.15434 0.33073,-0.15434 v -0.50711 -0.507123 h -1.05833 -1.05833 v 1.322913 1.32292 z m 0.79375,-1.5875 h -0.52917 v -0.26458 -0.26459 h 0.52917 0.52917 v 0.26459 0.26458 z m 2.64583,1.5875 h 1.05834 v -1.32292 -1.322913 h -1.05834 -1.05833 v 1.322913 1.32292 z m 0,-0.52917 h -0.52916 v -0.79375 -0.79375 h 0.52916 0.52917 v 0.79375 0.79375 z m 2.38125,0.52917 h 0.79375 v -0.26458 -0.26459 h -0.52916 -0.52917 v -1.05833 -1.058333 h -0.26458 -0.26459 v 1.322913 1.32292 z m 2.11667,0 h 0.79375 v -0.26458 -0.26459 h -0.52917 -0.52916 v -1.05833 -1.058333 h -0.26459 -0.26458 v 1.322913 1.32292 z m 7.81723,0 h 0.14432 l 0.66146,-0.66146 0.66146,-0.66146 -0.68952,-0.68952 -0.68952,-0.689516 -0.18241,0.196574 -0.1824,0.196582 0.33073,0.11811 0.33073,0.11812 v 0.24253 0.24254 h -0.79375 -0.79375 v 0.26458 0.26459 h 0.79375 0.79375 v 0.26458 0.26458 h -0.26458 -0.26459 v 0.26459 0.26458 z m -26.33806,-1.05833 h 0.79375 v -0.26459 -0.26458 h -0.79375 -0.79375 v 0.26458 0.26459 z m 2.11666,0 h 0.79375 v -0.26459 -0.26458 h -0.79375 -0.79375 v 0.26458 0.26459 z m 19.57917,0 h 0.79375 v -0.26459 -0.26458 h -0.79375 -0.79375 v 0.26458 0.26459 z m 2.11666,0 h 0.79375 v -0.26459 -0.26458 h -0.79375 -0.79375 v 0.26458 0.26459 z m -58.47291,-3.175003 h 63.5 V 69.533928 40.958929 h -63.5 -63.499996 v 28.574999 28.574999 z"
         id="path1060"
         inkscape:connector-curvature="0"
         sodipodi:nodetypes="ccccccccccccccccccccccccccccccccccccccccccccccccccccccccccccccccccccccccccccccccccccccccccccccccccccccccccccccccccccccccccccccccccccccccccccccccccccccccccccccccccccccccccccccccccccccccccccccccccccccccccccccccccccccccccccccccccccccccccccccccccccccccccccccccccccccccccccccccccccccccccccccccccccccccccccccccccccccccccccccccccccccccccccccccccccccccccccccccccccccccccccccccccccccccccccccccccccccccccccccccccccccccccccccccccccccccccccccccccccccccccccccccccccccccccccccccccccccccccccccccccccccccccccccccccccccccccccccccccccccccccccccccccccccccccccccccccccccccccccccccccccccccccccccccccccccccccccccccccccccccccccccccccccccccccccccccccccccccccccccccccccccccccccccccccccccccccccccccccccccccccccccccccccccccccccccccccccccccccccccccccccccccccccccccccccccccccccccccccccccccccccccccccccccccccccccccccccccccccccccccccccccccccccccccccccccccccccccccccccccccccccccccccccccccccccccccccccccccccccccccccccccccccccccccccccccccccccccccccccccccccccc" />
      <path
         style="display:inline;fill:#c6e6de;stroke-width:0.26458332"
         d="m 66.174183,118.73636 -0.198437,-0.0101 -0.330729,-0.37565 -0.33073,-0.37564 v -8.49673 -8.49674 l 0.377976,-0.37797 0.377977,-0.37799 h 42.37113 42.37113 l 0.37797,0.37798 0.37798,0.37798 v 0.30238 0.30238 l -0.39688,0.39687 -0.39687,0.39688 -0.42837,-0.42837 -0.42838,-0.42838 0.17818,-0.17817 0.17818,-0.17818 0.23581,0.38155 0.23581,0.38155 0.17817,-0.17818 0.17818,-0.17817 -0.40947,-0.40948 -0.40948,-0.40947 H 108.44137 66.599406 l -0.377976,0.37798 -0.377976,0.37797 v 8.35328 8.35327 h 0.264583 0.264584 v 0.26458 0.26459 l -0.198438,-0.0101 z m 84.487127,0.0101 h -0.15119 v -0.26459 -0.26458 H 108.81934 67.128573 l -0.409474,-0.40947 -0.409474,-0.40948 0.200012,-0.18584 0.200013,-0.18584 0.118117,0.33073 0.118118,0.33073 h 41.760065 41.76007 l 0.10945,-0.32836 0.10946,-0.32837 0.46066,0.46066 0.46066,0.46066 -0.39688,0.39687 -0.39687,0.39688 z m 0.11339,-0.52917 h 0.26458 v -0.26458 -0.26459 h -0.26458 -0.26458 v 0.26459 0.26458 z m -42.06875,-1.5875 H 67.960121 v -6.87917 -6.87916 h 40.745829 40.74583 v 6.87916 6.87917 z m 0,-0.52917 h 40.21667 v -6.35 -6.35 H 108.70595 68.489287 v 6.35 6.35 z m -33.60208,-8.46666 h -5.556249 v -0.26459 -0.26458 h 1.058333 1.058333 v -0.52917 -0.52916 h 0.79375 0.79375 v 0.52916 0.52917 h 0.264583 0.264584 v -0.52917 -0.52916 h 0.79375 0.79375 v 0.52916 0.52917 h 1.058333 1.058333 v -0.52917 -0.52916 h 0.264583 0.264584 v 0.52916 0.52917 h 0.264583 0.264583 v -0.52917 -0.52916 h 1.058334 1.058333 v 0.79375 0.79375 z m 16.933333,0 h -5.55625 v -0.26459 -0.26458 h 0.264583 0.264584 v -0.52917 -0.52916 h 1.058333 1.058333 v 0.52916 0.52917 h 1.058334 1.058333 v -0.26458 -0.26459 h -0.79375 -0.79375 v -0.26458 -0.26458 h 1.058333 1.058333 v 0.52916 0.52917 h 0.264584 0.264583 v -0.52917 -0.52916 h 0.529167 0.529166 v 0.52916 0.52917 h 0.264584 0.264583 v -0.52917 -0.52916 h 0.79375 0.79375 v 0.52916 0.52917 h 0.264583 0.264584 v -0.52917 -0.52916 h 0.79375 0.793749 v 0.79375 0.79375 z m 16.668747,0 h -5.29166 v -0.26459 -0.26458 h 1.05833 1.05833 v -0.26458 -0.26459 h -0.79375 -0.79375 v -0.26458 -0.26458 h 1.05834 1.05833 v 0.52916 0.52917 h 1.05833 1.05834 v -0.52917 -0.52916 h 0.26458 0.26458 v 0.52916 0.52917 h 1.05834 1.05833 v -0.52917 -0.52916 h 0.26458 0.26459 v 0.52916 0.52917 h 0.26458 0.26458 v -0.52917 -0.52916 h 1.05834 1.05833 v 0.79375 0.79375 z m 23.54792,0 h -7.14375 v -0.79375 -0.79375 h 0.52916 0.52917 v 0.52916 0.52917 h 0.26458 0.26459 v -0.52917 -0.52916 h 0.79375 0.79375 v 0.52916 0.52917 h 1.05833 1.05833 v -0.26458 -0.26459 h -0.79375 -0.79375 v -0.26458 -0.26458 h 1.05834 1.05833 v 0.52916 0.52917 h 0.26458 0.26459 v -0.52917 -0.52916 h 0.79375 0.79375 v 0.52916 0.52917 h 0.26458 0.26458 v -0.52917 -0.52916 h 0.26459 0.26458 v 0.52916 0.52917 h 0.26458 0.26459 v -0.52917 -0.52916 h 1.05833 1.05833 v 0.52916 0.52917 h 1.05834 1.05833 v -0.52917 -0.52916 h 0.26458 0.26459 v 0.79375 0.79375 z m -61.9125,-1.05834 h -0.793749 v -0.26458 -0.26458 h 0.793749 0.79375 v 0.26458 0.26458 z m 6.085417,0 H 75.89762 v -0.26458 -0.26458 h 0.529167 0.529166 v 0.26458 0.26458 z m 30.691663,0 h -0.52916 v -0.26458 -0.26458 h 0.52916 0.52917 v 0.26458 0.26458 z m 2.64584,0 h -0.52917 v -0.26458 -0.26458 h 0.52917 0.52916 v 0.26458 0.26458 z m 28.04583,0 h -0.52917 v -0.26458 -0.26458 h 0.52917 0.52916 v 0.26458 0.26458 z m -66.145833,-1.05833 h -1.5875 v -0.26458 -0.26459 h 1.5875 1.5875 v 0.26459 0.26458 z m 2.910417,0 h -0.79375 v -0.26458 -0.26459 h 0.79375 0.79375 v 0.26459 0.26458 z m 1.852083,0 H 75.89762 v -0.26458 -0.26459 h 0.529167 0.529166 v 0.26459 0.26458 z m 1.322916,0 H 77.48512 v -0.26458 -0.26459 h 0.264583 0.264584 v 0.26459 0.26458 z m 1.322917,0 h -0.529167 v -0.26458 -0.26459 h 0.529167 0.529167 v 0.26459 0.26458 z m 1.322917,0 h -0.264584 v -0.26458 -0.26459 h 0.264584 0.264583 v 0.26459 0.26458 z m 7.143749,0 H 87.01012 v -0.26458 -0.26459 h 0.529166 0.529167 v 0.26459 0.26458 z m 1.322917,0 H 88.59762 v -0.26458 -0.26459 h 0.264583 0.264583 v 0.26459 0.26458 z m 1.852083,0 h -1.058333 v -0.26458 -0.26459 h 1.058333 1.058333 v 0.26459 0.26458 z m 2.116667,0 h -0.529167 v -0.26458 -0.26459 h 0.529167 0.529166 v 0.26459 0.26458 z m 1.5875,0 h -0.529167 v -0.26458 -0.26459 h 0.529167 0.529166 v 0.26459 0.26458 z m 1.322916,0 h -0.264583 v -0.26458 -0.26459 h 0.264583 0.264584 v 0.26459 0.26458 z m 1.322917,0 h -0.529167 v -0.26458 -0.26459 h 0.529167 0.529166 v 0.26459 0.26458 z m 7.937504,0 h -1.05834 v -0.26458 -0.26459 h 1.05834 1.05833 v 0.26459 0.26458 z m 2.11666,0 h -0.52916 v -0.26458 -0.26459 h 0.52916 0.52917 v 0.26459 0.26458 z m 1.32292,0 h -0.26458 v -0.26458 -0.26459 h 0.26458 0.26458 v 0.26459 0.26458 z m 1.32292,0 h -0.52917 v -0.26458 -0.26459 h 0.52917 0.52916 v 0.26459 0.26458 z m 1.32291,0 h -0.26458 v -0.26458 -0.26459 h 0.26458 0.26459 v 0.26459 0.26458 z m 1.32292,0 h -0.52917 v -0.26458 -0.26459 h 0.52917 0.52917 v 0.26459 0.26458 z m 1.32292,0 h -0.26459 v -0.26458 -0.26459 h 0.26459 0.26458 v 0.26459 0.26458 z m 11.90624,0 h -0.52916 v -0.26458 -0.26459 h 0.52916 0.52917 v 0.26459 0.26458 z m 1.85209,0 h -0.79375 v -0.26458 -0.26459 h 0.79375 0.79375 v 0.26459 0.26458 z m 2.38125,0 h -1.05834 v -0.26458 -0.26459 h 1.05834 1.05833 v 0.26459 0.26458 z m 2.38125,0 h -0.26459 v -0.26458 -0.26459 h 0.26459 0.26458 v 0.26459 0.26458 z m 1.5875,0 h -0.26459 v -0.26458 -0.26459 h 0.26459 0.26458 v 0.26459 0.26458 z m 1.32291,0 h -0.52916 v -0.26458 -0.26459 h 0.52916 0.52917 v 0.26459 0.26458 z m 1.32292,0 h -0.26458 v -0.26458 -0.26459 h 0.26458 0.26458 v 0.26459 0.26458 z m 1.32292,0 h -0.52917 v -0.26458 -0.26459 h 0.52917 0.52916 v 0.26459 0.26458 z m 1.32291,0 h -0.26458 v -0.26458 -0.26459 h 0.26458 0.26459 v 0.26459 0.26458 z m -72.609219,-3.175 h -0.15119 v -0.15119 -0.15119 l 0.409474,-0.40948 0.409474,-0.40947 0.151191,0.15119 0.15119,0.15119 -0.409474,0.40948 -0.409474,0.40947 z"
         id="path1054"
         inkscape:connector-curvature="0"
         sodipodi:nodetypes="ccccccccccccccccccccccccccccccccccccccccccccccccccccccccccccccccccccccccccccccccccccccccccccccccccccccccccccccccccccccccccccccccccccccccccccccccccccccccccccccccccccccccccccccccccccccccccccccccccccccccccccccccccccccccccccccccccccccccccccccccccccccccccccccccccccccccccccccccccccccccccccccccccccccccccccccccccccccccccccccccccccccccccccccccccccccccccccccccccccccccccccccccccccccccccccccccccccccccccccccccccccccccccccccccccccccccccccccccccccccccccccccccccccccccccccccccccccccccccccccccccccccccccccccccccccccccccccccccccccccccccccccccccccccccccccccccccccccccccccccccccccccccccccccccccccccccccccccc" />
      <path
         style="display:inline;fill:#9fbfaf;stroke-width:0.26458332"
         d="m 108.12266,119.26553 -42.676081,-0.0101 -0.330729,-0.37565 -0.330729,-0.37564 v -8.75445 -8.75444 l 0.649431,-0.64943 0.649432,-0.649433 h 42.357386 42.35738 l 0.64943,0.649433 0.64944,0.64943 v 8.49072 8.49072 l -0.64944,0.64943 -0.64943,0.64943 -42.67609,-0.01 z m 0.27146,-0.52917 42.41838,0.0101 0.37797,-0.37798 0.37798,-0.37797 v -8.50446 -8.50446 l -0.37798,-0.37798 -0.37797,-0.37798 H 108.44137 66.07024 l -0.377977,0.37798 -0.377976,0.37798 v 8.49673 8.49673 l 0.33073,0.37564 0.330729,0.37565 42.418374,0.0101 z m -41.161604,-1.05833 -0.198437,-0.0101 -0.330729,-0.37564 -0.330729,-0.37565 v -7.16694 -7.16694 l 0.649431,-0.64943 0.649432,-0.64944 h 41.034466 41.03447 l 0.64943,0.64943 0.64943,0.64943 v 7.17467 7.17468 l -0.40947,0.40948 -0.40948,0.40947 -0.18583,-0.20001 -0.18584,-0.20002 0.33073,-0.11811 0.33073,-0.11812 v -7.27289 -7.27289 l -0.37798,-0.37798 -0.37798,-0.37798 H 108.70595 67.65774 l -0.377977,0.37798 -0.377976,0.37798 v 7.29494 7.29494 h 0.264584 0.264583 v 0.26458 0.26458 l -0.198438,-0.0101 z m 41.360044,-0.5191 H 67.960121 v -0.26459 -0.26458 h 40.745829 40.74583 v -6.87917 -6.87916 h 0.26459 0.26458 v 6.76577 6.76577 l -0.37798,0.37798 -0.37797,0.37798 z m 0.11339,-1.05834 H 68.489287 v -6.35 -6.35 h 40.216663 40.21667 v 3.96875 3.96875 h -0.20618 -0.20617 l -0.3814,-0.52916 -0.38141,-0.52917 h -0.61507 -0.61508 l -0.64943,0.64943 -0.64943,0.64943 v 0.55322 0.55322 l 0.64943,0.64943 0.64943,0.64944 h 0.61508 0.61507 l 0.38141,-0.52917 0.3814,-0.52917 h 0.20617 0.20618 v 1.5875 1.5875 z m 8.14796,-2.13285 0.60734,0.0162 0.64944,-0.64944 0.64943,-0.64944 v -0.55322 -0.55322 l -0.64943,-0.64943 -0.64944,-0.64943 h -0.55322 -0.55322 l -0.64943,0.64943 -0.64943,0.64943 v 0.55065 0.55065 l 0.59531,0.63582 0.59532,0.63582 0.60733,0.0162 z m 15.13537,-1.04215 h 10.58334 v -0.52916 -0.52917 h -10.58334 -10.58333 v 0.52917 0.52916 z m -57.149993,-5.29166 h 5.820833 v -1.85209 -1.85208 h -5.820833 -5.820833 v 1.85208 1.85209 z m 16.933332,0 h 5.820833 v -1.85209 -1.85208 h -5.820833 -5.820833 v 1.85208 1.85209 z m 16.668751,0 h 5.55625 v -1.85209 -1.85208 h -5.55625 -5.55625 v 1.85208 1.85209 z m 23.54791,0 h 7.40834 v -1.85209 -1.85208 h -7.40834 -7.40833 v 1.85208 1.85209 z"
         id="path1050"
         inkscape:connector-curvature="0"
         sodipodi:nodetypes="cccccccccccccccccccccccccccccccccccccccccccccccccccccccccccccccccccccccccccccccccccccccccccccccccccccccccccccccccccccccccccccccccccccccccccccccccccccccccccccccccccccccccccaccccccc" />
      <path
         style="display:inline;fill:#777776;stroke-width:0.26458332"
         d="m 174.73152,120.33393 h -7.28807 v -0.26459 -0.26458 h 7.02348 7.02349 l 0.64943,-0.64943 0.64943,-0.64943 v -0.93807 -0.93807 h 0.26458 0.26459 v 1.20265 1.20265 l -0.64943,0.64943 -0.64944,0.64944 z m -66.14583,-0.52917 H 65.843454 v -0.26458 -0.26459 h 42.477646 42.47765 l 0.64943,-0.64943 0.64944,-0.64943 v -8.5138 -8.51381 l -0.57159,-0.49573 -0.57159,-0.495737 0.15868,-0.158673 0.15868,-0.158676 0.67749,0.677496 0.67749,0.67749 v 8.7553 8.75531 l -0.64943,0.64943 -0.64943,0.64943 z m 58.13015,-0.53923 -0.19843,-0.0101 -0.33073,-0.37564 -0.33073,-0.37565 v -2.40444 -2.40444 l 0.64943,-0.64943 0.64943,-0.64944 h 7.16781 7.1678 l 0.67749,0.67749 0.6775,0.67749 -0.15868,0.15868 -0.15867,0.15868 -0.49574,-0.57159 -0.49573,-0.57159 h -7.19776 -7.19776 l -0.37798,0.37798 -0.37797,0.37797 v 1.6253 1.6253 l 0.37797,0.37798 0.37798,0.37797 h 7.55952 7.55952 v 0.41578 0.41577 l -0.37797,0.37798 -0.37798,0.37797 h -7.03035 -7.03036 v -0.41577 -0.41578 l -0.37798,-0.37797 -0.37797,-0.37798 h -0.15119 -0.15119 v 0.52917 0.52917 h 0.26458 0.26458 v 0.26458 0.26458 l -0.19844,-0.01 z m -99.020303,-2.63577 h -0.264583 v -6.76577 -6.76578 l 0.377976,-0.37797 0.377976,-0.37798 h 40.632434 40.63244 v 0.26458 0.26459 H 108.70595 67.960121 v 6.87916 6.87917 z"
         id="path1046"
         inkscape:connector-curvature="0"
         sodipodi:nodetypes="ccccccccccccccccccccccccccccccccccccccccccccccccccccccccccccccccccccccccccccccccccccccccccccccccccc" />
      <path
         style="display:inline;fill:#000000;stroke-width:0.26458332"
         d="M 127.75607,123.50894 H 61.080954 V 78.000594 32.492262 h 66.674996 66.675 v 45.508332 45.508336 z m 0,-1.05834 h 65.61666 V 78.000594 33.550596 H 127.75595 62.139288 v 44.449998 44.449996 z m -19.10412,-2.13285 -43.205251,-0.0162 -0.595312,-0.63582 -0.595313,-0.63582 v -9.2819 -9.2819 l 0.649432,-0.649427 0.649432,-0.649433 h 43.151132 43.15114 l 0.64943,0.649433 0.64943,0.649427 v 9.28447 9.28447 l -0.64943,0.64943 -0.64943,0.64944 -43.20526,-0.0162 z m 0,-0.52916 42.67609,0.0162 0.64943,-0.64943 0.64943,-0.64943 v -8.75531 -8.7553 l -0.64943,-0.64943 -0.64943,-0.649433 H 108.70595 66.083984 l -0.649432,0.649433 -0.649431,0.64943 v 8.75273 8.75273 l 0.595312,0.63582 0.595313,0.63582 42.676084,0.0162 z m 0.007,-2.11055 -41.095464,-0.0101 -0.33073,-0.37565 -0.330729,-0.37564 v -7.17382 -7.17381 l 0.377976,-0.37798 0.377977,-0.37798 h 41.04821 41.04821 l 0.37798,0.37798 0.37798,0.37798 v 7.18154 7.18155 l -0.37798,0.37798 -0.37798,0.37797 -41.09545,-0.0101 z m 0,-0.52917 40.56629,0.0101 0.37798,-0.37798 0.37797,-0.37797 v -6.65238 -6.65238 l -0.37798,-0.37797 -0.37797,-0.37798 H 108.70595 68.186906 l -0.377976,0.37798 -0.377976,0.37797 v 6.64465 6.64465 l 0.330729,0.37564 0.330729,0.37565 40.566298,0.01 z m 8.19521,-3.18112 -0.60734,-0.0162 -0.59531,-0.63582 -0.59531,-0.63582 v -0.55065 -0.55064 l 0.64943,-0.64943 0.64942,-0.64943 h 0.55322 0.55322 l 0.64944,0.64943 0.64943,0.64943 v 0.55322 0.55322 l -0.64943,0.64943 -0.64944,0.64944 -0.60734,-0.0162 z m 0.007,-0.52304 0.61421,0.0101 0.37798,-0.37798 0.37796,-0.37796 v -0.56697 -0.56696 l -0.37797,-0.37798 -0.37798,-0.37797 h -0.56697 -0.56696 l -0.37798,0.37797 -0.37797,0.37798 v 0.55923 0.55923 l 0.33073,0.37565 0.33073,0.37564 0.61421,0.0101 z m 0.0472,-1.04827 h -0.79375 v -0.26459 -0.26458 h 0.79375 0.79375 v 0.26458 0.26459 z m 30.10838,1.57131 -0.60733,-0.0162 -0.59532,-0.63582 -0.59531,-0.63582 v -0.55065 -0.55064 l 0.64943,-0.64943 0.64943,-0.64943 h 0.55322 0.55322 l 0.64943,0.64943 0.64944,0.64943 v 0.55322 0.55322 l -0.64944,0.64943 -0.64943,0.64944 -0.60734,-0.0162 z m 0.007,-0.52304 0.61421,0.0101 0.37798,-0.37798 0.37797,-0.37796 v -0.56697 -0.56696 l -0.37798,-0.37798 -0.37797,-0.37797 h -0.56697 -0.56696 l -0.37798,0.37797 -0.37797,0.37798 v 0.55923 0.55923 l 0.33073,0.37565 0.33073,0.37564 0.61421,0.0101 z m 0,-0.52917 -0.085,-0.0101 -0.34525,-0.39118 -0.34525,-0.39119 0.41139,-0.4114 0.4114,-0.4114 0.41577,0.41578 0.41578,0.41577 -0.39688,0.39688 -0.39687,0.39687 -0.085,-0.0101 z m -15.03401,0.0101 H 121.4064 v -0.52916 -0.52917 h 10.58333 10.58334 v 0.52917 0.52916 z m -61.383326,-5.82083 h -1.058333 v -0.26458 -0.26459 h 0.793749 0.79375 v -0.26458 -0.26458 h -0.79375 -0.793749 v -0.79375 -0.79375 h 1.058333 1.058333 v 0.26458 0.26458 h -0.79375 -0.79375 v 0.26459 0.26458 h 0.79375 0.79375 v 0.79375 0.79375 z m 2.910416,0 h -0.264583 v -1.05833 -1.05834 H 72.72262 72.193454 v -0.26458 -0.26458 h 1.322916 1.322917 v 0.26458 0.26458 H 74.31012 73.780954 v 1.05834 1.05833 z m 2.910417,0 h -1.058333 v -1.32292 -1.32291 h 1.058333 1.058333 v 1.32291 1.32292 z m 0,-0.52917 h 0.529166 v -0.79375 -0.79375 H 76.426787 75.89762 v 0.79375 0.79375 z m 1.852083,0.52917 h -0.264583 v -1.32292 -1.32291 h 1.058333 1.058333 v 0.79375 0.79375 h -0.79375 -0.79375 v 0.52916 0.52917 z m 0.79375,-1.5875 h 0.529167 v -0.26458 -0.26459 H 79.07262 78.543453 v 0.26459 0.26458 z m 7.672916,1.5875 h -0.264583 v -1.32292 -1.32291 h 1.058333 1.058334 v 0.79375 0.79375 h -0.79375 -0.79375 v 0.52916 0.52917 z m 0.79375,-1.5875 h 0.529167 v -0.26458 -0.26459 H 87.539286 87.01012 v 0.26459 0.26458 z m 2.645834,1.5875 h -1.058334 v -1.32292 -1.32291 h 0.264584 0.264583 v 1.05833 1.05833 h 0.79375 0.79375 v 0.26459 0.26458 z m 1.852083,0 h -0.264584 v -0.94494 -0.94494 l 0.377976,-0.37798 0.377976,-0.37797 h 0.302382 0.302381 l 0.377976,0.37797 0.377976,0.37798 v 0.94494 0.94494 h -0.264583 -0.264584 v -0.52917 -0.52916 h -0.529166 -0.529167 v 0.52916 0.52917 z m 0.79375,-1.5875 h 0.529166 v -0.26458 -0.26459 h -0.529166 -0.529167 v 0.26459 0.26458 z m 2.910416,1.5875 h -0.264583 v -0.69657 -0.69657 l -0.571585,-0.49573 -0.571587,-0.49574 0.173032,-0.17303 0.173032,-0.17303 0.530847,0.61207 0.530844,0.61207 0.530844,-0.61207 0.530847,-0.61207 0.173032,0.17303 0.173032,0.17303 -0.571587,0.49574 -0.571584,0.49573 v 0.69657 0.69657 z m 8.731251,0 h -1.05833 v -1.32292 -1.32291 h 0.26458 0.26458 v 1.05833 1.05833 h 0.79375 0.79375 v 0.26459 0.26458 z m 2.64583,0 h -1.05833 v -1.32292 -1.32291 h 1.05833 1.05834 v 1.32291 1.32292 z m 0,-0.52917 h 0.52917 v -0.79375 -0.79375 h -0.52917 -0.52916 v 0.79375 0.79375 z m 2.64584,0.52917 h -1.05834 v -1.32292 -1.32291 h 1.05834 1.05833 v 1.32291 1.32292 z m 0,-0.52917 h 0.52916 v -0.79375 -0.79375 h -0.52916 -0.52917 v 0.79375 0.79375 z m 1.85208,0.52917 h -0.26458 v -1.32292 -1.32291 h 1.05833 1.05833 v 0.79375 0.79375 h -0.79375 -0.79375 v 0.52916 0.52917 z m 0.79375,-1.5875 h 0.52917 v -0.26458 -0.26459 h -0.52917 -0.52917 v 0.26459 0.26458 z m 14.02291,1.5875 h -0.26458 v -1.05833 -1.05834 h -0.52917 -0.52916 v -0.26458 -0.26458 h 1.32291 1.32292 v 0.26458 0.26458 h -0.52917 -0.52916 v 1.05834 1.05833 z m 2.91042,0 h -1.05833 v -1.32292 -1.32291 h 1.05833 1.05833 v 0.26458 0.26458 h -0.79375 -0.79375 v 0.26459 0.26458 h 0.79375 0.79375 v 0.26458 0.26459 h -0.79375 -0.79375 v 0.26458 0.26458 h 0.79375 0.79375 v 0.26459 0.26458 z m 1.85208,0 h -0.26458 v -1.32292 -1.32291 h 0.1674 0.16741 l 0.49405,0.56965 0.49406,0.56965 0.49405,-0.56965 0.49406,-0.56965 h 0.1674 0.1674 v 1.32291 1.32292 h -0.26458 -0.26458 v -0.79375 -0.79375 h -0.24254 -0.24253 l -0.15434,0.33073 -0.15434,0.33073 -0.15434,-0.33073 -0.15434,-0.33073 h -0.24254 -0.24253 v 0.79375 0.79375 z m 3.175,0 h -0.26458 v -1.32292 -1.32291 h 1.05833 1.05834 v 0.79375 0.79375 h -0.79375 -0.79375 v 0.52916 0.52917 z m 0.79375,-1.5875 h 0.52917 v -0.26458 -0.26459 h -0.52917 -0.52916 v 0.26459 0.26458 z m 2.64584,1.5875 h -1.05834 v -1.32292 -1.32291 h 1.05834 1.05833 v 1.32291 1.32292 z m 0,-0.52917 h 0.52916 v -0.79375 -0.79375 h -0.52916 -0.52917 v 0.79375 0.79375 z m 36.39223,13.22917 h -7.28807 v -0.26458 -0.26459 h 7.29494 7.29494 l 0.37798,-0.37797 0.37797,-0.37798 v -0.39372 -0.39373 l -0.33072,-0.15434 -0.33073,-0.15434 0.33073,-0.15434 0.33072,-0.15434 v -1.56545 -1.56545 h 0.26459 0.26458 v 2.26098 2.26099 l -0.64943,0.64943 -0.64943,0.64943 z m -5.70057,-2.64583 h -1.05833 v -1.85209 -1.85208 h 1.05833 1.05834 v 0.52917 0.52916 h -0.26459 -0.26458 v -0.26458 -0.26458 h -0.52917 -0.52916 v 1.32291 1.32292 h 0.52916 0.52917 v -0.26458 -0.26459 h 0.26458 0.26459 v 0.52917 0.52917 z m 2.64584,0 h -1.05834 v -1.85209 -1.85208 h 0.26459 0.26458 v 1.5875 1.5875 h 0.79375 0.79375 v 0.26458 0.26459 z m 2.64583,0 h -1.05833 v -1.85209 -1.85208 h 1.05833 1.05833 v 0.26458 0.26459 h -0.79375 -0.79375 v 0.52916 0.52917 h 0.52917 0.52917 v 0.26458 0.26459 h -0.52917 -0.52917 v 0.52916 0.52917 h 0.79375 0.79375 v 0.26458 0.26459 z m 1.85208,0 h -0.26458 v -1.47411 -1.47411 l 0.37797,-0.37797 0.37798,-0.37798 h 0.56697 0.56696 l 0.37798,0.37798 0.37797,0.37797 v 1.47411 1.47411 h -0.26458 -0.26458 v -0.79375 -0.79375 h -0.79375 -0.79375 v 0.79375 0.79375 z m 1.05834,-2.11667 h 0.79375 v -0.52917 -0.52916 h -0.79375 -0.79375 v 0.52916 0.52917 z m 2.11666,2.11667 h -0.26458 v -1.85209 -1.85208 h 0.94494 0.94494 l 0.37798,0.37798 0.37797,0.37797 v 0.41578 0.41577 h -0.26458 -0.26458 v 0.52917 0.52916 h 0.26458 0.26458 v 0.52917 0.52917 h -0.26458 -0.26458 v -0.41578 -0.41577 l -0.37798,-0.37798 -0.37798,-0.37797 h -0.41577 -0.41577 v 0.79375 0.79375 z m 1.05834,-2.11667 h 0.79375 v -0.52917 -0.52916 h -0.79375 -0.79375 v 0.52916 0.52917 z m -5.55625,-7.40833 h -16.93334 v -2.38125 -2.38125 h 16.93334 16.93333 v 2.38125 2.38125 z m -15.08125,-0.52917 h 1.32291 v -1.85208 -1.85209 h -1.32291 -1.32292 v 1.85209 1.85208 z m 0.59531,-0.54535 -0.19844,-0.0162 -0.60598,-0.64663 -0.60599,-0.64663 0.66011,-0.6601 0.6601,-0.66011 h 0.14432 0.14432 v 1.32292 1.32292 l -0.19844,-0.0162 z m 14.48594,0.54535 h 13.22916 v -1.85208 -1.85209 H 174.32307 161.0939 v 1.85209 1.85208 z m 15.08124,0 h 1.32292 v -1.85208 -1.85209 h -1.32292 -1.32291 v 1.85209 1.85208 z m -0.64943,-0.52917 h -0.14432 v -1.32291 -1.32292 h 0.14432 0.14432 l 0.66146,0.66146 0.66146,0.66146 -0.66146,0.66146 -0.66146,0.66145 z m -28.91775,-4.24951 -0.19844,-0.0162 -0.60598,-0.64663 -0.60599,-0.64663 0.68817,-0.68817 0.68816,-0.688164 0.18241,0.196575 0.1824,0.196579 -0.33073,0.11812 -0.33073,0.11811 v 0.24254 0.24253 h 0.79375 0.79375 v 0.26459 0.26458 h -0.79375 -0.79375 v 0.26458 0.26459 h 0.26458 0.26459 v 0.26458 0.26458 l -0.19844,-0.0162 z m 8.6651,0.0162 h -1.05833 v -0.26458 -0.26459 h 0.79375 0.79375 v -0.26458 -0.26458 h -0.79375 -0.79375 v -0.79375 -0.793753 h 1.05833 1.05834 v 0.264583 0.26458 h -0.79375 -0.79375 v 0.26459 0.26458 h 0.79375 0.79375 v 0.79375 0.79375 z m 2.64584,0 h -1.05834 v -1.32292 -1.322913 h 1.05834 1.05833 v 0.529163 0.52917 h -0.26458 -0.26459 v -0.26458 -0.26459 h -0.52916 -0.52917 v 0.79375 0.79375 h 0.52917 0.52916 v -0.26458 -0.26458 h 0.26459 0.26458 v 0.52916 0.52917 z m 1.85208,0 h -0.26458 v -1.32292 -1.322913 h 1.05833 1.05833 v 0.507123 0.50711 l -0.33073,0.15434 -0.33073,0.15434 0.33073,0.15434 0.33073,0.15435 v 0.50711 0.50712 h -0.26458 -0.26458 v -0.52917 -0.52916 h -0.52917 -0.52917 v 0.52916 0.52917 z m 0.79375,-1.5875 h 0.52917 v -0.26458 -0.26459 h -0.52917 -0.52917 v 0.26459 0.26458 z m 2.64583,1.5875 h -1.05833 v -1.32292 -1.322913 h 1.05833 1.05834 v 1.322913 1.32292 z m 0,-0.52917 h 0.52917 v -0.79375 -0.79375 h -0.52917 -0.52916 v 0.79375 0.79375 z m 2.38125,0.52917 h -0.79375 v -1.32292 -1.322913 h 0.26459 0.26458 v 1.058333 1.05833 h 0.52917 0.52916 v 0.26459 0.26458 z m 2.11667,0 h -0.79375 v -1.32292 -1.322913 h 0.26458 0.26459 v 1.058333 1.05833 h 0.52916 0.52917 v 0.26459 0.26458 z m 7.81723,0 h -0.14432 v -0.26458 -0.26459 h 0.26459 0.26458 v -0.26458 -0.26458 h -0.79375 -0.79375 v -0.26459 -0.26458 h 0.79375 0.79375 v -0.24254 -0.24253 l -0.33073,-0.11812 -0.33073,-0.11811 0.1824,-0.196582 0.18241,-0.196574 0.68952,0.689516 0.68952,0.68952 -0.66146,0.66146 -0.66146,0.66146 z M 162.41682,101.284 h -0.79375 v -0.26459 -0.26458 h 0.79375 0.79375 v 0.26458 0.26459 z m 2.11666,0 h -0.79375 v -0.26459 -0.26458 h 0.79375 0.79375 v 0.26458 0.26459 z m 19.57917,0 h -0.79375 v -0.26459 -0.26458 h 0.79375 0.79375 v 0.26458 0.26459 z m 2.11666,0 h -0.79375 v -0.26459 -0.26458 h 0.79375 0.79375 v 0.26458 0.26459 z"
         id="path1042"
         inkscape:connector-curvature="0"
         sodipodi:nodetypes="cccccccccccccccccccccccccccccccccccccccccccccccccccccccccccccccccccccccccccccccccccccccccccccccccccccccccccccccccccccccccccccccccccccccccccccccccccccccccccccccccccccccccccccccccccccccccccccccccccccccccccccccccccccccccccccccccccccccccccccccccccccccccccccccccccccccccccccccccccccccccccccccccccccccccccccccccccccccccccccccccccccccccccccccccccccccccccccccccccccccccccccccccccccccccccccccccccccccccccccccccccccccccccccccccccccccccccccccccccccccccccccccccccccccccccccccccccccccccccccccccccccccccccccccccccccccccccccccccccccccccccccccccccccccccccccccccccccccccccccccccccccccccccccccccccccccccccccccccccccccccccccccccccccccccccccccccccccccccccccccccccccccccccccccccccccccccccccccccccccccccccccccccccccccccccccccccccccccccccccccccccccccccccccccccccccccccccccccccccccccccccccccccccccccccccccccccccccccccccccccccccccccccccccccccccccccccccccccccccccccccccccccccccccccccccccccccccccccccccccccccccccccccccccccccccccccccccccccccccccccccccccccccccccccccccccccccccccccccccccccccccccc" />
    </g>
  </g>
</svg>
