<svg><g transform="translate(2.5,22)"><path d="M396.4 187.6C396.4 252.4 367.6 310 324.4 353.2 266.8 410.8 202 439.6 122.8 468.4 115.6 468.4 101.2 461.2 115.6 454 144.4 446.8 180.4 432.4 202 410.8 259.6 374.8 310 317.2 324.4 245.2 331.6 202 331.6 158.8 317.2 115.6 310 86.8 288.4 58 252.4 50.8 223.6 43.6 194.8 58 173.2 79.6 166 86.8 151.6 101.2 151.6 122.8 166 108.4 166 108.4 180.4 108.4 202 94 238 108.4 245.2 137.2 245.2 166 245.2 194.8 216.4 209.2 194.8 223.6 151.6 216.4 137.2 187.6 115.6 144.4 130 86.8 166 58 209.2 22 266.8 22 310 43.6 360.4 58 389.2 108.4 396.4 158.8 396.4 166 396.4 180.4 396.4 187.6z"></path><circle cx="4.5" cy="-1" r="0.4"></circle><circle cx="4.5" cy="1" r="0.4"></circle></g></svg>