<svg><path transform="translate(2.65,10.5)" d="m266.26 278.86c-6.48 2.16-12.24 6.48-18.72 12.24-5.04 6.48-8.28 13.68-8.28 20.88 0 5.04 2.16 10.44 5.04 16.92 3.24 6.48 8.28 10.44 14.4 12.24 2.16 0 3.24 1.08 3.24 3.24 0 1.08-1.08 1.08-3.24 1.08-10.44-2.16-18.72-8.28-24.84-15.48-6.48-8.28-9.36-17.64-10.44-28.08 0-11.52 3.96-21.96 10.44-31.32 6.48-9.36 14.4-16.92 24.84-20.88l-7.2-39.6c-16.92 14.4-29.88 29.16-41.76 43.56-10.44 15.48-16.92 32.4-16.92 50.04 0 8.28 2.16 15.48 5.04 22.68 3.24 7.2 7.2 14.4 13.68 20.88 12.24 12.24 28.08 18.72 47.88 19.44 6.48 0 13.68-2.16 21.96-3.24l-16.92-86.4zm8.28-1.08 16.92 84.24c16.92-7.2 24.84-21.96 24.84-44.64-1.08-7.2-3.24-14.4-7.2-20.88-3.24-6.48-8.28-11.52-14.4-14.4-6.48-3.24-13.68-5.04-20.88-5.04zm-22.68-114.48c3.24-2.16 8.28-6.48 12.24-11.52 3.96-5.04 9.36-11.52 13.68-18.72 3.96-7.2 7.2-14.4 10.44-21.96 2.16-7.2 3.96-14.4 3.96-20.88 0-3.24 0-5.04-1.08-8.28 0-3.96-2.16-7.2-3.96-9.36-2.16-2.16-5.04-3.24-8.28-3.24-6.48 0-12.24 3.96-17.64 12.24-3.96 7.2-7.2 15.48-10.44 24.84-2.16 9.36-3.96 18.72-3.96 28.08 1.08 10.44 2.16 19.44 5.04 27.36zm-7.2 6.48c-5.04-17.64-7.2-36.36-8.28-54 0-11.52 1.08-22.68 3.24-33.12 2.16-10.44 5.04-18.72 9.36-27.36 3.96-7.2 8.28-13.68 14.4-17.64 5.04-3.24 8.28-5.04 10.44-5.04 1.08 0 3.24 1.08 3.96 1.08 1.08 1.08 2.16 3.24 3.96 5.04 13.68 18.72 19.44 40.32 19.44 67.68 0 12.24-2.16 24.84-5.04 36.36-3.24 12.24-8.28 24.12-14.4 34.56-6.48 10.44-13.68 19.44-22.68 28.08l9.36 43.56c5.04-1.08 8.28-1.08 10.44-1.08 8.28 0 15.48 2.16 22.68 5.04 7.2 3.24 12.24 8.28 17.64 14.4 5.04 6.48 8.28 12.24 11.52 20.88 2.16 7.2 3.96 15.48 3.96 24.12 0 12.24-3.24 24.84-10.44 35.28-7.2 10.44-16.92 18.72-31.32 24.12 1.08 5.04 2.16 13.68 5.04 22.68 2.16 10.44 3.96 17.64 5.04 24.12 1.08 6.48 1.08 11.52 1.08 17.64 0 8.28-2.16 16.92-6.48 22.68-3.96 7.2-10.44 12.24-17.64 15.48-7.2 3.96-14.4 5.04-24.12 5.04-12.24 0-22.68-3.24-31.32-10.44-9.36-7.2-13.68-15.48-14.4-28.08 0-5.04 1.08-10.44 3.96-14.4 2.16-3.96 5.04-8.28 9.36-11.52 3.96-3.24 8.28-3.96 13.68-5.04 3.96 0 8.28 1.08 12.24 3.24 3.96 2.16 7.2 5.04 9.36 9.36 2.16 3.96 3.24 8.28 3.24 13.68 0 6.48-2.16 12.24-6.48 16.92-3.96 3.96-10.44 7.2-16.92 7.2h-2.16c3.96 6.48 11.52 10.44 20.88 10.44 5.04 0 10.44-1.08 14.4-3.24 5.04-2.16 9.36-5.04 13.68-8.28 3.24-3.24 6.48-7.2 7.2-11.52 2.16-3.96 3.24-10.44 3.24-18.72 0-5.04-1.08-10.44-1.08-15.48-1.08-5.04-2.16-12.24-3.96-20.88-2.16-8.28-3.24-14.4-3.96-19.44-6.48 2.16-13.68 2.16-20.88 2.16-12.24 0-22.68-2.16-34.56-7.2-10.44-5.04-19.44-11.52-28.08-20.88-8.28-8.28-14.4-18.72-18.72-29.88-3.96-11.52-6.48-22.68-7.2-34.56 0-11.52 2.16-21.96 6.48-32.4 3.96-10.44 9.36-19.44 15.48-29.16 6.48-9.36 12.24-17.64 19.44-24.84 7.2-7.2 15.48-16.92 27.36-28.08z"></path></svg>