<?xml version="1.0" encoding="UTF-8" standalone="no"?>
<svg
   xmlns:dc="http://purl.org/dc/elements/1.1/"
   xmlns:cc="http://creativecommons.org/ns#"
   xmlns:rdf="http://www.w3.org/1999/02/22-rdf-syntax-ns#"
   xmlns:svg="http://www.w3.org/2000/svg"
   xmlns="http://www.w3.org/2000/svg"
   xmlns:sodipodi="http://sodipodi.sourceforge.net/DTD/sodipodi-0.dtd"
   xmlns:inkscape="http://www.inkscape.org/namespaces/inkscape"
   version="1.2"
   width="188.60706"
   height="75.965111"
   viewBox="0 0 30.2903 12.199999"
   id="svg2"
   inkscape:version="0.48.5 r10040"
   sodipodi:docname="lignes supplémentaires.svg">
  <title
     id="title3043">Lignes supplémentaires</title>
  <metadata
     id="metadata66">
    <rdf:RDF>
      <cc:Work
         rdf:about="">
        <dc:format>image/svg+xml</dc:format>
        <dc:type
           rdf:resource="http://purl.org/dc/dcmitype/StillImage" />
        <dc:title>Lignes supplémentaires</dc:title>
        <cc:license
           rdf:resource="http://creativecommons.org/licenses/publicdomain/" />
        <dc:description>portée musicale, avec des lignes suplémentaires.</dc:description>
      </cc:Work>
      <cc:License
         rdf:about="http://creativecommons.org/licenses/publicdomain/">
        <cc:permits
           rdf:resource="http://creativecommons.org/ns#Reproduction" />
        <cc:permits
           rdf:resource="http://creativecommons.org/ns#Distribution" />
        <cc:permits
           rdf:resource="http://creativecommons.org/ns#DerivativeWorks" />
      </cc:License>
    </rdf:RDF>
  </metadata>
  <defs
     id="defs64" />
  <sodipodi:namedview
     pagecolor="#ffffff"
     bordercolor="#666666"
     borderopacity="1"
     objecttolerance="10"
     gridtolerance="10"
     guidetolerance="10"
     inkscape:pageopacity="0"
     inkscape:pageshadow="2"
     inkscape:window-width="1525"
     inkscape:window-height="480"
     id="namedview62"
     showgrid="false"
     fit-margin-top="0"
     fit-margin-left="0"
     fit-margin-right="0"
     fit-margin-bottom="0"
     inkscape:zoom="1"
     inkscape:cx="-153.03555"
     inkscape:cy="-23.470642"
     inkscape:window-x="0"
     inkscape:window-y="0"
     inkscape:window-maximized="0"
     inkscape:current-layer="svg2" />
  <!-- Page: 1/1 -->
  <rect
     transform="translate(30.1002,6.0999983)"
     x="0"
     y="-2.05"
     width="0.19"
     height="4.0999999"
     ry="0"
     id="rect4"
     style="fill:currentColor" />
  <rect
     transform="translate(29.6102,6.0999983)"
     x="0"
     y="-2.05"
     width="0.19"
     height="4.0999999"
     ry="0"
     id="rect6"
     style="fill:currentColor" />
  <line
     transform="translate(0,8.0999983)"
     x1="0.050000001"
     y1="0"
     x2="30.240299"
     y2="0"
     id="line8"
     style="stroke:currentColor;stroke-width:0.1;stroke-linecap:round;stroke-linejoin:round" />
  <line
     transform="translate(0,7.0999983)"
     x1="0.050000001"
     y1="0"
     x2="30.240299"
     y2="0"
     id="line10"
     style="stroke:currentColor;stroke-width:0.1;stroke-linecap:round;stroke-linejoin:round" />
  <line
     transform="translate(0,6.0999983)"
     x1="0.050000001"
     y1="0"
     x2="30.240299"
     y2="0"
     id="line12"
     style="stroke:currentColor;stroke-width:0.1;stroke-linecap:round;stroke-linejoin:round" />
  <line
     transform="translate(0,5.0999983)"
     x1="0.050000001"
     y1="0"
     x2="30.240299"
     y2="0"
     id="line14"
     style="stroke:currentColor;stroke-width:0.1;stroke-linecap:round;stroke-linejoin:round" />
  <line
     transform="translate(0,4.0999983)"
     x1="0.050000001"
     y1="0"
     x2="30.240299"
     y2="0"
     id="line16"
     style="stroke:currentColor;stroke-width:0.1;stroke-linecap:round;stroke-linejoin:round" />
  <rect
     transform="translate(0,9.0999983)"
     x="4.803"
     y="-0.1"
     width="2.97"
     height="0.2"
     ry="0.1"
     id="rect18"
     style="fill:currentColor" />
  <rect
     transform="translate(0,3.0999983)"
     x="4.803"
     y="-0.1"
     width="2.97"
     height="0.2"
     ry="0.1"
     id="rect20"
     style="fill:currentColor" />
  <rect
     transform="translate(0,9.0999983)"
     x="10.8811"
     y="-0.1"
     width="2.97"
     height="0.2"
     ry="0.1"
     id="rect22"
     style="fill:currentColor" />
  <rect
     transform="translate(0,10.099998)"
     x="10.8811"
     y="-0.1"
     width="2.97"
     height="0.2"
     ry="0.1"
     id="rect24"
     style="fill:currentColor" />
  <rect
     transform="translate(0,3.0999983)"
     x="10.8811"
     y="-0.1"
     width="2.97"
     height="0.2"
     ry="0.1"
     id="rect26"
     style="fill:currentColor" />
  <rect
     transform="translate(0,2.0999983)"
     x="10.8811"
     y="-0.1"
     width="2.97"
     height="0.2"
     ry="0.1"
     id="rect28"
     style="fill:currentColor" />
  <rect
     transform="translate(0,9.0999983)"
     x="16.959101"
     y="-0.1"
     width="2.97"
     height="0.2"
     ry="0.1"
     id="rect30"
     style="fill:currentColor" />
  <rect
     transform="translate(0,10.099998)"
     x="16.959101"
     y="-0.1"
     width="2.97"
     height="0.2"
     ry="0.1"
     id="rect32"
     style="fill:currentColor" />
  <rect
     transform="translate(0,11.099998)"
     x="16.959101"
     y="-0.1"
     width="2.97"
     height="0.2"
     ry="0.1"
     id="rect34"
     style="fill:currentColor" />
  <rect
     transform="translate(0,3.0999983)"
     x="16.959101"
     y="-0.1"
     width="2.97"
     height="0.2"
     ry="0.1"
     id="rect36"
     style="fill:currentColor" />
  <rect
     transform="translate(0,2.0999983)"
     x="16.959101"
     y="-0.1"
     width="2.97"
     height="0.2"
     ry="0.1"
     id="rect38"
     style="fill:currentColor" />
  <rect
     transform="translate(0,1.0999983)"
     x="16.959101"
     y="-0.1"
     width="2.97"
     height="0.2"
     ry="0.1"
     id="rect40"
     style="fill:currentColor" />
  <rect
     transform="translate(0,9.0999983)"
     x="23.037201"
     y="-0.1"
     width="2.97"
     height="0.2"
     ry="0.1"
     id="rect42"
     style="fill:currentColor" />
  <rect
     transform="translate(0,10.099998)"
     x="23.037201"
     y="-0.1"
     width="2.97"
     height="0.2"
     ry="0.1"
     id="rect44"
     style="fill:currentColor" />
  <rect
     transform="translate(0,11.099998)"
     x="23.037201"
     y="-0.1"
     width="2.97"
     height="0.2"
     ry="0.1"
     id="rect46"
     style="fill:currentColor" />
  <rect
     transform="translate(0,12.099998)"
     x="23.037201"
     y="-0.1"
     width="2.97"
     height="0.2"
     ry="0.1"
     id="rect48"
     style="fill:currentColor" />
  <rect
     transform="translate(0,3.0999983)"
     x="23.037201"
     y="-0.1"
     width="2.97"
     height="0.2"
     ry="0.1"
     id="rect50"
     style="fill:currentColor" />
  <rect
     transform="translate(0,2.0999983)"
     x="23.037201"
     y="-0.1"
     width="2.97"
     height="0.2"
     ry="0.1"
     id="rect52"
     style="fill:currentColor" />
  <rect
     transform="translate(0,1.0999983)"
     x="23.037201"
     y="-0.1"
     width="2.97"
     height="0.2"
     ry="0.1"
     id="rect54"
     style="fill:currentColor" />
  <rect
     transform="translate(0,0.09999826)"
     x="23.037201"
     y="-0.1"
     width="2.97"
     height="0.2"
     ry="0.1"
     id="rect56"
     style="fill:currentColor" />
</svg>
