<?xml version="1.0" encoding="UTF-8" standalone="no"?>
<!-- Created with Inkscape (http://www.inkscape.org/) -->

<svg
   xmlns:dc="http://purl.org/dc/elements/1.1/"
   xmlns:cc="http://creativecommons.org/ns#"
   xmlns:rdf="http://www.w3.org/1999/02/22-rdf-syntax-ns#"
   xmlns:svg="http://www.w3.org/2000/svg"
   xmlns="http://www.w3.org/2000/svg"
   xmlns:sodipodi="http://sodipodi.sourceforge.net/DTD/sodipodi-0.dtd"
   xmlns:inkscape="http://www.inkscape.org/namespaces/inkscape"
   width="210mm"
   height="297mm"
   viewBox="0 0 210 297"
   version="1.1"
   id="svg8"
   sodipodi:docname="m1.svg"
   inkscape:version="0.92.4 (unknown)">
  <defs
     id="defs2" />
  <sodipodi:namedview
     id="base"
     pagecolor="#ffffff"
     bordercolor="#666666"
     borderopacity="1.0"
     inkscape:pageopacity="0.0"
     inkscape:pageshadow="2"
     inkscape:zoom="3.959798"
     inkscape:cx="-651.1995"
     inkscape:cy="490.18566"
     inkscape:document-units="mm"
     inkscape:current-layer="g6122"
     showgrid="false"
     inkscape:window-width="1366"
     inkscape:window-height="703"
     inkscape:window-x="0"
     inkscape:window-y="0"
     inkscape:window-maximized="1" />
  <metadata
     id="metadata5">
    <rdf:RDF>
      <cc:Work
         rdf:about="">
        <dc:format>image/svg+xml</dc:format>
        <dc:type
           rdf:resource="http://purl.org/dc/dcmitype/StillImage" />
        <dc:title />
      </cc:Work>
    </rdf:RDF>
  </metadata>
  <g
     inkscape:label="Layer 1"
     inkscape:groupmode="layer"
     id="layer1">
    <g
       transform="translate(-185.22835,121.33556)"
       id="g6122"
       style="display:inline">
      <path
         style="display:inline;fill:#dfa03f;fill-opacity:1"
         d="M 19,5.5 V 5 h 0.5 q 0.5,0 1,0 H 21 v 0.5 q 0,0.5 0,1 V 7 H 20.5 Q 20,7 19.5,7 H 19 V 6.5 Q 19,6 19,5.5 M 18.875,7 H 19 19.375 19.75 19.5 Q 19.25,7 19,7 h -0.25 0.125 m 1.75,0 H 21 21.125 21.25 21 q -0.25,0 -0.5,0 h -0.25 0.375 M 21,5.375 V 5 4.875 4.75 5 q 0,0.25 0,0.5 V 5.75 5.375 M 19.375,5 H 19 18.875 18.75 19 q 0.25,0 0.5,0 h 0.25 -0.375"
         id="path6036"
         inkscape:connector-curvature="0" />
      <path
         id="path6070"
         style="fill:#ff706f;fill-opacity:1"
         d="M 19,21.5 V 21 h 0.5 q 0.5,0 1,0 H 21 20.625 20.25 20.5 q 0.25,0 0.375,-0.125 L 21,20.75 20.9375,20.8125 20.875,20.875 21.4375,20.9375 Q 22,21 22.375,21.125 q 0.375,0.125 0.5,0.5 0.125,0.375 0.25,0.75 0.125,0.375 0.5,0.5 Q 24,23 24.5,23 q 0.5,0 1,0 0.5,0 1,0 0.5,0 1,0 0.5,0 1,0 0.5,0 1,0 H 30 v 0.5 q 0,0.5 0,1 0,0.5 0,1 V 26 h -0.5 q -0.5,0 -1,0 -0.5,0 -1,0 -0.5,0 -1,0 -0.5,0 -1,0 -0.5,0 -1,0 -0.5,0 -1,0 -0.5,0 -1,0 -0.5,0 -1,0 H 21 v -0.5 q 0,-0.5 0,-1 0,-0.5 -0.125,-0.875 -0.125,-0.375 -0.5,-0.5 Q 20,23 19.5,23 H 19 v -0.5 q 0,-0.5 0,-1 M 20.875,26 H 21 21.375 21.75 21.5 q -0.25,0 -0.5,0 h -0.25 0.125 m 8.75,0 H 30 30.125 30.25 30 q -0.25,0 -0.5,0 h -0.25 0.375 M 30,23.375 V 23 22.875 22.75 23 q 0,0.25 0,0.5 v 0.25 -0.375 M 2,16.5 V 16 h 0.5 q 0.5,0 1,0 0.5,0 1,0 H 5 v 0.5 q 0,0.5 0,1 0,0.5 0,1 V 19 H 4.5 Q 4,19 3.5,19 3,19 2.625,19.125 2.25,19.25 2.125,19.625 2,20 2,20.5 q 0,0.5 0,1 0,0.5 0.125,0.875 0.125,0.375 0.5,0.5 Q 3,23 3.5,23 4,23 4.375,22.875 4.75,22.75 4.875,22.375 5,22 5,21.5 V 21 h 0.5 q 0.5,0 1,0 H 7 v 0.5 q 0,0.5 0.125,0.875 0.125,0.375 0.5,0.5 Q 8,23 8.375,23.125 8.75,23.25 8.875,23.625 9,24 9,24.5 9,25 9.125,25.375 9.25,25.75 9.625,25.875 10,26 10.5,26 q 0.5,0 1,0 H 12 11.625 11.25 11.5 q 0.25,0 0.375,-0.125 L 12,25.75 11.9375,25.8125 11.875,25.875 12.4375,25.9375 Q 13,26 13.5625,26.0625 L 14.125,26.125 14.1875,26.0625 14.25,26 14.125,26.125 Q 14,26.25 14,26.5 V 26.75 26.375 26 26.5 q 0,0.5 0,1 V 28 27.625 27.25 27.5 q 0,0.25 0.125,0.375 L 14.25,28 14.1875,27.9375 14.125,27.875 14.0625,28.4375 Q 14,29 14.125,29.375 q 0.125,0.375 0.5,0.5 Q 15,30 15.5,30 q 0.5,0 1,0 0.5,0 1,0 0.5,0 1.0625,-0.0625 L 19.125,29.875 19.0625,29.8125 19,29.75 19.125,29.875 Q 19.25,30 19.5,30 H 19.75 19.375 19 19.5 q 0.5,0 1,0 0.5,0 1,0 0.5,0 1,0 0.5,0 1,0 0.5,0 1,0 0.5,0 1,0 0.5,0 1,0 0.5,0 1,0 H 28 v 0.5 q 0,0.5 -0.125,0.875 -0.125,0.375 -0.5,0.5 Q 27,32 26.5,32 q -0.5,0 -1,0 -0.5,0 -1,0 -0.5,0 -1,0 -0.5,0 -1,0 -0.5,0 -1,0 -0.5,0 -1,0 -0.5,0 -1,0 -0.5,0 -1,0 -0.5,0 -1,0 -0.5,0 -1,0 -0.5,0 -1,0 -0.5,0 -1,0 -0.5,0 -1,0 -0.5,0 -1,0 H 12 V 31.5 Q 12,31 11.875,30.625 11.75,30.25 11.375,30.125 11,30 10.5,30 10,30 9.5,30 H 9 V 29.5 Q 9,29 8.875,28.625 8.75,28.25 8.375,28.125 8,28 7.625,27.875 7.25,27.75 7.125,27.375 7,27 6.875,26.625 6.75,26.25 6.375,26.125 6,26 5.5,26 5,26 4.5,26 4,26 3.5,26 3,26 2.5,26 H 2 V 25.5 Q 2,25 2,24.5 2,24 1.875,23.625 1.75,23.25 1.375,23.125 1,23 0.5,23 H 0 V 22.5 22 21.5 21 20.5 20 19.5 19 H 0.5 Q 1,19 1.375,18.875 1.75,18.75 1.875,18.375 2,18 2,17.5 2,17 2,16.5 m 0,9.125 V 26 26.125 26.25 26 q 0,-0.25 0,-0.5 v -0.25 0.375 m 7,4 V 30 30.125 30.25 30 q 0,-0.25 0,-0.5 v -0.25 0.375 M 28.125,30 H 28 27.625 27.25 27.5 q 0.25,0 0.5,0 h 0.25 -0.125 M 7,21.375 V 21 20.875 20.75 21 q 0,0.25 0,0.5 v 0.25 -0.375 m -2,-0.5 V 21 21.375 21.75 21.5 Q 5,21.25 5,21 v -0.25 0.125 m 0,-1.75 V 19 18.625 18.25 18.5 q 0,0.25 0,0.5 v 0.25 -0.125 M 2,15.875 V 16 16.375 16.75 16.5 Q 2,16.25 2,16 v -0.25 0.125 M 21,14.5 V 14 h 0.5 q 0.5,0 1,0 H 23 v 0.5 q 0,0.5 0,1 V 16 h -0.5 q -0.5,0 -1,0 H 21 v -0.5 q 0,-0.5 0,-1 M 23.125,14 H 23 22.625 22.25 22.5 q 0.25,0 0.5,0 h 0.25 -0.125 m -1.75,0 H 21 20.875 20.75 21 q 0.25,0 0.5,0 h 0.25 -0.375 m -7.25,0.625 q 0.125,-0.375 0.5,-0.5 Q 15,14 15.5,14 H 16 v 0.5 q 0,0.5 0,1 0,0.5 0,1 0,0.5 0,1 0,0.5 0,1 V 19 h -0.5 q -0.5,0 -0.875,0.125 -0.375,0.125 -0.5,0.5 Q 14,20 13.9375,20.5625 L 13.875,21.125 13.9375,21.1875 14,21.25 13.875,21.125 Q 13.75,21 13.5,21 H 13.25 13.625 14 13.5 Q 13,21 12.625,20.875 12.25,20.75 12.125,20.375 12,20 12,19.5 q 0,-0.5 0,-1 0,-0.5 0,-1 0,-0.5 0.125,-0.875 0.125,-0.375 0.5,-0.5 Q 13,16 13.375,15.875 13.75,15.75 13.875,15.375 14,15 14.125,14.625 M 16,19.125 V 19 18.625 18.25 18.5 q 0,0.25 0,0.5 v 0.25 -0.125 M 16.125,14 H 16 15.625 15.25 15.5 q 0.25,0 0.5,0 h 0.25 -0.125"
         inkscape:connector-curvature="0" />
      <path
         id="path6080"
         style="fill:#ffd0c0;fill-opacity:1"
         d="M 14.0625,28.4375 14.125,27.875 14.0625,27.8125 14,27.75 14.125,27.875 Q 14.25,28 14.5,28 H 14.75 14.375 14 14.5 q 0.5,0 1,0 0.5,0 1,0 0.5,0 1,0 0.5,0 0.875,0.125 0.375,0.125 0.5,0.5 Q 19,29 19,29.5 V 30 29.625 29.25 29.5 q 0,0.25 0.125,0.375 L 19.25,30 19.1875,29.9375 19.125,29.875 18.5625,29.9375 Q 18,30 17.5,30 q -0.5,0 -1,0 -0.5,0 -1,0 -0.5,0 -0.875,-0.125 -0.375,-0.125 -0.5,-0.5 Q 14,29 14.0625,28.4375 M 14.125,19.625 q 0.125,-0.375 0.5,-0.5 Q 15,19 15.5,19 H 16 v 0.5 q 0,0.5 0.125,0.875 0.125,0.375 0.5,0.5 Q 17,21 17.5,21 q 0.5,0 1,0 H 19 v 0.5 q 0,0.5 0,1 V 23 h -0.5 q -0.5,0 -1,0 -0.5,0 -0.875,0.125 -0.375,0.125 -0.5,0.5 Q 16,24 16,24.5 q 0,0.5 -0.125,0.875 -0.125,0.375 -0.5,0.5 Q 15,26 14.5,26 H 14 14.375 14.75 14.5 q -0.25,0 -0.375,0.125 L 14,26.25 14.0625,26.1875 14.125,26.125 13.5625,26.0625 Q 13,26 12.4375,25.9375 L 11.875,25.875 11.8125,25.9375 11.75,26 11.875,25.875 Q 12,25.75 12,25.5 V 25.25 25.625 26 25.5 q 0,-0.5 0,-1 0,-0.5 0.125,-0.875 0.125,-0.375 0.5,-0.5 Q 13,23 13.375,22.875 13.75,22.75 13.875,22.375 14,22 14,21.5 V 21 21.375 21.75 21.5 q 0,-0.25 -0.125,-0.375 L 13.75,21 l 0.0625,0.0625 0.0625,0.0625 0.0625,-0.5625 Q 14,20 14.125,19.625 M 16,19.375 V 19 18.875 18.75 19 q 0,0.25 0,0.5 v 0.25 -0.375 M 21,16.5 V 16 h 0.5 q 0.5,0 1,0 H 23 v 0.5 q 0,0.5 0,1 0,0.5 0,1 0,0.5 0,1 0,0.5 0.125,0.875 0.125,0.375 0.5,0.5 Q 24,21 24.5,21 q 0.5,0 1,0 H 26 25.625 25.25 25.5 q 0.25,0 0.375,-0.125 L 26,20.75 25.9375,20.8125 25.875,20.875 26.4375,20.9375 Q 27,21 27.375,20.875 27.75,20.75 27.875,20.375 28,20 28.125,19.625 28.25,19.25 28.625,19.125 29,19 29.5625,19.0625 L 30.125,19.125 30.1875,19.0625 30.25,19 30.125,19.125 Q 30,19.25 30,19.5 V 19.75 19.375 19 19.5 q 0,0.5 0,1 0,0.5 0,1 0,0.5 0,1 V 23 h -0.5 q -0.5,0 -1,0 -0.5,0 -1,0 -0.5,0 -1,0 -0.5,0 -1,0 -0.5,0 -1,0 -0.5,0 -0.875,-0.125 -0.375,-0.125 -0.5,-0.5 Q 23,22 22.875,21.625 22.75,21.25 22.375,21.125 22,21 21.4375,20.9375 L 20.875,20.875 20.8125,20.9375 20.75,21 20.875,20.875 Q 21,20.75 21,20.5 V 20.25 20.625 21 20.5 q 0,-0.5 0,-1 0,-0.5 0,-1 0,-0.5 0,-1 0,-0.5 0,-1 m 9,6.625 V 23 22.625 22.25 22.5 q 0,0.25 0,0.5 v 0.25 -0.125 M 5,16.5 V 16 h 0.5 q 0.5,0 1,0 0.5,0 0.5,0.5 0,0.5 0,1 0,0.5 0,1 0,0.5 0,1 0,0.5 0,1 V 21 H 6.5 Q 6,21 5.5,21 H 5 v -0.5 q 0,-0.5 0,-1 0,-0.5 0,-1 0,-0.5 0,-1 0,-0.5 0,-1 m 0,4.125 V 21 21.125 21.25 21 q 0,-0.25 0,-0.5 v -0.25 0.375 m 2,0.5 V 21 20.625 20.25 20.5 q 0,0.25 0,0.5 v 0.25 -0.125"
         inkscape:connector-curvature="0" />
      <path
         id="path6092"
         style="fill:#500000;fill-opacity:1"
         d="M 16,32.5 V 32 h 0.5 q 0.5,0 1,0 0.5,0 1,0 0.5,0 1,0 0.5,0 1,0 H 21 v 0.5 q 0,0.5 0,1 0,0.5 -0.125,0.875 -0.125,0.375 -0.5,0.5 Q 20,35 19.5,35 q -0.5,0 -1,0 -0.5,0 -1,0 -0.5,0 -0.875,0.125 -0.375,0.125 -0.5,0.5 Q 16,36 16,36.5 V 37 H 15.5 Q 15,37 14.625,36.875 14.25,36.75 14.125,36.375 14,36 14,35.5 V 35 h 0.5 q 0.5,0 0.875,-0.125 0.375,-0.125 0.5,-0.5 Q 16,34 16,33.5 16,33 16,32.5 M 14.375,35 H 14 13.875 13.75 14 q 0.25,0 0.5,0 h 0.25 -0.375 m 6.75,-3 H 21 20.625 20.25 20.5 q 0.25,0 0.5,0 h 0.25 -0.125 m -4.75,0 H 16 15.875 15.75 16 q 0.25,0 0.5,0 h 0.25 -0.375 M 9,32.5 V 32 h 0.5 q 0.5,0 1,0 0.5,0 1,0 H 12 v 0.5 q 0,0.5 0,1 0,0.5 0,1 V 35 h -0.5 q -0.5,0 -1,0 -0.5,0 -0.875,0.125 -0.375,0.125 -0.5,0.5 Q 9,36 9,36.5 V 37 H 8.5 Q 8,37 7.625,37.125 7.25,37.25 7.125,37.625 7,38 7,38.5 q 0,0.5 0,1 0,0.5 0,1 0,0.5 0.125,0.875 0.125,0.375 0.5,0.5 Q 8,42 8.375,42.125 8.75,42.25 8.875,42.625 9,43 9.125,43.375 9.25,43.75 9.625,43.875 10,44 10.5,44 q 0.5,0 0.875,0.125 0.375,0.125 0.5,0.5 0.125,0.375 0.25,0.75 0.125,0.375 0.5,0.5 Q 13,46 13.5,46 q 0.5,0 1,0 0.5,0 0.875,-0.125 0.375,-0.125 0.5,-0.5 Q 16,45 16.125,44.625 16.25,44.25 16.625,44.125 17,44 17.5,44 q 0.5,0 1,0 0.5,0 1,0 0.5,0 0.875,0.125 0.375,0.125 0.5,0.5 Q 21,45 21,45.5 V 46 h -0.5 q -0.5,0 -0.875,0.125 -0.375,0.125 -0.5,0.5 Q 19,47 19,47.5 q 0,0.5 -0.125,0.875 -0.125,0.375 -0.5,0.5 Q 18,49 17.5,49 q -0.5,0 -1,0 -0.5,0 -1,0 -0.5,0 -1,0 -0.5,0 -1,0 -0.5,0 -1,0 H 12 v -0.5 q 0,-0.5 0,-1 0,-0.5 -0.125,-0.875 -0.125,-0.375 -0.5,-0.5 Q 11,46 10.5,46 10,46 9.625,45.875 9.25,45.75 9.125,45.375 9,45 8.875,44.625 8.75,44.25 8.375,44.125 8,44 7.625,43.875 7.25,43.75 7.125,43.375 7,43 6.875,42.625 6.75,42.25 6.375,42.125 6,42 5.5,42 H 5 V 41.5 Q 5,41 5,40.5 5,40 5,39.5 5,39 5,38.5 5,38 5.125,37.625 5.25,37.25 5.625,37.125 6,37 6.375,36.875 6.75,36.75 6.875,36.375 7,36 7.125,35.625 7.25,35.25 7.625,35.125 8,35 8.375,34.875 8.75,34.75 8.875,34.375 9,34 9,33.5 9,33 9,32.5 M 5,41.625 V 42 42.125 42.25 42 q 0,-0.25 0,-0.5 v -0.25 0.375 M 11.875,49 H 12 12.375 12.75 12.5 q -0.25,0 -0.5,0 h -0.25 0.125 m 8.75,-3 H 21 21.125 21.25 21 q -0.25,0 -0.5,0 h -0.25 0.375 M 9,37.125 V 37 36.625 36.25 36.5 q 0,0.25 0,0.5 v 0.25 -0.125 M 11.625,35 H 12 12.125 12.25 12 q -0.25,0 -0.5,0 h -0.25 0.375 M 16,0.5 V 0 h 0.5 0.5 0.5 0.5 0.5 0.5 0.5 0.5 0.5 0.5 0.5 0.5 0.5 0.5 0.5 0.5 0.5 0.5 0.5 0.5 0.5 0.5 0.5 0.5 v 0.5 q 0,0.5 0.125,0.875 0.125,0.375 0.5,0.5 Q 29,2 29.375,2.125 29.75,2.25 29.875,2.625 30,3 30,3.5 q 0,0.5 0,1 0,0.5 0,1 0,0.5 0,1 V 7 6.625 6.25 6.5 q 0,0.25 0.125,0.375 L 30.25,7 30.1875,6.9375 30.125,6.875 29.5625,6.9375 Q 29,7 28.5,7 H 28 V 6.5 Q 28,6 28,5.5 28,5 28,4.5 28,4 28,3.5 28,3 27.875,2.625 27.75,2.25 27.375,2.125 27,2 26.5,2 26,2 25.5,2 25,2 24.5,2 24,2 23.5,2 23,2 22.5,2 22,2 21.5,2 21,2 20.5,2 20,2 19.5,2 19,2 18.5,2 18,2 17.5,2 17,2 16.625,2.125 16.25,2.25 16.125,2.625 16,3 16,3.5 16,4 15.875,4.375 15.75,4.75 15.375,4.875 15,5 14.5,5 14,5 13.5,5 13,5 12.625,5.125 12.25,5.25 12.125,5.625 12,6 11.875,6.375 11.75,6.75 11.375,6.875 11,7 10.5,7 10,7 9.625,7.125 9.25,7.25 9.125,7.625 9,8 8.875,8.375 8.75,8.75 8.375,8.875 8,9 7.625,9.125 7.25,9.25 7.125,9.625 7,10 7,10.5 7,11 7,11.5 V 12 H 6.5 Q 6,12 5.625,12.125 5.25,12.25 5.125,12.625 5,13 5,13.5 q 0,0.5 0,1 0,0.5 0,1 V 16 H 4.5 Q 4,16 3.5,16 3,16 2.5,16 H 2 V 15.5 Q 2,15 2,14.5 2,14 2,13.5 2,13 2.125,12.625 2.25,12.25 2.625,12.125 3,12 3.5,12 4,12 4.375,11.875 4.75,11.75 4.875,11.375 5,11 5,10.5 5,10 5.125,9.625 5.25,9.25 5.625,9.125 6,9 6.375,8.875 6.75,8.75 6.875,8.375 7,8 7.125,7.625 7.25,7.25 7.625,7.125 8,7 8.375,6.875 8.75,6.75 8.875,6.375 9,6 9.125,5.625 9.25,5.25 9.625,5.125 10,5 10.5,5 11,5 11.375,4.875 11.75,4.75 11.875,4.375 12,4 12,3.5 12,3 12.125,2.625 12.25,2.25 12.625,2.125 13,2 13.5,2 14,2 14.5,2 15,2 15.375,1.875 15.75,1.75 15.875,1.375 16,1 16,0.5 M 2,15.625 V 16 16.125 16.25 16 q 0,-0.25 0,-0.5 v -0.25 0.375 M 6.625,12 H 7 7.125 7.25 7 Q 6.75,12 6.5,12 H 6.25 6.625 M 27.875,7 H 28 28.375 28.75 28.5 Q 28.25,7 28,7 h -0.25 0.125"
         inkscape:connector-curvature="0" />
      <path
         id="path6094"
         style="fill:#ff4070;fill-opacity:1"
         d="M 9.125,35.625 Q 9.25,35.25 9.625,35.125 10,35 10.5,35 q 0.5,0 1,0 0.5,0 1,0 0.5,0 1,0 H 14 v 0.5 q 0,0.5 0.125,0.875 0.125,0.375 0.5,0.5 Q 15,37 15.5,37 H 16 v 0.5 q 0,0.5 0,1 0,0.5 0,1 0,0.5 0,1 0,0.5 0,1 0,0.5 0,1 0,0.5 -0.125,0.875 -0.125,0.375 -0.5,0.5 -0.375,0.125 -0.75,0 -0.375,-0.125 -0.5,-0.5 Q 14,43 13.875,42.625 13.75,42.25 13.375,42.125 13,42 12.625,41.875 12.25,41.75 12.125,41.375 12,41 12,40.5 12,40 11.875,39.625 11.75,39.25 11.375,39.125 11,39 10.5,39 10,39 9.625,38.875 9.25,38.75 9.125,38.375 9,38 9,37.5 9,37 9,36.5 9,36 9.125,35.625 m 5,-0.625 H 14 13.625 13.25 13.5 q 0.25,0 0.5,0 h 0.25 -0.125 M 23,2.5 V 2 h 0.5 q 0.5,0 1,0 0.5,0 1,0 0.5,0 1,0 0.5,0 0.875,0.125 0.375,0.125 0.5,0.5 Q 28,3 28,3.5 28,4 28,4.5 V 5 H 27.5 Q 27,5 26.4375,5.0625 L 25.875,5.125 25.9375,5.1875 26,5.25 25.875,5.125 Q 25.75,5 25.5,5 H 25.25 25.625 26 25.5 Q 25,5 24.5,5 24,5 23.5,5 H 23 V 4.5 q 0,-0.5 0,-1 0,-0.5 0,-1 m 0,2.125 V 5 5.125 5.25 5 Q 23,4.75 23,4.5 V 4.25 4.625 m 5,0.5 V 5 4.625 4.25 4.5 Q 28,4.75 28,5 V 5.25 5.125 M 23.375,2 H 23 22.875 22.75 23 q 0.25,0 0.5,0 h 0.25 -0.375 m -7.25,0.625 Q 16.25,2.25 16.625,2.125 17,2 17.5,2 q 0.5,0 1,0 0.5,0 1,0 0.5,0 1,0 H 21 v 0.5 q 0,0.5 0,1 0,0.5 0,1 V 5 H 20.5 Q 20,5 19.5,5 19,5 18.5,5 18,5 17.5,5 17,5 16.625,5.125 16.25,5.25 16.125,5.625 16,6 15.875,6.375 15.75,6.75 15.375,6.875 15,7 14.5,7 14,7 13.5,7 13,7 12.625,7.125 12.25,7.25 12.125,7.625 12,8 11.875,8.375 11.75,8.75 11.375,8.875 11,9 10.5,9 10,9 9.625,9.125 9.25,9.25 9.125,9.625 9,10 9,10.5 9,11 8.875,11.375 8.75,11.75 8.375,11.875 8,12 7.5,12 H 7 V 11.5 Q 7,11 7,10.5 7,10 7.125,9.625 7.25,9.25 7.625,9.125 8,9 8.375,8.875 8.75,8.75 8.875,8.375 9,8 9.125,7.625 9.25,7.25 9.625,7.125 10,7 10.5,7 11,7 11.375,6.875 11.75,6.75 11.875,6.375 12,6 12.125,5.625 12.25,5.25 12.625,5.125 13,5 13.5,5 14,5 14.5,5 15,5 15.375,4.875 15.75,4.75 15.875,4.375 16,4 16,3.5 16,3 16.125,2.625 M 6.875,12 H 7 7.375 7.75 7.5 Q 7.25,12 7,12 H 6.75 6.875 M 21,5.125 V 5 4.625 4.25 4.5 Q 21,4.75 21,5 V 5.25 5.125 M 21.125,2 H 21 20.625 20.25 20.5 q 0.25,0 0.5,0 h 0.25 -0.125"
         inkscape:connector-curvature="0" />
      <path
         id="path6098"
         style="display:inline;fill:#fff8ff;fill-opacity:1"
         d="m 21.125,35.625 q 0.125,-0.375 0.5,-0.5 Q 22,35 22.5,35 q 0.5,0 1,0 0.5,0 1,0 0.5,0 1,0 0.5,0 1,0 0.5,0 0.875,0.125 0.375,0.125 0.5,0.5 0.125,0.375 0.25,0.75 0.125,0.375 0.5,0.5 0.375,0.125 0.75,0.25 0.375,0.125 0.5,0.5 Q 30,38 30,38.5 q 0,0.5 0,1 0,0.5 0,1 0,0.5 -0.125,0.875 -0.125,0.375 -0.5,0.5 Q 29,42 28.625,42.125 28.25,42.25 28.125,42.625 28,43 27.875,43.375 27.75,43.75 27.375,43.875 27,44 26.5,44 q -0.5,0 -1,0 -0.5,0 -1,0 -0.5,0 -1,0 -0.5,0 -1,0 -0.5,0 -0.875,-0.125 -0.375,-0.125 -0.5,-0.5 Q 21,43 20.875,42.625 20.75,42.25 20.375,42.125 20,42 19.625,41.875 19.25,41.75 19.125,41.375 19,41 19,40.5 q 0,-0.5 0,-1 0,-0.5 0,-1 0,-0.5 0.125,-0.875 0.125,-0.375 0.5,-0.5 Q 20,37 20.375,36.875 20.75,36.75 20.875,36.375 21,36 21.125,35.625 M 23,14.5 V 14 h 0.5 q 0.5,0 1,0 0.5,0 1,0 0.5,0 1,0 0.5,0 0.875,0.125 0.375,0.125 0.5,0.5 Q 28,15 28.125,15.375 L 28.25,15.75 28.15625,15.46875 28.0625,15.1875 28.125,15.375 q 0.0625,0.1875 0.1875,0.3125 l 0.125,0.125 L 28.375,15.75 28.3125,15.6875 28.03125,15.96875 Q 27.75,16.25 27.875,16.625 28,17 28,17.5 q 0,0.5 -0.125,0.875 -0.125,0.375 0.15625,0.65625 l 0.28125,0.28125 0.0625,-0.0625 0.0625,-0.0625 -0.125,0.125 q -0.125,0.125 -0.1875,0.3125 L 28.0625,19.8125 28.15625,19.53125 28.25,19.25 28.125,19.625 Q 28,20 27.875,20.375 27.75,20.75 27.375,20.875 27,21 26.4375,20.9375 L 25.875,20.875 25.8125,20.9375 25.75,21 25.875,20.875 Q 26,20.75 26,20.5 V 20.25 20.625 21 20.5 q 0,-0.5 0,-1 0,-0.5 0,-1 0,-0.5 0,-1 0,-0.5 -0.125,-0.875 -0.125,-0.375 -0.5,-0.5 Q 25,16 24.5,16 24,16 23.5,16 H 23 v -0.5 q 0,-0.5 0,-1 M 23.375,14 H 23 22.875 22.75 23 q 0.25,0 0.5,0 h 0.25 -0.375 M 16,14.5 V 14 h 0.5 q 0.5,0 1,0 0.5,0 1,0 0.5,0 1,0 0.5,0 1,0 H 21 v 0.5 q 0,0.5 0,1 V 16 h -0.5 q -0.5,0 -0.875,0.125 -0.375,0.125 -0.5,0.5 Q 19,17 19,17.5 q 0,0.5 0,1 0,0.5 0,1 0,0.5 0,1 V 21 h -0.5 q -0.5,0 -1,0 -0.5,0 -0.875,-0.125 -0.375,-0.125 -0.5,-0.5 Q 16,20 16,19.5 q 0,-0.5 0,-1 0,-0.5 0,-1 0,-0.5 0,-1 0,-0.5 0,-1 0,-0.5 0,-1 M 21.125,14 H 21 20.625 20.25 20.5 q 0.25,0 0.5,0 h 0.25 -0.125 m -4.75,0 H 16 15.875 15.75 16 q 0.25,0 0.5,0 h 0.25 -0.375 M 23,5.5 V 5 h 0.5 q 0.5,0 1,0 0.5,0 1,0 Q 26,5 26,5.5 26,6 26,6.5 26,7 25.5,7 25,7 24.5,7 24,7 23.5,7 H 23 V 6.5 Q 23,6 23,5.5 M 22.875,7 H 23 23.375 23.75 23.5 Q 23.25,7 23,7 h -0.25 0.125 M 23,4.875 V 5 5.375 5.75 5.5 Q 23,5.25 23,5 V 4.75 4.875"
         inkscape:connector-curvature="0" />
      <path
         id="path6100"
         style="fill:#b02860;fill-opacity:1"
         d="M 7.125,37.625 Q 7.25,37.25 7.625,37.125 8,37 8.5,37 H 9 v 0.5 q 0,0.5 0.125,0.875 0.125,0.375 0.5,0.5 Q 10,39 10.5,39 q 0.5,0 0.875,0.125 0.375,0.125 0.5,0.5 Q 12,40 12,40.5 q 0,0.5 0.125,0.875 0.125,0.375 0.5,0.5 0.375,0.125 0.75,0.25 0.375,0.125 0.5,0.5 0.125,0.375 0.25,0.75 0.125,0.375 0.5,0.5 0.375,0.125 0.75,0 0.375,-0.125 0.5,-0.5 Q 16,43 16,42.5 V 42 h 0.5 q 0.5,0 1,0 0.5,0 0.875,0.125 0.375,0.125 0.5,0.5 Q 19,43 19,43.5 V 44 h -0.5 q -0.5,0 -1,0 -0.5,0 -0.875,0.125 -0.375,0.125 -0.5,0.5 Q 16,45 15.875,45.375 15.75,45.75 15.375,45.875 15,46 14.5,46 14,46 13.5,46 13,46 12.625,45.875 12.25,45.75 12.125,45.375 12,45 11.875,44.625 11.75,44.25 11.375,44.125 11,44 10.5,44 10,44 9.625,43.875 9.25,43.75 9.125,43.375 9,43 8.875,42.625 8.75,42.25 8.375,42.125 8,42 7.625,41.875 7.25,41.75 7.125,41.375 7,41 7,40.5 7,40 7,39.5 7,39 7,38.5 7,38 7.125,37.625 M 18.625,44 H 19 19.125 19.25 19 q -0.25,0 -0.5,0 h -0.25 0.375 M 16,41.875 V 42 42.375 42.75 42.5 q 0,-0.25 0,-0.5 v -0.25 0.125 m -7,-4.5 V 37 36.875 36.75 37 q 0,0.25 0,0.5 v 0.25 -0.375 m 7.125,-1.75 q 0.125,-0.375 0.5,-0.5 Q 17,35 17.5,35 q 0.5,0 1,0 H 19 v 0.5 q 0,0.5 -0.125,0.875 -0.125,0.375 -0.5,0.5 Q 18,37 17.5,37 17,37 16.5,37 H 16 v -0.5 q 0,-0.5 0.125,-0.875 m 3,-0.625 H 19 18.625 18.25 18.5 q 0.25,0 0.5,0 h 0.25 -0.125 M 12,32.5 V 32 h 0.5 q 0.5,0 1,0 0.5,0 1,0 0.5,0 1,0 H 16 v 0.5 q 0,0.5 0,1 0,0.5 -0.125,0.875 -0.125,0.375 -0.5,0.5 Q 15,35 14.5,35 q -0.5,0 -1,0 -0.5,0 -1,0 H 12 v -0.5 q 0,-0.5 0,-1 0,-0.5 0,-1 M 11.875,35 H 12 12.375 12.75 12.5 q -0.25,0 -0.5,0 h -0.25 0.125 m 4.25,-3 H 16 15.625 15.25 15.5 q 0.25,0 0.5,0 h 0.25 -0.125 M 26,5.5 V 5 5.375 5.75 5.5 Q 26,5.25 25.875,5.125 L 25.75,5 25.8125,5.0625 25.875,5.125 26.4375,5.0625 Q 27,5 27.5,5 H 28 v 0.5 q 0,0.5 0,1 V 7 H 27.5 Q 27,7 26.4375,6.9375 L 25.875,6.875 25.8125,6.9375 25.75,7 25.875,6.875 Q 26,6.75 26,6.5 V 6.25 6.625 7 6.5 Q 26,6 26,5.5 M 27.625,7 H 28 28.125 28.25 28 q -0.25,0 -0.5,0 h -0.25 0.375 M 28,5.375 V 5 4.875 4.75 5 q 0,0.25 0,0.5 V 5.75 5.375 M 16.125,5.625 Q 16.25,5.25 16.625,5.125 17,5 17.5,5 18,5 18.5,5 H 19 v 0.5 q 0,0.5 0,1 V 7 H 18.5 Q 18,7 17.5,7 17,7 16.625,7.125 16.25,7.25 16.125,7.625 16,8 15.875,8.375 15.75,8.75 15.375,8.875 15,9 14.5,9 14,9 13.5,9 13,9 12.625,9.125 12.25,9.25 12.125,9.625 12,10 12,10.5 q 0,0.5 -0.125,0.875 -0.125,0.375 -0.5,0.5 Q 11,12 10.5,12 10,12 9.625,12.125 9.25,12.25 9.125,12.625 9,13 9,13.5 9,14 9,14.5 9,15 8.875,15.375 8.75,15.75 8.375,15.875 8,16 7.4375,16.0625 L 6.875,16.125 6.9375,16.1875 7,16.25 6.875,16.125 Q 6.75,16 6.5,16 H 6.25 6.625 7 6.5 Q 6,16 5.5,16 H 5 V 15.5 Q 5,15 5,14.5 5,14 5,13.5 5,13 5.125,12.625 5.25,12.25 5.625,12.125 6,12 6.5,12 7,12 7.5,12 8,12 8.375,11.875 8.75,11.75 8.875,11.375 9,11 9,10.5 9,10 9.125,9.625 9.25,9.25 9.625,9.125 10,9 10.5,9 11,9 11.375,8.875 11.75,8.75 11.875,8.375 12,8 12.125,7.625 12.25,7.25 12.625,7.125 13,7 13.5,7 14,7 14.5,7 15,7 15.375,6.875 15.75,6.75 15.875,6.375 16,6 16.125,5.625 M 18.625,7 H 19 19.125 19.25 19 q -0.25,0 -0.5,0 h -0.25 0.375 m 0.5,-2 H 19 18.625 18.25 18.5 q 0.25,0 0.5,0 h 0.25 -0.125"
         inkscape:connector-curvature="0" />
      <path
         style="display:inline;fill:#20308f;fill-opacity:1"
         d="M 5,42.5 V 42 h 0.5 q 0.5,0 0.875,0.125 0.375,0.125 0.5,0.5 Q 7,43 7.125,43.375 7.25,43.75 7.625,43.875 8,44 8.375,44.125 8.75,44.25 8.875,44.625 9,45 9.125,45.375 9.25,45.75 9.625,45.875 10,46 10.5,46 q 0.5,0 0.875,0.125 0.375,0.125 0.5,0.5 Q 12,47 12,47.5 q 0,0.5 0,1 V 49 H 11.5 Q 11,49 10.5,49 10,49 9.625,48.875 9.25,48.75 9.125,48.375 9,48 9,47.5 9,47 8.875,46.625 8.75,46.25 8.375,46.125 8,46 7.625,46.125 7.25,46.25 7.125,46.625 7,47 7,47.5 q 0,0.5 0,1 0,0.5 0,1 0,0.5 0.125,0.875 0.125,0.375 0.5,0.5 Q 8,51 8.375,51.125 8.75,51.25 8.875,51.625 9,52 9,52.5 q 0,0.5 0,1 0,0.5 0,1 0,0.5 0.125,0.875 0.125,0.375 0.5,0.5 Q 10,56 10.5,56 q 0.5,0 1,0 0.5,0 1,0 0.5,0 1,0 0.5,0 1,0 0.5,0 1,0 0.5,0 1,0 0.5,0 1,0 0.5,0 1,0 0.5,0 1,0 0.5,0 0.875,-0.125 0.375,-0.125 0.5,-0.5 Q 21,55 21,54.5 q 0,-0.5 0,-1 0,-0.5 0,-1 0,-0.5 0.125,-0.875 0.125,-0.375 0.5,-0.5 Q 22,51 22.5,51 H 23 v 0.5 q 0,0.5 0,1 0,0.5 0,1 0,0.5 0,1 0,0.5 0.125,0.875 0.125,0.375 0.5,0.5 Q 24,56 24.5,56 q 0.5,0 0.875,-0.125 0.375,-0.125 0.5,-0.5 Q 26,55 26,54.5 q 0,-0.5 0,-1 0,-0.5 0,-1 0,-0.5 0.125,-0.875 0.125,-0.375 0.5,-0.5 Q 27,51 27.375,50.875 27.75,50.75 27.875,50.375 28,50 28,49.5 q 0,-0.5 0,-1 0,-0.5 0,-1 0,-0.5 0,-1 V 46 h 0.5 q 0.5,0 0.875,0.125 0.375,0.125 0.5,0.5 Q 30,47 30,47.5 q 0,0.5 0,1 0,0.5 0,1 0,0.5 -0.125,0.875 -0.125,0.375 -0.5,0.5 Q 29,51 28.625,51.125 28.25,51.25 28.125,51.625 28,52 28,52.5 q 0,0.5 0,1 0,0.5 0,1 0,0.5 -0.125,0.875 -0.125,0.375 -0.5,0.5 Q 27,56 26.625,56.125 26.25,56.25 26.125,56.625 26,57 26,57.5 V 58 h -0.5 q -0.5,0 -1,0 -0.5,0 -1,0 -0.5,0 -1,0 -0.5,0 -1,0 -0.5,0 -1,0 -0.5,0 -1,0 -0.5,0 -1,0 -0.5,0 -1,0 -0.5,0 -1,0 -0.5,0 -1,0 -0.5,0 -1,0 -0.5,0 -1,0 -0.5,0 -1,0 -0.5,0 -1,0 -0.5,0 -1,0 -0.5,0 -1,0 H 9 V 57.5 Q 9,57 8.875,56.625 8.75,56.25 8.375,56.125 8,56 7.625,55.875 7.25,55.75 7.125,55.375 7,55 7,54.5 7,54 7,53.5 7,53 7,52.5 7,52 6.875,51.625 6.75,51.25 6.375,51.125 6,51 5.625,50.875 5.25,50.75 5.125,50.375 5,50 5,49.5 5,49 5,48.5 5,48 5,47.5 5,47 5,46.5 5,46 5,45.5 5,45 5,44.5 5,44 5,43.5 5,43 5,42.5 M 9,57.625 V 58 58.125 58.25 58 q 0,-0.25 0,-0.5 v -0.25 0.375 M 23.125,51 H 23 22.625 22.25 22.5 q 0.25,0 0.5,0 h 0.25 -0.125 m -11.5,-2 H 12 12.125 12.25 12 q -0.25,0 -0.5,0 h -0.25 0.375 M 5,41.875 V 42 42.375 42.75 42.5 Q 5,42.25 5,42 v -0.25 0.125"
         id="path6102"
         inkscape:connector-curvature="0" />
      <path
         style="fill:#80d8cf;fill-opacity:1"
         d="m 19.125,46.625 q 0.125,-0.375 0.5,-0.5 Q 20,46 20.5,46 q 0.5,0 1,0 0.5,0 1,0 0.5,0 1,0 0.5,0 1,0 0.5,0 1,0 H 26 v 0.5 q 0,0.5 0,1 0,0.5 0,1 0,0.5 0,1 0,0.5 -0.125,0.875 -0.125,0.375 -0.5,0.5 Q 25,51 24.5,51 q -0.5,0 -1,0 -0.5,0 -1,0 -0.5,0 -0.875,0.125 -0.375,0.125 -0.5,0.5 Q 21,52 21,52.5 V 53 h -0.5 q -0.5,0 -1,0 -0.5,0 -1,0 -0.5,0 -1,0 -0.5,0 -0.875,-0.125 -0.375,-0.125 -0.5,-0.5 Q 16,52 15.875,51.625 15.75,51.25 15.375,51.125 15,51 14.625,50.875 14.25,50.75 14.125,50.375 14,50 14,49.5 V 49 h 0.5 q 0.5,0 1,0 0.5,0 1,0 0.5,0 1,0 0.5,0 0.875,-0.125 0.375,-0.125 0.5,-0.5 Q 19,48 19,47.5 19,47 19.125,46.625 M 14.375,49 H 14 13.875 13.75 14 q 0.25,0 0.5,0 h 0.25 -0.375 M 21,53.125 V 53 52.625 52.25 52.5 q 0,0.25 0,0.5 v 0.25 -0.125 M 26.125,46 H 26 25.625 25.25 25.5 q 0.25,0 0.5,0 h 0.25 -0.125"
         id="path6108"
         inkscape:connector-curvature="0" />
      <path
         id="path6110"
         style="fill:#40809f;fill-opacity:1"
         d="M 26,46.5 V 46 h 0.5 q 0.5,0 1,0 H 28 v 0.5 q 0,0.5 0,1 0,0.5 0,1 0,0.5 0,1 0,0.5 -0.125,0.875 -0.125,0.375 -0.5,0.5 Q 27,51 26.625,51.125 26.25,51.25 26.125,51.625 26,52 26,52.5 q 0,0.5 0,1 0,0.5 0,1 0,0.5 -0.125,0.875 -0.125,0.375 -0.5,0.5 Q 25,56 24.5,56 24,56 23.625,55.875 23.25,55.75 23.125,55.375 23,55 23,54.5 q 0,-0.5 0,-1 0,-0.5 0,-1 0,-0.5 0,-1 V 51 h 0.5 q 0.5,0 1,0 0.5,0 0.875,-0.125 0.375,-0.125 0.5,-0.5 Q 26,50 26,49.5 q 0,-0.5 0,-1 0,-0.5 0,-1 0,-0.5 0,-1 M 23.375,51 H 23 22.875 22.75 23 q 0.25,0 0.5,0 h 0.25 -0.375 m 3,-5 H 26 25.875 25.75 26 q 0.25,0 0.5,0 h 0.25 -0.375 m -19.25,0.625 q 0.125,-0.375 0.5,-0.5 0.375,-0.125 0.75,0 0.375,0.125 0.5,0.5 Q 9,47 9,47.5 9,48 9.125,48.375 9.25,48.75 9.625,48.875 10,49 10.5,49 q 0.5,0 1,0 0.5,0 1,0 0.5,0 1,0 H 14 v 0.5 q 0,0.5 0.125,0.875 0.125,0.375 0.5,0.5 0.375,0.125 0.75,0.25 0.375,0.125 0.5,0.5 0.125,0.375 0.25,0.75 0.125,0.375 0.5,0.5 Q 17,53 17.5,53 q 0.5,0 1,0 0.5,0 1,0 0.5,0 1,0 H 21 v 0.5 q 0,0.5 0,1 0,0.5 -0.125,0.875 -0.125,0.375 -0.5,0.5 Q 20,56 19.5,56 q -0.5,0 -1,0 -0.5,0 -1,0 -0.5,0 -1,0 -0.5,0 -1,0 -0.5,0 -1,0 -0.5,0 -1,0 -0.5,0 -1,0 -0.5,0 -1,0 -0.5,0 -1,0 Q 10,56 9.625,55.875 9.25,55.75 9.125,55.375 9,55 9,54.5 9,54 9,53.5 9,53 9,52.5 9,52 8.875,51.625 8.75,51.25 8.375,51.125 8,51 7.625,50.875 7.25,50.75 7.125,50.375 7,50 7,49.5 7,49 7,48.5 7,48 7,47.5 7,47 7.125,46.625 M 21,53.375 V 53 52.875 52.75 53 q 0,0.25 0,0.5 v 0.25 -0.375 M 14.125,49 H 14 13.625 13.25 13.5 q 0.25,0 0.5,0 h 0.25 -0.125"
         inkscape:connector-curvature="0" />
      <path
         id="path6114"
         style="fill:#000000;fill-opacity:1"
         d="M 21,58.5 V 58 h 0.5 q 0.5,0 1,0 H 23 v 0.5 q 0,0.5 0.125,0.875 0.125,0.375 0.5,0.5 Q 24,60 24.5,60 q 0.5,0 0.875,-0.125 0.375,-0.125 0.5,-0.5 Q 26,59 26,58.5 V 58 h 0.5 q 0.5,0 0.875,0.125 0.375,0.125 0.5,0.5 0.125,0.375 0.25,0.75 0.125,0.375 0.5,0.5 0.375,0.125 0.75,0.25 0.375,0.125 0.5,0.5 Q 30,61 30,61.5 q 0,0.5 0,1 0,0.5 0,1 0,0.5 0,1 V 65 H 29.5 29 28.5 28 27.5 27 26.5 26 25.5 25 24.5 24 23.5 23 22.5 22 21.5 21 20.5 20 19.5 19 18.5 18 17.5 17 16.5 16 15.5 15 14.5 14 13.5 13 12.5 12 11.5 11 10.5 10 9.5 9 V 64.5 Q 9,64 9,63.5 9,63 9,62.5 9,62 9,61.5 9,61 9,60.5 V 60 h 0.5 q 0.5,0 1,0 0.5,0 0.875,0.125 0.375,0.125 0.5,0.5 Q 12,61 12,61.5 q 0,0.5 0.125,0.875 0.125,0.375 0.5,0.5 Q 13,63 13.5,63 q 0.5,0 1,0 0.5,0 1,0 0.5,0 1,0 0.5,0 1,0 0.5,0 1,0 0.5,0 1,0 0.5,0 1.0625,-0.0625 L 21.125,62.875 21.0625,62.8125 21,62.75 21.125,62.875 Q 21.25,63 21.5,63 H 21.75 21.375 21 21.5 q 0.5,0 0.875,-0.125 0.375,-0.125 0.5,-0.5 Q 23,62 23,61.5 23,61 22.875,60.625 22.75,60.25 22.375,60.125 22,60 21.5,60 H 21 21.375 21.75 21.5 q -0.25,0 -0.375,0.125 L 21,60.25 21.0625,60.1875 21.125,60.125 21.0625,59.5625 Q 21,59 21,58.5 M 9,59.875 V 60 60.375 60.75 60.5 Q 9,60.25 9,60 v -0.25 0.125 m 17.625,3 q 0.375,0.125 0.75,0 0.375,-0.125 0.5,-0.5 Q 28,62 28,61.5 28,61 27.875,60.625 27.75,60.25 27.375,60.125 27,60 26.625,60.125 26.25,60.25 26.125,60.625 26,61 26,61.5 q 0,0.5 0.125,0.875 0.125,0.375 0.5,0.5 M 23.125,58 H 23 22.625 22.25 22.5 q 0.25,0 0.5,0 h 0.25 -0.125 m -1.75,0 H 21 20.875 20.75 21 q 0.25,0 0.5,0 h 0.25 -0.375 M 2,26.5 V 26 h 0.5 q 0.5,0 1,0 0.5,0 1,0 0.5,0 1,0 0.5,0 0.875,0.125 0.375,0.125 0.5,0.5 Q 7,27 7.125,27.375 7.25,27.75 7.625,27.875 8,28 8.375,28.125 8.75,28.25 8.875,28.625 9,29 9,29.5 q 0,0.5 0,1 0,0.5 0,1 V 32 H 8.5 Q 8,32 7.625,31.875 7.25,31.75 7.125,31.375 7,31 6.875,30.625 6.75,30.25 6.375,30.125 6,30 5.625,29.875 5.25,29.75 5.125,29.375 5,29 4.875,28.625 4.75,28.25 4.375,28.125 4,28 3.5,28 3,28 2.625,27.875 2.25,27.75 2.125,27.375 2,27 2,26.5 M 2,25.875 V 26 26.375 26.75 26.5 Q 2,26.25 2,26 v -0.25 0.125 m 14.125,-2.25 q 0.125,-0.375 0.5,-0.5 Q 17,23 17.5,23 q 0.5,0 1,0 H 19 v 0.5 q 0,0.5 0,1 0,0.5 0.125,0.875 0.125,0.375 0.5,0.5 Q 20,26 20.5,26 q 0.5,0 1,0 0.5,0 1,0 0.5,0 1,0 0.5,0 1,0 0.5,0 1,0 0.5,0 1,0 0.5,0 1,0 0.5,0 1,0 0.5,0 1,0 0.5,0 1,0 0.5,0 1,0 0.5,0 1.0625,-0.0625 L 33.125,25.875 33.0625,25.8125 33,25.75 33.125,25.875 Q 33.25,26 33.5,26 H 33.75 33.375 33 33.5 q 0.5,0 1,0 H 35 v 0.5 0.5 0.5 0.5 h -0.5 q -0.5,0 -0.875,0.125 -0.375,0.125 -0.5,0.5 Q 33,29 32.875,29.375 32.75,29.75 32.375,29.875 32,30 31.5,30 31,30 30.5,30 H 30 30.375 30.75 30.5 q -0.25,0 -0.375,0.125 L 30,30.25 30.0625,30.1875 30.125,30.125 29.5625,30.0625 Q 29,30 28.5,30 q -0.5,0 -1,0 -0.5,0 -1,0 -0.5,0 -1,0 -0.5,0 -1,0 -0.5,0 -1,0 -0.5,0 -1,0 -0.5,0 -1,0 -0.5,0 -1,0 -0.5,0 -1,0 Q 19,30 19,29.5 19,29 18.875,28.625 18.75,28.25 18.375,28.125 18,28 17.5,28 q -0.5,0 -1,0 -0.5,0 -1,0 -0.5,0 -1,0 -0.5,0 -0.5,-0.5 0,-0.5 0,-1 0,-0.5 0.5,-0.5 0.5,0 0.875,-0.125 0.375,-0.125 0.5,-0.5 Q 16,25 16,24.5 16,24 16.125,23.625 M 23,16.5 V 16 h 0.5 q 0.5,0 1,0 0.5,0 0.875,0.125 0.375,0.125 0.5,0.5 Q 26,17 26,17.5 q 0,0.5 0,1 0,0.5 0,1 0,0.5 0,1 0,0.5 -0.5,0.5 -0.5,0 -1,0 -0.5,0 -0.875,-0.125 -0.375,-0.125 -0.5,-0.5 Q 23,20 23,19.5 q 0,-0.5 0,-1 0,-0.5 0,-1 0,-0.5 0,-1 m -3.875,0.125 q 0.125,-0.375 0.5,-0.5 Q 20,16 20.5,16 H 21 v 0.5 q 0,0.5 0,1 0,0.5 0,1 0,0.5 0,1 0,0.5 0,1 0,0.5 -0.5,0.5 -0.5,0 -1,0 H 19 v -0.5 q 0,-0.5 0,-1 0,-0.5 0,-1 0,-0.5 0,-1 0,-0.5 0.125,-0.875 m -3,-9 Q 16.25,7.25 16.625,7.125 17,7 17.5,7 q 0.5,0 1,0 0.5,0 1,0 0.5,0 1,0 0.5,0 1,0 0.5,0 1,0 0.5,0 1,0 0.5,0 1,0 0.5,0 1,0 H 26 25.625 25.25 25.5 q 0.25,0 0.375,-0.125 L 26,6.75 25.9375,6.8125 25.875,6.875 26.4375,6.9375 Q 27,7 27.5,7 28,7 28.5,7 29,7 29.5625,6.9375 L 30.125,6.875 30.0625,6.8125 30,6.75 30.125,6.875 Q 30.25,7 30.5,7 H 30.75 30.375 30 30.5 q 0.5,0 1,0 0.5,0 0.875,0.125 0.375,0.125 0.5,0.5 Q 33,8 33.125,8.375 33.25,8.75 33.625,8.875 34,9 34.5,9 H 35 V 9.5 10 10.5 11 11.5 12 12.5 13 13.5 14 h -0.5 q -0.5,0 -0.875,0.125 -0.375,0.125 -0.5,0.5 Q 33,15 32.875,15.375 32.75,15.75 32.375,15.875 32,16 31.5,16 q -0.5,0 -1,0 -0.5,0 -1,0 -0.5,0 -0.875,-0.125 -0.375,-0.125 -0.5,-0.5 Q 28,15 27.875,14.625 27.75,14.25 27.375,14.125 27,14 26.5,14 q -0.5,0 -1,0 -0.5,0 -1,0 -0.5,0 -1,0 -0.5,0 -1,0 -0.5,0 -1,0 -0.5,0 -1,0 -0.5,0 -1,0 -0.5,0 -1,0 -0.5,0 -1,0 -0.5,0 -1,0 -0.5,0 -1,0 -0.5,0 -0.875,0.125 -0.375,0.125 -0.5,0.5 Q 14,15 13.875,15.375 13.75,15.75 13.375,15.875 13,16 12.625,16.125 12.25,16.25 12.125,16.625 12,17 12,17.5 q 0,0.5 0,1 0,0.5 0,1 0,0.5 0.125,0.875 0.125,0.375 0.5,0.5 Q 13,21 13.5,21 q 0.5,0 0.5,0.5 0,0.5 -0.125,0.875 -0.125,0.375 -0.5,0.5 Q 13,23 12.625,23.125 12.25,23.25 12.125,23.625 12,24 12,24.5 q 0,0.5 0,1 0,0.5 -0.5,0.5 -0.5,0 -1,0 Q 10,26 9.625,25.875 9.25,25.75 9.125,25.375 9,25 9,24.5 9,24 8.875,23.625 8.75,23.25 8.375,23.125 8,23 7.625,22.875 7.25,22.75 7.125,22.375 7,22 7,21.5 7,21 7,20.5 7,20 7,19.5 7,19 7,18.5 7,18 7,17.5 7,17 7,16.5 V 16 16.375 16.75 16.5 Q 7,16.25 6.875,16.125 L 6.75,16 6.8125,16.0625 6.875,16.125 7.4375,16.0625 Q 8,16 8.375,15.875 8.75,15.75 8.875,15.375 9,15 9,14.5 9,14 9,13.5 9,13 9.125,12.625 9.25,12.25 9.625,12.125 10,12 10.5,12 q 0.5,0 0.875,-0.125 0.375,-0.125 0.5,-0.5 Q 12,11 12,10.5 12,10 12.125,9.625 12.25,9.25 12.625,9.125 13,9 13.5,9 14,9 14.5,9 15,9 15.375,8.875 15.75,8.75 15.875,8.375 16,8 16.125,7.625"
         inkscape:connector-curvature="0" />
      <path
         id="path6116"
         style="fill:#8f581f;fill-opacity:1"
         d="M 23,58.5 V 58 h 0.5 q 0.5,0 1,0 0.5,0 1,0 H 26 v 0.5 q 0,0.5 -0.125,0.875 -0.125,0.375 -0.5,0.5 Q 25,60 24.5,60 24,60 23.625,59.875 23.25,59.75 23.125,59.375 23,59 23,58.5 M 23.375,58 H 23 22.875 22.75 23 q 0.25,0 0.5,0 h 0.25 -0.375 M 9,58.5 V 58 h 0.5 q 0.5,0 1,0 0.5,0 1,0 0.5,0 1,0 0.5,0 1,0 0.5,0 1,0 0.5,0 1,0 0.5,0 1,0 0.5,0 1,0 0.5,0 1,0 0.5,0 1,0 0.5,0 1,0 H 21 v 0.5 q 0,0.5 0.0625,1.0625 L 21.125,60.125 21.1875,60.0625 21.25,60 21.125,60.125 Q 21,60.25 21,60.5 V 60.75 60.375 60 60.5 q 0,0.5 0,1 0,0.5 0,1 V 63 62.625 62.25 62.5 q 0,0.25 0.125,0.375 L 21.25,63 21.1875,62.9375 21.125,62.875 20.5625,62.9375 Q 20,63 19.5,63 q -0.5,0 -1,0 -0.5,0 -1,0 -0.5,0 -1,0 -0.5,0 -1,0 -0.5,0 -1,0 -0.5,0 -1,0 -0.5,0 -0.875,-0.125 -0.375,-0.125 -0.5,-0.5 Q 12,62 12,61.5 12,61 11.875,60.625 11.75,60.25 11.375,60.125 11,60 10.5,60 10,60 9.5,60 H 9 v -0.5 q 0,-0.5 0,-1 m 0,1.125 V 60 60.125 60.25 60 q 0,-0.25 0,-0.5 v -0.25 0.375 M 21.125,58 H 21 20.625 20.25 20.5 q 0.25,0 0.5,0 h 0.25 -0.125 M 9,57.875 V 58 58.375 58.75 58.5 Q 9,58.25 9,58 v -0.25 0.125 M 28,30.5 V 30 h 0.5 q 0.5,0 1.0625,0.0625 L 30.125,30.125 30.1875,30.0625 30.25,30 30.125,30.125 Q 30,30.25 30,30.5 V 30.75 30.375 30 30.5 q 0,0.5 -0.125,0.875 -0.125,0.375 -0.5,0.5 Q 29,32 28.625,32.125 28.25,32.25 28.125,32.625 28,33 28,33.5 q 0,0.5 0.125,0.875 0.125,0.375 0.5,0.5 0.375,0.125 0.75,0.25 0.375,0.125 0.5,0.5 0.125,0.375 0.25,0.75 0.125,0.375 0.5,0.5 Q 31,37 31.5,37 q 0.5,0 0.875,0.125 0.375,0.125 0.5,0.5 Q 33,38 33,38.5 q 0,0.5 0,1 0,0.5 0,1 0,0.5 -0.125,0.875 -0.125,0.375 -0.5,0.5 Q 32,42 31.5,42 31,42 30.625,42.125 30.25,42.25 30.125,42.625 30,43 29.875,43.375 29.75,43.75 29.375,43.875 29,44 28.625,44.125 28.25,44.25 28.125,44.625 28,45 28,45.5 V 46 h -0.5 q -0.5,0 -1,0 -0.5,0 -1,0 -0.5,0 -1,0 -0.5,0 -1,0 -0.5,0 -1,0 -0.5,0 -1,0 H 21 V 45.5 Q 21,45 20.875,44.625 20.75,44.25 20.375,44.125 20,44 19.5,44 H 19 V 43.5 Q 19,43 18.875,42.625 18.75,42.25 18.375,42.125 18,42 17.5,42 17,42 16.5,42 H 16 v -0.5 q 0,-0.5 0,-1 0,-0.5 0,-1 0,-0.5 0,-1 0,-0.5 0,-1 V 37 h 0.5 q 0.5,0 1,0 0.5,0 0.875,-0.125 0.375,-0.125 0.5,-0.5 Q 19,36 19,35.5 V 35 h 0.5 q 0.5,0 0.875,-0.125 0.375,-0.125 0.5,-0.5 Q 21,34 21,33.5 21,33 21,32.5 V 32 h 0.5 q 0.5,0 1,0 0.5,0 1,0 0.5,0 1,0 0.5,0 1,0 0.5,0 1,0 0.5,0 0.875,-0.125 0.375,-0.125 0.5,-0.5 Q 28,31 28,30.5 M 21.375,32 H 21 20.875 20.75 21 q 0.25,0 0.5,0 h 0.25 -0.375 m -2,3 H 19 18.875 18.75 19 q 0.25,0 0.5,0 h 0.25 -0.375 M 16,41.625 V 42 42.125 42.25 42 q 0,-0.25 0,-0.5 v -0.25 0.375 M 18.875,44 H 19 19.375 19.75 19.5 q -0.25,0 -0.5,0 h -0.25 0.125 m 2,2 H 21 21.375 21.75 21.5 q -0.25,0 -0.5,0 h -0.25 0.125 M 26.5,44 q 0.5,0 0.875,-0.125 0.375,-0.125 0.5,-0.5 Q 28,43 28.125,42.625 28.25,42.25 28.625,42.125 29,42 29.375,41.875 29.75,41.75 29.875,41.375 30,41 30,40.5 q 0,-0.5 0,-1 0,-0.5 0,-1 0,-0.5 -0.125,-0.875 -0.125,-0.375 -0.5,-0.5 Q 29,37 28.625,36.875 28.25,36.75 28.125,36.375 28,36 27.875,35.625 27.75,35.25 27.375,35.125 27,35 26.5,35 q -0.5,0 -1,0 -0.5,0 -1,0 -0.5,0 -1,0 -0.5,0 -1,0 -0.5,0 -0.875,0.125 -0.375,0.125 -0.5,0.5 Q 21,36 20.875,36.375 20.75,36.75 20.375,36.875 20,37 19.625,37.125 19.25,37.25 19.125,37.625 19,38 19,38.5 q 0,0.5 0,1 0,0.5 0,1 0,0.5 0.125,0.875 0.125,0.375 0.5,0.5 0.375,0.125 0.75,0.25 0.375,0.125 0.5,0.5 0.125,0.375 0.25,0.75 0.125,0.375 0.5,0.5 Q 22,44 22.5,44 q 0.5,0 1,0 0.5,0 1,0 0.5,0 1,0 0.5,0 1,0 M 28.375,30 H 28 27.875 27.75 28 q 0.25,0 0.5,0 h 0.25 -0.375 M 9,30.5 V 30 h 0.5 q 0.5,0 1,0 0.5,0 0.875,0.125 0.375,0.125 0.5,0.5 Q 12,31 12,31.5 V 32 h -0.5 q -0.5,0 -1,0 -0.5,0 -1,0 H 9 V 31.5 Q 9,31 9,30.5 M 9,29.875 V 30 30.375 30.75 30.5 Q 9,30.25 9,30 v -0.25 0.125 M 19,23.5 V 23 h 0.5 q 0.5,0 0.875,0.125 0.375,0.125 0.5,0.5 Q 21,24 21,24.5 q 0,0.5 0,1 V 26 H 20.5 Q 20,26 19.625,25.875 19.25,25.75 19.125,25.375 19,25 19,24.5 19,24 19,23.5 M 20.625,26 H 21 21.125 21.25 21 q -0.25,0 -0.5,0 h -0.25 0.375 M 30,19.5 q 0,-0.5 0.5,-0.5 0.5,0 1,0 0.5,0 0.875,0.125 0.375,0.125 0.5,0.5 Q 33,20 33,20.5 q 0,0.5 0,1 0,0.5 0,1 0,0.5 0,1 0,0.5 0,1 0,0.5 0,1 V 26 25.625 25.25 25.5 q 0,0.25 0.125,0.375 L 33.25,26 33.1875,25.9375 33.125,25.875 32.5625,25.9375 Q 32,26 31.5,26 31,26 30.5,26 H 30 v -0.5 q 0,-0.5 0,-1 0,-0.5 0,-1 0,-0.5 0,-1 0,-0.5 0,-1 0,-0.5 0,-1 0,-0.5 0,-1 M 29.875,26 H 30 30.375 30.75 30.5 q -0.25,0 -0.5,0 h -0.25 0.125 M 2.125,19.625 Q 2.25,19.25 2.625,19.125 3,19 3.5,19 4,19 4.5,19 H 5 v 0.5 q 0,0.5 0,1 0,0.5 0,1 0,0.5 -0.125,0.875 -0.125,0.375 -0.5,0.5 Q 4,23 3.5,23 3,23 2.625,22.875 2.25,22.75 2.125,22.375 2,22 2,21.5 2,21 2,20.5 2,20 2.125,19.625 M 5,19.375 V 19 18.875 18.75 19 q 0,0.25 0,0.5 v 0.25 -0.375"
         inkscape:connector-curvature="0" />
      <path
         id="path6120"
         style="fill:#ffd870;fill-opacity:1"
         d="m 26.125,60.625 q 0.125,-0.375 0.5,-0.5 0.375,-0.125 0.75,0 0.375,0.125 0.5,0.5 Q 28,61 28,61.5 q 0,0.5 -0.125,0.875 -0.125,0.375 -0.5,0.5 -0.375,0.125 -0.75,0 -0.375,-0.125 -0.5,-0.5 Q 26,62 26,61.5 26,61 26.125,60.625 M 21,60.5 q 0,-0.5 0.5,-0.5 0.5,0 0.875,0.125 0.375,0.125 0.5,0.5 Q 23,61 23,61.5 q 0,0.5 -0.125,0.875 -0.125,0.375 -0.5,0.5 Q 22,63 21.5,63 21,63 21,62.5 q 0,-0.5 0,-1 0,-0.5 0,-1 m 0,-58 V 2 h 0.5 q 0.5,0 1,0 H 23 v 0.5 q 0,0.5 0,1 0,0.5 0,1 0,0.5 0,1 0,0.5 0,1 V 7 H 22.5 Q 22,7 21.5,7 H 21 V 6.5 Q 21,6 21,5.5 21,5 21,4.5 21,4 21,3.5 21,3 21,2.5 M 20.875,7 H 21 21.375 21.75 21.5 Q 21.25,7 21,7 h -0.25 0.125 m 1.75,0 H 23 23.125 23.25 23 q -0.25,0 -0.5,0 h -0.25 0.375 m 0.5,-5 H 23 22.625 22.25 22.5 q 0.25,0 0.5,0 h 0.25 -0.125 m -1.75,0 H 21 20.875 20.75 21 q 0.25,0 0.5,0 h 0.25 -0.375"
         inkscape:connector-curvature="0" />
    </g>
  </g>
</svg>
