<?xml version="1.0" encoding="UTF-8" standalone="no"?>
<!-- Created with Inkscape (http://www.inkscape.org/) -->

<svg
   xmlns:dc="http://purl.org/dc/elements/1.1/"
   xmlns:cc="http://creativecommons.org/ns#"
   xmlns:rdf="http://www.w3.org/1999/02/22-rdf-syntax-ns#"
   xmlns:svg="http://www.w3.org/2000/svg"
   xmlns="http://www.w3.org/2000/svg"
   xmlns:sodipodi="http://sodipodi.sourceforge.net/DTD/sodipodi-0.dtd"
   xmlns:inkscape="http://www.inkscape.org/namespaces/inkscape"
   width="210mm"
   height="297mm"
   viewBox="0 0 210 297"
   version="1.1"
   id="svg6374"
   inkscape:version="0.92.4 (unknown)"
   sodipodi:docname="m3.svg">
  <defs
     id="defs6368" />
  <sodipodi:namedview
     id="base"
     pagecolor="#ffffff"
     bordercolor="#666666"
     borderopacity="1.0"
     inkscape:pageopacity="0.0"
     inkscape:pageshadow="2"
     inkscape:zoom="1.979899"
     inkscape:cx="587.38329"
     inkscape:cy="236.75119"
     inkscape:document-units="mm"
     inkscape:current-layer="g6561"
     showgrid="false"
     inkscape:window-width="1366"
     inkscape:window-height="703"
     inkscape:window-x="0"
     inkscape:window-y="0"
     inkscape:window-maximized="1" />
  <metadata
     id="metadata6371">
    <rdf:RDF>
      <cc:Work
         rdf:about="">
        <dc:format>image/svg+xml</dc:format>
        <dc:type
           rdf:resource="http://purl.org/dc/dcmitype/StillImage" />
        <dc:title />
      </cc:Work>
    </rdf:RDF>
  </metadata>
  <g
     inkscape:label="Layer 1"
     inkscape:groupmode="layer"
     id="layer1">
    <g
       transform="translate(121.34926,199.19865)"
       id="g6561">
      <path
         style="fill:#dfa03f;fill-opacity:1"
         d="M 19,5.5 V 5 h 0.5 q 0.5,0 1,0 H 21 v 0.5 q 0,0.5 0,1 V 7 H 20.5 Q 20,7 19.5,7 H 19 V 6.5 Q 19,6 19,5.5 M 18.875,7 H 19 19.375 19.75 19.5 Q 19.25,7 19,7 h -0.25 0.125 m 1.75,0 H 21 21.125 21.25 21 q -0.25,0 -0.5,0 h -0.25 0.375 M 21,5.375 V 5 4.875 4.75 5 q 0,0.25 0,0.5 V 5.75 5.375 M 19.375,5 H 19 18.875 18.75 19 q 0.25,0 0.5,0 h 0.25 -0.375"
         id="path6455"
         inkscape:connector-curvature="0" />
      <path
         id="path6487"
         style="fill:#ff706f;fill-opacity:1"
         d="M 19,21.5 V 21 h 0.5 q 0.5,0 1,0 H 21 20.625 20.25 20.5 q 0.25,0 0.375,-0.125 L 21,20.75 20.9375,20.8125 20.875,20.875 21.4375,20.9375 Q 22,21 22.375,21.125 q 0.375,0.125 0.5,0.5 0.125,0.375 0.25,0.75 0.125,0.375 0.5,0.5 Q 24,23 24.5,23 q 0.5,0 1,0 0.5,0 1,0 0.5,0 1,0 0.5,0 1,0 0.5,0 1,0 H 30 v 0.5 q 0,0.5 0,1 0,0.5 0,1 V 26 h -0.5 q -0.5,0 -1,0 -0.5,0 -1,0 -0.5,0 -1,0 -0.5,0 -1,0 -0.5,0 -1,0 -0.5,0 -1,0 -0.5,0 -1,0 -0.5,0 -1,0 H 21 v -0.5 q 0,-0.5 0,-1 0,-0.5 -0.125,-0.875 -0.125,-0.375 -0.5,-0.5 Q 20,23 19.5,23 H 19 v -0.5 q 0,-0.5 0,-1 M 20.875,26 H 21 21.375 21.75 21.5 q -0.25,0 -0.5,0 h -0.25 0.125 m 8.75,0 H 30 30.125 30.25 30 q -0.25,0 -0.5,0 h -0.25 0.375 M 30,23.375 V 23 22.875 22.75 23 q 0,0.25 0,0.5 v 0.25 -0.375 M 3,16.5 V 16 h 0.5 q 0.5,0 1,0 H 5 v 0.5 q 0,0.5 0,1 0,0.5 0,1 V 19 H 4.5 Q 4,19 3.625,19.125 3.25,19.25 3.125,19.625 3,20 3,20.5 q 0,0.5 0,1 0,0.5 0.125,0.875 0.125,0.375 0.5,0.5 0.375,0.125 0.75,0 0.375,-0.125 0.5,-0.5 Q 5,22 5,21.5 V 21 h 0.5 q 0.5,0 1,0 H 7 v 0.5 q 0,0.5 0.125,0.875 0.125,0.375 0.5,0.5 Q 8,23 8.5,23 9,23 9.375,23.125 9.75,23.25 9.875,23.625 10,24 10,24.5 q 0,0.5 0.125,0.875 0.125,0.375 0.5,0.5 Q 11,26 11.5,26 H 12 11.625 11.25 11.5 q 0.25,0 0.375,-0.125 L 12,25.75 11.9375,25.8125 11.875,25.875 12.4375,25.9375 Q 13,26 13.5625,26.0625 L 14.125,26.125 14.1875,26.0625 14.25,26 14.125,26.125 Q 14,26.25 14,26.5 V 26.75 26.375 26 26.5 q 0,0.5 0,1 V 28 27.625 27.25 27.5 q 0,0.25 0.125,0.375 L 14.25,28 14.1875,27.9375 14.125,27.875 14.0625,28.4375 Q 14,29 14.125,29.375 q 0.125,0.375 0.5,0.5 Q 15,30 15.5,30 q 0.5,0 1,0 0.5,0 1,0 0.5,0 1.0625,-0.0625 L 19.125,29.875 19.0625,29.8125 19,29.75 19.125,29.875 Q 19.25,30 19.5,30 H 19.75 19.375 19 19.5 q 0.5,0 1,0 0.5,0 1,0 0.5,0 1,0 0.5,0 1,0 0.5,0 1,0 0.5,0 1,0 H 26 v 0.5 q 0,0.5 -0.125,0.875 -0.125,0.375 -0.5,0.5 Q 25,32 24.5,32 q -0.5,0 -1,0 -0.5,0 -1,0 -0.5,0 -1,0 -0.5,0 -1,0 -0.5,0 -1,0 -0.5,0 -1,0 -0.5,0 -1,0 -0.5,0 -1,0 -0.5,0 -1,0 -0.5,0 -1,0 -0.5,0 -1,0 -0.5,0 -1,0 H 12 V 31.5 Q 12,31 11.875,30.625 11.75,30.25 11.375,30.125 11,30 10.5,30 H 10 V 29.5 Q 10,29 9.875,28.625 9.75,28.25 9.375,28.125 9,28 8.5,28 8,28 7.625,27.875 7.25,27.75 7.125,27.375 7,27 6.875,26.625 6.75,26.25 6.375,26.125 6,26 5.5,26 5,26 4.5,26 4,26 3.5,26 H 3 V 25.5 Q 3,25 3,24.5 3,24 2.875,23.625 2.75,23.25 2.375,23.125 2,23 1.5,23 1,23 0.5,23 H 0 V 22.5 22 21.5 21 20.5 20 19.5 19 h 0.5 q 0.5,0 1,0 0.5,0 0.875,-0.125 0.375,-0.125 0.5,-0.5 Q 3,18 3,17.5 3,17 3,16.5 m 0,9.125 V 26 26.125 26.25 26 q 0,-0.25 0,-0.5 v -0.25 0.375 m 7,4 V 30 30.125 30.25 30 q 0,-0.25 0,-0.5 v -0.25 0.375 M 26.125,30 H 26 25.625 25.25 25.5 q 0.25,0 0.5,0 h 0.25 -0.125 M 7,21.375 V 21 20.875 20.75 21 q 0,0.25 0,0.5 v 0.25 -0.375 m -2,-0.5 V 21 21.375 21.75 21.5 Q 5,21.25 5,21 v -0.25 0.125 m 0,-1.75 V 19 18.625 18.25 18.5 q 0,0.25 0,0.5 v 0.25 -0.125 M 3,15.875 V 16 16.375 16.75 16.5 Q 3,16.25 3,16 v -0.25 0.125 M 21,14.5 V 14 h 0.5 q 0.5,0 1,0 H 23 v 0.5 q 0,0.5 0,1 V 16 h -0.5 q -0.5,0 -1,0 H 21 v -0.5 q 0,-0.5 0,-1 M 23.125,14 H 23 22.625 22.25 22.5 q 0.25,0 0.5,0 h 0.25 -0.125 m -1.75,0 H 21 20.875 20.75 21 q 0.25,0 0.5,0 h 0.25 -0.375 m -7.25,0.625 q 0.125,-0.375 0.5,-0.5 Q 15,14 15.5,14 q 0.5,0 1,0 H 17 v 0.5 q 0,0.5 0,1 0,0.5 0,1 0,0.5 0,1 0,0.5 0,1 V 19 h -0.5 q -0.5,0 -1,0 -0.5,0 -0.875,0.125 -0.375,0.125 -0.5,0.5 Q 14,20 13.9375,20.5625 L 13.875,21.125 13.9375,21.1875 14,21.25 13.875,21.125 Q 13.75,21 13.5,21 H 13.25 13.625 14 13.5 Q 13,21 12.625,20.875 12.25,20.75 12.125,20.375 12,20 12,19.5 q 0,-0.5 0,-1 0,-0.5 0,-1 0,-0.5 0.125,-0.875 0.125,-0.375 0.5,-0.5 Q 13,16 13.375,15.875 13.75,15.75 13.875,15.375 14,15 14.125,14.625 M 17,19.125 V 19 18.625 18.25 18.5 q 0,0.25 0,0.5 v 0.25 -0.125 M 17.125,14 H 17 16.625 16.25 16.5 q 0.25,0 0.5,0 h 0.25 -0.125"
         inkscape:connector-curvature="0" />
      <path
         id="path6497"
         style="fill:#ffd0c0;fill-opacity:1"
         d="M 14.0625,28.4375 14.125,27.875 14.0625,27.8125 14,27.75 14.125,27.875 Q 14.25,28 14.5,28 H 14.75 14.375 14 14.5 q 0.5,0 1,0 0.5,0 1,0 0.5,0 1,0 0.5,0 0.875,0.125 0.375,0.125 0.5,0.5 Q 19,29 19,29.5 V 30 29.625 29.25 29.5 q 0,0.25 0.125,0.375 L 19.25,30 19.1875,29.9375 19.125,29.875 18.5625,29.9375 Q 18,30 17.5,30 q -0.5,0 -1,0 -0.5,0 -1,0 -0.5,0 -0.875,-0.125 -0.375,-0.125 -0.5,-0.5 Q 14,29 14.0625,28.4375 M 14.125,19.625 q 0.125,-0.375 0.5,-0.5 Q 15,19 15.5,19 q 0.5,0 1,0 H 17 v 0.5 q 0,0.5 0.125,0.875 0.125,0.375 0.5,0.5 Q 18,21 18.5,21 H 19 v 0.5 q 0,0.5 0,1 V 23 h -0.5 q -0.5,0 -0.875,0.125 -0.375,0.125 -0.5,0.5 Q 17,24 17,24.5 q 0,0.5 -0.125,0.875 -0.125,0.375 -0.5,0.5 Q 16,26 15.5,26 15,26 14.5,26 H 14 14.375 14.75 14.5 q -0.25,0 -0.375,0.125 L 14,26.25 14.0625,26.1875 14.125,26.125 13.5625,26.0625 Q 13,26 12.4375,25.9375 L 11.875,25.875 11.8125,25.9375 11.75,26 11.875,25.875 Q 12,25.75 12,25.5 V 25.25 25.625 26 25.5 q 0,-0.5 0,-1 0,-0.5 0.125,-0.875 0.125,-0.375 0.5,-0.5 Q 13,23 13.375,22.875 13.75,22.75 13.875,22.375 14,22 14,21.5 V 21 21.375 21.75 21.5 q 0,-0.25 -0.125,-0.375 L 13.75,21 l 0.0625,0.0625 0.0625,0.0625 0.0625,-0.5625 Q 14,20 14.125,19.625 M 17,19.375 V 19 18.875 18.75 19 q 0,0.25 0,0.5 v 0.25 -0.375 M 21,16.5 V 16 h 0.5 q 0.5,0 1,0 H 23 v 0.5 q 0,0.5 0,1 0,0.5 0,1 0,0.5 0,1 0,0.5 0.125,0.875 0.125,0.375 0.5,0.5 Q 24,21 24.5,21 q 0.5,0 1,0 H 26 25.625 25.25 25.5 q 0.25,0 0.375,-0.125 L 26,20.75 25.9375,20.8125 25.875,20.875 26.4375,20.9375 Q 27,21 27.375,20.875 27.75,20.75 27.875,20.375 28,20 28.125,19.625 28.25,19.25 28.625,19.125 29,19 29.5625,19.0625 L 30.125,19.125 30.1875,19.0625 30.25,19 30.125,19.125 Q 30,19.25 30,19.5 V 19.75 19.375 19 19.5 q 0,0.5 0,1 0,0.5 0,1 0,0.5 0,1 V 23 h -0.5 q -0.5,0 -1,0 -0.5,0 -1,0 -0.5,0 -1,0 -0.5,0 -1,0 -0.5,0 -1,0 -0.5,0 -0.875,-0.125 -0.375,-0.125 -0.5,-0.5 Q 23,22 22.875,21.625 22.75,21.25 22.375,21.125 22,21 21.4375,20.9375 L 20.875,20.875 20.8125,20.9375 20.75,21 20.875,20.875 Q 21,20.75 21,20.5 V 20.25 20.625 21 20.5 q 0,-0.5 0,-1 0,-0.5 0,-1 0,-0.5 0,-1 0,-0.5 0,-1 m 9,6.625 V 23 22.625 22.25 22.5 q 0,0.25 0,0.5 v 0.25 -0.125 M 5,16.5 V 16 h 0.5 q 0.5,0 1,0 0.5,0 0.5,0.5 0,0.5 0,1 0,0.5 0,1 0,0.5 0,1 0,0.5 0,1 V 21 H 6.5 Q 6,21 5.5,21 H 5 v -0.5 q 0,-0.5 0,-1 0,-0.5 0,-1 0,-0.5 0,-1 0,-0.5 0,-1 m 0,4.125 V 21 21.125 21.25 21 q 0,-0.25 0,-0.5 v -0.25 0.375 m 2,0.5 V 21 20.625 20.25 20.5 q 0,0.25 0,0.5 v 0.25 -0.125"
         inkscape:connector-curvature="0" />
      <path
         id="path6517"
         style="fill:#500000;fill-opacity:1"
         d="M 26,35.5 V 35 h 0.5 q 0.5,0 0.875,0.125 0.375,0.125 0.5,0.5 Q 28,36 28,36.5 V 37 h -0.5 q -0.5,0 -1,0 H 26 v -0.5 q 0,-0.5 0,-1 m -9,-3 V 32 h 0.5 q 0.5,0 1,0 0.5,0 1,0 0.5,0 1,0 H 21 v 0.5 q 0,0.5 0,1 0,0.5 0,1 V 35 h -0.5 q -0.5,0 -1,0 -0.5,0 -1,0 -0.5,0 -1,0 H 17 v -0.5 q 0,-0.5 0,-1 0,-0.5 0,-1 M 16.875,35 H 17 17.375 17.75 17.5 q -0.25,0 -0.5,0 h -0.25 0.125 m 3.75,0 H 21 21.125 21.25 21 q -0.25,0 -0.5,0 h -0.25 0.375 m 0.5,-3 H 21 20.625 20.25 20.5 q 0.25,0 0.5,0 h 0.25 -0.125 m -3.75,0 H 17 16.875 16.75 17 q 0.25,0 0.5,0 h 0.25 -0.375 M 7,32.5 V 32 h 0.5 q 0.5,0 1,0 0.5,0 1,0 0.5,0 1,0 0.5,0 1,0 H 12 v 0.5 q 0,0.5 0,1 0,0.5 0,1 V 35 h -0.5 q -0.5,0 -1,0 -0.5,0 -1,0 Q 9,35 8.5,35 8,35 7.625,35.125 7.25,35.25 7.125,35.625 7,36 6.875,36.375 6.75,36.75 6.375,36.875 6,37 5.625,37.125 5.25,37.25 5.125,37.625 5,38 5,38.5 q 0,0.5 0,1 0,0.5 0,1 0,0.5 0,1 0,0.5 0,1 0,0.5 0.125,0.875 0.125,0.375 0.5,0.5 Q 6,44 6.5,44 q 0.5,0 1,0 0.5,0 1,0 0.5,0 0.875,0.125 0.375,0.125 0.5,0.5 Q 10,45 10,45.5 V 46 H 9.5 Q 9,46 8.5,46 8,46 7.5,46 7,46 6.5,46 6,46 5.5,46 H 5 V 45.5 Q 5,45 4.875,44.625 4.75,44.25 4.375,44.125 4,44 3.625,43.875 3.25,43.75 3.125,43.375 3,43 3,42.5 3,42 3,41.5 3,41 3,40.5 3,40 3,39.5 3,39 3,38.5 3,38 3.125,37.625 3.25,37.25 3.625,37.125 4,37 4.375,36.875 4.75,36.75 4.875,36.375 5,36 5.125,35.625 5.25,35.25 5.625,35.125 6,35 6.375,34.875 6.75,34.75 6.875,34.375 7,34 7,33.5 7,33 7,32.5 M 5,45.625 V 46 46.125 46.25 46 q 0,-0.25 0,-0.5 v -0.25 0.375 M 9.625,46 H 10 10.125 10.25 10 Q 9.75,46 9.5,46 H 9.25 9.625 M 7,31.875 V 32 32.375 32.75 32.5 Q 7,32.25 7,32 v -0.25 0.125 M 17,0.5 V 0 h 0.5 0.5 0.5 0.5 0.5 0.5 0.5 0.5 0.5 0.5 0.5 0.5 0.5 0.5 0.5 0.5 0.5 0.5 0.5 0.5 0.5 0.5 v 0.5 q 0,0.5 0.125,0.875 0.125,0.375 0.5,0.5 Q 29,2 29.375,2.125 29.75,2.25 29.875,2.625 30,3 30,3.5 q 0,0.5 0,1 0,0.5 0,1 0,0.5 0,1 V 7 6.625 6.25 6.5 q 0,0.25 0.125,0.375 L 30.25,7 30.1875,6.9375 30.125,6.875 29.5625,6.9375 Q 29,7 28.5,7 H 28 V 6.5 Q 28,6 28,5.5 28,5 28,4.5 28,4 28,3.5 28,3 27.875,2.625 27.75,2.25 27.375,2.125 27,2 26.5,2 26,2 25.5,2 25,2 24.5,2 24,2 23.5,2 23,2 22.5,2 22,2 21.5,2 21,2 20.5,2 20,2 19.5,2 19,2 18.5,2 18,2 17.625,2.125 17.25,2.25 17.125,2.625 17,3 17,3.5 17,4 16.875,4.375 16.75,4.75 16.375,4.875 16,5 15.5,5 15,5 14.5,5 14,5 13.5,5 13,5 12.625,5.125 12.25,5.25 12.125,5.625 12,6 11.875,6.375 11.75,6.75 11.375,6.875 11,7 10.625,7.125 10.25,7.25 10.125,7.625 10,8 9.875,8.375 9.75,8.75 9.375,8.875 9,9 8.5,9 8,9 7.625,9.125 7.25,9.25 7.125,9.625 7,10 7,10.5 7,11 7,11.5 V 12 H 6.5 Q 6,12 5.625,12.125 5.25,12.25 5.125,12.625 5,13 5,13.5 q 0,0.5 0,1 0,0.5 0,1 V 16 H 4.5 Q 4,16 3.5,16 H 3 V 15.5 Q 3,15 3,14.5 3,14 3,13.5 3,13 3.125,12.625 3.25,12.25 3.625,12.125 4,12 4.375,11.875 4.75,11.75 4.875,11.375 5,11 5,10.5 5,10 5.125,9.625 5.25,9.25 5.625,9.125 6,9 6.375,8.875 6.75,8.75 6.875,8.375 7,8 7.125,7.625 7.25,7.25 7.625,7.125 8,7 8.5,7 9,7 9.375,6.875 9.75,6.75 9.875,6.375 10,6 10.125,5.625 10.25,5.25 10.625,5.125 11,5 11.375,4.875 11.75,4.75 11.875,4.375 12,4 12,3.5 12,3 12.125,2.625 12.25,2.25 12.625,2.125 13,2 13.5,2 q 0.5,0 1,0 0.5,0 1,0 0.5,0 0.875,-0.125 0.375,-0.125 0.5,-0.5 Q 17,1 17,0.5 M 3,15.625 V 16 16.125 16.25 16 q 0,-0.25 0,-0.5 v -0.25 0.375 M 6.625,12 H 7 7.125 7.25 7 Q 6.75,12 6.5,12 H 6.25 6.625 M 27.875,7 H 28 28.375 28.75 28.5 Q 28.25,7 28,7 h -0.25 0.125"
         inkscape:connector-curvature="0" />
      <path
         id="path6521"
         style="fill:#ff4070;fill-opacity:1"
         d="M 21,37.5 V 37 h 0.5 q 0.5,0 0.875,0.125 0.375,0.125 0.5,0.5 0.125,0.375 0.25,0.75 0.125,0.375 0.5,0.5 Q 24,39 24.5,39 q 0.5,0 0.875,0.125 0.375,0.125 0.5,0.5 Q 26,40 26,40.5 q 0,0.5 0,1 V 42 h -0.5 q -0.5,0 -1,0 -0.5,0 -1,0 H 23 v -0.5 q 0,-0.5 0,-1 0,-0.5 -0.125,-0.875 -0.125,-0.375 -0.5,-0.5 Q 22,39 21.625,38.875 21.25,38.75 21.125,38.375 21,38 21,37.5 m 2,4.125 V 42 42.125 42.25 42 q 0,-0.25 0,-0.5 v -0.25 0.375 M 21.375,37 H 21 20.875 20.75 21 q 0.25,0 0.5,0 h 0.25 -0.375 M 7.125,35.625 Q 7.25,35.25 7.625,35.125 8,35 8.5,35 q 0.5,0 1,0 0.5,0 1,0 0.5,0 1,0 H 12 v 0.5 q 0,0.5 -0.125,0.875 -0.125,0.375 -0.5,0.5 Q 11,37 10.625,37.125 10.25,37.25 10.125,37.625 10,38 9.875,38.375 9.75,38.75 9.375,38.875 9,39 8.5,39 8,39 7.5,39 7,39 6.5,39 6,39 5.5,39 H 5 V 38.5 Q 5,38 5.125,37.625 5.25,37.25 5.625,37.125 6,37 6.375,36.875 6.75,36.75 6.875,36.375 7,36 7.125,35.625 M 5,38.625 V 39 39.125 39.25 39 q 0,-0.25 0,-0.5 v -0.25 0.375 M 23,2.5 V 2 h 0.5 q 0.5,0 1,0 0.5,0 1,0 0.5,0 1,0 0.5,0 0.875,0.125 0.375,0.125 0.5,0.5 Q 28,3 28,3.5 28,4 28,4.5 V 5 H 27.5 Q 27,5 26.4375,5.0625 L 25.875,5.125 25.9375,5.1875 26,5.25 25.875,5.125 Q 25.75,5 25.5,5 H 25.25 25.625 26 25.5 Q 25,5 24.5,5 24,5 23.5,5 H 23 V 4.5 q 0,-0.5 0,-1 0,-0.5 0,-1 m 0,2.125 V 5 5.125 5.25 5 Q 23,4.75 23,4.5 V 4.25 4.625 m 5,0.5 V 5 4.625 4.25 4.5 Q 28,4.75 28,5 V 5.25 5.125 M 23.375,2 H 23 22.875 22.75 23 q 0.25,0 0.5,0 h 0.25 -0.375 m -6.25,0.625 Q 17.25,2.25 17.625,2.125 18,2 18.5,2 q 0.5,0 1,0 0.5,0 1,0 H 21 v 0.5 q 0,0.5 0,1 0,0.5 0,1 V 5 H 20.5 Q 20,5 19.5,5 19,5 18.5,5 18,5 17.625,5.125 17.25,5.25 17.125,5.625 17,6 16.875,6.375 16.75,6.75 16.375,6.875 16,7 15.5,7 15,7 14.5,7 14,7 13.5,7 13,7 12.625,7.125 12.25,7.25 12.125,7.625 12,8 11.875,8.375 11.75,8.75 11.375,8.875 11,9 10.625,9.125 10.25,9.25 10.125,9.625 10,10 10,10.5 10,11 9.875,11.375 9.75,11.75 9.375,11.875 9,12 8.5,12 8,12 7.5,12 H 7 V 11.5 Q 7,11 7,10.5 7,10 7.125,9.625 7.25,9.25 7.625,9.125 8,9 8.5,9 9,9 9.375,8.875 9.75,8.75 9.875,8.375 10,8 10.125,7.625 10.25,7.25 10.625,7.125 11,7 11.375,6.875 11.75,6.75 11.875,6.375 12,6 12.125,5.625 12.25,5.25 12.625,5.125 13,5 13.5,5 q 0.5,0 1,0 0.5,0 1,0 0.5,0 0.875,-0.125 0.375,-0.125 0.5,-0.5 Q 17,4 17,3.5 17,3 17.125,2.625 M 6.875,12 H 7 7.375 7.75 7.5 Q 7.25,12 7,12 H 6.75 6.875 M 21,5.125 V 5 4.625 4.25 4.5 Q 21,4.75 21,5 V 5.25 5.125 M 21.125,2 H 21 20.625 20.25 20.5 q 0.25,0 0.5,0 h 0.25 -0.125"
         inkscape:connector-curvature="0" />
      <path
         id="path6527"
         style="fill:#b02860;fill-opacity:1"
         d="M 5,39.5 V 39 h 0.5 q 0.5,0 1,0 H 7 v 0.5 q 0,0.5 0,1 0,0.5 0,1 0,0.5 0,1 0,0.5 0,1 V 44 H 6.5 Q 6,44 5.625,43.875 5.25,43.75 5.125,43.375 5,43 5,42.5 5,42 5,41.5 5,41 5,40.5 5,40 5,39.5 M 6.625,44 H 7 7.125 7.25 7 Q 6.75,44 6.5,44 H 6.25 6.625 m 0.5,-5 H 7 6.625 6.25 6.5 Q 6.75,39 7,39 H 7.25 7.125 M 5,38.875 V 39 39.375 39.75 39.5 Q 5,39.25 5,39 v -0.25 0.125 M 19,35.5 V 35 h 0.5 q 0.5,0 1,0 0.5,0 1,0 0.5,0 1,0 H 23 v 0.5 q 0,0.5 0.125,0.875 0.125,0.375 0.5,0.5 Q 24,37 24.5,37 q 0.5,0 1,0 H 26 v 0.5 q 0,0.5 0.125,0.875 0.125,0.375 0.5,0.5 Q 27,39 27.5,39 H 28 v 0.5 q 0,0.5 0,1 0,0.5 0,1 V 42 h -0.5 q -0.5,0 -1,0 H 26 v -0.5 q 0,-0.5 0,-1 0,-0.5 -0.125,-0.875 -0.125,-0.375 -0.5,-0.5 Q 25,39 24.5,39 24,39 23.625,38.875 23.25,38.75 23.125,38.375 23,38 22.875,37.625 22.75,37.25 22.375,37.125 22,37 21.5,37 21,37 20.5,37 20,37 19.625,36.875 19.25,36.75 19.125,36.375 19,36 19,35.5 M 23.125,35 H 23 22.625 22.25 22.5 q 0.25,0 0.5,0 h 0.25 -0.125 m -3.75,0 H 19 18.875 18.75 19 q 0.25,0 0.5,0 h 0.25 -0.375 M 12,32.5 V 32 h 0.5 q 0.5,0 1,0 0.5,0 1,0 0.5,0 1,0 0.5,0 1,0 H 17 v 0.5 q 0,0.5 0,1 0,0.5 0,1 V 35 h -0.5 q -0.5,0 -1,0 -0.5,0 -1,0 -0.5,0 -1,0 -0.5,0 -1,0 H 12 v -0.5 q 0,-0.5 0,-1 0,-0.5 0,-1 M 16.625,35 H 17 17.125 17.25 17 q -0.25,0 -0.5,0 h -0.25 0.375 m 0.5,-3 H 17 16.625 16.25 16.5 q 0.25,0 0.5,0 h 0.25 -0.125 M 26,5.5 V 5 5.375 5.75 5.5 Q 26,5.25 25.875,5.125 L 25.75,5 25.8125,5.0625 25.875,5.125 26.4375,5.0625 Q 27,5 27.5,5 H 28 v 0.5 q 0,0.5 0,1 V 7 H 27.5 Q 27,7 26.4375,6.9375 L 25.875,6.875 25.8125,6.9375 25.75,7 25.875,6.875 Q 26,6.75 26,6.5 V 6.25 6.625 7 6.5 Q 26,6 26,5.5 M 27.625,7 H 28 28.125 28.25 28 q -0.25,0 -0.5,0 h -0.25 0.375 M 28,5.375 V 5 4.875 4.75 5 q 0,0.25 0,0.5 V 5.75 5.375 M 17.125,5.625 Q 17.25,5.25 17.625,5.125 18,5 18.5,5 H 19 v 0.5 q 0,0.5 0,1 V 7 H 18.5 Q 18,7 17.625,7.125 17.25,7.25 17.125,7.625 17,8 16.875,8.375 16.75,8.75 16.375,8.875 16,9 15.5,9 15,9 14.5,9 14,9 13.5,9 13,9 12.625,9.125 12.25,9.25 12.125,9.625 12,10 12,10.5 q 0,0.5 -0.125,0.875 -0.125,0.375 -0.5,0.5 Q 11,12 10.625,12.125 10.25,12.25 10.125,12.625 10,13 10,13.5 q 0,0.5 0,1 0,0.5 -0.125,0.875 -0.125,0.375 -0.5,0.5 Q 9,16 8.5,16 8,16 7.4375,16.0625 L 6.875,16.125 6.9375,16.1875 7,16.25 6.875,16.125 Q 6.75,16 6.5,16 H 6.25 6.625 7 6.5 Q 6,16 5.5,16 H 5 V 15.5 Q 5,15 5,14.5 5,14 5,13.5 5,13 5.125,12.625 5.25,12.25 5.625,12.125 6,12 6.5,12 q 0.5,0 1,0 0.5,0 1,0 0.5,0 0.875,-0.125 0.375,-0.125 0.5,-0.5 Q 10,11 10,10.5 10,10 10.125,9.625 10.25,9.25 10.625,9.125 11,9 11.375,8.875 11.75,8.75 11.875,8.375 12,8 12.125,7.625 12.25,7.25 12.625,7.125 13,7 13.5,7 q 0.5,0 1,0 0.5,0 1,0 0.5,0 0.875,-0.125 0.375,-0.125 0.5,-0.5 Q 17,6 17.125,5.625 M 18.625,7 H 19 19.125 19.25 19 q -0.25,0 -0.5,0 h -0.25 0.375 m 0.5,-2 H 19 18.625 18.25 18.5 q 0.25,0 0.5,0 h 0.25 -0.125"
         inkscape:connector-curvature="0" />
      <path
         id="path6533"
         style="fill:#80d8cf;fill-opacity:1"
         d="M 23,42.5 V 42 h 0.5 q 0.5,0 1,0 0.5,0 1,0 H 26 v 0.5 q 0,0.5 0.125,0.875 0.125,0.375 0.5,0.5 Q 27,44 27.5,44 H 28 v 0.5 q 0,0.5 0,1 0,0.5 0,1 0,0.5 0,1 0,0.5 0,1 0,0.5 0,1 0,0.5 0,1 0,0.5 0,1 0,0.5 -0.125,0.875 -0.125,0.375 -0.5,0.5 Q 27,53 26.5,53 q -0.5,0 -1,0 -0.5,0 -1,0 -0.5,0 -0.875,-0.125 -0.375,-0.125 -0.5,-0.5 Q 23,52 22.875,51.625 22.75,51.25 22.375,51.125 22,51 21.5,51 q -0.5,0 -1,0 -0.5,0 -0.875,0.125 -0.375,0.125 -0.5,0.5 -0.125,0.375 -0.25,0.75 -0.125,0.375 -0.5,0.5 -0.375,0.125 -0.75,0 -0.375,-0.125 -0.5,-0.5 Q 17,52 16.875,51.625 16.75,51.25 16.375,51.125 16,51 15.5,51 15,51 14.625,50.875 14.25,50.75 14.125,50.375 14,50 14,49.5 V 49 h 0.5 q 0.5,0 1,0 0.5,0 1,0 0.5,0 1,0 0.5,0 0.875,-0.125 0.375,-0.125 0.5,-0.5 Q 19,48 19,47.5 19,47 19.125,46.625 19.25,46.25 19.625,46.125 20,46 20.5,46 q 0.5,0 1,0 0.5,0 0.875,-0.125 0.375,-0.125 0.5,-0.5 Q 23,45 23,44.5 q 0,-0.5 0,-1 0,-0.5 0,-1 M 14.375,49 H 14 13.875 13.75 14 q 0.25,0 0.5,0 h 0.25 -0.375 M 28,44.375 V 44 43.875 43.75 44 q 0,0.25 0,0.5 v 0.25 -0.375 m -5,-2.5 V 42 42.375 42.75 42.5 q 0,-0.25 0,-0.5 v -0.25 0.125 M 28,39.5 V 39 h 0.5 q 0.5,0 1,0 H 30 v 0.5 q 0,0.5 0,1 0,0.5 -0.125,0.875 -0.125,0.375 -0.5,0.5 Q 29,42 28.5,42 H 28 v -0.5 q 0,-0.5 0,-1 0,-0.5 0,-1 M 30.125,39 H 30 29.625 29.25 29.5 q 0.25,0 0.5,0 h 0.25 -0.125"
         inkscape:connector-curvature="0" />
      <path
         id="path6537"
         style="fill:#fff8ff;fill-opacity:1"
         d="m 21.125,44.625 q 0.125,-0.375 0.5,-0.5 Q 22,44 22.5,44 H 23 v 0.5 q 0,0.5 -0.125,0.875 -0.125,0.375 -0.5,0.5 Q 22,46 21.5,46 H 21 V 45.5 Q 21,45 21.125,44.625 M 20.875,46 H 21 21.375 21.75 21.5 q -0.25,0 -0.5,0 h -0.25 0.125 M 23,44.375 V 44 43.875 43.75 44 q 0,0.25 0,0.5 v 0.25 -0.375 M 30,39.5 V 39 h 0.5 q 0.5,0 1,0 0.5,0 0.875,0.125 0.375,0.125 0.5,0.5 Q 33,40 33,40.5 q 0,0.5 -0.125,0.875 -0.125,0.375 -0.5,0.5 Q 32,42 31.5,42 31,42 30.625,42.125 30.25,42.25 30.125,42.625 30,43 30,43.5 q 0,0.5 0,1 0,0.5 0,1 0,0.5 -0.5,0.5 -0.5,0 -1,0 H 28 v -0.5 q 0,-0.5 0,-1 0,-0.5 0,-1 0,-0.5 0,-1 V 42 h 0.5 q 0.5,0 0.875,-0.125 0.375,-0.125 0.5,-0.5 Q 30,41 30,40.5 q 0,-0.5 0,-1 m -2,6.125 V 46 46.125 46.25 46 q 0,-0.25 0,-0.5 v -0.25 0.375 M 30.375,39 H 30 29.875 29.75 30 q 0.25,0 0.5,0 h 0.25 -0.375 m -18.25,-1.375 q 0.125,-0.375 0.5,-0.5 Q 13,37 13.5,37 q 0.5,0 1,0 0.5,0 1,0 0.5,0 0.875,0.125 0.375,0.125 0.5,0.5 0.125,0.375 0.25,0.75 0.125,0.375 0.5,0.5 Q 18,39 18.5,39 q 0.5,0 1,0 0.5,0 0.875,0.125 0.375,0.125 0.5,0.5 Q 21,40 21,40.5 q 0,0.5 0,1 0,0.5 0,1 0,0.5 -0.125,0.875 -0.125,0.375 -0.5,0.5 Q 20,44 19.625,44.125 19.25,44.25 19.125,44.625 19,45 18.875,45.375 18.75,45.75 18.375,45.875 18,46 17.5,46 q -0.5,0 -1,0 -0.5,0 -1,0 -0.5,0 -1,0 -0.5,0 -1,0 -0.5,0 -0.875,-0.125 -0.375,-0.125 -0.5,-0.5 Q 12,45 11.875,44.625 11.75,44.25 11.375,44.125 11,44 10.625,43.875 10.25,43.75 10.125,43.375 10,43 10,42.5 q 0,-0.5 0,-1 0,-0.5 0,-1 0,-0.5 0.125,-0.875 0.125,-0.375 0.5,-0.5 Q 11,39 11.375,38.875 11.75,38.75 11.875,38.375 12,38 12.125,37.625 M 23,14.5 V 14 h 0.5 q 0.5,0 1,0 0.5,0 1,0 0.5,0 1,0 0.5,0 0.875,0.125 0.375,0.125 0.5,0.5 Q 28,15 28.125,15.375 L 28.25,15.75 28.15625,15.46875 28.0625,15.1875 28.125,15.375 q 0.0625,0.1875 0.1875,0.3125 l 0.125,0.125 L 28.375,15.75 28.3125,15.6875 28.03125,15.96875 Q 27.75,16.25 27.875,16.625 28,17 28,17.5 q 0,0.5 -0.125,0.875 -0.125,0.375 0.15625,0.65625 l 0.28125,0.28125 0.0625,-0.0625 0.0625,-0.0625 -0.125,0.125 q -0.125,0.125 -0.1875,0.3125 L 28.0625,19.8125 28.15625,19.53125 28.25,19.25 28.125,19.625 Q 28,20 27.875,20.375 27.75,20.75 27.375,20.875 27,21 26.4375,20.9375 L 25.875,20.875 25.8125,20.9375 25.75,21 25.875,20.875 Q 26,20.75 26,20.5 V 20.25 20.625 21 20.5 q 0,-0.5 0,-1 0,-0.5 0,-1 0,-0.5 0,-1 0,-0.5 -0.125,-0.875 -0.125,-0.375 -0.5,-0.5 Q 25,16 24.5,16 24,16 23.5,16 H 23 v -0.5 q 0,-0.5 0,-1 M 23.375,14 H 23 22.875 22.75 23 q 0.25,0 0.5,0 h 0.25 -0.375 M 17,14.5 V 14 h 0.5 q 0.5,0 1,0 0.5,0 1,0 0.5,0 1,0 H 21 v 0.5 q 0,0.5 0,1 V 16 h -0.5 q -0.5,0 -0.875,0.125 -0.375,0.125 -0.5,0.5 Q 19,17 19,17.5 q 0,0.5 0,1 0,0.5 0,1 0,0.5 0,1 V 21 H 18.5 Q 18,21 17.625,20.875 17.25,20.75 17.125,20.375 17,20 17,19.5 q 0,-0.5 0,-1 0,-0.5 0,-1 0,-0.5 0,-1 0,-0.5 0,-1 0,-0.5 0,-1 M 21.125,14 H 21 20.625 20.25 20.5 q 0.25,0 0.5,0 h 0.25 -0.125 m -3.75,0 H 17 16.875 16.75 17 q 0.25,0 0.5,0 h 0.25 -0.375 M 23,5.5 V 5 h 0.5 q 0.5,0 1,0 0.5,0 1,0 Q 26,5 26,5.5 26,6 26,6.5 26,7 25.5,7 25,7 24.5,7 24,7 23.5,7 H 23 V 6.5 Q 23,6 23,5.5 M 22.875,7 H 23 23.375 23.75 23.5 Q 23.25,7 23,7 h -0.25 0.125 M 23,4.875 V 5 5.375 5.75 5.5 Q 23,5.25 23,5 V 4.75 4.875"
         inkscape:connector-curvature="0" />
      <path
         id="path6541"
         style="display:inline;fill:#20308f;fill-opacity:1"
         d="M 5,46.5 V 46 h 0.5 q 0.5,0 1,0 H 7 v 0.5 q 0,0.5 0,1 0,0.5 0.125,0.875 0.125,0.375 0.5,0.5 Q 8,49 8.5,49 9,49 9.375,49.125 9.75,49.25 9.875,49.625 10,50 10,50.5 q 0,0.5 0,1 0,0.5 0.125,0.875 0.125,0.375 0.5,0.5 Q 11,53 11.5,53 q 0.5,0 1,0 0.5,0 0.875,0.125 0.375,0.125 0.5,0.5 Q 14,54 14,54.5 q 0,0.5 0.125,0.875 0.125,0.375 0.5,0.5 Q 15,56 15.5,56 q 0.5,0 1,0 0.5,0 1,0 0.5,0 0.875,-0.125 0.375,-0.125 0.5,-0.5 Q 19,55 19,54.5 19,54 19.125,53.625 19.25,53.25 19.625,53.125 20,53 20.5,53 q 0.5,0 1,0 0.5,0 0.875,0.125 0.375,0.125 0.5,0.5 Q 23,54 23,54.5 q 0,0.5 0.125,0.875 0.125,0.375 0.5,0.5 Q 24,56 24.5,56 q 0.5,0 1,0 H 26 v 0.5 q 0,0.5 0,1 V 58 h -0.5 q -0.5,0 -1,0 -0.5,0 -1,0 H 23 v -0.5 q 0,-0.5 -0.125,-0.875 -0.125,-0.375 -0.5,-0.5 -0.375,-0.125 -0.75,0 -0.375,0.125 -0.5,0.5 Q 21,57 20.875,57.375 20.75,57.75 20.375,57.875 20,58 19.5,58 q -0.5,0 -1,0 -0.5,0 -1,0 H 17 17.375 17.75 17.5 q -0.25,0 -0.375,0.125 L 17,58.25 17.0625,58.1875 17.125,58.125 16.5625,58.0625 Q 16,58 15.5,58 q -0.5,0 -1,0 -0.5,0 -1,0 -0.5,0 -1,0 -0.5,0 -1,0 -0.5,0 -0.875,-0.125 -0.375,-0.125 -0.5,-0.5 Q 10,57 9.875,56.625 9.75,56.25 9.375,56.125 9,56 8.5,56 8,56 7.625,55.875 7.25,55.75 7.125,55.375 7,55 7,54.5 7,54 6.875,53.625 6.75,53.25 6.375,53.125 6,53 5.5,53 H 5 V 52.5 Q 5,52 5.125,51.625 5.25,51.25 5.625,51.125 6,51 6.375,50.875 6.75,50.75 6.875,50.375 7,50 6.875,49.625 6.75,49.25 6.375,49.125 6,49 5.625,48.875 5.25,48.75 5.125,48.375 5,48 5,47.5 5,47 5,46.5 M 23,57.625 V 58 58.125 58.25 58 q 0,-0.25 0,-0.5 v -0.25 0.375 m 3,0.5 V 58 57.625 57.25 57.5 q 0,0.25 0,0.5 v 0.25 -0.125 M 26.125,56 H 26 25.625 25.25 25.5 q 0.25,0 0.5,0 h 0.25 -0.125 m -19,-10 H 7 6.625 6.25 6.5 Q 6.75,46 7,46 H 7.25 7.125 M 5,45.875 V 46 46.375 46.75 46.5 Q 5,46.25 5,46 v -0.25 0.125 M 30,44.5 V 44 h 0.5 q 0.5,0 1,0 0.5,0 1.0625,0.0625 L 33.125,44.125 33.1875,44.0625 33.25,44 33.125,44.125 Q 33,44.25 33,44.5 V 44.75 44.375 44 44.5 q 0,0.5 0,1 0,0.5 0,1 0,0.5 0,1 0,0.5 0,1 0,0.5 0,1 0,0.5 0,1 V 51 50.625 50.25 50.5 q 0,0.25 0.125,0.375 L 33.25,51 33.1875,50.9375 33.125,50.875 33.0625,51.4375 Q 33,52 33,52.5 V 53 h -0.5 q -0.5,0 -1,0 -0.5,0 -0.875,0.125 -0.375,0.125 -0.5,0.5 Q 30,54 30,54.5 q 0,0.5 0,1 V 56 55.625 55.25 55.5 q 0,0.25 0.125,0.375 L 30.25,56 30.1875,55.9375 30.125,55.875 29.5625,55.9375 Q 29,56 28.5,56 H 28 v -0.5 q 0,-0.5 0,-1 0,-0.5 0.125,-0.875 0.125,-0.375 0.5,-0.5 Q 29,53 29.375,52.875 29.75,52.75 29.875,52.375 30,52 30,51.5 q 0,-0.5 0,-1 0,-0.5 0,-1 0,-0.5 0,-1 0,-0.5 0,-1 0,-0.5 -0.0625,-1.0625 L 29.875,45.875 29.8125,45.9375 29.75,46 29.875,45.875 Q 30,45.75 30,45.5 V 45.25 45.625 46 45.5 q 0,-0.5 0,-1 M 27.875,56 H 28 28.375 28.75 28.5 q -0.25,0 -0.5,0 h -0.25 0.125 M 30,43.875 V 44 44.375 44.75 44.5 q 0,-0.25 0,-0.5 v -0.25 0.125 M 23,35.5 V 35 h 0.5 q 0.5,0 1,0 0.5,0 1,0 H 26 v 0.5 q 0,0.5 0,1 V 37 h -0.5 q -0.5,0 -1,0 -0.5,0 -0.875,-0.125 -0.375,-0.125 -0.5,-0.5 Q 23,36 23,35.5 M 23.375,35 H 23 22.875 22.75 23 q 0.25,0 0.5,0 h 0.25 -0.375"
         inkscape:connector-curvature="0" />
      <path
         id="path6543"
         style="fill:#40809f;fill-opacity:1"
         d="M 7,46.5 V 46 h 0.5 q 0.5,0 1,0 0.5,0 1,0 0.5,0 1,0 0.5,0 0.875,0.125 0.375,0.125 0.5,0.5 Q 12,47 12,47.5 q 0,0.5 0.125,0.875 0.125,0.375 0.5,0.5 Q 13,49 13.5,49 H 14 v 0.5 q 0,0.5 0.125,0.875 0.125,0.375 0.5,0.5 Q 15,51 15.5,51 q 0.5,0 0.875,0.125 0.375,0.125 0.5,0.5 0.125,0.375 0.25,0.75 0.125,0.375 0.5,0.5 0.375,0.125 0.75,0 0.375,-0.125 0.5,-0.5 Q 19,52 19.125,51.625 19.25,51.25 19.625,51.125 20,51 20.5,51 q 0.5,0 1,0 0.5,0 0.875,0.125 0.375,0.125 0.5,0.5 0.125,0.375 0.25,0.75 0.125,0.375 0.5,0.5 Q 24,53 24.5,53 q 0.5,0 1,0 0.5,0 1,0 0.5,0 0.875,-0.125 0.375,-0.125 0.5,-0.5 Q 28,52 28,51.5 q 0,-0.5 0,-1 0,-0.5 0,-1 0,-0.5 0,-1 0,-0.5 0,-1 0,-0.5 0,-1 V 46 h 0.5 q 0.5,0 1,0 H 30 29.625 29.25 29.5 q 0.25,0 0.375,-0.125 L 30,45.75 29.9375,45.8125 29.875,45.875 29.9375,46.4375 Q 30,47 30,47.5 q 0,0.5 0,1 0,0.5 0,1 0,0.5 0,1 0,0.5 0,1 0,0.5 -0.125,0.875 -0.125,0.375 -0.5,0.5 Q 29,53 28.625,53.125 28.25,53.25 28.125,53.625 28,54 28,54.5 q 0,0.5 0,1 V 56 h -0.5 q -0.5,0 -1,0 -0.5,0 -1,0 -0.5,0 -1,0 -0.5,0 -0.875,-0.125 -0.375,-0.125 -0.5,-0.5 Q 23,55 23,54.5 23,54 22.875,53.625 22.75,53.25 22.375,53.125 22,53 21.5,53 q -0.5,0 -1,0 -0.5,0 -0.875,0.125 -0.375,0.125 -0.5,0.5 Q 19,54 19,54.5 q 0,0.5 -0.125,0.875 -0.125,0.375 -0.5,0.5 Q 18,56 17.5,56 q -0.5,0 -1,0 -0.5,0 -1,0 -0.5,0 -0.875,-0.125 -0.375,-0.125 -0.5,-0.5 Q 14,55 14,54.5 14,54 13.875,53.625 13.75,53.25 13.375,53.125 13,53 12.5,53 12,53 11.5,53 11,53 10.625,52.875 10.25,52.75 10.125,52.375 10,52 10,51.5 10,51 10,50.5 10,50 9.875,49.625 9.75,49.25 9.375,49.125 9,49 8.5,49 8,49 7.625,48.875 7.25,48.75 7.125,48.375 7,48 7,47.5 7,47 7,46.5 M 27.625,56 H 28 28.125 28.25 28 q -0.25,0 -0.5,0 h -0.25 0.375 M 28,45.875 V 46 46.375 46.75 46.5 q 0,-0.25 0,-0.5 v -0.25 0.125 M 14.125,49 H 14 13.625 13.25 13.5 q 0.25,0 0.5,0 h 0.25 -0.125 M 7.375,46 H 7 6.875 6.75 7 q 0.25,0 0.5,0 H 7.75 7.375 M 26,42.5 V 42 h 0.5 q 0.5,0 1,0 H 28 v 0.5 q 0,0.5 0,1 V 44 H 27.5 Q 27,44 26.625,43.875 26.25,43.75 26.125,43.375 26,43 26,42.5 m 2,1.625 V 44 43.625 43.25 43.5 q 0,0.25 0,0.5 v 0.25 -0.125 M 26,37.5 V 37 h 0.5 q 0.5,0 1,0 H 28 v 0.5 q 0,0.5 0,1 V 39 H 27.5 Q 27,39 26.625,38.875 26.25,38.75 26.125,38.375 26,38 26,37.5"
         inkscape:connector-curvature="0" />
      <path
         id="path6547"
         style="display:inline;fill:#000000;fill-opacity:1"
         d="M 3.125,53.625 Q 3.25,53.25 3.625,53.125 4,53 4.5,53 H 5 v 0.5 q 0,0.5 0,1 0,0.5 0,1 0,0.5 0,1 0,0.5 0,1 0,0.5 0,1 0,0.5 0.125,0.875 0.125,0.375 0.5,0.5 Q 6,60 6.375,60.125 6.75,60.25 6.875,60.625 7,61 7,61.5 7,62 7.125,62.375 7.25,62.75 7.625,62.875 8,63 8.5,63 q 0.5,0 1,0 0.5,0 1,0 0.5,0 1,0 0.5,0 1,0 0.5,0 1.0625,-0.0625 L 14.125,62.875 14.0625,62.8125 14,62.75 14.125,62.875 Q 14.25,63 14.5,63 H 14.75 14.375 14 14.5 q 0.5,0 1,0 0.5,0 0.875,-0.125 0.375,-0.125 0.5,-0.5 Q 17,62 17,61.5 17,61 16.875,60.625 16.75,60.25 16.375,60.125 16,60 15.5,60 15,60 14.5,60 H 14 14.375 14.75 14.5 q -0.25,0 -0.375,0.125 L 14,60.25 14.0625,60.1875 14.125,60.125 14.0625,59.5625 Q 14,59 14,58.5 V 58 h 0.5 q 0.5,0 1,0 0.5,0 1.0625,0.0625 L 17.125,58.125 17.1875,58.0625 17.25,58 17.125,58.125 Q 17,58.25 17,58.5 V 58.75 58.375 58 58.5 q 0,0.5 0.125,0.875 0.125,0.375 0.5,0.5 0.375,0.125 0.75,0.25 0.375,0.125 0.5,0.5 Q 19,61 19,61.5 q 0,0.5 0,1 0,0.5 0,1 0,0.5 0,1 V 65 H 18.5 18 17.5 17 16.5 16 15.5 15 14.5 14 13.5 13 12.5 12 11.5 11 10.5 10 9.5 9 8.5 8 7.5 7 V 64.5 Q 7,64 6.875,63.625 6.75,63.25 6.375,63.125 6,63 5.625,62.875 5.25,62.75 5.125,62.375 5,62 5,61.5 5,61 4.875,60.625 4.75,60.25 4.375,60.125 4,60 3.625,59.875 3.25,59.75 3.125,59.375 3,59 3,58.5 3,58 3,57.5 3,57 3,56.5 3,56 3,55.5 3,55 3,54.5 3,54 3.125,53.625 M 14.375,58 H 14 13.875 13.75 14 q 0.25,0 0.5,0 h 0.25 -0.375 M 33.0625,51.4375 33.125,50.875 33.0625,50.8125 33,50.75 33.125,50.875 Q 33.25,51 33.5,51 H 33.75 33.375 33 33.5 q 0.5,0 0.875,0.125 0.375,0.125 0.5,0.5 0.125,0.375 0.25,0.75 0.125,0.375 0.5,0.5 Q 36,53 36.5,53 H 37 v 0.5 0.5 0.5 0.5 0.5 0.5 0.5 0.5 0.5 0.5 0.5 0.5 0.5 0.5 h -0.5 q -0.5,0 -0.875,0.125 -0.375,0.125 -0.5,0.5 Q 35,61 35,61.5 q 0,0.5 -0.125,0.875 -0.125,0.375 -0.5,0.5 Q 34,63 33.5,63 q -0.5,0 -1,0 -0.5,0 -1,0 -0.5,0 -0.875,0.125 -0.375,0.125 -0.5,0.5 Q 30,64 30,64.5 V 65 H 29.5 29 28.5 28 27.5 27 26.5 26 V 64.5 Q 26,64 25.875,63.625 25.75,63.25 25.375,63.125 25,63 24.5,63 24,63 23.625,62.875 23.25,62.75 23.125,62.375 23,62 23,61.5 q 0,-0.5 0,-1 0,-0.5 0,-1 0,-0.5 0,-1 V 58 h 0.5 q 0.5,0 1,0 0.5,0 1,0 H 26 v 0.5 q 0,0.5 0.125,0.875 0.125,0.375 0.5,0.5 0.375,0.125 0.75,0 0.375,-0.125 0.5,-0.5 Q 28,59 28.125,58.625 28.25,58.25 28.625,58.125 29,58 29.5,58 q 0.5,0 1,0 0.5,0 1,0 0.5,0 0.875,-0.125 0.375,-0.125 0.5,-0.5 Q 33,57 33.125,56.625 33.25,56.25 33.625,56.125 34,56 34.375,55.875 34.75,55.75 34.875,55.375 35,55 35,54.5 35,54 34.875,53.625 34.75,53.25 34.375,53.125 34,53 33.5,53 H 33 V 52.5 Q 33,52 33.0625,51.4375 M 26,58.375 V 58 57.875 57.75 58 q 0,0.25 0,0.5 v 0.25 -0.375 m -3,-0.5 V 58 58.375 58.75 58.5 q 0,-0.25 0,-0.5 v -0.25 0.125 M 3,26.5 V 26 h 0.5 q 0.5,0 1,0 0.5,0 1,0 0.5,0 0.875,0.125 0.375,0.125 0.5,0.5 Q 7,27 7.125,27.375 7.25,27.75 7.625,27.875 8,28 8.5,28 9,28 9.375,28.125 9.75,28.25 9.875,28.625 10,29 10,29.5 q 0,0.5 0,1 0,0.5 0,1 V 32 H 9.5 Q 9,32 8.5,32 8,32 7.5,32 H 7 V 31.5 Q 7,31 6.875,30.625 6.75,30.25 6.375,30.125 6,30 5.625,29.875 5.25,29.75 5.125,29.375 5,29 4.875,28.625 4.75,28.25 4.375,28.125 4,28 3.625,27.875 3.25,27.75 3.125,27.375 3,27 3,26.5 m 4,5.125 V 32 32.125 32.25 32 q 0,-0.25 0,-0.5 v -0.25 0.375 M 9.625,32 H 10 10.125 10.25 10 Q 9.75,32 9.5,32 H 9.25 9.625 M 3,25.875 V 26 26.375 26.75 26.5 Q 3,26.25 3,26 v -0.25 0.125 m 14.125,-2.25 q 0.125,-0.375 0.5,-0.5 Q 18,23 18.5,23 H 19 v 0.5 q 0,0.5 0,1 0,0.5 0.125,0.875 0.125,0.375 0.5,0.5 Q 20,26 20.5,26 q 0.5,0 1,0 0.5,0 1,0 0.5,0 1,0 0.5,0 1,0 0.5,0 1,0 0.5,0 1,0 0.5,0 1,0 0.5,0 1,0 0.5,0 1,0 0.5,0 1,0 0.5,0 1,0 0.5,0 1.0625,-0.0625 L 33.125,25.875 33.0625,25.8125 33,25.75 33.125,25.875 Q 33.25,26 33.5,26 H 33.75 33.375 33 33.5 q 0.5,0 0.875,0.125 0.375,0.125 0.5,0.5 0.125,0.375 0,0.75 -0.125,0.375 -0.5,0.5 Q 34,28 33.625,28.125 33.25,28.25 33.125,28.625 33,29 32.875,29.375 32.75,29.75 32.375,29.875 32,30 31.5,30 q -0.5,0 -1,0 -0.5,0 -1,0 -0.5,0 -1,0 H 28 28.375 28.75 28.5 q -0.25,0 -0.375,0.125 L 28,30.25 28.0625,30.1875 28.125,30.125 27.5625,30.0625 Q 27,30 26.5,30 q -0.5,0 -1,0 -0.5,0 -1,0 -0.5,0 -1,0 -0.5,0 -1,0 -0.5,0 -1,0 -0.5,0 -1,0 -0.5,0 -1,0 Q 19,30 19,29.5 19,29 18.875,28.625 18.75,28.25 18.375,28.125 18,28 17.5,28 q -0.5,0 -1,0 -0.5,0 -1,0 -0.5,0 -1,0 -0.5,0 -0.5,-0.5 0,-0.5 0,-1 0,-0.5 0.5,-0.5 0.5,0 1,0 0.5,0 0.875,-0.125 0.375,-0.125 0.5,-0.5 Q 17,25 17,24.5 17,24 17.125,23.625 M 23,16.5 V 16 h 0.5 q 0.5,0 1,0 0.5,0 0.875,0.125 0.375,0.125 0.5,0.5 Q 26,17 26,17.5 q 0,0.5 0,1 0,0.5 0,1 0,0.5 0,1 0,0.5 -0.5,0.5 -0.5,0 -1,0 -0.5,0 -0.875,-0.125 -0.375,-0.125 -0.5,-0.5 Q 23,20 23,19.5 q 0,-0.5 0,-1 0,-0.5 0,-1 0,-0.5 0,-1 m -3.875,0.125 q 0.125,-0.375 0.5,-0.5 Q 20,16 20.5,16 H 21 v 0.5 q 0,0.5 0,1 0,0.5 0,1 0,0.5 0,1 0,0.5 0,1 0,0.5 -0.5,0.5 -0.5,0 -1,0 H 19 v -0.5 q 0,-0.5 0,-1 0,-0.5 0,-1 0,-0.5 0,-1 0,-0.5 0.125,-0.875 m -2,-9 Q 17.25,7.25 17.625,7.125 18,7 18.5,7 q 0.5,0 1,0 0.5,0 1,0 0.5,0 1,0 0.5,0 1,0 0.5,0 1,0 0.5,0 1,0 0.5,0 1,0 H 26 25.625 25.25 25.5 q 0.25,0 0.375,-0.125 L 26,6.75 25.9375,6.8125 25.875,6.875 26.4375,6.9375 Q 27,7 27.5,7 28,7 28.5,7 29,7 29.5625,6.9375 L 30.125,6.875 30.0625,6.8125 30,6.75 30.125,6.875 Q 30.25,7 30.5,7 H 30.75 30.375 30 30.5 q 0.5,0 1,0 0.5,0 0.875,0.125 0.375,0.125 0.5,0.5 Q 33,8 33.125,8.375 33.25,8.75 33.625,8.875 34,9 34.375,9.125 34.75,9.25 34.875,9.625 35,10 35,10.5 q 0,0.5 0,1 0,0.5 0,1 0,0.5 -0.125,0.875 -0.125,0.375 -0.5,0.5 Q 34,14 33.625,14.125 33.25,14.25 33.125,14.625 33,15 32.875,15.375 32.75,15.75 32.375,15.875 32,16 31.5,16 q -0.5,0 -1,0 -0.5,0 -1,0 -0.5,0 -0.875,-0.125 -0.375,-0.125 -0.5,-0.5 Q 28,15 27.875,14.625 27.75,14.25 27.375,14.125 27,14 26.5,14 q -0.5,0 -1,0 -0.5,0 -1,0 -0.5,0 -1,0 -0.5,0 -1,0 -0.5,0 -1,0 -0.5,0 -1,0 -0.5,0 -1,0 -0.5,0 -1,0 -0.5,0 -1,0 -0.5,0 -1,0 -0.5,0 -1,0 -0.5,0 -0.875,0.125 -0.375,0.125 -0.5,0.5 Q 14,15 13.875,15.375 13.75,15.75 13.375,15.875 13,16 12.625,16.125 12.25,16.25 12.125,16.625 12,17 12,17.5 q 0,0.5 0,1 0,0.5 0,1 0,0.5 0.125,0.875 0.125,0.375 0.5,0.5 Q 13,21 13.5,21 q 0.5,0 0.5,0.5 0,0.5 -0.125,0.875 -0.125,0.375 -0.5,0.5 Q 13,23 12.625,23.125 12.25,23.25 12.125,23.625 12,24 12,24.5 12,25 12,25.5 12,26 11.5,26 11,26 10.625,25.875 10.25,25.75 10.125,25.375 10,25 10,24.5 10,24 9.875,23.625 9.75,23.25 9.375,23.125 9,23 8.5,23 8,23 7.625,22.875 7.25,22.75 7.125,22.375 7,22 7,21.5 7,21 7,20.5 7,20 7,19.5 7,19 7,18.5 7,18 7,17.5 7,17 7,16.5 V 16 16.375 16.75 16.5 Q 7,16.25 6.875,16.125 L 6.75,16 6.8125,16.0625 6.875,16.125 7.4375,16.0625 Q 8,16 8.5,16 9,16 9.375,15.875 9.75,15.75 9.875,15.375 10,15 10,14.5 q 0,-0.5 0,-1 0,-0.5 0.125,-0.875 0.125,-0.375 0.5,-0.5 Q 11,12 11.375,11.875 11.75,11.75 11.875,11.375 12,11 12,10.5 12,10 12.125,9.625 12.25,9.25 12.625,9.125 13,9 13.5,9 q 0.5,0 1,0 0.5,0 1,0 0.5,0 0.875,-0.125 0.375,-0.125 0.5,-0.5 Q 17,8 17.125,7.625"
         inkscape:connector-curvature="0" />
      <path
         id="path6553"
         style="fill:#8f581f;fill-opacity:1"
         d="M 33,53.5 V 53 h 0.5 q 0.5,0 0.875,0.125 0.375,0.125 0.5,0.5 Q 35,54 35,54.5 q 0,0.5 -0.125,0.875 -0.125,0.375 -0.5,0.5 Q 34,56 33.625,56.125 33.25,56.25 33.125,56.625 33,57 32.875,57.375 32.75,57.75 32.375,57.875 32,58 31.5,58 q -0.5,0 -1,0 -0.5,0 -1,0 -0.5,0 -0.875,0.125 -0.375,0.125 -0.5,0.5 -0.125,0.375 -0.25,0.75 -0.125,0.375 -0.5,0.5 -0.375,0.125 -0.75,0 -0.375,-0.125 -0.5,-0.5 Q 26,59 26,58.5 q 0,-0.5 0,-1 0,-0.5 0,-1 V 56 h 0.5 q 0.5,0 1,0 0.5,0 1,0 0.5,0 1.0625,-0.0625 L 30.125,55.875 30.0625,55.8125 30,55.75 30.125,55.875 Q 30.25,56 30.5,56 H 30.75 30.375 30 30.5 q 0.5,0 1,0 0.5,0 0.875,-0.125 0.375,-0.125 0.5,-0.5 Q 33,55 33,54.5 33,54 33,53.5 M 26.375,56 H 26 25.875 25.75 26 q 0.25,0 0.5,0 h 0.25 -0.375 M 5,53.5 V 53 h 0.5 q 0.5,0 0.875,0.125 0.375,0.125 0.5,0.5 Q 7,54 7,54.5 7,55 7.125,55.375 7.25,55.75 7.625,55.875 8,56 8.5,56 q 0.5,0 0.875,0.125 0.375,0.125 0.5,0.5 0.125,0.375 0.25,0.75 0.125,0.375 0.5,0.5 Q 11,58 11.5,58 q 0.5,0 1,0 0.5,0 1,0 H 14 v 0.5 q 0,0.5 0.0625,1.0625 L 14.125,60.125 14.1875,60.0625 14.25,60 14.125,60.125 Q 14,60.25 14,60.5 V 60.75 60.375 60 60.5 q 0,0.5 0,1 0,0.5 0,1 V 63 62.625 62.25 62.5 q 0,0.25 0.125,0.375 L 14.25,63 14.1875,62.9375 14.125,62.875 13.5625,62.9375 Q 13,63 12.5,63 q -0.5,0 -1,0 -0.5,0 -1,0 -0.5,0 -1,0 Q 9,63 8.5,63 8,63 7.625,62.875 7.25,62.75 7.125,62.375 7,62 7,61.5 7,61 6.875,60.625 6.75,60.25 6.375,60.125 6,60 5.625,59.875 5.25,59.75 5.125,59.375 5,59 5,58.5 5,58 5,57.5 5,57 5,56.5 5,56 5,55.5 5,55 5,54.5 5,54 5,53.5 M 14.125,58 H 14 13.625 13.25 13.5 q 0.25,0 0.5,0 h 0.25 -0.125 M 28,37.5 V 37 h 0.5 q 0.5,0 1,0 0.5,0 1,0 0.5,0 1,0 0.5,0 0.875,0.125 0.375,0.125 0.5,0.5 0.125,0.375 0.25,0.75 0.125,0.375 0.5,0.5 0.375,0.125 0.75,0.25 0.375,0.125 0.5,0.5 Q 35,40 35,40.5 q 0,0.5 0,1 0,0.5 0,1 0,0.5 -0.125,0.875 -0.125,0.375 -0.5,0.5 Q 34,44 33.5,44 H 33 33.375 33.75 33.5 q -0.25,0 -0.375,0.125 L 33,44.25 33.0625,44.1875 33.125,44.125 32.5625,44.0625 Q 32,44 31.5,44 31,44 30.5,44 H 30 v -0.5 q 0,-0.5 0.125,-0.875 0.125,-0.375 0.5,-0.5 Q 31,42 31.5,42 q 0.5,0 0.875,-0.125 0.375,-0.125 0.5,-0.5 Q 33,41 33,40.5 33,40 32.875,39.625 32.75,39.25 32.375,39.125 32,39 31.5,39 q -0.5,0 -1,0 -0.5,0 -1,0 -0.5,0 -1,0 H 28 v -0.5 q 0,-0.5 0,-1 m 2,6.125 V 44 44.125 44.25 44 q 0,-0.25 0,-0.5 v -0.25 0.375 M 12,35.5 V 35 h 0.5 q 0.5,0 1,0 0.5,0 1,0 0.5,0 1,0 0.5,0 1,0 0.5,0 1,0 0.5,0 1,0 H 19 v 0.5 q 0,0.5 0.125,0.875 0.125,0.375 0.5,0.5 Q 20,37 20.5,37 H 21 v 0.5 q 0,0.5 0.125,0.875 0.125,0.375 0.5,0.5 0.375,0.125 0.75,0.25 0.375,0.125 0.5,0.5 Q 23,40 23,40.5 q 0,0.5 0,1 0,0.5 0,1 0,0.5 0,1 V 44 h -0.5 q -0.5,0 -0.875,0.125 -0.375,0.125 -0.5,0.5 Q 21,45 21,45.5 V 46 h -0.5 q -0.5,0 -0.875,0.125 -0.375,0.125 -0.5,0.5 Q 19,47 19,47.5 q 0,0.5 -0.125,0.875 -0.125,0.375 -0.5,0.5 Q 18,49 17.5,49 q -0.5,0 -1,0 -0.5,0 -1,0 -0.5,0 -1,0 -0.5,0 -1,0 -0.5,0 -0.875,-0.125 -0.375,-0.125 -0.5,-0.5 Q 12,48 12,47.5 12,47 11.875,46.625 11.75,46.25 11.375,46.125 11,46 10.5,46 H 10 V 45.5 Q 10,45 9.875,44.625 9.75,44.25 9.375,44.125 9,44 8.5,44 8,44 7.5,44 H 7 V 43.5 Q 7,43 7,42.5 7,42 7,41.5 7,41 7,40.5 7,40 7,39.5 V 39 h 0.5 q 0.5,0 1,0 0.5,0 0.875,-0.125 0.375,-0.125 0.5,-0.5 Q 10,38 10.125,37.625 10.25,37.25 10.625,37.125 11,37 11.375,36.875 11.75,36.75 11.875,36.375 12,36 12,35.5 M 7.375,39 H 7 6.875 6.75 7 q 0.25,0 0.5,0 H 7.75 7.375 m -0.5,5 H 7 7.375 7.75 7.5 Q 7.25,44 7,44 H 6.75 6.875 m 3,2 H 10 10.375 10.75 10.5 Q 10.25,46 10,46 H 9.75 9.875 m 7.625,0 q 0.5,0 0.875,-0.125 0.375,-0.125 0.5,-0.5 Q 19,45 19.125,44.625 19.25,44.25 19.625,44.125 20,44 20.375,43.875 20.75,43.75 20.875,43.375 21,43 21,42.5 q 0,-0.5 0,-1 0,-0.5 0,-1 0,-0.5 -0.125,-0.875 -0.125,-0.375 -0.5,-0.5 Q 20,39 19.5,39 19,39 18.5,39 18,39 17.625,38.875 17.25,38.75 17.125,38.375 17,38 16.875,37.625 16.75,37.25 16.375,37.125 16,37 15.5,37 q -0.5,0 -1,0 -0.5,0 -1,0 -0.5,0 -0.875,0.125 -0.375,0.125 -0.5,0.5 Q 12,38 11.875,38.375 11.75,38.75 11.375,38.875 11,39 10.625,39.125 10.25,39.25 10.125,39.625 10,40 10,40.5 q 0,0.5 0,1 0,0.5 0,1 0,0.5 0.125,0.875 0.125,0.375 0.5,0.5 0.375,0.125 0.75,0.25 0.375,0.125 0.5,0.5 0.125,0.375 0.25,0.75 0.125,0.375 0.5,0.5 Q 13,46 13.5,46 q 0.5,0 1,0 0.5,0 1,0 0.5,0 1,0 0.5,0 1,0 m 3.125,0 H 21 21.125 21.25 21 q -0.25,0 -0.5,0 h -0.25 0.375 M 23,44.125 V 44 43.625 43.25 43.5 q 0,0.25 0,0.5 v 0.25 -0.125 M 21.125,37 H 21 20.625 20.25 20.5 q 0.25,0 0.5,0 h 0.25 -0.125 m -2,-2 H 19 18.625 18.25 18.5 q 0.25,0 0.5,0 h 0.25 -0.125 M 26,30.5 V 30 h 0.5 q 0.5,0 1.0625,0.0625 L 28.125,30.125 28.1875,30.0625 28.25,30 28.125,30.125 Q 28,30.25 28,30.5 V 30.75 30.375 30 30.5 q 0,0.5 -0.125,0.875 -0.125,0.375 -0.5,0.5 Q 27,32 26.625,32.125 26.25,32.25 26.125,32.625 26,33 26,33.5 q 0,0.5 0,1 V 35 h -0.5 q -0.5,0 -1,0 -0.5,0 -1,0 -0.5,0 -1,0 -0.5,0 -1,0 H 21 v -0.5 q 0,-0.5 0,-1 0,-0.5 0,-1 V 32 h 0.5 q 0.5,0 1,0 0.5,0 1,0 0.5,0 1,0 0.5,0 0.875,-0.125 0.375,-0.125 0.5,-0.5 Q 26,31 26,30.5 M 21.375,32 H 21 20.875 20.75 21 q 0.25,0 0.5,0 h 0.25 -0.375 m -0.5,3 H 21 21.375 21.75 21.5 q -0.25,0 -0.5,0 h -0.25 0.125 m 5.5,-5 H 26 25.875 25.75 26 q 0.25,0 0.5,0 h 0.25 -0.375 M 10,30.5 V 30 h 0.5 q 0.5,0 0.875,0.125 0.375,0.125 0.5,0.5 Q 12,31 12,31.5 V 32 h -0.5 q -0.5,0 -1,0 H 10 v -0.5 q 0,-0.5 0,-1 M 9.875,32 H 10 10.375 10.75 10.5 Q 10.25,32 10,32 H 9.75 9.875 M 10,29.875 V 30 30.375 30.75 30.5 q 0,-0.25 0,-0.5 v -0.25 0.125 M 19,23.5 V 23 h 0.5 q 0.5,0 0.875,0.125 0.375,0.125 0.5,0.5 Q 21,24 21,24.5 q 0,0.5 0,1 V 26 H 20.5 Q 20,26 19.625,25.875 19.25,25.75 19.125,25.375 19,25 19,24.5 19,24 19,23.5 M 20.625,26 H 21 21.125 21.25 21 q -0.25,0 -0.5,0 h -0.25 0.375 M 30,19.5 q 0,-0.5 0.5,-0.5 0.5,0 1,0 0.5,0 0.875,0.125 0.375,0.125 0.5,0.5 Q 33,20 33,20.5 q 0,0.5 0,1 0,0.5 0,1 0,0.5 0,1 0,0.5 0,1 0,0.5 0,1 V 26 25.625 25.25 25.5 q 0,0.25 0.125,0.375 L 33.25,26 33.1875,25.9375 33.125,25.875 32.5625,25.9375 Q 32,26 31.5,26 31,26 30.5,26 H 30 v -0.5 q 0,-0.5 0,-1 0,-0.5 0,-1 0,-0.5 0,-1 0,-0.5 0,-1 0,-0.5 0,-1 0,-0.5 0,-1 M 29.875,26 H 30 30.375 30.75 30.5 q -0.25,0 -0.5,0 h -0.25 0.125 M 3.125,19.625 Q 3.25,19.25 3.625,19.125 4,19 4.5,19 H 5 v 0.5 q 0,0.5 0,1 0,0.5 0,1 0,0.5 -0.125,0.875 -0.125,0.375 -0.5,0.5 Q 4,23 3.625,22.875 3.25,22.75 3.125,22.375 3,22 3,21.5 3,21 3,20.5 3,20 3.125,19.625 M 5,19.375 V 19 18.875 18.75 19 q 0,0.25 0,0.5 v 0.25 -0.375"
         inkscape:connector-curvature="0" />
      <path
         id="path6557"
         style="fill:#ffd870;fill-opacity:1"
         d="m 14,60.5 q 0,-0.5 0.5,-0.5 0.5,0 1,0 0.5,0 0.875,0.125 0.375,0.125 0.5,0.5 Q 17,61 17,61.5 q 0,0.5 -0.125,0.875 -0.125,0.375 -0.5,0.5 Q 16,63 15.5,63 15,63 14.5,63 14,63 14,62.5 q 0,-0.5 0,-1 0,-0.5 0,-1 m 16.125,-6.875 q 0.125,-0.375 0.5,-0.5 Q 31,53 31.5,53 q 0.5,0 1,0 H 33 v 0.5 q 0,0.5 0,1 0,0.5 -0.125,0.875 -0.125,0.375 -0.5,0.5 Q 32,56 31.5,56 31,56 30.5,56 30,56 30,55.5 30,55 30,54.5 30,54 30.125,53.625 M 21,2.5 V 2 h 0.5 q 0.5,0 1,0 H 23 v 0.5 q 0,0.5 0,1 0,0.5 0,1 0,0.5 0,1 0,0.5 0,1 V 7 H 22.5 Q 22,7 21.5,7 H 21 V 6.5 Q 21,6 21,5.5 21,5 21,4.5 21,4 21,3.5 21,3 21,2.5 M 20.875,7 H 21 21.375 21.75 21.5 Q 21.25,7 21,7 h -0.25 0.125 m 1.75,0 H 23 23.125 23.25 23 q -0.25,0 -0.5,0 h -0.25 0.375 m 0.5,-5 H 23 22.625 22.25 22.5 q 0.25,0 0.5,0 h 0.25 -0.125 m -1.75,0 H 21 20.875 20.75 21 q 0.25,0 0.5,0 h 0.25 -0.375"
         inkscape:connector-curvature="0" />
    </g>
  </g>
</svg>
