<?xml version="1.0" encoding="UTF-8" standalone="no"?>
<svg
   xmlns:dc="http://purl.org/dc/elements/1.1/"
   xmlns:cc="http://creativecommons.org/ns#"
   xmlns:rdf="http://www.w3.org/1999/02/22-rdf-syntax-ns#"
   xmlns:svg="http://www.w3.org/2000/svg"
   xmlns="http://www.w3.org/2000/svg"
   viewBox="0 0 257 198.51495"
   height="198.51495"
   width="257"
   id="svg10"
   version="1.1">
  <metadata
     id="metadata16">
    <rdf:RDF>
      <cc:Work
         rdf:about="">
        <dc:format>image/svg+xml</dc:format>
        <dc:type
           rdf:resource="http://purl.org/dc/dcmitype/StillImage" />
        <dc:title></dc:title>
      </cc:Work>
    </rdf:RDF>
  </metadata>
  <defs
     id="defs14" />
  <g
     transform="translate(0.5,-25)"
     id="g20">
    <path
       id="path56"
       d="M 128,223.51496 H -0.5 l 64.25,-0.26483 64.25,-0.26483 64.25,0.26483 64.25,0.26483 z M 128,195 H 4 V 111 27 h 124 124 v 84 84 z m 89.45499,-3 H 231.6 l 1.2,-1.2 1.2,-1.2 v -2.24098 -2.24099 L 233,184.5 232,183.88197 V 181.14098 178.4 l -1.2,-1.2 -1.2,-1.2 H 216 202.4 l -1.2,1.2 -1.2,1.2 v 4.97126 4.97126 l 1.65499,1.82874 L 203.30998,192 Z M 92,191 h 81.6 l 1.2,-1.2 1.2,-1.2 V 171 153.4 l -1.2,-1.2 -1.2,-1.2 H 92 10.4 l -1.2,1.2 -1.2,1.2 v 17.6 17.6 l 1.2,1.2 1.2,1.2 z m 124,-24 h 32 v -4.5 -4.5 h -32 -32 v 4.5 4.5 z m -27.31854,-10 h 0.43657 l -0.61803,-1 -0.61803,-1 1.80901,-0.116 1.80902,-0.116 -1.76224,-0.45968 -1.76225,-0.45968 0.70421,-1.17432 0.7042,-1.17432 -1.70429,1.38268 -1.70429,1.38268 1.13477,1.36732 L 188.24489,157 Z M 204.75,156.92971 207,157 v -1.5 -1.5 l -1.75,-0.0703 -1.75,-0.0703 2,-0.85943 2,-0.85943 -2.25,-0.0703 L 203,152 v 1.5 1.5 l 1.75,0.0703 1.75,0.0703 -2,0.85943 -2,0.85943 2.25,0.0703 z M 210,157 h 2 v -0.96862 -0.96861 l -1.5,0.5756 -1.5,0.57561 V 154.5 152.78602 l 1.5,0.57561 1.5,0.5756 V 152.96862 152 h -2 -2 v 2.5 2.5 z m 4.01531,-1 0.98469,-1.5 0.875,1.35676 0.875,1.35677 V 154.60676 152 H 214.875 213 l 0.0153,2.75 0.0153,2.75 0.98468,-1.5 z M 215,154 h -1.33333 l 0.66666,-0.66667 0.66667,-0.66666 0.66667,0.66666 0.66666,0.66667 z m 5,3 h 2 v -2.5 -2.5 h -2 -2 v 2.5 2.5 z m 0,-1 h -1 v -1.5 -1.5 h 1 1 v 1.5 1.5 z m 4.75,0.98469 1.75,-0.0153 -1.13432,-0.73468 -1.13432,-0.73469 -0.49968,-2 -0.49968,-2 -0.116,2.75 -0.116,2.75 1.75,-0.0153 z m 4,0 1.75,-0.0153 -1.13432,-0.73468 -1.13432,-0.73469 -0.49968,-2 -0.49968,-2 -0.116,2.75 -0.116,2.75 1.75,-0.0153 z m 14.56854,0.0153 h 0.43657 l 1.13478,-1.36732 1.13477,-1.36732 -1.70429,-1.38268 -1.70429,-1.38268 0.75098,1.25 0.75097,1.25 -1.80901,0.116 -1.80902,0.116 1.76224,0.45968 1.76225,0.45968 -0.57126,0.92432 -0.57126,0.92432 z m -49.90187,-2.07895 1.91666,0.0789 -0.60416,-0.60417 -0.60417,-0.60416 -1.3125,0.52522 -1.3125,0.52522 1.91667,0.0789 z m 4,0 1.91666,0.0789 -0.60416,-0.60417 -0.60417,-0.60416 -1.3125,0.52522 -1.3125,0.52522 1.91667,0.0789 z m 37,0 1.91666,0.0789 -0.60416,-0.60417 -0.60417,-0.60416 -1.3125,0.52522 -1.3125,0.52522 1.91667,0.0789 z m 4,0 1.91666,0.0789 -0.60416,-0.60417 -0.60417,-0.60416 -1.3125,0.52522 -1.3125,0.52522 1.91667,0.0789 z M 128,149 H 248 V 95 41 H 128 8 v 54 54 z"
       style="display:inline;fill:#efefef" />
    <path
       id="path54"
       d="M 13.5,223 H 0 V 211.5 200 H 13.5 27 v 11.5 11.5 z m 2.5,-2 h 8 V 211 201 H 16 8 v 10 10 z m 234.5,2 H 245 V 211.5 200 h 5.5 5.5 v 11.5 11.5 z"
       style="display:inline;fill:#f7aff7" />
    <path
       id="path52"
       d="M 136,223 H 31 V 211.5 200 H 136 241 V 211.5 223 Z M 48.5,221 H 57 v -8.07143 -8.07143 L 55.571429,203.42857 54.142857,202 H 47.071429 40 v 9.5 9.5 z M 145.75,220.962 153,221 v -8.07143 -8.07143 L 151.57143,203.42857 150.14286,202 H 143.07143 136 v 8.04221 8.0422 l 1.25,1.41976 1.25,1.41976 7.25,0.038 z m 24,0 L 177,221 v -8.07143 -8.07143 L 175.57143,203.42857 174.14286,202 H 167.07143 160 v 8.04221 8.0422 l 1.25,1.41976 1.25,1.41976 7.25,0.038 z m 24,0 L 201,221 v -8.07143 -8.07143 L 199.57143,203.42857 198.14286,202 H 191.07143 184 v 8.04221 8.0422 l 1.25,1.41976 1.25,1.41976 7.25,0.038 z m -96,-1 L 112,220 v -7.07143 -7.07143 L 110.57143,204.42857 109.14286,203 H 102.57143 96 l -0.07895,1.25 -0.07895,1.25 -0.504386,-1.25 L 94.833333,203 H 87.916667 81 v 7.04221 7.0422 l 1.25,1.41976 1.25,1.41976 14.25,0.038 z m 127.5,0 L 232,220 v -7.07143 -7.07143 L 230.57143,204.42857 229.14286,203 H 222.57143 216 v 7.04221 7.0422 l 1.25,1.41976 1.25,1.41976 6.75,0.038 z M 231.37756,192 H 231 v -0.37756 -0.37755 l 1.75,-1.37245 1.75,-1.37244 -1.37244,1.75 -1.37245,1.75 z m -29.72656,-4.75 -0.51567,1.25 0.57598,-3.5 0.57597,-3.5 0.35636,-0.41667 L 203,180.66667 V 182.83333 185 h 2 2 v -0.96862 -0.96861 l -1.5,0.5756 -1.5,0.57561 V 182.60699 181 h 2 2 v 2 2 l 2.25,-0.116 2.25,-0.116 -1.75,-0.45733 -1.75,-0.45732 V 182.42668 181 h 2 2 v 2 2 l 2.25,-0.116 2.25,-0.116 -1.75,-0.45733 -1.75,-0.45732 v -0.81969 -0.81968 l 1.58179,-0.60699 L 217.16357,181 H 217.58179 218 l 0.116,2.25 0.116,2.25 0.45733,-1.75 0.45732,-1.75 H 220.57332 222 l 0.0997,1.75 0.0997,1.75 0.8006,-2.5 0.80064,-2.5 0.21568,2.5 0.21568,2.5 0.45733,-1.75 0.45732,-1.75 h 0.87698 0.87699 l 1.09744,1.75 1.09744,1.75 -0.61514,-2.25 -0.61514,-2.25 H 229.43261 231 v 1.3 1.3 l -1.2,1.2 -1.2,1.2 H 215.38333 202.16667 Z M 202.5,180 H 202 v -0.5 -0.5 h 0.5 0.5 v 0.5 0.5 z m 2.5,0 h -1.33333 l 0.66666,-0.66667 0.66667,-0.66666 0.66667,0.66666 0.66666,0.66667 z m 2.5,0 H 207 v -0.5 -0.5 h 0.5 0.5 v 0.5 0.5 z m 3.5,-0.15789 h -2.5 l 1.25,-0.50439 1.25,-0.50439 1.25,0.50439 1.25,0.50439 z m 5,0 h -2.5 l 1.25,-0.50439 1.25,-0.50439 1.25,0.50439 1.25,0.50439 z m 4.41667,0.0789 -1.91667,-0.0789 1.3125,-0.52522 1.3125,-0.52522 0.60417,0.60416 0.60416,0.60417 -1.91666,-0.0789 z M 223.5,180 H 223 v -0.5 -0.5 h 0.5 0.5 v 0.5 0.5 z m 2.91667,-0.0789 -1.91667,-0.0789 1.3125,-0.52522 1.3125,-0.52522 0.60417,0.60416 0.60416,0.60417 -1.91666,-0.0789 z M 230,180 h -1.33333 l 0.66666,-0.66667 0.66667,-0.66666 0.66667,0.66666 0.66666,0.66667 z"
       style="display:inline;fill:#f5e7b7" />
    <path
       id="path48"
       d="M 11.218615,188.00072 10.93723,188 10.442157,186.70986 9.9470829,185.41972 10.223541,169.45986 10.5,153.5 h 81 81 v 1.25 1.25 l -1,-0.25 -1,-0.25 0.252,-0.75599 0.25199,-0.75598 -79.751995,0.25598 L 11.5,154.5 v 16.75072 16.75072 z M 171.5,156 h 0.5 v -0.5 -0.5 h -0.5 -0.5 v 0.5 0.5 z m 0.33333,31.33333 L 171.5,187.5 92.543894,187.24389 13.587788,186.98779 12.843892,186.24389 12.099995,185.5 92.049998,185.73802 172,185.97603 l 0.0833,0.59532 0.0833,0.59532 -0.33334,0.16666 z M 171.5,187 h 0.5 v -0.5 -0.5 h -0.5 -0.5 v 0.5 0.5 z M 92,184 H 15 v -13 -13 h 77 77 v 13 13 z m 0,-1 h 76 V 171 159 H 92 16 v 12 12 z M 12.381966,157 h -0.5 L 12.5,156 l 0.618034,-1 h 0.5 0.5 L 13.5,156 l -0.618034,1 z"
       style="display:inline;fill:#cfcfcf" />
    <path
       id="path46"
       d="M 30,223 H 29 V 211.5 200 h 1 1 v 11.5 11.5 z m 212,0 h -1 V 211.5 200 h 1 1 v 11.5 11.5 z"
       style="display:inline;fill:#f7bf8f" />
    <path
       id="path42"
       d="M 92,183 H 16 v -12 -12 h 76 76 v 7.50847 7.50848 l -1.9188,-1.19831 -1.9188,-1.19831 -1.5812,1.31228 -1.5812,1.31228 v 1.25511 1.25511 l 1.5812,1.31228 1.5812,1.31228 1.9188,-1.19831 L 168,176.98305 V 179.99153 183 Z m 15.80086,-4.20711 1.48477,-0.29289 1.09024,-1.73124 1.09023,-1.73123 -1.65551,-1.65551 -1.65551,-1.65551 -1.60022,0.61406 -1.60022,0.61407 -0.5892,1.53541 -0.58919,1.53542 1.26991,1.53015 1.26992,1.53016 z M 136,177 h 20 v -1 -1 h -20 -20 v 1 1 z M 28,167 H 39 V 163.5 160 H 28 17 v 3.5 3.5 z m 32,0 H 71 V 163.5 160 H 60 49 v 3.5 3.5 z m 31.5,0 H 102 V 163.5 160 H 91.5 81 v 3.5 3.5 z m 44.5,0 h 14 v -3.5 -3.5 h -14 -14 v 3.5 3.5 z"
       style="display:inline;fill:#9fbfaf" />
    <path
       id="path40"
       d="M 47.5,217 H 43 v -4.5 -4.5 h 4.5 4.5 v 4.5 4.5 z m 0.25,-1.13618 2.75,-0.13618 -2.25,-0.43337 L 46,214.8609 V 213.93045 213 l 1.75,-0.116 1.75,-0.116 -1.75,-0.45733 -1.75,-0.45732 v -0.85712 -0.85713 l 2.25,-0.43337 2.25,-0.43337 -2.75,-0.13618 L 45,209 v 3.5 3.5 z M 222.44098,217 H 222 v -1 -1 h 1.05902 1.05901 l -0.61803,1 -0.61803,1 z M 220.5,216 H 220 v -0.5 -0.5 h 0.5 0.5 v 0.5 0.5 z m -1,-2 h -0.28993 l -0.36557,-3.83333 -0.36556,-3.83334 H 219.5 220.52106 L 220.1555,210.16667 219.78993,214 Z m 5.60699,0 h -0.89301 L 223.60699,212.41821 223,210.83643 v -0.97723 -0.97723 l 0.92851,0.57384 0.9285,0.57385 0.43531,-2.26483 0.43532,-2.26483 0.13618,4.25 L 226,214 Z M 185.5,213 H 185 v -0.5 -0.5 h 0.5 0.5 v 0.5 0.5 z m 10.71862,-0.14983 -0.71862,-0.14983 -2.95262,-0.43615 -2.95263,-0.43614 -1.14567,-1.5668 -1.14567,-1.5668 -1.15171,0.71179 L 185,210.11803 V 209.05902 208 h 1.49153 1.49152 l 1.24902,-2 1.24902,-2 h 1.214 1.214 l 2.48089,2.48089 2.48089,2.48089 -1.00361,0.62026 -1.00361,0.62026 0.53679,1.39885 0.53679,1.39885 z m -3.45825,-2.0448 1.5739,-0.30537 0.41602,-1.24947 0.41603,-1.24948 -1.65038,-0.63331 -1.65037,-0.63331 -1.04566,1.04566 -1.04565,1.04565 0.70611,1.1425 0.7061,1.1425 z m 34.9063,-4.1387 L 227,207.33333 V 206 204.66667 l 0.66667,0.66666 L 228.33333,206 Z M 90.966667,189 H 10.333333 L 9.6666667,188.33333 9,187.66667 V 171.03333 154.4 l 1.2,-1.2 1.2,-1.2 h 80.1 80.1 l 1.2,1.2 1.2,1.2 v 16.1 16.1 l -1.2,1.2 -1.2,1.2 z m 0.75422,-1.24408 L 172.5,187.5 v -17 -17 h -81 -81 l -0.276459,15.95986 -0.2764581,15.95986 0.4973461,1.29606 0.497346,1.29606 z M 13.416667,186.00085 13.333333,186 12.666667,185.33333 12,184.66667 V 171.03333 157.4 l 1.2,-1.2 1.2,-1.2 H 92 169.6 l 1.2,1.2 1.2,1.2 v 13.74098 13.74099 l -0.75,0.46471 -0.75,0.4647 V 171.15569 156.5 H 92 13.5 v 14.75085 14.75086 l -0.08333,-8.6e-4 z M 92.5,184.50925 l -77,0.009 76.721018,-0.26542 76.721022,-0.26542 0.32425,-12.99526 0.32426,-12.99526 -0.0453,13.25142 L 169.5,184.5 l -77,0.009 z"
       style="display:inline;fill:#a7a7a7" />
    <path
       id="path38"
       d="m 103,216 h -5 v -3.54384 -3.54383 l 1.75,0.29383 1.75,0.29384 -0.31286,-2.25 -0.31286,-2.25 H 104.43714 108 v 5.5 5.5 z m 3.15612,-1.63594 0.65612,-0.36605 -0.51981,-1.98776 -0.51981,-1.98776 -0.90262,0.55786 -0.90262,0.55785 0.67082,1.08541 0.67082,1.08541 -1.15451,-0.71353 L 103,211.88197 v 0.97568 0.97568 l 1.25,0.44839 1.25,0.44839 z M 100.31291,213 h 0.31291 l 2.93709,-3.25 2.93709,-3.25 -3.25,2.93709 -3.25,2.93709 V 212.68709 213 Z M 99.5,208 H 99.333333 L 98.666667,207.33333 98,206.66667 V 205.83333 205 h 0.833333 0.833334 v 1.5 1.5 z"
       style="display:inline;fill:#f7f700" />
    <path
       id="path34"
       d="m 28.737819,217.78919 -0.35965,5.71081 0.0036,-12 0.0036,-12 0.356055,6.28919 0.356055,6.28919 -0.35965,5.71081 z m 215.000001,0 -0.35965,5.71081 0.004,-12 0.004,-12 0.35605,6.28919 0.35606,6.28919 -0.35965,5.71081 z M 48.5,221 H 40 v -1 -1 h 7.5 7.5 v -7.5 -7.5 h 1 1 v 8.5 8.5 z m 97,0 H 138 v -1 -1 h 6.5 6.5 v -7.5 -7.5 h 1 1 v 8.5 8.5 z m 24,0 H 162 v -1 -1 h 6.5 6.5 v -7.5 -7.5 h 1 1 v 8.5 8.5 z m 24,0 H 186 v -1 -1 h 6.5 6.5 v -7.5 -7.5 h 1 1 v 8.5 8.5 z m -96,-1 H 83 v -1 -1 h 5.95431 5.95431 l 0.34983,-6.75 0.349829,-6.75 0.195861,6.75 L 96,218 h 7 7 v -6.5 -6.5 h 1 1 v 7.5 7.5 z m 127.5,0 h -7 v -1 -1 h 6 6 v -6.5 -6.5 h 1 1 v 7.5 7.5 z M 97.5,217 H 97 v -0.5 -0.5 h 0.5 0.5 v 0.5 0.5 z m 0,-12 H 97 v -0.5 -0.5 h 0.5 0.5 v 0.5 0.5 z m 11,0 H 108 v -0.5 -0.5 h 0.5 0.5 v 0.5 0.5 z"
       style="display:inline;fill:#d99b55" />
    <path
       id="path32"
       d="m 216.55,190.79195 -14.05,-0.20805 14.49216,-0.54195 14.49216,-0.54195 0.63952,-3 0.63953,-3 0.11832,2.55 0.11831,2.55 -1.2,1.2 -1.2,1.2 z M 215.5,189 H 203 v -1 -1 h 12.5 12.5 v 1 1 z M 200.63697,187.69636 200,188.33333 V 183.36667 178.4 l 1.2,-1.2 1.2,-1.2 14.05,0.20805 14.05,0.20805 -14.5,0.54195 -14.5,0.54195 -0.11303,4.7797 -0.11303,4.77969 z"
       style="display:inline;fill:#9f9f7f" />
    <path
       id="path28"
       d="M 139.16667,219 H 136 v -2.02305 -2.02306 l 2.75,1.7204 2.75,1.72039 0.41667,0.30266 0.41666,0.30266 z m 8.66666,0 h -3.16666 l 0.41666,-0.30266 0.41667,-0.30266 2.75,-1.72039 2.75,-1.7204 V 216.97695 219 Z M 167.5,219 H 160 v -8.5 -8.5 h 7.5 7.5 v 8.5 8.5 z m -0.5,-4.00993 h 0.5 l 3,-2.49126 3,-2.49127 -2.36078,-2.00377 L 168.77843,206 H 167 165.22157 l -2.36079,2.00377 -2.36078,2.00377 3,2.49127 3,2.49126 z M 191.5,219 H 184 l 0.0317,-3.25 0.0317,-3.25 2.05173,2.75 2.05172,2.75 h 3.33319 3.33319 l 2.05172,-2.75 2.05173,-2.75 0.0317,3.25 0.0317,3.25 h -7.5 z m -103.25,-2.18498 -5.75,-0.18498 5.201605,-0.3656 5.201606,-0.3656 0.35931,-5.69942 0.35931,-5.69942 0.189085,6.25 L 94,217 Z M 221.5,217 H 221 v -0.5 -0.5 h 0.5 0.5 v 0.5 0.5 z m 2.22257,0 h -1.03255 l 1.65499,-1.82874 L 226,213.34252 V 210.17126 207 h 0.7992 0.7992 l -0.41771,3.75 -0.4177,3.75 -1.00394,1.25 -1.00394,1.25 z M 219.5,215 H 219 v -0.5 -0.5 h 0.5 0.5 v 0.5 0.5 z M 136.86589,210.58288 136,211.11803 V 206.55902 202 h 7.5 7.5 v 4.55902 4.55901 l -0.86589,-0.53515 -0.86589,-0.53515 0.4463,-2.33468 0.44631,-2.33469 -1.59917,-1.32719 -1.59918,-1.32719 -1.78739,1.61757 -1.7874,1.61757 -1.64366,-1.64366 -1.64365,-1.64365 -1.6306,1.35327 -1.63061,1.35328 0.44631,2.33469 0.4463,2.33468 z M 186.45455,205.45455 184,207.90909 V 204.95455 202 h 7.5 7.5 v 2.95455 2.95454 L 196.54545,205.45455 194.09091,203 H 191.5 188.90909 Z M 218.5,208 H 218 v -0.5 -0.5 h 0.5 0.5 v 0.5 0.5 z m 1,-2 H 219 v -0.5 -0.5 h 0.5 0.5 v 0.5 0.5 z m 7,0 H 226 v -0.5 -0.5 h 0.5 0.5 v 0.5 0.5 z M 91.55,189.75603 10.5,189.51207 90.904748,189.25005 171.3095,188.98803 172.65475,187.87157 174,186.75511 V 170.57756 154.4 l -1.25,-1.40177 -1.25,-1.40177 1.75,1.32421 1.75,1.32422 V 170.92244 187.6 l -1.2,1.2 -1.2,1.2 z m 139.48695,-0.27886 -0.87571,0.54121 -1.47855,-1.47855 -1.47855,-1.47855 -12.85207,-0.31331 L 201.5,186.43466 216.14301,186.21733 230.78602,186 l 0.56332,1.46797 0.56331,1.46798 z M 230.5,189 h 0.5 v -0.5 -0.5 h -0.5 -0.5 v 0.5 0.5 z m -29,0 H 201 v -0.5 -0.5 h 0.5 0.5 v 0.5 0.5 z M 14.733707,171.00759 14.409449,184.00285 14.454724,170.75143 14.5,157.5 l 77.250058,-0.009 77.250062,-0.009 -76.97108,0.26548 -76.971076,0.26548 -0.324257,12.99526 z M 231.55902,179 h -0.44099 l -0.71352,-1.15451 -0.71353,-1.15451 1.15451,0.71353 L 232,178.11803 V 178.55902 179 Z"
       style="display:inline;fill:#777776" />
    <path
       id="path22"
       d="M 27.746768,211.75 27.430065,223.5 27.215033,211.77822 27,200.05644 13.25,199.74757 -0.5,199.43869 l 128.5,-0.0303 128.5,-0.0303 -5.71869,0.35988 -5.71869,0.35989 -0.31628,11.70103 L 244.43007,223.5 244.21503,211.75 244,200 H 136.03174 28.063471 Z M 16,221 H 8 v -10 -10 h 8 8 v 10 10 z m 0,-1 h 7 v -9 -9 H 16 9 v 9 9 z m 31.5,-1 H 40 v -8.5 -8.5 h 7.5 7.5 v 8.5 8.5 z m 0,-2 H 52 v -3.375 -3.375 L 51.375,207.125 50.75,204 H 47.5 44.25 L 43.625,207.125 43,210.25 v 3.375 3.375 z m 96,1.99252 h -1 l -3.25,-1.98156 -3.25,-1.98156 v -1.95568 -1.95569 l 0.86589,-0.53515 0.86589,-0.53515 -0.4463,-2.33468 -0.44631,-2.33469 1.59917,-1.32719 1.59918,-1.32719 1.78739,1.61757 1.7874,1.61757 1.64366,-1.64366 1.64365,-1.64365 1.6306,1.35327 1.63061,1.35328 -0.44631,2.33469 -0.4463,2.33468 0.86589,0.53515 0.86589,0.53515 v 1.95569 1.95568 l -3.25,1.98156 -3.25,1.98156 z m -0.20034,-1.03256 0.79966,0.04 2.95034,-1.52568 L 150,214.9486 v -1.9153 -1.91531 l -0.90612,-0.56001 -0.90612,-0.56001 0.41912,-1.74901 0.41913,-1.749 -0.9012,-1.37812 -0.9012,-1.37811 -1.11181,0.68713 -1.1118,0.68713 v 1.56343 1.56343 l 1.75,-1.37245 1.75,-1.37244 -1.38268,1.76233 -1.38268,1.76233 -1.19111,-0.98854 -1.19112,-0.98853 -1.01859,1.01859 -1.01858,1.01858 -1.40762,-1.79238 L 138.5,205.5 l 1.75,1.37244 1.75,1.37245 v -1.56343 -1.56343 l -1.1118,-0.68713 -1.11181,-0.68713 -0.9012,1.37811 -0.9012,1.37812 0.41913,1.749 0.41912,1.74901 -0.90612,0.56001 L 137,211.11803 v 1.90905 1.90905 l 2.75,1.4919 2.75,1.49189 0.79966,0.04 z m 0.11701,-2.03891 -1.91667,-0.0789 1.3125,-0.52522 1.3125,-0.52522 0.60417,0.60416 0.60416,0.60417 -1.91666,-0.0789 z M 142.5,211 H 142 v -0.5 -0.5 h 0.5 0.5 v 0.5 0.5 z m 2,0 H 144 v -0.5 -0.5 h 0.5 0.5 v 0.5 0.5 z M 88,218 h -7 v -7.5 -7.5 h 7 7 v 7.5 7.5 z m 0,-1 h 6 v -6.5 -6.5 h -6 -6 v 6.5 6.5 z M 91.15612,214.36406 90.5,214.73011 89.25,214.28172 88,213.83333 v -0.97568 -0.97568 l 1.154508,0.71352 1.154509,0.71353 -0.67082,-1.08541 -0.670821,-1.08541 0.902622,-0.55785 0.902622,-0.55786 0.51981,1.98776 0.51981,1.98776 z M 85.190464,213 H 84.755111 L 86,211.5 87.244889,210 85.372445,209.92105 83.5,209.84211 84.863153,209.3 86.226305,208.7579 84.863153,207.89426 83.5,207.03063 85,207 86.5,206.96937 85,206 83.5,205.03063 85.25,205.01531 87,205 v 2.65499 2.65499 l 2.25,-1.88936 2.25,-1.88935 -2.937091,3.23436 L 85.625818,213 Z M 103,218 h -7 v -7.5 -7.5 h 7 7 v 7.5 7.5 z m 0,-1 h 6 v -6.5 -6.5 h -6 -6 v 6.5 6.5 z m 3.15612,-2.63594 -0.65612,0.36605 -1.25,-0.44839 -1.25,-0.44839 v -0.97568 -0.97568 l 1.15451,0.71352 1.15451,0.71353 -0.67082,-1.08541 -0.67082,-1.08541 0.90262,-0.55785 0.90262,-0.55786 0.51981,1.98776 0.51981,1.98776 z M 100.31291,213 H 100 v -0.31291 -0.31291 l 3.25,-2.93709 3.25,-2.93709 -2.93709,3.25 -2.93709,3.25 z m 0.79546,-3.56698 -0.70386,0.43501 -1.452256,-0.89785 -1.452254,-0.89785 1.613125,-1.61358 1.613125,-1.61357 0.543,2.07641 0.54299,2.07642 z M 99.5,208 H 100 V 207.5 207 H 99.5 99 v 0.5 0.5 z m 92,10 h -3.36381 l -2.0681,-2.90437 L 184,212.19126 v -2.14109 -2.14108 l 2.45455,-2.45454 L 188.90909,203 h 2.59091 2.59091 l 2.45454,2.45455 2.45455,2.45454 v 2.14108 2.14109 l -2.06809,2.90437 -2.0681,2.90437 z m 0,-1 h 3.38197 l 0.67188,-1.08713 0.67189,-1.08713 -1.15451,-1.15451 -1.15451,-1.15451 -0.94305,1.49164 -0.94304,1.49164 -0.0943,-1.5 -0.0943,-1.5 -0.54211,1.36315 -0.5421,1.36316 -0.83731,-1.3548 -0.83731,-1.35479 -1.15451,1.15451 -1.15451,1.15451 0.67189,1.08713 0.67188,1.08713 h 3.38197 z m 0,-4.5 H 198 V 210.25 208 l -2,-2 -2,-2 h -2.5 -2.5 l -2,2 -2,2 v 2.25 2.25 z M 223,218 h -7 v -7.5 -7.5 h 7 7 v 7.5 7.5 z m 0,-1 h 1.6 l 1.2,-1.2 1.2,-1.2 v -2.7349 -2.7349 l 0.97525,-2.5651 L 228.9505,204 h -0.98882 -0.98882 l -1.98643,1.24055 L 223,206.48109 221.01357,205.24055 219.02714,204 h -0.98882 -0.98882 l 0.97525,2.5651 0.97525,2.5651 v 2.7349 2.7349 l 1.2,1.2 1.2,1.2 z m 0,-2 h -1.93723 l 0.5756,-1.5 0.57561,-1.5 H 223 h 0.78602 l 0.57561,1.5 0.5756,1.5 z m -1.5,-5 H 221 v -0.5 -0.5 h 0.5 0.5 v 0.5 0.5 z m 3,0 H 224 v -0.5 -0.5 h 0.5 0.5 v 0.5 0.5 z m -5,-3 H 219 v -0.5 -0.5 h 0.5 0.5 v 0.5 0.5 z m 7,0 H 226 v -0.5 -0.5 h 0.5 0.5 v 0.5 0.5 z m -59.5,7.99007 h -0.5 l -3,-2.49126 -3,-2.49127 2.36078,-2.00377 L 165.22157,206 H 167 h 1.77843 l 2.36079,2.00377 2.36078,2.00377 -3,2.49127 -3,2.49126 z M 167,214 h 0.88197 l 0.48559,-0.78571 0.4856,-0.78572 H 167 165.14684 l 0.4856,0.78572 0.48559,0.78571 z m 0,-2.46154 h 3.83279 L 170.35738,210.76923 169.88197,210 H 171 h 1.11803 l -0.66016,-1.06817 -0.66017,-1.06818 -1.45079,0.55672 -1.45079,0.55672 0.61096,-0.98854 L 169.11803,207 H 167 164.88197 l 0.61095,0.98855 0.61096,0.98854 -1.45079,-0.55672 -1.45079,-0.55672 -0.66017,1.06818 L 161.88197,210 H 163 h 1.11803 l -0.47541,0.76923 -0.47541,0.76923 z M 128,197 H 2 V 111 25 h 126 126 v 86 86 z m 0,-2 H 252 V 111 27 H 128 4 v 84 84 z M 92,191 H 10.4 L 9.2,189.8 8,188.6 V 171 153.4 l 1.2,-1.2 1.2,-1.2 H 92 173.6 l 1.2,1.2 1.2,1.2 v 17.6 17.6 l -1.2,1.2 -1.2,1.2 z m 0,-1 h 80.6 l 1.2,-1.2 1.2,-1.2 V 171 154.4 l -1.2,-1.2 -1.2,-1.2 H 92 11.4 l -1.2,1.2 -1.2,1.2 v 16.6 16.6 l 1.2,1.2 1.2,1.2 z m 0.220957,-4.2439 -78.279044,0.2561 -0.501371,-1.30655 L 12.93917,183.3991 13.219585,169.94955 13.5,156.5 H 92 170.5 v 14.5 14.5 z m 2.9e-5,-0.99992 L 169.5,184.5 V 171 157.5 H 92 14.5 l -0.28234,12.44453 -0.28234,12.44453 0.503325,1.31165 0.503326,1.31164 z m 15.579874,-5.96329 -1.48478,0.29289 -1.26992,-1.53016 -1.26991,-1.53015 0.58919,-1.53542 0.5892,-1.53541 1.60022,-0.61407 1.60022,-0.61406 1.65551,1.65551 1.65551,1.65551 -1.09023,1.73123 -1.09024,1.73124 z m -0.0654,-0.98047 1.74154,-0.33539 0.33539,-1.74154 0.33539,-1.74154 -1.64112,-0.62976 -1.64112,-0.62976 L 105.8,173.8 l -1.06557,1.06557 0.62976,1.64112 0.62976,1.64112 1.74154,-0.33539 z m -0.31882,-1.89137 -1.91667,-0.0789 1.3125,-0.52522 1.3125,-0.52522 0.60417,0.60416 0.60416,0.60417 -1.91666,-0.0789 z m 57.38419,2.87184 -1.48478,0.29289 -1.26992,-1.53016 -1.26991,-1.53015 0.58919,-1.53542 0.5892,-1.53541 1.60022,-0.61407 1.60022,-0.61406 1.65551,1.65551 1.65551,1.65551 -1.09023,1.73123 -1.09024,1.73124 z m -0.0654,-0.98047 1.74154,-0.33539 0.33539,-1.74154 0.33539,-1.74154 -1.64112,-0.62976 -1.64112,-0.62976 L 162.8,173.8 l -1.06557,1.06557 0.62976,1.64112 0.62976,1.64112 1.74154,-0.33539 z m 0.34992,-1.36521 -0.94721,0.58541 -0.58541,-0.94721 -0.58541,-0.94721 0.94721,-0.58541 0.94721,-0.58541 0.58541,0.94721 0.58541,0.94721 z M 136,177 h -20 v -1 -1 h 20 20 v 1 1 z M 19.75,165.92971 17.5,165.85943 19.5,165 l 2,-0.85943 -1.75,-0.0703 L 18,164 v -1.5 -1.5 l 2.25,0.0703 2.25,0.0703 -2,0.85943 -2,0.85943 1.75,0.0703 L 22,163 v 1.5 1.5 l -2.25,-0.0703 z m 5.981684,-1.42971 -0.499681,2 -0.116002,-2.16667 L 25,162.16667 l -1.25,-0.50439 -1.25,-0.50439 3,-0.0636 3,-0.0636 -1.134318,0.73468 -1.134318,0.73469 -0.49968,2 z M 31,166 h -2 v -2.5 -2.5 h 2 2 v 2.5 2.5 z m 0,-1 h 1 v -1.5 -1.5 h -1 -1 v 1.5 1.5 z m 3.662281,0.25 -0.504386,1.25 -0.07895,-2.75 L 34,161 h 2 2 v 1.5 1.5 H 36.583333 35.166667 Z M 36,163 h 1.333333 L 36.666667,162.33333 36,161.66667 35.333333,162.33333 34.666667,163 Z m 14.662281,2.25 -0.504386,1.25 -0.07895,-2.75 L 50,161 h 2 2 v 1.5 1.5 H 52.583333 51.166667 Z M 52,163 h 1.333333 L 52.666667,162.33333 52,161.66667 51.333333,162.33333 50.666667,163 Z m 5.25,2.884 L 55,166 l 0.136182,-2.75 0.136182,-2.75 0.425312,2.18852 0.425312,2.18852 1.688506,0.44548 L 59.5,165.768 Z M 60.95653,165 59.91306,166.5 60.20653,164 60.5,161.5 h 1.5 1.5 l 0.29347,2.5 0.29347,2.5 L 63.04347,165 62,163.5 Z M 62,163 h 1.333333 L 62.666667,162.33333 62,161.66667 61.333333,162.33333 60.666667,163 Z m 5.884273,1.71731 -0.384273,1.21731 -1.190329,-2.54023 -1.190328,-2.54023 1.264122,1.04912 1.264122,1.04913 1.377978,-1.2262 1.377979,-1.22621 -1.0675,1.5 -1.067499,1.5 z M 84.25,165.884 82,166 l 0.136182,-2.75 0.136182,-2.75 0.425312,2.18852 0.425312,2.18852 1.688506,0.44548 L 86.5,165.768 Z M 89,166 h -2 v -2.5 -2.5 h 2 2 v 2.5 2.5 z m 0,-1 h 1 v -1.5 -1.5 h -1 -1 v 1.5 1.5 z m 5,1 h -2 v -2.5 -2.5 h 2 2 v 2.5 2.5 z m 0,-1 h 1 v -1.5 -1.5 h -1 -1 v 1.5 1.5 z m 3.662281,0.25 -0.504386,1.25 -0.07895,-2.75 L 97,161 h 2 2 v 1.5 1.5 H 99.583333 98.166667 Z M 99,163 h 1.33333 L 99.666667,162.33333 99,161.66667 98.333333,162.33333 97.666667,163 Z m 26.73168,1.5 -0.49968,2 -0.116,-2.16667 -0.116,-2.16666 -1.25,-0.50439 -1.25,-0.50439 3,-0.0636 3,-0.0636 -1.13432,0.73468 -1.13432,0.73469 -0.49968,2 z M 131.25,165.92971 129,166 v -2.5 -2.5 l 2.25,0.0703 2.25,0.0703 -2,0.79492 -2,0.79493 2,0.51879 2,0.51879 -2,0.18628 -2,0.18629 2,0.85943 2,0.85943 -2.25,0.0703 z m 3.60933,-1.25371 -0.71876,1.824 -0.0703,-2.87244 -0.0703,-2.87245 1.32379,1.09865 1.3238,1.09865 1.1762,-1.1762 L 139,160.6 l -0.0703,2.95 -0.0703,2.95 -0.71876,-1.824 -0.71876,-1.824 h -0.92191 -0.92191 l -0.71876,1.824 z m 5.80295,0.574 -0.50439,1.25 -0.0789,-2.75 L 140,161 h 2 2 v 1.5 1.5 h -1.41667 -1.41666 z M 142,163 h 1.33333 L 142.66667,162.33333 142,161.66667 141.33333,162.33333 140.66667,163 Z m 5,3 h -2 v -2.5 -2.5 h 2 2 v 2.5 2.5 z m 0,-1 h 1 v -1.5 -1.5 h -1 -1 v 1.5 1.5 z m 68.55,24.79195 -14.05,-0.20805 14.48991,-0.54195 14.48991,-0.54195 0.31063,-4.46721 0.31063,-4.46721 0.44946,-0.44946 L 232,178.66667 v 4.46666 4.46667 l -1.2,1.2 -1.2,1.2 z M 205,185 h -2 v -3.5 -3.5 h 2 2 v 0.96862 0.96861 l -1.5,-0.5756 -1.5,-0.57561 v 2.71398 2.71398 l 1.5,-0.57561 1.5,-0.5756 V 184.03138 185 Z m 5.25,-0.116 -2.25,0.116 0.16004,-3.75 0.16003,-3.75 0.3987,3.18799 0.3987,3.18798 1.69126,0.44602 1.69127,0.44601 z m 5,0 L 213,185 v -3.5 -3.5 l 2.25,0.116 2.25,0.116 -1.75,0.45733 -1.75,0.45732 v 0.84334 0.84334 l 1.25,0.50439 1.25,0.50439 -1.25,0.0789 L 214,182 v 0.92668 0.92667 l 1.75,0.45732 1.75,0.45733 z m 3.39802,-1.134 -0.49863,1.75 0.1753,-3.5 0.17531,-3.5 h 2 2 l 0.17531,3.5 0.1753,3.5 -0.49863,-1.75 -0.49863,-1.75 H 220.5 219.14665 Z M 220.5,181 h 1.5 v -1 -1 h -1.5 -1.5 v 1 1 z m 4.18933,2.75 -0.45733,1.75 -0.116,-3.81955 -0.116,-3.81955 2.22318,0.31955 2.22317,0.31955 0.16901,3.43304 0.16902,3.43305 -0.94188,-1.68305 L 226.90062,182 h -0.87699 -0.87698 z M 226.5,181 h 1.5 v -1 -1 h -1.5 -1.5 v 1 1 z M 216,167 h -32 v -4.5 -4.5 h 32 32 v 4.5 4.5 z m -28.5,-1 h 2.5 v -3.5 -3.5 h -2.5 -2.5 v 3.5 3.5 z m 1.12244,-1 h -0.37755 l -1.13478,-1.36732 -1.13477,-1.36732 1.51233,-1.25513 L 189,159.75511 V 162.37756 165 Z M 216,166 h 25 v -3.5 -3.5 h -25 -25 v 3.5 3.5 z m 28.5,0 h 2.5 v -3.5 -3.5 h -2.5 -2.5 v 3.5 3.5 z m -1.12244,-1 H 243 v -2.62244 -2.62245 l 1.51233,1.25512 1.51233,1.25513 -1.13477,1.36732 L 243.75511,165 Z m -54.6961,-8 h -0.43657 l -1.13478,-1.36732 -1.13477,-1.36732 1.70429,-1.38268 1.70429,-1.38268 -0.7042,1.17432 -0.70421,1.17432 1.76225,0.45968 1.76224,0.45968 -1.80902,0.116 -1.80901,0.116 0.61803,1 0.61803,1 z m 16.06854,-0.0703 -2.25,-0.0703 2,-0.85943 2,-0.85943 -1.75,-0.0703 L 203,155 v -1.5 -1.5 l 2.25,0.0703 2.25,0.0703 -2,0.85943 -2,0.85943 1.75,0.0703 1.75,0.0703 v 1.5 1.5 l -2.25,-0.0703 z M 210,157 h -2 v -2.5 -2.5 h 2 2 v 0.96862 0.96861 l -1.5,-0.5756 -1.5,-0.57561 v 1.71398 1.71398 l 1.5,-0.57561 1.5,-0.5756 V 156.03138 157 Z m 4.01531,-1 -0.98468,1.5 -0.0153,-2.75 L 213,152 h 1.875 1.875 v 2.60676 2.60677 L 215.875,155.85676 215,154.5 Z M 215,154 h 1.33333 L 215.66667,153.33333 215,152.66667 214.33333,153.33333 213.66667,154 Z m 5,3 h -2 v -2.5 -2.5 h 2 2 v 2.5 2.5 z m 0,-1 h 1 v -1.5 -1.5 h -1 -1 v 1.5 1.5 z m 4.75,0.98469 L 223,157 l 0.116,-2.75 0.116,-2.75 0.49968,2 0.49968,2 1.13432,0.73469 1.13432,0.73468 -1.75,0.0153 z m 4,0 L 227,157 l 0.116,-2.75 0.116,-2.75 0.49968,2 0.49968,2 1.13432,0.73469 1.13432,0.73468 -1.75,0.0153 z m 14.56854,0.0153 h -0.43657 l 0.57126,-0.92432 0.57126,-0.92432 -1.76225,-0.45968 -1.76224,-0.45968 1.80902,-0.116 1.80901,-0.116 -0.75097,-1.25 -0.75098,-1.25 1.70429,1.38268 1.70429,1.38268 -1.13477,1.36732 -1.13478,1.36732 z m -49.90187,-2.07895 -1.91667,-0.0789 1.3125,-0.52522 1.3125,-0.52522 0.60417,0.60416 0.60416,0.60417 -1.91666,-0.0789 z m 4,0 -1.91667,-0.0789 1.3125,-0.52522 1.3125,-0.52522 0.60417,0.60416 0.60416,0.60417 -1.91666,-0.0789 z m 37,0 -1.91667,-0.0789 1.3125,-0.52522 1.3125,-0.52522 0.60417,0.60416 0.60416,0.60417 -1.91666,-0.0789 z m 4,0 -1.91667,-0.0789 1.3125,-0.52522 1.3125,-0.52522 0.60417,0.60416 0.60416,0.60417 -1.91666,-0.0789 z"
       style="display:inline;fill:#000000" />
  </g>
</svg>
