<svg><g transform="translate(96,0)"><path fill="#c0c0c0" d="m2 14h-1v-6-6h.5.5v-.5-.5h6 6v1 1h-.5-.5v-.5-.5H8 3v.5.5h-.5-.5v5 5h.5.5v.5.5zm3.5-2h-.5v-.5-.5h-.5-.5v-.5-.5h.5.5V9.5 9h.5.5v.5.5h.5.5v.5.5h-.5-.5v.5.5zm0-1h.5v-.5-.5h-.5-.5v.5.5z"></path><path fill="#707070" d="m8 15h-6v-.5-.5h5.5 5.5v-.5-.5h.5.5V7.5 1.999h.5.5V8 14h-.5-.5v.5.5zM4.5 12h-.5v-.5-.5h.5.5v.5.5zm2-2h-.5v-.5-.5h.5.5v.5.5z"></path><path fill="#e8f0f8" d="M8 14H3V13.5 13h-.5-.5v-5-5h.5.5v-.5-.5h3 3v3 3h-1.5-1.5v.5.5H5 4V9.5 10h-.5-.5v1 1h.5.5v.5.5h1.5 1.5V12.5 12h1 1V11.5 11h.5.5v-4.5-4.5h1.5 1.5v.5.5h.5.5v5 5h-.5-.5v.5.5zm-2.5-3h-.5v-.5-.5h.5.5v.5.5z"></path><path d="M8 16H2V16 15H1 1V15 14H0 0V8 2H0 1V1 1H1 2V0 0H8 14V0 1H15 15V1 2H16 16V8 14H16 15V15 15H15 14V16 16ZM8 15H14V15 14H15 15V8 2H15 14V1 1H8 2V1 2H1 1V8 14H1 2V15 15ZM6 13H4V13 12H3 3V11 10H3 4V10 9H4 5V9 8H7 9V5 2H10 10V6 11H10 9V12 12H9 8V13 13ZM5 12H7V12 11H7 8V10 9H7 6V10 10H5 4V11 12Z"></path></g> 
</svg>