<?xml version="1.0" encoding="UTF-8" standalone="no"?>
<!-- Created with Inkscape (http://www.inkscape.org/) -->

<svg
   xmlns:dc="http://purl.org/dc/elements/1.1/"
   xmlns:cc="http://creativecommons.org/ns#"
   xmlns:rdf="http://www.w3.org/1999/02/22-rdf-syntax-ns#"
   xmlns:svg="http://www.w3.org/2000/svg"
   xmlns="http://www.w3.org/2000/svg"
   xmlns:sodipodi="http://sodipodi.sourceforge.net/DTD/sodipodi-0.dtd"
   xmlns:inkscape="http://www.inkscape.org/namespaces/inkscape"
   version="1.1"
   id="svg2"
   width="256"
   height="256.28329"
   viewBox="0 0 256 256.28329"
   sodipodi:docname="noteblocks.svg"
   inkscape:version="0.92.4 (unknown)">
  <metadata
     id="metadata8">
    <rdf:RDF>
      <cc:Work
         rdf:about="">
        <dc:format>image/svg+xml</dc:format>
        <dc:type
           rdf:resource="http://purl.org/dc/dcmitype/StillImage" />
        <dc:title></dc:title>
      </cc:Work>
    </rdf:RDF>
  </metadata>
  <defs
     id="defs6">
    <clipPath
       clipPathUnits="userSpaceOnUse"
       id="clipPath119">
      <rect
         style="opacity:0.88999999;fill:#fcb601;fill-opacity:1"
         id="rect121"
         width="106.77966"
         height="91.525421"
         x="594.12762"
         y="243.10333" />
    </clipPath>
    <clipPath
       clipPathUnits="userSpaceOnUse"
       id="clipPath119-3">
      <rect
         style="opacity:0.88999999;fill:#fcb601;fill-opacity:1"
         id="rect121-6"
         width="106.77966"
         height="91.525421"
         x="594.12762"
         y="243.10333" />
    </clipPath>
    <clipPath
       clipPathUnits="userSpaceOnUse"
       id="clipPath119-3-5">
      <rect
         style="opacity:0.88999999;fill:#fcb601;fill-opacity:1"
         id="rect121-6-3"
         width="106.77966"
         height="91.525421"
         x="594.12762"
         y="243.10333" />
    </clipPath>
  </defs>
  <sodipodi:namedview
     pagecolor="#ffffff"
     bordercolor="#666666"
     borderopacity="1"
     objecttolerance="10"
     gridtolerance="10"
     guidetolerance="10"
     inkscape:pageopacity="0"
     inkscape:pageshadow="2"
     inkscape:window-width="1358"
     inkscape:window-height="667"
     id="namedview4"
     showgrid="false"
     inkscape:zoom="0.84"
     inkscape:cx="256.07002"
     inkscape:cy="83.762712"
     inkscape:window-x="-4"
     inkscape:window-y="0"
     inkscape:window-maximized="0"
     inkscape:current-layer="g12"
     inkscape:snap-global="false" />
  <g
     id="g12"
     transform="translate(-32,-111.7167)"
     style="display:inline">
    <path
       style="display:inline;fill:#fcb601"
       d="M 32,239.99595 V 111.9919 l 119.75,0.25405 119.75,0.25405 0.30076,6.97235 c 0.17332,4.01811 0.80889,7.29536 1.5,7.73469 0.65958,0.41928 4.23674,0.76923 7.94924,0.77765 L 288,128 V 248 368 H 160 32 Z"
       id="path22"
       inkscape:connector-curvature="0" />
    <path
       style="display:inline;fill:#fd7600;fill-opacity:1"
       d="M 32.5,239.85835 V 111.7167 l 12.5,0.63759 c 6.875,0.35068 60.5375,0.63942 119.25,0.64165 L 271,113 v 7.49565 7.49566 L 159.75,128.24565 48.5,128.5 v 111 111 h 111 111 L 271,239 c 0.39615,-88.34164 0.75962,-111.47923 1.75,-111.4 0.6875,0.055 4.4,0.1675 8.25,0.25 l 7,0.15 V 248 368 H 160.25 32.5 Z m 30.937265,95.83876 c -0.292159,-0.76135 -0.397563,-4.71717 -0.234232,-8.79069 L 63.5,319.5 h 8.5 8.5 v 8.5 8.5 l -8.265768,0.2907 c -6.321186,0.22231 -8.390736,-0.035 -8.796967,-1.09359 z m 176.000005,0 c -0.29216,-0.76135 -0.39757,-4.71717 -0.23424,-8.79069 L 239.5,319.5 h 8.5 8.5 v 8.5 8.5 l -8.26577,0.2907 c -6.32118,0.22231 -8.39073,-0.035 -8.79696,-1.09359 z m -176.000005,-176 c -0.292159,-0.76135 -0.397563,-4.71717 -0.234232,-8.79069 L 63.5,143.5 h 8.5 8.5 v 8.5 8.5 l -8.265768,0.2907 c -6.321186,0.22231 -8.390736,-0.035 -8.796967,-1.09359 z m 176.000005,0 c -0.29216,-0.76135 -0.39757,-4.71717 -0.23424,-8.79069 L 239.5,143.5 h 8.5 8.5 v 8.5 8.5 l -8.26577,0.2907 c -6.32118,0.22231 -8.39073,-0.035 -8.79696,-1.09359 z"
       id="path20"
       inkscape:connector-curvature="0"
       sodipodi:nodetypes="ccsscccccccccssscccccccscccccsccscccccsccscccccsccscccccsc" />
    <path
       style="display:inline;fill:#040301"
       d="m 33.413296,365.63465 c -0.289788,-0.75518 -0.38883,-3.79441 -0.220092,-6.75385 L 33.5,353.5 153,353 272.5,352.5 273,241 273.5,129.5 h 6.5 6.5 V 248 366.5 l -126.27991,0.25385 c -106.308154,0.2137 -126.363236,0.0367 -126.806794,-1.1192 z m 32.016963,-31.9558 c -0.299118,-0.77948 -0.405793,-3.83861 -0.237055,-6.79805 L 65.5,321.5 h 6.5 6.5 v 6.5 6.5 l -6.262945,0.29805 c -4.689121,0.22316 -6.39961,-0.0581 -6.806796,-1.1192 z m 176.000001,0 c -0.29912,-0.77948 -0.40579,-3.83861 -0.23706,-6.79805 L 241.5,321.5 h 6.5 6.5 v 6.5 6.5 l -6.26294,0.29805 c -4.68913,0.22316 -6.39961,-0.0581 -6.8068,-1.1192 z m -176.000001,-176 c -0.299118,-0.77948 -0.405793,-3.83861 -0.237055,-6.79805 L 65.5,145.5 h 6.5 6.5 v 6.5 6.5 l -6.262945,0.29805 c -4.689121,0.22316 -6.39961,-0.0581 -6.806796,-1.1192 z m 176.000001,0 c -0.29912,-0.77948 -0.40579,-3.83861 -0.23706,-6.79805 L 241.5,145.5 h 6.5 6.5 v 6.5 6.5 l -6.26294,0.29805 c -4.68913,0.22316 -6.39961,-0.0581 -6.8068,-1.1192 z M 33.411819,125.6308 c -0.288976,-0.75306 -0.387353,-3.79056 -0.218615,-6.75 L 33.5,113.5 h 6.5 6.5 l 0.29569,6.75 0.29569,6.75 h -6.577075 c -4.644547,0 -6.731455,-0.40231 -7.102486,-1.3692 z"
       id="path14"
       inkscape:connector-curvature="0"
       sodipodi:nodetypes="sscccccccccssssccccccsscccccccsssccccccsscccccccssscccccss" />
    <path
       style="display:inline;fill:#040301;fill-opacity:1;stroke-width:1.33333337"
       d="m 675.40225,576.5102 c -0.29238,-0.59134 -0.49869,-3.77515 -0.45846,-7.07515 l 0.0732,-6 5.0651,-0.20145 5.06511,-0.20144 -0.39844,6.8681 c -0.38481,6.63322 -0.54237,6.8821 -4.60664,7.2766 -2.31451,0.22467 -4.44743,-0.0753 -4.73981,-0.66666 z m 5.61468,-1.74182 c 0,-0.73333 -0.93541,-1.33333 -2.07869,-1.33333 -1.14328,0 -1.70787,0.6 -1.25464,1.33333 0.45323,0.73334 1.38864,1.33334 2.07869,1.33334 0.69006,0 1.25464,-0.6 1.25464,-1.33334 z m 0.73847,-5.4495 c 1.37403,-2.22323 -1.71628,-4.77268 -3.55563,-2.93334 -1.53856,1.53856 -0.57562,4.38284 1.48383,4.38284 0.64677,0 1.57908,-0.65228 2.0718,-1.4495 z m 55.50273,5.55876 c 1.19798,-1.91826 1.22335,-3.33451 0.1016,-5.66667 -1.49254,-3.10289 -1.49578,-3.10325 -1.58584,-0.17551 -0.11,3.57454 -3.24261,5.52516 -7.55068,4.70163 -2.91318,-0.55688 -3.20628,-1.26908 -3.20628,-7.79081 0,-3.94784 0.6,-7.1779 1.33334,-7.1779 0.73333,0 1.33333,0.9 1.33333,2 0,1.8452 4.03003,2.76415 9.10333,2.0758 0.97351,-0.13213 2.09348,0.99683 2.48884,2.5087 0.91312,3.49174 2.55899,3.53082 3.46083,0.0821 0.38355,-1.46667 1.39395,-2.66667 2.24536,-2.66667 1.63964,0 1.14868,2.3422 -2.14171,10.2172 -1.2266,2.93567 -2.76412,4.44947 -4.51917,4.44947 -2.28843,0 -2.43693,-0.35731 -1.06295,-2.55741 z m -4.2412,-6.03056 c 0,-2.73882 -2.76033,-4.08451 -4.06109,-1.97984 -0.60296,0.9756 -0.80047,2.25246 -0.43891,2.83748 1.12056,1.81312 4.5,1.16904 4.5,-0.85764 z m 81.33334,1.25464 c 0,-7.18992 0.0751,-7.33334 3.83675,-7.33334 7.49017,0 9.78584,9.58318 2.49658,10.4219 -2.09866,0.24148 -3.66666,1.23929 -3.66666,2.33333 0,1.05129 -0.6,1.91144 -1.33334,1.91144 -0.73333,0 -1.33333,-3.3 -1.33333,-7.33333 z m 7.40513,-0.78284 c 1.37403,-2.22323 -1.71628,-4.77268 -3.55562,-2.93334 -1.53856,1.53856 -0.57563,4.38284 1.48382,4.38284 0.64678,0 1.57908,-0.65228 2.0718,-1.4495 z m -171.50408,2.68389 c -2.1184,-2.1184 -2.56772,-2.20365 -2.56772,-0.48723 0,1.58879 -1.18167,1.98268 -5,1.66667 -4.74252,-0.39252 -5,-0.6532 -5,-5.06223 0,-3.59278 0.60558,-4.76201 2.66666,-5.14862 1.46667,-0.27512 3.14649,-1.33335 3.73293,-2.3516 1.93288,-3.35612 3.59904,-1.93246 3.68493,3.14862 0.0751,4.44032 0.2232,4.65418 1.32348,1.91048 0.94921,-2.367 2.09875,-2.99062 4.91548,-2.66666 3.16712,0.36426 3.73243,1.09154 4.07997,5.24901 0.33279,3.98084 -0.0932,4.95604 -2.43228,5.56771 -1.79705,0.46994 -3.77625,-0.19895 -5.40345,-1.82615 z m 6.09895,-1.23439 c 0.45322,-0.73333 -0.44678,-1.33333 -2,-1.33333 -1.55323,0 -2.45323,0.6 -2,1.33333 0.45322,0.73334 1.35322,1.33334 2,1.33334 0.64677,0 1.54677,-0.6 2,-1.33334 z m -12.66667,-2.77777 c 0,-3.2494 -3.1157,-2.79009 -3.76443,0.55493 -0.25517,1.31568 0.42501,2.22284 1.66667,2.22284 1.23684,0 2.09776,-1.14 2.09776,-2.77777 z m 11.63889,-2.02779 c -0.44306,-0.44305 -1.59306,-0.49041 -2.55556,-0.1052 -1.06364,0.42563 -0.7477,0.74158 0.80556,0.80555 1.40555,0.0579 2.19306,-0.25724 1.75,-0.70029 z m 6.7549,7.81964 c -1.7027,-0.38929 -2.20443,-1.7524 -2,-5.43353 0.24465,-4.40556 0.65218,-4.91388 3.93954,-4.91388 2.01667,0 3.62732,0.6 3.57923,1.33333 -0.0481,0.73334 -1.09808,1.19274 -2.33333,1.0209 -1.41076,-0.19627 -1.13035,0.25134 0.7541,1.20374 1.65,0.83391 3,2.3034 3,3.26554 0,2.2041 -3.94661,4.2082 -6.93954,3.5239 z m 2.93954,-3.01408 c 0,-0.73333 -0.63541,-1.33333 -1.41202,-1.33333 -0.77662,0 -1.0412,0.6 -0.58798,1.33333 0.45323,0.73334 1.08864,1.33334 1.41203,1.33334 0.32339,0 0.58797,-0.6 0.58797,-1.33334 z m 36,2.95324 c -1.1,-0.37753 -2.44081,-1.34645 -2.97958,-2.15316 -0.67768,-1.01469 -0.98587,-0.95308 -1,0.19992 -0.0107,0.91667 -0.92042,1.66667 -2.02042,1.66667 -1.33333,0 -2,-1.33333 -2,-4 0,-4.95748 -2.33478,-5.30725 -2.91144,-0.43616 -0.69885,5.90337 -3.75522,5.43943 -3.75522,-0.57003 0,-5.02554 0.1762,-5.23502 4.5414,-5.39913 3.16765,-0.11907 4.80808,0.52139 5.423,2.11729 0.82865,2.1506 0.96028,2.14788 2.19152,-0.0453 1.64341,-2.92737 7.65045,-3.056 8.75125,-0.18739 0.75687,1.97238 0.92061,1.97238 2.0244,0 0.66052,-1.18026 2.30692,-2.14594 3.65869,-2.14594 1.35178,0 2.80312,-0.9 3.22524,-2 1.69238,-4.41026 3.51783,-1.64271 3.51783,5.33333 v 7.33333 h -4.70963 c -3.63789,0 -4.98405,-0.68269 -5.91549,-3 -0.89435,-2.225 -1.22768,-2.40934 -1.29036,-0.71357 -0.10013,2.70704 -3.92155,4.97131 -6.75119,4.00015 z m 5.33334,-3.76256 c 0,-0.2882 -1.23542,-0.52401 -2.74536,-0.52401 -1.50995,0 -2.39074,0.5738 -1.9573,1.27511 0.71148,1.1512 4.70266,0.51374 4.70266,-0.7511 z m 9.33333,-1.96845 c 0,-3.2494 -3.11569,-2.79009 -3.76443,0.55493 -0.25517,1.31568 0.42502,2.22284 1.66667,2.22284 1.23684,0 2.09776,-1.14 2.09776,-2.77777 z m -11.02777,-2.02779 c -0.44306,-0.44305 -1.59307,-0.49041 -2.55556,-0.1052 -1.06364,0.42563 -0.74771,0.74158 0.80556,0.80555 1.40554,0.0579 2.19305,-0.25724 1.75,-0.70029 z m 51.0784,6.86656 c -0.88507,-1.06644 -2.67852,-4.03634 -3.98543,-6.59978 l -2.3762,-4.66079 3.80592,-0.83592 c 2.09325,-0.45975 4.93593,-2.27251 6.31707,-4.02833 2.49044,-3.16609 2.53077,-3.17074 4.88957,-0.5643 1.30812,1.44547 4.07056,2.62812 6.13876,2.62812 3.4566,0 3.65834,0.26831 2.49742,3.32176 -0.69462,1.82696 -0.93338,4.18058 -0.53058,5.23024 0.4028,1.04967 -0.51404,3.15488 -2.0374,4.67824 -3.29456,3.29456 -12.25465,3.80027 -14.71913,0.83076 z m 5.04713,-9.17149 c 0.24943,-1.28609 -0.41977,-2.22284 -1.58797,-2.22284 -2.47698,0 -3.97195,2.17353 -2.79963,4.07039 1.20605,1.95141 3.86824,0.83041 4.3876,-1.84755 z m 45.41076,10.14667 c -1.18698,-0.27366 -2.82758,-1.81875 -3.64578,-3.43354 -1.35718,-2.67852 -1.46023,-2.70213 -1.17518,-0.2693 0.2599,2.21824 -0.4723,2.66666 -4.35422,2.66666 -4.09975,0 -4.71792,-0.44544 -5.08856,-3.66666 -0.59859,-5.20227 -4.24478,-4.8205 -4.24478,0.44444 0,5.21133 -2.9928,4.57502 -4.17558,-0.88778 l -0.84224,-3.89 -0.15776,4.33334 c -0.0996,2.73581 -0.8413,4.33333 -2.01187,4.33333 -2.37553,0 -3.57032,-9.15375 -1.6098,-12.33333 1.53236,-2.48522 6.13059,-3.23527 6.13059,-1 0,0.73333 -0.63542,1.33333 -1.41203,1.33333 -0.77661,0 -1.13367,0.45039 -0.79345,1.00087 0.34021,0.55046 4.12562,0.89468 8.41202,0.76492 5.26178,-0.1593 8.49792,0.40053 9.96204,1.72336 1.91379,1.72909 2.2654,1.70705 2.99243,-0.18755 0.5452,-1.42079 2.06647,-2.00392 4.49807,-1.72423 3.04542,0.3503 3.74462,1.1491 4.08545,4.66738 0.43677,4.5087 -2.34197,7.0994 -6.56935,6.12476 z m -7.17518,-3.03618 c 0.45322,-0.73333 -0.11134,-1.33333 -1.25464,-1.33333 -1.14328,0 -2.0787,0.6 -2.0787,1.33333 0,0.73334 0.56459,1.33334 1.25464,1.33334 0.69006,0 1.62547,-0.6 2.0787,-1.33334 z m 12,0 c 0.45322,-0.73333 -0.44678,-1.33333 -2,-1.33333 -1.55323,0 -2.45323,0.6 -2,1.33333 0.45322,0.73334 1.35322,1.33334 2,1.33334 0.64677,0 1.54677,-0.6 2,-1.33334 z m -1.02778,-4.80556 c -0.44305,-0.44305 -1.59306,-0.49041 -2.55556,-0.1052 -1.06364,0.42563 -0.7477,0.74158 0.80556,0.80555 1.40555,0.0579 2.19306,-0.25724 1.75,-0.70029 z m 40.02868,7.80818 c -3.03544,-0.69122 -4.4661,-6.43387 -2.26392,-9.08734 1.97556,-2.38042 8.1263,-2.05341 8.95735,0.47622 0.41073,1.25021 -0.38645,1.4856 -2.89717,0.85545 -2.88558,-0.72424 -3.46383,-0.4132 -3.46383,1.86315 0,3.1197 2.06955,4.93476 3.31989,2.91165 1.06292,-1.71984 3.34678,-1.76669 3.34678,-0.0687 0,1.82979 -4.24096,3.67759 -6.9991,3.04952 z m -179.66757,-5.66928 c 0,-2.93334 0.6,-5.33334 1.33333,-5.33334 0.73333,0 1.33333,2.4 1.33333,5.33334 0,2.93333 -0.6,5.33333 -1.33333,5.33333 -0.73333,0 -1.33333,-2.4 -1.33333,-5.33333 z m 156,0 c 0,-2.93334 0.6,-5.33334 1.33333,-5.33334 0.73334,0 1.33334,2.4 1.33334,5.33334 0,2.93333 -0.6,5.33333 -1.33334,5.33333 -0.73333,0 -1.33333,-2.4 -1.33333,-5.33333 z m 4.26365,-1.56187 c 0.4268,-7.30209 3.73635,-11.09549 3.73635,-4.28257 0,2.88641 0.35556,3.35554 1.6,2.1111 2.55264,-2.55264 3.84997,-1.8623 2.98403,1.58788 -0.44006,1.75332 -0.15148,3.58874 0.64126,4.07868 0.79276,0.48995 1.44138,1.45542 1.44138,2.14547 0,2.07111 -2.9159,1.41728 -4.8106,-1.07869 -1.68691,-2.22223 -1.77328,-2.22223 -1.81367,0 -0.0233,1.28333 -0.97376,2.33333 -2.11208,2.33333 -1.65583,0 -1.98909,-1.37876 -1.66667,-6.8952 z m 11.73635,5.56187 c 0,-0.73334 0.6,-1.33334 1.33333,-1.33334 0.73334,0 1.33334,0.6 1.33334,1.33334 0,0.73333 -0.6,1.33333 -1.33334,1.33333 -0.73333,0 -1.33333,-0.6 -1.33333,-1.33333 z m 16.51937,-0.5697 c -0.40164,-1.04666 -0.53281,-3.29666 -0.29148,-5 0.4951,-3.49446 5.41391,-4.94073 8.39346,-2.46792 1.27165,1.05539 2.06928,1.07754 2.68908,0.0747 0.49274,-0.79727 3.92462,-1.26661 7.78537,-1.06473 l 6.9042,0.36101 0.41383,5 c 0.23955,2.89439 -0.18157,5 -1,5 -0.77761,0 -1.41383,-1.8 -1.41383,-4 0,-2.2 -0.6,-4 -1.33333,-4 -0.73333,0 -1.33334,1.8 -1.33334,4 0,2.66667 -0.66666,4 -2,4 -1.3419,0 -2,-1.34208 -2,-4.07869 0,-2.3796 -0.55544,-3.73542 -1.33333,-3.25464 -0.73333,0.45322 -1.33333,2.28864 -1.33333,4.07869 0,3.56637 -1.26219,4.12579 -3.73334,1.65464 -1.24444,-1.24444 -1.6,-1.24444 -1.6,0 0,2.2802 -7.92726,2.00765 -8.81396,-0.30303 z m 6.59206,-4.19445 c -0.40154,-1.04639 -1.23046,-1.90252 -1.84206,-1.90252 -1.80245,0 -2.9015,2.63151 -2.03841,4.88068 0.6314,1.6454 1.20319,1.7522 2.70556,0.50533 1.04773,-0.86953 1.57644,-2.43712 1.17491,-3.48349 z m -195.11143,-7.23585 c 0,-0.73334 0.6,-1.33334 1.33333,-1.33334 0.73333,0 1.33333,0.6 1.33333,1.33334 0,0.73333 -0.6,1.33333 -1.33333,1.33333 -0.73333,0 -1.33333,-0.6 -1.33333,-1.33333 z m 156,0 c 0,-0.73334 0.6,-1.33334 1.33333,-1.33334 0.73334,0 1.33334,0.6 1.33334,1.33334 0,0.73333 -0.6,1.33333 -1.33334,1.33333 -0.73333,0 -1.33333,-0.6 -1.33333,-1.33333 z M 466.90975,492.96989 c -0.37958,-0.98918 -0.51075,-17.14195 -0.29148,-35.89507 l 0.39866,-34.09658 3.33333,-3.61416 c 7.10085,-7.69908 19.35351,-10.57292 28.60217,-6.70858 11.39847,4.76258 9.3506,19.68118 -3.55952,25.93087 -6.32858,3.06361 -16.7911,3.7907 -21.1303,1.46844 -2.51181,-1.34428 -2.57902,-0.64934 -2.57902,26.66666 0,24.29716 -0.27298,28.04691 -2.04184,28.04691 -1.12302,0 -2.35242,-0.80932 -2.732,-1.79849 z m 353.70884,0.95569 c -0.51424,-0.51424 -0.93499,-15.53497 -0.93499,-33.37943 v -32.44444 h -6.50341 c -3.76947,0 -7.11921,-0.742 -7.96827,-1.76505 -2.49361,-3.00463 1.06628,-4.90162 9.19836,-4.90162 6.01247,0 8.03768,-0.57436 10.06667,-2.85497 3.78172,-4.25071 12.42325,-7.74996 19.20665,-7.77743 6.76872,-0.0275 14.5636,3.95026 15.61422,7.96783 0.5241,2.00416 2.09932,2.61819 7.52433,2.93303 5.83983,0.33892 6.86145,0.79526 6.86145,3.06488 0,2.23678 -1.1111,2.77413 -6.89245,3.33333 -5.57892,0.53961 -7.46469,1.39736 -9.8952,4.50084 -5.53303,7.06506 -21.70964,11.43158 -27.87901,7.52532 -1.74675,-1.10598 -2.08442,2.22894 -2.66667,26.33703 -0.56792,23.51461 -0.97255,27.66203 -2.73168,27.99951 -1.13576,0.21789 -2.48576,-0.0245 -3,-0.53883 z m 182.39831,-1.23209 c -5.99111,-3.08314 -8.60349,-7.19302 -8.63697,-13.58794 -0.0587,-11.20474 14.07767,-21.44565 27.61297,-20.0039 3.4965,0.37245 7.4074,1.11402 8.6907,1.64794 2.1761,0.90534 2.3347,-0.81345 2.3538,-25.50522 0.011,-14.56181 0.5506,-27.31342 1.1987,-28.33695 0.6481,-1.02352 2.1389,-1.49235 3.3129,-1.04184 1.8814,0.72194 2.1346,4.9259 2.1346,35.44083 0,35.87516 -0.4646,39.5326 -5.7555,45.30453 -6.8079,7.42693 -22.3542,10.48607 -30.9112,6.08255 z m 20.1567,-5.81011 c 6.6519,-3.02073 9.8433,-7.25107 9.8433,-13.0476 0,-10.99627 -18.7705,-12.56349 -28.9194,-2.4146 -5.18801,5.18799 -5.66159,9.74723 -1.4139,13.61175 5.5732,5.07042 12.1012,5.65997 20.49,1.85045 z m -388.48908,3.23089 c -2.38283,-1.03568 -5.02915,-3.4122 -5.8807,-5.28114 -1.35089,-2.9649 -2.3762,-3.39808 -8.04276,-3.39808 -4.72486,0 -6.71768,-0.58163 -7.3136,-2.13456 -1.11162,-2.89686 1.82068,-4.48719 8.31872,-4.5117 4.4997,-0.0169 5.93344,-0.7204 8.47502,-4.15806 4.72874,-6.39596 13.47641,-9.66507 23.67231,-8.84664 l 8.43676,0.67721 v -27.27756 c 0,-25.26068 0.17252,-27.24439 2.33333,-26.82884 2.1356,0.41069 2.36356,3.24365 2.68996,33.43109 l 0.35663,32.98239 6.31004,0.0204 c 7.33816,0.0237 10.36602,1.50655 9.21284,4.51169 -0.63255,1.64838 -2.75554,2.13456 -9.32098,2.13456 -7.00908,0 -8.94784,0.50128 -11.04184,2.85498 -6.15621,6.91965 -19.39568,9.65349 -28.20573,5.82425 z m 410.38548,0.0515 c -1.9342,-2.33063 -0.7422,-6.84756 2.0943,-7.93603 2.8624,-1.09841 7.186,1.50018 7.186,4.31895 0,5.01547 -6.1351,7.40669 -9.2803,3.61708 z M 818.35027,320.01186 c 0,-6.41718 -0.15067,-6.70578 -3,-5.74635 -1.65,0.55558 -4.5,1.04601 -6.33333,1.08985 -3.29951,0.0788 -3.33334,-0.0349 -3.33334,-11.21569 v -11.29536 l 6,-2.20984 c 5.95236,-2.1923 6.00322,-2.2644 6.40451,-9.08124 l 0.40452,-6.87139 -3.73785,0.95611 c -8.88208,2.27197 -9.03424,2.12068 -9.46432,-9.40976 -0.43664,-11.70646 0.0951,-12.76428 7.44856,-14.81875 4.38025,-1.22379 5.02068,-1.95293 5.61125,-6.38875 0.36667,-2.75401 1.11667,-4.98742 1.66667,-4.96314 0.55,0.0243 1.6,0.0441 2.33333,0.0441 0.73333,0 1.33333,1.81143 1.33333,4.0254 0,4.51359 -0.22598,4.51253 14.66667,0.0681 l 7.33333,-2.1885 0.66667,-7.27427 c 0.50811,-5.54415 1.22163,-7.37955 3,-7.71693 1.97897,-0.37543 2.33333,0.6066 2.33333,6.46632 0,6.89044 0.009,6.90629 3.66667,5.90969 8.92784,-2.43316 8.96337,-2.39421 9.38391,10.28508 l 0.3839,11.57489 -6.3839,1.79702 -6.38391,1.79702 -0.40868,7.12488 -0.40868,7.12488 3.74201,-1.0182 c 9.01802,-2.45381 9.03816,-2.43188 9.45979,10.30271 l 0.38444,11.61143 -6.38444,1.85453 c -6.00832,1.74529 -6.42372,2.16092 -7.05111,7.05525 -0.8473,6.60986 -4.47118,7.22807 -5.08448,0.86738 -0.2298,-2.38334 -0.5298,-4.31522 -0.66666,-4.29307 -0.13687,0.0221 -5.04886,1.39075 -10.91552,3.04133 l -10.66667,3.00108 -0.39987,7.62533 c -0.34268,6.53469 -0.77177,7.62533 -3,7.62533 -2.23588,-10e-6 -2.60013,-0.94653 -2.60013,-6.75653 z m 17.33333,-36.30163 10,-3.04308 0.40451,-6.99266 c 0.46015,-7.95417 1.69319,-7.69621 -14.24053,-2.97917 l -7.49731,2.21952 -0.40301,6.92676 c -0.22166,3.80973 0.0784,6.92339 0.66666,6.91924 0.58832,-0.004 5.56968,-1.37692 11.06968,-3.05061 z m -372.46002,36.61983 c -1.92163,-2.12338 -2.20665,-6.48827 -2.20665,-33.79335 0,-36.25455 -0.15872,-35.76834 11.67641,-35.76834 11.17692,0 10.99025,-0.60956 10.99025,35.88859 0,29.0153 -0.20637,31.88488 -2.43832,33.90476 -3.48569,3.15451 -15.09227,3.00531 -18.02169,-0.23166 z m 27.27992,0.62297 c -1.08765,-1.31055 -1.43004,-11.49758 -1.17691,-35.01644 0.34615,-32.16032 0.43803,-33.16822 3.02367,-33.16822 2.58643,0 2.67737,1.00751 3.02251,33.48472 0.28925,27.21775 0.0107,33.77141 -1.48976,35.01645 -1.40823,1.16873 -2.20911,1.09373 -3.37951,-0.31651 z m 519.8468,-3.12293 c -1.1,-0.40026 -3.65,-2.26515 -5.6667,-4.14419 -6.88853,-6.41844 -3.3807,-17.62171 7.2091,-23.0242 4.6742,-2.38462 7.2099,-2.7691 14.719,-2.23182 l 9.0719,0.6491 v -28.48864 c 0,-27.59975 0.083,-28.48864 2.6667,-28.48864 2.6004,0 2.6666,0.88889 2.6666,35.80282 0,34.94031 -0.072,35.91196 -3.0107,40.33334 -5.2127,7.84388 -19.1632,12.68251 -27.6559,9.59223 z m 35.4285,-3.82363 c -2.4787,-2.47879 -2.5,-2.657 -0.715,-5.99242 1.5556,-2.90661 5.284,-3.38149 7.6865,-0.97901 2.4025,2.40248 1.9276,6.13085 -0.979,7.68643 -3.3355,1.78505 -3.5137,1.76379 -5.9925,-0.715 z m -414.10383,-1.81722 c -10.29031,-3.13017 -19.25541,-11.47529 -20.72111,-19.28813 -1.36837,-7.29407 0.56571,-12.70556 6.75199,-18.89184 16.26647,-16.26647 49.87928,-11.55304 57.36343,8.04392 1.52764,4.00007 1.97004,7.51115 1.35769,10.77521 -1.23633,6.59026 -10.35236,15.54126 -18.73756,18.39838 -6.65898,2.26894 -20.08631,2.76572 -26.01444,0.96246 z m 21.00863,-11.84593 c 2.73441,-3.42013 2.02233,-12.65281 -1.36335,-17.67681 -10.48101,-15.55279 -24.33201,-5.67235 -16.16757,11.53293 4.035,8.50313 13.10369,11.68135 17.53092,6.14388 z m -149.00001,1.09172 c -1.46666,-1.46667 -2.66666,-3.26667 -2.66666,-4 0,-1.57079 4.8691,-6.66667 6.36998,-6.66667 2.42058,0 6.96335,4.34924 6.96335,6.66667 0,2.31743 -4.54277,6.66667 -6.96335,6.66667 -0.57016,0 -2.23665,-1.2 -3.70332,-2.66667 z m -1.38118,-21.42275 c -1.14739,-2.1439 -1.00291,-3.4766 0.65049,-6 2.58219,-3.9409 6.15656,-4.15829 9.40227,-0.57184 1.99809,2.20788 2.15477,3.25023 0.90189,6 -1.97152,4.32703 -8.75541,4.68115 -10.95465,0.57184 z M 825.6836,163.44204 c -9.32081,-3.33247 -12.56169,-10.11198 -7.33333,-15.34034 3.43649,-3.43649 7.27957,-3.38709 10.80556,0.1389 2.07167,2.07166 2.60355,3.81554 2.03333,6.66666 -0.64844,3.24216 -0.33948,3.86111 1.92732,3.86111 4.82388,0 10.72791,-4.05915 12.67216,-8.7124 2.9928,-7.1628 2.51919,-8.05689 -5.1806,-9.78003 -9.05038,-2.02538 -16.3499,-8.01268 -20.41674,-16.74642 -7.11911,-15.28863 -1.80934,-28.448418 16.99781,-42.127592 l 9.16116,-6.663266 v -7.743147 c 0,-15.094734 5.9676,-26.711561 14.84876,-28.905308 6.87004,-1.696973 11.79145,7.970067 9.94287,19.530561 -1.24176,7.765533 -5.41179,15.1758 -12.20036,21.680387 -5.71534,5.476254 -5.92359,5.955654 -5.89575,13.571987 0.0277,7.577668 0.20148,7.975668 4.32071,9.895228 13.68953,6.37931 13.74084,26.51409 0.09,35.33333 -3.30867,2.1376 -4.26171,3.82115 -4.80364,8.48566 -1.51459,13.03641 -14.66392,21.25421 -26.96928,16.85468 z m 21.71495,-39.68911 c 0.32963,-11.21539 0.0886,-12.98456 -1.76923,-12.98456 -3.57748,0 -9.9435,7.38675 -9.96613,11.56411 -0.0159,2.92357 -0.3104,3.32052 -1.31292,1.76922 -3.85563,-5.96614 0.78045,-17.1745 8.65755,-20.93084 4.27854,-2.04029 4.67578,-2.71849 4.67578,-7.982771 0,-3.164187 -0.39746,-5.753054 -0.88326,-5.753054 -2.38191,0 -14.41655,8.976761 -18.9704,14.150215 -6.50094,7.38545 -7.58866,12.3784 -4.31088,19.78833 2.74601,6.20782 7.79941,10.45663 14.87993,12.51076 8.39425,2.43527 8.57876,2.18656 8.99956,-12.13141 z m 13.02248,5.54527 c 1.27917,-2.47364 1.77919,-5.51106 1.28077,-7.7803 -0.85448,-3.8904 -5.19913,-9.4162 -7.40348,-9.4162 -0.72508,0 -1.28138,5.23007 -1.28138,12.04691 0,11.61285 0.0956,11.99576 2.65286,10.62715 1.45908,-0.78088 3.59714,-3.24578 4.75123,-5.47756 z m -0.17465,-64.103165 c 4.58738,-5.359347 5.68782,-9.151561 3.96124,-13.650947 -1.19824,-3.122574 -3.98818,-2.570547 -7.80339,1.543986 -2.73523,2.949827 -3.38729,5.003187 -3.38729,10.666667 0,3.857494 0.55324,7.013627 1.22944,7.013627 0.67618,0 3.37618,-2.508 6,-5.573333 z M 462.3136,159.16289 c -4.86257,-3.3514 -6.54019,-5.94609 -6.5876,-10.1888 -0.0572,-5.11789 3.21838,-10.31505 8.99176,-14.26667 4.07286,-2.78768 6.32531,-3.27238 15.20706,-3.27238 h 10.42604 l -3.1e-4,-28.33334 c -2.8e-4,-26.572945 0.15139,-28.333332 2.44107,-28.333332 1.34275,0 3.20523,1.427307 4.13885,3.171787 0.93362,1.744493 3.82258,4.294493 6.4199,5.666667 9.31533,4.921347 12.55305,13.890947 7.69208,21.309718 -2.00938,3.0667 -1.97218,3.49904 0.5804,6.74411 3.34338,4.25043 3.48577,9.85329 0.39408,15.50727 l -2.33334,4.26712 -0.43178,-5.33334 c -0.2375,-2.93333 -1.43608,-6.44476 -2.66352,-7.80317 -2.06715,-2.28769 -8.4838,-6.19683 -10.17182,-6.19683 -0.40308,0 -0.73288,8.07912 -0.73288,17.9536 v 17.95362 l -4.3125,4.91166 c -2.37187,2.70142 -6.2526,5.7223 -8.62384,6.71307 -6.05286,2.52904 -16.42802,2.29001 -20.43365,-0.47076 z m 45.36999,-56.82877 c 0,-4.549098 -2.98396,-8.344045 -9,-11.446045 -2.73864,-1.412106 -3,-1.244746 -3,1.92104 0,4.348107 2.14264,8.615295 5.82272,11.596265 4.35112,3.52455 6.17728,2.91223 6.17728,-2.07126 z m 120.41722,56.35576 c -5.25009,-1.59082 -9.75055,-7.08528 -9.75055,-11.90415 0,-5.14071 5.09359,-11.98149 11.33334,-15.22089 5.51778,-2.86459 14.96351,-3.65739 20.33333,-1.70662 l 3,1.08986 v -28.67784 c 0,-19.092818 0.48119,-28.975218 1.43971,-29.567605 0.79183,-0.489387 3.35597,1.1252 5.69808,3.587973 2.34211,2.462774 6.21919,5.51416 8.61571,6.780881 2.5623,1.354346 5.15974,4.223573 6.30516,6.964933 1.7318,4.144787 1.7096,5.257174 -0.20019,10.030198 -2.75545,6.88655 -4.26699,6.80603 -4.7818,-0.254731 -0.34199,-4.69028 -1.1616,-6.12804 -4.94051,-8.666667 -2.49178,-1.673933 -5.04178,-3.04352 -5.66666,-3.04352 -0.6249,0 -1.13616,12.811268 -1.13616,28.469498 0,27.32701 -0.1204,28.64664 -3,32.88401 -5.26159,7.74247 -17.96557,12.04777 -27.24946,9.23467 z m 401.99519,-4.92151 c -9.9334,-10.65027 -8.1585,-18.68339 5.0944,-23.05725 l 4.6736,-1.54242 -8.6786,-8.98942 c -4.7732,-4.94419 -9.0708,-10.5524 -9.5503,-12.4627 -1.2333,-4.91409 1.1887,-11.206464 8.0814,-20.994905 6.6463,-9.438667 7.3543,-13.638227 3.068,-18.200707 -1.5945,-1.697267 -2.3179,-3.085933 -1.6077,-3.085933 3.1442,0 16.0412,9.096547 18.904,13.333333 4.1265,6.107187 3.3349,10.973014 -3.6721,22.569952 -2.9655,4.90802 -5.3918,10.14889 -5.3918,11.64636 0,1.49746 1.4801,4.7614 3.2891,7.25318 1.809,2.49178 4.28,5.88351 5.4911,7.53719 2.7933,3.81411 1.5279,5.45644 -7.4405,9.65703 -8.4556,3.9604 -9.7258,7.82945 -5.8694,17.87909 1.3254,3.45387 -2.6189,2.50175 -6.3912,-1.5428 z m -8.4124,-170.938711 c -3.5135,-1.453267 -8.1303,-6.636987 -9.2766,-10.41556 -1.4255,-4.699334 1.5909,-11.683747 7.2566,-16.802387 7.9339,-7.167774 18.4513,-9.315467 27.3699,-5.589027 l 4.5975,1.920973 0.3596,-28.236894 c 0.3222,-25.298464 0.5946,-28.282044 2.617,-28.670774 3.5225,-0.67707 4.0654,5.6662 3.5469,41.445961 l -0.4709,32.495748 -3.7439,4.90764 c -5.2816,6.923267 -12.4304,10.235187 -21.8696,10.13184 -4.2459,-0.04653 -8.9198,-0.580867 -10.3865,-1.18752 z m 20,-6.545933 c 6.6034,-3.003841 8.5882,-5.331974 9.5386,-11.188881 1.0394,-6.404827 -3.9424,-10.32648 -13.118,-10.32648 -7.5146,0 -12.9758,2.409333 -16.9695,7.486507 -8.9797,11.415827 5.1249,21.045094 20.5489,14.028854 z m -576.24946,5.072813 c -10.72812,-3.250707 -12.76735,-15.417427 -3.93996,-23.507134 7.08042,-6.488707 17.74139,-8.525414 26.49637,-5.061947 2.13812,0.84584 2.3333,-1.219493 2.66667,-28.219894 0.30679,-24.846824 0.65393,-29.132534 2.35971,-29.132534 1.71998,0 2.04765,5.040171 2.34038,36.000001 0.31947,33.787614 0.17928,36.263001 -2.28102,40.279548 -4.68558,7.64936 -18.41421,12.438107 -27.64215,9.64196 z m 127.07519,0.09093 c -6.52704,-2.053413 -10.15907,-6.48724 -10.15907,-12.40172 0,-4.306827 0.91307,-6.170854 5.04834,-10.30612 7.30425,-7.304254 17.96805,-9.626587 27.285,-5.942054 2.184,0.863707 2.33333,-1.17696 2.33333,-31.886561 V -111.8983 h 34.05532 34.05532 l -0.38865,40.581038 -0.38865,40.581027 -4,4.204667 c -9.5468,10.03528 -23.77019,11.698107 -32.21351,3.766027 -5.10835,-4.799054 -4.33319,-12.233134 1.92851,-18.494827 7.30425,-7.304254 17.96805,-9.626587 27.285,-5.942054 2.1639,0.85576 2.33333,-0.638533 2.33333,-20.579747 V -89.28467 l -28.33333,0.35985 -28.33334,0.35985 -0.66667,28.915841 -0.66666,28.915841 -4,4.203187 c -7.05191,7.410147 -16.97875,10.555893 -25.17427,7.977573 z m 176.00001,0 c -6.52704,-2.053413 -10.15907,-6.48724 -10.15907,-12.40172 0,-11.50164 17.76336,-21.596414 29.88959,-16.986027 l 3.39653,1.291347 0.35693,-32.291348 0.35695,-32.291361 h 62 62 l 0.35311,38.773468 c 0.34959,38.384961 0.32275,38.819174 -2.67743,43.333334 -5.96228,8.971081 -21.23566,13.269121 -30.36904,8.546067 -4.80199,-2.483213 -6.63997,-5.74848 -6.63997,-11.79624 0,-10.089027 12.31187,-17.885574 26.01112,-16.471694 l 7.32221,0.75572 v -20.57032 -20.570334 h -26 -26 v 28.17596 c 0,25.610908 -0.23676,28.559041 -2.60079,32.384121 -2.83504,4.587187 -10.29865,9.301814 -16.9543,10.709734 -5.95527,1.25976 -14.47975,-1.379307 -17.70675,-5.48176 -4.44153,-5.646494 -3.63427,-11.872334 2.31017,-17.816787 7.30426,-7.304254 17.96806,-9.626587 27.285,-5.942054 2.16384,0.855734 2.33334,-0.637266 2.33334,-20.553227 V -89.231636 H 825.6836 798.35027 v 27.46516 c 0,22.625801 -0.38297,28.272215 -2.17351,32.045481 -3.91913,8.258974 -18.37156,14.092974 -27.66742,11.168467 z"
       id="path117-7-5"
       inkscape:connector-curvature="0"
       clip-path="url(#clipPath119-3-5)"
       transform="matrix(1.9180665,-0.01357632,0.01544991,1.6854644,-1082.3814,-239.8218)" />
    <path
       style="display:inline;fill:#fd7600;fill-opacity:1;stroke-width:1.33333337"
       d="m 675.40225,576.5102 c -0.29238,-0.59134 -0.49869,-3.77515 -0.45846,-7.07515 l 0.0732,-6 5.0651,-0.20145 5.06511,-0.20144 -0.39844,6.8681 c -0.38481,6.63322 -0.54237,6.8821 -4.60664,7.2766 -2.31451,0.22467 -4.44743,-0.0753 -4.73981,-0.66666 z m 5.61468,-1.74182 c 0,-0.73333 -0.93541,-1.33333 -2.07869,-1.33333 -1.14328,0 -1.70787,0.6 -1.25464,1.33333 0.45323,0.73334 1.38864,1.33334 2.07869,1.33334 0.69006,0 1.25464,-0.6 1.25464,-1.33334 z m 0.73847,-5.4495 c 1.37403,-2.22323 -1.71628,-4.77268 -3.55563,-2.93334 -1.53856,1.53856 -0.57562,4.38284 1.48383,4.38284 0.64677,0 1.57908,-0.65228 2.0718,-1.4495 z m 55.50273,5.55876 c 1.19798,-1.91826 1.22335,-3.33451 0.1016,-5.66667 -1.49254,-3.10289 -1.49578,-3.10325 -1.58584,-0.17551 -0.11,3.57454 -3.24261,5.52516 -7.55068,4.70163 -2.91318,-0.55688 -3.20628,-1.26908 -3.20628,-7.79081 0,-3.94784 0.6,-7.1779 1.33334,-7.1779 0.73333,0 1.33333,0.9 1.33333,2 0,1.8452 4.03003,2.76415 9.10333,2.0758 0.97351,-0.13213 2.09348,0.99683 2.48884,2.5087 0.91312,3.49174 2.55899,3.53082 3.46083,0.0821 0.38355,-1.46667 1.39395,-2.66667 2.24536,-2.66667 1.63964,0 1.14868,2.3422 -2.14171,10.2172 -1.2266,2.93567 -2.76412,4.44947 -4.51917,4.44947 -2.28843,0 -2.43693,-0.35731 -1.06295,-2.55741 z m -4.2412,-6.03056 c 0,-2.73882 -2.76033,-4.08451 -4.06109,-1.97984 -0.60296,0.9756 -0.80047,2.25246 -0.43891,2.83748 1.12056,1.81312 4.5,1.16904 4.5,-0.85764 z m 81.33334,1.25464 c 0,-7.18992 0.0751,-7.33334 3.83675,-7.33334 7.49017,0 9.78584,9.58318 2.49658,10.4219 -2.09866,0.24148 -3.66666,1.23929 -3.66666,2.33333 0,1.05129 -0.6,1.91144 -1.33334,1.91144 -0.73333,0 -1.33333,-3.3 -1.33333,-7.33333 z m 7.40513,-0.78284 c 1.37403,-2.22323 -1.71628,-4.77268 -3.55562,-2.93334 -1.53856,1.53856 -0.57563,4.38284 1.48382,4.38284 0.64678,0 1.57908,-0.65228 2.0718,-1.4495 z m -171.50408,2.68389 c -2.1184,-2.1184 -2.56772,-2.20365 -2.56772,-0.48723 0,1.58879 -1.18167,1.98268 -5,1.66667 -4.74252,-0.39252 -5,-0.6532 -5,-5.06223 0,-3.59278 0.60558,-4.76201 2.66666,-5.14862 1.46667,-0.27512 3.14649,-1.33335 3.73293,-2.3516 1.93288,-3.35612 3.59904,-1.93246 3.68493,3.14862 0.0751,4.44032 0.2232,4.65418 1.32348,1.91048 0.94921,-2.367 2.09875,-2.99062 4.91548,-2.66666 3.16712,0.36426 3.73243,1.09154 4.07997,5.24901 0.33279,3.98084 -0.0932,4.95604 -2.43228,5.56771 -1.79705,0.46994 -3.77625,-0.19895 -5.40345,-1.82615 z m 6.09895,-1.23439 c 0.45322,-0.73333 -0.44678,-1.33333 -2,-1.33333 -1.55323,0 -2.45323,0.6 -2,1.33333 0.45322,0.73334 1.35322,1.33334 2,1.33334 0.64677,0 1.54677,-0.6 2,-1.33334 z m -12.66667,-2.77777 c 0,-3.2494 -3.1157,-2.79009 -3.76443,0.55493 -0.25517,1.31568 0.42501,2.22284 1.66667,2.22284 1.23684,0 2.09776,-1.14 2.09776,-2.77777 z m 11.63889,-2.02779 c -0.44306,-0.44305 -1.59306,-0.49041 -2.55556,-0.1052 -1.06364,0.42563 -0.7477,0.74158 0.80556,0.80555 1.40555,0.0579 2.19306,-0.25724 1.75,-0.70029 z m 6.7549,7.81964 c -1.7027,-0.38929 -2.20443,-1.7524 -2,-5.43353 0.24465,-4.40556 0.65218,-4.91388 3.93954,-4.91388 2.01667,0 3.62732,0.6 3.57923,1.33333 -0.0481,0.73334 -1.09808,1.19274 -2.33333,1.0209 -1.41076,-0.19627 -1.13035,0.25134 0.7541,1.20374 1.65,0.83391 3,2.3034 3,3.26554 0,2.2041 -3.94661,4.2082 -6.93954,3.5239 z m 2.93954,-3.01408 c 0,-0.73333 -0.63541,-1.33333 -1.41202,-1.33333 -0.77662,0 -1.0412,0.6 -0.58798,1.33333 0.45323,0.73334 1.08864,1.33334 1.41203,1.33334 0.32339,0 0.58797,-0.6 0.58797,-1.33334 z m 36,2.95324 c -1.1,-0.37753 -2.44081,-1.34645 -2.97958,-2.15316 -0.67768,-1.01469 -0.98587,-0.95308 -1,0.19992 -0.0107,0.91667 -0.92042,1.66667 -2.02042,1.66667 -1.33333,0 -2,-1.33333 -2,-4 0,-4.95748 -2.33478,-5.30725 -2.91144,-0.43616 -0.69885,5.90337 -3.75522,5.43943 -3.75522,-0.57003 0,-5.02554 0.1762,-5.23502 4.5414,-5.39913 3.16765,-0.11907 4.80808,0.52139 5.423,2.11729 0.82865,2.1506 0.96028,2.14788 2.19152,-0.0453 1.64341,-2.92737 7.65045,-3.056 8.75125,-0.18739 0.75687,1.97238 0.92061,1.97238 2.0244,0 0.66052,-1.18026 2.30692,-2.14594 3.65869,-2.14594 1.35178,0 2.80312,-0.9 3.22524,-2 1.69238,-4.41026 3.51783,-1.64271 3.51783,5.33333 v 7.33333 h -4.70963 c -3.63789,0 -4.98405,-0.68269 -5.91549,-3 -0.89435,-2.225 -1.22768,-2.40934 -1.29036,-0.71357 -0.10013,2.70704 -3.92155,4.97131 -6.75119,4.00015 z m 5.33334,-3.76256 c 0,-0.2882 -1.23542,-0.52401 -2.74536,-0.52401 -1.50995,0 -2.39074,0.5738 -1.9573,1.27511 0.71148,1.1512 4.70266,0.51374 4.70266,-0.7511 z m 9.33333,-1.96845 c 0,-3.2494 -3.11569,-2.79009 -3.76443,0.55493 -0.25517,1.31568 0.42502,2.22284 1.66667,2.22284 1.23684,0 2.09776,-1.14 2.09776,-2.77777 z m -11.02777,-2.02779 c -0.44306,-0.44305 -1.59307,-0.49041 -2.55556,-0.1052 -1.06364,0.42563 -0.74771,0.74158 0.80556,0.80555 1.40554,0.0579 2.19305,-0.25724 1.75,-0.70029 z m 51.0784,6.86656 c -0.88507,-1.06644 -2.67852,-4.03634 -3.98543,-6.59978 l -2.3762,-4.66079 3.80592,-0.83592 c 2.09325,-0.45975 4.93593,-2.27251 6.31707,-4.02833 2.49044,-3.16609 2.53077,-3.17074 4.88957,-0.5643 1.30812,1.44547 4.07056,2.62812 6.13876,2.62812 3.4566,0 3.65834,0.26831 2.49742,3.32176 -0.69462,1.82696 -0.93338,4.18058 -0.53058,5.23024 0.4028,1.04967 -0.51404,3.15488 -2.0374,4.67824 -3.29456,3.29456 -12.25465,3.80027 -14.71913,0.83076 z m 5.04713,-9.17149 c 0.24943,-1.28609 -0.41977,-2.22284 -1.58797,-2.22284 -2.47698,0 -3.97195,2.17353 -2.79963,4.07039 1.20605,1.95141 3.86824,0.83041 4.3876,-1.84755 z m 45.41076,10.14667 c -1.18698,-0.27366 -2.82758,-1.81875 -3.64578,-3.43354 -1.35718,-2.67852 -1.46023,-2.70213 -1.17518,-0.2693 0.2599,2.21824 -0.4723,2.66666 -4.35422,2.66666 -4.09975,0 -4.71792,-0.44544 -5.08856,-3.66666 -0.59859,-5.20227 -4.24478,-4.8205 -4.24478,0.44444 0,5.21133 -2.9928,4.57502 -4.17558,-0.88778 l -0.84224,-3.89 -0.15776,4.33334 c -0.0996,2.73581 -0.8413,4.33333 -2.01187,4.33333 -2.37553,0 -3.57032,-9.15375 -1.6098,-12.33333 1.53236,-2.48522 6.13059,-3.23527 6.13059,-1 0,0.73333 -0.63542,1.33333 -1.41203,1.33333 -0.77661,0 -1.13367,0.45039 -0.79345,1.00087 0.34021,0.55046 4.12562,0.89468 8.41202,0.76492 5.26178,-0.1593 8.49792,0.40053 9.96204,1.72336 1.91379,1.72909 2.2654,1.70705 2.99243,-0.18755 0.5452,-1.42079 2.06647,-2.00392 4.49807,-1.72423 3.04542,0.3503 3.74462,1.1491 4.08545,4.66738 0.43677,4.5087 -2.34197,7.0994 -6.56935,6.12476 z m -7.17518,-3.03618 c 0.45322,-0.73333 -0.11134,-1.33333 -1.25464,-1.33333 -1.14328,0 -2.0787,0.6 -2.0787,1.33333 0,0.73334 0.56459,1.33334 1.25464,1.33334 0.69006,0 1.62547,-0.6 2.0787,-1.33334 z m 12,0 c 0.45322,-0.73333 -0.44678,-1.33333 -2,-1.33333 -1.55323,0 -2.45323,0.6 -2,1.33333 0.45322,0.73334 1.35322,1.33334 2,1.33334 0.64677,0 1.54677,-0.6 2,-1.33334 z m -1.02778,-4.80556 c -0.44305,-0.44305 -1.59306,-0.49041 -2.55556,-0.1052 -1.06364,0.42563 -0.7477,0.74158 0.80556,0.80555 1.40555,0.0579 2.19306,-0.25724 1.75,-0.70029 z m 40.02868,7.80818 c -3.03544,-0.69122 -4.4661,-6.43387 -2.26392,-9.08734 1.97556,-2.38042 8.1263,-2.05341 8.95735,0.47622 0.41073,1.25021 -0.38645,1.4856 -2.89717,0.85545 -2.88558,-0.72424 -3.46383,-0.4132 -3.46383,1.86315 0,3.1197 2.06955,4.93476 3.31989,2.91165 1.06292,-1.71984 3.34678,-1.76669 3.34678,-0.0687 0,1.82979 -4.24096,3.67759 -6.9991,3.04952 z m -179.66757,-5.66928 c 0,-2.93334 0.6,-5.33334 1.33333,-5.33334 0.73333,0 1.33333,2.4 1.33333,5.33334 0,2.93333 -0.6,5.33333 -1.33333,5.33333 -0.73333,0 -1.33333,-2.4 -1.33333,-5.33333 z m 156,0 c 0,-2.93334 0.6,-5.33334 1.33333,-5.33334 0.73334,0 1.33334,2.4 1.33334,5.33334 0,2.93333 -0.6,5.33333 -1.33334,5.33333 -0.73333,0 -1.33333,-2.4 -1.33333,-5.33333 z m 4.26365,-1.56187 c 0.4268,-7.30209 3.73635,-11.09549 3.73635,-4.28257 0,2.88641 0.35556,3.35554 1.6,2.1111 2.55264,-2.55264 3.84997,-1.8623 2.98403,1.58788 -0.44006,1.75332 -0.15148,3.58874 0.64126,4.07868 0.79276,0.48995 1.44138,1.45542 1.44138,2.14547 0,2.07111 -2.9159,1.41728 -4.8106,-1.07869 -1.68691,-2.22223 -1.77328,-2.22223 -1.81367,0 -0.0233,1.28333 -0.97376,2.33333 -2.11208,2.33333 -1.65583,0 -1.98909,-1.37876 -1.66667,-6.8952 z m 11.73635,5.56187 c 0,-0.73334 0.6,-1.33334 1.33333,-1.33334 0.73334,0 1.33334,0.6 1.33334,1.33334 0,0.73333 -0.6,1.33333 -1.33334,1.33333 -0.73333,0 -1.33333,-0.6 -1.33333,-1.33333 z m 16.51937,-0.5697 c -0.40164,-1.04666 -0.53281,-3.29666 -0.29148,-5 0.4951,-3.49446 5.41391,-4.94073 8.39346,-2.46792 1.27165,1.05539 2.06928,1.07754 2.68908,0.0747 0.49274,-0.79727 3.92462,-1.26661 7.78537,-1.06473 l 6.9042,0.36101 0.41383,5 c 0.23955,2.89439 -0.18157,5 -1,5 -0.77761,0 -1.41383,-1.8 -1.41383,-4 0,-2.2 -0.6,-4 -1.33333,-4 -0.73333,0 -1.33334,1.8 -1.33334,4 0,2.66667 -0.66666,4 -2,4 -1.3419,0 -2,-1.34208 -2,-4.07869 0,-2.3796 -0.55544,-3.73542 -1.33333,-3.25464 -0.73333,0.45322 -1.33333,2.28864 -1.33333,4.07869 0,3.56637 -1.26219,4.12579 -3.73334,1.65464 -1.24444,-1.24444 -1.6,-1.24444 -1.6,0 0,2.2802 -7.92726,2.00765 -8.81396,-0.30303 z m 6.59206,-4.19445 c -0.40154,-1.04639 -1.23046,-1.90252 -1.84206,-1.90252 -1.80245,0 -2.9015,2.63151 -2.03841,4.88068 0.6314,1.6454 1.20319,1.7522 2.70556,0.50533 1.04773,-0.86953 1.57644,-2.43712 1.17491,-3.48349 z m -195.11143,-7.23585 c 0,-0.73334 0.6,-1.33334 1.33333,-1.33334 0.73333,0 1.33333,0.6 1.33333,1.33334 0,0.73333 -0.6,1.33333 -1.33333,1.33333 -0.73333,0 -1.33333,-0.6 -1.33333,-1.33333 z m 156,0 c 0,-0.73334 0.6,-1.33334 1.33333,-1.33334 0.73334,0 1.33334,0.6 1.33334,1.33334 0,0.73333 -0.6,1.33333 -1.33334,1.33333 -0.73333,0 -1.33333,-0.6 -1.33333,-1.33333 z M 466.90975,492.96989 c -0.37958,-0.98918 -0.51075,-17.14195 -0.29148,-35.89507 l 0.39866,-34.09658 3.33333,-3.61416 c 7.10085,-7.69908 19.35351,-10.57292 28.60217,-6.70858 11.39847,4.76258 9.3506,19.68118 -3.55952,25.93087 -6.32858,3.06361 -16.7911,3.7907 -21.1303,1.46844 -2.51181,-1.34428 -2.57902,-0.64934 -2.57902,26.66666 0,24.29716 -0.27298,28.04691 -2.04184,28.04691 -1.12302,0 -2.35242,-0.80932 -2.732,-1.79849 z m 353.70884,0.95569 c -0.51424,-0.51424 -0.93499,-15.53497 -0.93499,-33.37943 v -32.44444 h -6.50341 c -3.76947,0 -7.11921,-0.742 -7.96827,-1.76505 -2.49361,-3.00463 1.06628,-4.90162 9.19836,-4.90162 6.01247,0 8.03768,-0.57436 10.06667,-2.85497 3.78172,-4.25071 12.42325,-7.74996 19.20665,-7.77743 6.76872,-0.0275 14.5636,3.95026 15.61422,7.96783 0.5241,2.00416 2.09932,2.61819 7.52433,2.93303 5.83983,0.33892 6.86145,0.79526 6.86145,3.06488 0,2.23678 -1.1111,2.77413 -6.89245,3.33333 -5.57892,0.53961 -7.46469,1.39736 -9.8952,4.50084 -5.53303,7.06506 -21.70964,11.43158 -27.87901,7.52532 -1.74675,-1.10598 -2.08442,2.22894 -2.66667,26.33703 -0.56792,23.51461 -0.97255,27.66203 -2.73168,27.99951 -1.13576,0.21789 -2.48576,-0.0245 -3,-0.53883 z m 182.39831,-1.23209 c -5.99111,-3.08314 -8.60349,-7.19302 -8.63697,-13.58794 -0.0587,-11.20474 14.07767,-21.44565 27.61297,-20.0039 3.4965,0.37245 7.4074,1.11402 8.6907,1.64794 2.1761,0.90534 2.3347,-0.81345 2.3538,-25.50522 0.011,-14.56181 0.5506,-27.31342 1.1987,-28.33695 0.6481,-1.02352 2.1389,-1.49235 3.3129,-1.04184 1.8814,0.72194 2.1346,4.9259 2.1346,35.44083 0,35.87516 -0.4646,39.5326 -5.7555,45.30453 -6.8079,7.42693 -22.3542,10.48607 -30.9112,6.08255 z m 20.1567,-5.81011 c 6.6519,-3.02073 9.8433,-7.25107 9.8433,-13.0476 0,-10.99627 -18.7705,-12.56349 -28.9194,-2.4146 -5.18801,5.18799 -5.66159,9.74723 -1.4139,13.61175 5.5732,5.07042 12.1012,5.65997 20.49,1.85045 z m -388.48908,3.23089 c -2.38283,-1.03568 -5.02915,-3.4122 -5.8807,-5.28114 -1.35089,-2.9649 -2.3762,-3.39808 -8.04276,-3.39808 -4.72486,0 -6.71768,-0.58163 -7.3136,-2.13456 -1.11162,-2.89686 1.82068,-4.48719 8.31872,-4.5117 4.4997,-0.0169 5.93344,-0.7204 8.47502,-4.15806 4.72874,-6.39596 13.47641,-9.66507 23.67231,-8.84664 l 8.43676,0.67721 v -27.27756 c 0,-25.26068 0.17252,-27.24439 2.33333,-26.82884 2.1356,0.41069 2.36356,3.24365 2.68996,33.43109 l 0.35663,32.98239 6.31004,0.0204 c 7.33816,0.0237 10.36602,1.50655 9.21284,4.51169 -0.63255,1.64838 -2.75554,2.13456 -9.32098,2.13456 -7.00908,0 -8.94784,0.50128 -11.04184,2.85498 -6.15621,6.91965 -19.39568,9.65349 -28.20573,5.82425 z m 410.38548,0.0515 c -1.9342,-2.33063 -0.7422,-6.84756 2.0943,-7.93603 2.8624,-1.09841 7.186,1.50018 7.186,4.31895 0,5.01547 -6.1351,7.40669 -9.2803,3.61708 z M 818.35027,320.01186 c 0,-6.41718 -0.15067,-6.70578 -3,-5.74635 -1.65,0.55558 -4.5,1.04601 -6.33333,1.08985 -3.29951,0.0788 -3.33334,-0.0349 -3.33334,-11.21569 v -11.29536 l 6,-2.20984 c 5.95236,-2.1923 6.00322,-2.2644 6.40451,-9.08124 l 0.40452,-6.87139 -3.73785,0.95611 c -8.88208,2.27197 -9.03424,2.12068 -9.46432,-9.40976 -0.43664,-11.70646 0.0951,-12.76428 7.44856,-14.81875 4.38025,-1.22379 5.02068,-1.95293 5.61125,-6.38875 0.36667,-2.75401 1.11667,-4.98742 1.66667,-4.96314 0.55,0.0243 1.6,0.0441 2.33333,0.0441 0.73333,0 1.33333,1.81143 1.33333,4.0254 0,4.51359 -0.22598,4.51253 14.66667,0.0681 l 7.33333,-2.1885 0.66667,-7.27427 c 0.50811,-5.54415 1.22163,-7.37955 3,-7.71693 1.97897,-0.37543 2.33333,0.6066 2.33333,6.46632 0,6.89044 0.009,6.90629 3.66667,5.90969 8.92784,-2.43316 8.96337,-2.39421 9.38391,10.28508 l 0.3839,11.57489 -6.3839,1.79702 -6.38391,1.79702 -0.40868,7.12488 -0.40868,7.12488 3.74201,-1.0182 c 9.01802,-2.45381 9.03816,-2.43188 9.45979,10.30271 l 0.38444,11.61143 -6.38444,1.85453 c -6.00832,1.74529 -6.42372,2.16092 -7.05111,7.05525 -0.8473,6.60986 -4.47118,7.22807 -5.08448,0.86738 -0.2298,-2.38334 -0.5298,-4.31522 -0.66666,-4.29307 -0.13687,0.0221 -5.04886,1.39075 -10.91552,3.04133 l -10.66667,3.00108 -0.39987,7.62533 c -0.34268,6.53469 -0.77177,7.62533 -3,7.62533 -2.23588,-10e-6 -2.60013,-0.94653 -2.60013,-6.75653 z m 17.33333,-36.30163 10,-3.04308 0.40451,-6.99266 c 0.46015,-7.95417 1.69319,-7.69621 -14.24053,-2.97917 l -7.49731,2.21952 -0.40301,6.92676 c -0.22166,3.80973 0.0784,6.92339 0.66666,6.91924 0.58832,-0.004 5.56968,-1.37692 11.06968,-3.05061 z m -372.46002,36.61983 c -1.92163,-2.12338 -2.20665,-6.48827 -2.20665,-33.79335 0,-36.25455 -0.15872,-35.76834 11.67641,-35.76834 11.17692,0 10.99025,-0.60956 10.99025,35.88859 0,29.0153 -0.20637,31.88488 -2.43832,33.90476 -3.48569,3.15451 -15.09227,3.00531 -18.02169,-0.23166 z m 27.27992,0.62297 c -1.08765,-1.31055 -1.43004,-11.49758 -1.17691,-35.01644 0.34615,-32.16032 0.43803,-33.16822 3.02367,-33.16822 2.58643,0 2.67737,1.00751 3.02251,33.48472 0.28925,27.21775 0.0107,33.77141 -1.48976,35.01645 -1.40823,1.16873 -2.20911,1.09373 -3.37951,-0.31651 z m 519.8468,-3.12293 c -1.1,-0.40026 -3.65,-2.26515 -5.6667,-4.14419 -6.88853,-6.41844 -3.3807,-17.62171 7.2091,-23.0242 4.6742,-2.38462 7.2099,-2.7691 14.719,-2.23182 l 9.0719,0.6491 v -28.48864 c 0,-27.59975 0.083,-28.48864 2.6667,-28.48864 2.6004,0 2.6666,0.88889 2.6666,35.80282 0,34.94031 -0.072,35.91196 -3.0107,40.33334 -5.2127,7.84388 -19.1632,12.68251 -27.6559,9.59223 z m 35.4285,-3.82363 c -2.4787,-2.47879 -2.5,-2.657 -0.715,-5.99242 1.5556,-2.90661 5.284,-3.38149 7.6865,-0.97901 2.4025,2.40248 1.9276,6.13085 -0.979,7.68643 -3.3355,1.78505 -3.5137,1.76379 -5.9925,-0.715 z m -414.10383,-1.81722 c -10.29031,-3.13017 -19.25541,-11.47529 -20.72111,-19.28813 -1.36837,-7.29407 0.56571,-12.70556 6.75199,-18.89184 16.26647,-16.26647 49.87928,-11.55304 57.36343,8.04392 1.52764,4.00007 1.97004,7.51115 1.35769,10.77521 -1.23633,6.59026 -10.35236,15.54126 -18.73756,18.39838 -6.65898,2.26894 -20.08631,2.76572 -26.01444,0.96246 z m 21.00863,-11.84593 c 2.73441,-3.42013 2.02233,-12.65281 -1.36335,-17.67681 -10.48101,-15.55279 -24.33201,-5.67235 -16.16757,11.53293 4.035,8.50313 13.10369,11.68135 17.53092,6.14388 z m -149.00001,1.09172 c -1.46666,-1.46667 -2.66666,-3.26667 -2.66666,-4 0,-1.57079 4.8691,-6.66667 6.36998,-6.66667 2.42058,0 6.96335,4.34924 6.96335,6.66667 0,2.31743 -4.54277,6.66667 -6.96335,6.66667 -0.57016,0 -2.23665,-1.2 -3.70332,-2.66667 z m -1.38118,-21.42275 c -1.14739,-2.1439 -1.00291,-3.4766 0.65049,-6 2.58219,-3.9409 6.15656,-4.15829 9.40227,-0.57184 1.99809,2.20788 2.15477,3.25023 0.90189,6 -1.97152,4.32703 -8.75541,4.68115 -10.95465,0.57184 z M 825.6836,163.44204 c -9.32081,-3.33247 -12.56169,-10.11198 -7.33333,-15.34034 3.43649,-3.43649 7.27957,-3.38709 10.80556,0.1389 2.07167,2.07166 2.60355,3.81554 2.03333,6.66666 -0.64844,3.24216 -0.33948,3.86111 1.92732,3.86111 4.82388,0 10.72791,-4.05915 12.67216,-8.7124 2.9928,-7.1628 2.51919,-8.05689 -5.1806,-9.78003 -9.05038,-2.02538 -16.3499,-8.01268 -20.41674,-16.74642 -7.11911,-15.28863 -1.80934,-28.448418 16.99781,-42.127592 l 9.16116,-6.663266 v -7.743147 c 0,-15.094734 5.9676,-26.711561 14.84876,-28.905308 6.87004,-1.696973 11.79145,7.970067 9.94287,19.530561 -1.24176,7.765533 -5.41179,15.1758 -12.20036,21.680387 -5.71534,5.476254 -5.92359,5.955654 -5.89575,13.571987 0.0277,7.577668 0.20148,7.975668 4.32071,9.895228 13.68953,6.37931 13.74084,26.51409 0.09,35.33333 -3.30867,2.1376 -4.26171,3.82115 -4.80364,8.48566 -1.51459,13.03641 -14.66392,21.25421 -26.96928,16.85468 z m 21.71495,-39.68911 c 0.32963,-11.21539 0.0886,-12.98456 -1.76923,-12.98456 -3.57748,0 -9.9435,7.38675 -9.96613,11.56411 -0.0159,2.92357 -0.3104,3.32052 -1.31292,1.76922 -3.85563,-5.96614 0.78045,-17.1745 8.65755,-20.93084 4.27854,-2.04029 4.67578,-2.71849 4.67578,-7.982771 0,-3.164187 -0.39746,-5.753054 -0.88326,-5.753054 -2.38191,0 -14.41655,8.976761 -18.9704,14.150215 -6.50094,7.38545 -7.58866,12.3784 -4.31088,19.78833 2.74601,6.20782 7.79941,10.45663 14.87993,12.51076 8.39425,2.43527 8.57876,2.18656 8.99956,-12.13141 z m 13.02248,5.54527 c 1.27917,-2.47364 1.77919,-5.51106 1.28077,-7.7803 -0.85448,-3.8904 -5.19913,-9.4162 -7.40348,-9.4162 -0.72508,0 -1.28138,5.23007 -1.28138,12.04691 0,11.61285 0.0956,11.99576 2.65286,10.62715 1.45908,-0.78088 3.59714,-3.24578 4.75123,-5.47756 z m -0.17465,-64.103165 c 4.58738,-5.359347 5.68782,-9.151561 3.96124,-13.650947 -1.19824,-3.122574 -3.98818,-2.570547 -7.80339,1.543986 -2.73523,2.949827 -3.38729,5.003187 -3.38729,10.666667 0,3.857494 0.55324,7.013627 1.22944,7.013627 0.67618,0 3.37618,-2.508 6,-5.573333 z M 462.3136,159.16289 c -4.86257,-3.3514 -6.54019,-5.94609 -6.5876,-10.1888 -0.0572,-5.11789 3.21838,-10.31505 8.99176,-14.26667 4.07286,-2.78768 6.32531,-3.27238 15.20706,-3.27238 h 10.42604 l -3.1e-4,-28.33334 c -2.8e-4,-26.572945 0.15139,-28.333332 2.44107,-28.333332 1.34275,0 3.20523,1.427307 4.13885,3.171787 0.93362,1.744493 3.82258,4.294493 6.4199,5.666667 9.31533,4.921347 12.55305,13.890947 7.69208,21.309718 -2.00938,3.0667 -1.97218,3.49904 0.5804,6.74411 3.34338,4.25043 3.48577,9.85329 0.39408,15.50727 l -2.33334,4.26712 -0.43178,-5.33334 c -0.2375,-2.93333 -1.43608,-6.44476 -2.66352,-7.80317 -2.06715,-2.28769 -8.4838,-6.19683 -10.17182,-6.19683 -0.40308,0 -0.73288,8.07912 -0.73288,17.9536 v 17.95362 l -4.3125,4.91166 c -2.37187,2.70142 -6.2526,5.7223 -8.62384,6.71307 -6.05286,2.52904 -16.42802,2.29001 -20.43365,-0.47076 z m 45.36999,-56.82877 c 0,-4.549098 -2.98396,-8.344045 -9,-11.446045 -2.73864,-1.412106 -3,-1.244746 -3,1.92104 0,4.348107 2.14264,8.615295 5.82272,11.596265 4.35112,3.52455 6.17728,2.91223 6.17728,-2.07126 z m 120.41722,56.35576 c -5.25009,-1.59082 -9.75055,-7.08528 -9.75055,-11.90415 0,-5.14071 5.09359,-11.98149 11.33334,-15.22089 5.51778,-2.86459 14.96351,-3.65739 20.33333,-1.70662 l 3,1.08986 v -28.67784 c 0,-19.092818 0.48119,-28.975218 1.43971,-29.567605 0.79183,-0.489387 3.35597,1.1252 5.69808,3.587973 2.34211,2.462774 6.21919,5.51416 8.61571,6.780881 2.5623,1.354346 5.15974,4.223573 6.30516,6.964933 1.7318,4.144787 1.7096,5.257174 -0.20019,10.030198 -2.75545,6.88655 -4.26699,6.80603 -4.7818,-0.254731 -0.34199,-4.69028 -1.1616,-6.12804 -4.94051,-8.666667 -2.49178,-1.673933 -5.04178,-3.04352 -5.66666,-3.04352 -0.6249,0 -1.13616,12.811268 -1.13616,28.469498 0,27.32701 -0.1204,28.64664 -3,32.88401 -5.26159,7.74247 -17.96557,12.04777 -27.24946,9.23467 z m 401.99519,-4.92151 c -9.9334,-10.65027 -8.1585,-18.68339 5.0944,-23.05725 l 4.6736,-1.54242 -8.6786,-8.98942 c -4.7732,-4.94419 -9.0708,-10.5524 -9.5503,-12.4627 -1.2333,-4.91409 1.1887,-11.206464 8.0814,-20.994905 6.6463,-9.438667 7.3543,-13.638227 3.068,-18.200707 -1.5945,-1.697267 -2.3179,-3.085933 -1.6077,-3.085933 3.1442,0 16.0412,9.096547 18.904,13.333333 4.1265,6.107187 3.3349,10.973014 -3.6721,22.569952 -2.9655,4.90802 -5.3918,10.14889 -5.3918,11.64636 0,1.49746 1.4801,4.7614 3.2891,7.25318 1.809,2.49178 4.28,5.88351 5.4911,7.53719 2.7933,3.81411 1.5279,5.45644 -7.4405,9.65703 -8.4556,3.9604 -9.7258,7.82945 -5.8694,17.87909 1.3254,3.45387 -2.6189,2.50175 -6.3912,-1.5428 z m -8.4124,-170.938711 c -3.5135,-1.453267 -8.1303,-6.636987 -9.2766,-10.41556 -1.4255,-4.699334 1.5909,-11.683747 7.2566,-16.802387 7.9339,-7.167774 18.4513,-9.315467 27.3699,-5.589027 l 4.5975,1.920973 0.3596,-28.236894 c 0.3222,-25.298464 0.5946,-28.282044 2.617,-28.670774 3.5225,-0.67707 4.0654,5.6662 3.5469,41.445961 l -0.4709,32.495748 -3.7439,4.90764 c -5.2816,6.923267 -12.4304,10.235187 -21.8696,10.13184 -4.2459,-0.04653 -8.9198,-0.580867 -10.3865,-1.18752 z m 20,-6.545933 c 6.6034,-3.003841 8.5882,-5.331974 9.5386,-11.188881 1.0394,-6.404827 -3.9424,-10.32648 -13.118,-10.32648 -7.5146,0 -12.9758,2.409333 -16.9695,7.486507 -8.9797,11.415827 5.1249,21.045094 20.5489,14.028854 z m -576.24946,5.072813 c -10.72812,-3.250707 -12.76735,-15.417427 -3.93996,-23.507134 7.08042,-6.488707 17.74139,-8.525414 26.49637,-5.061947 2.13812,0.84584 2.3333,-1.219493 2.66667,-28.219894 0.30679,-24.846824 0.65393,-29.132534 2.35971,-29.132534 1.71998,0 2.04765,5.040171 2.34038,36.000001 0.31947,33.787614 0.17928,36.263001 -2.28102,40.279548 -4.68558,7.64936 -18.41421,12.438107 -27.64215,9.64196 z m 127.07519,0.09093 c -6.52704,-2.053413 -10.15907,-6.48724 -10.15907,-12.40172 0,-4.306827 0.91307,-6.170854 5.04834,-10.30612 7.30425,-7.304254 17.96805,-9.626587 27.285,-5.942054 2.184,0.863707 2.33333,-1.17696 2.33333,-31.886561 V -111.8983 h 34.05532 34.05532 l -0.38865,40.581038 -0.38865,40.581027 -4,4.204667 c -9.5468,10.03528 -23.77019,11.698107 -32.21351,3.766027 -5.10835,-4.799054 -4.33319,-12.233134 1.92851,-18.494827 7.30425,-7.304254 17.96805,-9.626587 27.285,-5.942054 2.1639,0.85576 2.33333,-0.638533 2.33333,-20.579747 V -89.28467 l -28.33333,0.35985 -28.33334,0.35985 -0.66667,28.915841 -0.66666,28.915841 -4,4.203187 c -7.05191,7.410147 -16.97875,10.555893 -25.17427,7.977573 z m 176.00001,0 c -6.52704,-2.053413 -10.15907,-6.48724 -10.15907,-12.40172 0,-11.50164 17.76336,-21.596414 29.88959,-16.986027 l 3.39653,1.291347 0.35693,-32.291348 0.35695,-32.291361 h 62 62 l 0.35311,38.773468 c 0.34959,38.384961 0.32275,38.819174 -2.67743,43.333334 -5.96228,8.971081 -21.23566,13.269121 -30.36904,8.546067 -4.80199,-2.483213 -6.63997,-5.74848 -6.63997,-11.79624 0,-10.089027 12.31187,-17.885574 26.01112,-16.471694 l 7.32221,0.75572 v -20.57032 -20.570334 h -26 -26 v 28.17596 c 0,25.610908 -0.23676,28.559041 -2.60079,32.384121 -2.83504,4.587187 -10.29865,9.301814 -16.9543,10.709734 -5.95527,1.25976 -14.47975,-1.379307 -17.70675,-5.48176 -4.44153,-5.646494 -3.63427,-11.872334 2.31017,-17.816787 7.30426,-7.304254 17.96806,-9.626587 27.285,-5.942054 2.16384,0.855734 2.33334,-0.637266 2.33334,-20.553227 V -89.231636 H 825.6836 798.35027 v 27.46516 c 0,22.625801 -0.38297,28.272215 -2.17351,32.045481 -3.91913,8.258974 -18.37156,14.092974 -27.66742,11.168467 z"
       id="path117-7"
       inkscape:connector-curvature="0"
       clip-path="url(#clipPath119-3)"
       transform="matrix(1.9180665,-0.01357632,0.01544991,1.6854644,-1095.2582,-258.10473)" />
  </g>
</svg>
