<?xml version="1.0" encoding="UTF-8" standalone="no"?>
<svg
   xmlns:dc="http://purl.org/dc/elements/1.1/"
   xmlns:cc="http://creativecommons.org/ns#"
   xmlns:rdf="http://www.w3.org/1999/02/22-rdf-syntax-ns#"
   xmlns:svg="http://www.w3.org/2000/svg"
   xmlns="http://www.w3.org/2000/svg"
   viewBox="0 0 69 45"
   height="45"
   width="69"
   id="svg2"
   version="1.1">
  <metadata
     id="metadata8">
    <rdf:RDF>
      <cc:Work
         rdf:about="">
        <dc:format>image/svg+xml</dc:format>
        <dc:type
           rdf:resource="http://purl.org/dc/dcmitype/StillImage" />
        <dc:title></dc:title>
      </cc:Work>
    </rdf:RDF>
  </metadata>
  <defs
     id="defs6">
    <clipPath
       id="clipPath34"
       clipPathUnits="userSpaceOnUse">
      <rect
         y="-3.6386139"
         x="-6.4356437"
         height="57.178219"
         width="39.356434"
         id="rect36"
         style="opacity:0.88999999;fill:#040301;fill-opacity:1" />
    </clipPath>
    <clipPath
       id="clipPath38"
       clipPathUnits="userSpaceOnUse">
      <rect
         y="-3.6386139"
         x="-6.4356437"
         height="57.178219"
         width="39.356434"
         id="rect40"
         style="opacity:0.88999999;fill:#040301;fill-opacity:1" />
    </clipPath>
    <clipPath
       id="clipPath42"
       clipPathUnits="userSpaceOnUse">
      <rect
         y="-3.6386139"
         x="-6.4356437"
         height="57.178219"
         width="39.356434"
         id="rect44"
         style="opacity:0.88999999;fill:#040301;fill-opacity:1" />
    </clipPath>
    <clipPath
       id="clipPath46"
       clipPathUnits="userSpaceOnUse">
      <rect
         y="-3.6386139"
         x="-6.4356437"
         height="57.178219"
         width="39.356434"
         id="rect48"
         style="opacity:0.88999999;fill:#040301;fill-opacity:1" />
    </clipPath>
    <clipPath
       id="clipPath50"
       clipPathUnits="userSpaceOnUse">
      <rect
         y="-3.6386139"
         x="-6.4356437"
         height="57.178219"
         width="39.356434"
         id="rect52"
         style="opacity:0.88999999;fill:#040301;fill-opacity:1" />
    </clipPath>
    <clipPath
       id="clipPath54"
       clipPathUnits="userSpaceOnUse">
      <rect
         y="-3.6386139"
         x="-6.4356437"
         height="57.178219"
         width="39.356434"
         id="rect56"
         style="opacity:0.88999999;fill:#040301;fill-opacity:1" />
    </clipPath>
    <clipPath
       id="clipPath58"
       clipPathUnits="userSpaceOnUse">
      <rect
         y="-3.6386139"
         x="-6.4356437"
         height="57.178219"
         width="39.356434"
         id="rect60"
         style="opacity:0.88999999;fill:#040301;fill-opacity:1" />
    </clipPath>
  </defs>
  <g
     id="g12">
    <path
       clip-path="url(#clipPath58)"
       id="path26"
       d="M 3,18 V 6 H 7.5 12 V 7.5 9 h 3 3 v 1.5 1.5 h 3 3 V 13.5 15 H 25.5 27 V 16.5 18 H 25.5 24 V 16.5 15 H 21 18 V 13.5 12 H 15 12 V 10.5 9 H 9 6 V 19.5 30 H 4.5 3 Z"
       style="display:inline;fill:#c7e7df" />
    <path
       clip-path="url(#clipPath54)"
       id="path24"
       d="M 6,25.5 V 24 h 3 3 V 22.5 21 h 3 3 V 19.5 18 H 19.5 21 V 16.5 15 h 1.5 1.5 v 3 3 H 21 18 V 22.5 24 H 15 12 V 25.5 27 H 9 6 Z"
       style="display:inline;fill:#cfcfcf" />
    <path
       clip-path="url(#clipPath50)"
       id="path22"
       d="M 3,43.5 V 42 H 6 9 V 40.5 39 h 3 3 V 37.5 36 h 3 3 V 34.5 33 h 3 3 V 31.5 30 H 28.5 30 V 28.5 27 h 1.5 1.5 v -3 -3 h 1.5 c 2.787619,-0.370555 1.5,4.290278 1.5,6 H 34.5 33 V 28.5 30 H 31.5 30 V 31.5 33 H 28.5 27 V 34.5 36 H 24 21 V 37.5 39 H 18 15 V 40.5 42 H 12 9 V 43.5 45 H 6 3 Z m 0,-9 V 33 H 4.5 6 V 31.5 30 h 3 3 V 28.5 27 h 3 3 V 25.5 24 h 3 3 V 22.5 21 H 25.5 27 V 22.5 24 H 25.5 24 V 25.5 27 H 21 18 V 28.5 30 H 15 12 V 31.5 33 H 9 6 V 34.5 36 H 4.5 3 Z m 6,-18 V 12 h 1.5 1.5 v 1.5 1.5 h 3 3 V 16.5 18 H 15 12 V 19.5 21 H 10.5 9 Z"
       style="display:inline;fill:#a7a7a7" />
    <path
       clip-path="url(#clipPath46)"
       id="path20"
       d="M 42,22.5 V 15 h 3 3 v 1.5 1.5 h 3 3 v 1.5 1.5 h 3 3 v 1.5 1.5 h -3 -3 v 1.5 1.5 h -3 -3 v 1.5 1.5 h -3 -3 z"
       style="display:inline;fill:#f7f700" />
    <path
       clip-path="url(#clipPath42)"
       id="path18"
       d="M 39,34.5 V 33 H 40.5 42 V 31.5 30 h 3 3 V 28.5 27 h 3 3 V 25.5 24 h 3 3 V 25.5 27 H 57 54 V 28.5 30 H 51 48 V 31.5 33 H 45 42 V 34.5 36 H 40.5 39 Z"
       style="display:inline;fill:#f78f00" />
    <path
       clip-path="url(#clipPath38)"
       id="path16"
       d="M 3,40.5 V 39 H 4.5 6 V 37.5 36 h 3 3 V 34.5 33 h 3 3 V 31.5 30 h 3 3 V 28.5 27 H 25.5 27 V 25.5 24 H 28.5 30 V 22.5 21 h 1.5 1.5 v 3 3 H 31.5 30 V 28.5 30 H 28.5 27 V 31.5 33 H 24 21 V 34.5 36 H 18 15 V 37.5 39 H 12 9 V 40.5 42 H 6 3 Z m 36,0 V 39 H 40.5 42 V 37.5 36 h 3 3 V 34.5 33 h 3 3 V 31.5 30 h 3 3 V 28.5 27 H 61.5 63 V 25.5 24 h 3 3 V 25.5 27 H 67.5 66 V 28.5 30 H 64.5 63 V 31.5 33 H 60 57 V 34.5 36 H 54 51 V 37.5 39 H 48 45 V 40.5 42 H 42 39 Z M 0,18 V 0 H 3 6 V 1.5 3 h 3 3 V 4.5 6 h 3 3 V 7.5 9 h 3 3 V 10.5 12 H 25.5 27 V 13.5 15 H 28.5 30 V 16.5 18 H 28.5 27 V 19.5 21 H 25.5 24 V 22.5 24 H 21 18 V 25.5 27 H 15 12 V 28.5 30 H 9 6 V 31.5 33 H 4.5 3 V 34.5 36 H 1.5 0 Z M 6,28.5 V 27 h 3 3 V 25.5 24 h 3 3 V 22.5 21 h 3 3 V 19.5 18 H 25.5 27 V 16.5 15 H 25.5 24 V 13.5 12 H 21 18 V 10.5 9 H 15 12 V 7.5 6 H 9 6 V 4.5 3 H 4.5 3 V 16.5 30 H 4.5 6 Z m 0,-12 V 9 h 3 3 v 1.5 1.5 h 3 3 V 13.5 15 H 19.5 21 V 16.5 18 H 19.5 18 V 19.5 21 H 15 12 V 22.5 24 H 9 6 Z m 6,3 V 18 h 3 3 V 16.5 15 H 15 12 V 13.5 12 H 10.5 9 v 4.5 4.5 h 1.5 1.5 z"
       style="display:inline;fill:#6f6f6f" />
    <path
       clip-path="url(#clipPath34)"
       id="path14"
       d="M 3,37.5 V 36 H 4.5 6 V 34.5 33 h 3 3 V 31.5 30 h 3 3 V 28.5 27 h 3 3 V 25.5 24 h 1.5 1.5 v -3 -3 h 1.5 1.5 v 3 3 H 28.5 27 V 25.5 27 H 25.5 24 V 28.5 30 H 21 18 V 31.5 33 H 15 12 V 34.5 36 H 9 6 V 37.5 39 H 4.5 3 Z m 33,-15 V 6 h 3 3 V 7.5 9 h 3 3 v 1.5 1.5 h 3 3 v 1.5 1.5 h 3 3 V 16.5 18 H 61.5 63 V 19.5 21 H 64.5 66 V 22.5 24 H 64.5 63 V 25.5 27 H 61.5 60 v 1.5 1.5 h -3 -3 v 1.5 1.5 h -3 -3 v 1.5 1.5 h -3 -3 v 1.5 1.5 h -3 -3 z m 6,12 V 33 h 3 3 V 31.5 30 h 3 3 V 28.5 27 h 3 3 V 25.5 24 H 61.5 63 V 22.5 21 H 61.5 60 V 19.5 18 H 57 54 V 16.5 15 H 51 48 V 13.5 12 H 45 42 V 10.5 9 H 40.5 39 V 22.5 36 h 1.5 1.5 z"
       style="display:inline;fill:#000000" />
  </g>
</svg>
