<?xml version="1.0" encoding="UTF-8" standalone="no"?>
<svg
   xmlns:dc="http://purl.org/dc/elements/1.1/"
   xmlns:cc="http://creativecommons.org/ns#"
   xmlns:rdf="http://www.w3.org/1999/02/22-rdf-syntax-ns#"
   xmlns:svg="http://www.w3.org/2000/svg"
   xmlns="http://www.w3.org/2000/svg"
   id="svg109"
   version="1.1"
   viewBox="0 0 17.733276 22.69067"
   height="22.69067mm"
   width="17.733276mm">
  <defs
     id="defs103" />
  <metadata
     id="metadata106">
    <rdf:RDF>
      <cc:Work
         rdf:about="">
        <dc:format>image/svg+xml</dc:format>
        <dc:type
           rdf:resource="http://purl.org/dc/dcmitype/StillImage" />
        <dc:title></dc:title>
      </cc:Work>
    </rdf:RDF>
  </metadata>
  <path
     d="M 13.841938,1.648942 V 1.4422363 h 0.08268 0.08268 V 1.648942 1.8556478 h -0.08268 -0.08268 z M 13.351751,1.891083 C 13.274001,1.813125 13.212954,1.7491354 13.2161,1.748883 13.2192,1.7486305 13.26434,1.73378 13.316315,1.715882 l 0.09449,-0.032542 0.0034,-0.1205515 0.0034,-0.1205515 h 0.123611 0.12361 v 0.2952939 0.2952939 h -0.08582 -0.08582 z M 5.5500861,1.950142 V 1.86746 h 0.076777 0.076777 v 0.082682 0.082682 h -0.076777 -0.076777 z m -1.0448618,19.19771 c -0.00439,-0.0175 -0.015737,-0.05037 -0.025204,-0.07303 l -0.017216,-0.04121 -0.052852,0.05187 -0.052852,0.05187 v -0.108765 -0.108765 h 0.082682 0.082682 v 0.129929 c 0,0.07146 -0.00209,0.129929 -0.00462,0.129929 -0.00254,0 -0.00822,-0.01432 -0.012613,-0.03183 z M 3.3412879,20.193399 v -0.124024 h 0.082682 0.082682 v 0.124024 0.124023 h -0.082682 -0.082682 z m 0,-1.618211 v -0.112212 h 0.1149313 0.1149313 l -0.111745,0.112212 c -0.06146,0.06172 -0.1131789,0.112212 -0.1149312,0.112212 -0.00175,0 -0.00319,-0.0505 -0.00319,-0.112212 z m 0,-1.606399 v -0.112211 h 0.1149313 0.1149313 l -0.111745,0.112211 c -0.06146,0.06172 -0.1131789,0.112212 -0.1149312,0.112212 -0.00175,0 -0.00319,-0.0505 -0.00319,-0.112212 z m 0,-1.612304 v -0.118118 h 0.1208489 0.120849 l -0.1176745,0.118118 c -0.064721,0.06496 -0.1191027,0.118117 -0.120849,0.118117 -0.00175,0 -0.00318,-0.05315 -0.00318,-0.118117 z m 0,-1.612305 v -0.112212 h 0.1149313 0.1149313 l -0.111745,0.112212 c -0.06146,0.06172 -0.1131789,0.112212 -0.1149312,0.112212 -0.00175,0 -0.00319,-0.05049 -0.00319,-0.112212 z m 0,-1.677269 v -0.124024 h 0.082682 0.082682 v 0.124024 0.124023 h -0.082682 -0.082682 z m 0,-1.606399 v -0.124024 h 0.082682 0.082682 v 0.124024 0.124023 h -0.082682 -0.082682 z m 0,-1.6182107 V 8.7182779 h 0.082682 0.082682 v 0.1240234 0.1240235 h -0.082682 -0.082682 z m 0,-1.6182104 V 7.111879 h 0.1149313 0.1149313 l -0.111745,0.1122119 c -0.06146,0.061716 -0.1131789,0.1122117 -0.1149312,0.1122117 -0.00175,0 -0.00319,-0.050496 -0.00319,-0.1122117 z M 4.5063695,6.5885197 c -0.00376,-0.014997 -0.015348,-0.047623 -0.025744,-0.072504 l -0.018902,-0.045239 -0.052312,0.05134 -0.052312,0.05134 V 6.4646918 6.3559269 h 0.082682 0.082682 v 0.1299292 c 0,0.071461 -0.00209,0.1299292 -0.00462,0.1299292 -0.00254,0 -0.0077,-0.012269 -0.01147,-0.027266 z M 3.3412879,5.461178 c 0,-0.1271455 -0.00306,-0.1245333 0.1392343,-0.1186836 l 0.085803,0.00353 L 3.4538066,5.4580029 3.3412878,5.5699812 Z M 3.166547,5.2426687 l 0.00347,-0.085635 0.085635,-0.00347 0.085635,-0.00347 v 0.089106 0.089106 H 3.2521831 3.1630775 Z M 4.9476868,5.4523274 V 5.3401158 H 5.0626181 5.1775494 L 5.0658042,5.4523274 c -0.06146,0.061717 -0.1131787,0.1122117 -0.1149313,0.1122117 -0.00175,0 -0.00319,-0.050495 -0.00319,-0.1122117 z m 1.6182104,-0.00591 V 5.340116 H 6.6749098 6.7839223 L 6.6781089,5.4464219 c -0.058197,0.058468 -0.1072529,0.1063056 -0.1090123,0.1063056 -0.00177,0 -0.0032,-0.047837 -0.0032,-0.1063056 z m 1.6063989,0 V 5.340116 H 8.2813084 8.390321 L 8.2845078,5.4464219 c -0.058197,0.058468 -0.1072529,0.1063056 -0.1090126,0.1063056 -0.00177,0 -0.0032,-0.047837 -0.0032,-0.1063056 z m 1.6063987,-0.02953 V 5.340116 H 9.920436 c 0.082937,0 0.141741,0.00472 0.141741,0.011369 0,0.00625 -0.01101,0.040802 -0.02447,0.076777 L 10.013235,5.49367 H 9.8959655 9.7786966 Z m 1.6063982,4.233e-4 v -0.07719 h 0.14616 0.14616 l -0.0267,0.073823 -0.0267,0.073824 -0.119455,0.00337 -0.119455,0.00337 z m 1.606399,0 v -0.07719 h 0.147293 0.147292 l -0.02629,0.073823 -0.02629,0.073824 -0.121005,0.00337 -0.121005,0.00337 z m 1.700893,0.029116 V 5.3401261 h 0.109013 0.109012 L 14.804597,5.446432 c -0.0582,0.058468 -0.107253,0.1063056 -0.109013,0.1063056 -0.0018,0 -0.0032,-0.047837 -0.0032,-0.1063056 z m -0.850447,1.157552 v -0.082682 h 0.08268 0.08268 v 0.082682 0.082682 h -0.08268 -0.08268 z m 0.850447,0.6201172 V 7.1118893 h 0.114931 0.114932 l -0.111745,0.1122119 c -0.06146,0.061716 -0.113179,0.1122117 -0.114932,0.1122117 -0.0017,0 -0.0032,-0.050496 -0.0032,-0.1122117 z m 0,1.6182105 V 8.7182882 h 0.07678 0.07678 v 0.1240235 0.1240234 h -0.07678 -0.07678 z m 0,1.6182106 v -0.124018 h 0.07678 0.07678 v 0.124023 0.124024 h -0.07678 -0.07678 z m 0,1.606399 v -0.124023 h 0.07678 0.07678 v 0.124023 0.124023 h -0.07678 -0.07678 z m 0,1.677269 v -0.112211 h 0.114931 0.114932 l -0.111745,0.112211 c -0.06146,0.06172 -0.113179,0.112212 -0.114932,0.112212 -0.0017,0 -0.0032,-0.05049 -0.0032,-0.112212 z m 0,1.606399 v -0.112212 h 0.114931 0.114932 l -0.111745,0.112212 c -0.06146,0.06172 -0.113179,0.112212 -0.114932,0.112212 -0.0017,0 -0.0032,-0.0505 -0.0032,-0.112212 z m 0,1.612305 v -0.106306 h 0.109013 0.109012 l -0.105813,0.106306 c -0.0582,0.05847 -0.107253,0.106306 -0.109013,0.106306 -0.0018,0 -0.0032,-0.04784 -0.0032,-0.106306 z m 0,1.606399 v -0.106306 h 0.109013 0.109012 l -0.105813,0.106306 c -0.0582,0.05847 -0.107253,0.106305 -0.109013,0.106305 -0.0018,0 -0.0032,-0.04784 -0.0032,-0.106305 z m 0,1.624116 v -0.124023 h 0.07804 c 0.07025,0 0.07704,0.0021 0.06806,0.02067 -0.01294,0.02681 -0.01294,0.179897 0,0.206705 0.009,0.01861 0.0022,0.02067 -0.06806,0.02067 h -0.07804 z m 0.157971,0 c 2.7e-5,-0.07146 0.002,-0.09917 0.0043,-0.06158 0.0024,0.03759 0.0023,0.09606 -4.9e-5,0.129929 -0.0024,0.03387 -0.0043,0.0031 -0.0043,-0.06835 z m -0.157971,1.606399 v -0.124024 h 0.07678 0.07678 v 0.124024 0.124023 h -0.07678 -0.07678 z m -0.849514,-0.747094 -9.26e-4,-0.132882 h 0.08268 0.08268 v 0.108765 0.108765 l -0.05291,-0.05192 c -0.0291,-0.02856 -0.05495,-0.0496 -0.05744,-0.04675 -0.0025,0.0028 -0.01548,0.03706 -0.02884,0.07604 l -0.02431,0.07087 z m -0.851379,0.747094 v -0.124024 h 0.124024 0.124023 v 0.124024 0.124023 h -0.124023 -0.124024 z m -1.606399,0 v -0.124024 h 0.124024 0.124023 v 0.124024 0.124023 h -0.124023 -0.124024 z m -0.755952,-0.933129 v -0.206706 h 1.009905 1.009905 v 0.123952 0.123952 l -0.930175,0.003 -0.930176,0.003 -0.0035,0.07973 -0.0035,0.07973 h -0.07624 -0.07624 z m 0,-0.755952 v -0.206706 h 1.009905 1.009905 v 0.08268 0.08268 h -0.933128 -0.933129 v 0.124023 0.124023 h -0.07678 -0.07678 z m -0.8504462,1.689081 v -0.124024 h 0.1240234 0.1240238 v 0.124024 0.124023 H 9.9027182 9.7786948 Z m -1.6063987,0 v -0.124024 h 0.076776 0.076777 v 0.124024 0.124023 h -0.076777 -0.076776 z m -1.6063989,0 v -0.124024 h 0.076777 0.076776 v 0.124024 0.124023 h -0.076776 -0.076777 z m -1.6182104,0 v -0.124024 h 0.082682 0.082682 v 0.124024 0.124023 h -0.082682 -0.082682 z m -1.6063989,0 v -0.124024 h 0.082682 0.082682 v 0.124024 0.124023 h -0.082682 -0.082682 z m 7.8738931,-18.0335987 0.0034,-0.1210705 0.07973,-0.00349 0.07973,-0.00349 V 3.762717 3.88728 h -0.0831 -0.0831 z M 6.3934458,3.7627171 V 3.6381539 l 0.079729,0.00349 0.079729,0.00349 0.00337,0.1210704 0.00337,0.1210704 H 6.4765478 6.3934528 Z M 8.5904322,3.9758683 V 3.8990913 H 8.885726 9.1810201 v 0.076777 0.076776 H 8.885726 8.5904322 Z m 0,-0.8031993 V 3.0486456 H 8.885726 9.1810201 V 3.172669 3.2966924 H 8.885726 8.5904322 Z M 10.20645,1.1410718 10.21016,1.0170234 h 0.07602 0.07602 v 0.1240235 0.1240234 l -0.07973,2.49e-5 -0.07973,2.49e-5 z M 9.6062433,1.1796264 V 1.0941929 L 9.7271026,0.97292069 9.8479621,0.85164853 h 0.1744349 0.174434 v -0.0826823 -0.0826823 h 0.08268 0.08268 v 0.0767764 0.0767764 h -0.04409 c -0.04014,0 -0.05496,0.0108305 -0.165365,0.12085947 -0.11049,0.1101123 -0.121274,0.1179898 -0.121274,0.0885882 V 1.0170131 H 9.9015371 9.7716079 V 1.1410365 1.26506 h -0.082682 -0.082682 z m -0.950645,1.3130401 0.1297279,-0.1307453 -0.046452,-0.040689 -0.046452,-0.040689 0.037593,-0.038786 c 0.03518,-0.036296 0.037593,-0.044247 0.037593,-0.1238592 V 2.0328241 H 8.885726 9.0038437 V 2.328118 2.623412 H 8.7648569 8.5258705 Z M 7.1493979,1.0492844 c 0,-0.031789 -0.00114,-0.032271 -0.075513,-0.032271 -0.086886,0 -0.089852,-0.00335 -0.089852,-0.10136599 v -0.0639986 h 0.171271 0.1712704 v -0.0826823 -0.0826823 h 0.1240234 0.1240235 v 0.0767764 0.0767764 h -0.09134 -0.09134 l -0.121271,0.1208595 C 7.1601818,1.0708085 7.1493979,1.078686 7.1493979,1.0492844 Z M 6.7359865,1.1410365 V 1.0170131 H 6.8541041 6.9722218 V 1.1410365 1.26506 H 6.8541041 6.7359865 Z m 0.5905878,0 V 1.0170131 H 7.444692 7.5628094 V 1.1410365 1.26506 H 7.444692 7.3265743 Z M 4.3618236,1.7632127 V 1.4422363 h 0.082682 0.082682 l 3.31e-5,0.1210705 3.3e-5,0.1210705 0.1017667,0.035957 0.1017667,0.035957 -0.1579062,0.1403398 C 4.4860339,1.9738181 4.4030171,2.0475952 4.3884,2.0605801 L 4.361824,2.0841891 Z M 3.9366004,1.648942 V 1.4422363 h 0.082682 0.082682 V 1.648942 1.8556478 H 4.0192827 3.9366004 Z M 5.9682225,2.2840256 V 0.50360509 L 6.0890818,0.38233292 6.2099414,0.26106073 h 2.7966442 2.7966434 v 0.0767764 0.0767764 h -0.212611 -0.212612 v 0.1299293 0.12992931 h -0.08268 -0.08268 V 0.54454287 0.41461357 H 8.6731145 6.1335871 V 2.2395298 4.064446 H 6.0509048 5.9682225 Z M 15.32968,5.0301318 3.0336428,5.0183208 2.9982077,22.239861"
     style="display:inline;opacity:1;fill:#ffffff;fill-opacity:0.96666715;fill-rule:evenodd;stroke:#ffffff;stroke-width:0.04022321;stroke-miterlimit:4;stroke-dasharray:none;stroke-opacity:1"
     id="path1015" />
  <path
     id="path186"
     d="m 3.0011373,22.52127 h -0.08467 v -0.127 -0.127 h 0.08467 0.08467 v 0.127 0.127 z m 0.211666,-0.42334 h -0.127 v -8.382 -8.382 h 0.127 0.127 v -0.127 -0.127 h 5.842004 5.8419997 v 0.127 0.127 h -0.16934 -0.16933 V 5.50327 5.6726 h 0.16933 0.16934 v 0.71967 0.71966 h -0.16934 -0.16933 V 7.3236 7.53527 h 0.16933 0.16934 V 8.12793 8.7206 h -0.16934 -0.16933 v 0.21167 0.21166 h 0.16933 0.16934 v 0.59267 0.59267 h -0.16934 -0.16933 v 0.21166 0.21167 h 0.16933 0.16934 v 0.59267 0.59266 h -0.16934 -0.16933 v 0.21167 0.21167 h 0.16933 0.16934 v 0.635 0.635 h -0.16934 -0.16933 v 0.16933 0.16933 h 0.16933 0.16934 v 0.635 0.635 h -0.16934 -0.16933 v 0.21167 0.21167 h 0.16933 0.16934 v 0.59266 0.59267 h -0.16934 -0.16933 v 0.21167 0.21166 h 0.16933 0.16934 v 0.59267 0.59267 h -0.16934 -0.16933 v 0.21166 0.21167 h 0.16933 0.16934 v 0.59267 0.59266 h -0.16934 -0.16933 v 0.21167 0.21167 h 0.16933 0.16934 v 0.59266 0.59267 h -0.16934 -0.16933 v 0.21167 0.21166 h -0.635 -0.635 V 21.88627 21.6746 h -0.0847 -0.0847 v -0.80433 -0.80434 h -0.0907 -0.0907 l -0.12095,-0.12095 -0.12096,-0.12095 v -0.0907 -0.0907 h -1.10066 -1.10067 v 0.127 0.127 h -0.127 -0.127 v 0.29633 0.29634 h 0.127 0.127 v 0.0847 0.0847 h -0.127 -0.127 v 0.42333 0.42334 h 0.127 0.127 v 0.0847 0.0847 h 0.381 0.381 v 0.21167 0.21166 h -0.59267 -0.59266 v -0.21166 -0.21167 h -0.2116697 -0.21167 v 0.21167 0.21166 h -0.59266 -0.59267 v -0.21166 -0.21167 h -0.21167 -0.21166 v 0.21167 0.21166 h -0.59267 -0.59267 v -0.21166 -0.21167 h -0.21166 -0.21167 v 0.21167 0.21166 h -0.59267 -0.59266 v -0.21166 -0.21167 h -0.21167 -0.21167 v 0.21167 0.21166 h -0.635 -0.634997 v -0.21166 -0.21167 h -0.169293 -0.169334 v 0.21167 0.21166 z m 1.016004,-0.59266 h 0.29633 v -0.11995 -0.11994 l -0.10583,-0.0378 -0.10584,-0.0378 0.0751,-0.0751 0.0751,-0.0751 0.0378,0.10583 0.0378,0.10584 h 0.0776 0.0776 v -0.16934 -0.16933 h -0.0847 -0.0847 v -0.127 -0.127 h -0.29633 -0.29634 v 0.42333 0.42334 z m 9.9059997,0 h 0.29633 V 21.08193 20.6586 h -0.29633 -0.29634 v 0.127 0.127 h -0.0847 -0.0847 v 0.16933 0.16934 h 0.0776 0.0776 l 0.0378,-0.10584 0.0378,-0.10583 0.0751,0.0751 0.0751,0.0751 -0.10583,0.0378 -0.10584,0.0378 v 0.11994 0.11995 z m -10.6256697,-1.016 h 0.169333 V 20.2776 20.06593 h -0.169333 -0.169334 v 0.21167 0.21167 z m 0,-1.60867 h 0.169333 v -0.21167 -0.21166 h -0.169333 -0.169334 v 0.21166 0.21167 z m 0,-1.60867 h 0.169333 V 17.06027 16.8486 h -0.169333 -0.169334 v 0.21167 0.21166 z m 0,-1.60866 h 0.169333 V 15.4516 15.23993 h -0.169333 -0.169334 v 0.21167 0.21167 z m 0,-1.69334 h 0.169333 V 13.8006 13.63127 h -0.169333 -0.169334 v 0.16933 0.16933 z m 0,-1.60866 h 0.169333 V 12.1496 11.93793 h -0.169333 -0.169334 v 0.21167 0.21167 z m 0,-1.60867 h 0.169333 v -0.21167 -0.21166 h -0.169333 -0.169334 v 0.21166 0.21167 z m 0,-1.60867 h 0.169333 V 8.93227 8.7206 h -0.169333 -0.169334 v 0.21167 0.21166 z m 0,-1.60866 h 0.169333 V 7.3236 7.11193 H 3.5091373 3.3398033 V 7.3236 7.53527 Z m 10.6468297,-0.42656 0.27517,0.003 v -0.381 -0.381 h -0.26005 -0.26005 l -0.12095,0.12096 -0.12095,0.12095 v 0.13662 0.13662 l 0.10583,0.12021 0.10584,0.1202 0.27516,0.003 z M 13.923137,6.9426 h -0.0847 v -0.127 -0.127 h 0.0847 0.0847 v 0.127 0.127 z m -9.6943297,0 h 0.29633 V 6.82266 6.70271 l -0.10583,-0.0378 -0.10584,-0.0378 0.0751,-0.0751 0.0751,-0.0751 0.0378,0.10584 0.0378,0.10583 h 0.0776 0.0776 V 6.51925 6.34991 h -0.0847 -0.0847 v -0.127 -0.127 h -0.29633 -0.29634 v 0.42334 0.42333 z m -0.71967,-1.27 h 0.169333 V 5.50327 5.33393 H 3.5091373 3.3398033 V 5.50327 5.6726 Z m 1.651,0 h 0.21167 V 5.50327 5.33393 h -0.21167 -0.21167 V 5.50327 5.6726 Z m 1.60867,0 h 0.21166 V 5.50327 5.33393 h -0.21166 -0.21167 V 5.50327 5.6726 Z m 1.60866,0 h 0.21167 V 5.50327 5.33393 h -0.21167 -0.21166 V 5.50327 5.6726 Z m 1.60867,0 H 10.197807 V 5.50327 5.33393 H 9.9861373 9.7744673 V 5.50327 5.6726 Z m 1.6086697,0 h 0.21166 V 5.50327 5.33393 h -0.21166 -0.21167 V 5.50327 5.6726 Z m 1.60866,0 h 0.21167 V 5.50327 5.33393 h -0.21167 -0.21166 V 5.50327 5.6726 Z m -0.80433,16.42533 h -0.59267 V 21.88627 21.6746 h 0.59267 0.59267 v 0.21167 0.21166 z m -0.67733,-1.016 h -0.93134 v -0.0847 -0.0847 h 0.93134 0.93133 v 0.0847 0.0847 z m 0,-0.762 h -0.93134 v -0.127 -0.127 h 0.93134 0.93133 v 0.127 0.127 z m -11.34533674,-4.318 h -0.08467 v -0.0847 -0.0847 h 0.08467 0.08467 v 0.0847 0.0847 z m 1.01600004,0 H 0.71513726 v -0.0847 -0.0847 h 0.67733304 0.677333 v 0.0847 0.0847 z m 15.1129967,0 h -0.21166 V 15.7056 15.40927 h 0.21166 0.21167 v 0.29633 0.29633 z M 2.4931373,15.8326 h -0.169334 v -0.21167 -0.21166 h 0.169334 0.169333 v 0.21166 0.21167 z m 14.7954997,-0.003 -0.1905,-0.003 -0.10583,-0.12021 -0.10584,-0.12021 v -0.052 -0.052 l 0.12096,-0.12095 0.12095,-0.12095 h 0.17538 0.17538 v 0.0847 0.0847 h -0.21167 -0.21166 v 0.127 0.127 h 0.21166 0.21167 v 0.0847 0.0847 l -0.1905,-0.003 z M 0.37647026,15.66327 h -0.08467 v -0.127 -0.127 h 0.08467 0.08467 v 0.127 0.127 z m 1.01600004,0 H 0.71513726 v -0.127 -0.127 h 0.67733304 0.677333 v 0.127 0.127 z m 14.4779967,-0.254 h -0.16933 v -0.0847 -0.0847 h 0.16933 0.16934 v 0.0847 0.0847 z M 2.4931373,15.23993 h -0.169334 v -0.127 -0.127 h 0.169334 0.169333 v 0.127 0.127 z m 14.0123297,0 h -0.21166 v -0.127 -0.127 h 0.21166 0.21167 v 0.127 0.127 z M 1.3924703,14.98593 H 0.71513726 v -0.0847 -0.0847 h 0.67733304 0.677333 v 0.0847 0.0847 z m 15.8749967,0 h -0.21166 v -0.0847 -0.0847 h 0.21166 0.21167 v 0.0847 0.0847 z M 0.96913726,14.64727 h -0.08467 V 14.22393 13.8006 h 0.08467 0.08467 v 0.42333 0.42334 z m 1.60866604,0 h -0.08467 v -0.127 -0.127 h 0.08467 0.08467 v 0.127 0.127 z m 13.9276637,0 h -0.21166 v -0.127 -0.127 h 0.21166 0.21167 v 0.127 0.127 z M 0.96913726,12.95393 h -0.08467 V 12.7846 12.61527 h 0.08467 0.08467 v -0.127 -0.127 h 0.211667 0.211667 v 0.127 0.127 h -0.211667 -0.211667 v 0.16933 0.16933 z M 16.251467,9.56727 h -0.21166 v -0.127 -0.127 h 0.21166 0.21167 v 0.127 0.127 z m 0.55034,0 h -0.0847 v -0.127 -0.127 h 0.0847 0.0847 v 0.127 0.127 z m 0.381,0 h -0.127 v -0.127 -0.127 h 0.127 0.127 v 0.127 0.127 z m -0.93134,-0.42334 h -0.21166 V 8.93227 8.7206 h 0.21166 0.21167 v 0.21167 0.21166 z m 0.55034,0 h -0.0847 V 8.93227 8.7206 h 0.0847 0.0847 v 0.21167 0.21166 z m 0.381,0 h -0.127 V 8.93227 8.7206 h 0.127 0.127 v 0.21167 0.21166 z m -0.93134,-0.59266 h -0.21166 v -0.127 -0.127 h 0.21166 0.21167 v 0.127 0.127 z m 0.55034,0 h -0.0847 v -0.127 -0.127 h 0.0847 0.0847 v 0.127 0.127 z m 0.381,0 h -0.127 v -0.127 -0.127 h 0.127 0.127 v 0.127 0.127 z M 3.0011373,5.07993 h -0.08467 v -0.0847 -0.0847 h 0.08467 0.08467 v 0.0847 0.0847 z m 3.25967,-1.016 h -0.127 V 2.2436 0.42327 h 0.21166 0.21167 v 0.127 0.127 h -0.0847 -0.0847 v 0.0847 0.0847 h 0.16933 0.16933 V 0.635 0.42334 h 0.29634 0.29633 v 0.127 0.127 h -0.16933 -0.16934 v 0.0847 0.0847 h -0.0907 -0.0907 l -0.12095,0.12095 -0.12095,0.12095 v 0.2661 0.2661 l 0.12095,0.12095 0.12095,0.12095 h 0.0907 0.0907 v 0.0847 0.0847 h 0.16934 0.16933 v 0.127 0.127 h 0.508 0.508 v 0.0847 0.0847 h 0.11994 0.11995 l 0.0378,-0.10584 0.0378,-0.10583 0.064,0.0595 0.064,0.0595 -0.13103,0.13103 -0.13103,0.13103 h -0.0907 -0.0907 v -0.0847 -0.0847 h -0.0847 -0.0847 v 0.21166 0.21167 h -0.29634 -0.29633 v 0.0847 0.0847 h -0.127 -0.127 v 0.127 0.127 h 0.127 0.127 V 3.5986 3.89493 h -0.42322 -0.42334 v -0.127 -0.127 h -0.16933 -0.16933 V 3.8526 4.06426 Z m 2.032,0 h -0.29634 v -0.0847 -0.0847 h 0.29634 0.29633 v 0.0847 0.0847 z m 1.10066,0 h -0.21166 v -0.0847 -0.0847 h 0.21166 0.21167 v 0.0847 0.0847 z M 11.129137,3.8946 h -0.0847 V 3.47127 3.04793 h -0.127 -0.127 v -0.0847 -0.0847 h -0.381 -0.381 V 2.66686 2.4552 h -0.0907 -0.0907 l -0.12095,-0.12096 -0.12095,-0.12095 v -0.0907 -0.0907 h -0.10831 -0.10831 l -0.12205,-0.16933 -0.12205,-0.16933 h -0.19297 -0.19298 V 1.39085 1.08846 l -0.12095,-0.12095 -0.12095,-0.12095 h -0.0544 -0.0544 l -0.12095,-0.12095 -0.12095,-0.12095 v -0.0907 -0.0907 h 1.016 1.0159997 v 0.127 0.127 h -0.19298 -0.1929697 l -0.12205,0.16933 -0.12205,0.16933 h -0.10831 -0.10831 v 0.33867 0.33867 h 0.127 0.127 V 1.48159 1.26992 h 0.0847 0.0847 v 0.20461 0.20462 l -0.10507,0.035 -0.10508,0.035 0.14136,0.14136 0.14136,0.14136 h 0.1753897 0.17538 v 0.127 0.127 h 0.59266 0.59267 v -0.127 -0.127 h 0.127 0.127 v 0.80434 0.80433 h -0.21167 -0.21166 v 0.127 0.127 z M 8.2928073,3.30193 h -0.29634 v -0.127 -0.127 h 0.29634 0.29633 v 0.127 0.127 z m 1.10066,0 h -0.21166 v -0.127 -0.127 h 0.21166 0.21167 v 0.127 0.127 z m -4.98928,-0.84666 h -0.0484 V 2.2747 2.09413 l 0.1905,-0.1695 0.1905,-0.16949 -0.10584,-0.038 -0.10583,-0.038 V 1.55919 1.43925 h -0.0847 -0.0847 v 0.127 0.127 h -0.127 -0.127 v -0.127 -0.127 h -0.0847 -0.0847 V 1.22758 1.01591 h 0.0847 0.0847 v 0.21167 0.21167 h 0.11994 0.11995 l 0.035,-0.10508 0.035,-0.10508 0.14136,0.14136 0.14136,0.14137 v 0.0907 0.0907 h 0.127 0.127 v 0.16933 0.16933 h -0.127 -0.127 v 0.0907 0.0907 l -0.12095,0.12095 -0.12095,0.12096 z m -0.38705,-0.16934 h -0.0847 V 2.07427 1.8626 h 0.0847 0.0847 v 0.21167 0.21166 z m 9.5249997,0 h -0.127 v -0.0907 -0.0907 l -0.12095,-0.12095 -0.12095,-0.12095 h -0.0907 -0.0907 v -0.0847 -0.0847 h 0.127 0.127 v -0.0907 -0.0907 l 0.12095,-0.12095 0.12095,-0.12096 h 0.0907 0.0907 v 0.0847 0.0847 h 0.0847 0.0847 V 1.14298 0.84665 h 0.0847 0.0847 v 0.29633 0.29634 h 0.127 0.127 v 0.127 0.127 h -0.127 -0.127 v -0.127 -0.127 h -0.0847 -0.0847 v 0.127 0.127 h -0.0847 -0.0847 v -0.127 -0.127 h -0.127 -0.127 v 0.11994 0.11995 l -0.10508,0.035 -0.10507,0.035 0.14136,0.14136 0.14136,0.14136 h 0.0907 0.0907 v 0.127 0.127 z m 0.381,0 h -0.0847 V 2.07427 1.8626 h 0.0847 0.0847 v 0.21167 0.21166 z m -1.18533,-0.254 h -0.0847 v -0.0847 -0.0847 h 0.0847 0.0847 v 0.0847 0.0847 z M 6.8534673,1.69327 h -0.127 V 1.4816 1.26993 h 0.127 0.127 V 1.4816 1.69327 Z M 11.510137,1.01593 h -0.127 v -0.0847 -0.0847 h 0.127 0.127 v 0.0847 0.0847 z M 7.6578073,0.8466 h -0.0847 V 0.7619 0.6772 h 0.0847 0.0847 v 0.0847 0.0847 z m 2.8363297,0 h -0.127 V 0.7619 0.6772 h 0.127 0.127 v 0.0847 0.0847 z m 0.635,-0.16933 h -0.0847 v -0.127 -0.127 h 0.0847 0.0847 v 0.127 0.127 z"
     style="display:inline;fill:#c7c7be;stroke-width:0.08466667" />
  <path
     id="path184"
     d="m 2.7894703,22.6906 h -0.127 v -2.413 -2.413 h -0.169333 -0.169334 v -0.127 -0.127 h 0.169334 0.169333 v -0.508 -0.508 h -0.169333 -0.169334 v -0.381 -0.381 h -0.127 -0.127 v -0.0847 -0.0847 h 0.127 0.127 v 0.0847 0.0847 h 0.169334 0.169333 V 15.40927 14.98593 H 2.4931373 2.3238033 V 14.8166 14.64727 h -0.127 -0.127 v 0.0847 0.0847 H 1.3924703 0.71513726 v -0.0847 -0.0847 h 0.67733304 0.677333 v -0.127 -0.127 h 0.127 0.127 v -0.0847 -0.0847 h 0.169334 0.169333 V 9.56721 4.91054 h 0.127 0.127 v -0.127 -0.127 h 6.265337 6.2653297 v 0.21167 0.21166 h -0.0847 -0.0847 V 4.99517 4.91047 H 9.0970673 2.9164003 v 8.89 8.89 z m -0.296333,-8.04333 h 0.169333 v -0.127 -0.127 h -0.169333 -0.169334 v 0.127 0.127 z m 0.895047,7.45066 h -0.04838 v -0.0847 -0.0847 h 0.08467 0.08467 v -0.127 -0.127 h 0.08467 0.08467 v 0.0907 0.0907 l -0.120952,0.12095 -0.120953,0.12095 z m 1.644953,0 h -0.0847 v -0.0847 -0.0847 h 0.0847 0.0847 v -0.127 -0.127 h 0.127 0.127 v 0.127 0.127 h -0.127 -0.127 v 0.0847 0.0847 z m 1.60867,0 h -0.0847 v -0.0847 -0.0847 h 0.0847 0.0847 v -0.127 -0.127 h 0.127 0.127 v 0.127 0.127 h -0.127 -0.127 v 0.0847 0.0847 z m 1.60866,0 h -0.0847 v -0.0847 -0.0847 h 0.0847 0.0847 v -0.127 -0.127 h 0.127 0.127 v 0.127 0.127 h -0.127 -0.127 v 0.0847 0.0847 z m 1.61472,0 h -0.0907 v -0.0847 -0.0847 h 0.127 0.1269997 v -0.127 -0.127 h 0.0847 0.0847 v 0.0907 0.0907 l -0.12096,0.12095 -0.1209497,0.12095 z m 1.6086597,0 h -0.0907 v -0.0847 -0.0847 h 0.127 0.127 v -0.127 -0.127 h -0.508 -0.508 v -0.0847 -0.0847 h -0.127 -0.127 v -0.42334 -0.42333 h 0.127 0.127 v -0.0847 -0.0847 h -0.127 -0.127 v -0.29634 -0.29633 h 0.127 0.127 v -0.127 -0.127 h 1.10067 1.10066 v 0.0907 0.0907 l 0.12096,0.12095 0.12095,0.12095 h 0.0907 0.0907 v 0.80434 0.80433 h 0.0847 0.0847 v 0.0907 0.0907 l -0.12095,0.12095 -0.12095,0.12095 h -0.0907 -0.0907 v -0.0847 -0.0847 h 0.127 0.127 v -0.127 -0.127 h -0.71975 -0.71967 v 0.0907 0.0907 l -0.12095,0.12095 -0.12095,0.12095 z m 0.24796,-0.84666 h 1.10066 V 20.95493 20.6586 h -1.10066 -1.10067 v 0.29633 0.29634 z m 0,-0.762 h 1.10066 V 20.19293 19.8966 h -1.10066 -1.10067 v 0.29633 0.29634 z m 3.01171,1.60866 h -0.0484 v -0.0847 -0.0847 h 0.0847 0.0847 v -0.127 -0.127 h 0.0847 0.0847 v 0.0907 0.0907 l -0.12096,0.12095 -0.12095,0.12095 z M 4.2288073,21.25127 h -0.127 V 21.08193 20.9126 h 0.127 0.127 v 0.16933 0.16934 z m 9.9059997,0 h -0.127 V 21.08193 20.9126 h 0.127 0.127 v 0.16933 0.16934 z m -10.7466227,-0.762 h -0.04838 v -0.0847 -0.0847 h 0.08467 0.08467 v -0.127 -0.127 h 0.08467 0.08467 v 0.0907 0.0907 l -0.120952,0.12095 -0.120953,0.12096 z m 11.3453327,0 h -0.0484 v -0.0847 -0.0847 h 0.0847 0.0847 v -0.127 -0.127 h 0.0847 0.0847 v 0.0907 0.0907 l -0.12096,0.12095 -0.12095,0.12096 z m 1.05229,0 h -0.0847 v -0.0847 -0.0847 h 0.0847 0.0847 v 0.0847 0.0847 z M 3.4244703,18.8806 h -0.08467 v -0.0907 -0.0907 l 0.131032,-0.13103 0.131032,-0.13103 0.05947,0.064 0.05947,0.064 -0.105833,0.0378 -0.105833,0.0378 v 0.11995 0.11994 z m 11.3453367,0 h -0.0847 v -0.0907 -0.0907 l 0.13103,-0.13103 0.13103,-0.13103 0.0595,0.064 0.0595,0.064 -0.10583,0.0378 -0.10584,0.0378 v 0.11995 0.11994 z M 0.29179426,15.6632 v 0.0847 0.0847 z m 0.084676,1.77807 h -0.08467 v -0.0847 -0.0847 h 0.08467 0.08467 v 0.0847 0.0847 z m 1.01600004,0 H 0.71513726 v -0.0847 -0.0847 h 0.67733304 0.677333 v 0.0847 0.0847 z m 2.032,-0.16934 h -0.08467 v -0.0907 -0.0907 l 0.131032,-0.13103 0.131032,-0.13103 0.05947,0.064 0.05947,0.064 -0.105833,0.0378 -0.105833,0.0378 v 0.11995 0.11994 z m 11.3453367,0 h -0.0847 v -0.0907 -0.0907 l 0.13103,-0.13103 0.13103,-0.13103 0.0595,0.064 0.0595,0.064 -0.10583,0.0378 -0.10584,0.0378 v 0.11995 0.11994 z m 1.82033,-0.67733 h -0.127 v -0.29633 -0.29634 h 0.127 0.127 v 0.29634 0.29633 z M 0.37647026,16.42527 h -0.08467 V 16.2136 16.00193 h 0.08467 0.08467 v 0.21167 0.21167 z m 1.01600004,0 H 0.71513726 V 16.2136 16.00193 h 0.67733304 0.677333 v 0.21167 0.21167 z M 17.394467,16.25593 h -0.0847 V 16.04427 15.8326 h 0.0847 0.0847 v 0.21167 0.21166 z m -1.22766,-0.254 h -0.127 V 15.7056 15.40927 h 0.127 0.127 v 0.29633 0.29633 z m 0.80433,-0.16933 h -0.08467 v -0.0847 -0.0847 h 0.0847 0.0847 v 0.0847 0.0847 z M 3.4244703,15.66327 h -0.08467 v -0.0907 -0.0907 l 0.131032,-0.13103 0.131032,-0.13104 0.05947,0.064 0.05947,0.064 -0.105833,0.0378 -0.105833,0.0378 v 0.11994 0.11995 z m 11.3453367,0 h -0.0847 v -0.0907 -0.0907 l 0.13103,-0.13103 0.13103,-0.13104 0.0595,0.064 0.0595,0.064 -0.10583,0.0378 -0.10584,0.0378 v 0.11994 0.11995 z m -14.39333674,-0.254 h -0.08467 V 15.1976 14.98593 h -0.127 -0.127 V 14.8166 14.64727 h 0.211667 0.211667 v 0.0776 0.0776 l -0.105834,0.0494 -0.105833,0.0494 0.105833,0.0494 0.105834,0.0494 v 0.20462 0.20461 z m 1.01600004,0 H 0.71513726 V 15.1976 14.98593 h 0.67733304 0.677333 v 0.21167 0.21167 z m 15.5786667,0 h -0.08467 v -0.0847 -0.0847 h 0.0847 0.0847 v 0.0847 0.0847 z m -0.80433,-0.16934 h -0.127 v -0.127 -0.127 h 0.127 0.127 V 14.8166 14.64727 h -0.29634 -0.29633 v -0.127 -0.127 h 0.29633 0.29634 v -0.0847 -0.0847 h 0.21166 0.21167 v 0.0847 0.0847 h -0.21167 -0.21166 v 0.127 0.127 h 0.21166 0.21167 v 0.16933 0.16933 h -0.21167 -0.21166 v 0.127 0.127 z m 1.22766,0 h -0.0847 v -0.127 -0.127 h 0.0847 0.0847 v -0.0847 -0.0847 h -0.20461 -0.20461 l -0.0378,0.10583 -0.0378,0.10584 -0.064,-0.0595 -0.064,-0.0595 0.13104,-0.13103 0.13103,-0.13103 h 0.17538 0.17538 v 0.0847 0.0847 h 0.127 0.127 v 0.0847 0.0847 h -0.127 -0.127 v 0.127 0.127 z m -15.9173297,-1.016 h -0.169334 v -0.127 -0.127 h 0.169334 0.169333 v 0.127 0.127 z m 1.911047,-0.254 h -0.04838 v -0.0484 -0.0484 l 0.131032,-0.13103 0.131032,-0.13103 0.04838,0.0484 0.04838,0.0484 -0.131032,0.13103 -0.131032,0.13103 z m 11.3453327,0 h -0.0484 v -0.0484 -0.0484 l 0.13103,-0.13103 0.13103,-0.13103 0.0484,0.0484 0.0484,0.0484 -0.13104,0.13103 -0.13103,0.13103 z M 0.96913726,13.8006 h -0.08467 V 13.41355 13.0265 L 1.0054193,12.90555 1.1263723,12.7846 h 0.175381 0.175381 v 0.0847 0.0847 h -0.211667 -0.211667 v 0.42334 0.42333 z M 1.5618033,12.61527 h -0.08467 v -0.127 -0.127 h 0.08467 0.08467 v 0.127 0.127 z m 1.826381,-0.254 h -0.04838 v -0.0847 -0.0847 h 0.08467 0.08467 v -0.127 -0.127 h 0.08467 0.08467 v 0.0907 0.0907 l -0.120952,0.12095 -0.120953,0.12096 z m 11.3453327,0 h -0.0484 v -0.0847 -0.0847 h 0.0847 0.0847 v -0.127 -0.127 h 0.0847 0.0847 v 0.0907 0.0907 l -0.12096,0.12095 -0.12095,0.12096 z M 3.3881843,10.7526 h -0.04838 v -0.0847 -0.0847 h 0.08467 0.08467 v -0.127 -0.127 h 0.08467 0.08467 v 0.0907 0.0907 l -0.120952,0.12095 -0.120953,0.12095 z m 11.3453327,0 h -0.0484 v -0.0847 -0.0847 h 0.0847 0.0847 v -0.127 -0.127 h 0.0847 0.0847 v 0.0907 0.0907 l -0.12096,0.12095 -0.12095,0.12095 z m 1.43329,-1.016 h -0.29634 V 9.14393 8.55127 h -0.0847 -0.0847 v -0.0907 -0.0907 l 0.12095,-0.12095 0.12095,-0.12096 h 0.26005 0.26005 v 0.0847 0.0847 h -0.21167 -0.21166 v 0.127 0.127 h 0.21166 0.21167 v 0.0847 0.0847 h -0.21167 -0.21166 v 0.42333 0.42334 h 0.21166 0.21167 v 0.0847 0.0847 z m 0.635,0 h -0.0847 V 9.6519 9.5672 h 0.0847 0.0847 v 0.0847 0.0847 z m 0.381,0 h -0.127 V 9.6519 9.5672 h 0.127 0.127 V 9.6519 9.7366 Z M 3.3881843,9.14393 h -0.04838 v -0.0847 -0.0847 h 0.08467 0.08467 v -0.127 -0.127 h 0.08467 0.08467 v 0.0907 0.0907 l -0.120952,0.12095 -0.120953,0.12095 z m 11.3453327,0 h -0.0484 v -0.0847 -0.0847 h 0.0847 0.0847 v -0.127 -0.127 h 0.0847 0.0847 v 0.0907 0.0907 l -0.12096,0.12095 -0.12095,0.12095 z m 2.06829,-0.42333 h -0.0847 V 8.6359 8.5512 h 0.0847 0.0847 v 0.0847 0.0847 z m 0.34471,0 h -0.0907 V 8.6359 8.5512 h 0.127 0.127 v -0.127 -0.127 h -0.127 -0.127 V 8.2125 8.1278 h 0.0907 0.0907 l 0.12095,0.12096 0.12095,0.12095 v 0.0544 0.0544 l -0.12095,0.12095 -0.12095,0.12095 z m -0.34471,-0.42333 h -0.0847 v -0.0847 -0.0847 h 0.0847 0.0847 v 0.0847 0.0847 z M 3.4244703,7.53527 h -0.08467 v -0.0907 -0.0907 l 0.131032,-0.13103 0.131032,-0.13104 0.05947,0.064 0.05947,0.064 -0.105833,0.0378 -0.105833,0.0378 v 0.11994 0.11995 z m 11.3453367,0 h -0.0847 v -0.0907 -0.0907 l 0.13103,-0.13103 0.13103,-0.13104 0.0595,0.064 0.0595,0.064 -0.10583,0.0378 -0.10584,0.0378 v 0.11994 0.11995 z m -0.635,-0.59267 h -0.127 V 6.73093 6.51927 h 0.127 0.127 V 6.73093 6.9426 Z M 4.2288073,6.6886 h -0.127 V 6.51927 6.34993 h 0.127 0.127 V 6.51927 6.6886 Z m -0.840623,-1.016 h -0.04838 V 5.6242 5.5758 l 0.131032,-0.13103 0.131032,-0.13104 0.04838,0.0484 0.04838,0.0484 -0.131032,0.13103 -0.131032,0.13103 z m 1.644953,0 h -0.0847 V 5.6242 5.5758 l 0.12096,-0.12095 0.12095,-0.12096 h 0.0907 0.0907 v 0.0847 0.0847 h -0.127 -0.127 v 0.0847 0.0847 z m 1.60867,0 h -0.0847 V 5.6242 5.5758 l 0.12095,-0.12095 0.12095,-0.12096 h 0.0907 0.0907 v 0.0847 0.0847 h -0.127 -0.127 v 0.0847 0.0847 z m 1.60866,0 h -0.0847 V 5.6242 5.5758 l 0.12095,-0.12095 0.12095,-0.12096 h 0.0907 0.0907 v 0.0847 0.0847 h -0.127 -0.127 v 0.0847 0.0847 z m 1.61472,0 h -0.0907 V 5.5879 5.5032 h 0.11995 0.1199397 l 0.0378,-0.10584 0.0378,-0.10583 0.064,0.0595 0.064,0.0595 -0.13104,0.13103 -0.1310297,0.13103 z m 1.6086597,0 h -0.0907 V 5.5879 5.5032 h 0.11994 0.11995 l 0.0378,-0.10584 0.0378,-0.10583 0.064,0.0595 0.064,0.0595 -0.13103,0.13103 -0.13103,0.13103 z m 1.60867,0 h -0.0907 V 5.5879 5.5032 h 0.11994 0.11995 l 0.0378,-0.10584 0.0378,-0.10583 0.064,0.0595 0.064,0.0595 -0.13103,0.13103 -0.13103,0.13103 z m 1.651,0 h -0.0484 V 5.6242 5.5758 l 0.13103,-0.13103 0.13103,-0.13104 0.0484,0.0484 0.0484,0.0484 -0.13104,0.13103 -0.13103,0.13103 z M 5.9221373,4.31793 h -0.21167 V 3.09027 1.8626 h -0.0847 -0.0847 V 1.9473 2.032 h -0.0847 -0.0847 V 1.86267 1.69334 h 0.16933 0.16933 V 0.97367 0.254 h 0.127 0.127 V 0.127 0 h 3.048 3.0479997 v 0.127 0.127 h 0.0847 0.0847 v 0.0847 0.0847 h -0.21159 -0.21167 V 0.3387 0.254 h -2.8000397 -2.80005 l -0.12095,0.12096 -0.12096,0.12095 V 2.27996 4.064 h 0.0847 0.0847 v 0.127 0.127 z m 0.54328,-0.254 h -0.0776 v -0.0847 -0.0847 h 0.0847 0.0847 v -0.127 -0.127 h 0.0847 0.0847 v 0.127 0.127 h 0.29634 0.29633 v 0.0847 0.0847 h -0.28928 -0.28928 l -0.0494,-0.10583 -0.0494,-0.10583 -0.0494,0.10583 -0.0494,0.10583 z m 1.19239,0 h -0.0847 v -0.0847 -0.0847 h 0.0847 0.0847 v 0.0847 0.0847 z m 2.032,0 h -0.0847 v -0.0847 -0.0847 h 0.0847 0.0847 v 0.0847 0.0847 z m 1.3123297,0 h -0.381 v -0.0847 -0.0847 h -0.127 -0.127 V 3.5982 3.30186 h 0.127 0.127 v -0.127 -0.127 h -0.127 -0.127 v -0.0847 -0.0847 h 0.21167 0.21166 v 0.0847 0.0847 h 0.127 0.127 V 3.4712 3.89453 h 0.16934 0.16933 v -0.127 -0.127 h 0.127 0.127 V 2.8362 2.03186 h -0.127 -0.127 v 0.127 0.127 h -0.59267 -0.59266 V 2.0742 1.86253 H 9.9861373 9.7744673 V 1.65086 1.4392 h 0.127 0.1269997 v 0.0885 0.0885 l 0.20782,0.20782 0.20782,0.20781 h 0.34856 0.34857 l 0.12095,-0.12095 0.12095,-0.12095 V 1.40288 1.01583 h 0.127 0.127 V 0.8465 0.67717 h -0.127 -0.127 V 0.8465 1.01583 h -0.0484 -0.0484 l -0.12095,-0.12095 -0.12096,-0.12095 v -0.0484 -0.0484 h 0.16934 0.16933 v -0.127 -0.127 h 0.21167 0.21166 v 1.82033 1.82033 h -0.0847 -0.0847 v -0.0847 -0.0847 h -0.127 -0.127 v 0.0847 0.0847 z M 3.9808473,3.47127 h -0.302377 v -0.0847 -0.0847 h 0.338667 0.33867 V 3.19356 3.08526 l 0.16933,-0.12205 0.16933,-0.12205 V 2.73285 2.62454 h 0.11995 0.11994 l 0.0378,-0.10583 0.0378,-0.10584 0.0751,0.0751 0.0751,0.0751 -0.10583,0.0378 -0.10584,0.0378 v 0.11995 0.11994 h -0.0907 -0.0907 l -0.12095,0.12095 -0.12095,0.12095 v 0.0544 0.0544 l -0.12095,0.12095 -0.12096,0.12096 z m 9.9846197,0 h -0.29633 v -0.0847 -0.0847 h -0.127 -0.127 v -0.0907 -0.0907 l -0.12095,-0.12095 -0.12095,-0.12095 h -0.0907 -0.0907 V 2.75863 2.63868 l -0.10584,-0.0378 -0.10583,-0.0378 0.0751,-0.0751 0.0751,-0.0751 0.0378,0.10584 0.0378,0.10583 h 0.11994 0.11995 v 0.0907 0.0907 l 0.12095,0.12095 0.12095,0.12095 h 0.0907 0.0907 v 0.127 0.127 h 0.29633 0.29634 v 0.0847 0.0847 z M 7.6578073,3.30193 h -0.0847 v -0.127 -0.127 h 0.0847 0.0847 v 0.127 0.127 z m 2.032,0 h -0.0847 v -0.127 -0.127 h 0.0847 0.0847 v 0.127 0.127 z M 3.8901373,2.8786 H 3.6784703 V 1.77793 0.67727 h 0.300177 0.30019 l 0.20781,0.20781 0.20782,0.20782 v 0.0885 0.0885 h 0.0907 0.0907 l 0.12095,0.12096 0.12096,0.12095 V 1.77186 2.0319 h -0.0847 -0.0847 v 0.127 0.127 h -0.0959 -0.0959 l -0.15864,0.18291 -0.15863,0.18291 -0.0554,-0.0554 -0.0554,-0.0554 0.18291,-0.15864 0.1829,-0.15863 v -0.0959 -0.0959 h 0.127 0.127 V 1.86252 1.69319 h -0.127 -0.127 v -0.0907 -0.0907 l -0.14136,-0.14137 -0.14136,-0.14136 -0.035,0.10508 -0.035,0.10508 h -0.11995 -0.11994 v -0.0847 -0.0847 h 0.127 0.127 V 1.05816 0.84649 h -0.0907 -0.0907 l -0.12095,0.12095 -0.12096,0.12095 v 0.59872 0.59871 h 0.0847 0.0847 v 0.29634 0.29633 z m 6.01133,0 h -0.127 V 2.70322 2.52784 l -0.12095,-0.12095 -0.12095,-0.12096 h -0.0907 -0.0907 v -0.0907 -0.0907 l -0.14136,-0.14136 -0.14137,-0.14136 -0.035,0.10508 -0.035,0.10507 h -0.11994 -0.11995 v 0.0907 0.0907 l -0.12095,0.12095 -0.12095,0.12096 h -0.0837 -0.0837 l -0.0378,0.10583 -0.0378,0.10583 -0.0751,-0.0751 -0.0751,-0.0751 0.10584,-0.0378 0.10583,-0.0378 v -0.0776 -0.0776 h -0.508 -0.508 V 2.07427 1.8626 h -0.16933 -0.16934 V 1.7779 1.6932 h 0.16934 0.16933 v 0.0847 0.0847 h 0.127 0.127 V 1.9473 2.032 h 0.381 0.381 V 1.9473 1.8626 h 0.127 0.127 V 1.43927 1.01593 h -0.127 -0.127 v 0.127 0.127 h -0.0847 -0.0847 v -0.127 -0.127 h -0.21167 -0.21167 v -0.0847 -0.0847 h 0.21167 0.21167 v -0.0847 -0.0847 h -0.42334 -0.42333 v 0.0847 0.0847 h -0.16933 -0.16934 v 0.0847 0.0847 h 0.0847 0.0847 v 0.127 0.127 h -0.0847 -0.0847 v -0.127 -0.127 h -0.127 -0.127 V 1.3546 1.69327 h -0.0847 -0.0847 V 1.39089 1.0885 l 0.12095,-0.12095 0.12095,-0.12095 h 0.0907 0.0907 V 0.7619 0.6772 h 0.16934 0.16933 v -0.127 -0.127 h 0.42333 0.42334 v 0.0907 0.0907 l 0.12095,0.12095 0.12095,0.12095 h 0.0544 0.0544 l 0.12095,0.12095 0.12095,0.12095 v 0.30239 0.30238 h 0.19298 0.19297 l 0.12205,0.16933 0.12205,0.16933 h 0.10831 0.10831 v 0.0907 0.0907 l 0.12095,0.12095 0.12095,0.12096 h 0.0907 0.0907 V 2.6668 2.87847 Z m -1.651,-1.86267 h 0.0847 v -0.0847 -0.0847 h -0.0847 -0.0847 v 0.0847 0.0847 z m 0.84667,1.60867 h -0.0847 V 2.5399 2.4552 h 0.0847 0.0847 v 0.0847 0.0847 z m 4.4661697,-0.17255 -0.10584,-0.003 -0.10583,-0.12021 -0.10583,-0.12021 v -0.0882 -0.0882 h -0.127 -0.127 v -0.0847 -0.0847 h 0.0907 0.0907 l 0.12095,0.12095 0.12095,0.12095 v 0.0907 0.0907 h 0.127 0.127 v 0.0847 0.0847 l -0.10583,-0.003 z m 0.35983,0.003 h -0.0847 v -0.0847 -0.0847 h 0.0847 0.0847 v 0.0847 0.0847 z M 4.2288073,1.86238 h -0.127 v -0.0847 -0.0847 h 0.127 0.127 v 0.0847 0.0847 z m 9.5249997,0 h -0.0847 v -0.0847 -0.0847 h 0.0847 0.0847 v 0.0847 0.0847 z m 0.381,0 h -0.127 v -0.0847 -0.0847 h 0.127 0.127 v 0.0847 0.0847 z M 9.4781373,1.69305 h -0.127 V 1.35438 1.01571 h 0.10831 0.10831 l 0.12205,-0.16933 0.12205,-0.16933 h 0.1929697 0.19298 v -0.127 -0.127 h 0.42333 0.42333 v 0.127 0.127 h -0.42333 -0.42333 v 0.0847 0.0847 h -0.17538 -0.1753897 l -0.12095,0.12095 -0.12095,0.12095 v 0.30239 0.30238 z m 3.6406697,0 h -0.127 v -0.127 -0.127 h 0.127 0.127 V 1.26367 1.08828 l 0.12095,-0.12095 0.12095,-0.12095 h 0.0907 0.0907 v -0.0847 -0.0847 h 0.29633 0.29634 v 0.0847 0.0847 h -0.29634 -0.29633 V 1.05099 1.2556 l 0.10583,0.0378 0.10584,0.0378 -0.0751,0.0751 -0.0751,0.0751 -0.0378,-0.10583 -0.0378,-0.10584 h -0.0837 -0.0837 l -0.12095,0.12096 -0.12095,0.12095 v 0.0907 0.0907 z m 1.016,-0.254 h -0.127 v -0.0847 -0.0847 h 0.127 0.127 v 0.0847 0.0847 z M 9.9014673,1.26993 h -0.127 v -0.127 -0.127 h 0.127 0.1269997 v 0.127 0.127 z m 1.2276697,0 h -0.0847 v -0.127 -0.127 h -0.21166 -0.21167 v -0.0847 -0.0847 h 0.17538 0.17538 l 0.12095,0.12095 0.12096,0.12095 v 0.0907 0.0907 z M 6.4361873,0.8466 h -0.0484 V 0.7619 0.6772 h 0.0847 0.0847 v -0.127 -0.127 h 0.0847 0.0847 v 0.0907 0.0907 l -0.12095,0.12095 -0.12095,0.12095 z"
     style="display:inline;fill:#a7a78f;stroke-width:0.08466667" />
  <path
     id="path182"
     d="m 9.0548073,22.26727 h -5.969004 v -0.0847 -0.0847 h 5.969004 5.9689997 v -8.509 -8.509 h 0.127 0.127 v 8.509 8.509 h -0.127 -0.127 v 0.0847 0.0847 z M 16.293807,17.8646 h -0.42334 v -0.127 -0.127 h 0.42334 0.42333 v 0.127 0.127 z m 0.97366,-0.42333 h -0.21166 v -0.0847 -0.0847 h 0.21166 0.21167 v 0.0847 0.0847 z m -1.016,-0.84667 h -0.21166 v -0.29633 -0.29634 h -0.0847 -0.0847 V 15.7056 15.40927 h 0.0847 0.0847 v 0.29633 0.29633 h 0.21166 0.21167 v 0.29634 0.29633 z m 0.93134,-0.33867 h -0.127 V 16.04427 15.8326 h 0.127 0.127 v 0.21167 0.21166 z m -1.31234,-1.016 h -0.16933 v -0.127 -0.127 h 0.16933 0.16934 V 14.8166 14.64727 h 0.127 0.127 v 0.16933 0.16933 h -0.127 -0.127 v 0.127 0.127 z m 1.31234,0 h -0.127 v -0.127 -0.127 h 0.127 0.127 v 0.127 0.127 z m -1.016,-0.84666 h -0.127 v -0.0847 -0.0847 h 0.127 0.127 v 0.0847 0.0847 z m 0,-3.38667 h -0.29634 v -0.127 -0.127 h 0.29634 0.29633 v 0.127 0.127 z m 0.635,0 h -0.0847 v -0.127 -0.127 h 0.0847 0.0847 v 0.127 0.127 z m 0.381,0 h -0.127 v -0.127 -0.127 h 0.127 0.127 v 0.127 0.127 z m -1.016,-1.016 h -0.29634 v -0.127 -0.127 h 0.29634 0.29633 v 0.127 0.127 z m 0.635,0 h -0.0847 v -0.127 -0.127 h 0.0847 0.0847 v 0.127 0.127 z m 0.381,0 h -0.127 v -0.127 -0.127 h 0.127 0.127 v 0.127 0.127 z m -3.62198,-7.366 h -0.10831 l -0.12205,-0.16933 -0.12205,-0.16934 h -0.1083 -0.10831 v -0.127 -0.127 h 0.127 0.127 v 0.0907 0.0907 l 0.12095,0.12095 0.12095,0.12096 h 0.0907 0.0907 v 0.0847 0.0847 z m 0.36231,0 h -0.0847 V 2.5399 2.4552 h 0.0847 0.0847 v 0.0847 0.0847 z m -1.18533,-0.33867 h -0.0847 v -0.127 -0.127 h -0.127 -0.127 v -0.0847 -0.0847 h 0.0907 0.0907 l 0.12095,0.12095 0.12095,0.12095 v 0.0907 0.0907 z m -5.5879997,-0.254 h -0.16934 v -0.0847 -0.0847 h -0.127 -0.127 v -0.0847 -0.0847 h 0.127 0.127 v 0.0847 0.0847 h 0.16934 0.16933 v 0.0847 0.0847 z m 2.8574997,-0.003 -0.1904997,-0.003 -0.11438,-0.12935 -0.11437,-0.12935 0.0625,-0.0579 0.0625,-0.0579 0.0378,0.10584 0.0378,0.10583 h 0.20462 0.2046097 v 0.0847 0.0847 l -0.1905,-0.003 z"
     style="display:inline;fill:#9fa77f;stroke-width:0.08466667" />
  <path
     id="path178"
     d="m 9.3934673,22.6906 h -6.307664 v -0.0847 -0.0847 h 6.096004 6.0959997 v -0.127 -0.127 h 0.0847 0.0847 V 13.67353 5.07986 h 0.127 0.127 v 2.54 2.54 h 0.29633 0.29634 v 0.21167 0.21167 h -0.29634 -0.29633 v 3.00566 3.00567 h 0.508 0.508 v -0.381 -0.381 h 0.0847 0.0847 v 0.29633 0.29634 h 0.29634 0.29633 v 0.21166 0.21167 h 0.127 0.127 v 0.29633 0.29634 h -0.127 -0.127 V 17.14493 16.8486 h -0.29647 -0.29634 v 0.508 0.508 h -0.0847 -0.0847 v -0.21167 -0.21166 h -0.508 -0.508 v 1.60866 1.60867 h 0.0847 0.0847 v 0.127 0.127 h -0.0847 -0.0847 v 0.889 0.889 z m -5.37633,-1.18533 h -0.0847 V 21.08193 20.6586 h 0.0847 0.0847 v 0.42333 0.42334 z m 10.3293297,0 h -0.0847 V 21.08193 20.6586 h 0.0847 0.0847 v 0.42333 0.42334 z m 1.905,-0.84667 h -0.21166 v -0.0847 -0.0847 h 0.21166 0.21167 v 0.0847 0.0847 z M 2.1968033,17.44127 h -0.127 V 17.14493 16.8486 H 1.3924703 0.71513726 v 0.21167 0.21166 h -0.127 -0.127 V 16.8486 16.42527 h 0.127 0.127 v 0.0847 0.0847 h 0.67733304 0.677333 v -0.0847 -0.0847 h 0.127 0.127 v 0.21166 0.21167 h 0.169334 0.169333 v 0.21167 0.21166 h -0.169333 -0.169334 v 0.0847 0.0847 z m 14.6050037,-2.032 h -0.0847 V 15.1976 14.98593 h 0.0847 0.0847 v 0.21167 0.21167 z m 0,-0.59267 h -0.0847 v -0.0847 -0.0847 h 0.0847 0.0847 v 0.0847 0.0847 z M 1.5618033,13.96993 h -0.08467 v -0.0847 -0.0847 h 0.08467 0.08467 v 0.0847 0.0847 z m 0,-1.016 h -0.08467 v -0.0847 -0.0847 h 0.08467 0.08467 v 0.0847 0.0847 z m 15.0283337,-1.778 h -0.127 V 9.8636 8.55127 h 0.127 0.127 v 0.80433 0.80433 h 0.0847 0.0847 V 9.3556 8.55127 h 0.0847 0.0847 v 0.80433 0.80433 h 0.127 0.127 v 0.21167 0.21167 h -0.127 -0.127 v 0.29633 0.29633 h -0.0847 -0.0847 V 10.8796 10.58327 h -0.0847 -0.0847 v 0.29633 0.29633 z m -2.24367,-4.064 h -0.0847 v -0.381 -0.381 h 0.0847 0.0847 v 0.381 0.381 z M 4.0171373,6.9426 h -0.0847 V 6.51927 6.09593 h 0.0847 0.0847 V 6.51927 6.9426 Z m 4.65667,-2.286 h -0.0847 V 4.5719 4.4872 h -1.22767 -1.22766 V 4.4025 4.3178 h 0.71966 0.71967 v -0.127 -0.127 h 1.397 1.3969997 v 0.127 0.127 h 0.71967 0.71966 v -0.127 -0.127 h 0.127 0.127 V 2.24347 0.42314 h 0.0847 0.0847 V 1.35447 2.2858 h 0.29633 0.29633 v 0.0847 0.0847 h -0.29633 -0.29633 v 0.89504 0.89505 l -0.12096,0.12095 -0.12095,0.12096 h -1.31838 -1.3183797 v 0.0847 0.0847 h -0.16933 -0.16934 V 4.5719 4.4872 h -0.127 -0.127 v 0.0847 0.0847 z m 0.29633,-0.762 h -1.397 V 3.59827 3.30193 h 1.397 1.3969997 V 3.59827 3.8946 Z m 0.71967,-1.27 h -0.0847 V 2.5399 2.4552 h -0.0907 -0.0907 l -0.12095,-0.12096 -0.12095,-0.12095 v -0.0907 -0.0907 h 0.0847 0.0847 v 0.127 0.127 h 0.0907 0.0907 l 0.12095,0.12096 0.12095,0.12095 v 0.0484 0.0484 z m -4.27567,-0.16933 h -0.29633 V 2.2436 2.03193 h 0.127 0.127 v 0.127 0.127 h 0.16933 0.16933 v 0.0847 0.0847 z m 2.64831,-0.42334 h -0.066 v -0.066 -0.066 l 0.16934,-0.12205 0.16933,-0.12205 V 1.34291 1.02999 l -0.10583,-0.0378 -0.10584,-0.0378 0.0751,-0.0751 0.0751,-0.0751 0.0378,0.10583 0.0378,0.10583 h 0.11995 0.11994 v 0.33867 0.33867 h -0.10831 -0.10831 l -0.12205,0.16933 -0.12205,0.16933 z m 2.8165397,0 h -0.0885 v -0.0847 -0.0847 h 0.0907 0.0907 l 0.12095,-0.12095 0.12096,-0.12095 V 1.3253 1.02997 l -0.10584,-0.0378 -0.10583,-0.0378 0.0595,-0.064 0.0595,-0.064 0.13103,0.13103 0.13103,0.13103 v 0.2639 0.2639 l -0.20782,0.20782 -0.20782,0.20781 z m -3.3270197,-0.17255 -0.1905,-0.003 -0.10583,-0.12021 -0.10583,-0.1202 v -0.0812 -0.0812 l -0.10584,-0.0494 -0.10583,-0.0494 0.10583,-0.0494 0.10584,-0.0494 v -0.0837 -0.0837 l 0.12095,-0.12095 0.12095,-0.12095 h 0.17538 0.17538 v 0.0847 0.0847 h 0.127 0.127 v 0.11995 0.11994 l 0.10584,0.0494 0.10583,0.0494 -0.10583,0.0494 -0.10584,0.0494 V 1.5735 1.69345 h -0.127 -0.127 v 0.0847 0.0847 l -0.1905,-0.003 z m -0.0212,-0.16611 h 0.21166 v -0.127 -0.127 h 0.127 0.127 v -0.0847 -0.0847 h -0.127 -0.127 v -0.127 -0.127 h -0.21166 -0.21167 v 0.11995 0.11994 l -0.10583,0.0494 -0.10584,0.0494 0.10584,0.0494 0.10583,0.0494 V 1.5733 1.69325 Z m 2.8635397,0.16611 -0.15421,-0.003 -0.10583,-0.12021 -0.10584,-0.1202 v -0.0882 -0.0882 h -0.1269997 -0.127 v -0.0847 -0.0847 h 0.127 0.1269997 v -0.0907 -0.0907 l 0.12096,-0.12095 0.12095,-0.12095 h 0.13909 0.1391 l 0.12095,0.12095 0.12095,0.12095 v 0.0907 0.0907 h 0.127 0.127 v 0.0847 0.0847 h -0.127 -0.127 v 0.0907 0.0907 l -0.12095,0.12095 -0.12095,0.12095 z m 0.0151,-0.16611 h 0.21167 V 1.57332 1.45338 l 0.10583,-0.0494 0.10584,-0.0494 -0.10584,-0.0494 -0.10583,-0.0494 V 1.13584 1.01589 h -0.21167 -0.21166 v 0.11995 0.11994 l -0.10584,0.0494 -0.1058297,0.0494 0.1058297,0.0494 0.10584,0.0494 v 0.11994 0.11995 z"
     style="display:inline;fill:#000000;stroke-width:0.08466667" />
  <path
     id="path180"
     d="m 3.0011373,22.6906 h -0.08467 v -0.0847 -0.0847 h 0.08467 0.08467 v -0.127 -0.127 h 5.969 5.9689997 V 22.1896 22.112 l -0.10584,-0.0378 -0.10583,-0.0378 0.0751,-0.0751 0.0751,-0.0751 0.0378,0.10583 0.0378,0.10583 h 0.11994 0.11995 V 13.62515 5.15243 l 0.12095,-0.12095 0.12095,-0.12095 h 0.0907 0.0907 v 0.0847 0.0847 h -0.127 -0.127 v 8.59367 8.59367 h -0.0847 -0.0847 v 0.127 0.127 h -6.0959997 -6.096 v 0.0847 0.0847 z m 0.592666,-0.59267 h -0.08467 v -0.0847 -0.0847 h 0.08467 0.08467 v 0.0847 0.0847 z m 1.651004,0 h -0.127 v -0.0847 -0.0847 h 0.127 0.127 v 0.0847 0.0847 z m 1.60866,0 h -0.127 v -0.0847 -0.0847 h 0.127 0.127 v 0.0847 0.0847 z m 1.60867,0 h -0.127 v -0.0847 -0.0847 h 0.127 0.127 v 0.0847 0.0847 z m 1.6509997,0 h -0.0847 v -0.0847 -0.0847 h 0.0847 0.0847 v 0.0847 0.0847 z m 1.60867,0 h -0.0847 v -0.0847 -0.0847 h 0.0847 0.0847 v 0.0847 0.0847 z m 1.60866,0 h -0.0847 v -0.0847 -0.0847 h 0.0847 0.0847 v 0.0847 0.0847 z M 4.3134673,21.50527 h -0.21166 v -0.127 -0.127 h 0.21166 0.21167 V 21.08193 20.9126 h -0.21167 -0.21166 v -0.127 -0.127 h 0.21166 0.21167 v 0.127 0.127 h 0.0847 0.0847 v 0.16933 0.16934 h -0.0847 -0.0847 v 0.127 0.127 z m 9.7366697,0 h -0.21167 v -0.127 -0.127 h -0.0847 -0.0847 V 21.08193 20.9126 h 0.0847 0.0847 v -0.127 -0.127 h 0.21167 0.21167 v 0.127 0.127 h -0.21167 -0.21167 v 0.16933 0.16934 h 0.21167 0.21167 v 0.127 0.127 z m -2.32833,-0.254 h -1.10067 v -0.0847 -0.0847 h 1.016 1.016 v -0.21166 -0.21167 h 0.0847 0.0847 v 0.29633 0.29634 z m 4.14866,-0.16934 h -0.16933 v -0.0847 -0.0847 h 0.0847 0.0847 v -0.11995 -0.11994 l -0.10583,-0.0429 -0.10583,-0.0429 0.127,-0.0976 0.127,-0.0976 -0.10584,-0.0429 -0.10583,-0.043 V 20.1858 20.06585 h 0.16933 0.16934 v 0.508 0.508 z M 3.5938033,20.48927 h -0.08467 v -0.0847 -0.0847 h 0.08467 0.08467 v 0.0847 0.0847 z m 8.1280037,0 h -1.10067 v -0.0847 -0.0847 h 1.016 1.016 v -0.21166 -0.21167 h 0.0847 0.0847 v 0.29633 0.29634 z m 3.21733,0 h -0.0847 v -0.0847 -0.0847 h 0.0847 0.0847 v 0.0847 0.0847 z M 3.5938033,18.8806 h -0.08467 v -0.127 -0.127 h 0.08467 0.08467 v 0.127 0.127 z m 11.3453337,0 h -0.0847 v -0.127 -0.127 h 0.0847 0.0847 v 0.127 0.127 z M 2.4931373,18.28793 h -0.169334 v -0.127 -0.127 h -0.127 -0.127 v -0.0847 -0.0847 H 1.3924703 0.71513726 v -0.127 -0.127 h -0.127 -0.127 v 0.127 0.127 h -0.211667 -0.211667 c 0,0 -0.085062,1.095644 7e-6,-1.7356 V 15.8326 h 0.127 0.127 v 0.29633 c -0.093495,0.177026 0.067842,0.258174 0.08467,0.29634 h 0.08467 v 0.41627 0.41628 l -0.105834,0.0378 -0.105833,0.0378 0.07509,0.0751 0.07509,0.0751 0.0378,-0.10583 0.0378,-0.10584 h 0.119944 0.119945 v 0.0847 0.0847 h 0.80433304 0.804333 v -0.0847 -0.0847 h 0.169334 0.169333 v 0.16934 0.16933 h -0.169348 -0.169334 v 0.127 0.127 h 0.169334 0.169333 v 0.21167 0.21166 z m 13.7159997,0 h -0.508 V 17.8646 17.44127 h 0.508 0.508 v 0.0847 0.0847 h -0.42333 -0.42334 v 0.127 0.127 h 0.508 0.508 v -0.508 -0.508 h 0.29634 0.29633 v -0.21174 -0.21166 h -0.29633 -0.29634 V 16.12893 15.8326 h -0.0847 -0.0847 v -0.21167 -0.21166 h 0.0847 0.0847 v 0.21166 0.21167 h 0.0847 0.0847 v 0.21167 0.21166 h 0.21166 0.21167 v -0.635 -0.635 h 0.127 0.127 v 0.93134 0.93133 h -0.127 -0.127 v 0.21167 0.21166 h -0.21167 -0.21166 v 0.0847 0.0847 h 0.33866 0.33867 v 0.0847 0.0847 h -0.127 -0.127 v 0.127 0.127 h -0.26005 -0.26005 l -0.12095,0.12095 -0.12095,0.12095 v 0.0907 0.0907 z M 1.3924703,17.27193 H 0.71513726 V 17.06027 16.8486 h 0.67733304 0.677333 v 0.21167 0.21166 z m 2.201333,0 h -0.08467 v -0.127 -0.127 h 0.08467 0.08467 v 0.127 0.127 z m 11.3453337,0 h -0.0847 v -0.127 -0.127 h 0.0847 0.0847 v 0.127 0.127 z M 2.4931373,16.8486 h -0.169334 v -0.127 -0.127 h 0.169334 0.169333 v 0.127 0.127 z m -1.100667,-0.254 H 0.71513726 v -0.0847 -0.0847 h -0.127 -0.127 v -0.80434 -0.80433 h 0.127 0.127 v 0.80433 0.80434 H 1.3924703 2.0698033 V 16.12893 15.8326 h 0.127 0.127 v 0.29633 0.29634 h -0.127 -0.127 v 0.0847 0.0847 z m 14.4779967,0 h -0.16933 v -0.59267 -0.59266 h 0.0847 0.0847 v 0.29633 0.29633 h 0.0847 0.0847 v 0.29634 0.29633 z M 0.16480326,15.66327 h -0.127 V 15.3246 14.98593 h 0.127 0.127 v 0.33867 0.33867 z m 2.03200004,0 h -0.127 v -0.508 -0.508 h 0.127 0.127 v 0.508 0.508 z m 1.397,0 h -0.08467 v -0.127 -0.127 h 0.08467 0.08467 v 0.127 0.127 z m 11.3453337,0 h -0.0847 v -0.127 -0.127 h 0.0847 0.0847 v 0.127 0.127 z m 2.032,-0.42334 h -0.08467 v -0.11994 -0.11995 l -0.10583,-0.0429 -0.10583,-0.0429 0.127,-0.0976 0.127,-0.0976 -0.10584,-0.0429 -0.10583,-0.0429 v -0.11995 -0.11994 h 0.0847 0.0847 v 0.11994 0.11995 l 0.10584,0.0429 0.10583,0.0429 -0.127,0.0976 -0.127,0.0976 0.10583,0.0429 0.10584,0.0429 v 0.11995 0.11994 z m -1.10067,-0.254 h -0.16933 V 14.8166 14.64727 h 0.16933 0.16934 v 0.16933 0.16933 z M 1.7734703,14.64727 h -0.127 V 14.22393 13.8006 h -0.08467 -0.08467 v 0.0847 0.0847 h -0.211667 -0.211667 v -0.0847 -0.0847 h 0.211667 0.211667 v -0.42333 -0.42334 h 0.08467 0.08467 V 12.7846 12.61527 h 0.127 0.127 v 1.016 1.016 z m 14.0969967,-0.254 h -0.16933 v -0.0847 -0.0847 h 0.16933 0.16934 v 0.0847 0.0847 z M 3.5938033,13.96993 h -0.08467 v -0.0847 -0.0847 h 0.08467 0.08467 v 0.0847 0.0847 z m 11.3453337,0 h -0.0847 v -0.0847 -0.0847 h 0.0847 0.0847 v 0.0847 0.0847 z M 3.5938033,12.36127 h -0.08467 v -0.0847 -0.0847 h 0.08467 0.08467 v 0.0847 0.0847 z m 11.3453337,0 h -0.0847 v -0.0847 -0.0847 h 0.0847 0.0847 v 0.0847 0.0847 z m 1.143,-1.016 h -0.381 v -0.381 -0.381 h 0.29633 0.29634 V 10.3716 10.15993 h -0.29634 -0.29633 V 9.3556 8.55127 h 0.0847 0.0847 V 9.27093 9.9906 h 0.29634 0.29633 v 0.381 0.381 h -0.29633 -0.29634 v 0.127 0.127 h 0.29634 0.29633 v 0.16933 0.16934 z m 0.71967,0 h -0.0847 V 11.17593 11.0066 h 0.0847 0.0847 v 0.16933 0.16934 z m 0.34471,0 h -0.0907 V 11.17593 11.0066 h 0.127 0.127 v -0.127 -0.127 h -0.127 -0.127 v -0.0847 -0.0847 h 0.127 0.127 v -0.21167 -0.21167 h -0.127 -0.127 v -0.0847 -0.0847 h 0.127 0.127 V 9.27079 8.55113 h 0.0847 0.0847 v 0.381 0.381 0.4234 0.68338 0.68338 l -0.12095,0.12095 -0.12095,0.12096 z M 3.5938033,10.75238 h -0.08467 v -0.0847 -0.0847 h 0.08467 0.08467 v 0.0847 0.0847 z m 11.3453337,0 h -0.0847 v -0.0847 -0.0847 h 0.0847 0.0847 v 0.0847 0.0847 z m 1.86267,0 h -0.0847 v -0.0847 -0.0847 h 0.0847 0.0847 v 0.0847 0.0847 z m 0,-0.59267 h -0.0847 v -0.0847 -0.0847 h 0.0847 0.0847 v 0.0847 0.0847 z M 3.5938033,9.14371 h -0.08467 v -0.0847 -0.0847 h 0.08467 0.08467 v 0.0847 0.0847 z m 11.3453337,0 h -0.0847 v -0.0847 -0.0847 h 0.0847 0.0847 v 0.0847 0.0847 z m 1.651,-0.59266 h -0.127 v -0.127 -0.127 h 0.127 0.127 v 0.127 0.127 z m 0.381,0 h -0.08467 v -0.127 -0.127 h 0.0847 0.0847 v 0.127 0.127 z m -1.18533,-0.254 h -0.0847 v -0.0847 -0.0847 h 0.0847 0.0847 v 0.0847 0.0847 z M 3.5938033,7.53505 h -0.08467 v -0.127 -0.127 h 0.08467 0.08467 v 0.127 0.127 z m 11.3453337,0 h -0.0847 v -0.127 -0.127 h 0.0847 0.0847 v 0.127 0.127 z m -0.86783,-0.42656 -0.1905,-0.003 -0.10584,-0.1202 -0.10583,-0.12021 V 6.72846 6.59184 l 0.12095,-0.12095 0.12095,-0.12096 h 0.17539 0.17538 v 0.0847 0.0847 h -0.21167 -0.21167 v 0.21166 0.21167 h 0.21167 0.21167 v 0.0847 0.0847 l -0.1905,-0.003 z M 4.3134673,6.94238 h -0.21166 v -0.127 -0.127 h 0.21166 0.21167 V 6.51905 6.34971 h -0.21167 -0.21166 v -0.127 -0.127 h 0.21166 0.21167 v 0.127 0.127 h 0.0847 0.0847 v 0.16934 0.16933 h -0.0847 -0.0847 v 0.127 0.127 z m -0.719664,-1.27 h -0.08467 v -0.0847 -0.0847 h 0.08467 0.08467 v 0.0847 0.0847 z m 1.651004,0 h -0.127 v -0.0847 -0.0847 h 0.127 0.127 v 0.0847 0.0847 z m 1.60866,0 h -0.127 v -0.0847 -0.0847 h 0.127 0.127 v 0.0847 0.0847 z m 1.60867,0 h -0.127 v -0.0847 -0.0847 h 0.127 0.127 v 0.0847 0.0847 z m 1.6509997,0 h -0.0847 v -0.0847 -0.0847 h 0.0847 0.0847 v 0.0847 0.0847 z m 1.60867,0 h -0.0847 v -0.0847 -0.0847 h 0.0847 0.0847 v 0.0847 0.0847 z m 1.60866,0 h -0.0847 v -0.0847 -0.0847 h 0.0847 0.0847 v 0.0847 0.0847 z m 1.60867,0 h -0.0847 v -0.0847 -0.0847 h 0.0847 0.0847 v 0.0847 0.0847 z m -6.0536697,-1.016 h -0.127 v -0.0847 -0.0847 h 0.127 0.127 v 0.0847 0.0847 z m -2.83633,-0.16933 h -0.0847 v -0.0847 -0.0847 h 0.0847 0.0847 v -0.127 -0.127 h 0.20461 0.20461 l 0.0494,-0.10583 0.0494,-0.10583 0.0494,0.10583 0.0494,0.10583 h 0.28928 0.28928 v -0.0847 -0.0847 h 0.127 0.127 v 0.21167 0.21166 h -0.71967 -0.71966 v 0.0847 0.0847 z M 11.086807,4.31771 h -0.71967 v -0.127 -0.127 h -0.29633 -0.2963397 v -0.0847 -0.0847 h 0.4233397 0.42333 v 0.0847 0.0847 h 0.381 0.381 v -0.0847 -0.0847 h 0.0907 0.0907 l 0.12095,0.12095 0.12095,0.12095 v 0.0907 0.0907 z m -3.2173397,-0.254 h -0.127 v -0.0847 -0.0847 h 0.127 0.127 v 0.0847 0.0847 z m 4.0639997,0 h -0.127 V 2.24338 0.42305 h 0.127 0.127 V 2.24338 4.06371 Z M 4.0171373,3.30171 H 3.6784703 V 3.09005 2.87838 h 0.211667 0.21167 v -0.508 -0.508 h 0.127 0.127 v 0.381 0.381 h 0.066 0.066 l 0.12205,-0.16933 0.12204,-0.16934 h 0.10831 0.10831 v -0.127 -0.127 h 0.0847 0.0847 V 1.86238 1.69305 h 0.127 0.127 v 0.16933 0.16933 h 0.16933 0.16933 v 0.127 0.127 h -0.16933 -0.16933 v -0.127 -0.127 h -0.127 -0.127 v 0.17538 0.17539 l -0.12096,0.12095 -0.12095,0.12095 h -0.0907 -0.0907 V 2.73269 2.841 l -0.16933,0.12205 -0.16933,0.12205 v 0.1083 0.10831 z m 3.429,0 h -0.127 v -0.127 -0.127 h 0.127 0.127 v -0.0847 -0.0847 h 0.29633 0.29634 v -0.127 -0.127 h 0.508 0.508 v -0.0847 -0.0847 h -0.0847 -0.0847 V 2.15893 1.8626 h 0.0847 0.0847 v 0.17538 0.17538 l 0.12095,0.12095 0.12095,0.12096 h 0.0544 0.0544 l 0.12095,0.12095 0.12095,0.12095 v 0.0907 0.0907 h 0.2963397 0.29633 v 0.0847 0.0847 h 0.127 0.127 v 0.127 0.127 h -0.42333 -0.4233397 v -0.127 -0.127 h -0.889 -0.889 v 0.127 0.127 h -0.127 -0.127 v -0.127 -0.127 h -0.0847 -0.0847 v 0.127 0.127 z m 6.5193297,0 h -0.29633 v -0.127 -0.127 h -0.0907 -0.0907 l -0.12095,-0.12095 -0.12095,-0.12095 v -0.0907 -0.0907 h -0.0907 -0.0907 L 12.943487,2.50346 12.822527,2.38251 V 2.12246 1.86241 h -0.21166 -0.21167 v 0.0847 0.0847 h 0.127 0.127 v 0.127 0.127 h -0.21167 -0.21166 V 1.98948 1.69315 h 0.29633 0.29633 v -0.0907 -0.0907 l 0.12096,-0.12095 0.12095,-0.12096 h 0.0907 0.0907 v 0.0847 0.0847 h -0.127 -0.127 V 1.86257 2.2859 h 0.10831 0.1083 l 0.12205,0.16934 0.12205,0.16933 h 0.10831 0.10831 v -0.381 -0.381 h 0.0847 0.0847 v 0.381 0.381 h 0.0847 0.0847 v -0.381 -0.381 h 0.127 0.127 V 2.58224 3.3019 Z m -6.1877197,-1.27 h -0.20461 v -0.0484 -0.0484 l 0.12095,-0.12095 0.12095,-0.12095 h 0.0907 0.0907 V 1.57306 1.45312 l 0.10584,-0.0378 0.10583,-0.0378 -0.0751,-0.0751 -0.0751,-0.0751 -0.0378,0.10583 -0.0378,0.10584 h -0.11994 -0.11995 v 0.127 0.127 h -0.21166 -0.21167 v -0.127 -0.127 h -0.0847 -0.0847 v 0.127 0.127 h -0.0847 -0.0847 v -0.0907 -0.0907 l 0.12096,-0.12095 0.12095,-0.12096 h 0.17538 0.17538 v -0.127 -0.127 h 0.0847 0.0847 v 0.127 0.127 h 0.127 0.127 v -0.127 -0.127 h 0.0847 0.0847 v 0.127 0.127 h 0.0847 0.0847 v 0.20461 0.20462 l -0.10583,0.0378 -0.10584,0.0378 0.0751,0.0751 0.0751,0.0751 0.0378,-0.10583 0.0378,-0.10583 h 0.11995 0.11994 v 0.0847 0.0847 h -0.11994 -0.11995 l -0.0429,0.10583 -0.0429,0.10584 -0.0975,-0.127 -0.0976,-0.127 -0.0429,0.10583 -0.043,0.10583 z m 2.8010597,0 h -0.21167 v -0.0847 -0.0847 h 0.0907 0.0907 l 0.12095,-0.12095 0.12095,-0.12095 v -0.0907 -0.0907 h 0.127 0.127 v -0.0847 -0.0847 h -0.127 -0.127 v -0.127 -0.127 h 0.127 0.127 v 0.127 0.127 h 0.0847 0.0847 v 0.20461 0.20462 l 0.10507,0.035 0.10508,0.035 -0.16177,0.16177 -0.16178,0.16177 -0.035,-0.10507 -0.035,-0.10508 h -0.11994 -0.11995 v 0.0847 0.0847 z m 0.55033,-0.16933 h 0.0847 v -0.0847 -0.0847 h -0.0847 -0.0847 v 0.0847 0.0847 z m -0.71967,-0.16933 h -0.21166 v -0.127 -0.127 h -0.0847 -0.0847 v -0.0847 -0.0847 h 0.16934 0.16933 v -0.127 -0.127 h 0.127 0.127 V 1.1356 1.25554 l 0.10583,0.0494 0.10584,0.0494 -0.10584,0.0494 -0.10583,0.0494 V 1.57308 1.69303 Z M 4.2288073,1.26971 h -0.127 V 1.05805 0.84638 h 0.127 0.127 v 0.21167 0.21166 z m 9.5249997,0 h -0.0847 V 1.05805 0.84638 h 0.0847 0.0847 v 0.21167 0.21166 z m 0.381,0 h -0.127 V 1.05805 0.84638 h 0.127 0.127 V 1.05805 1.26971 Z M 6.6418073,0.84638 h -0.0847 v -0.0847 -0.0847 h 0.0847 0.0847 v 0.0847 0.0847 z m 1.31233,0 h -0.21167 v -0.0847 -0.0847 h 0.21167 0.21167 v 0.0847 0.0847 z m 2.8786697,0 h -0.21167 v -0.0847 -0.0847 h 0.21167 0.21166 v 0.0847 0.0847 z m 0.67733,0 h -0.127 v -0.0847 -0.0847 h 0.127 0.127 v 0.0847 0.0847 z"
     style="display:inline;fill:#696953;stroke-width:0.08466667" />
</svg>
