<?xml version="1.0" encoding="UTF-8" standalone="no"?>
<svg
   xmlns:dc="http://purl.org/dc/elements/1.1/"
   xmlns:cc="http://creativecommons.org/ns#"
   xmlns:rdf="http://www.w3.org/1999/02/22-rdf-syntax-ns#"
   xmlns:svg="http://www.w3.org/2000/svg"
   xmlns="http://www.w3.org/2000/svg"
   viewBox="0 0 52 72"
   height="72"
   width="52"
   id="svg815"
   version="1.1">
  <metadata
     id="metadata821">
    <rdf:RDF>
      <cc:Work
         rdf:about="">
        <dc:format>image/svg+xml</dc:format>
        <dc:type
           rdf:resource="http://purl.org/dc/dcmitype/StillImage" />
        <dc:title></dc:title>
      </cc:Work>
    </rdf:RDF>
  </metadata>
  <defs
     id="defs819" />
  <g
     transform="translate(-201.54962,-52.44789)"
     id="g1211">
    <g
       id="g1396"
       transform="translate(122.67239,30.085538)">
      <g
         id="g1583"
         transform="translate(78.877233,22.362352)">
        <path
           id="path1513"
           d="M 29,16.5 V 16 h 0.5 q 0.5,0 1,0 0.5,0 1,0 H 32 v 0.5 q 0,0.5 0,1 0,0.5 0,1 0,0.5 0,1 V 20 h -0.5 q -0.5,0 -1,0 -0.5,0 -1,0 H 29 v -0.5 q 0,-0.5 0,-1 0,-0.5 0,-1 0,-0.5 0,-1 M 28.875,20 H 29 29.375 29.75 29.5 q -0.25,0 -0.5,0 h -0.25 0.125 m 2.75,0 H 32 32.125 32.25 32 q -0.25,0 -0.5,0 h -0.25 0.375 M 32,16.375 V 16 15.875 15.75 16 q 0,0.25 0,0.5 v 0.25 -0.375 M 29.375,16 H 29 28.875 28.75 29 q 0.25,0 0.5,0 h 0.25 -0.375"
           style="fill:#dfa03f;fill-opacity:1" />
        <path
           d="M 42,26.5 V 26 h 0.5 q 0.5,0 1,0 0.5,0 0.875,0.125 0.375,0.125 0.5,0.5 Q 45,27 45,27.5 q 0,0.5 0,1 V 29 h -0.5 q -0.5,0 -1,0 -0.5,0 -1,0 H 42 v -0.5 q 0,-0.5 0,-1 0,-0.5 0,-1 M 41.875,29 H 42 42.375 42.75 42.5 q -0.25,0 -0.5,0 h -0.25 0.125 M 45,29.125 V 29 28.625 28.25 28.5 q 0,0.25 0,0.5 v 0.25 -0.125 M 42.375,26 H 42 41.875 41.75 42 q 0.25,0 0.5,0 h 0.25 -0.375 m 2.75,-9.375 q 0.125,-0.375 0.5,-0.5 Q 46,16 46.5,16 q 0.5,0 1,0 0.5,0 1,0 H 49 v 0.5 q 0,0.5 0,1 0,0.5 0,1 0,0.5 -0.125,0.875 -0.125,0.375 -0.5,0.5 Q 48,20 47.5,20 q -0.5,0 -1,0 -0.5,0 -1,0 H 45 v -0.5 q 0,-0.5 0,-1 0,-0.5 0,-1 0,-0.5 0.125,-0.875 M 44.875,20 H 45 45.375 45.75 45.5 q -0.25,0 -0.5,0 h -0.25 0.125 M 49,16.375 V 16 15.875 15.75 16 q 0,0.25 0,0.5 v 0.25 -0.375 m -25.875,-5.75 q 0.125,-0.375 0.5,-0.5 Q 24,10 24.5,10 q 0.5,0 1,0 0.5,0 1,0 0.5,0 1,0 0.5,0 1,0 0.5,0 1,0 0.5,0 1,0 0.5,0 1,0 0.5,0 1,0 0.5,0 1,0 0.5,0 1,0 0.5,0 1.0625,-0.0625 L 36.125,9.875 36.0625,9.8125 36,9.75 36.125,9.875 Q 36.25,10 36.5,10 H 36.75 36.375 36 36.5 q 0.5,0 1,0 0.5,0 0.875,0.125 0.375,0.125 0.5,0.5 Q 39,11 39,11.5 q 0,0.5 0.125,0.875 0.125,0.375 0.5,0.5 Q 40,13 40.5,13 q 0.5,0 0.875,0.125 0.375,0.125 0.5,0.5 Q 42,14 42,14.5 q 0,0.5 0,1 V 16 15.625 15.25 15.5 q 0,0.25 0.125,0.375 L 42.25,16 42.1875,15.9375 42.125,15.875 42.0625,16.4375 Q 42,17 42,17.5 q 0,0.5 0,1 0,0.5 0,1 V 20 h -0.5 q -0.5,0 -1,0 -0.5,0 -1.0625,-0.0625 L 38.875,19.875 38.8125,19.9375 38.75,20 38.875,19.875 Q 39,19.75 39,19.5 V 19.25 19.625 20 19.5 q 0,-0.5 0,-1 0,-0.5 0,-1 0,-0.5 0,-1 0,-0.5 0,-1 0,-0.5 0,-1 0,-0.5 -0.125,-0.875 -0.125,-0.375 -0.5,-0.5 Q 38,13 37.5,13 q -0.5,0 -1,0 -0.5,0 -1,0 -0.5,0 -1,0 -0.5,0 -1,0 -0.5,0 -1,0 -0.5,0 -1,0 -0.5,0 -1,0 -0.5,0 -1,0 -0.5,0 -1,0 -0.5,0 -1,0 -0.5,0 -1,0 -0.5,0 -1,0 -0.5,0 -1,0 -0.5,0 -0.875,0.125 -0.375,0.125 -0.5,0.5 Q 23,14 23,14.5 q 0,0.5 -0.125,0.875 -0.125,0.375 -0.5,0.5 Q 22,16 21.5,16 q -0.5,0 -1,0 -0.5,0 -1,0 -0.5,0 -1,0 -0.5,0 -1,0 -0.5,0 -0.875,0.125 -0.375,0.125 -0.5,0.5 Q 16,17 16,17.5 q 0,0.5 0,1 0,0.5 0,1 V 20 h -0.5 q -0.5,0 -1,0 -0.5,0 -0.875,0.125 -0.375,0.125 -0.5,0.5 Q 13,21 13,21.5 q 0,0.5 -0.125,0.875 -0.125,0.375 -0.5,0.5 Q 12,23 11.5,23 11,23 10.625,23.125 10.25,23.25 10.125,23.625 10,24 10,24.5 10,25 10.0625,25.5625 L 10.125,26.125 10.1875,26.0625 10.25,26 10.125,26.125 Q 10,26.25 10,26.5 V 26.75 26.375 26 26.5 q 0,0.5 0,1 0,0.5 -0.125,0.875 -0.125,0.375 -0.5,0.5 Q 9,29 8.5,29 8,29 7.5,29 7,29 6.625,29.125 6.25,29.25 6.125,29.625 6,30 6,30.5 q 0,0.5 0,1 0,0.5 0,1 0,0.5 0,1 0,0.5 0,1 0,0.5 0,1 V 36 35.625 35.25 35.5 q 0,0.25 0.125,0.375 L 6.25,36 6.1875,35.9375 6.125,35.875 6.0625,36.4375 Q 6,37 6,37.5 6,38 5.875,38.375 5.75,38.75 5.375,38.875 5,39 4.5,39 4,39 3.625,38.875 3.25,38.75 3.125,38.375 3,38 3,37.5 3,37 3,36.5 3,36 3,35.5 3,35 3,34.5 3,34 3,33.5 3,33 3,32.5 3,32 3,31.5 3,31 3,30.5 3,30 3.125,29.625 3.25,29.25 3.625,29.125 4,29 4.5,29 5,29 5.375,28.875 5.75,28.75 5.875,28.375 6,28 6,27.5 6,27 6,26.5 6,26 6,25.5 6,25 6,24.5 6,24 6.125,23.625 6.25,23.25 6.625,23.125 7,23 7.5,23 8,23 8.5,23 9,23 9.375,22.875 9.75,22.75 9.875,22.375 10,22 10,21.5 10,21 10.125,20.625 10.25,20.25 10.625,20.125 11,20 11.5,20 q 0.5,0 0.875,-0.125 0.375,-0.125 0.5,-0.5 Q 13,19 13,18.5 q 0,-0.5 0,-1 0,-0.5 0.125,-0.875 0.125,-0.375 0.5,-0.5 Q 14,16 14.5,16 q 0.5,0 0.875,-0.125 0.375,-0.125 0.5,-0.5 Q 16,15 16,14.5 16,14 16.125,13.625 16.25,13.25 16.625,13.125 17,13 17.5,13 q 0.5,0 1,0 0.5,0 1,0 0.5,0 1,0 0.5,0 1,0 0.5,0 0.875,-0.125 0.375,-0.125 0.5,-0.5 Q 23,12 23,11.5 23,11 23.125,10.625 M 16,20.125 V 20 19.625 19.25 19.5 q 0,0.25 0,0.5 v 0.25 -0.125 M 41.625,20 H 42 42.125 42.25 42 q -0.25,0 -0.5,0 h -0.25 0.375"
           style="fill:#500000;fill-opacity:1"
           id="path1531" />
        <path
           d="m 23.125,29.625 q 0.125,-0.375 0.5,-0.5 Q 24,29 24.5,29 q 0.5,0 1,0 H 26 v 0.5 q 0,0.5 0,1 0,0.5 0,1 0,0.5 0.125,0.875 0.125,0.375 0.5,0.5 Q 27,33 27.5,33 q 0.5,0 0.875,-0.125 0.375,-0.125 0.5,-0.5 Q 29,32 29,31.5 q 0,-0.5 0,-1 0,-0.5 0,-1 V 29 h 0.5 q 0.5,0 1,0 0.5,0 1,0 H 32 v 0.5 q 0,0.5 0,1 0,0.5 0,1 0,0.5 0.125,0.875 0.125,0.375 0.5,0.5 Q 33,33 33.5,33 q 0.5,0 1,0 0.5,0 0.875,-0.125 0.375,-0.125 0.5,-0.5 Q 36,32 36,31.5 q 0,-0.5 0,-1 0,-0.5 0,-1 V 29 h 0.5 q 0.5,0 1,0 0.5,0 1,0 H 39 v 0.5 q 0,0.5 0,1 0,0.5 0,1 0,0.5 0.125,0.875 0.125,0.375 0.5,0.5 Q 40,33 40.5,33 q 0.5,0 1,0 0.5,0 1,0 0.5,0 1,0 0.5,0 0.875,0.125 0.375,0.125 0.5,0.5 Q 45,34 45,34.5 q 0,0.5 0,1 V 36 h -0.5 q -0.5,0 -1,0 -0.5,0 -1,0 -0.5,0 -1,0 -0.5,0 -1,0 -0.5,0 -1,0 -0.5,0 -1,0 -0.5,0 -1,0 -0.5,0 -1,0 -0.5,0 -1,0 -0.5,0 -1,0 -0.5,0 -1,0 -0.5,0 -1,0 -0.5,0 -1,0 -0.5,0 -1,0 -0.5,0 -1.0625,0.0625 L 28.875,36.125 28.9375,36.1875 29,36.25 28.875,36.125 Q 28.75,36 28.5,36 H 28.25 28.625 29 28.5 q -0.5,0 -1,0 -0.5,0 -0.875,0.125 -0.375,0.125 -0.5,0.5 Q 26,37 26,37.5 q 0,0.5 -0.125,0.875 -0.125,0.375 -0.5,0.5 Q 25,39 24.5,39 24,39 23.625,39.125 23.25,39.25 23.125,39.625 23,40 23,40.5 q 0,0.5 0,1 0,0.5 0,1 V 43 42.625 42.25 42.5 q 0,0.25 0.125,0.375 L 23.25,43 23.1875,42.9375 23.125,42.875 22.5625,42.9375 Q 22,43 21.5,43 21,43 20.5,43 20,43 19.625,42.875 19.25,42.75 19.125,42.375 19,42 19,41.5 19,41 19,40.5 19,40 18.9375,39.4375 L 18.875,38.875 18.8125,38.9375 18.75,39 18.875,38.875 Q 19,38.75 19,38.5 V 38.25 38.625 39 38.5 q 0,-0.5 0,-1 0,-0.5 0.125,-0.875 0.125,-0.375 0.5,-0.5 Q 20,36 20.5,36 q 0.5,0 1,0 0.5,0 0.875,-0.125 0.375,-0.125 0.5,-0.5 Q 23,35 23,34.5 23,34 23,33.5 V 33 33.375 33.75 33.5 q 0,-0.25 -0.125,-0.375 L 22.75,33 l 0.0625,0.0625 0.0625,0.0625 0.0625,-0.5625 Q 23,32 23,31.5 23,31 23,30.5 23,30 23.125,29.625 M 45,36.125 V 36 35.625 35.25 35.5 q 0,0.25 0,0.5 v 0.25 -0.125 m -9,-7.25 V 29 29.375 29.75 29.5 q 0,-0.25 0,-0.5 v -0.25 0.125 m -4,0.5 V 29 28.875 28.75 29 q 0,0.25 0,0.5 v 0.25 -0.375 m -3,-0.5 V 29 29.375 29.75 29.5 q 0,-0.25 0,-0.5 v -0.25 0.125 m -3,0.5 V 29 28.875 28.75 29 q 0,0.25 0,0.5 v 0.25 -0.375 M 10,26.5 q 0,-0.5 0.5,-0.5 0.5,0 1,0 0.5,0 1,0 0.5,0 0.5,0.5 0,0.5 0,1 0,0.5 0.125,0.875 0.125,0.375 0.5,0.5 Q 14,29 14.5,29 q 0.5,0 0.875,0.125 0.375,0.125 0.5,0.5 Q 16,30 16,30.5 q 0,0.5 0,1 0,0.5 0,1 0,0.5 0,1 0,0.5 0,1 0,0.5 0,1 0,0.5 0,1 0,0.5 0,1 0,0.5 0,1 V 39 38.625 38.25 38.5 q 0,0.25 0.125,0.375 L 16.25,39 16.1875,38.9375 16.125,38.875 15.5625,38.9375 Q 15,39 14.5,39 14,39 13.625,38.875 13.25,38.75 13.125,38.375 13,38 13,37.5 q 0,-0.5 0,-1 0,-0.5 0,-1 0,-0.5 0,-1 0,-0.5 0,-1 0,-0.5 0,-1 0,-0.5 0,-1 0,-0.5 0,-1 0,-0.5 -0.125,-0.875 -0.125,-0.375 -0.5,-0.5 Q 12,29 11.5,29 11,29 10.625,29.125 10.25,29.25 10.125,29.625 10,30 10,30.5 q 0,0.5 0,1 0,0.5 0,1 V 33 H 9.5 Q 9,33 8.5,33 8,33 7.5,33 7,33 6.5,33 H 6 V 32.5 Q 6,32 6,31.5 6,31 6,30.5 6,30 6.125,29.625 6.25,29.25 6.625,29.125 7,29 7.5,29 8,29 8.5,29 9,29 9.375,28.875 9.75,28.75 9.875,28.375 10,28 10,27.5 10,27 10,26.5 M 6,32.625 V 33 33.125 33.25 33 q 0,-0.25 0,-0.5 v -0.25 0.375 m 4,0.5 V 33 32.625 32.25 32.5 q 0,0.25 0,0.5 v 0.25 -0.125"
           style="fill:#ffd0c0;fill-opacity:1"
           id="path1535" />
        <path
           d="M 29,36.5 V 36 36.375 36.75 36.5 q 0,-0.25 -0.125,-0.375 L 28.75,36 l 0.0625,0.0625 0.0625,0.0625 0.5625,-0.0625 Q 30,36 30.5,36 q 0.5,0 1,0 0.5,0 1,0 0.5,0 1,0 0.5,0 1,0 0.5,0 1,0 0.5,0 1,0 0.5,0 1,0 0.5,0 1,0 0.5,0 1,0 0.5,0 1,0 0.5,0 1,0 0.5,0 1,0 0.5,0 1,0 0.5,0 1,0 H 45 v 0.5 q 0,0.5 0,1 0,0.5 0,1 V 39 h -0.5 q -0.5,0 -1,0 -0.5,0 -1,0 -0.5,0 -1,0 -0.5,0 -1,0 -0.5,0 -1,0 -0.5,0 -1,0 -0.5,0 -1,0 -0.5,0 -1,0 -0.5,0 -1,0 -0.5,0 -1,0 -0.5,0 -1,0 -0.5,0 -1,0 -0.5,0 -1,0 -0.5,0 -1,0 -0.5,0 -0.875,-0.125 -0.375,-0.125 -0.5,-0.5 Q 29,38 29,37.5 29,37 29,36.5 M 44.625,39 H 45 45.125 45.25 45 q -0.25,0 -0.5,0 h -0.25 0.375 M 45,36.375 V 36 35.875 35.75 36 q 0,0.25 0,0.5 v 0.25 -0.375 M 6,33.5 V 33 h 0.5 q 0.5,0 1,0 0.5,0 1,0 0.5,0 1,0 H 10 v 0.5 q 0,0.5 0,1 0,0.5 0.125,0.875 0.125,0.375 0.5,0.5 Q 11,36 11.5,36 q 0.5,0 1,0 H 13 v 0.5 q 0,0.5 0,1 0,0.5 0.125,0.875 0.125,0.375 0.5,0.5 Q 14,39 14.5,39 15,39 15.5625,38.9375 L 16.125,38.875 16.0625,38.8125 16,38.75 16.125,38.875 Q 16.25,39 16.5,39 H 16.75 16.375 16 16.5 q 0.5,0 1,0 0.5,0 1,0 H 19 18.625 18.25 18.5 q 0.25,0 0.375,-0.125 L 19,38.75 18.9375,38.8125 18.875,38.875 18.9375,39.4375 Q 19,40 19,40.5 q 0,0.5 0,1 0,0.5 0.125,0.875 0.125,0.375 0.5,0.5 Q 20,43 20.5,43 q 0.5,0 1,0 0.5,0 1.0625,-0.0625 L 23.125,42.875 23.0625,42.8125 23,42.75 23.125,42.875 Q 23.25,43 23.5,43 H 23.75 23.375 23 23.5 q 0.5,0 1,0 0.5,0 1,0 0.5,0 1,0 0.5,0 1,0 0.5,0 0.875,0.125 0.375,0.125 0.5,0.5 Q 29,44 29,44.5 q 0,0.5 0,1 V 46 h -0.5 q -0.5,0 -1,0 -0.5,0 -1,0 -0.5,0 -1,0 -0.5,0 -1,0 -0.5,0 -1,0 -0.5,0 -1,0 -0.5,0 -1,0 -0.5,0 -1,0 -0.5,0 -0.875,-0.125 -0.375,-0.125 -0.5,-0.5 Q 19,45 19,44.5 19,44 18.875,43.625 18.75,43.25 18.375,43.125 18,43 17.5,43 q -0.5,0 -1,0 -0.5,0 -1,0 -0.5,0 -1,0 -0.5,0 -1,0 H 13 v -0.5 q 0,-0.5 0,-1 0,-0.5 0,-1 0,-0.5 -0.125,-0.875 -0.125,-0.375 -0.5,-0.5 Q 12,39 11.5,39 11,39 10.625,38.875 10.25,38.75 10.125,38.375 10,38 10,37.5 10,37 9.875,36.625 9.75,36.25 9.375,36.125 9,36 8.5,36 8,36 7.5,36 7,36 6.5,36 6,36 6,35.5 6,35 6,34.5 6,34 6,33.5 M 28.625,46 H 29 29.125 29.25 29 q -0.25,0 -0.5,0 h -0.25 0.375 M 13,36.375 V 36 35.875 35.75 36 q 0,0.25 0,0.5 v 0.25 -0.375 m -3,-3 V 33 32.875 32.75 33 q 0,0.25 0,0.5 v 0.25 -0.375 m -4,-0.5 V 33 33.375 33.75 33.5 Q 6,33.25 6,33 v -0.25 0.125 m 30.125,-6.25 q 0.125,-0.375 0.5,-0.5 Q 37,26 37.5,26 q 0.5,0 1,0 H 39 v 0.5 q 0,0.5 0,1 0,0.5 0,1 V 29 h -0.5 q -0.5,0 -1,0 -0.5,0 -1,0 H 36 v -0.5 q 0,-0.5 0,-1 0,-0.5 0.125,-0.875 m -0.125,2 V 29 29.125 29.25 29 q 0,-0.25 0,-0.5 v -0.25 0.375 M 39.125,26 H 39 38.625 38.25 38.5 q 0.25,0 0.5,0 h 0.25 -0.125 m -10,0.625 q 0.125,-0.375 0.5,-0.5 Q 30,26 30.5,26 q 0.5,0 0.875,0.125 0.375,0.125 0.5,0.5 Q 32,27 32,27.5 q 0,0.5 0,1 V 29 h -0.5 q -0.5,0 -1,0 -0.5,0 -1,0 H 29 v -0.5 q 0,-0.5 0,-1 0,-0.5 0.125,-0.875 m -0.125,2 V 29 29.125 29.25 29 q 0,-0.25 0,-0.5 v -0.25 0.375 m 3,0.5 V 29 28.625 28.25 28.5 q 0,0.25 0,0.5 v 0.25 -0.125 m -8.875,-2.5 q 0.125,-0.375 0.5,-0.5 Q 24,26 24.5,26 q 0.5,0 0.875,0.125 0.375,0.125 0.5,0.5 Q 26,27 26,27.5 q 0,0.5 0,1 V 29 h -0.5 q -0.5,0 -1,0 -0.5,0 -0.875,0.125 -0.375,0.125 -0.5,0.5 Q 23,30 23,30.5 q 0,0.5 0,1 0,0.5 -0.0625,1.0625 L 22.875,33.125 22.9375,33.1875 23,33.25 22.875,33.125 Q 22.75,33 22.5,33 H 22.25 22.625 23 22.5 q -0.5,0 -1,0 -0.5,0 -1,0 -0.5,0 -0.875,-0.125 -0.375,-0.125 -0.5,-0.5 Q 19,32 19,31.5 q 0,-0.5 0,-1 0,-0.5 0.125,-0.875 0.125,-0.375 0.5,-0.5 Q 20,29 20.5,29 q 0.5,0 1,0 0.5,0 0.875,-0.125 0.375,-0.125 0.5,-0.5 Q 23,28 23,27.5 23,27 23.125,26.625 M 26,29.125 V 29 28.625 28.25 28.5 q 0,0.25 0,0.5 v 0.25 -0.125"
           style="fill:#ff706f;fill-opacity:1"
           id="path1545" />
        <path
           d="M 13,43.5 V 43 h 0.5 q 0.5,0 1,0 0.5,0 1,0 H 16 v 0.5 q 0,0.5 0,1 0,0.5 0.125,0.875 0.125,0.375 0.5,0.5 Q 17,46 17.5,46 q 0.5,0 0.875,0.125 0.375,0.125 0.5,0.5 Q 19,47 19,47.5 q 0,0.5 -0.125,0.875 -0.125,0.375 -0.5,0.5 Q 18,49 17.5,49 17,49 16.625,48.875 16.25,48.75 16.125,48.375 16,48 16,47.5 16,47 15.875,46.625 15.75,46.25 15.375,46.125 15,46 14.5,46 14,46 13.625,45.875 13.25,45.75 13.125,45.375 13,45 13,44.5 13,44 13,43.5 M 16.125,43 H 16 15.625 15.25 15.5 q 0.25,0 0.5,0 h 0.25 -0.125 M 39,26.5 V 26 h 0.5 q 0.5,0 1,0 0.5,0 1,0 H 42 v 0.5 q 0,0.5 0,1 0,0.5 0,1 V 29 h -0.5 q -0.5,0 -1,0 -0.5,0 -1,0 H 39 v -0.5 q 0,-0.5 0,-1 0,-0.5 0,-1 M 41.625,29 H 42 42.125 42.25 42 q -0.25,0 -0.5,0 h -0.25 0.375 m 0.5,-3 H 42 41.625 41.25 41.5 q 0.25,0 0.5,0 h 0.25 -0.125 m -2.75,0 H 39 38.875 38.75 39 q 0.25,0 0.5,0 h 0.25 -0.375 m -16.25,-9.375 q 0.125,-0.375 0.5,-0.5 Q 24,16 24.5,16 q 0.5,0 1,0 0.5,0 1,0 0.5,0 1,0 0.5,0 1,0 H 29 v 0.5 q 0,0.5 0,1 0,0.5 0,1 0,0.5 0,1 V 20 h -0.5 q -0.5,0 -1,0 -0.5,0 -0.875,0.125 -0.375,0.125 -0.5,0.5 Q 26,21 26,21.5 q 0,0.5 -0.125,0.875 -0.125,0.375 -0.5,0.5 Q 25,23 24.5,23 q -0.5,0 -1,0 -0.5,0 -1,0 -0.5,0 -1,0 -0.5,0 -1,0 -0.5,0 -0.875,0.125 -0.375,0.125 -0.5,0.5 Q 19,24 19,24.5 q 0,0.5 -0.125,0.875 -0.125,0.375 -0.5,0.5 Q 18,26 17.5,26 q -0.5,0 -1,0 -0.5,0 -1,0 -0.5,0 -1,0 -0.5,0 -1.0625,0.0625 L 12.875,26.125 12.9375,26.1875 13,26.25 12.875,26.125 Q 12.75,26 12.5,26 H 12.25 12.625 13 12.5 q -0.5,0 -1,0 -0.5,0 -1,0 H 10 10.375 10.75 10.5 q -0.25,0 -0.375,0.125 L 10,26.25 10.0625,26.1875 10.125,26.125 10.0625,25.5625 Q 10,25 10,24.5 10,24 10.125,23.625 10.25,23.25 10.625,23.125 11,23 11.5,23 q 0.5,0 0.875,-0.125 0.375,-0.125 0.5,-0.5 Q 13,22 13,21.5 13,21 13.125,20.625 13.25,20.25 13.625,20.125 14,20 14.5,20 q 0.5,0 1,0 H 16 v 0.5 q 0,0.5 0,1 0,0.5 0.125,0.875 0.125,0.375 0.5,0.5 Q 17,23 17.5,23 q 0.5,0 0.875,-0.125 0.375,-0.125 0.5,-0.5 Q 19,22 19,21.5 19,21 19.125,20.625 19.25,20.25 19.625,20.125 20,20 20.5,20 q 0.5,0 1,0 0.5,0 0.875,-0.125 0.375,-0.125 0.5,-0.5 Q 23,19 23,18.5 23,18 23,17.5 23,17 23.125,16.625 M 16,20.375 V 20 19.875 19.75 20 q 0,0.25 0,0.5 v 0.25 -0.375 M 28.625,20 H 29 29.125 29.25 29 q -0.25,0 -0.5,0 h -0.25 0.375 m 0.5,-4 H 29 28.625 28.25 28.5 q 0.25,0 0.5,0 h 0.25 -0.125"
           style="fill:#b02860;fill-opacity:1"
           id="path1549" />
        <path
           d="m 19.125,49.625 q 0.125,-0.375 0.5,-0.5 Q 20,49 20.5,49 q 0.5,0 1,0 0.5,0 1,0 H 23 v 0.5 q 0,0.5 0,1 0,0.5 -0.125,0.875 -0.125,0.375 -0.5,0.5 Q 22,52 21.5,52 q -0.5,0 -1,0 -0.5,0 -1,0 H 19 v -0.5 q 0,-0.5 0,-1 0,-0.5 0.125,-0.875 m -0.125,2 V 52 52.125 52.25 52 q 0,-0.25 0,-0.5 v -0.25 0.375 M 23.125,49 H 23 22.625 22.25 22.5 q 0.25,0 0.5,0 h 0.25 -0.125 M 36,13.5 V 13 h 0.5 q 0.5,0 1,0 0.5,0 0.875,0.125 0.375,0.125 0.5,0.5 Q 39,14 39,14.5 q 0,0.5 0,1 V 16 h -0.5 q -0.5,0 -1,0 -0.5,0 -1,0 H 36 v -0.5 q 0,-0.5 0,-1 0,-0.5 0,-1 m 0,2.125 V 16 16.125 16.25 16 q 0,-0.25 0,-0.5 v -0.25 0.375 m 3,0.5 V 16 15.625 15.25 15.5 q 0,0.25 0,0.5 v 0.25 -0.125 M 36.375,13 H 36 35.875 35.75 36 q 0.25,0 0.5,0 h 0.25 -0.375 m -13.25,0.625 q 0.125,-0.375 0.5,-0.5 Q 24,13 24.5,13 q 0.5,0 1,0 0.5,0 1,0 0.5,0 1,0 0.5,0 1,0 0.5,0 1,0 0.5,0 1,0 0.5,0 1,0 H 32 v 0.5 q 0,0.5 0,1 0,0.5 0,1 V 16 h -0.5 q -0.5,0 -1,0 -0.5,0 -1,0 -0.5,0 -1,0 -0.5,0 -1,0 -0.5,0 -1,0 -0.5,0 -1,0 -0.5,0 -1,0 -0.5,0 -0.875,0.125 -0.375,0.125 -0.5,0.5 Q 23,17 23,17.5 q 0,0.5 0,1 0,0.5 -0.125,0.875 -0.125,0.375 -0.5,0.5 Q 22,20 21.5,20 q -0.5,0 -1,0 -0.5,0 -0.875,0.125 -0.375,0.125 -0.5,0.5 Q 19,21 19,21.5 q 0,0.5 -0.125,0.875 -0.125,0.375 -0.5,0.5 Q 18,23 17.5,23 17,23 16.625,22.875 16.25,22.75 16.125,22.375 16,22 16,21.5 q 0,-0.5 0,-1 0,-0.5 0,-1 0,-0.5 0,-1 0,-0.5 0,-1 0,-0.5 0.125,-0.875 0.125,-0.375 0.5,-0.5 Q 17,16 17.5,16 q 0.5,0 1,0 0.5,0 1,0 0.5,0 1,0 0.5,0 1,0 0.5,0 0.875,-0.125 0.375,-0.125 0.5,-0.5 Q 23,15 23,14.5 23,14 23.125,13.625 M 32,16.125 V 16 15.625 15.25 15.5 q 0,0.25 0,0.5 v 0.25 -0.125 M 32.125,13 H 32 31.625 31.25 31.5 q 0.25,0 0.5,0 h 0.25 -0.125"
           style="fill:#ff4070;fill-opacity:1"
           id="path1555" />
        <path
           d="M 23,49.5 V 49 h 0.5 q 0.5,0 1,0 0.5,0 1,0 0.5,0 1,0 0.5,0 1,0 0.5,0 1,0 H 29 v 0.5 q 0,0.5 0,1 0,0.5 0,1 V 52 h -0.5 q -0.5,0 -1,0 -0.5,0 -0.875,0.125 -0.375,0.125 -0.5,0.5 Q 26,53 26,53.5 q 0,0.5 0,1 0,0.5 0,1 0,0.5 0,1 0,0.5 0,1 0,0.5 0.125,0.875 0.125,0.375 0.5,0.5 Q 27,59 27.5,59 q 0.5,0 1,0 0.5,0 1,0 0.5,0 1,0 0.5,0 1,0 H 32 v 0.5 q 0,0.5 0,1 0,0.5 0,1 0,0.5 0,1 0,0.5 0,1 0,0.5 -0.125,0.875 -0.125,0.375 -0.5,0.5 Q 31,65 30.5,65 q -0.5,0 -1,0 -0.5,0 -1,0 -0.5,0 -1,0 -0.5,0 -1,0 -0.5,0 -1,0 -0.5,0 -1,0 -0.5,0 -1,0 -0.5,0 -1,0 -0.5,0 -1,0 -0.5,0 -1,0 -0.5,0 -0.875,-0.125 -0.375,-0.125 -0.5,-0.5 Q 19,64 19,63.5 19,63 18.875,62.625 18.75,62.25 18.375,62.125 18,62 17.5,62 q -0.5,0 -1,0 -0.5,0 -1,0 -0.5,0 -1,0 -0.5,0 -1,0 H 13 v -0.5 q 0,-0.5 0,-1 0,-0.5 0.125,-0.875 0.125,-0.375 0.5,-0.5 Q 14,59 14.5,59 q 0.5,0 0.875,-0.125 0.375,-0.125 0.5,-0.5 Q 16,58 16,57.5 16,57 16.125,56.625 16.25,56.25 16.625,56.125 17,56 17.5,56 q 0.5,0 0.875,-0.125 0.375,-0.125 0.5,-0.5 Q 19,55 19,54.5 q 0,-0.5 0,-1 0,-0.5 0,-1 V 52 h 0.5 q 0.5,0 1,0 0.5,0 1,0 0.5,0 0.875,-0.125 0.375,-0.125 0.5,-0.5 Q 23,51 23,50.5 q 0,-0.5 0,-1 m -4,2.375 V 52 52.375 52.75 52.5 q 0,-0.25 0,-0.5 v -0.25 0.125 M 12.875,62 H 13 13.375 13.75 13.5 q -0.25,0 -0.5,0 h -0.25 0.125 M 32,59.375 V 59 58.875 58.75 59 q 0,0.25 0,0.5 v 0.25 -0.375 M 28.625,52 H 29 29.125 29.25 29 q -0.25,0 -0.5,0 h -0.25 0.375 m 0.5,-3 H 29 28.625 28.25 28.5 q 0.25,0 0.5,0 h 0.25 -0.125 m -5.75,0 H 23 22.875 22.75 23 q 0.25,0 0.5,0 h 0.25 -0.375"
           style="fill:#40809f;fill-opacity:1"
           id="path1557" />
        <path
           d="M 29,49.5 V 49 h 0.5 q 0.5,0 1,0 0.5,0 1,0 0.5,0 1,0 0.5,0 1,0 0.5,0 1,0 0.5,0 0.875,0.125 0.375,0.125 0.5,0.5 Q 36,50 36,50.5 q 0,0.5 0,1 V 52 51.625 51.25 51.5 q 0,0.25 0.125,0.375 L 36.25,52 36.1875,51.9375 36.125,51.875 36.0625,52.4375 Q 36,53 36,53.5 q 0,0.5 0,1 0,0.5 0,1 0,0.5 0,1 0,0.5 0,1 0,0.5 0.0625,1.0625 L 36.125,59.125 36.1875,59.0625 36.25,59 36.125,59.125 Q 36,59.25 36,59.5 V 59.75 59.375 59 59.5 q 0,0.5 0,1 0,0.5 -0.125,0.875 -0.125,0.375 -0.5,0.5 Q 35,62 34.5,62 q -0.5,0 -1,0 -0.5,0 -1,0 H 32 v -0.5 q 0,-0.5 0,-1 0,-0.5 0,-1 0,-0.5 0,-1 0,-0.5 0,-1 0,-0.5 0,-1 0,-0.5 0,-1 0,-0.5 0,-1 0,-0.5 0,-1 0,-0.5 -0.125,-0.875 -0.125,-0.375 -0.5,-0.5 Q 31,52 30.5,52 30,52 29.5,52 H 29 v -0.5 q 0,-0.5 0,-1 0,-0.5 0,-1 M 28.875,52 H 29 29.375 29.75 29.5 q -0.25,0 -0.5,0 h -0.25 0.125 M 32,61.625 V 62 62.125 62.25 62 q 0,-0.25 0,-0.5 v -0.25 0.375 M 29.375,49 H 29 28.875 28.75 29 q 0.25,0 0.5,0 h 0.25 -0.375"
           style="fill:#80d8cf;fill-opacity:1"
           id="path1559" />
        <path
           d="M 36.0625,52.4375 36.125,51.875 36.0625,51.8125 36,51.75 36.125,51.875 Q 36.25,52 36.5,52 H 36.75 36.375 36 36.5 q 0.5,0 1,0 0.5,0 0.875,0.125 0.375,0.125 0.5,0.5 Q 39,53 39,53.5 q 0,0.5 0,1 0,0.5 0,1 0,0.5 0,1 0,0.5 0,1 0,0.5 0,1 0,0.5 -0.5,0.5 -0.5,0 -1,0 -0.5,0 -1,0 H 36 36.375 36.75 36.5 q -0.25,0 -0.375,0.125 L 36,59.25 36.0625,59.1875 36.125,59.125 36.0625,58.5625 Q 36,58 36,57.5 q 0,-0.5 0,-1 0,-0.5 0,-1 0,-0.5 0,-1 0,-0.5 0,-1 0,-0.5 0.0625,-1.0625 M 26.125,52.625 q 0.125,-0.375 0.5,-0.5 Q 27,52 27.5,52 q 0.5,0 1,0 0.5,0 1,0 0.5,0 1,0 0.5,0 0.875,0.125 0.375,0.125 0.5,0.5 Q 32,53 32,53.5 q 0,0.5 0,1 0,0.5 0,1 0,0.5 0,1 0,0.5 0,1 0,0.5 0,1 V 59 h -0.5 q -0.5,0 -1,0 -0.5,0 -1,0 -0.5,0 -1,0 -0.5,0 -1,0 -0.5,0 -0.875,-0.125 -0.375,-0.125 -0.5,-0.5 Q 26,58 26,57.5 q 0,-0.5 0,-1 0,-0.5 0,-1 0,-0.5 0,-1 0,-0.5 0,-1 0,-0.5 0.125,-0.875 M 32,59.125 V 59 58.625 58.25 58.5 q 0,0.25 0,0.5 v 0.25 -0.125 M 6.125,46.625 Q 6.25,46.25 6.625,46.125 7,46 7.5,46 q 0.5,0 1,0 0.5,0 1,0 0.5,0 1,0 0.5,0 1,0 0.5,0 0.875,0.125 0.375,0.125 0.5,0.5 Q 13,47 13,47.5 q 0,0.5 0.125,0.875 0.125,0.375 0.5,0.5 Q 14,49 14.5,49 q 0.5,0 0.875,0.125 0.375,0.125 0.5,0.5 Q 16,50 16,50.5 q 0,0.5 0,1 0,0.5 0,1 0,0.5 0,1 0,0.5 0,1 0,0.5 -0.125,0.875 -0.125,0.375 -0.5,0.5 Q 15,56 14.5,56 14,56 13.625,56.125 13.25,56.25 13.125,56.625 13,57 13,57.5 q 0,0.5 -0.125,0.875 -0.125,0.375 -0.5,0.5 Q 12,59 11.5,59 11,59 10.5,59 10,59 9.5,59 9,59 8.5,59 8,59 7.5,59 7,59 6.625,58.875 6.25,58.75 6.125,58.375 6,58 6,57.5 6,57 5.875,56.625 5.75,56.25 5.375,56.125 5,56 4.5,56 4,56 3.625,55.875 3.25,55.75 3.125,55.375 3,55 3,54.5 3,54 3,53.5 3,53 3,52.5 3,52 3,51.5 3,51 3,50.5 3,50 3.125,49.625 3.25,49.25 3.625,49.125 4,49 4.5,49 5,49 5.375,48.875 5.75,48.75 5.875,48.375 6,48 6,47.5 6,47 6.125,46.625 M 36,16.5 V 16 h 0.5 q 0.5,0 1,0 0.5,0 1,0 H 39 v 0.5 q 0,0.5 0,1 0,0.5 0,1 0,0.5 0,1 0,0.5 -0.5,0.5 -0.5,0 -1,0 -0.5,0 -1,0 H 36 v -0.5 q 0,-0.5 0,-1 0,-0.5 0,-1 0,-0.5 0,-1 M 35.875,20 H 36 36.375 36.75 36.5 q -0.25,0 -0.5,0 h -0.25 0.125 M 39,16.375 V 16 15.875 15.75 16 q 0,0.25 0,0.5 v 0.25 -0.375 m -3,-0.5 V 16 16.375 16.75 16.5 q 0,-0.25 0,-0.5 v -0.25 0.125 M 39.125,3.625 Q 39.25,3.25 39.625,3.125 40,3 40.5,3 q 0.5,0 1,0 0.5,0 1,0 0.5,0 1,0 0.5,0 0.875,0.125 0.375,0.125 0.5,0.5 Q 45,4 45,4.5 q 0,0.5 0,1 0,0.5 0.125,0.875 0.125,0.375 0.5,0.5 Q 46,7 46.5,7 q 0.5,0 1,0 0.5,0 0.875,0.125 0.375,0.125 0.5,0.5 Q 49,8 49,8.5 q 0,0.5 0,1 0,0.5 0,1 0,0.5 0,1 0,0.5 -0.125,0.875 -0.125,0.375 -0.5,0.5 Q 48,13 47.5,13 q -0.5,0 -1,0 -0.5,0 -0.875,0.125 -0.375,0.125 -0.5,0.5 Q 45,14 45,14.5 q 0,0.5 -0.125,0.875 -0.125,0.375 -0.5,0.5 Q 44,16 43.5,16 43,16 42.5,16 42,16 42,15.5 42,15 42,14.5 42,14 41.875,13.625 41.75,13.25 41.375,13.125 41,13 40.5,13 40,13 39.625,12.875 39.25,12.75 39.125,12.375 39,12 39,11.5 39,11 38.875,10.625 38.75,10.25 38.375,10.125 38,10 37.5,10 37,10 36.5,10 36,10 36,9.5 36,9 36,8.5 36,8 36.125,7.625 36.25,7.25 36.625,7.125 37,7 37.5,7 38,7 38.375,6.875 38.75,6.75 38.875,6.375 39,6 39,5.5 39,5 39,4.5 39,4 39.125,3.625"
           style="fill:#fff8ff;fill-opacity:1"
           id="path1563" />
        <path
           d="M 2.875,59.625 Q 2.75,59.25 3.03125,58.96875 L 3.3125,58.6875 3.25,58.625 3.1875,58.5625 l 0.125,0.125 q 0.125,0.125 0.3125,0.1875 L 3.8125,58.9375 3.53125,58.84375 3.25,58.75 3.625,58.875 Q 4,59 4.5,59 5,59 5.375,59.125 5.75,59.25 5.875,59.625 6,60 6,60.5 q 0,0.5 0,1 0,0.5 0,1 0,0.5 0,1 0,0.5 0,1 0,0.5 0,1 0,0.5 0,1 0,0.5 0,1 0,0.5 0.125,0.875 0.125,0.375 0.5,0.5 Q 7,69 7.5,69 8,69 8.5,69 9,69 9.5625,68.9375 L 10.125,68.875 10.0625,68.8125 10,68.75 10.125,68.875 Q 10.25,69 10.5,69 H 10.75 10.375 10 10.5 q 0.5,0 1,0 0.5,0 0.875,-0.125 0.375,-0.125 0.5,-0.5 Q 13,68 13,67.5 q 0,-0.5 0,-1 0,-0.5 0,-1 V 65 65.375 65.75 65.5 q 0,-0.25 -0.125,-0.375 L 12.75,65 l 0.0625,0.0625 0.0625,0.0625 0.5625,-0.0625 Q 14,65 14.5,65 q 0.5,0 1,0 H 16 v 0.5 q 0,0.5 0,1 0,0.5 0,1 0,0.5 0,1 0,0.5 -0.5,0.5 -0.5,0 -1,0 -0.5,0 -0.875,0.125 -0.375,0.125 -0.5,0.5 Q 13,70 13,70.5 q 0,0.5 0,1 V 72 H 12.5 12 11.5 11 10.5 10 9.5 9 8.5 8 7.5 7 6.5 6 V 71.5 Q 6,71 6,70.5 6,70 5.875,69.625 5.75,69.25 5.375,69.125 5,69 4.5,69 4,69 3.5,69 3,69 3,68.5 3,68 3,67.5 3,67 3,66.5 3,66 3,65.5 3,65 3,64.5 3,64 3,63.5 3,63 3,62.5 3,62 3,61.5 3,61 3,60.5 3,60 2.875,59.625 m 39,-7 -0.125,-0.375 0.09375,0.28125 0.09375,0.28125 -0.0625,-0.1875 q -0.0625,-0.1875 -0.1875,-0.3125 l -0.125,-0.125 0.0625,0.0625 0.0625,0.0625 0.28125,-0.28125 Q 42.25,51.75 42.625,51.875 43,52 43.5,52 q 0.5,0 1,0 0.5,0 1,0 0.5,0 1,0 0.5,0 1,0 0.5,0 1,0 0.5,0 0.5,0.5 0,0.5 0,1 0,0.5 0,1 0,0.5 0,1 0,0.5 0.5,0.5 0.5,0 1,0 0.5,0 1,0 H 52 v 0.5 0.5 0.5 0.5 0.5 0.5 0.5 0.5 0.5 0.5 0.5 0.5 h -0.5 q -0.5,0 -1,0 -0.5,0 -1,0 -0.5,0 -0.5,0.5 0,0.5 0,1 0,0.5 0,1 0,0.5 0,1 0,0.5 0,1 0,0.5 0,1 0,0.5 0,1 0,0.5 -0.5,0.5 -0.5,0 -1,0 -0.5,0 -1,0 -0.5,0 -1,0 -0.5,0 -0.5,0.5 0,0.5 0,1 0,0.5 0,1 V 72 H 44.5 44 43.5 43 42.5 42 41.5 41 40.5 40 39.5 39 v -0.5 q 0,-0.5 0,-1 0,-0.5 -0.125,-0.875 -0.125,-0.375 -0.5,-0.5 Q 38,69 37.5,69 37,69 36.5,69 36,69 36,68.5 q 0,-0.5 0,-1 0,-0.5 0,-1 0,-0.5 0.125,-0.875 0.125,-0.375 -0.15625,-0.65625 L 35.6875,64.6875 35.625,64.75 l -0.0625,0.0625 0.125,-0.125 q 0.125,-0.125 0.1875,-0.3125 L 35.9375,64.1875 35.84375,64.46875 35.75,64.75 35.875,64.375 Q 36,64 36,63.5 36,63 36.125,62.625 36.25,62.25 36.625,62.125 37,62 37.5,62 q 0.5,0 0.875,-0.125 0.375,-0.125 0.5,-0.5 Q 39,61 39,60.5 39,60 38.9375,59.4375 L 38.875,58.875 38.8125,58.9375 38.75,59 38.875,58.875 Q 39,58.75 39,58.5 V 58.25 58.625 59 58.5 q 0,-0.5 0,-1 0,-0.5 0,-1 V 56 h 0.5 q 0.5,0 1,0 0.5,0 0.875,-0.125 0.375,-0.125 0.5,-0.5 Q 42,55 42,54.5 42,54 42,53.5 42,53 41.875,52.625 M 39,55.875 V 56 56.375 56.75 56.5 q 0,-0.25 0,-0.5 v -0.25 0.125 M 40.5,69 q 0.5,0 0.875,-0.125 0.375,-0.125 0.5,-0.5 Q 42,68 42,67.5 q 0,-0.5 0,-1 0,-0.5 0,-1 0,-0.5 0,-1 0,-0.5 0,-1 0,-0.5 0.125,-0.875 0.125,-0.375 0.5,-0.5 Q 43,62 43.5,62 q 0.5,0 0.875,-0.125 0.375,-0.125 0.5,-0.5 Q 45,61 45,60.5 45,60 44.9375,59.4375 L 44.875,58.875 44.8125,58.9375 44.75,59 44.875,58.875 Q 45,58.75 45,58.5 V 58.25 58.625 59 58.5 q 0,-0.5 0,-1 0,-0.5 -0.125,-0.875 -0.125,-0.375 -0.5,-0.5 Q 44,56 43.5,56 43,56 42.625,56.125 42.25,56.25 42.125,56.625 42,57 42,57.5 q 0,0.5 0,1 V 59 58.625 58.25 58.5 q 0,0.25 0.125,0.375 L 42.25,59 42.1875,58.9375 42.125,58.875 42.0625,59.4375 Q 42,60 42,60.5 q 0,0.5 -0.125,0.875 -0.125,0.375 -0.5,0.5 Q 41,62 40.5,62 40,62 39.625,62.125 39.25,62.25 39.125,62.625 39,63 39,63.5 q 0,0.5 0,1 0,0.5 0,1 0,0.5 0,1 0,0.5 0,1 0,0.5 0.125,0.875 0.125,0.375 0.5,0.5 Q 40,69 40.5,69 M 26.125,36.625 q 0.125,-0.375 0.5,-0.5 Q 27,36 27.5,36 q 0.5,0 1,0 0.5,0 0.5,0.5 0,0.5 0,1 0,0.5 0.125,0.875 0.125,0.375 0.5,0.5 Q 30,39 30.5,39 q 0.5,0 1,0 0.5,0 1,0 0.5,0 1,0 0.5,0 1,0 0.5,0 1,0 0.5,0 1,0 0.5,0 1,0 0.5,0 1,0 0.5,0 1,0 0.5,0 1,0 0.5,0 1,0 0.5,0 1,0 0.5,0 1,0 0.5,0 1,0 H 45 v 0.5 q 0,0.5 0,1 0,0.5 0,1 0,0.5 0,1 0,0.5 -0.5,0.5 -0.5,0 -1,0 -0.5,0 -1,0 -0.5,0 -0.5,0.5 0,0.5 0,1 0,0.5 0,1 0,0.5 -0.5,0.5 -0.5,0 -1,0 -0.5,0 -1,0 -0.5,0 -1,0 -0.5,0 -1,0 -0.5,0 -0.875,-0.125 -0.375,-0.125 -0.65625,0.15625 l -0.28125,0.28125 0.0625,0.0625 0.0625,0.0625 -0.125,-0.125 Q 35.5625,46.1875 35.375,46.125 L 35.1875,46.0625 35.46875,46.15625 35.75,46.25 35.375,46.125 Q 35,46 34.5,46 q -0.5,0 -1,0 -0.5,0 -1,0 -0.5,0 -1,0 -0.5,0 -1,0 -0.5,0 -1,0 H 29 v -0.5 q 0,-0.5 0,-1 0,-0.5 -0.125,-0.875 -0.125,-0.375 -0.5,-0.5 Q 28,43 27.5,43 q -0.5,0 -1,0 -0.5,0 -1,0 -0.5,0 -1,0 -0.5,0 -1,0 -0.5,0 -0.5,-0.5 0,-0.5 0,-1 0,-0.5 0,-1 0,-0.5 0.125,-0.875 0.125,-0.375 0.5,-0.5 Q 24,39 24.5,39 q 0.5,0 0.875,-0.125 0.375,-0.125 0.5,-0.5 Q 26,38 26,37.5 26,37 26.125,36.625 M 28.875,46 H 29 29.375 29.75 29.5 q -0.25,0 -0.5,0 h -0.25 0.125 M 6.0625,36.4375 6.125,35.875 6.0625,35.8125 6,35.75 6.125,35.875 Q 6.25,36 6.5,36 H 6.75 6.375 6 6.5 q 0.5,0 1,0 0.5,0 1,0 0.5,0 0.875,0.125 0.375,0.125 0.5,0.5 Q 10,37 10,37.5 q 0,0.5 0.125,0.875 0.125,0.375 0.5,0.5 Q 11,39 11.5,39 q 0.5,0 0.875,0.125 0.375,0.125 0.5,0.5 Q 13,40 13,40.5 q 0,0.5 0,1 0,0.5 0,1 V 43 h -0.5 q -0.5,0 -1,0 -0.5,0 -1,0 -0.5,0 -1,0 -0.5,0 -1,0 -0.5,0 -1,0 -0.5,0 -1,0 H 6 V 42.5 Q 6,42 6,41.5 6,41 6,40.5 6,40 6.125,39.625 6.25,39.25 5.96875,38.96875 L 5.6875,38.6875 5.625,38.75 5.5625,38.8125 5.6875,38.6875 Q 5.8125,38.5625 5.875,38.375 L 5.9375,38.1875 5.84375,38.46875 5.75,38.75 5.875,38.375 Q 6,38 6,37.5 6,37 6.0625,36.4375 M 26.125,20.625 q 0.125,-0.375 0.5,-0.5 Q 27,20 27.5,20 q 0.5,0 1,0 0.5,0 1,0 0.5,0 1,0 0.5,0 1,0 0.5,0 1,0 0.5,0 1,0 0.5,0 1,0 0.5,0 1,0 0.5,0 1,0 0.5,0 1,0 0.5,0 1,0 H 39 38.625 38.25 38.5 q 0.25,0 0.375,-0.125 L 39,19.75 38.9375,19.8125 38.875,19.875 39.4375,19.9375 Q 40,20 40.5,20 q 0.5,0 1,0 0.5,0 1,0 0.5,0 1,0 0.5,0 1,0 H 45 v 0.5 q 0,0.5 0,1 0,0.5 0,1 0,0.5 0.5,0.5 0.5,0 1,0 0.5,0 1,0 0.5,0 1,0 0.5,0 0.5,0.5 0,0.5 0,1 0,0.5 0,1 0,0.5 -0.5,0.5 -0.5,0 -1,0 -0.5,0 -1,0 -0.5,0 -0.875,-0.125 -0.375,-0.125 -0.65625,0.15625 l -0.28125,0.28125 0.0625,0.0625 0.0625,0.0625 -0.125,-0.125 Q 44.5625,26.1875 44.375,26.125 L 44.1875,26.0625 44.46875,26.15625 44.75,26.25 44.375,26.125 Q 44,26 43.5,26 q -0.5,0 -1,0 -0.5,0 -1,0 -0.5,0 -1,0 -0.5,0 -1,0 -0.5,0 -1,0 -0.5,0 -1,0 -0.5,0 -0.875,0.125 -0.375,0.125 -0.5,0.5 Q 36,27 36,27.5 q 0,0.5 0,1 0,0.5 0,1 0,0.5 0,1 0,0.5 0,1 0,0.5 -0.125,0.875 -0.125,0.375 -0.5,0.5 Q 35,33 34.5,33 34,33 33.5,33 33,33 32.625,32.875 32.25,32.75 32.125,32.375 32,32 32,31.5 q 0,-0.5 0,-1 0,-0.5 0,-1 0,-0.5 0,-1 0,-0.5 0,-1 0,-0.5 -0.125,-0.875 -0.125,-0.375 -0.5,-0.5 Q 31,26 30.5,26 30,26 29.625,26.125 29.25,26.25 29.125,26.625 29,27 29,27.5 q 0,0.5 0,1 0,0.5 0,1 0,0.5 0,1 0,0.5 0,1 0,0.5 -0.125,0.875 -0.125,0.375 -0.5,0.5 Q 28,33 27.5,33 27,33 26.625,32.875 26.25,32.75 26.125,32.375 26,32 26,31.5 q 0,-0.5 0,-1 0,-0.5 0,-1 0,-0.5 0,-1 0,-0.5 0,-1 0,-0.5 -0.125,-0.875 -0.125,-0.375 -0.5,-0.5 Q 25,26 24.5,26 24,26 23.625,26.125 23.25,26.25 23.125,26.625 23,27 23,27.5 q 0,0.5 -0.125,0.875 -0.125,0.375 -0.5,0.5 Q 22,29 21.5,29 q -0.5,0 -1,0 -0.5,0 -0.875,0.125 -0.375,0.125 -0.5,0.5 Q 19,30 19,30.5 q 0,0.5 0,1 0,0.5 0.125,0.875 0.125,0.375 0.5,0.5 Q 20,33 20.5,33 q 0.5,0 1,0 0.5,0 1,0 0.5,0 0.5,0.5 0,0.5 0,1 0,0.5 -0.125,0.875 -0.125,0.375 -0.5,0.5 Q 22,36 21.5,36 q -0.5,0 -1,0 -0.5,0 -0.875,0.125 -0.375,0.125 -0.5,0.5 Q 19,37 19,37.5 q 0,0.5 0,1 0,0.5 -0.5,0.5 -0.5,0 -1,0 -0.5,0 -1,0 -0.5,0 -0.5,-0.5 0,-0.5 0,-1 0,-0.5 0,-1 0,-0.5 0,-1 0,-0.5 0,-1 0,-0.5 0,-1 0,-0.5 0,-1 0,-0.5 0,-1 0,-0.5 0,-1 0,-0.5 -0.125,-0.875 -0.125,-0.375 -0.5,-0.5 Q 15,29 14.5,29 14,29 13.625,28.875 13.25,28.75 13.125,28.375 13,28 13,27.5 13,27 13,26.5 V 26 26.375 26.75 26.5 q 0,-0.25 -0.125,-0.375 L 12.75,26 l 0.0625,0.0625 0.0625,0.0625 0.5625,-0.0625 Q 14,26 14.5,26 q 0.5,0 1,0 0.5,0 1,0 0.5,0 1,0 0.5,0 0.875,-0.125 0.375,-0.125 0.5,-0.5 Q 19,25 19,24.5 19,24 19.125,23.625 19.25,23.25 19.625,23.125 20,23 20.5,23 q 0.5,0 1,0 0.5,0 1,0 0.5,0 1,0 0.5,0 1,0 0.5,0 0.875,-0.125 0.375,-0.125 0.5,-0.5 Q 26,22 26,21.5 26,21 26.125,20.625"
           style="display:inline;fill:#000000;fill-opacity:1"
           id="path1571" />
        <path
           d="m 36,59.5 q 0,-0.5 0.5,-0.5 0.5,0 1,0 0.5,0 1,0 H 39 38.625 38.25 38.5 q 0.25,0 0.375,-0.125 L 39,58.75 38.9375,58.8125 38.875,58.875 38.9375,59.4375 Q 39,60 39,60.5 q 0,0.5 -0.125,0.875 -0.125,0.375 -0.5,0.5 Q 38,62 37.5,62 37,62 36.625,62.125 36.25,62.25 36.125,62.625 36,63 36,63.5 q 0,0.5 -0.125,0.875 -0.125,0.375 -0.5,0.5 Q 35,65 34.5,65 q -0.5,0 -1,0 -0.5,0 -0.875,0.125 -0.375,0.125 -0.5,0.5 Q 32,66 32,66.5 q 0,0.5 0,1 0,0.5 -0.125,0.875 -0.125,0.375 -0.5,0.5 Q 31,69 30.5,69 q -0.5,0 -1,0 -0.5,0 -1,0 -0.5,0 -1,0 -0.5,0 -1,0 -0.5,0 -1,0 -0.5,0 -1,0 -0.5,0 -1,0 -0.5,0 -1,0 -0.5,0 -1,0 -0.5,0 -1,0 -0.5,0 -0.875,-0.125 -0.375,-0.125 -0.5,-0.5 Q 19,68 19,67.5 19,67 19,66.5 19,66 18.875,65.625 18.75,65.25 18.375,65.125 18,65 17.5,65 17,65 16.5,65 H 16 15.5 q -0.5,0 -1,0 -0.5,0 -1.0625,0.0625 L 12.875,65.125 12.9375,65.1875 13,65.25 12.875,65.125 Q 12.75,65 12.5,65 H 12.25 12.625 13 12.5 q -0.5,0 -1,0 -0.5,0 -1,0 H 10 10.375 10.75 10.5 q -0.25,0 -0.375,0.125 L 10,65.25 10.0625,65.1875 10.125,65.125 10.0625,64.5625 Q 10,64 10,63.5 10,63 10.125,62.625 10.25,62.25 10.625,62.125 11,62 11.5,62 q 0.5,0 1,0 0.5,0 1,0 0.5,0 1,0 0.5,0 1,0 0.5,0 1,0 0.5,0 1,0 0.5,0 0.875,0.125 0.375,0.125 0.5,0.5 Q 19,63 19,63.5 q 0,0.5 0.125,0.875 0.125,0.375 0.5,0.5 Q 20,65 20.5,65 q 0.5,0 1,0 0.5,0 1,0 0.5,0 1,0 0.5,0 1,0 0.5,0 1,0 0.5,0 1,0 0.5,0 1,0 0.5,0 1,0 0.5,0 1,0 0.5,0 1,0 0.5,0 0.875,-0.125 0.375,-0.125 0.5,-0.5 Q 32,64 32,63.5 32,63 32,62.5 V 62 h 0.5 q 0.5,0 1,0 0.5,0 1,0 0.5,0 0.875,-0.125 0.375,-0.125 0.5,-0.5 Q 36,61 36,60.5 q 0,-0.5 0,-1 m -4,2.375 V 62 62.375 62.75 62.5 q 0,-0.25 0,-0.5 v -0.25 0.125 M 32,46.5 V 46 h 0.5 q 0.5,0 1,0 0.5,0 1,0 0.5,0 0.875,0.125 0.375,0.125 0.5,0.5 Q 36,47 36,47.5 q 0,0.5 0.125,0.875 0.125,0.375 0.5,0.5 Q 37,49 37.5,49 q 0.5,0 0.875,0.125 0.375,0.125 0.5,0.5 Q 39,50 39,50.5 q 0,0.5 0.125,0.875 0.125,0.375 0.5,0.5 Q 40,52 40.5,52 q 0.5,0 0.875,0.125 0.375,0.125 0.5,0.5 Q 42,53 42,53.5 q 0,0.5 0,1 0,0.5 -0.125,0.875 -0.125,0.375 -0.5,0.5 Q 41,56 40.5,56 40,56 39.5,56 H 39 v -0.5 q 0,-0.5 0,-1 0,-0.5 0,-1 0,-0.5 -0.125,-0.875 -0.125,-0.375 -0.5,-0.5 Q 38,52 37.5,52 37,52 36.5,52 36,52 36,51.5 36,51 36,50.5 36,50 35.875,49.625 35.75,49.25 35.375,49.125 35,49 34.5,49 q -0.5,0 -1,0 -0.5,0 -1,0 H 32 v -0.5 q 0,-0.5 0,-1 0,-0.5 0,-1 M 31.875,49 H 32 32.375 32.75 32.5 q -0.25,0 -0.5,0 h -0.25 0.125 M 39,55.625 V 56 56.125 56.25 56 q 0,-0.25 0,-0.5 v -0.25 0.375 M 32.375,46 H 32 31.875 31.75 32 q 0.25,0 0.5,0 h 0.25 -0.375"
           style="display:inline;fill:#20308f;fill-opacity:1"
           id="path1573" />
        <path
           d="M 42.0625,59.4375 42.125,58.875 42.0625,58.8125 42,58.75 42.125,58.875 Q 42.25,59 42.5,59 H 42.75 42.375 42 42.5 q 0.5,0 1,0 0.5,0 1,0 H 45 44.625 44.25 44.5 q 0.25,0 0.375,-0.125 L 45,58.75 44.9375,58.8125 44.875,58.875 44.9375,59.4375 Q 45,60 45,60.5 q 0,0.5 -0.125,0.875 -0.125,0.375 -0.5,0.5 Q 44,62 43.5,62 43,62 42.625,62.125 42.25,62.25 42.125,62.625 42,63 42,63.5 q 0,0.5 0,1 0,0.5 0,1 0,0.5 0,1 0,0.5 0,1 0,0.5 -0.125,0.875 -0.125,0.375 -0.5,0.5 Q 41,69 40.5,69 40,69 39.625,68.875 39.25,68.75 39.125,68.375 39,68 39,67.5 q 0,-0.5 0,-1 0,-0.5 0,-1 0,-0.5 0,-1 0,-0.5 0,-1 0,-0.5 0.125,-0.875 0.125,-0.375 0.5,-0.5 Q 40,62 40.5,62 q 0.5,0 0.875,-0.125 0.375,-0.125 0.5,-0.5 Q 42,61 42,60.5 42,60 42.0625,59.4375 M 3.125,43.625 Q 3.25,43.25 3.625,43.125 4,43 4.5,43 5,43 5.5,43 H 6 6.5 q 0.5,0 1,0 0.5,0 1,0 0.5,0 1,0 0.5,0 1,0 0.5,0 1,0 0.5,0 1,0 H 13 v 0.5 q 0,0.5 0,1 0,0.5 0.125,0.875 0.125,0.375 0.5,0.5 Q 14,46 14.5,46 q 0.5,0 0.875,0.125 0.375,0.125 0.5,0.5 Q 16,47 16,47.5 q 0,0.5 0.125,0.875 0.125,0.375 0.5,0.5 Q 17,49 17.5,49 q 0.5,0 0.875,-0.125 0.375,-0.125 0.5,-0.5 Q 19,48 19,47.5 19,47 18.875,46.625 18.75,46.25 18.375,46.125 18,46 17.5,46 17,46 16.625,45.875 16.25,45.75 16.125,45.375 16,45 16,44.5 16,44 16,43.5 V 43 h 0.5 q 0.5,0 1,0 0.5,0 0.875,0.125 0.375,0.125 0.5,0.5 Q 19,44 19,44.5 q 0,0.5 0.125,0.875 0.125,0.375 0.5,0.5 Q 20,46 20.5,46 q 0.5,0 1,0 0.5,0 1,0 0.5,0 1,0 0.5,0 1,0 0.5,0 1,0 0.5,0 1,0 0.5,0 1,0 0.5,0 1,0 0.5,0 1,0 0.5,0 1,0 0.5,0 1,0 H 32 v 0.5 q 0,0.5 0,1 0,0.5 0,1 V 49 h -0.5 q -0.5,0 -1,0 -0.5,0 -1,0 -0.5,0 -1,0 -0.5,0 -1,0 -0.5,0 -1,0 -0.5,0 -1,0 -0.5,0 -1,0 -0.5,0 -1,0 -0.5,0 -1,0 -0.5,0 -1,0 -0.5,0 -1,0 -0.5,0 -0.875,0.125 -0.375,0.125 -0.5,0.5 Q 19,50 19,50.5 q 0,0.5 0,1 0,0.5 0,1 0,0.5 0,1 0,0.5 0,1 0,0.5 -0.125,0.875 -0.125,0.375 -0.5,0.5 Q 18,56 17.5,56 17,56 16.625,56.125 16.25,56.25 16.125,56.625 16,57 16,57.5 q 0,0.5 -0.125,0.875 -0.125,0.375 -0.5,0.5 Q 15,59 14.5,59 14,59 13.625,59.125 13.25,59.25 13.125,59.625 13,60 13,60.5 q 0,0.5 0,1 V 62 h -0.5 q -0.5,0 -1,0 -0.5,0 -0.875,0.125 -0.375,0.125 -0.5,0.5 Q 10,63 10,63.5 10,64 10.0625,64.5625 L 10.125,65.125 10.1875,65.0625 10.25,65 10.125,65.125 Q 10,65.25 10,65.5 V 65.75 65.375 65 65.5 q 0,0.5 0,1 0,0.5 0,1 0,0.5 0,1 V 69 68.625 68.25 68.5 q 0,0.25 0.125,0.375 L 10.25,69 10.1875,68.9375 10.125,68.875 9.5625,68.9375 Q 9,69 8.5,69 8,69 7.5,69 7,69 6.625,68.875 6.25,68.75 6.125,68.375 6,68 6,67.5 6,67 6,66.5 6,66 6,65.5 6,65 6,64.5 6,64 6,63.5 6,63 6,62.5 6,62 6,61.5 6,61 6,60.5 6,60 5.875,59.625 5.75,59.25 5.375,59.125 5,59 4.5,59 4,59 3.625,58.875 3.25,58.75 3.125,58.375 3,58 3,57.5 3,57 2.875,56.625 2.75,56.25 2.375,56.125 2,56 1.5,56 1,56 0.5,56 H 0 V 55.5 55 54.5 54 53.5 53 52.5 52 51.5 51 50.5 50 49.5 49 48.5 48 47.5 47 46.5 46 h 0.5 q 0.5,0 1,0 0.5,0 0.875,-0.125 0.375,-0.125 0.5,-0.5 Q 3,45 3,44.5 3,44 3.125,43.625 M 11.5,59 q 0.5,0 0.875,-0.125 0.375,-0.125 0.5,-0.5 Q 13,58 13,57.5 13,57 13.125,56.625 13.25,56.25 13.625,56.125 14,56 14.5,56 q 0.5,0 0.875,-0.125 0.375,-0.125 0.5,-0.5 Q 16,55 16,54.5 q 0,-0.5 0,-1 0,-0.5 0,-1 0,-0.5 0,-1 0,-0.5 0,-1 0,-0.5 -0.125,-0.875 -0.125,-0.375 -0.5,-0.5 Q 15,49 14.5,49 14,49 13.625,48.875 13.25,48.75 13.125,48.375 13,48 13,47.5 13,47 12.875,46.625 12.75,46.25 12.375,46.125 12,46 11.5,46 11,46 10.5,46 10,46 9.5,46 9,46 8.5,46 8,46 7.5,46 7,46 6.625,46.125 6.25,46.25 6.125,46.625 6,47 6,47.5 6,48 5.875,48.375 5.75,48.75 5.375,48.875 5,49 4.5,49 4,49 3.625,49.125 3.25,49.25 3.125,49.625 3,50 3,50.5 q 0,0.5 0,1 0,0.5 0,1 0,0.5 0,1 0,0.5 0,1 0,0.5 0.125,0.875 0.125,0.375 0.5,0.5 Q 4,56 4.5,56 5,56 5.375,56.125 5.75,56.25 5.875,56.625 6,57 6,57.5 6,58 6.125,58.375 6.25,58.75 6.625,58.875 7,59 7.5,59 q 0.5,0 1,0 0.5,0 1,0 0.5,0 1,0 0.5,0 1,0 m 1.125,3 H 13 13.125 13.25 13 q -0.25,0 -0.5,0 h -0.25 0.375 m 19,-13 H 32 32.125 32.25 32 q -0.25,0 -0.5,0 h -0.25 0.375 m 0.5,-3 H 32 31.625 31.25 31.5 q 0.25,0 0.5,0 h 0.25 -0.125 M 16.375,43 H 16 15.875 15.75 16 q 0.25,0 0.5,0 h 0.25 -0.375 M 39,29.5 V 29 h 0.5 q 0.5,0 1,0 0.5,0 1,0 0.5,0 1,0 0.5,0 1,0 0.5,0 1,0 H 45 v 0.5 q 0,0.5 0,1 0,0.5 0,1 0,0.5 0.125,0.875 0.125,0.375 0.5,0.5 Q 46,33 46.5,33 q 0.5,0 1,0 0.5,0 0.875,0.125 0.375,0.125 0.5,0.5 Q 49,34 49,34.5 q 0,0.5 0,1 0,0.5 0,1 0,0.5 0,1 0,0.5 -0.125,0.875 -0.125,0.375 -0.5,0.5 Q 48,39 47.5,39 q -0.5,0 -1,0 -0.5,0 -1,0 H 45 v -0.5 q 0,-0.5 0,-1 0,-0.5 0,-1 0,-0.5 0,-1 0,-0.5 0,-1 0,-0.5 -0.125,-0.875 -0.125,-0.375 -0.5,-0.5 Q 44,33 43.5,33 q -0.5,0 -1,0 -0.5,0 -1,0 -0.5,0 -1,0 -0.5,0 -0.875,-0.125 -0.375,-0.125 -0.5,-0.5 Q 39,32 39,31.5 q 0,-0.5 0,-1 0,-0.5 0,-1 M 44.875,39 H 45 45.375 45.75 45.5 q -0.25,0 -0.5,0 h -0.25 0.125 M 45,29.375 V 29 28.875 28.75 29 q 0,0.25 0,0.5 v 0.25 -0.375 m -34.875,0.25 q 0.125,-0.375 0.5,-0.5 Q 11,29 11.5,29 q 0.5,0 0.875,0.125 0.375,0.125 0.5,0.5 Q 13,30 13,30.5 q 0,0.5 0,1 0,0.5 0,1 0,0.5 0,1 0,0.5 0,1 0,0.5 0,1 V 36 h -0.5 q -0.5,0 -1,0 -0.5,0 -0.875,-0.125 -0.375,-0.125 -0.5,-0.5 Q 10,35 10,34.5 q 0,-0.5 0,-1 0,-0.5 0,-1 0,-0.5 0,-1 0,-0.5 0,-1 0,-0.5 0.125,-0.875 M 13,36.125 V 36 35.625 35.25 35.5 q 0,0.25 0,0.5 v 0.25 -0.125 M 39,0.5 V 0 h 0.5 0.5 0.5 0.5 0.5 0.5 0.5 0.5 0.5 0.5 0.5 0.5 v 0.5 q 0,0.5 0,1 0,0.5 0.125,0.875 0.125,0.375 0.5,0.5 Q 46,3 46.5,3 q 0.5,0 1,0 0.5,0 0.875,0.125 0.375,0.125 0.5,0.5 Q 49,4 49,4.5 q 0,0.5 0,1 0,0.5 0.125,0.875 0.125,0.375 0.5,0.5 Q 50,7 50.5,7 51,7 51.5,7 H 52 V 7.5 8 8.5 9 9.5 10 10.5 11 11.5 12 12.5 13 h -0.5 q -0.5,0 -1,0 -0.5,0 -0.875,0.125 -0.375,0.125 -0.5,0.5 Q 49,14 49,14.5 q 0,0.5 0,1 V 16 h -0.5 q -0.5,0 -1,0 -0.5,0 -1,0 -0.5,0 -0.875,0.125 -0.375,0.125 -0.5,0.5 Q 45,17 45,17.5 q 0,0.5 0,1 0,0.5 0,1 V 20 h -0.5 q -0.5,0 -1,0 -0.5,0 -1,0 H 42 v -0.5 q 0,-0.5 0,-1 0,-0.5 0,-1 0,-0.5 0.0625,-1.0625 L 42.125,15.875 42.0625,15.8125 42,15.75 42.125,15.875 Q 42.25,16 42.5,16 H 42.75 42.375 42 42.5 q 0.5,0 1,0 0.5,0 0.875,-0.125 0.375,-0.125 0.5,-0.5 Q 45,15 45,14.5 45,14 45.125,13.625 45.25,13.25 45.625,13.125 46,13 46.5,13 q 0.5,0 1,0 0.5,0 0.875,-0.125 0.375,-0.125 0.5,-0.5 Q 49,12 49,11.5 49,11 49,10.5 49,10 49,9.5 49,9 49,8.5 49,8 48.875,7.625 48.75,7.25 48.375,7.125 48,7 47.5,7 47,7 46.5,7 46,7 45.625,6.875 45.25,6.75 45.125,6.375 45,6 45,5.5 45,5 45,4.5 45,4 44.875,3.625 44.75,3.25 44.375,3.125 44,3 43.5,3 43,3 42.5,3 42,3 41.5,3 41,3 40.5,3 40,3 39.625,3.125 39.25,3.25 39.125,3.625 39,4 39,4.5 39,5 39,5.5 39,6 38.875,6.375 38.75,6.75 38.375,6.875 38,7 37.5,7 37,7 36.625,7.125 36.25,7.25 36.125,7.625 36,8 36,8.5 36,9 36,9.5 V 10 9.625 9.25 9.5 q 0,0.25 0.125,0.375 L 36.25,10 36.1875,9.9375 36.125,9.875 35.5625,9.9375 Q 35,10 34.5,10 q -0.5,0 -1,0 -0.5,0 -1,0 H 32 V 9.5 Q 32,9 32,8.5 32,8 32.125,7.625 32.25,7.25 32.625,7.125 33,7 33.5,7 34,7 34.5,7 35,7 35.375,6.875 35.75,6.75 35.875,6.375 36,6 36,5.5 36,5 36,4.5 36,4 36.125,3.625 36.25,3.25 36.625,3.125 37,3 37.5,3 38,3 38.375,2.875 38.75,2.75 38.875,2.375 39,2 39,1.5 39,1 39,0.5 M 31.875,10 H 32 32.375 32.75 32.5 q -0.25,0 -0.5,0 h -0.25 0.125 m 10,10 H 42 42.375 42.75 42.5 q -0.25,0 -0.5,0 h -0.25 0.125 m 2.75,0 H 45 45.125 45.25 45 q -0.25,0 -0.5,0 h -0.25 0.375 M 49,16.125 V 16 15.625 15.25 15.5 q 0,0.25 0,0.5 v 0.25 -0.125"
           style="fill:#8f581f;fill-opacity:1"
           id="path1575" />
        <path
           d="m 10,65.5 q 0,-0.5 0.5,-0.5 0.5,0 1,0 0.5,0 1,0 0.5,0 0.5,0.5 0,0.5 0,1 0,0.5 0,1 0,0.5 -0.125,0.875 -0.125,0.375 -0.5,0.5 Q 12,69 11.5,69 11,69 10.5,69 10,69 10,68.5 q 0,-0.5 0,-1 0,-0.5 0,-1 0,-0.5 0,-1 m 32.125,-8.875 q 0.125,-0.375 0.5,-0.5 Q 43,56 43.5,56 q 0.5,0 0.875,0.125 0.375,0.125 0.5,0.5 Q 45,57 45,57.5 q 0,0.5 0,1 0,0.5 -0.5,0.5 -0.5,0 -1,0 -0.5,0 -1,0 -0.5,0 -0.5,-0.5 0,-0.5 0,-1 0,-0.5 0.125,-0.875 M 32,13.5 V 13 h 0.5 q 0.5,0 1,0 0.5,0 1,0 0.5,0 1,0 H 36 v 0.5 q 0,0.5 0,1 0,0.5 0,1 0,0.5 0,1 0,0.5 0,1 0,0.5 0,1 0,0.5 0,1 V 20 h -0.5 q -0.5,0 -1,0 -0.5,0 -1,0 -0.5,0 -1,0 H 32 v -0.5 q 0,-0.5 0,-1 0,-0.5 0,-1 0,-0.5 0,-1 0,-0.5 0,-1 0,-0.5 0,-1 0,-0.5 0,-1 M 31.875,20 H 32 32.375 32.75 32.5 q -0.25,0 -0.5,0 h -0.25 0.125 m 3.75,0 H 36 36.125 36.25 36 q -0.25,0 -0.5,0 h -0.25 0.375 m 0.5,-7 H 36 35.625 35.25 35.5 q 0.25,0 0.5,0 h 0.25 -0.125 m -3.75,0 H 32 31.875 31.75 32 q 0.25,0 0.5,0 h 0.25 -0.375"
           style="fill:#ffd870;fill-opacity:1"
           id="path1579" />
      </g>
    </g>
  </g>
</svg>
