<svg xmlns="http://www.w3.org/2000/svg" viewBox="0 -0.5 16 10" shape-rendering="crispEdges">
<metadata>Made with Pixels to Svg https://codepen.io/shshaw/pen/XbxvNj</metadata>
<path stroke="#0000f8" d="M6 0h1M5 1h1M4 2h1" />
<path stroke="#000000" d="M7 0h5M7 1h1M10 1h1M12 1h1M6 2h1M11 2h1M13 2h1M1 3h11M14 3h1M0 4h1M15 4h1M0 5h1M15 5h1M0 6h1M3 6h2M11 6h2M15 6h1M0 7h1M2 7h1M5 7h1M10 7h1M13 7h1M15 7h1M1 8h2M5 8h6M13 8h2M3 9h2M11 9h2" />
<path stroke="#f8f8f8" d="M6 1h1M8 1h1M5 2h1M7 2h1M4 7h1M12 7h1" />
<path stroke="#00f8f8" d="M9 1h1M8 2h3" />
<path stroke="#f88000" d="M11 1h1M12 2h1M12 3h2M14 4h1M1 5h14M1 6h2M5 6h6M13 6h2" />
<path stroke="#f8f800" d="M1 4h13" />
<path stroke="#f80000" d="M1 7h1M6 7h4M14 7h1" />
<path stroke="#808080" d="M3 7h1M11 7h1" />
<path stroke="#c0c0c0" d="M3 8h2M11 8h2" />
</svg>