<svg xmlns="http://www.w3.org/2000/svg" viewBox="0 -0.5 15 13" shape-rendering="crispEdges">
<metadata>Made with Pixels to Svg https://codepen.io/shshaw/pen/XbxvNj</metadata>
<path stroke="#000000" d="M0 0h2M5 0h2M0 1h1M2 1h3M6 1h1M14 1h1M0 2h1M6 2h8M0 3h2M4 3h1M13 3h1M0 4h1M13 4h1M0 5h1M2 5h1M5 5h1M13 5h1M0 6h1M5 6h1M13 6h1M0 7h5M13 7h1M1 8h1M3 8h1M5 8h7M13 8h1M1 9h1M3 9h1M5 9h1M9 9h1M11 9h1M13 9h1M1 10h1M3 10h1M5 10h1M9 10h1M11 10h1M13 10h1M1 11h1M3 11h1M5 11h1M9 11h1M11 11h1M13 11h1M1 12h5M9 12h5" />
<path stroke="#f8f8f8" d="M1 1h1M5 1h1M1 2h5M2 3h2M5 3h8M1 4h12M1 5h1M3 5h2M6 5h7M1 6h4M6 6h7M5 7h8M2 8h1M4 8h1M12 8h1M2 9h1M4 9h1M10 9h1M12 9h1M2 10h1M4 10h1M10 10h1M12 10h1M2 11h1M4 11h1M10 11h1M12 11h1" />
</svg>