<svg xmlns="http://www.w3.org/2000/svg" viewBox="0 -0.5 16 17" shape-rendering="crispEdges">
<metadata>Made with Pixels to Svg https://codepen.io/shshaw/pen/XbxvNj</metadata>
<path stroke="#000000" d="M5 1h6M3 2h2M11 2h2M2 3h1M13 3h1M1 4h1M14 4h1M1 5h1M3 5h3M10 5h3M14 5h1M0 6h1M2 6h1M4 6h1M6 6h1M9 6h1M11 6h1M13 6h1M15 6h1M0 7h1M3 7h3M10 7h3M15 7h1M0 8h1M15 8h1M0 9h1M7 9h2M15 9h1M0 10h1M6 10h1M9 10h1M15 10h1M0 11h1M3 11h1M12 11h1M15 11h1M1 12h1M4 12h8M14 12h1M1 13h1M5 13h1M10 13h1M14 13h1M2 14h1M6 14h4M13 14h1M3 15h2M11 15h2M5 16h6" />
<path stroke="#f8c080" d="M5 2h6M3 3h10M2 4h12M2 5h1M6 5h4M13 5h1M1 6h1M7 6h2M14 6h1M1 7h2M6 7h4M13 7h2M1 8h14M1 9h6M9 9h6M1 10h5M7 10h2M10 10h5M1 11h2M4 11h8M13 11h2M2 12h2M12 12h2M2 13h3M11 13h3M3 14h3M10 14h3M5 15h6" />
<path stroke="#f8f8f8" d="M3 6h1M5 6h1M10 6h1M12 6h1" />
<path stroke="#f80000" d="M6 13h4" />
</svg>