<svg xmlns="http://www.w3.org/2000/svg" viewBox="0 -0.5 16 16" shape-rendering="crispEdges">
<metadata>Made with Pixels to Svg https://codepen.io/shshaw/pen/XbxvNj</metadata>
<path stroke="#000000" d="M7 0h2M2 1h1M6 1h1M9 1h1M13 1h1M1 2h1M3 2h1M5 2h1M10 2h1M12 2h1M14 2h1M1 3h1M4 3h1M11 3h1M14 3h1M0 4h1M15 4h1M0 5h1M4 5h2M9 5h2M15 5h1M0 6h1M3 6h1M6 6h1M8 6h1M11 6h1M15 6h1M0 7h1M15 7h1M1 8h1M14 8h1M2 9h1M13 9h1M3 10h2M11 10h2M5 11h6M2 12h3M6 12h1M9 12h4M1 13h1M5 13h2M9 13h1M13 13h1M0 14h1M6 14h1M8 14h1M14 14h1M0 15h1M6 15h3M14 15h1" />
<path stroke="#f88000" d="M7 1h2M2 2h1M6 2h4M2 3h2M5 3h6M12 3h2M1 4h13M1 5h3M6 5h3M11 5h3M1 6h2M4 6h2M7 6h1M9 6h2M12 6h2M1 7h12M2 8h11M4 9h6" />
<path stroke="#c04020" d="M13 2h1M14 4h1M14 5h1M14 6h1M13 7h2M13 8h1M3 9h1M10 9h3M5 10h6" />
<path stroke="#008040" d="M7 12h1M2 13h2M7 13h1M10 13h2M1 14h4M7 14h1M9 14h4" />
<path stroke="#00f800" d="M8 12h1M4 13h1M8 13h1M12 13h1M5 14h1M13 14h1M1 15h5M9 15h5" />
</svg>