<svg xmlns="http://www.w3.org/2000/svg" viewBox="0 -0.5 14 15" shape-rendering="crispEdges">
<metadata>Made with Pixels to Svg https://codepen.io/shshaw/pen/XbxvNj</metadata>
<path stroke="#c04020" d="M3 0h5M2 1h1M8 1h2M2 2h1M10 2h1M11 3h1M12 4h1M13 5h1M13 6h1M1 8h1M13 8h1M1 9h1M13 9h1M1 10h1M6 10h1M1 13h3M10 13h1M3 14h8" />
<path stroke="#f80000" d="M3 1h2M6 1h2M8 2h2M10 3h1M11 4h1" />
<path stroke="#f8f800" d="M5 1h1M5 2h1" />
<path stroke="#c000c0" d="M3 2h1M7 2h1M8 3h2M10 4h1M11 5h2M11 6h2" />
<path stroke="#f8f8f8" d="M4 2h1M3 6h2M6 6h2M3 7h1M7 7h1M3 8h1M7 8h1" />
<path stroke="#f88000" d="M6 2h1M5 6h1M8 6h1M8 7h2M13 7h1M9 8h1M5 9h2M12 9h1M2 10h4M11 10h3M9 11h3M9 12h2M4 13h6" />
<path stroke="#000000" d="M1 3h7M0 4h10M0 5h11M1 6h2M9 6h2M4 7h1M6 7h1M10 7h2M4 8h1M6 8h1M10 8h2M9 9h3M7 10h1M10 10h1M0 11h9M12 11h2M1 12h6M11 12h2M11 13h1" />
<path stroke="#f8c080" d="M5 7h1M12 7h1M2 8h1M5 8h1M8 8h1M12 8h1M2 9h3M7 9h2M8 10h2M7 12h2" />
</svg>