<svg xmlns="http://www.w3.org/2000/svg" viewBox="0 -0.5 16 17" shape-rendering="crispEdges">
<metadata>Made with Pixels to Svg https://codepen.io/shshaw/pen/XbxvNj</metadata>
<path stroke="#c0c0c0" d="M3 1h3M5 2h2M6 3h2M5 4h1M7 4h1M4 7h1M15 7h1M3 8h1M9 8h2M14 8h2M2 9h1M5 9h3M11 9h3M15 9h1M1 10h1M3 10h3M14 10h1M1 11h1M4 11h3M11 11h3M1 12h3M8 12h4M2 13h1M4 13h4" />
<path stroke="#806000" d="M2 2h1M3 4h1M1 5h2M7 14h3M8 15h1" />
<path stroke="#f8f8f8" d="M3 2h2M4 3h2M6 4h1M6 5h1M6 6h1M5 7h1M4 8h1M3 9h1M8 9h3M14 9h1M2 10h1M6 10h8M2 11h2M7 11h4M4 12h3" />
<path stroke="#f88000" d="M1 3h2M0 4h1M0 5h1M6 16h4" />
<path stroke="#f8f800" d="M3 3h1M1 4h2M5 16h1" />
<path stroke="#808080" d="M4 4h1M5 5h1M7 5h1M5 6h1M7 6h1M6 7h1M5 8h4M4 9h1M14 11h1M7 12h1M12 12h3M3 13h1M8 13h6M4 14h3M10 14h2" />
</svg>