<?xml version="1.0" encoding="UTF-8" standalone="no"?>
<svg
   xmlns:dc="http://purl.org/dc/elements/1.1/"
   xmlns:cc="http://creativecommons.org/ns#"
   xmlns:rdf="http://www.w3.org/1999/02/22-rdf-syntax-ns#"
   xmlns:svg="http://www.w3.org/2000/svg"
   xmlns="http://www.w3.org/2000/svg"
   id="svg8"
   version="1.1"
   viewBox="0 0 52.916668 52.916668"
   height="52.916668mm"
   width="52.916668mm">
  <defs
     id="defs2" />
  <metadata
     id="metadata5">
    <rdf:RDF>
      <cc:Work
         rdf:about="">
        <dc:format>image/svg+xml</dc:format>
        <dc:type
           rdf:resource="http://purl.org/dc/dcmitype/StillImage" />
        <dc:title></dc:title>
      </cc:Work>
    </rdf:RDF>
  </metadata>
  <g
     transform="translate(-200.32738,-188.14285)"
     id="layer1">
    <g
       id="g75">
      <path
         id="path99"
         d="m 228.6378,222.5549 v -0.51296 l -1.15467,-0.17315 -1.15467,-0.17316 -0.16165,-1.73108 -0.16165,-1.73108 0.14131,-0.22865 0.14131,-0.22864 h 0.64584 0.64584 v -0.51295 -0.51295 l 1.14004,-0.17097 1.14004,-0.17095 0.77819,0.0886 0.77819,0.0886 0.0824,0.57904 0.0824,0.57904 0.57904,0.0824 0.57904,0.0824 0.0886,0.77819 0.0886,0.77819 -0.16847,1.12343 -0.16847,1.12344 -0.58159,0.0828 -0.58159,0.0828 -0.0846,0.59531 -0.0845,0.59531 h -1.30452 -1.30451 z m 2.86267,-1.27299 0.0845,-0.59531 h 0.51076 0.51077 v -1.32292 -1.32291 h -0.66146 -0.66146 v -0.66146 -0.66146 h -1.32292 -1.32291 v 0.51296 0.51295 l -1.19063,0.17855 -1.19062,0.17854 v 0.63142 0.63141 h 0.51076 0.51077 l 0.0845,0.59532 0.0846,0.59531 0.59531,0.0846 0.59532,0.0845 v 0.46667 0.46667 l 0.18858,0.18859 0.18859,0.18858 1.20048,-0.0783 1.20047,-0.0783 z m -13.25846,-0.76054 -0.18755,-0.18755 v -0.48507 -0.48507 h -0.52916 -0.52917 v -0.64305 -0.64306 l 0.59531,-0.0846 0.59532,-0.0845 0.0845,-0.59532 0.0846,-0.59531 h -0.66146 -0.66146 l -0.11975,0.53322 -0.11975,0.53322 0.0352,-0.59936 0.0352,-0.59937 0.7276,-0.0837 0.72761,-0.0837 v -0.51159 -0.5116 h 0.66146 0.66145 v 0.52917 0.52917 h 0.52917 0.52917 v 0.79375 0.79375 h -0.51467 -0.51467 l -0.0807,1.25677 -0.0806,1.25677 -0.54005,0.0773 -0.54006,0.0773 z m 6.64388,-8.63217 -0.0845,-0.59531 -0.66146,-0.0773 -0.66146,-0.0773 0.0458,-0.84874 0.0458,-0.84873 0.0204,-0.31233 0.0204,-0.31233 0.59532,-0.0845 0.59531,-0.0846 0.08,-1.38906 0.08,-1.38907 h 1.16231 1.1623 l 0.0806,-1.25677 0.0806,-1.25677 h 1.32292 1.32292 v 0.66146 0.66146 l -0.59532,0.0846 -0.59531,0.0845 -0.0435,1.89983 -0.0435,1.89983 -0.0226,1.19062 -0.0226,1.19063 -0.66146,0.13399 -0.66146,0.134 -0.0845,0.59361 -0.0846,0.59361 h -1.15382 -1.15383 z m 1.1683,-2.72523 -0.12391,-0.6482 h -0.46748 -0.46748 l -0.12417,0.64956 -0.12417,0.64956 0.42405,0.0954 0.42406,0.0953 0.2915,-0.0967 0.29151,-0.0967 z m 2.58361,-2.50029 v -2.11666 h 0.66146 0.66145 v -0.52917 -0.52917 h -1.19062 -1.19063 l -0.0322,1.65365 -0.0322,1.65365 0.004,0.79375 0.004,0.79375 0.0281,0.19843 0.0281,0.19844 h 0.52917 0.52917 z m -9.1612,2.34818 0.16536,-0.82682 v -0.4961 -0.49609 h 0.51467 0.51467 l 0.0806,-1.25677 0.0806,-1.25677 0.57904,-0.0824 0.57904,-0.0824 0.0824,-0.57905 0.0824,-0.57904 h 1.32291 1.32292 v 0.66146 0.66146 l -1.24546,0.0802 -1.24547,0.0802 -0.0774,1.90419 -0.0774,1.9042 -0.59532,0.0846 -0.59531,0.0845 v 0.51077 0.51076 h -0.82682 -0.82683 z m 2.54661,-2.34818 v -1.85208 h -0.52916 -0.52917 v 1.02526 1.02526 l -0.16536,0.82682 -0.16537,0.82683 h 0.69453 0.69453 z m 2.64584,-2.64583 v -0.52917 h -1.19063 -1.19062 v 0.52917 0.52917 h 1.19062 1.19063 z m 6.7138,4.99401 0.16536,-0.82682 v -0.4961 -0.49609 h 0.50364 0.50362 l 0.0917,1.32308 0.0917,1.32308 -0.76068,-1.6e-4 -0.76068,-1.7e-4 z m -14.05599,-1.74447 -0.33073,-0.11864 v -0.50711 -0.50712 h 0.52917 0.52916 v 0.51355 0.51355 l -0.19843,0.1122 -0.19844,0.11221 z m 17.19792,0 -0.33073,-0.11864 v -0.50711 -0.50712 h 0.52916 0.52917 v 0.51355 0.51355 l -0.19844,0.1122 -0.19843,0.11221 z m -9.63889,-7.28444 -0.0845,-0.59531 -0.59531,-0.0846 -0.59532,-0.0845 v -0.51077 -0.51076 h 0.5116 0.51159 l 0.0837,-0.72761 0.0837,-0.7276 h 1.32292 1.32291 l 0.0837,0.7276 0.0837,0.72761 h 0.51159 0.5116 v 0.51076 0.51077 l -0.59532,0.0845 -0.59531,0.0846 -0.0846,0.59531 -0.0845,0.59532 h -1.15382 -1.15383 z m 2.55136,-0.71155 0.1536,-0.24853 -0.1718,-1.07438 -0.1718,-1.07439 h -1.12299 -1.123 l -0.1718,1.07439 -0.1718,1.07438 0.1536,0.24853 0.1536,0.24853 h 1.1594 1.15939 z"
         style="display:inline;fill:#f7d797;stroke-width:0.26458335" />
      <path
         id="path97"
         d="m 221.16332,228.44887 0.33073,-0.13345 0.33073,0.13345 0.33073,0.13346 h -0.66146 -0.66146 z m 6.61458,0 0.33073,-0.13345 0.33073,0.13345 0.33073,0.13346 h -0.66146 -0.66146 z m -6.35,-5.28994 0.59531,-0.12788 v -1.83368 -1.83369 h -0.66145 -0.66146 v 1.19063 1.19062 h -1.17223 -1.17222 l -0.0846,-0.59531 -0.0845,-0.59531 -0.5816,-0.0827 -0.58159,-0.0828 -0.17788,-1.18624 -0.17789,-1.18625 0.16416,-0.16416 0.16417,-0.16417 v 0.83785 0.83784 h 0.51077 0.51076 l 0.0846,0.59532 0.0845,0.59531 h 0.66145 0.66146 l 0.0806,-1.25677 0.0807,-1.25677 h 0.51467 0.51467 v -0.79375 -0.79375 h -0.52917 -0.52917 v -0.52917 -0.52917 h -0.64305 -0.64306 l -0.11466,0.59532 -0.11466,0.59531 -0.036,-0.76357 -0.036,-0.76357 1.24242,0.17029 1.24241,0.1703 0.19087,0.30883 0.19087,0.30884 -0.0597,1.54121 -0.0597,1.54121 h 0.75421 0.75422 l -0.0773,2.05052 -0.0773,2.05052 -0.66146,0.0433 -0.66146,0.0433 z m 6.61458,-0.016 -0.7276,-0.11023 v -0.49319 -0.49319 l -0.59531,-0.0846 -0.59531,-0.0845 -0.0244,-1.25848 -0.0244,-1.25848 0.10388,1.16429 0.10388,1.1643 1.17727,0.17654 1.17728,0.17654 v 0.51296 0.51295 h 1.30451 1.30452 l 0.0845,-0.59531 0.0846,-0.59531 0.57905,-0.0824 0.57904,-0.0824 0.10842,-0.44675 0.10842,-0.44675 -0.026,0.52917 -0.026,0.52917 -0.59531,0.0845 -0.59531,0.0846 v 0.64306 0.64305 l -1.38907,-0.0396 -1.38906,-0.0396 -0.7276,-0.11022 z m -0.62131,-6.0282 0.026,-0.52917 0.59937,-0.0352 0.59936,-0.0352 -0.51695,0.11762 -0.51695,0.11762 -0.10842,0.44675 -0.10842,0.44675 0.026,-0.52916 z m -10.68962,-0.52917 v -0.13229 h 0.13229 0.13229 v 0.13229 0.13229 h -0.13229 -0.13229 z m 5.34324,-1.85208 0.01,-0.79375 0.12197,0.46805 0.12197,0.46806 -0.13178,0.32569 -0.13177,0.3257 0.01,-0.79375 z m 7.27434,0.47686 0.57904,-0.11253 0.11254,-0.57904 0.11253,-0.57904 0.036,0.7276 0.036,0.7276 -0.72761,-0.036 -0.7276,-0.036 z m 1.9345,0.0523 v -0.13229 h 0.13229 0.13229 v 0.13229 0.13229 h -0.13229 -0.13229 z m -5.75105,-2.7034 0.73124,-0.11057 0.59168,0.11418 0.59167,0.11419 -1.32291,-0.004 -1.32292,-0.004 z m -5.2953,-2.64192 0.7276,-0.11378 v -0.48075 -0.48075 l 0.60877,-0.11637 0.60877,-0.11638 -0.10115,0.68084 -0.10115,0.68085 -1.23522,0.0301 -1.23523,0.0301 z m 10.29797,-0.0194 -0.30995,-0.10332 v -0.50712 -0.50712 h 0.51159 0.51159 l 0.11335,-0.59531 0.11336,-0.59531 -0.10917,1.10561 -0.10915,1.10561 0.74098,0.11781 0.74099,0.11781 -0.94681,-0.0177 -0.94682,-0.0177 -0.30996,-0.10332 z m -6.47533,-1.28925 0.58149,-0.12608 0.10698,-1.24017 0.10698,-1.24018 -0.027,1.32291 -0.027,1.32292 -0.66146,0.0433 -0.66146,0.0433 z m -7.22209,-2.07727 0.026,-0.52916 0.59937,-0.0352 0.59936,-0.0352 -0.51695,0.11762 -0.51695,0.11762 -0.10842,0.44675 -0.10842,0.44675 0.026,-0.52917 z m 18.43544,0.21684 -0.0209,-0.57691 -0.59531,-0.11466 -0.59531,-0.11466 0.60361,-0.036 0.60362,-0.036 0.14894,0.38815 0.14895,0.38815 -0.13636,0.33945 -0.13636,0.33946 -0.0209,-0.57691 z m -5.31256,-2.06892 v -0.13229 h 0.1323 0.13229 v 0.13229 0.13229 h -0.13229 -0.1323 z m -5.27077,-4.54566 -0.0209,-0.57691 -0.59532,-0.0845 -0.59531,-0.0846 -0.0352,-0.59937 -0.0352,-0.59936 0.11975,0.53322 0.11975,0.53322 h 0.51907 0.51907 l 0.14894,0.38815 0.14895,0.38814 -0.13636,0.33946 -0.13637,0.33946 z m 2.73123,-0.21684 0.026,-0.52917 0.57904,-0.0824 0.57904,-0.0824 0.12576,-0.57904 0.12575,-0.57904 -0.0433,0.66145 -0.0433,0.66146 -0.57904,0.0824 -0.57904,0.0824 -0.10842,0.44675 -0.10842,0.44676 0.026,-0.52917 z"
         style="display:inline;fill:#979797;stroke-width:0.26458335" />
      <path
         id="path95"
         d="m 221.4279,220.50422 -0.46302,-0.121 v -0.50977 -0.50977 h 0.52917 0.52916 v 0.66146 0.66146 l -0.0661,-0.0307 -0.0661,-0.0307 z m 2.11285,-5.53203 -0.15816,-0.15816 0.14237,-0.371 0.14237,-0.37101 h 2.45693 2.45692 l 0.14237,0.37101 0.14237,0.371 -0.15816,0.15816 -0.15816,0.15816 h -2.42534 -2.42535 z m 1.14919,-2.93229 -0.0209,-0.57691 -0.59532,-0.11466 -0.59531,-0.11467 0.60362,-0.036 0.60362,-0.036 0.14894,0.38815 0.14895,0.38814 -0.13636,0.33946 -0.13637,0.33946 z m 2.73123,-0.21684 0.026,-0.52917 0.59937,-0.0352 0.59936,-0.0352 -0.51695,0.11761 -0.51695,0.11762 -0.10842,0.44675 -0.10842,0.44676 0.026,-0.52917 z m -9.22058,-1.85208 -0.17855,-1.19063 h -0.51295 -0.51296 v -0.77731 -0.7773 l 0.52917,0.0399 0.52916,0.0399 v 0.76748 0.76747 l 0.72761,-0.10721 0.7276,-0.10722 -0.0917,1.26781 -0.0917,1.26781 h -0.47359 -0.47359 z m 4.08721,0.0184 v -1.20903 h 0.64546 0.64547 l -0.0502,1.12448 -0.0502,1.12448 -0.59531,0.0845 -0.59531,0.0845 z m 6.52386,0.97378 -0.12195,-0.19843 5.3e-4,-0.99219 5.3e-4,-0.99219 h 0.635 0.635 v 1.19063 1.19062 h -0.51355 -0.51355 l -0.12195,-0.19844 z m 4.05947,-0.29765 v -0.4961 l -0.15905,-0.79524 -0.15905,-0.79525 0.67424,0.12889 0.67424,0.12889 0.0873,0.43484 0.0873,0.43485 -0.10332,0.72761 -0.10333,0.7276 h -0.49913 -0.49914 z m 1.32292,-2.66247 v -0.7773 l 0.52916,0.0399 0.52917,0.0399 v 0.73744 0.73745 h -0.52917 -0.52916 z m -14.55209,-1.47165 v -0.66146 h 0.52917 0.52917 v 0.66146 0.66146 h -0.52917 -0.52917 z m 11.90625,0 v -0.66146 h 0.52917 0.52917 v 0.66146 0.66146 h -0.52917 -0.52917 z m -6.61458,-1.32291 v -0.66146 h 1.19063 1.19062 v 0.66146 0.66145 h -1.19062 -1.19063 z m -4.23333,-0.52917 v -0.13229 h 0.13229 0.13229 v 0.13229 0.13229 h -0.13229 -0.13229 z m 1.32291,-1.32292 v -0.13229 h 0.1323 0.13229 v 0.13229 0.13229 h -0.13229 -0.1323 z m 2.64584,0 v -0.13229 h 0.13229 0.13229 v 0.13229 0.13229 h -0.13229 -0.13229 z m 2.64583,0 v -0.13229 h 0.13229 0.13229 v 0.13229 0.13229 h -0.13229 -0.13229 z m 2.64583,0 v -0.13229 h 0.1323 0.13229 v 0.13229 0.13229 h -0.13229 -0.1323 z m -5.29166,-6.61458 v -0.13229 h 0.13229 0.13229 v 0.13229 0.13229 h -0.13229 -0.13229 z m 2.64583,0 v -0.13229 h 0.13229 0.13229 v 0.13229 0.13229 h -0.13229 -0.13229 z"
         style="display:inline;fill:#f79717;stroke-width:0.26458335" />
      <path
         id="path93"
         d="m 227.41504,226.91598 -0.15677,-0.40855 0.15229,-0.39687 0.1523,-0.39688 h 0.51906 0.51907 l 0.0846,-0.59531 0.0846,-0.59531 h 1.98437 1.98438 v 0.66146 0.66146 l -0.57904,0.0824 -0.57904,0.0824 -0.0824,0.57904 -0.0824,0.57904 -1.92205,0.0778 -1.92206,0.0778 z m -6.61194,-1.31603 -0.15942,-0.41543 0.15942,-0.41544 0.15941,-0.41543 0.5965,0.0847 0.5965,0.0847 v 0.66146 0.66146 l -0.5965,0.0847 -0.5965,0.0847 z"
         style="display:inline;fill:#2f6ff7;stroke-width:0.26458335" />
      <path
         id="path91"
         d="m 221.45959,221.83324 -0.43133,-0.1149 -0.17276,-1.08036 -0.17275,-1.08036 0.14106,-0.14106 0.14107,-0.14107 v 0.5424 0.54241 l 0.52917,0.13838 0.52916,0.13838 v 0.68623 0.68623 l -0.0661,-0.0307 -0.0661,-0.0307 z m 12.51943,-1.33188 1.24018,-0.10698 0.0827,-0.58149 0.0827,-0.5815 0.52917,-0.026 0.52917,-0.026 -0.44676,0.10842 -0.44674,0.10842 -0.0824,0.57904 -0.0824,0.57905 -1.32291,0.027 -1.32292,0.027 z m -1.34178,-3.05591 -0.0307,-0.7276 h -0.66146 -0.66146 l 0.036,-0.7276 0.036,-0.72761 0.11467,0.59531 0.11466,0.59532 h 0.51907 0.51907 l 0.14636,0.38142 0.14637,0.38142 -0.12398,0.47847 -0.12398,0.47848 z m 2.61514,0.46303 v -0.1323 h 0.13229 0.13229 v 0.1323 0.13229 h -0.13229 -0.13229 z m -1.32292,-1.32292 v -0.13229 h 0.1323 0.13229 v 0.13229 0.13229 h -0.13229 -0.1323 z m -11.04635,-1.37735 -0.59531,-0.11466 v -0.51077 -0.51076 h 0.67305 0.67306 l -0.0777,0.46302 -0.0778,0.46302 h 2.64584 2.64583 l -0.0778,-0.46302 -0.0777,-0.46302 h 0.67306 0.67305 v 0.49455 0.49454 l -0.99218,0.164 -0.99219,0.164 -2.24896,-0.0331 -2.24896,-0.0331 z m 0.67152,-3.33979 -0.11778,-0.6161 0.6161,0.11778 0.6161,0.11777 v 0.49832 0.49833 h -0.49833 -0.49832 z m 4.02483,0.11777 v -0.49832 l 0.6161,-0.11777 0.6161,-0.11778 -0.11778,0.6161 -0.11777,0.6161 h -0.49832 -0.49833 z m -9.98802,-2.06965 -0.59531,-0.11466 v -0.51076 -0.51077 h 0.52917 0.52916 l 0.0477,-1.38906 0.0477,-1.38906 0.0991,1.25677 0.0991,1.25677 h 0.4971 0.49709 l 0.10925,-0.59532 0.10925,-0.59531 -0.0255,0.66146 -0.0255,0.66146 -0.75459,0.0863 -0.75459,0.0863 0.12259,0.64128 0.12259,0.64128 -0.0295,-0.036 -0.0294,-0.036 z m 1.78594,0.0544 v -0.1323 h 0.13229 0.13229 v 0.1323 0.13229 h -0.13229 -0.13229 z m 13.22917,0 v -0.1323 h 0.13229 0.13229 v 0.1323 0.13229 h -0.13229 -0.13229 z m 1.36731,-0.10534 0.0183,-0.15925 -0.0313,-0.44462 -0.0313,-0.44462 -0.59531,-0.0845 -0.59531,-0.0846 -0.0255,-0.66146 -0.0255,-0.66146 0.10926,0.59531 0.10925,0.59532 h 0.49709 0.4971 l 0.0991,-1.25677 0.0991,-1.25677 0.0477,1.38906 0.0477,1.38906 h 0.52916 0.52917 v 0.49832 0.49833 l -0.64839,0.12394 -0.6484,0.12395 0.0183,-0.15925 z m -11.90887,-0.55612 v -0.66146 l 0.13345,0.33073 0.13345,0.33073 -0.13345,0.33073 -0.13345,0.33073 z m 7.9375,0 v -0.66146 l 0.13345,0.33073 0.13346,0.33073 -0.13346,0.33073 -0.13345,0.33073 z m -10.36053,-3.96875 v -0.52917 h 0.52917 0.52917 v 0.52917 0.52916 h -0.52917 -0.52917 z m 11.90625,0 v -0.52917 h 0.52917 0.52917 v 0.52917 0.52916 h -0.52917 -0.52917 z m -6.66709,-1.25677 0.1142,-0.59532 h 1.15978 1.15978 v 0.50363 0.50364 l -1.27398,0.0917 -1.27398,0.0917 z m -5.39745,-0.19844 0.026,-0.52917 0.57904,-0.0824 0.57905,-0.0824 0.11253,-0.57904 0.11253,-0.57904 0.036,0.7276 0.036,0.7276 h 0.52917 0.52916 v 0.52917 0.52917 h -0.52916 -0.52917 v -0.52917 -0.52917 h -0.64306 -0.64305 l -0.11055,0.46302 -0.11056,0.46303 0.026,-0.52917 z m 10.74163,0.13229 v -0.52917 h 0.52916 0.52917 l 0.036,-0.7276 0.036,-0.7276 0.11253,0.57904 0.11254,0.57904 0.57904,0.0824 0.57904,0.0824 0.0352,0.59937 0.0352,0.59937 -0.11975,-0.53322 -0.11975,-0.53323 h -0.51076 -0.51077 l -0.0313,0.33073 -0.0313,0.33073 0.0313,0.19844 0.0313,0.19844 h -0.66145 -0.66146 z m -8.20209,-1.98437 v -0.1323 h 0.1323 0.13229 v 0.1323 0.13229 h -0.13229 -0.1323 z m 7.9375,0 v -0.1323 h 0.1323 0.13229 v 0.1323 0.13229 h -0.13229 -0.1323 z m -9.85573,-1.36413 0.59532,-0.12789 v -0.49236 -0.49236 l -0.59532,-0.11466 -0.59531,-0.11467 0.57691,-0.036 0.57691,-0.036 0.11467,-0.59531 0.11466,-0.59531 0.036,0.59531 0.036,0.59531 h 0.51077 0.51076 l 0.0846,-0.59531 0.0845,-0.59531 1.19062,-0.0216 1.19063,-0.0216 -1.10789,0.10158 -1.10789,0.10158 -0.0827,0.58149 -0.0827,0.58149 -0.57905,0.0824 -0.57904,0.0824 -0.0824,0.57905 -0.0824,0.57904 -0.66146,0.0433 -0.66146,0.0433 z m 5.29641,-0.0182 0.86463,-0.10707 0.72287,0.10977 0.72287,0.10977 -1.5875,-0.003 -1.5875,-0.003 0.86463,-0.10707 z m 6.05863,0.0154 -0.17639,-0.17639 v -0.46666 -0.46667 l -0.59531,-0.0845 -0.59531,-0.0846 -0.0827,-0.58149 -0.0827,-0.58149 -1.24018,-0.10698 -1.24018,-0.10698 1.32292,0.027 1.32292,0.027 0.0845,0.59531 0.0846,0.59531 h 0.49236 0.49237 l 0.11466,-0.59531 0.11466,-0.59531 0.036,0.57691 0.036,0.57691 0.59532,0.11466 0.59531,0.11466 -0.59531,0.036 -0.59532,0.036 v 0.51077 0.51076 l 0.59532,0.11467 0.59531,0.11466 -0.55122,0.036 -0.55121,0.036 z m -8.11389,-3.92465 v -0.13229 h 0.13229 0.13229 v 0.13229 0.13229 h -0.13229 -0.13229 z m 5.29167,0 v -0.13229 h 0.13229 0.13229 v 0.13229 0.13229 h -0.13229 -0.13229 z"
         style="display:inline;fill:#df7700;stroke-width:0.26458335" />
      <path
         id="path89"
         d="m 220.96488,232.98973 v -0.66146 l 1.52135,0.003 1.52136,0.003 0.99219,0.164 0.99218,0.16399 v 0.49455 0.49455 h -2.51354 -2.51354 v -0.66146 z m 6.61458,0 v -0.66146 h 2.51355 2.51354 v 0.66146 0.66145 h -2.51354 -2.51355 z m -7.9375,-1.32292 v -0.69826 l 0.59532,0.0846 0.59531,0.0845 v 0.52917 0.52917 l -0.59531,0.0845 -0.59532,0.0846 z m 6.61459,0 v -0.69826 l 0.59531,0.0846 0.59531,0.0845 v 0.52917 0.52917 l -0.59531,0.0845 -0.59531,0.0846 z m 6.54689,0.46302 -0.0989,-0.19844 0.0172,-0.39687 0.0172,-0.39688 1.25677,-0.0806 1.25677,-0.0806 v 0.67595 0.67596 h -1.17501 -1.17501 l -0.0989,-0.19844 z m -11.37554,-2.38873 -0.46302,-0.0975 v -0.50976 -0.50977 h 0.50086 0.50086 l 0.13612,0.35472 0.13612,0.35473 -0.17396,0.25251 -0.17396,0.25251 z m 6.48229,0.016 -0.33073,-0.11882 v -0.50711 -0.50712 h 0.50086 0.50086 l 0.14487,0.37753 0.14488,0.37753 -0.31501,0.2484 -0.315,0.2484 z m -7.09326,-7.89214 -0.18038,-1.20284 0.16416,-0.16417 0.16417,-0.16417 v 0.6747 0.6747 l 0.52917,0.13838 0.52916,0.13838 v 0.55393 0.55394 h -0.51295 -0.51296 z m 11.78962,0.0122 v -0.1323 h 0.13229 0.13229 v 0.1323 0.13229 h -0.13229 -0.13229 z m -6.61459,-3.96875 v -0.1323 h 0.1323 0.13229 v 0.1323 0.13229 h -0.13229 -0.1323 z m 1.32292,-1.32292 v -0.13229 h 0.13229 0.13229 v 0.13229 0.13229 h -0.13229 -0.13229 z m -4.82865,-1.36585 0.33073,-0.13346 0.33073,0.13346 0.33073,0.13345 h -0.66146 -0.66145 z m 6.15157,0.0429 v -0.13229 h 0.13229 0.13229 v 0.13229 0.13229 h -0.13229 -0.13229 z m -4.41968,-1.38751 2.06261,-0.0904 1.90614,0.0911 1.90614,0.0911 -3.96875,-6.6e-4 -3.96875,-6.6e-4 2.06261,-0.0904 z m -0.6956,-1.30242 -0.17639,-0.17639 v -0.46666 -0.46667 l -0.59531,-0.0845 -0.59531,-0.0846 -0.0255,-0.66146 -0.0255,-0.66145 0.10768,0.579 0.10768,0.57901 0.57931,0.0825 0.57931,0.0824 0.0824,0.57931 0.0824,0.57932 0.7113,0.10864 0.7113,0.10865 -0.6835,0.0396 -0.68351,0.0396 z m 4.50366,-0.0125 0.57901,-0.10767 0.0824,-0.57932 0.0825,-0.57931 0.57931,-0.0824 0.57931,-0.0825 0.11438,-0.64843 0.11438,-0.64842 -0.0322,0.73088 -0.0322,0.73087 -0.57905,0.0824 -0.57904,0.0824 -0.0824,0.57905 -0.0824,0.57904 -0.66146,0.0255 -0.66146,0.0255 0.57901,-0.10767 z m -9.78417,-1.29923 -0.18755,-0.18755 v -0.46667 -0.46667 l -0.59531,-0.0846 -0.59531,-0.0845 -0.023,-1.39056 -0.023,-1.39056 0.10239,1.30774 0.10239,1.30775 0.58206,0.0828 0.58207,0.0828 0.0845,0.59531 0.0846,0.59531 h 0.49236 0.49237 l 0.11975,-0.53322 0.11975,-0.53322 -0.0352,0.59936 -0.0352,0.59937 -0.54005,0.0773 -0.54006,0.0773 z m 14.47069,-0.20437 -0.15607,-0.4067 0.13636,-0.33946 0.13637,-0.33945 0.0209,0.59531 0.0209,0.59531 h 0.51077 0.51076 l 0.0846,-0.59531 0.0845,-0.59531 0.58206,-0.0828 0.58207,-0.0828 0.10462,-1.37239 0.10463,-1.3724 -0.0252,1.45521 -0.0252,1.45521 -0.57904,0.0824 -0.57904,0.0824 -0.0824,0.57904 -0.0824,0.57904 -0.5965,0.0847 -0.59649,0.0847 z m -10.08914,-2.45959 0.46806,-0.12197 0.32569,0.13177 0.3257,0.13177 -0.79375,-0.01 -0.79375,-0.01 0.46805,-0.12197 z m 6.61458,0 0.46806,-0.12197 0.32569,0.13177 0.3257,0.13177 -0.79375,-0.01 -0.79375,-0.01 0.46805,-0.12197 z m -10.91909,-0.74269 v -0.66146 h 0.52916 0.52917 l 0.0307,-1.25677 0.0307,-1.25677 0.12773,0.49793 0.12772,0.49794 -0.17745,1.42029 -0.17746,1.4203 h -0.51012 -0.51013 z m 14.4127,-0.75884 -0.17745,-1.42029 0.12772,-0.49794 0.12773,-0.49793 0.0307,1.25677 0.0307,1.25677 h 0.52917 0.52916 v 0.66146 0.66146 h -0.51012 -0.51013 z m -1.44812,-0.94255 v -1.30452 l -0.59531,-0.11466 -0.59531,-0.11466 0.7276,-0.036 0.7276,-0.036 v 1.45521 1.4552 h -0.13229 -0.13229 z m -14.55208,-0.15069 v -0.1323 h 0.13229 0.13229 v 0.1323 0.13229 h -0.13229 -0.13229 z m 1.32291,0 v -0.1323 h 0.1323 0.13229 v 0.1323 0.13229 h -0.13229 -0.1323 z m 6.66617,-0.52917 0.01,-0.79375 0.12197,0.46806 0.12197,0.46805 -0.13177,0.3257 -0.13178,0.32569 0.01,-0.79375 z m 9.20883,0.52917 v -0.1323 h 0.1323 0.13229 v 0.1323 0.13229 h -0.13229 -0.1323 z m 1.32292,0 v -0.1323 h 0.13229 0.13229 v 0.1323 0.13229 h -0.13229 -0.13229 z"
         style="display:inline;fill:#b76700;stroke-width:0.26458335" />
      <path
         id="path87"
         d="m 232.81658,218.50379 -0.0777,-1.91823 -0.59531,-0.0845 -0.59532,-0.0846 v -0.51076 -0.51077 h 1.19063 1.19062 v 0.66146 0.66146 h 0.66146 0.66146 v 0.66146 0.66146 h 0.66146 0.66146 v 0.51076 0.51077 l -0.59531,0.0845 -0.59532,0.0846 -0.0846,0.59531 -0.0845,0.59532 h -1.16063 -1.16064 z m -13.17462,-14.33525 v -0.67986 h 0.66146 0.66146 v -0.66145 -0.66146 h 0.66146 0.66146 v -0.66146 -0.66146 h 3.83646 3.83645 v 0.66146 0.66146 h 0.66146 0.66146 v 0.60398 0.60397 l -4.16719,-0.0616 -4.16718,-0.0616 -0.97649,0.1397 -0.97649,0.13971 -0.0818,0.57471 -0.0819,0.57471 -0.59531,0.0846 -0.59532,0.0845 z m 11.84125,0.31233 -0.12163,-0.33073 0.11537,-0.33073 0.11536,-0.33073 h 0.50712 0.50712 v 0.66146 0.66146 h -0.50086 -0.50086 z m -11.84125,-4.43177 v -0.52917 h 0.52917 0.52917 v 0.52917 0.52917 h -0.52917 -0.52917 z m 11.90625,0 v -0.52917 h 0.52917 0.52917 v 0.52917 0.52917 h -0.52917 -0.52917 z m -10.58333,-1.98437 v -1.19063 h 1.32292 1.32291 v -0.66146 -0.66146 h 2.51355 2.51354 v 0.66146 0.66146 h 1.32291 1.32292 v 1.19063 1.19062 h -0.51076 -0.51077 l -0.0846,-0.59531 -0.0845,-0.59531 -1.25678,-0.0806 -1.25677,-0.0806 v -0.64696 -0.64696 h -1.4552 -1.45521 v 0.64696 0.64696 l -1.25677,0.0806 -1.25677,0.0806 -0.0845,0.59531 -0.0846,0.59531 h -0.51076 -0.51077 z"
         style="display:inline;fill:#f70707;stroke-width:0.26458335" />
      <path
         id="path85"
         d="m 224.93363,229.15327 v -0.52917 h 0.52917 0.52916 v 0.52917 0.52916 h -0.52916 -0.52917 z m 6.56684,-0.0661 -0.0846,-0.59531 -2.56557,-0.0756 -2.56558,-0.0755 -0.0803,-1.24736 -0.0803,-1.24736 h -0.66146 -0.66146 l -0.0806,1.25677 -0.0806,1.25677 h -2.49904 -2.49905 v -1.83368 -1.83369 l 0.59532,-0.0845 0.59531,-0.0846 0.0824,-0.57904 0.0824,-0.57904 0.57904,-0.0824 0.57905,-0.0824 0.0777,-1.91823 0.0777,-1.91823 h 1.82599 1.826 l 0.0806,1.25677 0.0806,1.25678 0.59531,0.0845 0.59531,0.0846 v 0.49173 0.49172 l 1.38906,0.16887 1.38907,0.16887 1.98437,-0.0837 1.98438,-0.0837 0.0845,-0.59531 0.0846,-0.59531 h 0.51077 0.51076 v 1.83368 1.83368 l -0.59531,0.0845 -0.59531,0.0846 -0.0777,1.91823 -0.0777,1.91822 h -1.16063 -1.16063 z m -0.002,-2.49727 0.0824,-0.57904 0.57904,-0.0824 0.57903,-0.0824 v -0.66146 -0.66146 h -1.98438 -1.98437 l -0.0846,0.59531 -0.0846,0.59531 h -0.51907 -0.51906 l -0.1523,0.39688 -0.15229,0.39687 0.15677,0.40855 0.15677,0.40854 1.92206,-0.0778 1.92205,-0.0778 0.0824,-0.57904 z m -9.34284,-1.40533 v -0.66146 l -0.5965,-0.0847 -0.5965,-0.0847 -0.15941,0.41543 -0.15942,0.41544 0.15942,0.41543 0.15941,0.41543 0.5965,-0.0847 0.5965,-0.0847 z m -1.28957,-8.00366 0.0334,-1.91822 0.0328,-0.7276 0.0328,-0.72761 h 0.52917 0.52916 v 2.64584 2.64583 l -0.59531,-1e-5 -0.59531,-2e-5 z m 8.03644,-1.25676 v -0.52917 h 0.52917 0.52916 v 0.52917 0.52917 h -0.52916 -0.52917 z m 1.32292,-1.48828 v -0.69453 l 0.82682,0.16536 0.82682,0.16537 h 0.36381 0.3638 v 0.52916 0.52917 h -1.19063 -1.19062 z"
         style="display:inline;fill:#001fcf;stroke-width:0.26458335" />
      <path
         id="path83"
         d="m 224.66905,229.29939 v -0.64763 l -1.38907,-0.0972 -1.38906,-0.0972 1.37457,-0.0489 1.37456,-0.0489 0.0806,-1.25677 0.0806,-1.25677 h 0.66146 0.66146 l 0.08,1.24053 0.08,1.24053 0.71377,0.10889 0.71378,0.10889 -0.72761,0.0396 -0.7276,0.0396 v 0.66146 0.66146 h -0.79375 -0.79375 z m 1.32291,-0.14612 v -0.52917 h -0.52916 -0.52917 v 0.52917 0.52916 h 0.52917 0.52916 z m 0,-1.98438 v -1.19062 h -0.52916 -0.52917 v 1.19062 1.19063 h 0.52917 0.52916 z m 5.29167,2.1305 v -0.64763 l -1.32441,-0.10297 -1.32442,-0.10296 1.39056,0.023 1.39056,0.023 0.0846,0.59531 0.0845,0.59532 h 1.16063 1.16063 l 0.0777,-1.91823 0.0777,-1.91823 0.59531,-0.0846 0.59531,-0.0845 v -1.83368 -1.83368 h -0.51076 -0.51077 l -0.0846,0.59531 -0.0845,0.59532 -1.19063,0.0216 -1.19062,0.0216 1.10788,-0.10158 1.10789,-0.10157 0.0827,-0.5815 0.0827,-0.5815 0.7276,-0.0837 0.7276,-0.0837 v 2.13424 2.13424 h -0.66145 -0.66146 v 1.98437 1.98438 h -1.45521 -1.45521 z m -11.90625,-2.79196 v -2.11666 h 0.64388 0.64389 l 0.12202,-0.72761 0.12201,-0.7276 -0.0383,0.79375 -0.0383,0.79375 -0.59531,0.0846 -0.59532,0.0845 v 1.81611 1.81611 l 0.72761,0.11022 0.7276,0.11023 -0.85989,0.0396 -0.8599,0.0396 z m -1.32292,-5.15937 v -0.66146 h -0.66145 -0.66146 l 0.036,-0.7276 0.036,-0.72761 0.11253,0.57905 0.11253,0.57904 0.57904,0.0824 0.57905,0.0824 0.0827,0.58149 0.0827,0.5815 1.24018,0.0984 1.24018,0.0984 -1.38906,0.0477 -1.38907,0.0477 z m 4.07912,-2.34297 -0.1376,-0.3586 0.0949,-1.69192 0.0949,-1.69193 0.051,1.90664 0.051,1.90664 1.91823,0.0913 1.91823,0.0913 -1.92654,0.0526 -1.92653,0.0526 z m 6.54599,-3.08099 v -0.66146 l 0.13346,0.33073 0.13345,0.33073 -0.13345,0.33073 -0.13346,0.33073 z m 1.38743,-0.13229 0.026,-0.52917 0.59937,-0.0352 0.59937,-0.0352 -0.51696,0.11761 -0.51695,0.11763 -0.10842,0.44674 -0.10842,0.44676 0.026,-0.52917 z m -9.96202,-0.57038 0.59532,-0.12788 v -1.30452 -1.30451 h -0.68472 -0.68471 l 0.18577,-1.12448 0.18578,-1.12448 0.0386,-0.0468 0.0386,-0.0468 1.05566,-0.0855 1.05565,-0.0855 0.0819,0.57485 0.0819,0.57485 -0.61104,0.0866 -0.61103,0.0866 v 0.52917 0.52917 l 0.59531,0.0845 0.59531,0.0846 v -0.54757 -0.54757 h 0.66146 0.66146 v 0.52917 0.52917 h -0.69149 -0.69149 l 0.10964,0.74699 0.10963,0.74698 -0.58859,-0.11251 -0.58859,-0.11252 -0.0863,0.75459 -0.0863,0.75459 -0.66146,0.0433 -0.66146,0.0433 z m 12.50157,-0.58643 v -0.49535 l -1.07439,-0.1718 -1.07438,-0.1718 -0.26883,0.16614 -0.26882,0.16614 0.0864,-0.75576 0.0864,-0.75576 0.59531,-0.0845 0.59531,-0.0846 v -0.64305 -0.64306 h -0.52917 -0.52916 v -0.6598 -0.6598 l 0.59531,0.11097 0.59531,0.11097 0.59531,0.0197 0.59532,0.0197 v 1.19062 1.19063 h -0.66146 -0.66146 v 0.66146 0.66145 h 0.79375 0.79375 v 0.66146 0.66146 h -0.13229 -0.13229 z m -9.26042,-1.35673 v -0.52917 h 2.64583 2.64584 v 0.52917 0.52916 h -2.64584 -2.64583 z m 5.55625,-1.32292 v -0.52917 h 0.52917 0.52916 v 0.52917 0.52917 h -0.52916 -0.52917 z m 1.52135,-3.35023 0.33073,-0.13345 0.33073,0.13345 0.33073,0.13345 h -0.66146 -0.66145 z"
         style="display:inline;fill:#4f4f4f;stroke-width:0.26458335" />
      <path
         id="path81"
         d="m 231.54821,222.53868 v -0.52916 h 0.66146 0.66146 v -0.64696 -0.64697 l 1.25677,-0.0806 1.25677,-0.0806 0.0846,-0.59531 0.0845,-0.59532 h 0.51076 0.51077 v -0.64305 -0.64306 l -0.59531,-0.0846 -0.59532,-0.0845 -0.0824,-0.57905 -0.0824,-0.57904 -0.57904,-0.0824 -0.57904,-0.0824 -0.0827,-0.58149 -0.0827,-0.5815 -1.17574,-0.10435 -1.17574,-0.10434 1.25848,0.0244 1.25848,0.0244 0.0824,0.57904 0.0824,0.57904 0.57904,0.0824 0.57904,0.0824 0.0846,0.59531 0.0845,0.59531 h 0.49515 0.49515 l 0.16952,0.27429 0.16952,0.2743 -0.17451,1.03292 -0.17451,1.03292 -0.57471,0.0819 -0.57471,0.0818 -0.0824,0.57904 -0.0824,0.57904 -0.57904,0.0824 -0.57904,0.0824 -0.0845,0.59531 -0.0846,0.59531 h -1.17222 -1.17223 z m -9.26041,-5.29166 v -1.85209 h 3.175 3.175 v 0.52917 0.52917 h -0.66146 -0.66146 v 0.66146 0.66145 h -0.66146 -0.66146 v 0.66146 0.66146 h -1.85208 -1.85208 z m 9.26041,0 v -0.52917 h 0.52917 0.52917 v 0.52917 0.52916 h -0.52917 -0.52917 z m -1.32291,-1.32292 v -0.52917 h 0.52916 0.52917 v 0.52917 0.52917 h -0.52917 -0.52916 z m -11.57552,-11.31094 -0.33073,-0.11024 v -1.83003 -1.83004 h 0.49508 0.49508 l 0.17549,-1.32292 0.17549,-1.32291 h 0.50248 0.50248 l 0.0837,-0.72761 0.0837,-0.7276 1.24018,-0.08 1.24018,-0.08 0.0827,-0.58149 0.0827,-0.5815 h 2.64584 2.64583 l 0.0827,0.5815 0.0827,0.58149 1.24018,0.08 1.24018,0.08 0.0837,0.7276 0.0837,0.72761 h 0.50248 0.50248 l 0.17549,1.32291 0.17549,1.32292 h 0.50668 0.50667 l -0.0777,1.8971 -0.0777,1.8971 -0.53582,0.0387 -0.53582,0.0387 0.007,-0.679 0.007,-0.67901 -0.59531,-0.0846 -0.59532,-0.0845 v -0.49319 -0.49319 l -0.7276,-0.0837 -0.7276,-0.0837 -0.0827,-0.5815 -0.0827,-0.58149 -1.24018,-0.0984 -1.24018,-0.0984 1.40747,-0.0477 1.40746,-0.0477 -0.0846,-0.59532 -0.0845,-0.59531 -0.59532,-0.0846 -0.59531,-0.0845 v -0.51077 -0.51076 h 0.51077 0.51076 l 0.0846,0.59531 0.0845,0.59531 0.57904,0.0824 0.57904,0.0824 0.0824,0.57905 0.0824,0.57904 0.59531,0.0846 0.59532,0.0845 v -0.81215 -0.81215 h -0.51296 -0.51295 l -0.17654,-1.17727 -0.17655,-1.17728 -1.22873,-0.0795 -1.22873,-0.0795 -0.0846,-0.59531 -0.0846,-0.59532 h -2.47673 -2.47674 l -0.0845,0.59532 -0.0846,0.59531 -1.22873,0.0795 -1.22873,0.0795 -0.17654,1.17728 -0.17655,1.17727 h -0.51295 -0.51296 v 0.81215 0.81215 l 0.59532,-0.0845 0.59531,-0.0846 0.0824,-0.57904 0.0824,-0.57905 0.57904,-0.0824 0.57905,-0.0824 0.0845,-0.59531 0.0846,-0.59531 h 0.51077 0.51076 v 0.51076 0.51077 l -0.59531,0.0845 -0.59531,0.0846 -0.0845,0.59531 -0.0846,0.59532 1.40746,0.0477 1.40747,0.0477 -1.24018,0.0984 -1.24018,0.0984 -0.0827,0.58149 -0.0827,0.5815 -0.72761,0.0837 -0.7276,0.0837 v 0.49319 0.49319 l -0.59532,0.0845 -0.59531,0.0846 0.007,0.68351 0.007,0.68351 h -0.27158 -0.27159 z m 3.37343,-3.39184 v -0.67986 l -0.59531,0.0846 -0.59531,0.0845 -0.0846,0.59531 -0.0846,0.59531 h 0.67986 0.67986 z m 9.47726,0.0846 -0.0846,-0.59531 -0.59531,-0.0845 -0.59531,-0.0846 v 0.67986 0.67986 h 0.67986 0.67986 z"
         style="display:inline;fill:#b70000;stroke-width:0.26458335" />
      <path
         id="path79"
         d="m 220.7003,233.25431 v -0.66146 h -0.66785 -0.66785 l 0.0725,-1.38906 0.0725,-1.38906 0.57904,-0.0824 0.57905,-0.0824 0.11253,-0.57904 0.11253,-0.57904 0.036,0.56445 0.036,0.56446 0.52917,0.13838 0.52916,0.13838 0.0314,-0.30596 0.0314,-0.30596 -0.043,-0.33073 -0.0429,-0.33073 h 1.33451 1.33452 v 1.85208 1.85209 h 0.66146 0.66145 l 0.0281,-0.72761 0.0281,-0.7276 0.038,-0.52917 0.038,-0.52916 0.59531,-0.0846 0.59531,-0.0845 0.0307,-0.57691 0.0307,-0.57691 0.13221,0.52917 0.13221,0.52916 0.29125,0.18331 0.29124,0.1833 0.32388,-0.2688 0.32388,-0.26879 -0.14488,-0.37753 -0.14487,-0.37753 h 1.35123 1.35122 v 0.66146 0.66146 h 1.45521 1.45521 v -0.79375 -0.79375 h 0.52916 0.52917 v 0.88911 0.88912 l 0.16825,1.22755 0.16826,1.22755 h -1.35888 -1.35888 v 0.66146 0.66146 h -2.77812 -2.77813 v -0.66146 -0.66146 h -0.52917 -0.52916 v 0.66146 0.66146 h -2.77813 -2.77812 z m 5.29166,-0.0977 v -0.49455 l -0.99218,-0.164 -0.99219,-0.164 -1.52136,-0.003 -1.52135,-0.003 v 0.66146 0.66145 h 2.51354 2.51354 z m 6.61459,-0.16691 v -0.66146 h -2.51354 -2.51355 v 0.66146 0.66145 h 2.51355 2.51354 z m -11.77396,-1.32292 v -0.52917 l -0.59531,-0.0845 -0.59532,-0.0846 v 0.69826 0.69826 l 0.59532,-0.0846 0.59531,-0.0845 z m 6.61458,0 v -0.52917 l -0.59531,-0.0845 -0.59531,-0.0846 v 0.69826 0.69826 l 0.59531,-0.0846 0.59531,-0.0845 z m 7.80521,-0.0145 v -0.67595 l -1.25677,0.0806 -1.25677,0.0806 -0.0172,0.39688 -0.0172,0.39687 0.0989,0.19844 0.0989,0.19844 h 1.17501 1.17501 v -0.67596 z m -14.51031,-9.11363 v -0.66145 l 0.13346,0.33073 0.13345,0.33072 -0.13345,0.33073 -0.13346,0.33073 z m 14.6166,-1.4552 0.026,-0.52917 0.57904,-0.0824 0.57904,-0.0824 0.11253,-0.57904 0.11253,-0.57905 0.036,0.72761 0.036,0.7276 h -0.64306 -0.64305 l -0.11055,0.46302 -0.11056,0.46302 0.026,-0.52916 z m 1.21663,-3.175 v -0.1323 h 0.13229 0.13229 v 0.1323 0.13229 h -0.13229 -0.13229 z m -1.32292,-1.32292 v -0.13229 h 0.13229 0.13229 v 0.13229 0.13229 h -0.13229 -0.13229 z m -1.32292,-1.32292 v -0.13229 h 0.1323 0.13229 v 0.13229 0.13229 h -0.13229 -0.1323 z m -10.58333,-2.64583 v -0.13229 h 0.13229 0.13229 v 0.13229 0.13229 h -0.13229 -0.13229 z m 5.29167,0 v -0.13229 h 0.13229 0.13229 v 0.13229 0.13229 h -0.13229 -0.13229 z m -10.58334,-1.32292 v -0.13229 h 0.1323 0.13229 v 0.13229 0.13229 h -0.13229 -0.1323 z m 1.32292,0 v -0.13229 h 0.13229 0.13229 v 0.13229 0.13229 h -0.13229 -0.13229 z m 2.64583,0 v -0.13229 h 0.1323 0.13229 v 0.13229 0.13229 h -0.13229 -0.1323 z m 7.9375,0 v -0.13229 h 0.1323 0.13229 v 0.13229 0.13229 h -0.13229 -0.1323 z m 2.64584,0 v -0.13229 h 0.13229 0.13229 v 0.13229 0.13229 h -0.13229 -0.13229 z m 1.32291,0 v -0.13229 h 0.1323 0.13229 v 0.13229 0.13229 h -0.13229 -0.1323 z m -17.19791,-1.32291 v -0.1323 h 0.13229 0.13229 v 0.1323 0.13229 h -0.13229 -0.13229 z m 18.52083,0 v -0.1323 h 0.13229 0.13229 v 0.1323 0.13229 h -0.13229 -0.13229 z m -17.02809,-3.77032 -0.164,-0.99218 -0.003,-2.31511 -0.003,-2.3151 0.72761,0.036 0.7276,0.036 -0.59531,0.11466 -0.59531,0.11466 v 1.83369 1.83368 l 0.33073,0.0313 0.33073,0.0313 0.19843,-0.0313 0.19844,-0.0313 v 1.32291 1.32292 h -0.49455 -0.49455 z m 14.64684,-0.34232 v -1.33452 l 0.46302,0.0777 0.46302,0.0777 0.0773,-1.89836 0.0773,-1.89836 -0.60651,-0.11613 -0.6065,-0.11613 0.7276,-0.036 0.72761,-0.036 -0.002,1.52135 -0.002,1.52136 -0.16867,1.78593 -0.16867,1.78594 h -0.4909 -0.49091 v -1.33451 z m -12.06455,-4.61861 0.026,-0.52917 0.57904,-0.0824 0.57904,-0.0824 0.0824,-0.57905 0.0824,-0.57904 0.73087,-0.0322 0.73088,-0.0322 -0.64843,0.11438 -0.64842,0.11438 -0.0825,0.57931 -0.0824,0.57931 -0.57905,0.0824 -0.57904,0.0824 -0.10842,0.44675 -0.10842,0.44675 0.026,-0.52916 z m 10.49794,0.21683 -0.0209,-0.57691 -0.59531,-0.0845 -0.59531,-0.0846 -0.0825,-0.57931 -0.0824,-0.57931 -0.64842,-0.11438 -0.64843,-0.11438 0.73088,0.0322 0.73088,0.0322 0.0845,0.59531 0.0846,0.59532 h 0.51907 0.51907 l 0.14894,0.38814 0.14895,0.38815 -0.13636,0.33946 -0.13636,0.33946 -0.0209,-0.57692 z m -11.89111,-2.79652 -0.036,-0.72761 0.7276,0.036 0.72761,0.036 -0.57904,0.11253 -0.57905,0.11253 -0.11253,0.57904 -0.11253,0.57904 z m 13.19314,0.0845 v -0.51077 l -0.59532,-0.11466 -0.59531,-0.11466 0.72761,-0.036 0.7276,-0.036 v 0.66146 0.66146 h -0.13229 -0.13229 z m -11.90625,-2.00278 v -0.13229 h 0.13229 0.13229 v 0.13229 0.13229 h -0.13229 -0.13229 z m 10.58333,0 v -0.13229 h 0.13229 0.13229 v 0.13229 0.13229 h -0.13229 -0.13229 z m -7.9375,-1.32292 v -0.13229 h 0.13229 0.13229 v 0.13229 0.13229 h -0.13229 -0.13229 z m 5.29167,0 v -0.13229 h 0.13229 0.13229 v 0.13229 0.13229 h -0.13229 -0.13229 z"
         style="display:inline;fill:#7f3700;stroke-width:0.26458335" />
      <path
         id="path77"
         d="m 220.7003,234.57723 v -0.66146 h -0.66146 -0.66146 v -0.66146 -0.66146 h -0.66146 -0.66146 v -1.45521 -1.45521 h 0.66146 0.66146 v -0.52916 -0.52917 h -0.66146 -0.66146 v -2.11667 -2.11666 h 0.66146 0.66146 v -0.52917 -0.52917 h -0.66146 -0.66146 v -0.66145 -0.66146 h -0.66145 -0.66146 v -0.66146 -0.66146 h -0.66146 -0.66146 v -2.11667 -2.11666 h 0.66146 0.66146 v -0.66146 -0.66146 h 0.66146 0.66145 v -0.66146 -0.66146 h 0.66146 0.66146 v -0.52916 -0.52917 h -0.66146 -0.66146 v -0.66146 -0.66146 h -0.66145 -0.66146 v -0.66145 -0.66146 h -0.66146 -0.66146 v -2.11667 -2.11667 h 0.66146 0.66146 v -2.64583 -2.64583 h 0.66146 0.66145 v -1.32292 -1.32292 h 0.66146 0.66146 v -0.66145 -0.66146 h 0.66146 0.66146 v -0.66146 -0.66146 h 1.32291 1.32292 v -0.66146 -0.66146 h 2.77813 2.77812 v 0.66146 0.66146 h 1.32292 1.32291 v 0.66146 0.66146 h 0.66146 0.66146 v 0.66146 0.66145 h 0.66146 0.66146 v 1.32292 1.32292 h 0.66146 0.66145 v 2.64583 2.64583 h 0.66146 0.66146 v 2.11667 2.11667 h -0.66146 -0.66146 v 0.66146 0.66145 h -0.66145 -0.66146 v 0.66146 0.66146 h -0.66146 -0.66146 v 0.52917 0.52916 h 0.66146 0.66146 v 0.66146 0.66146 h 0.66146 0.66145 v 0.66146 0.66146 h 0.66146 0.66146 v 0.66146 0.66145 h 0.66146 0.66146 v 1.45521 1.45521 h -0.66146 -0.66146 v 2.64583 2.64584 h -0.66146 -0.66146 v 1.19062 1.19063 h 0.66146 0.66146 v 2.11666 2.11667 h -0.66146 -0.66146 v 0.66146 0.66146 h -1.32291 -1.32292 v 0.66146 0.66145 h -6.08542 -6.08541 z m 5.55625,-1.32292 v -0.66146 h 0.52916 0.52917 v 0.66146 0.66146 h 2.77813 2.77812 v -0.66146 -0.66146 h 1.35888 1.35888 l -0.16826,-1.22755 -0.16825,-1.22755 v -0.88912 -0.88911 h -0.52917 -0.52916 v -1.19063 -1.19062 h 0.66146 0.66145 v -2.64584 -2.64583 h 0.66146 0.66146 v -1.45521 -1.45521 h -0.66146 -0.66146 v -0.66145 -0.66146 h -0.66145 -0.66146 v -0.66146 -0.66146 h -0.66146 -0.66146 v -0.66146 -0.66146 h -0.79375 -0.79375 v -0.66145 -0.66146 h 0.66146 0.66146 v -0.52917 -0.52917 h 0.79375 0.79375 v -0.66145 -0.66146 h 0.66146 0.66145 v -2.11667 -2.11667 h -0.75349 -0.75349 l 0.12741,-2.64583 0.1274,-2.64583 h -0.69683 -0.69683 v -1.32292 -1.32292 h -0.66146 -0.66146 v -0.66145 -0.66146 h -1.32291 -1.32292 v -0.66146 -0.66146 h -2.77812 -2.77813 v 0.66146 0.66146 h -1.32292 -1.32291 v 0.66146 0.66145 h -0.66146 -0.66146 v 1.32292 1.32292 h -0.66146 -0.66146 v 2.64583 2.64583 h -0.66145 -0.66146 v 2.11667 2.11667 h 0.66146 0.66145 v 0.66146 0.66145 h 0.66146 0.66146 v 0.52917 0.52917 h 0.66146 0.66146 v 1.32291 1.32292 h -1.32292 -1.32292 v 0.66146 0.66146 h -0.66145 -0.66146 v 2.11666 2.11667 h 0.66146 0.66145 v 0.66146 0.66146 h 1.32292 1.32292 v 1.19062 1.19063 h -0.66146 -0.66146 v 2.11666 2.11667 h 0.66146 0.66146 v 0.51077 0.51076 l -0.59532,0.0845 -0.59531,0.0846 -0.0725,1.38906 -0.0725,1.38906 h 0.66785 0.66785 v 0.66146 0.66146 h 2.77812 2.77813 z m -1.5875,-2.11667 v -1.19062 h 0.64206 0.64205 l 0.0927,0.46302 0.0927,0.46302 -0.10333,0.7276 -0.10332,0.72761 h -0.63142 -0.63143 z m 1.5875,-1.98437 v -0.52917 h 0.52916 0.52917 v 0.52917 0.52916 h -0.52917 -0.52916 z m -1.32292,-1.98438 v -1.19062 h 0.52917 0.52916 v 1.19062 1.19063 h -0.52916 -0.52917 z m -2.91042,-14.00451 v -0.64306 l -0.59531,-0.0846 -0.59531,-0.0845 v -0.52917 -0.52917 l 0.59531,-0.0846 0.59531,-0.0845 v 0.67986 0.67986 h 0.66146 0.66146 v 0.66146 0.66145 h -0.66146 -0.66146 z m 6.66233,0.0477 0.0846,-0.59531 0.57904,-0.0824 0.57904,-0.0824 0.0824,-0.57905 0.0824,-0.57904 0.59531,-0.0846 0.59531,-0.0845 v 0.66145 0.66146 l -0.59531,0.0846 -0.59531,0.0845 -0.0845,0.59531 -0.0846,0.59531 h -0.66146 -0.66146 z m -6.39774,-6.54844 v -1.85208 h 1.19062 1.19063 v 1.85208 1.85209 h -1.19063 -1.19062 z m 6.61458,0 v -1.85208 h 1.19063 1.19062 v 1.85208 1.85209 h -1.19062 -1.19063 z m -7.9375,-5.29166 v -0.52917 h 0.52917 0.52916 v 0.52917 0.52916 h -0.52916 -0.52917 z m 9.26042,0 v -0.52917 h 0.52916 0.52917 v 0.52917 0.52916 h -0.52917 -0.52916 z m -7.9375,-1.32292 v -0.52917 h 1.19062 1.19063 v 0.52917 0.52917 h -1.19063 -1.19062 z m 5.29166,0 v -0.52917 h 1.19063 1.19062 v 0.52917 0.52917 h -1.19062 -1.19063 z"
         style="display:inline;fill:#371700;stroke-width:0.26458335" />
    </g>
  </g>
</svg>
