<svg xmlns="http://www.w3.org/2000/svg" viewBox="0 -0.5 16 12" shape-rendering="crispEdges">
<metadata>Made with Pixels to Svg https://codepen.io/shshaw/pen/XbxvNj</metadata>
<path stroke="#000000" d="M6 0h1M11 0h3M6 1h1M11 1h1M13 1h1M6 2h1M11 2h1M13 2h1M6 3h1M8 3h7M6 4h1M8 4h1M14 4h1M0 5h5M6 5h1M8 5h1M10 5h1M12 5h1M14 5h1M0 6h1M4 6h12M1 7h1M15 7h1M1 8h15M1 9h1M15 9h1M2 10h1M14 10h1M2 11h13" />
<path stroke="#f8f800" d="M12 1h1M12 2h1" />
<path stroke="#f8f8f8" d="M9 4h5M9 5h1M11 5h1M13 5h1M1 6h3M2 7h13" />
<path stroke="#f88000" d="M2 9h1M3 10h1" />
<path stroke="#f80000" d="M3 9h12M4 10h10" />
</svg>