<svg xmlns="http://www.w3.org/2000/svg" viewBox="0 -0.5 12 16" shape-rendering="crispEdges">
<metadata>Made with Pixels to Svg https://codepen.io/shshaw/pen/XbxvNj</metadata>
<path stroke="#808080" d="M1 0h10M0 1h1M11 1h1M0 2h1M2 2h8M11 2h1M0 3h1M2 3h2M8 3h2M11 3h1M0 4h1M2 4h2M8 4h2M11 4h1M0 5h1M2 5h2M8 5h2M11 5h1M0 6h1M2 6h2M8 6h2M11 6h1M0 7h1M2 7h7M11 7h1M0 8h1M11 8h1M0 9h1M11 9h1M0 10h1M11 10h1M0 11h1M11 11h1M0 12h1M11 12h1M0 13h1M11 13h1M0 14h1M10 14h2M1 15h10" />
<path stroke="#f8f8f8" d="M1 1h1M4 3h1M4 4h1M4 5h1M4 6h1" />
<path stroke="#c0c0c0" d="M2 1h9M1 2h1M10 2h1M1 3h1M10 3h1M1 4h1M10 4h1M1 5h1M10 5h1M1 6h1M10 6h1M1 7h1M9 7h2M1 8h10M1 9h10M1 10h2M4 10h5M10 10h1M1 11h1M5 11h6M1 12h2M4 12h3M8 12h3M1 13h10M1 14h9" />
<path stroke="#f8f800" d="M5 3h3M5 4h3M5 5h3M5 6h3" />
<path stroke="#000000" d="M3 10h1M2 11h3M3 12h1" />
<path stroke="#c000c0" d="M9 10h1M7 12h1" />
</svg>