<svg xmlns="http://www.w3.org/2000/svg" viewBox="0 -0.5 16 16" shape-rendering="crispEdges">
<metadata>Made with Pixels to Svg https://codepen.io/shshaw/pen/XbxvNj</metadata>
<path stroke="#000000" d="M3 0h1M7 0h1M2 1h1M4 1h3M8 1h1M1 2h1M9 2h1M15 2h1M0 3h1M3 3h1M7 3h1M10 3h1M14 3h1M0 4h1M10 4h1M15 4h1M0 5h1M3 5h5M10 5h5M0 6h1M2 6h1M8 6h1M10 6h1M14 6h1M0 7h1M2 7h1M4 7h1M6 7h1M8 7h1M10 7h1M14 7h1M0 8h1M2 8h1M8 8h1M10 8h1M14 8h1M0 9h1M2 9h7M10 9h1M14 9h1M1 10h1M3 10h1M7 10h1M9 10h1M14 10h1M2 11h7M14 11h1M2 12h1M14 12h1M2 13h1M4 13h1M6 13h7M14 13h1M2 14h1M4 14h1M6 14h1M10 14h1M12 14h1M14 14h1M3 15h1M5 15h1M11 15h1M13 15h1" />
<path stroke="#f8c080" d="M3 1h1M7 1h1M2 2h7M1 3h1M4 3h3M9 3h1M1 4h9M1 5h2M8 5h2M1 6h1M3 6h5M9 6h1M11 6h3M1 7h1M3 7h1M5 7h1M7 7h1M9 7h1M11 7h3M1 8h1M3 8h5M9 8h1M11 8h3M1 9h1M9 9h1M11 9h3M2 10h1M8 10h1M10 10h4M9 11h5M3 12h11M3 13h1M5 13h1M13 13h1M3 14h1M5 14h1M11 14h1M13 14h1" />
<path stroke="#f8f8f8" d="M2 3h1M8 3h1" />
<path stroke="#f80000" d="M4 10h3" />
</svg>