<svg xmlns="http://www.w3.org/2000/svg" viewBox="0 -0.5 16 10" shape-rendering="crispEdges">
<metadata>Made with Pixels to Svg https://codepen.io/shshaw/pen/XbxvNj</metadata>
<path stroke="#000000" d="M3 0h3M13 0h2M2 1h1M6 1h1M12 1h1M15 1h1M2 2h2M7 2h5M15 2h1M1 3h1M15 3h1M0 4h1M15 4h1M0 5h1M15 5h1M0 6h1M5 6h1M10 6h1M13 6h2M1 7h1M6 7h1M10 7h3M2 8h6M10 8h1M8 9h3" />
<path stroke="#f8f8f8" d="M3 1h2M13 1h2M4 2h2M12 2h3M2 3h13M1 5h14M6 6h4M7 7h3M8 8h2" />
<path stroke="#c0c0c0" d="M5 1h1M6 2h1M1 6h4M11 6h2M2 7h4" />
<path stroke="#f80000" d="M1 4h14" />
</svg>