<svg xmlns="http://www.w3.org/2000/svg" viewBox="0 -0.5 16 16" shape-rendering="crispEdges">
<metadata>Made with Pixels to Svg https://codepen.io/shshaw/pen/XbxvNj</metadata>
<path stroke="#000000" d="M5 0h6M3 1h2M11 1h2M2 2h1M13 2h1M1 3h1M14 3h1M1 4h1M14 4h1M0 5h1M15 5h1M0 6h1M15 6h1M0 7h1M15 7h1M0 8h1M15 8h1M0 9h1M15 9h1M0 10h1M4 10h8M15 10h1M1 11h3M6 11h1M9 11h1M12 11h3M2 12h1M6 12h1M9 12h1M13 12h1M2 13h1M13 13h1M3 14h1M12 14h1M4 15h8" />
<path stroke="#f8f8f8" d="M5 1h2M3 2h4M11 2h2M2 3h4M12 3h2M2 4h3M7 4h4M13 4h1M6 5h6M2 6h2M6 6h6M1 7h4M6 7h6M14 7h1M1 8h4M7 8h4M13 8h2M2 9h2M13 9h2M14 10h1M4 11h2M7 11h2M10 11h2M3 12h3M7 12h2M10 12h3M3 13h10M4 14h8" />
<path stroke="#c000c0" d="M7 1h4M1 5h1M14 5h1M1 6h1M14 6h1M1 9h1M4 9h9M1 10h3M12 10h2" />
<path stroke="#f80000" d="M7 2h4M6 3h6M5 4h2M11 4h2M2 5h4M12 5h2M4 6h2M12 6h2M5 7h1M12 7h2M5 8h2M11 8h2" />
</svg>