<svg xmlns="http://www.w3.org/2000/svg" viewBox="0 -0.5 15 16" shape-rendering="crispEdges">
<metadata>Made with Pixels to Svg https://codepen.io/shshaw/pen/XbxvNj</metadata>
<path stroke="#000000" d="M7 0h1M6 1h1M8 1h1M6 2h1M8 2h1M5 3h1M9 3h1M5 4h1M9 4h1M0 5h5M10 5h5M0 6h1M6 6h1M8 6h1M14 6h1M1 7h1M6 7h1M8 7h1M13 7h1M2 8h1M6 8h1M8 8h1M12 8h1M3 9h1M11 9h1M2 10h1M12 10h1M2 11h1M12 11h1M1 12h1M7 12h1M13 12h1M1 13h1M5 13h2M8 13h2M13 13h1M0 14h1M3 14h2M10 14h2M14 14h1M0 15h3M12 15h3" />
<path stroke="#f8f800" d="M7 1h1M7 2h1M6 3h3M6 4h3M5 5h5M1 6h5M7 6h1M9 6h5M2 7h4M7 7h1M9 7h4M3 8h3M7 8h1M9 8h3M4 9h7M3 10h9M3 11h9M2 12h5M8 12h5M2 13h3M10 13h3M1 14h2M12 14h2" />
</svg>